<svg id="b9de18a5-a948-4408-a7d7-337da4d4b030" data-name="Layer 1" xmlns="http://www.w3.org/2000/svg" viewBox="0 0 16 16"><defs><style>.f1a759a3-a68f-4be3-bfcc-5e89baaebc72{fill:none;stroke:#333;stroke-linecap:round;stroke-miterlimit:10;}</style></defs><title>link</title><path class="f1a759a3-a68f-4be3-bfcc-5e89baaebc72" d="M9.1,9A3.09,3.09,0,0,0,9.5,7.5h0a3,3,0,0,0-3-3h-2a3,3,0,0,0-3,3h0a3,3,0,0,0,3,3"/><path class="f1a759a3-a68f-4be3-bfcc-5e89baaebc72" d="M6.9,7a3,3,0,0,0-.4,1.5h0a3,3,0,0,0,3,3h2a3,3,0,0,0,3-3h0a3,3,0,0,0-3-3"/></svg>