<svg id="b921ac3c-75d2-4e9a-9cff-217b3c3c2dbf" data-name="Layer 1" xmlns="http://www.w3.org/2000/svg" width="16" height="16" viewBox="0 0 16 16"><defs><style>.fbd6fdd2-86e0-4387-ae32-fd41b76abe71{fill:#333;}</style></defs><title>advanced-elements</title><path class="fbd6fdd2-86e0-4387-ae32-fd41b76abe71" d="M8,5c4,0,7,1.58,7,3s-3,3-7,3S1,9.42,1,8,4,5,8,5M8,4C3.58,4,0,5.79,0,8s3.58,4,8,4,8-1.79,8-4S12.42,4,8,4Z"/><path class="fbd6fdd2-86e0-4387-ae32-fd41b76abe71" d="M10.88,1.79h0a1.24,1.24,0,0,1,.62.15c1.23.71,1.1,4.09-.9,7.56-1.79,3.09-4.11,4.71-5.48,4.71a1.24,1.24,0,0,1-.62-.15c-.56-.32-.85-1.26-.78-2.52a12,12,0,0,1,1.68-5c1.79-3.09,4.11-4.71,5.48-4.71m0-1C9,.79,6.36,2.84,4.54,6,2.33,9.83,2.09,13.82,4,14.93a2.22,2.22,0,0,0,1.12.28c1.93,0,4.52-2.05,6.34-5.21,2.21-3.83,2.45-7.82.54-8.93A2.22,2.22,0,0,0,10.88.79Z"/><path class="fbd6fdd2-86e0-4387-ae32-fd41b76abe71" d="M5.12,1.79h0c1.37,0,3.69,1.62,5.48,4.71,2,3.47,2.13,6.85.9,7.56a1.24,1.24,0,0,1-.62.15c-1.37,0-3.69-1.62-5.48-4.71a12,12,0,0,1-1.68-5c-.07-1.26.22-2.2.78-2.52a1.24,1.24,0,0,1,.62-.15m0-1A2.22,2.22,0,0,0,4,1.07C2.09,2.18,2.33,6.17,4.54,10c1.82,3.16,4.41,5.21,6.34,5.21A2.22,2.22,0,0,0,12,14.93c1.91-1.11,1.67-5.1-.54-8.93C9.64,2.84,7.05.79,5.12.79Z"/><circle class="fbd6fdd2-86e0-4387-ae32-fd41b76abe71" cx="8" cy="8" r="1.5"/></svg>