<svg id="f96d23a9-1b61-46f8-9b2a-81522c883699" data-name="Layer 1" xmlns="http://www.w3.org/2000/svg" viewBox="0 0 16 16"><defs><style>.adbb04f0-f438-403c-8648-e1aff38a2997{fill:#333;}</style></defs><title>text-span</title><path class="adbb04f0-f438-403c-8648-e1aff38a2997" d="M5,6.45c-.09-.09-.14-.16-.14-.2A1.46,1.46,0,0,1,5,5.92a1.74,1.74,0,0,1,.09-.27c0-.07.09-.1.19-.11H7.31l.38-1.6q.42-1.62.48-1.74a.91.91,0,0,1,.92-.56.75.75,0,0,1,.45.18.52.52,0,0,1,.19.42,13.06,13.06,0,0,1-.38,1.7c0,.23-.12.48-.19.75S9,5.16,9,5.29l0,.2a4.43,4.43,0,0,0,1,0h1a.4.4,0,0,1,.14.22,1,1,0,0,1-.26.7H8.71L8,9.35c-.49,2-.75,3-.76,3.14a2.11,2.11,0,0,0,0,.3q0,.84.54.84l.24,0A2.87,2.87,0,0,0,9.81,12a4.64,4.64,0,0,0,.36-.74.26.26,0,0,1,.1-.15.88.88,0,0,1,.3,0c.27,0,.4.05.4.16a1.21,1.21,0,0,1-.08.24,4.6,4.6,0,0,1-.71,1.29,5.45,5.45,0,0,1-1,1,2.59,2.59,0,0,1-1.58.56A2,2,0,0,1,6.38,14a1.82,1.82,0,0,1-.69-1,2.35,2.35,0,0,1,0-.54v-.36l.7-2.8c.47-1.88.71-2.83.72-2.84a4.63,4.63,0,0,0-1,0Z"/></svg>