<svg id="adca40e8-c71a-4ac3-bf21-f986458175af" data-name="Layer 1" xmlns="http://www.w3.org/2000/svg" width="16" height="16" viewBox="0 0 16 16"><defs><style>.bd790bdd-ae9a-4518-8b23-80e9089712e5{fill:#333;}</style></defs><title>typography</title><path class="bd790bdd-ae9a-4518-8b23-80e9089712e5" d="M.91,15.5c-.1-.1-.15-.17-.15-.23a2,2,0,0,1,.08-.36A.8.8,0,0,1,1,14.6L1,14.54h.3a2.52,2.52,0,0,0,2.13-1c.09-.08,1.36-2.22,3.81-6.4S11,.79,11,.75a.43.43,0,0,1,.19-.22,2.22,2.22,0,0,1,.48,0H12a1.21,1.21,0,0,1,.13.21l.58,6.77c.4,4.51.6,6.78.63,6.83s.53.23,1.36.23H15a.25.25,0,0,1,.15,0,.21.21,0,0,1,.05.15,1.87,1.87,0,0,1-.07.29,1.49,1.49,0,0,1-.11.39c0,.05-.13.07-.28.07l-1.25,0-1.39,0c-1.31,0-2.17,0-2.58,0H9.31a.54.54,0,0,1-.14-.18,2.14,2.14,0,0,1,.06-.38,1.27,1.27,0,0,1,.12-.34l.08-.06h.42c.76,0,1.2-.15,1.34-.36L10.94,11H6l-.71,1.21a14.44,14.44,0,0,0-.78,1.36.69.69,0,0,0-.08.32c0,.35.32.55,1,.61.26,0,.4.07.4.21a1.06,1.06,0,0,1-.06.29,1.41,1.41,0,0,1-.13.38.35.35,0,0,1-.27.08l-1.13,0L3,15.46c-1,0-1.63,0-1.9,0Zm9.93-5.45c0-.15-.09-1.24-.26-3.26s-.27-3-.29-3.06l-.56.9C9.5,5,9.06,5.75,8.41,6.87L6.52,10.05l2.16,0C10.12,10.07,10.84,10.07,10.84,10.05Z"/></svg>