<svg id="f591df06-f1ea-4c75-a50e-782d3148e860" data-name="Layer 2" xmlns="http://www.w3.org/2000/svg" width="150.68" height="73.98" viewBox="0 0 150.68 73.98"><defs><style>.aec8cc31-db26-4c09-b755-17c89d4b81b7{fill:#333;}.be96c213-0e39-4826-95db-a8fc3460bd10{fill:none;stroke:#333;stroke-linecap:round;stroke-miterlimit:10;}</style></defs><title>cosine</title><path class="aec8cc31-db26-4c09-b755-17c89d4b81b7" d="M107.42,23.45a1.15,1.15,0,0,1-.85.35,1.08,1.08,0,0,1-.83-.35,1.2,1.2,0,0,1-.33-.84,1.66,1.66,0,0,1,.17-.7,2,2,0,0,1,1.15-.93,5.8,5.8,0,0,1,2.09-.33,4.68,4.68,0,0,1,2.51.66,3,3,0,0,1,1.4,1.72,2.42,2.42,0,0,1,.12.69c0,.26,0,1.1,0,2.52s0,2.28,0,2.52a1.18,1.18,0,0,0,.13.56.44.44,0,0,0,.44.31.42.42,0,0,0,.41-.31,3.28,3.28,0,0,0,.14-1.21v-.79h.88v.86a7.36,7.36,0,0,1-.07,1,2.07,2.07,0,0,1-2,1.43,1.45,1.45,0,0,1-1-.38,1.89,1.89,0,0,1-.58-.94v-.09l-.27.3-.28.32a3.81,3.81,0,0,1-2.51.9,4.31,4.31,0,0,1-2-.48A2.53,2.53,0,0,1,104.94,29a2.29,2.29,0,0,1-.17-.84,2.61,2.61,0,0,1,.86-1.89,4.07,4.07,0,0,1,1.25-.83,10.68,10.68,0,0,1,3.83-.82H111v-.48a3.25,3.25,0,0,0-.14-1.1,2.13,2.13,0,0,0-.77-1.15,2.22,2.22,0,0,0-1.36-.41c-1,0-1.47.05-1.47.17a1.1,1.1,0,0,1,.48,1A1.17,1.17,0,0,1,107.42,23.45Zm3.6,3.21a10.32,10.32,0,0,0,0-1.28l-.11,0c-2,.14-3.29.73-3.85,1.79a2,2,0,0,0-.24,1,1.67,1.67,0,0,0,.53,1.25,1.79,1.79,0,0,0,1.3.51,2.25,2.25,0,0,0,1.5-.53,2.46,2.46,0,0,0,.83-1.3A12.76,12.76,0,0,0,111,26.66Z"/><path class="aec8cc31-db26-4c09-b755-17c89d4b81b7" d="M120.39,20.78a4.37,4.37,0,0,1,2.9,1.08V19.62c0-1.53,0-2.32,0-2.38a.72.72,0,0,0-.32-.56,2.71,2.71,0,0,0-1-.19h-.39V16c0-.34,0-.51,0-.51l.22,0,.64,0,.81-.05.82,0,.66-.06.24,0h.06v6.69c0,4.49,0,6.75,0,6.8a.76.76,0,0,0,.31.58,2.71,2.71,0,0,0,1,.19h.4v1l-1.68.11c-1.1.07-1.67.12-1.73.13h-.15V29.54l-.18.15a4.3,4.3,0,0,1-2.86,1.06,4,4,0,0,1-2.73-1,5.2,5.2,0,0,1-1.67-3.17,6.83,6.83,0,0,1,0-.77,5,5,0,0,1,1.36-3.57A4.37,4.37,0,0,1,120.39,20.78Zm2.84,2.2a3,3,0,0,0-2.49-1.38,2.67,2.67,0,0,0-1.91.79,2.83,2.83,0,0,0-.74,1.34,9.25,9.25,0,0,0-.19,2.14,4.63,4.63,0,0,0,.93,3.34,2.25,2.25,0,0,0,1.71.73,2.87,2.87,0,0,0,1.48-.42,3.17,3.17,0,0,0,1.12-1.15l.09-.13Z"/><path class="aec8cc31-db26-4c09-b755-17c89d4b81b7" d="M127.87,34.09a6.08,6.08,0,0,0,.79.11,1.56,1.56,0,0,0,.46-.06c.62-.22,1-.87,1.1-1.94,0-.17.05-1.77.05-4.79s0-4.58,0-4.67a.68.68,0,0,0-.37-.56,3.16,3.16,0,0,0-1-.14h-.44v-.51c0-.34,0-.5,0-.5l.09,0h.26l.38,0,.47,0,.54,0,.85-.06.68-.05.25,0h.09v5.68c0,3.23,0,5,0,5.36a2.49,2.49,0,0,1-.12.84,3.37,3.37,0,0,1-1.23,1.69,3.51,3.51,0,0,1-2.13.67,3,3,0,0,1-1.74-.52,1.63,1.63,0,0,1-.75-1.42,1.12,1.12,0,0,1,.33-.83,1.14,1.14,0,0,1,.84-.33,1.18,1.18,0,0,1,1.19,1.18A1.27,1.27,0,0,1,127.87,34.09Zm2.9-18.3a1.38,1.38,0,0,1,.9.39,1.2,1.2,0,0,1,.36.93,1.17,1.17,0,0,1-.6,1.12,1.2,1.2,0,0,1-.7.2,1.26,1.26,0,0,1-.73-.2,1.18,1.18,0,0,1-.59-1.12,1.28,1.28,0,0,1,.38-1A1.43,1.43,0,0,1,130.77,15.79Z"/><path class="aec8cc31-db26-4c09-b755-17c89d4b81b7" d="M105.1,61c.11.2.46.3,1,.3h.66v1h-.17a20.44,20.44,0,0,0-2.47-.07,20.09,20.09,0,0,0-2.46.07h-.18v-1h.66c.57,0,.92-.1,1-.3V59.57c0-.28,0-.6,0-1s0-.72,0-1.1V53.33c0-.61,0-1.15,0-1.64s0-.93,0-1.33V49a.73.73,0,0,0-.32-.56,2.5,2.5,0,0,0-1-.19h-.4v-.5c0-.34,0-.51,0-.51l.22,0,.63,0,.82,0,.81-.06.66-.05.24,0H105v7.19a4,4,0,0,1,3.17-1.65q2.7,0,3,2.49c0,.1,0,1.12,0,3.06s0,2.83,0,2.86a.53.53,0,0,0,.27.24,8.27,8.27,0,0,0,1.07.06h.36v1h-.18a20.09,20.09,0,0,0-2.46-.07,20.19,20.19,0,0,0-2.47.07h-.17v-1h.52c.78,0,1.17-.11,1.17-.35,0,0,0-1,0-3s0-3,0-3.15a2,2,0,0,0-.5-1,1.43,1.43,0,0,0-1-.32,2.39,2.39,0,0,0-1.74.75,3.15,3.15,0,0,0-.9,1.93v.41c0,.26,0,.58,0,1s0,.77,0,1.12v.69c0,.25,0,.46,0,.65s0,.36,0,.52V61Z"/><path class="aec8cc31-db26-4c09-b755-17c89d4b81b7" d="M113.93,64.05a1.09,1.09,0,0,1,.78-.3,1,1,0,0,1,.77.32,1.06,1.06,0,0,1,.31.78,1.1,1.1,0,0,1-.18.59.83.83,0,0,1-.41.38c-.06,0-.06.05,0,.08a.88.88,0,0,0,.44.09,1.51,1.51,0,0,0,.63-.13,2.22,2.22,0,0,0,1.06-.88,9,9,0,0,0,.81-1.74l.38-.94-1.59-4-1.65-4.11q-.15-.33-1.14-.33h-.53v-1h.16a14.7,14.7,0,0,0,2.11.07,21.23,21.23,0,0,0,2.44-.07h.18v1h-.2c-.69,0-1,.12-1,.37l2.23,5.63s.33-.86,1-2.53l1-2.51V54.6a.67.67,0,0,0-.27-.56,1,1,0,0,0-.66-.21h-.06v-1h.13a17.43,17.43,0,0,0,1.87,0c.81,0,1.4,0,1.78,0h.11v1h-.24a1.89,1.89,0,0,0-1.65.88s-.35.84-1,2.43-1.27,3.25-2,5a24.45,24.45,0,0,1-1.36,3.07,3.32,3.32,0,0,1-2,1.58,2.45,2.45,0,0,1-.46,0,2.11,2.11,0,0,1-1.48-.53,1.83,1.83,0,0,1-.59-1.4A1,1,0,0,1,113.93,64.05Z"/><path class="aec8cc31-db26-4c09-b755-17c89d4b81b7" d="M125.6,65.55h.31c.57,0,.92-.1,1-.31v-.6c0-.18,0-.4,0-.65s0-.54,0-.86V57c0-.43,0-.82,0-1.18s0-.64,0-.85v-.35a.73.73,0,0,0-.32-.56,2.64,2.64,0,0,0-1-.18h-.4v-.51c0-.34,0-.51,0-.51l.22,0,.64,0,.82,0,.81-.05.66-.06.24,0h.07v.57l0,.58.18-.16a5.07,5.07,0,0,1,3-1,3.92,3.92,0,0,1,.71,0,4.19,4.19,0,0,1,2.57,1.65,5.15,5.15,0,0,1,1,3.25,6.08,6.08,0,0,1,0,.77,5,5,0,0,1-1.07,2.47A5,5,0,0,1,133,62.32a4.45,4.45,0,0,1-1.36.22,3.94,3.94,0,0,1-2.64-1l-.18-.15v1.87q0,1.91,0,1.95a.46.46,0,0,0,.26.25,8.54,8.54,0,0,0,1.08.06h.35v1h-.18a50.46,50.46,0,0,0-4.92,0h-.18v-1Zm8.54-8a5.33,5.33,0,0,0-.67-2.68,2.48,2.48,0,0,0-1.64-1.35h-.31a3.41,3.41,0,0,0-2.71,1.43v5.26a2.74,2.74,0,0,0,2.47,1.58,2.25,2.25,0,0,0,1.67-.81A4.72,4.72,0,0,0,134.14,57.5Z"/><line class="be96c213-0e39-4826-95db-a8fc3460bd10" x1="95.32" y1="41.37" x2="142.68" y2="41.37"/><path class="aec8cc31-db26-4c09-b755-17c89d4b81b7" d="M16.55,40.37a1.17,1.17,0,0,1-.85.32,1.11,1.11,0,0,1-.84-.34,1.24,1.24,0,0,1,0-1.66c.08-.07.11-.12.1-.13s-.07,0-.21-.05a8.32,8.32,0,0,0-1.07-.08,2.24,2.24,0,0,0-1.76.7,4.76,4.76,0,0,0-1,3.45,5.14,5.14,0,0,0,.68,2.84A2.78,2.78,0,0,0,14,46.76a2,2,0,0,0,1-.22,2.55,2.55,0,0,0,1.28-1.71c0-.12.06-.19.11-.22a.75.75,0,0,1,.35,0H17c.09.09.13.16.13.2a2.91,2.91,0,0,1-.55,1.3,3.54,3.54,0,0,1-3.1,1.58,4.5,4.5,0,0,1-2.09-.5A4.86,4.86,0,0,1,8.77,43.4c0-.09,0-.32,0-.71s0-.62,0-.72a5.11,5.11,0,0,1,1.81-3.37,4.55,4.55,0,0,1,2.92-1.05c1.89,0,3,.49,3.32,1.49a1.46,1.46,0,0,1,.07.51A1.05,1.05,0,0,1,16.55,40.37Z"/><path class="aec8cc31-db26-4c09-b755-17c89d4b81b7" d="M18.38,42.69a5,5,0,0,1,1.28-3.44,4.78,4.78,0,0,1,3.06-1.66,4.39,4.39,0,0,1,.55,0A4.58,4.58,0,0,1,26.59,39a5.07,5.07,0,0,1,1.54,3.72,6.14,6.14,0,0,1-.11,1,4.78,4.78,0,0,1-1.24,2.41,4.86,4.86,0,0,1-2.37,1.37,4.41,4.41,0,0,1-1.14.13,4.6,4.6,0,0,1-1.17-.13,4.78,4.78,0,0,1-2.68-1.75A4.83,4.83,0,0,1,18.38,42.69Zm5.28-4.31-.35,0a3.11,3.11,0,0,0-1.25.26A2.92,2.92,0,0,0,20.58,41c0,.27,0,.74,0,1.41a7.51,7.51,0,0,0,.42,3,2.42,2.42,0,0,0,2.31,1.34q2.68,0,2.68-3.58v-.71a10.23,10.23,0,0,0-.11-1.93A2.62,2.62,0,0,0,23.66,38.38Z"/><path class="aec8cc31-db26-4c09-b755-17c89d4b81b7" d="M33,38.29c-1.35,0-2,.48-2,1.43a1,1,0,0,0,0,.38,1.34,1.34,0,0,0,.68.76,7.28,7.28,0,0,0,1.5.43,5.66,5.66,0,0,1,1.71.48A3.17,3.17,0,0,1,36.64,44a2.92,2.92,0,0,1,0,.53A3.6,3.6,0,0,1,36.36,46a3.31,3.31,0,0,1-3.24,1.63,3.46,3.46,0,0,1-2.28-.79l-.18.15-.2.2a2.84,2.84,0,0,1-.26.24l-.24.22h-.18a.41.41,0,0,1-.29-.13V45.77c0-1,0-1.5,0-1.65a.33.33,0,0,1,.1-.26,1.87,1.87,0,0,1,.36,0,.75.75,0,0,1,.34,0,.93.93,0,0,1,.12.31A5.31,5.31,0,0,0,31,45.71a2.43,2.43,0,0,0,2.13,1.12c1.43,0,2.14-.57,2.14-1.72a1.37,1.37,0,0,0-.4-1,1.82,1.82,0,0,0-.92-.59l-1.06-.25a7.28,7.28,0,0,1-1.67-.46,2.72,2.72,0,0,1-1.69-2,1.21,1.21,0,0,1,0-.33c0-1.69,1-2.64,3.11-2.84a1.34,1.34,0,0,1,.52,0,3.39,3.39,0,0,1,1.54.33l.33.17.2-.15a3.69,3.69,0,0,1,.49-.37h.17a.41.41,0,0,1,.29.13v2.9l-.13.13h-.62a.35.35,0,0,1-.13-.26,2.06,2.06,0,0,0-.62-1.58A2.39,2.39,0,0,0,33,38.29Z"/><path class="aec8cc31-db26-4c09-b755-17c89d4b81b7" d="M44.76,52.7c0,.14-.13.2-.39.2h-.29l-.62-.53q-4-3.6-4-10.47a17.89,17.89,0,0,1,.64-4.9,11.89,11.89,0,0,1,3.32-5.57l.36-.3a2.59,2.59,0,0,0,.26-.23h.29a.5.5,0,0,1,.33.07.19.19,0,0,1,.06.13q0,.09-.24.33Q41.11,35,41.11,41.9t3.41,10.47Q44.76,52.63,44.76,52.7Z"/><path class="aec8cc31-db26-4c09-b755-17c89d4b81b7" d="M53,31.91h.44A2.41,2.41,0,0,1,55.3,33a6.39,6.39,0,0,1,.86,3.54,7.75,7.75,0,0,1,0,1,16.11,16.11,0,0,1-1.51,5.48,12.46,12.46,0,0,1-1.75,2.72,6.61,6.61,0,0,1-2,1.65,2.92,2.92,0,0,1-1.19.31h-.15a2.13,2.13,0,0,1-1.61-.68A5.57,5.57,0,0,1,46.76,43,12.63,12.63,0,0,1,47,40.78a14.43,14.43,0,0,1,3.33-7.19A4.7,4.7,0,0,1,53,31.91Zm.35,8.74.11-.38H49.18l0,.16a18.86,18.86,0,0,0-.68,4.07A3.1,3.1,0,0,0,49,46.57a.84.84,0,0,0,.64.26c.58,0,1.2-.48,1.84-1.43A15.61,15.61,0,0,0,53.36,40.65ZM54.42,35c0-1.5-.39-2.24-1.17-2.24a2.06,2.06,0,0,0-1.49.94,11.79,11.79,0,0,0-1.87,4,9.28,9.28,0,0,0-.44,1.63l2.13,0,2.14,0a8.18,8.18,0,0,0,.39-1.72A13.92,13.92,0,0,0,54.42,35Z"/><path class="aec8cc31-db26-4c09-b755-17c89d4b81b7" d="M57.63,30.92l.09,0h.48l.62.53q4,3.62,4,10.47a17.24,17.24,0,0,1-.64,4.89,11.8,11.8,0,0,1-3.32,5.58l-.35.3-.27.23h-.26a.81.81,0,0,1-.34,0c-.05,0-.08-.1-.08-.22s.1-.11.24-.29q3.42-3.54,3.41-10.45T57.76,31.45a2.91,2.91,0,0,0-.24-.28A.28.28,0,0,1,57.63,30.92Z"/><path class="aec8cc31-db26-4c09-b755-17c89d4b81b7" d="M71.6,39.77a.47.47,0,0,1,.31-.44h14a.48.48,0,0,1,.33.44.51.51,0,0,1-.3.42l-7,0H72A.44.44,0,0,1,71.6,39.77Zm0,4.27A.44.44,0,0,1,72,43.6H86l.09.07.12.09a.36.36,0,0,1,.06.11.47.47,0,0,1,0,.17.49.49,0,0,1-.33.44h-14A.48.48,0,0,1,71.6,44Z"/></svg>