<svg id="b68a17ee-95ac-41af-be89-033de7e03ed8" data-name="Layer 2" xmlns="http://www.w3.org/2000/svg" width="150.68" height="73.98" viewBox="0 0 150.68 73.98"><defs><style>.acff0dd8-5260-42f1-a102-d2610ecc3e18{fill:#333;}.a6ac49f0-2712-46fe-b226-b9dd3ef5cec9{fill:none;stroke:#333;stroke-linecap:round;stroke-miterlimit:10;}</style></defs><title>sine</title><path class="acff0dd8-5260-42f1-a102-d2610ecc3e18" d="M103.26,25.8a5,5,0,0,1,1.28-3.44,4.74,4.74,0,0,1,3.06-1.66,4.61,4.61,0,0,1,.55-.05,4.55,4.55,0,0,1,3.32,1.41A5.11,5.11,0,0,1,113,25.78a6,6,0,0,1-.11,1,4.64,4.64,0,0,1-1.25,2.41,4.72,4.72,0,0,1-3.5,1.51A5,5,0,0,1,107,30.6a4.8,4.8,0,0,1-2.68-1.75A4.85,4.85,0,0,1,103.26,25.8Zm5.28-4.31a1.58,1.58,0,0,0-.35,0,3,3,0,0,0-1.25.26,2.87,2.87,0,0,0-1.48,2.4c0,.26,0,.73,0,1.41a7.51,7.51,0,0,0,.42,3,2.4,2.4,0,0,0,2.31,1.34c1.78,0,2.68-1.2,2.68-3.59v-.7a11.33,11.33,0,0,0-.11-1.94A2.61,2.61,0,0,0,108.54,21.49Z"/><path class="acff0dd8-5260-42f1-a102-d2610ecc3e18" d="M114.44,33.76h.3c.58,0,.92-.1,1-.3v-.61c0-.18,0-.4,0-.65s0-.53,0-.86V25.16c0-.42,0-.82,0-1.18s0-.64,0-.85v-.34a.74.74,0,0,0-.32-.57,2.71,2.71,0,0,0-1-.18h-.39v-.51c0-.34,0-.5,0-.5l.22,0,.64,0,.81,0,.82-.06.66-.05.24,0h.06v.58l0,.57.17-.16a5.11,5.11,0,0,1,3-1,4,4,0,0,1,.7,0,4.28,4.28,0,0,1,2.58,1.65,5.22,5.22,0,0,1,1,3.26c0,.27,0,.53,0,.77A5.09,5.09,0,0,1,124,29a5.17,5.17,0,0,1-2.19,1.54,4.21,4.21,0,0,1-1.36.22,4,4,0,0,1-2.65-1l-.17-.15V31.5c0,1.27,0,1.93,0,2a.53.53,0,0,0,.27.24,8.27,8.27,0,0,0,1.07.06h.36v1h-.18a20.09,20.09,0,0,0-2.46-.07,20.19,20.19,0,0,0-2.47.07h-.17v-1Zm8.53-8A5.25,5.25,0,0,0,122.3,23a2.42,2.42,0,0,0-1.64-1.34h-.14l-.16,0a3.39,3.39,0,0,0-2.71,1.43v5.26a2.74,2.74,0,0,0,2.46,1.59,2.19,2.19,0,0,0,1.67-.82A4.68,4.68,0,0,0,123,25.71Z"/><path class="acff0dd8-5260-42f1-a102-d2610ecc3e18" d="M126.67,33.76H127c.57,0,.91-.1,1-.3v-.61c0-.18,0-.4,0-.65s0-.53,0-.86V25.16c0-.42,0-.82,0-1.18s0-.64,0-.85v-.34a.74.74,0,0,0-.32-.57,2.71,2.71,0,0,0-1-.18h-.39v-.51c0-.34,0-.5,0-.5l.22,0,.64,0,.81,0,.82-.06.66-.05.24,0h.07v.58l0,.57.17-.16a5.11,5.11,0,0,1,3-1,3.93,3.93,0,0,1,.7,0,4.28,4.28,0,0,1,2.58,1.65,5.16,5.16,0,0,1,1,3.26,6.29,6.29,0,0,1,0,.77,5,5,0,0,1-3.26,4,4.17,4.17,0,0,1-1.36.22,3.94,3.94,0,0,1-2.64-1l-.18-.15V31.5c0,1.27,0,1.93,0,2a.53.53,0,0,0,.27.24,8.43,8.43,0,0,0,1.08.06h.35v1h-.18a20.09,20.09,0,0,0-2.46-.07,20.31,20.31,0,0,0-2.47.07h-.17v-1Zm8.54-8a5.26,5.26,0,0,0-.68-2.68,2.4,2.4,0,0,0-1.63-1.34h-.15l-.16,0a3.4,3.4,0,0,0-2.71,1.43v5.26a2.74,2.74,0,0,0,2.47,1.59,2.22,2.22,0,0,0,1.67-.82A4.72,4.72,0,0,0,135.21,25.71Z"/><path class="acff0dd8-5260-42f1-a102-d2610ecc3e18" d="M106.47,61c.12.2.46.3,1,.3h.66v1H108a20.09,20.09,0,0,0-2.46-.07,20.19,20.19,0,0,0-2.47.07h-.17v-1h.66c.57,0,.91-.1,1-.3V59.57c0-.28,0-.6,0-1s0-.72,0-1.1V53.33c0-.61,0-1.15,0-1.64s0-.93,0-1.33V49a.7.7,0,0,0-.32-.56,2.46,2.46,0,0,0-1-.19h-.39v-.5c0-.34,0-.51,0-.51l.22,0,.64,0,.81,0,.82-.06.66-.05.24,0h.06v7.19a4,4,0,0,1,3.17-1.65q2.72,0,3,2.49c0,.1,0,1.12,0,3.06s0,2.83,0,2.86a.47.47,0,0,0,.26.24,8.54,8.54,0,0,0,1.08.06h.35v1h-.18a20.09,20.09,0,0,0-2.46-.07,20.09,20.09,0,0,0-2.46.07H109v-1h.53c.78,0,1.16-.11,1.16-.35t0-3c0-2,0-3,0-3.15a2,2,0,0,0-.49-1,1.47,1.47,0,0,0-1-.32,2.39,2.39,0,0,0-1.74.75,3.15,3.15,0,0,0-.9,1.93v.41c0,.26,0,.58,0,1s0,.77,0,1.12v.69c0,.25,0,.46,0,.65s0,.36,0,.52V61Z"/><path class="acff0dd8-5260-42f1-a102-d2610ecc3e18" d="M115.31,64.05a1.09,1.09,0,0,1,.78-.3,1,1,0,0,1,.77.32,1.14,1.14,0,0,1,.13,1.37.89.89,0,0,1-.42.38c-.06,0-.06.05,0,.08A.88.88,0,0,0,117,66a1.59,1.59,0,0,0,.64-.13,2.2,2.2,0,0,0,1-.88,9,9,0,0,0,.82-1.74l.37-.94-1.58-4-1.65-4.11q-.15-.33-1.14-.33H115v-1h.15a14.8,14.8,0,0,0,2.11.07,21.46,21.46,0,0,0,2.45-.07h.17v1h-.2c-.69,0-1,.12-1,.37l2.22,5.63,1-2.53,1-2.51V54.6a.68.68,0,0,0-.26-.56,1,1,0,0,0-.66-.21h-.07v-1H122a17.73,17.73,0,0,0,1.87,0c.81,0,1.4,0,1.79,0h.1v1h-.24a1.89,1.89,0,0,0-1.65.88s-.35.84-1,2.43-1.27,3.25-2,5a23.82,23.82,0,0,1-1.37,3.07,3.3,3.3,0,0,1-2,1.58,2.52,2.52,0,0,1-.46,0,2.14,2.14,0,0,1-1.49-.53,1.82,1.82,0,0,1-.58-1.4A1,1,0,0,1,115.31,64.05Z"/><path class="acff0dd8-5260-42f1-a102-d2610ecc3e18" d="M127,65.55h.3c.58,0,.92-.1,1-.31v-.6c0-.18,0-.4,0-.65s0-.54,0-.86V57c0-.43,0-.82,0-1.18s0-.64,0-.85v-.35A.76.76,0,0,0,128,54a2.76,2.76,0,0,0-1-.18h-.4v-.51c0-.34,0-.51,0-.51l.22,0,.64,0,.81,0,.81-.05.66-.06.25,0h.06v.57l0,.58.18-.16a5.1,5.1,0,0,1,3-1,3.79,3.79,0,0,1,.7,0,4.14,4.14,0,0,1,2.57,1.65,5.16,5.16,0,0,1,1,3.25,6,6,0,0,1,0,.77,5,5,0,0,1-1.06,2.47,5.17,5.17,0,0,1-2.19,1.54,4.52,4.52,0,0,1-1.37.22,4,4,0,0,1-2.64-1l-.17-.15v1.87c0,1.27,0,1.92,0,1.95a.53.53,0,0,0,.26.25,8.54,8.54,0,0,0,1.08.06h.35v1h-.17a50.67,50.67,0,0,0-4.93,0h-.18v-1Zm8.53-8a5.23,5.23,0,0,0-.67-2.68,2.46,2.46,0,0,0-1.64-1.35h-.31a3.38,3.38,0,0,0-2.7,1.43v5.26a2.73,2.73,0,0,0,2.46,1.58,2.21,2.21,0,0,0,1.67-.81A4.68,4.68,0,0,0,135.51,57.5Z"/><line class="a6ac49f0-2712-46fe-b226-b9dd3ef5cec9" x1="95.32" y1="41.37" x2="142.68" y2="41.37"/><path class="acff0dd8-5260-42f1-a102-d2610ecc3e18" d="M12.18,38.29c-1.35,0-2,.48-2,1.43a1.06,1.06,0,0,0,0,.38,1.34,1.34,0,0,0,.68.76,7.28,7.28,0,0,0,1.5.43,5.57,5.57,0,0,1,1.71.48A3.21,3.21,0,0,1,15.88,44a5.23,5.23,0,0,1,0,.53A3.45,3.45,0,0,1,15.59,46a3.3,3.3,0,0,1-3.23,1.63,3.48,3.48,0,0,1-2.29-.79L9.89,47l-.2.2a2,2,0,0,1-.26.24l-.24.22H9a.37.37,0,0,1-.28-.13V45.77c0-1,0-1.5,0-1.65s0-.23.1-.26a1.73,1.73,0,0,1,.35,0,.75.75,0,0,1,.34,0,.62.62,0,0,1,.12.31,5.31,5.31,0,0,0,.57,1.52,2.46,2.46,0,0,0,2.14,1.12c1.42,0,2.13-.57,2.13-1.72a1.37,1.37,0,0,0-.4-1,1.82,1.82,0,0,0-.92-.59l-1.06-.25a7.44,7.44,0,0,1-1.67-.46,2.72,2.72,0,0,1-1.69-2,1.34,1.34,0,0,1,0-.33c0-1.69,1-2.64,3.1-2.84a1.39,1.39,0,0,1,.53,0,3.42,3.42,0,0,1,1.54.33l.33.17.19-.15a5.71,5.71,0,0,1,.49-.37h.17a.39.39,0,0,1,.29.13v2.9l-.13.13h-.62a.35.35,0,0,1-.13-.26,2.06,2.06,0,0,0-.62-1.58A2.39,2.39,0,0,0,12.18,38.29Z"/><path class="acff0dd8-5260-42f1-a102-d2610ecc3e18" d="M22.1,47.4a20.6,20.6,0,0,0-2.29-.06c-1.33,0-2.13,0-2.39.06h-.18v-1h.35a6.91,6.91,0,0,0,1.08-.07.41.41,0,0,0,.26-.24s0-1.09,0-3.19a29.81,29.81,0,0,0-.09-3.52c-.12-.29-.55-.44-1.3-.44h-.24v-.5c0-.34,0-.51,0-.51l.22,0,.62,0,.79,0,.79-.05.64-.06.24,0h.07V46a.49.49,0,0,0,.26.27,3,3,0,0,0,.77.08h.51v1ZM19.55,32.68a1.38,1.38,0,0,1,.9.39,1.22,1.22,0,0,1,.35.93,1.18,1.18,0,0,1-.59,1.13,1.22,1.22,0,0,1-.7.19,1.26,1.26,0,0,1-.73-.19A1.18,1.18,0,0,1,18.19,34a1.21,1.21,0,0,1,.38-1A1.38,1.38,0,0,1,19.55,32.68Z"/><path class="acff0dd8-5260-42f1-a102-d2610ecc3e18" d="M26.92,46.08c.12.21.46.31,1,.31h.67v1h-.18A24.49,24.49,0,0,0,26,47.34a24.36,24.36,0,0,0-2.46.06h-.18v-1H24c.58,0,.92-.1,1-.31V45.4c0-.2,0-.44,0-.69s0-.55,0-.86v-.91c0-.46,0-.95,0-1.47s0-.95,0-1.28v-.51a.7.7,0,0,0-.32-.56,2.5,2.5,0,0,0-1-.19h-.4v-.5c0-.34,0-.51.05-.51l.22,0,.63,0,.8,0,.79-.05.64-.06.24,0h.07v.88a5.12,5.12,0,0,0,0,.83l0,0a3.86,3.86,0,0,1,3.37-1.69A2.57,2.57,0,0,1,33,40.16c0,.11,0,1.13,0,3.06s0,2.83,0,2.86a.46.46,0,0,0,.27.24,6.91,6.91,0,0,0,1.08.07h.35v1h-.18a24.36,24.36,0,0,0-2.46-.06,24.64,24.64,0,0,0-2.47.06h-.17v-1H30c.77,0,1.16-.12,1.16-.35,0,0,0-1,0-3s0-3,0-3.14a2,2,0,0,0-.49-1,1.52,1.52,0,0,0-1.05-.32,2.39,2.39,0,0,0-1.74.75,3.2,3.2,0,0,0-.9,1.94v.41c0,.25,0,.58,0,1s0,.77,0,1.13v.69c0,.24,0,.46,0,.65s0,.36,0,.52v.51Z"/><path class="acff0dd8-5260-42f1-a102-d2610ecc3e18" d="M42.34,52.7c0,.14-.13.2-.39.2h-.29L41,52.37c-2.63-2.4-4-5.89-4-10.47a17.89,17.89,0,0,1,.64-4.9A11.89,11.89,0,0,1,41,31.43l.36-.3a2.59,2.59,0,0,0,.26-.23H42a.5.5,0,0,1,.33.07.19.19,0,0,1,.06.13q0,.09-.24.33Q38.69,35,38.69,41.9T42.1,52.37Q42.34,52.63,42.34,52.7Z"/><path class="acff0dd8-5260-42f1-a102-d2610ecc3e18" d="M50.59,31.91H51A2.41,2.41,0,0,1,52.88,33a6.39,6.39,0,0,1,.86,3.54,7.75,7.75,0,0,1-.05,1,16.11,16.11,0,0,1-1.51,5.48,12.46,12.46,0,0,1-1.75,2.72,6.61,6.61,0,0,1-2,1.65,2.92,2.92,0,0,1-1.19.31h-.15a2.13,2.13,0,0,1-1.61-.68A5.57,5.57,0,0,1,44.34,43a12.63,12.63,0,0,1,.22-2.22,14.43,14.43,0,0,1,3.33-7.19A4.7,4.7,0,0,1,50.59,31.91Zm.35,8.74.11-.38H46.76l0,.16a18.86,18.86,0,0,0-.68,4.07,3.1,3.1,0,0,0,.53,2.07.84.84,0,0,0,.64.26c.58,0,1.2-.48,1.84-1.43A15.61,15.61,0,0,0,50.94,40.65ZM52,35c0-1.5-.39-2.24-1.17-2.24a2.06,2.06,0,0,0-1.49.94,11.79,11.79,0,0,0-1.87,4A9.28,9.28,0,0,0,47,39.24l2.13,0,2.14,0a8.18,8.18,0,0,0,.39-1.72A13.92,13.92,0,0,0,52,35Z"/><path class="acff0dd8-5260-42f1-a102-d2610ecc3e18" d="M55.21,30.92l.09,0h.48l.62.53q4,3.62,4,10.47a17.24,17.24,0,0,1-.64,4.89,11.8,11.8,0,0,1-3.32,5.58l-.35.3-.27.23h-.26a.81.81,0,0,1-.34,0s-.08-.1-.08-.22.1-.11.24-.29q3.42-3.54,3.41-10.45T55.34,31.45a2.91,2.91,0,0,0-.24-.28A.28.28,0,0,1,55.21,30.92Z"/><path class="acff0dd8-5260-42f1-a102-d2610ecc3e18" d="M69.18,39.77a.47.47,0,0,1,.31-.44h14a.48.48,0,0,1,.33.44.51.51,0,0,1-.3.42l-7,0h-7A.44.44,0,0,1,69.18,39.77Zm0,4.27a.44.44,0,0,1,.35-.44h14l.09.07.12.09a.36.36,0,0,1,.06.11.47.47,0,0,1,0,.17.49.49,0,0,1-.33.44h-14A.48.48,0,0,1,69.18,44Z"/></svg>