<svg id="bb0285fc-d748-47cf-a94a-98b3778a2270" data-name="Layer 2" xmlns="http://www.w3.org/2000/svg" width="150.68" height="73.98" viewBox="0 0 150.68 73.98"><defs><style>.ac405426-a6c9-45ca-9e0e-ccf1136aba0e{fill:#333;}.bc64f476-72d0-495a-85d9-bc2420c9ef5a{fill:none;stroke:#333;stroke-linecap:round;stroke-miterlimit:10;}</style></defs><title>tangent</title><path class="ac405426-a6c9-45ca-9e0e-ccf1136aba0e" d="M101.73,25.8A5,5,0,0,1,103,22.36a4.74,4.74,0,0,1,3.06-1.66,4.61,4.61,0,0,1,.55-.05,4.55,4.55,0,0,1,3.32,1.41,5.11,5.11,0,0,1,1.54,3.72,6,6,0,0,1-.11,1,4.64,4.64,0,0,1-1.25,2.41,4.72,4.72,0,0,1-3.5,1.51,5.1,5.1,0,0,1-1.17-.13,4.8,4.8,0,0,1-2.68-1.75A4.85,4.85,0,0,1,101.73,25.8ZM107,21.49a1.58,1.58,0,0,0-.35,0,3,3,0,0,0-1.25.26,2.87,2.87,0,0,0-1.48,2.4c0,.26,0,.73,0,1.41a7.51,7.51,0,0,0,.42,3,2.41,2.41,0,0,0,2.31,1.34c1.78,0,2.68-1.2,2.68-3.59v-.7a11.33,11.33,0,0,0-.11-1.94A2.61,2.61,0,0,0,107,21.49Z"/><path class="ac405426-a6c9-45ca-9e0e-ccf1136aba0e" d="M112.91,33.76h.31c.57,0,.91-.1,1-.3v-.61c0-.18,0-.4,0-.65s0-.53,0-.86V25.16c0-.42,0-.82,0-1.18s0-.64,0-.85v-.34a.74.74,0,0,0-.32-.57,2.71,2.71,0,0,0-1-.18h-.39v-.51c0-.34,0-.5,0-.5l.22,0,.64,0,.81,0,.82-.06.66-.05.24,0h.06v.58l0,.57.17-.16a5.11,5.11,0,0,1,3-1,4,4,0,0,1,.7,0,4.28,4.28,0,0,1,2.58,1.65,5.16,5.16,0,0,1,1,3.26c0,.27,0,.53,0,.77A5.09,5.09,0,0,1,122.49,29a5.17,5.17,0,0,1-2.19,1.54,4.21,4.21,0,0,1-1.36.22,3.94,3.94,0,0,1-2.64-1l-.18-.15V31.5c0,1.27,0,1.93,0,2a.53.53,0,0,0,.27.24,8.27,8.27,0,0,0,1.07.06h.36v1h-.18a20.09,20.09,0,0,0-2.46-.07,20.19,20.19,0,0,0-2.47.07h-.17v-1Zm8.53-8a5.25,5.25,0,0,0-.67-2.68,2.42,2.42,0,0,0-1.64-1.34H119l-.16,0a3.39,3.39,0,0,0-2.71,1.43v5.26a2.74,2.74,0,0,0,2.46,1.59,2.23,2.23,0,0,0,1.68-.82A4.71,4.71,0,0,0,121.44,25.71Z"/><path class="ac405426-a6c9-45ca-9e0e-ccf1136aba0e" d="M125.14,33.76h.31c.57,0,.91-.1,1-.3v-.61c0-.18,0-.4,0-.65s0-.53,0-.86V25.16c0-.42,0-.82,0-1.18s0-.64,0-.85v-.34a.74.74,0,0,0-.32-.57,2.71,2.71,0,0,0-1-.18h-.39v-.51c0-.34,0-.5,0-.5l.22,0,.64,0,.81,0,.82-.06.66-.05.24,0h.07v.58l0,.57.17-.16a5.11,5.11,0,0,1,3-1,3.93,3.93,0,0,1,.7,0,4.28,4.28,0,0,1,2.58,1.65,5.16,5.16,0,0,1,1,3.26,6.29,6.29,0,0,1,0,.77,5,5,0,0,1-3.26,4,4.17,4.17,0,0,1-1.36.22,3.94,3.94,0,0,1-2.64-1l-.18-.15V31.5c0,1.27,0,1.93,0,2a.53.53,0,0,0,.27.24,8.43,8.43,0,0,0,1.08.06h.35v1h-.18a20.09,20.09,0,0,0-2.46-.07,20.31,20.31,0,0,0-2.47.07h-.17v-1Zm8.54-8A5.36,5.36,0,0,0,133,23a2.44,2.44,0,0,0-1.64-1.34h-.15l-.16,0a3.4,3.4,0,0,0-2.71,1.43v5.26a2.74,2.74,0,0,0,2.47,1.59,2.22,2.22,0,0,0,1.67-.82A4.72,4.72,0,0,0,133.68,25.71Z"/><path class="ac405426-a6c9-45ca-9e0e-ccf1136aba0e" d="M107.26,55.23a1.16,1.16,0,0,1-1.68,0,1.16,1.16,0,0,1-.33-.83,1.77,1.77,0,0,1,.18-.71,2,2,0,0,1,1.14-.92,5.84,5.84,0,0,1,2.09-.33,4.69,4.69,0,0,1,2.52.66,3.08,3.08,0,0,1,1.4,1.72,2.36,2.36,0,0,1,.12.69c0,.26,0,1.1,0,2.52s0,2.27,0,2.52a1.33,1.33,0,0,0,.12.56.47.47,0,0,0,.44.31.45.45,0,0,0,.42-.31,3.36,3.36,0,0,0,.13-1.21v-.79h.88V60a6.59,6.59,0,0,1-.06,1,2.13,2.13,0,0,1-.73,1,2,2,0,0,1-1.25.41,1.4,1.4,0,0,1-1-.39,2,2,0,0,1-.59-.93V61s-.13.14-.26.3l-.29.32a3.78,3.78,0,0,1-2.5.9,4.17,4.17,0,0,1-2-.49,2.44,2.44,0,0,1-1.21-1.27,2.12,2.12,0,0,1-.18-.84,2.63,2.63,0,0,1,.86-1.89,4.08,4.08,0,0,1,1.26-.84,10.85,10.85,0,0,1,3.82-.81h.31v-.48a3.3,3.3,0,0,0-.13-1.1,2.1,2.1,0,0,0-2.13-1.57c-1,0-1.48.06-1.48.18a1.11,1.11,0,0,1,.49,1A1.14,1.14,0,0,1,107.26,55.23Zm3.6,3.22c0-.85,0-1.28,0-1.28l-.11,0c-2,.13-3.29.73-3.85,1.78a2.07,2.07,0,0,0-.24,1,1.66,1.66,0,0,0,.53,1.26,1.77,1.77,0,0,0,1.29.5A2.27,2.27,0,0,0,110,61.2a2.56,2.56,0,0,0,.83-1.3A14.35,14.35,0,0,0,110.86,58.45Z"/><path class="ac405426-a6c9-45ca-9e0e-ccf1136aba0e" d="M120.23,52.57a4.38,4.38,0,0,1,2.91,1.08V51.41c0-1.53,0-2.32,0-2.38a.73.73,0,0,0-.32-.56,2.5,2.5,0,0,0-1-.19h-.4v-.5c0-.34,0-.51,0-.51l.22,0,.63,0,.82,0,.81-.06.66-.05.24,0h.07v6.69c0,4.48,0,6.75,0,6.79a.77.77,0,0,0,.32.59,2.55,2.55,0,0,0,1,.18h.39v1l-1.68.11c-1.09.07-1.67.11-1.72.13h-.16V61.33l-.17.15A4.3,4.3,0,0,1,120,62.54a4,4,0,0,1-2.73-1,5.16,5.16,0,0,1-1.68-3.16c0-.12,0-.38,0-.77A5,5,0,0,1,117,54,4.35,4.35,0,0,1,120.23,52.57Zm2.84,2.2a3,3,0,0,0-2.48-1.38,2.71,2.71,0,0,0-1.92.79,2.91,2.91,0,0,0-.74,1.34,9.85,9.85,0,0,0-.18,2.13,4.69,4.69,0,0,0,.92,3.35,2.28,2.28,0,0,0,1.72.72,2.82,2.82,0,0,0,1.47-.41A3.09,3.09,0,0,0,123,60.16l.09-.13Z"/><path class="ac405426-a6c9-45ca-9e0e-ccf1136aba0e" d="M127.71,65.88a6.13,6.13,0,0,0,.8.11,1.6,1.6,0,0,0,.46-.06c.61-.22,1-.87,1.1-1.94,0-.18,0-1.77,0-4.8s0-4.57,0-4.66a.7.7,0,0,0-.37-.56,3.24,3.24,0,0,0-1-.14h-.44v-.51c0-.34,0-.51,0-.51l.08,0h.27l.37,0,.47,0,.54,0,.85-.05.68-.06.26,0h.08v5.68c0,3.22,0,5,0,5.35a3.15,3.15,0,0,1-.12.85,3.37,3.37,0,0,1-1.23,1.69,3.52,3.52,0,0,1-2.14.67,3,3,0,0,1-1.73-.52,1.64,1.64,0,0,1-.75-1.42,1.13,1.13,0,0,1,1.16-1.17,1.15,1.15,0,0,1,.85.35,1.11,1.11,0,0,1,.34.84A1.25,1.25,0,0,1,127.71,65.88Zm2.91-18.3a1.45,1.45,0,0,1,.9.38,1.27,1.27,0,0,1,.35.94,1.18,1.18,0,0,1-.59,1.12,1.38,1.38,0,0,1-1.43,0,1.17,1.17,0,0,1-.6-1.12,1.25,1.25,0,0,1,.39-1A1.42,1.42,0,0,1,130.62,47.58Z"/><line class="bc64f476-72d0-495a-85d9-bc2420c9ef5a" x1="95.32" y1="41.37" x2="142.68" y2="41.37"/><path class="ac405426-a6c9-45ca-9e0e-ccf1136aba0e" d="M11.1,34.2v-.33H12v4.05h3v1H12V42.1c0,1.83,0,2.87,0,3.11a1.82,1.82,0,0,0,.14.7,1.09,1.09,0,0,0,1.08.85c.64,0,1-.52,1.18-1.56a9.21,9.21,0,0,0,0-1v-.77h.88v.77a6.84,6.84,0,0,1-.11,1.45,3,3,0,0,1-.83,1.43,2.13,2.13,0,0,1-1.53.55,2.5,2.5,0,0,1-2.7-2.42c0-.1,0-1.19,0-3.25v-3H8.4v-.81h.19A2,2,0,0,0,10,37.41,4.85,4.85,0,0,0,11.1,34.2Z"/><path class="ac405426-a6c9-45ca-9e0e-ccf1136aba0e" d="M20,40.34a1.15,1.15,0,0,1-.85.35,1.12,1.12,0,0,1-.84-.35,1.17,1.17,0,0,1-.33-.84,1.72,1.72,0,0,1,.18-.7,1.94,1.94,0,0,1,1.14-.92,5.88,5.88,0,0,1,2.09-.33,4.69,4.69,0,0,1,2.52.66,3.09,3.09,0,0,1,1.4,1.71,2.5,2.5,0,0,1,.12.7c0,.25,0,1.09,0,2.51s0,2.28,0,2.52a1.3,1.3,0,0,0,.12.56.45.45,0,0,0,.44.31.44.44,0,0,0,.42-.31A3.28,3.28,0,0,0,26.52,45v-.79h.88v.86a6.41,6.41,0,0,1-.06,1,2.09,2.09,0,0,1-.73,1,2,2,0,0,1-1.25.4,1.41,1.41,0,0,1-1-.38,1.89,1.89,0,0,1-.58-.94v-.08a3,3,0,0,0-.27.29c-.13.16-.23.26-.28.32a3.81,3.81,0,0,1-2.51.9,4.28,4.28,0,0,1-2-.48,2.49,2.49,0,0,1-1.21-1.28,2,2,0,0,1-.17-.83,2.62,2.62,0,0,1,.85-1.89,4.08,4.08,0,0,1,1.26-.84,10.69,10.69,0,0,1,3.83-.81h.3V41a3.34,3.34,0,0,0-.13-1.1,2.11,2.11,0,0,0-2.13-1.56c-1,0-1.48.06-1.48.18a1.08,1.08,0,0,1,.49,1A1.18,1.18,0,0,1,20,40.34Zm3.59,3.21a12.07,12.07,0,0,0,0-1.27.2.2,0,0,0-.11,0c-2,.13-3.29.72-3.85,1.78a2,2,0,0,0-.24,1,1.65,1.65,0,0,0,.53,1.25,1.79,1.79,0,0,0,1.3.51,2.25,2.25,0,0,0,1.5-.53,2.42,2.42,0,0,0,.83-1.3A11.42,11.42,0,0,0,23.55,43.55Z"/><path class="ac405426-a6c9-45ca-9e0e-ccf1136aba0e" d="M31.69,46.08c.12.21.47.31,1,.31h.66v1h-.18a24.36,24.36,0,0,0-2.46-.06,24.64,24.64,0,0,0-2.47.06h-.17v-1h.66c.57,0,.91-.1,1-.31V45.4c0-.2,0-.44,0-.69s0-.55,0-.86v-.91c0-.46,0-.95,0-1.47s0-.95,0-1.28v-.51a.7.7,0,0,0-.32-.56,2.46,2.46,0,0,0-1-.19h-.39v-.5c0-.34,0-.51,0-.51l.22,0,.63,0,.8,0,.79-.05.64-.06.24,0h.07v.88a7.29,7.29,0,0,0,0,.83l0,0A3.88,3.88,0,0,1,35,37.68a2.56,2.56,0,0,1,2.79,2.48q0,.17,0,3.06c0,1.88,0,2.83,0,2.86a.44.44,0,0,0,.26.24,6.91,6.91,0,0,0,1.08.07h.35v1h-.17a24.64,24.64,0,0,0-2.47-.06,24.36,24.36,0,0,0-2.46.06H34.2v-1h.53c.78,0,1.17-.12,1.17-.35,0,0,0-1,0-3s0-3-.05-3.14a2,2,0,0,0-.49-1,1.52,1.52,0,0,0-1.05-.32,2.35,2.35,0,0,0-1.73.75,3.16,3.16,0,0,0-.91,1.94v.41c0,.25,0,.58,0,1s0,.77,0,1.13v.69c0,.24,0,.46,0,.65s0,.36,0,.52v.51Z"/><path class="ac405426-a6c9-45ca-9e0e-ccf1136aba0e" d="M47.12,52.7c0,.14-.14.2-.4.2h-.29l-.61-.53q-4-3.6-4-10.47A17.51,17.51,0,0,1,42.5,37a11.81,11.81,0,0,1,3.32-5.57l.35-.3a2.59,2.59,0,0,0,.26-.23h.29c.18,0,.29,0,.33.07a.21.21,0,0,1,.07.13c0,.06-.08.17-.25.33Q43.47,35,43.46,41.9t3.41,10.47C47,52.54,47.12,52.65,47.12,52.7Z"/><path class="ac405426-a6c9-45ca-9e0e-ccf1136aba0e" d="M55.37,31.91h.44A2.39,2.39,0,0,1,57.65,33a6.31,6.31,0,0,1,.86,3.54,8.09,8.09,0,0,1,0,1A16.12,16.12,0,0,1,57,42.94a12.11,12.11,0,0,1-1.75,2.72,6.49,6.49,0,0,1-2,1.65,2.88,2.88,0,0,1-1.19.31h-.15a2.13,2.13,0,0,1-1.61-.68A5.62,5.62,0,0,1,49.12,43a11.75,11.75,0,0,1,.22-2.22,14.42,14.42,0,0,1,3.32-7.19A4.72,4.72,0,0,1,55.37,31.91Zm.35,8.74.11-.38H51.54l0,.16a18.4,18.4,0,0,0-.69,4.07,3.1,3.1,0,0,0,.53,2.07.85.85,0,0,0,.64.26c.59,0,1.2-.48,1.85-1.43A15.88,15.88,0,0,0,55.72,40.65ZM56.77,35c0-1.5-.39-2.24-1.16-2.24a2.07,2.07,0,0,0-1.5.94,12.19,12.19,0,0,0-1.87,4,10.41,10.41,0,0,0-.44,1.63l2.14,0,2.13,0a7.8,7.8,0,0,0,.4-1.72A14.67,14.67,0,0,0,56.77,35Z"/><path class="ac405426-a6c9-45ca-9e0e-ccf1136aba0e" d="M60,30.92l.08,0h.49l.61.53q4,3.62,4,10.47a17.62,17.62,0,0,1-.63,4.89,11.89,11.89,0,0,1-3.33,5.58l-.35.3-.26.23h-.27a.84.84,0,0,1-.34,0c-.05,0-.07-.1-.07-.22l.24-.29q3.41-3.54,3.41-10.45T60.12,31.45l-.24-.28A.26.26,0,0,1,60,30.92Z"/><path class="ac405426-a6c9-45ca-9e0e-ccf1136aba0e" d="M74,39.77a.48.48,0,0,1,.3-.44h14a.48.48,0,0,1,.33.44.52.52,0,0,1-.31.42l-7,0h-7A.43.43,0,0,1,74,39.77ZM74,44a.43.43,0,0,1,.35-.44h14l.1.07.11.09a.36.36,0,0,1,.06.11.33.33,0,0,1,0,.17.49.49,0,0,1-.33.44h-14A.49.49,0,0,1,74,44Z"/></svg>