<svg id="b1ea4b7f-38e5-4ae8-9ea6-272602437015" data-name="Layer 1" xmlns="http://www.w3.org/2000/svg" width="16" height="16" viewBox="0 0 16 16"><defs><style>.e1f168cc-4594-4f3b-9c50-e2cd4b45fce6,.f935bedd-f80c-4677-a6c1-3ffe8f086125{fill:#ddd;}.f3d14b98-3d44-40ed-ab40-cd7f54b4b7fa{fill:#333;}.e1f168cc-4594-4f3b-9c50-e2cd4b45fce6{stroke:#333;stroke-miterlimit:10;}</style></defs><title>tree-structure</title><circle class="f935bedd-f80c-4677-a6c1-3ffe8f086125" cx="3" cy="8" r="2.5"/><path class="f3d14b98-3d44-40ed-ab40-cd7f54b4b7fa" d="M3,6A2,2,0,1,1,1,8,2,2,0,0,1,3,6M3,5A3,3,0,1,0,6,8,3,3,0,0,0,3,5Z"/><circle class="f935bedd-f80c-4677-a6c1-3ffe8f086125" cx="13" cy="3" r="2.5"/><path class="f3d14b98-3d44-40ed-ab40-cd7f54b4b7fa" d="M13,1a2,2,0,1,1-2,2,2,2,0,0,1,2-2m0-1a3,3,0,1,0,3,3,3,3,0,0,0-3-3Z"/><circle class="f935bedd-f80c-4677-a6c1-3ffe8f086125" cx="13" cy="13" r="2.5"/><path class="f3d14b98-3d44-40ed-ab40-cd7f54b4b7fa" d="M13,11a2,2,0,1,1-2,2,2,2,0,0,1,2-2m0-1a3,3,0,1,0,3,3,3,3,0,0,0-3-3Z"/><line class="e1f168cc-4594-4f3b-9c50-e2cd4b45fce6" x1="5.68" y1="6.66" x2="10.32" y2="4.34"/><line class="e1f168cc-4594-4f3b-9c50-e2cd4b45fce6" x1="5.68" y1="9.34" x2="10.32" y2="11.66"/></svg>