<svg id="b1363a22-6dd2-4965-80d1-1a1e3f6a36eb" data-name="Layer 1" xmlns="http://www.w3.org/2000/svg" width="16" height="16" viewBox="0 0 16 16"><title>graphs copy</title><path d="M5.8,14.63l.41.09c.21,0,.4-.2.56-.59s.45-2,1-5C8.05,7.73,8.19,7,8.2,7V7H7.54a6.09,6.09,0,0,1-.7,0c-.07,0-.08-.14,0-.31a1.74,1.74,0,0,1,.07-.23A.13.13,0,0,1,7,6.34H8.32s0-.26.13-.7.14-.72.17-.82A3.36,3.36,0,0,1,9.5,3a1.8,1.8,0,0,1,1.16-.47,1.48,1.48,0,0,1,.85.31.91.91,0,0,1,.34.74,1,1,0,0,1-.25.69.81.81,0,0,1-.63.28c-.41,0-.62-.2-.62-.59a.78.78,0,0,1,.49-.75L11,3.1A1.32,1.32,0,0,0,10.55,3c-.27,0-.45.18-.53.53s-.2.9-.37,1.84l-.18.92a3.76,3.76,0,0,0,.77,0H11c.08,0,.12,0,.12.1a1.48,1.48,0,0,1-.1.45c0,.05-.06.07-.13.08H9.36L9,8.68c-.35,1.78-.56,2.86-.65,3.24a5.83,5.83,0,0,1-1.27,2.87,1.63,1.63,0,0,1-1,.44A1.24,1.24,0,0,1,5.26,15a.89.89,0,0,1-.34-.74,1,1,0,0,1,.25-.7.79.79,0,0,1,.63-.29c.41,0,.62.19.62.59a.8.8,0,0,1-.49.75Z" style="fill:#333"/></svg>