<svg id="b919e968-69ea-463f-ab8f-dbb72c2fbf9c" data-name="Layer 1" xmlns="http://www.w3.org/2000/svg" width="16" height="16" viewBox="0 0 16 16"><title>group</title><circle cx="9.47" cy="11" r="2" style="fill:#ddd"/><path d="M9.47,9.5A1.5,1.5,0,1,1,8,11a1.5,1.5,0,0,1,1.5-1.5m0-1A2.5,2.5,0,1,0,12,11a2.5,2.5,0,0,0-2.5-2.5Z" style="fill:#333"/><circle cx="10.14" cy="5" r="2" style="fill:#ddd"/><path d="M10.14,3.5A1.5,1.5,0,1,1,8.64,5a1.5,1.5,0,0,1,1.5-1.5m0-1A2.5,2.5,0,1,0,12.64,5a2.5,2.5,0,0,0-2.5-2.5Z" style="fill:#333"/><circle cx="4.27" cy="7.5" r="2" style="fill:#ddd"/><path d="M4.27,6a1.5,1.5,0,1,1-1.5,1.5A1.5,1.5,0,0,1,4.27,6m0-1a2.5,2.5,0,1,0,2.5,2.5A2.5,2.5,0,0,0,4.27,5Z" style="fill:#333"/><path d="M8,0H7.07A8,8,0,0,0,3.32,1.51l.59.81A7,7,0,0,1,8,1V0ZM.41,5.48A7.91,7.91,0,0,0,0,7.18H0v0H0v0H0v0H0v0H0v0H0v0H0v0H0v0H0v0H0v0H0v0H0v0H0v0H0v0H0v0H0a8,8,0,0,0,.34,1.92h0l1-.3A7.08,7.08,0,0,1,1,8a6.87,6.87,0,0,1,.36-2.21l-1-.31Zm3.4,8.13-.6.8A8,8,0,0,0,7.86,16l0-1a7,7,0,0,1-4.07-1.39Zm10.8-3.29A7.16,7.16,0,0,1,12,13.75l.57.82.06-.05h0l0,0h0l0,0h.72v0h.06l0,0h0v0h0a7.92,7.92,0,0,0,2-3.1l-.94-.33ZM12.9,1.67l-.61.79A7,7,0,0,1,14.72,6l.95-.29h-.11v0h0v0h0v0h0A8.11,8.11,0,0,0,12.9,1.67ZM8,0V1h.24l0-1H8Z" style="fill:#333"/></svg>