<svg id="ecb44e00-b265-4d05-a699-549c22b9e71c" data-name="Layer 1" xmlns="http://www.w3.org/2000/svg" width="16" height="16" viewBox="0 0 16 16"><title>mail</title><path d="M7.2,9.39,2,4.19v8a.31.31,0,0,0,.3.3H13.7a.31.31,0,0,0,.3-.3V4.26L8.87,9.39A1.18,1.18,0,0,1,7.2,9.39Z" style="fill:none"/><path d="M8.25,8.6l5.1-5.1H2.73L7.82,8.6A.32.32,0,0,0,8.25,8.6Z" style="fill:none"/><path d="M14.93,3.33a1.17,1.17,0,0,0-.67-.74,1.08,1.08,0,0,0-.44-.09H2.18a1.21,1.21,0,0,0-1.1.77A1.15,1.15,0,0,0,1,3.68v8.64A1.18,1.18,0,0,0,2.18,13.5H13.82A1.18,1.18,0,0,0,15,12.32V3.68A1.45,1.45,0,0,0,14.93,3.33Zm-1.58.17L8.25,8.6a.32.32,0,0,1-.43,0L2.73,3.5ZM14,12.2a.31.31,0,0,1-.3.3H2.3a.31.31,0,0,1-.3-.3v-8l5.2,5.2a1.18,1.18,0,0,0,1.67,0L14,4.26Z" style="fill:#333"/></svg>