<svg id="bbb8ba2d-9b0d-4940-ad10-2d8dcda83838" data-name="Layer 1" xmlns="http://www.w3.org/2000/svg" viewBox="0 0 16 16"><defs><style>.bc602fb6-c743-4694-a630-367fd3057d85{fill:#ddd;}.a5b0748e-1f5b-4a93-8a92-81867d939687{fill:#333;}</style></defs><title>pattern</title><rect class="bc602fb6-c743-4694-a630-367fd3057d85" x="0.5" y="0.5" width="1" height="1"/><polygon class="a5b0748e-1f5b-4a93-8a92-81867d939687" points="2 0 0 0 0 2 2 2 2 0 2 0"/><rect class="bc602fb6-c743-4694-a630-367fd3057d85" x="2.5" y="2.5" width="1" height="1"/><polygon class="a5b0748e-1f5b-4a93-8a92-81867d939687" points="4 2 2 2 2 4 4 4 4 2 4 2"/><rect class="bc602fb6-c743-4694-a630-367fd3057d85" x="4.5" y="0.5" width="1" height="1"/><polygon class="a5b0748e-1f5b-4a93-8a92-81867d939687" points="6 0 4 0 4 2 6 2 6 0 6 0"/><rect class="bc602fb6-c743-4694-a630-367fd3057d85" x="0.5" y="4.5" width="1" height="1"/><polygon class="a5b0748e-1f5b-4a93-8a92-81867d939687" points="2 4 0 4 0 6 2 6 2 4 2 4"/><rect class="bc602fb6-c743-4694-a630-367fd3057d85" x="2.5" y="6.5" width="1" height="1"/><polygon class="a5b0748e-1f5b-4a93-8a92-81867d939687" points="4 6 2 6 2 8 4 8 4 6 4 6"/><rect class="bc602fb6-c743-4694-a630-367fd3057d85" x="4.5" y="4.5" width="1" height="1"/><polygon class="a5b0748e-1f5b-4a93-8a92-81867d939687" points="6 4 4 4 4 6 6 6 6 4 6 4"/><rect class="bc602fb6-c743-4694-a630-367fd3057d85" x="6.5" y="2.5" width="1" height="1"/><polygon class="a5b0748e-1f5b-4a93-8a92-81867d939687" points="8 2 6 2 6 4 8 4 8 2 8 2"/><rect class="bc602fb6-c743-4694-a630-367fd3057d85" x="8.5" y="4.5" width="1" height="1"/><polygon class="a5b0748e-1f5b-4a93-8a92-81867d939687" points="10 4 8 4 8 6 10 6 10 4 10 4"/><rect class="bc602fb6-c743-4694-a630-367fd3057d85" x="10.5" y="2.5" width="1" height="1"/><polygon class="a5b0748e-1f5b-4a93-8a92-81867d939687" points="12 2 10 2 10 4 12 4 12 2 12 2"/><rect class="bc602fb6-c743-4694-a630-367fd3057d85" x="6.5" y="6.5" width="1" height="1"/><polygon class="a5b0748e-1f5b-4a93-8a92-81867d939687" points="8 6 6 6 6 8 8 8 8 6 8 6"/><rect class="bc602fb6-c743-4694-a630-367fd3057d85" x="10.5" y="6.5" width="1" height="1"/><polygon class="a5b0748e-1f5b-4a93-8a92-81867d939687" points="12 6 10 6 10 8 12 8 12 6 12 6"/><rect class="bc602fb6-c743-4694-a630-367fd3057d85" x="12.5" y="0.5" width="1" height="1"/><polygon class="a5b0748e-1f5b-4a93-8a92-81867d939687" points="14 0 12 0 12 2 14 2 14 0 14 0"/><rect class="bc602fb6-c743-4694-a630-367fd3057d85" x="8.5" y="0.5" width="1" height="1"/><polygon class="a5b0748e-1f5b-4a93-8a92-81867d939687" points="10 0 8 0 8 2 10 2 10 0 10 0"/><rect class="bc602fb6-c743-4694-a630-367fd3057d85" x="14.5" y="2.5" width="1" height="1"/><polygon class="a5b0748e-1f5b-4a93-8a92-81867d939687" points="16 2 14 2 14 4 16 4 16 2 16 2"/><rect class="bc602fb6-c743-4694-a630-367fd3057d85" x="12.5" y="4.5" width="1" height="1"/><polygon class="a5b0748e-1f5b-4a93-8a92-81867d939687" points="14 4 12 4 12 6 14 6 14 4 14 4"/><rect class="bc602fb6-c743-4694-a630-367fd3057d85" x="14.5" y="6.5" width="1" height="1"/><polygon class="a5b0748e-1f5b-4a93-8a92-81867d939687" points="16 6 14 6 14 8 16 8 16 6 16 6"/><rect class="bc602fb6-c743-4694-a630-367fd3057d85" x="0.5" y="8.5" width="1" height="1"/><polygon class="a5b0748e-1f5b-4a93-8a92-81867d939687" points="2 8 0 8 0 10 2 10 2 8 2 8"/><rect class="bc602fb6-c743-4694-a630-367fd3057d85" x="2.5" y="10.5" width="1" height="1"/><polygon class="a5b0748e-1f5b-4a93-8a92-81867d939687" points="4 10 2 10 2 12 4 12 4 10 4 10"/><rect class="bc602fb6-c743-4694-a630-367fd3057d85" x="4.5" y="8.5" width="1" height="1"/><polygon class="a5b0748e-1f5b-4a93-8a92-81867d939687" points="6 8 4 8 4 10 6 10 6 8 6 8"/><rect class="bc602fb6-c743-4694-a630-367fd3057d85" x="0.5" y="12.5" width="1" height="1"/><polygon class="a5b0748e-1f5b-4a93-8a92-81867d939687" points="2 12 0 12 0 14 2 14 2 12 2 12"/><rect class="bc602fb6-c743-4694-a630-367fd3057d85" x="2.5" y="14.5" width="1" height="1"/><polygon class="a5b0748e-1f5b-4a93-8a92-81867d939687" points="4 14 2 14 2 16 4 16 4 14 4 14"/><rect class="bc602fb6-c743-4694-a630-367fd3057d85" x="4.5" y="12.5" width="1" height="1"/><polygon class="a5b0748e-1f5b-4a93-8a92-81867d939687" points="6 12 4 12 4 14 6 14 6 12 6 12"/><rect class="bc602fb6-c743-4694-a630-367fd3057d85" x="6.5" y="10.5" width="1" height="1"/><polygon class="a5b0748e-1f5b-4a93-8a92-81867d939687" points="8 10 6 10 6 12 8 12 8 10 8 10"/><rect class="bc602fb6-c743-4694-a630-367fd3057d85" x="8.5" y="12.5" width="1" height="1"/><polygon class="a5b0748e-1f5b-4a93-8a92-81867d939687" points="10 12 8 12 8 14 10 14 10 12 10 12"/><rect class="bc602fb6-c743-4694-a630-367fd3057d85" x="10.5" y="10.5" width="1" height="1"/><polygon class="a5b0748e-1f5b-4a93-8a92-81867d939687" points="12 10 10 10 10 12 12 12 12 10 12 10"/><rect class="bc602fb6-c743-4694-a630-367fd3057d85" x="6.5" y="14.5" width="1" height="1"/><polygon class="a5b0748e-1f5b-4a93-8a92-81867d939687" points="8 14 6 14 6 16 8 16 8 14 8 14"/><rect class="bc602fb6-c743-4694-a630-367fd3057d85" x="10.5" y="14.5" width="1" height="1"/><polygon class="a5b0748e-1f5b-4a93-8a92-81867d939687" points="12 14 10 14 10 16 12 16 12 14 12 14"/><rect class="bc602fb6-c743-4694-a630-367fd3057d85" x="12.5" y="8.5" width="1" height="1"/><polygon class="a5b0748e-1f5b-4a93-8a92-81867d939687" points="14 8 12 8 12 10 14 10 14 8 14 8"/><rect class="bc602fb6-c743-4694-a630-367fd3057d85" x="8.5" y="8.5" width="1" height="1"/><polygon class="a5b0748e-1f5b-4a93-8a92-81867d939687" points="10 8 8 8 8 10 10 10 10 8 10 8"/><rect class="bc602fb6-c743-4694-a630-367fd3057d85" x="14.5" y="10.5" width="1" height="1"/><polygon class="a5b0748e-1f5b-4a93-8a92-81867d939687" points="16 10 14 10 14 12 16 12 16 10 16 10"/><rect class="bc602fb6-c743-4694-a630-367fd3057d85" x="12.5" y="12.5" width="1" height="1"/><polygon class="a5b0748e-1f5b-4a93-8a92-81867d939687" points="14 12 12 12 12 14 14 14 14 12 14 12"/><rect class="bc602fb6-c743-4694-a630-367fd3057d85" x="14.5" y="14.5" width="1" height="1"/><polygon class="a5b0748e-1f5b-4a93-8a92-81867d939687" points="16 14 14 14 14 16 16 16 16 14 16 14"/></svg>