<svg id="Layer_1" data-name="Layer 1" xmlns="http://www.w3.org/2000/svg" viewBox="0 0 64 64"><defs><style>.cls-1{fill:#333;}.cls-2{fill:none;stroke:#333;stroke-miterlimit:10;}</style></defs><title>resume</title><polygon class="cls-1" points="32.57 18.57 34.97 16.17 31.75 12.96 28.54 16.17 30.93 18.57 26.3 49.32 31.75 54.78 37.21 49.32 32.57 18.57"/><polygon class="cls-2" points="31.75 12.96 40.75 10.22 44.61 14.08 34.97 16.17 31.75 12.96"/><polygon class="cls-2" points="31.75 12.96 22.75 10.22 18.89 14.08 28.54 16.17 31.75 12.96"/><polygon class="cls-2" points="44.61 14.08 61.18 17.78 58.12 28.87 47.54 27.3 47.54 50.45 31.73 49.24 31.84 16.45 44.61 14.08"/><polygon class="cls-2" points="18.89 14.08 2.82 17.29 6.67 28.87 16.31 28.28 16.25 50.45 31.73 49.24 31.84 16.45 18.89 14.08"/></svg>