<svg id="e351e279-b8ac-4826-9ce2-94ab47ced903" data-name="Layer 1" xmlns="http://www.w3.org/2000/svg" viewBox="0 0 16 16"><defs><style>.b3640a08-7e08-4293-b1d8-4fee921b53a0{fill:#333;}</style></defs><title>text</title><path class="b3640a08-7e08-4293-b1d8-4fee921b53a0" d="M9.05,14.77l-1.79,0-1.95,0c-1.72,0-2.81,0-3.28,0h-.3a.56.56,0,0,1-.13-.17,1.58,1.58,0,0,1,0-.37.9.9,0,0,1,.2-.38h.56A14,14,0,0,0,4,13.79a1,1,0,0,0,.5-.12l0,0c.07,0,.13-.18.2-.41s.33-1.28.8-3.13c.23-.91.41-1.65.56-2.22q1.39-5.5,1.4-5.62c0-.07-.19-.1-.58-.1H6.33a8,8,0,0,0-1.76.12,2.22,2.22,0,0,0-1.3.7A7.89,7.89,0,0,0,2.09,5.43a2.35,2.35,0,0,1-.2.52A.36.36,0,0,1,1.61,6H1.55A.53.53,0,0,1,1.23,6s-.06-.07-.06-.1.2-.72.6-1.92c.29-.92.54-1.65.74-2.2a1.37,1.37,0,0,1,.26-.52h9.36a13.21,13.21,0,0,1,2.68.1v0l0,0v.06c0,.08-.12.84-.35,2.28s-.36,2.17-.37,2.18,0,.07-.08.1-.13,0-.3,0h-.19l-.09,0-.06-.06-.06-.07a4.64,4.64,0,0,1,.06-.54,10.84,10.84,0,0,0,.18-1.58A2.05,2.05,0,0,0,13.45,3a1.51,1.51,0,0,0-.27-.46,1,1,0,0,0-.54-.24,5.2,5.2,0,0,0-.67-.1l-.92,0q-.92,0-1.17,0a.52.52,0,0,0-.35.15S9,4.21,8.11,7.92s-1.4,5.6-1.4,5.65.09.15.26.18a8.42,8.42,0,0,0,1.5.1c.45,0,.72,0,.81,0a.19.19,0,0,1,.17.12,1.08,1.08,0,0,1,0,.34q-.08.36-.18.42l0,0Z"/></svg>