<svg id="ba99ca17-21c5-4f90-bd18-14969e7b365c" data-name="Layer 1" xmlns="http://www.w3.org/2000/svg" width="16" height="16" viewBox="0 0 16 16"><title>twitter</title><g id="bbba7bf6-f5a6-425b-8b44-25ef7f0c4eeb" data-name="Layer_1"><path d="M13.16,4.48a5,5,0,0,0,.65-.23.11.11,0,0,1,.13,0,.13.13,0,0,1,0,.18,4.69,4.69,0,0,1-.56.69,4.6,4.6,0,0,1-.62.55v.25a7.26,7.26,0,0,1-2.09,5,6.74,6.74,0,0,1-4.89,2,7,7,0,0,1-2-.28,7.1,7.1,0,0,1-1.79-.82A.11.11,0,0,1,2,11.67a.12.12,0,0,1,.14-.11h0l.28,0H2.7a4.87,4.87,0,0,0,1.54-.25,4.53,4.53,0,0,0,1.1-.55,2.56,2.56,0,0,1-1.11-.47,2.52,2.52,0,0,1-.9-1.25.11.11,0,0,1,0-.08.14.14,0,0,1,.15-.1h0l.21,0H4a2.48,2.48,0,0,1-.92-.71,2.54,2.54,0,0,1-.58-1.61v0a.14.14,0,0,1,0-.07.13.13,0,0,1,.17,0h0a2.28,2.28,0,0,0,.51.21l.09,0a2.36,2.36,0,0,1-.47-.62,2.57,2.57,0,0,1-.3-1.2,2.39,2.39,0,0,1,.09-.66,2.45,2.45,0,0,1,.25-.6l0-.05a.13.13,0,0,1,.18,0L3,3.67,3,3.59A6.88,6.88,0,0,0,5.22,5.35a6.76,6.76,0,0,0,2.54.7.5.5,0,0,1,0-.12,2.64,2.64,0,0,1,0-.29A2.56,2.56,0,0,1,10.26,3.1a2.61,2.61,0,0,1,1,.21,2.52,2.52,0,0,1,.79.54,4.33,4.33,0,0,0,.7-.21,4.74,4.74,0,0,0,.72-.34.14.14,0,0,1,.11,0,.13.13,0,0,1,.08.16h0a2.62,2.62,0,0,1-.43.81,2.16,2.16,0,0,1-.25.27l.17,0Z" style="fill:#333"/></g></svg>