<svg id="baf117a7-5446-4c5f-89bd-93db079477fa" data-name="Layer 1" xmlns="http://www.w3.org/2000/svg" width="960" height="450" viewBox="0 0 960 450"><defs><style>.e5097e30-3625-4e42-b54d-9b6341185c80{fill:#f8f8f8;stroke:#404040;stroke-miterlimit:10;}</style></defs><title>world</title><path class="e5097e30-3625-4e42-b54d-9b6341185c80" d="M947.73,304l.61,2-3.15.08Z"/><path class="e5097e30-3625-4e42-b54d-9b6341185c80" d="M570.3,252.9l14.06,11.53-.35,11.7,2.87,5.64-7.68,3.94-7.65-.17-2.07-6.5-2.58-.6-5.25-2.74-3.54-11.87,3.77-3.5-.78-2.91-.09-3.93Z"/><path class="e5097e30-3625-4e42-b54d-9b6341185c80" d="M457.72,164.52v.77l-.09,4.73-8.45-.17-2.88,14.26-10.79,1,.15-1.28,5.89-.26,9.13-16.67Z"/><path class="e5097e30-3625-4e42-b54d-9b6341185c80" d="M191.59,98.92,184,93.47l.43-11.74,3.38-3.21L184,67.45,177.66,70l-4.54-3.91L196.5,40.56l7,2.17,20.71-4.18,2.36,2.66,4.34-1.8-1.53,2,17.18,1.23L248.19,44l-3.9,1.32,3.34.51,8.8.81,3.25-1.32-1.27-1.1,2-.95,4.33-.36L272.17,46l9.43-2.49,2.53.87L282.44,47l6.94-4.75-2.69-2.59,5.83-4.7,3.5,1.49.74,2.92-2.64,1.29,3.44.51-1.71,2.68,3.95-2,1.46,1.67-.95,3.73,8-7.06,5.47.58,2,1.3-2.92,2.69-.29,2.71-10,1.48-5.92,4.78-9,3.17-11.85,7.51-4,5.53,2.93.47-.44,4.82,19.88,5.6-2,5.42,2.65,6.13,4.59-4-.33-6.16,9.62-5.38-1.52-6.49,3.95-3,1.57-6.88,9.25-.31,7.5,3.77-1.77,5.92,2.73,2.13,9.09-6L343,75.49l-1.48,1.83,8.49,5,1.72,7.23L340.12,95.2H325.25L311,105.43l16.43-7.25,1.66,1.49-2.78,2,0,5.52,6.82,1.09,3.19-3.35.9,3.27L322,115.45l-1.2-2.87,4.83-2.45-6.54.42v-5.79L316,103.59,308.44,111h-8.07l-22,10.16L282.24,110l-10.58-9-7.92.5-5.84-3.74-32-2ZM324.2,32.69l-.6-2.22,7.54,2.15Zm-23-5.42-6.2.13,5.12-1.75Zm1.67-8.88,1.48.75L300,20.47l-.22-2.33Zm7.71,10.3-7.36-1.09,0-3.54L298.11,23l10.33-.06,2.4,2.78,15.46-.2,1.17,1.88Zm-35.75-8.92,2.26.32-7.44.64Zm2.18-1.51,1.94.44-5.79.44ZM351.28,92l-3.95,4.45,7.32,1.74-.91,7.75-2.53-.42.56-2.84-3.44,2.59-8.54-2.17,6.85-9.29Zm-46.9-39.22,6,3.76-15.43.53,6.19-5.94Zm21.15-19,17.21,4.67,1.91,3.45-4.29,1.24,12.07,4.91-6.41,5-7-3.36,3.72,7.73-1.62,2-6.74-2.9,3.44,5-5.3-1.07L322.76,54l-8,.3,10.81-2.4,5.13-4.9-.37-2-8.39-5.51-19.09-.64-1.1-.93,2.86-1.14h-2.79l1.09-2.61,5.73-3.27,5.45-.62-2.48,1.59.48,1.53,8.73-3,.45,4.17Zm-27.61-4.43,7.21.68-12.72,4.45,1.34-3.41Zm-49.64-4.86,16.24-3.6-4.4,2.61ZM178,84l2.3-.25-2.41,5.7L176,85.86ZM288.27,17.15l7.47,3.2-9.08-1.15,2.44-.63Zm-99.06,83.19-4.49-.92-3-5.79L187,95Zm57.48-71.78L256,31l-20.75,6.52L231.89,35l8.25-4.53-.4-1.5ZM276,25.18l3.25.87-14.73,2.57L262,27.94l5-1.08-11.16-.2,7.4-3,9.68,2.39-.61-2.26,2.58-.85ZM272.62,32l-.17,5.27,4,3.65-3.41.22-.81,2-22.55.59-5.09-3.77,10.71-1-10.54-.5-.22-.93,5.41-1L244,35.85l12.24-4.48,1.56.49-2,1.18,10-.77.62,3.3L269,31.93Zm11.15.9-.91-1.6,8.8-1-2.72,1.93L291,33.32l-2,2.25-4,1-5.74-3.17Zm-10.22-2.22,3.7.42-3.1,1.66Zm21.87-7.61.48,1.12-3.29,3-7.14-1.35L287,24Zm13-8.76L316.27,13l7.77,4.1-14.9,2.25-1.09-.94L310.87,17l-4.74-1.7Zm10.82-2.63L343.4,9.26l29.26.94L351.4,16.05l-11.13,1,1.35,1.81-13.49,5.5-16.28-.73L316.33,22l.49-1.67,5.39.83-3.94-1.91,7.09-2.19-1.48-2,9.6-.47-10.24-.12Zm6.41,34.85-4-.37,3.74-1.83Zm-39.6-5.39.52,1-1.84.94-6-1.66,4.53-2Zm42,63.7,4.28,1.76-2.4,1.43Z"/><path class="e5097e30-3625-4e42-b54d-9b6341185c80" d="M191.59,98.92l34.34-3.13,32,2,5.84,3.74,7.92-.5,10.58,9-3.89,11.17,22-10.16h8.07l7.55-7.38,3.08,1.17v5.79l-10.21,6.25.49,4.42-9.72,2.21h4.27l-5,.51-3.76,5.63L294,127.86l.31,3.33-3,3.69.45-6-.85,3.33-1.45-.51,1.16,8.31-17,12.71-1.3,19.36-3-2.07-2.72-12.56L260,156l-8.3.78-.26,3.09-13.24-1-7.5,5.16-2.32,6.19-3.48-1.72L222,159.18l-7.7.35-4.41-7.74-11.81,1.29-8.07-4.3-6.32.6-6.6-6.44-2.4-17.64,8.79-15.93,2.34-8,3.28,3.25ZM73.81,188l1.1,1.8-2.66,1.8ZM117.9,65.82l.64,1.32-3.24-.85Zm22.72,6.82,1.51,1.1-6.72,1.67ZM196.5,40.56,173.12,66.05,177.66,70,184,67.45l3.81,11.07-3.38,3.21-1.06-9.49-9.51-4.08-12.67-3.74L147,69.25l7.76-6-30.51,15-18.27,4.18,20.25-7.13L134.63,70l-11.5.71,2.32-3.76-4.67-1.48,3.41-4.32,5.6-3,9.75-1.67.26-1.74,2.62-1-9.71.9-3-3.3,10.22-2.45,4.44,1.26-3.84-6,2.73-1.38L170,36.35Z"/><path class="e5097e30-3625-4e42-b54d-9b6341185c80" d="M684.86,98.26l-2.68,6.67-5-1,.19,5.45L672,111.23l3.85,5.32-.67,2.54-15.5-2.88-7.08,3.14-5.28,4.93-4.14-1.62-6.38-7.8-6.82.67-10-6.32-5.7,1.76,2.53,11.27-5.29-3.06-3.51,1.61-.6-3.05L601,112.15l6.13-1.93L606,105.35l-9.11,1.42-7.49-6,1.26-6.21,2.77,1.73,3.87-5.35L609.56,94l12.92-.49-4.16-3.45,3.1-3-1.62-3,16-4,11.91,5.58,6.81-2.92,11.37,10.6,7.47-.57Z"/><path class="e5097e30-3625-4e42-b54d-9b6341185c80" d="M616.74,122.24,614.21,111l5.7-1.76,10,6.32,6.82-.67,6.38,7.8,4.14,1.62,5.28-4.93-.64,2.29,7,2-4.5,2L649.81,124l-3.11,3.58,2.69,4.35-.67,3.17-3.43-.68-23.08-16.63Z"/><path class="e5097e30-3625-4e42-b54d-9b6341185c80" d="M855.48,258l17.12,10.76-1.45,4,8.65,9-7.61-.51-7.65-7.78-6.17,5.3-4.1-.68Zm30.91,3.25.28,3.41-5.49-6.23Zm-4,6.74-7.89-.34,6.73-.85,3.74-4Z"/><path class="e5097e30-3625-4e42-b54d-9b6341185c80" d="M855.48,258l-1.21,20.08-2.13-2.48-6.81.34,3.12-3.42-1.5-5.89-11-5.73-1.89,1.8-2.57-4,4.58-1.87-8.32-3.93,9.19-.52,3.78,8,5.35-5.12Zm-43.81,19.39.19,1.54-4.54,2.65Zm-17.84-40.14L792.34,240l4.67,7.26-3.17.34-4.64,14.78-15.75-3.33-3.17-10.34,1.76-4.86,2.31,3.75,8.83-1.36,5.19-9.48Zm30.71,21.35,3.74,3.24-7.76-1.36Zm-6.78,3.07-2.31-1.88,2.72-.17Zm3-18.36,2.1,3.16-1.58,6.32Zm-13.31,3.93,6.22-1.62-4.16,3.67h-9.3l-.45,2.31,2.35,2.73,6.48-2.48-4.92,4,4,10.59-2.48-.17,1.37-2.57-3.3.34-1.15-6-3.43,9.39-2.47-8.88,2.94-9.05L802,246ZM794,275.79l2.29,1-6.41,1Zm-25.48-6,18.71,6L760,271.09l2-2.91ZM758,253.32l4.54,6.15L761.45,268l-8.39-5-19.61-29.89,5.91.77Z"/><path class="e5097e30-3625-4e42-b54d-9b6341185c80" d="M322.36,411.93l3.24,3.5,7,2.5-4.14.57-3.88-.08Zm10.78-68.46-.25,11.43,5.77,9.27-5.06,5.56-7.6.35.55,6.82-5.81.08,1,3.07,4.09,1.52-3.41,2.88.18,4.65L319,390.7l-.07,2.27,5.45,2.84-5.09,10.46,2.9,4.6-8-.82-6.21-8,.89-13.72-4.3-7.7-.07-24.88L300.94,347l4.61-26.75,1.87-2.83,5.23,3,.81-2.5,3.41.78,13.85,9-1.42,6.11,7.64.77,2.12-5.07,3,3.69Z"/><path class="e5097e30-3625-4e42-b54d-9b6341185c80" d="M322.36,411.93l2.27,6.49,3.88.08-1.94,2.09-7-1.61L308.8,412.5l9.41,3.66ZM297.31,304.29l6.41,16.39,1.83-.43L300.94,347l3.54,8.76.07,24.88,4.3,7.7L308,402.06l6.21,8,8,.82-4.65,1.79.7,2.77-3.92-.9-6.84-3.74-5.35-10.64,1.79-5.26-3.83-.92.7-7.66,3,1-.53-6.27L300,383.61l-.46-12.17-2.53-6.5,2.17-14.68-3.76-43.65Z"/><path class="e5097e30-3625-4e42-b54d-9b6341185c80" d="M558.11,263.83l3.54,11.87-6.15,2.57-.41,8.12,3.23,1.2.12,3.34-15.12-7.27-4.63.51-.93-11.71-4.4-1-6.93,3.42-3-6.75-10.64.68-.45-.94,2.28-3.07,4.19.51,3.76-4.36,6.57-21.69,2.68-4.78,7.84,3.16,13.2-3.76,9.23,5.3.93,4.1-4.29,10.84-1.5,4.7Z"/><path class="e5097e30-3625-4e42-b54d-9b6341185c80" d="M590.8,255.2l-1.61-13.75,2.22-3.5,8.21-3.33,7.35-9.31,2.9-4.45-.25-6.07,5.66-1.88-3.79,16.16Z"/><path class="e5097e30-3625-4e42-b54d-9b6341185c80" d="M584.36,264.43,570.3,252.9l3.05-8.8-2.9-7.17,3.46-3.93,7.55,5.89,9.95-.94-2.22,3.5,1.61,13.75Z"/><path class="e5097e30-3625-4e42-b54d-9b6341185c80" d="M545.28,224.63l-4.67-9L538,211.2l2.57-9.59,2.36.26-.65-12.35,3.07-1.29-.27-6.18H576l2.2,10.47,2.57,2-4,3.17-.76,7.88-5.84,17.71-3.57-11-3.51,7.52-12.16,1-4.56-2.48-2.95,5.13Z"/><path class="e5097e30-3625-4e42-b54d-9b6341185c80" d="M542.31,189.52l.65,12.35-2.36-.26L538,211.2l2.58,4.45-12.93,10-7.11,1.45L517,220.52l4-1.28-2.71-8.9-2.65-4.62,4.35-7L521.55,187l-3-7.64,2.6-1.72Z"/><path class="e5097e30-3625-4e42-b54d-9b6341185c80" d="M292.44,189.18l-.57,5.14-7.15-.94,5.69-1-1.79-3.86Z"/><path class="e5097e30-3625-4e42-b54d-9b6341185c80" d="M291.87,194.32l.57-5.14,8.54,3.34Z"/><path class="e5097e30-3625-4e42-b54d-9b6341185c80" d="M124.16,35.92h0l-2.35,1.78h0Zm714,1.78L834.72,37h0l1.12-1.06ZM115.6,42.51h0L102.67,53.14h0ZM857.33,53.14l-4.31,1,11.06,6.38L854,62.26l-2.09,5-5.1-1.94-9.68,2,.91,4.55,4.3,1.81L847,81.57,843.7,92.89,830.48,80l-2.21-4L834,63.73l-2.2-3.92-3.87,5.54L822.76,62l-4.61.93-1.06,4.73,3.32,1.72-28,.24L786.11,82,795,84.81l3-1.3,5.63,3.24,6.26,13.84-3.65,15.28-8.1,3.56-.67-.51-3-7.86,4.63-.51-1.09-10-8.36,2L783,97.6l-4.66-1L769,87.65l-6.68-2-5.48.57,1.47,9.26-5.75.74-18.27,1.82-26.38-8.23-.43,6.91-13.12-3.22L685.66,98l-.8.25-11.53-5.53-7.47.57L654.49,82.7l-6.81,2.92L635.77,80l-16,4,1.62,3-3.1,3,4.16,3.45L609.56,94l-12.23-3.12-3.87,5.35-2.77-1.73-1.26,6.21,7.49,6h0l-4.64,5.38,6.1,8.56-1.5,2-3.81-2.21-16.47-4.75-8.74-5.57,5-5.46-2.15-.17,3.12-2.42-.11-5.07-11.52-2.89L557.7,89l-4.48.73-1.53-2.85,3.09-.82-5.22-6.46-6.4-1.76-2.47-3.74.61-5.67,2.25-1.56L541,65.51l6.21-6.62-3.52-1.83-.84-6.16-3-3,1.52-2-3.58-3.57L542.61,41l11.21,1.31,10.41,4.23.67,1.77-5.17,2.08-11.16-1.71,3.89,2,1.17,4,4.68,1.59-.49-3.54,5.52,1.73,1.61-.68-2-2,4.15-2.61,4.11,1.12.69-1.86-3.64-4.84,5.9.87,1.68,1.47-2,1.84,1.94.88,13.07-5.79,1.61.15-1.39,1.6,10.1-1.82,2.91,1.6,1.59-1.74-2.8-1.52.74-.87,18.21,4.64.72-1.38L615,41.28l-2.48-4.08,3.72-5.13,6.8,2.09-.82,2,3.25,2.64,1.4,3.53,3.07,1.6-2.14,5.59,2.56.37,3.34-4.21-2-3.28-3.62-1.66.25-2.58-3.66-2.07,2.55-1.76-1.49-1.75L628.47,34l.63,2.47,2.35.42L629.57,35l2.69-1,8.5,1.34-4.9-4.82,11.72-.68-2.46-1.3,1-1.63,23.27-3.14,3.91-3,8.12,2.86,14.45,1.52-5.28,4.06,29.55,3-1.78-1.93,7.57.41,15.37,7-.7-2.62,15.89.84-3.77-2.32,1.38-1.12,19.51,1.68,10.7,3.47,11.94-.08,8.13,3.66,13.46-.36,6.28,2.32,1.46-.87-4.1-2.82,22.87,3ZM646.66,13.44,650,13l11,3.13,1.64,2-3.74.32-15.31-3.48ZM667,17.21l5.88,1.24-9.07,1.83Zm74.81,7.24,13.51,1.4.73,1.82-9.72.48-5.58-1.56ZM762,26.39l5.53.61-9.08-.21Zm-201.81-12,11.8-.23-6.2,1.48ZM531.59,83.11l-7-.25L528,80.61Zm51.9-52.77,11.71-6.15,14.11-.66L592.45,28.9l-3.8,4.84,6,4.24-12.59-1.92,3.37-5.45ZM806,85l13.74,14-4.14-1,1.36,4.33,5.4,5.19-2.93-1.85-.12,2.35L804,86.19l-.74-2.76ZM120.19,47.19l-1.46,2.29,1.81-1.92,5.09.37,1.17,2.52-7.09,1.49-4.43,3.16-6.25-5-6.36,3.06L115.6,42.51Zm4.42-9.64-2.8.15,2.35-1.78,4,.64ZM559.81,108l3.86.67,3.79.84-5.85,3.37-3.87-3Z"/><path class="e5097e30-3625-4e42-b54d-9b6341185c80" d="M278,172.09l.93,4.55-1.8-2.58Z"/><path class="e5097e30-3625-4e42-b54d-9b6341185c80" d="M338.73,409.56l5.46-2.22,2.24,1.32Z"/><path class="e5097e30-3625-4e42-b54d-9b6341185c80" d="M507.4,16.35l12,1.6L509.8,23l-10.86-6.59ZM542.61,41l-4.79,1.31.47-1.88-2.76-1-5.26,4-8.56-1.23-7.49,2.91L508.67,55.7l-2.08-.07.2,11-2.55,3.52-1.6-1.73-4.13,3.3-6-.79-1.78-9.48,12.12-11.18,15.72-10,17.31-3.5,6.68,1.93-2.49.64ZM529.31,15.5,521.78,17l-10.64-2Zm-3.6,4.91-7.31.45L522,19.08Z"/><path class="e5097e30-3625-4e42-b54d-9b6341185c80" d="M398.87,10.2l34.77-1.66,10.23,1.51-19.61,1,16.91.89-2.28,1.19,13.42-1.53,6.08,1.24L444,15.26l4.11.06L444,18.39l-.48,2.53,2,1.56-6.21.85,3.3,1.26.07,2-2.07.27L442.78,29l-8.56,2.47,2,2.79-4.86-.35,5.32,4.24-7.25-2,.34,1.78-2.55,1.36,8,.21L414.76,45l-17.88,6.87-8.38,7.56-3.07,7.17-10.05-2.1-4.85-7.66L369,47.19l8.94-7.2-8,.86,1.92-3.15,5.68.64-7.77-2.77L373,33.25,368.79,26l-18.13-1.34-4.05-2.24,9.16-.84-11-1.54,16-3.07-3-1.58,12.25-2.57,0-.91,22.41-1.32,9.32,1.55Z"/><path class="e5097e30-3625-4e42-b54d-9b6341185c80" d="M642.22,400l3.19,1.91-4.76,1.49Z"/><path class="e5097e30-3625-4e42-b54d-9b6341185c80" d="M811.67,277.41l6.45-1.53L811.86,279Z"/><path class="e5097e30-3625-4e42-b54d-9b6341185c80" d="M521.83,338.31,531,338l.5-11.43,4.12,6.1,4.61-4.56,6,.69,10.38-10.57,4.51.52,1.07,11.17-3.26,2.75h5.59l-2.11,6.28-11.14,12.47-20.9,6.27-4.15-2.06,0-7.65Zm32.26,1.2-5.19,2.84,2.67,2.07Z"/><path class="e5097e30-3625-4e42-b54d-9b6341185c80" d="M554.09,339.51l-2.52,4.91-2.67-2.07Z"/><path class="e5097e30-3625-4e42-b54d-9b6341185c80" d="M183.72,149.38l6.32-.6,8.07,4.3,11.81-1.29,4.41,7.74,7.7-.35,2.86,9.29,3.48,1.72-2.92,10.49,3.28,11.24,3.6,2.06,8.23-2.23,3.87-6.61,8.68-1.63-4.56,9.36L246,195h-4.91l.78,5.4h-3.36l-1.76,4.71-3.88-4.28-7.16.86-20.5-11.32-.83-10.73-11.53-19.18-.33-6.88-3.61-2-1.22,5.16,8.34,21.06-2,1.64-4.34-5.93.71-4-5.78-5.24,3-2.67Z"/><path class="e5097e30-3625-4e42-b54d-9b6341185c80" d="M333.14,343.47l10.55,5.68,1.87,5.32-3.38,3.61-9.29-3.18Z"/><path class="e5097e30-3625-4e42-b54d-9b6341185c80" d="M345.56,354.47l-1.87-5.32-10.55-5.68L342,333.23l-3-3.69.29-5.33-3-.18-1.52-5-5.62-.86L328,312.27l1.23-6.18-2.38-5.83-5-.08-1.46-7.71-13.48-6.85-.09-5.56-11,3.68-2.7.17,0-4.62-7.34-.08-2.33-6,2.68-7,7.95-3,.09-18.53,6-.94,1.79,2.39,7.14-.77,2.18-2.13-3.76-5.72,4.62.85,6.33-4.44,3.08,3.84-.32,6.75,8.27-.34,5.34-1.28,4.19.51,3.48-6.24,4.44,7.43-1.15,5.64,4.75.51.13,3.08,2-2.05,7.72,3,.93,3.5,12.24.59,11.74,7,2.38,6.75-.9,5.13-8.94,12.48L377,305.15l-3.63,12.61-16.55,9.11-1.91,11.78Z"/><path class="e5097e30-3625-4e42-b54d-9b6341185c80" d="M295.78,283.74l11-3.68.09,5.56,13.48,6.85,1.46,7.71,5,.08,2.38,5.83L328,312.27l-2.68-2.49-6.93.86-1.47,8.07-3.41-.78-.81,2.5-5.23-3-1.87,2.83-1.83.43-6.41-16.39,1.16-15.59Z"/><path class="e5097e30-3625-4e42-b54d-9b6341185c80" d="M294,263.23l-7.95,3-2.68,7,2.33,6,7.34.08,0,4.62,2.7-.17,2.69,5-1.16,15.59-1.88,2.32-15.88-11.4-11.48-23L264,269l-.61-4.35,2.84-4.1-.26,3.16,3.33,1.62,9.53-10.5.43-4.27,6.16,6.57,8.06,1.28-1.64,3.16Z"/><path class="e5097e30-3625-4e42-b54d-9b6341185c80" d="M301.9,246.15l-1.79-2.39-6,.94L294,263.23l-2.19-1.71,1.64-3.16-8.06-1.28-6.16-6.57L270,245.72l4.77-7.6L273,227.7l1.58-4.44,4.65-2.4,2.34-5,8.62-4.19,1,2.05-5.68,8.12,3.19,6.67L301,231.2l-1.49,10.08Z"/><path class="e5097e30-3625-4e42-b54d-9b6341185c80" d="M274.62,223.26,273,227.7l-3-5.47-3.78,5.39-6.63-3,1.37-4.11Z"/><path class="e5097e30-3625-4e42-b54d-9b6341185c80" d="M261,220.52l-1.37,4.11-6.79-5.22.14-3.59,5.38.43Z"/><path class="e5097e30-3625-4e42-b54d-9b6341185c80" d="M258.37,216.25l-5.38-.43-3.78-5.9,11.6-6.17Z"/><path class="e5097e30-3625-4e42-b54d-9b6341185c80" d="M260.81,203.75l-11.6,6.17-1.12-1.2-3.84-3.17,3.47-4.11,8.59-.77Z"/><path class="e5097e30-3625-4e42-b54d-9b6341185c80" d="M244.25,205.55l3.84,3.17-6-1.12Z"/><path class="e5097e30-3625-4e42-b54d-9b6341185c80" d="M236.78,205.12l1.76-4.71h3.36l-.78-5.4H246l-.17,6,1.86.43-3.47,4.11-2.12,2Z"/><path class="e5097e30-3625-4e42-b54d-9b6341185c80" d="M246,195l2.52-2.14L245.86,201Z"/><path class="e5097e30-3625-4e42-b54d-9b6341185c80" d="M318.41,233.94l-6.33,4.44-4.62-.85,3.76,5.72L309,245.38l-7.14.77-2.44-4.87L301,231.2l-12.23-2.73-3.19-6.67,5.68-8.12-1.51,8.38,1.13-5.9,4.18-3.68,4.3,5,16.71-.51-2.3.94,7.61,6.33-4.67,7.43Z"/><path class="e5097e30-3625-4e42-b54d-9b6341185c80" d="M329.44,244.19l-8.27.34.32-6.75-3.08-3.84-1.75-2.31,4.67-7.43,6.64,7.43-2.51,5.9Z"/><path class="e5097e30-3625-4e42-b54d-9b6341185c80" d="M334.78,242.91l-5.34,1.28-4-6.66,2.51-5.9,8.47.6Z"/><path class="e5097e30-3625-4e42-b54d-9b6341185c80" d="M342.45,237.18,339,243.42l-4.19-.51,1.66-10.68Zm152-139.67L499,98.84l-1.26,4.25-3.35,2.67,2,2.18,1.63,7-10.75,3.73-11.86-2.88,1.79-7.93-8-8,7,.16-.67-3.4,2.18,1.25,8.11-5.37,7.42,4.87Zm6.83,20.73,1.51-1.18-.24,5Z"/><path class="e5097e30-3625-4e42-b54d-9b6341185c80" d="M279.23,250.51l-.43,4.27-9.53,10.5-3.33-1.62.26-3.16,1.43-2.31-3.31-1.28.07-3.67,5.56-7.52Z"/><path class="e5097e30-3625-4e42-b54d-9b6341185c80" d="M306.3,192.87l1.7.85-4.33.86Z"/><path class="e5097e30-3625-4e42-b54d-9b6341185c80" d="M276.63,193l3.36,1.89-5.46-1.12Z"/><path class="e5097e30-3625-4e42-b54d-9b6341185c80" d="M266.41,178.36l9.84,2.15,9.95,6.87-9.51,1.37,2-1.8-3.84-3.61-7.5-3.26-8.65,2.32Z"/><path class="e5097e30-3625-4e42-b54d-9b6341185c80" d="M561.12,318.71l-4.51-.52-10.29-13.47,4.66.6,8.79-7.46,6.56,3.69-1,11.15Z"/><path class="e5097e30-3625-4e42-b54d-9b6341185c80" d="M556.61,318.19l-10.38,10.57-6-.69-4.61,4.56-4.12-6.1,3.39-20.18,11-1.89.44.26Z"/><path class="e5097e30-3625-4e42-b54d-9b6341185c80" d="M531.49,326.53,531,338l-9.16.35-11-35L541,304l4.9.43-11,1.89Z"/><path class="e5097e30-3625-4e42-b54d-9b6341185c80" d="M435.85,208l-2.29-3.42,3.12-4.37,5-1.46,6.28,6.17,1.6,6.68-5.74-.43-7.88.6-.41-2.4,7.89-1Z"/><path class="e5097e30-3625-4e42-b54d-9b6341185c80" d="M449.52,211.63l-1.6-6.68,1.38-2.4,16.14-.34-2.16-29.35h4l21,18.29,2.9-.26L489.63,202l-8.62,2-11.57,4.54L465.68,218l-7,.52-2.88-6.51Z"/><path class="e5097e30-3625-4e42-b54d-9b6341185c80" d="M435.5,185.14l10.79-1,2.88-14.26,8.45.17.09-4.73,9.53,7.57h-4l2.16,29.35-16.14.34-1.38,2.4-6.28-6.17-5,1.46.74-12.26Z"/><path class="e5097e30-3625-4e42-b54d-9b6341185c80" d="M487.13,230.69,485,231l-2.61-14.95,3.37-2.91,3.83.85Z"/><path class="e5097e30-3625-4e42-b54d-9b6341185c80" d="M518.57,179.39l3,7.64L520,198.7l-4.35,7,2.65,4.62-.88,1.2L514.6,208l-10.76,2.4-9.47-3.17-3.47,1L489.57,214l-3.83-.85L481,203.92l8.62-2,1.51-11.06,20-13.39Z"/><path class="e5097e30-3625-4e42-b54d-9b6341185c80" d="M487.13,230.69,489.57,214l1.33-5.73,3.47-1,9.47,3.17L514.6,208l2.86,3.51-6.26,16.93-6.66,1.71-1.9,5.13-6.9,1.53-4.2-6.15Z"/><path class="e5097e30-3625-4e42-b54d-9b6341185c80" d="M518.34,210.34l2.71,8.9-4,1.28,3.56,6.58-2.09,8.29,4.11,7.6H505.71l-3.07-7.68,1.9-5.13,6.66-1.71,6.26-16.93Z"/><path class="e5097e30-3625-4e42-b54d-9b6341185c80" d="M482.37,216.08,485,231l-2.15.69L480.11,216Z"/><path class="e5097e30-3625-4e42-b54d-9b6341185c80" d="M480.11,216l2.72,15.73-10.41,2.9.13-14.35-.32-4.11Z"/><path class="e5097e30-3625-4e42-b54d-9b6341185c80" d="M458.69,218.56l7-.52,6.87,2.23-.13,14.35-12.91,2-1.88-10.26Z"/><path class="e5097e30-3625-4e42-b54d-9b6341185c80" d="M443.78,211.2l5.74.43,6.29.42,2.88,6.51-1.06,7.77-2.16,1.12-2.69-3.34-2.21-5-5.68,3.5-5-6.58Z"/><path class="e5097e30-3625-4e42-b54d-9b6341185c80" d="M435.9,211.8l7.88-.6L439.89,216Z"/><path class="e5097e30-3625-4e42-b54d-9b6341185c80" d="M457.63,226.33l1.88,10.26-9.92-7.52,3.19-5,2.69,3.34Z"/><path class="e5097e30-3625-4e42-b54d-9b6341185c80" d="M444.89,222.57l5.68-3.5,2.21,5-3.19,5Z"/><path class="e5097e30-3625-4e42-b54d-9b6341185c80" d="M465.68,218l3.76-9.58L481,203.92l4.73,9.25-3.37,2.91-2.26-.09-7.88.17.32,4.11Z"/><path class="e5097e30-3625-4e42-b54d-9b6341185c80" d="M552.87,233.85l-13.2,3.76-7.84-3.16-2.68,4.78-3.52-.68-3,4.44-4.11-7.6,2.09-8.29,7.11-1.45,12.93-10,4.67,9Z"/><path class="e5097e30-3625-4e42-b54d-9b6341185c80" d="M529.15,239.23l-6.57,21.69-3.76,4.36-4.19-.51-2.94.77-2.14-3.25,4-6.32,4.53.17v-9.82L514.78,243h7.81l3-4.44Z"/><path class="e5097e30-3625-4e42-b54d-9b6341185c80" d="M510,243h4.76l3.29,3.33v9.82l-4.53-.17-4,6.32-6.1-8.88,1.82-6.49,4.75-.17Z"/><path class="e5097e30-3625-4e42-b54d-9b6341185c80" d="M505.71,243H510v3.76l-4.75.17Z"/><path class="e5097e30-3625-4e42-b54d-9b6341185c80" d="M561.65,275.7l5.25,2.74.79,14.63-8.06,2.57.14,2.22L551,305.32l-4.66-.6-.44-.26L541,304l-3.33-4.45.36-9.76h5.51l-.2-6.16,15.12,7.27-.12-3.34-3.23-1.2.41-8.12Z"/><path class="e5097e30-3625-4e42-b54d-9b6341185c80" d="M566.9,278.44l2.58.6,2.07,6.5-.22,6.33,2.79,3.17-2,6.77L570.87,295l-3.18-2Z"/><path class="e5097e30-3625-4e42-b54d-9b6341185c80" d="M571.55,285.54l7.65.17,7.68-3.94-.21,15.75L571,311.07l1.34,12.19-8.25,6.28.44,3.09h-2l-.36-2.75-1.07-11.17,4.22-6,1-11.15-6.56-3.69-.14-2.22,8.06-2.57,3.18,2,1.27,6.77,2-6.77-2.79-3.17Z"/><path class="e5097e30-3625-4e42-b54d-9b6341185c80" d="M562.55,332.63h-3.62l3.26-2.75Z"/><path class="e5097e30-3625-4e42-b54d-9b6341185c80" d="M514.63,264.77l-2.28,3.07-.66-2.3Zm-1.83,4,10.64-.68,3,6.75,6.93-3.42,4.4,1,.93,11.71,4.63-.51.2,6.16H538l-.36,9.76L541,304l-30.14-.68,5.54-18.5Z"/><path class="e5097e30-3625-4e42-b54d-9b6341185c80" d="M561.1,257.42l.78,2.91-3.77,3.5-.87-5Z"/><path class="e5097e30-3625-4e42-b54d-9b6341185c80" d="M570.32,148.87l-.34.94L568.89,158l-1.81-4.56,1.61-5.76,1.66-.6Z"/><path class="e5097e30-3625-4e42-b54d-9b6341185c80" d="M570.35,147.06l-1.66.6,1.65-4.81,1.75,1.38Z"/><path class="e5097e30-3625-4e42-b54d-9b6341185c80" d="M611.05,288.45l1.56,10h-1.79L601.75,327l-4.48,2.07-3.45-1.9-1.17-6.87L596.31,310l-.81-6.26Z"/><path class="e5097e30-3625-4e42-b54d-9b6341185c80" d="M435.85,208l7.53.34-7.89,1Z"/><path class="e5097e30-3625-4e42-b54d-9b6341185c80" d="M504.16,156.26l-5-9.37L501,135.73l6.44-.51-1.85,8.58,3.44,3.69Z"/><path class="e5097e30-3625-4e42-b54d-9b6341185c80" d="M457.71,165.29v-.77l.08-3.7,18.86-10.58-2.1-9,9-4.46,17.36-1-1.76,11.16,5,9.37L504,169.33l7.1,8.17-20,13.39-2.9.26-21-18.29Z"/><path class="e5097e30-3625-4e42-b54d-9b6341185c80" d="M570,149.81l.34-.94,2.91,1.2,4.6-3.35,1.48,3.78-5.4,2.06,2.79,3.1-1,1.55-6.33,2.06Z"/><path class="e5097e30-3625-4e42-b54d-9b6341185c80" d="M613.64,175.09l6.32.43,4.59-6,.68,1,.62,2.49-2.34,6.88-8.38-.95Z"/><path class="e5097e30-3625-4e42-b54d-9b6341185c80" d="M611.49,173.55l.76-4.22.71,4.56Z"/><path class="e5097e30-3625-4e42-b54d-9b6341185c80" d="M602.35,157.29l1.61,4.48L599.09,160Z"/><path class="e5097e30-3625-4e42-b54d-9b6341185c80" d="M579.31,150.5l-1.48-3.78,5.2-3.18,2.29-8.66,6,.17,3.84,4.63-.89,5.23,9.57,12.55-1.54-.17L599.09,160l-4.82-.25Z"/><path class="e5097e30-3625-4e42-b54d-9b6341185c80" d="M623.51,179.91l2.34-6.88,9.74,8.08-4.53,10.38-11.37,7.12-3.46-7.29,7.53-3.09Z"/><path class="e5097e30-3625-4e42-b54d-9b6341185c80" d="M919.18,298.38l.33-3.26,1,3.43Z"/><path class="e5097e30-3625-4e42-b54d-9b6341185c80" d="M751.4,212.4l.33-6.25,5.93-.17,5.75.25.89,5.74-7.78,5.73Z"/><path class="e5097e30-3625-4e42-b54d-9b6341185c80" d="M757.66,206l-5.93.17-.33,6.25-7-3.77-1.47,10.69,8.66,11.54L749,232.49l-2.94-2.4-4.53-5.89-.34,1.79.11-6.58,2.17-6.07-4.67-10,1.39-3.25-5-7,6.28-6.09,3.49,3,.36,6,5.21-2.48,4.43,2.74Z"/><path class="e5097e30-3625-4e42-b54d-9b6341185c80" d="M763.41,206.23l-5.75-.25L755,196.21l-4.43-2.74L745.36,196l-.36-6-3.49-3,2.23-3.18,1.81.86.16-4,3.62,5.33h3.22l1.46,2.66-2,2,10.5,10.37Z"/><path class="e5097e30-3625-4e42-b54d-9b6341185c80" d="M741.51,187,735.23,193l5,7-1.39,3.25,4.67,10-2.17,6.07-6-21.66-4.22,3.77-3.26-1-.43-6.69-6.25-7.64.1-4.2,3.63-14.1,4.92-1.55-.39-3.69,4,2.32-.39,11.26,2.65-.51,2.56,6,5.47,2.06Z"/><path class="e5097e30-3625-4e42-b54d-9b6341185c80" d="M756.52,217.7,764.3,212l-.89-5.74-.91-5.31L752,190.55l2-2-1.46-2.66h-3.22l-3.62-5.33,7.64-2.75,8.17,5.59-4.85,7.72,10.24,11.74L769,214l-9.88,9.49Z"/><path class="e5097e30-3625-4e42-b54d-9b6341185c80" d="M797.48,118.92l.67.51L793.67,127l3.66,3.59-4.25,2.65-4.15-1.11,0-3.94-3.46-1.7,3.74-5.79,3.73,1.1,2.09-4.67Z"/><path class="e5097e30-3625-4e42-b54d-9b6341185c80" d="M793.08,133.25l4.25-2.65,5.12,5.65,1.13,5.23-5.7,2.14Z"/><path class="e5097e30-3625-4e42-b54d-9b6341185c80" d="M685.66,98l8.65-4.46,13.12,3.22.43-6.91,26.38,8.23,18.27-1.82,1.19,6.48,5-1.08,5.88,4.18-16.28,4.79,1.74,4.13-2.24,2.71-11.66,3.91-22.32-3.48-4.2-4.66-11.7-3.12-1.75-4.87Z"/><path class="e5097e30-3625-4e42-b54d-9b6341185c80" d="M729.43,162.63l.39,3.69-4.92,1.55L721.27,182l-2.3-5-2.46.43,2.36-4.55-6.55-1-4.2-3.61,1.68,3.7L708,174.32l3.71,7.56-5.05,1.72-.6,4.2-14.57,13.12.21,17.12L686,225.48l-12.38-24.81L669.38,184l-5.46,1.54-7.09-8.76,7.1-2.06-5.14-8,5.42-3,6.26-13.59-5.07-6.27,9.4-3.69,3.51,3.61,1.5,8.76,6.91,4.13L685,161l9.14,4.47,12.71,2.93-.69-4.56,2.12,1.81,8.61,1.46-1.49-2.93,10.15-5.24,1.09,3.27Z"/><path class="e5097e30-3625-4e42-b54d-9b6341185c80" d="M721.27,182l-.1,4.2-3.6-6.44-5.84,2.15L708,174.32,709.8,172l-1.68-3.7,4.2,3.61,6.55,1-2.36,4.55L719,177Z"/><path class="e5097e30-3625-4e42-b54d-9b6341185c80" d="M715.37,164.17l1.49,2.93-8.61-1.46,2.41-3.1Z"/><path class="e5097e30-3625-4e42-b54d-9b6341185c80" d="M706.13,163.83l.69,4.56-12.71-2.93L685,161l1.75-4.3Z"/><path class="e5097e30-3625-4e42-b54d-9b6341185c80" d="M674.8,140.19l-9.4,3.69,5.07,6.27-6.26,13.59-5.42,3,5.14,8-7.1,2.06-5.46-5.33-12.39,1,4-5.24-7.71-9.46,14-.26.76-4.39,5.72-1.8.22-6.62,3.53-3.52-1.57-2.83,9-3.26Z"/><path class="e5097e30-3625-4e42-b54d-9b6341185c80" d="M645.29,134.45l3.43.68,6.43-4.19,3.78,5.39,7.35-2.05.63.85-9,3.26,1.57,2.83L656,144.74l-.22,6.62-5.72,1.8-.76,4.39-14,.26,2-2.84-4.38-7,.24-8.25,4.6.69,3.31-5.23Z"/><path class="e5097e30-3625-4e42-b54d-9b6341185c80" d="M648.72,135.13l.67-3.17-2.69-4.35,3.11-3.58,4.55,1.53L651,127.78l10.43.25,4.81,6.25-7.35,2.05-3.78-5.39Z"/><path class="e5097e30-3625-4e42-b54d-9b6341185c80" d="M652.55,119.35l7.08-3.14,15.5,2.88L661.47,128,651,127.78l3.32-2.22,4.5-2-7-2Z"/><path class="e5097e30-3625-4e42-b54d-9b6341185c80" d="M607.94,120.79l3.51-1.61,5.29,3.06,5.47-4.42,23.08,16.63-4.28.77-3.31,5.23-4.6-.69-.71-2.66-10.31-4.71-8,2.57L613,129.49l-3.55-3.33,0-2.56,4.42-.26-3.2-3.57-1.58,3.06Z"/><path class="e5097e30-3625-4e42-b54d-9b6341185c80" d="M603.89,157.46l-9.57-12.55.89-5.23-3.84-4.63-2.72-7,1.55-.85,3.82,3,.82-.09,3.49-2.47,2.62,3.84,5.58,4.45,7.57-.94,8-2.57,10.31,4.71.71,2.66-.24,8.25,4.38,7-2,2.84,7.71,9.46-4,5.24-10.91-2.06-2.84-4.3-7.54.95-5.53-3.27-4.45-7.05Z"/><path class="e5097e30-3625-4e42-b54d-9b6341185c80" d="M570.32,148.87l0-1.81,1.74-2.83-1.75-1.38,0-3.69,1.13-3.09,13.82-1.19L583,143.54l-5.2,3.18-4.6,3.35Z"/><path class="e5097e30-3625-4e42-b54d-9b6341185c80" d="M594.84,130.08l-.82.09-3.82-3-3.59-4.26,3.26-.43Z"/><path class="e5097e30-3625-4e42-b54d-9b6341185c80" d="M504.24,70.12l2.55-3.52-.2-11,2.08.07,5.55-10.64,7.49-2.91,6.35,3.06,1.61,5.17-11.53,8.89-1.23,3.84L521,66.68l-3.89,3.83L515.6,78l-6.44,2.16Z"/><path class="e5097e30-3625-4e42-b54d-9b6341185c80" d="M543.16,77.8l6.4,1.76L554.78,86l-3.09.82,1.53,2.85L550.71,92l-16.33-.74-.91-6.93,4.51-1,1.69-3.87Z"/><path class="e5097e30-3625-4e42-b54d-9b6341185c80" d="M553.22,89.69,557.7,89l4.52,5.25,11.52,2.89.11,5.07-3.12,2.42-7.06,4.11-3.86-.67-6.63-1.85-2.25,3.95-3.34-.67,3.53-3.53-3.47-4.34-4.86-.34-9.13,1L532,100.67l.9-2,2.75-4.06-1.27-3.37,16.33.74Z"/><path class="e5097e30-3625-4e42-b54d-9b6341185c80" d="M533.47,84.32l.91,6.93,1.27,3.37-2.75,4.06-8.79-1.25-9.3-4.79-2.61-7.83,7.66-3.16,4.75,1.21,7,.25Z"/><path class="e5097e30-3625-4e42-b54d-9b6341185c80" d="M520,101.5l-1.53,3.85-5.6,1.08-8-1.17-2.1-1.92,7.86.17L512,99.26l7.95.83Z"/><path class="e5097e30-3625-4e42-b54d-9b6341185c80" d="M532,100.67l1.66,1.58-5.47,5.28-3.19.67-5.61-1.77-.88-1.08L520,101.5Z"/><path class="e5097e30-3625-4e42-b54d-9b6341185c80" d="M542.79,101.25l4.86.34,3.47,4.34-3.53,3.53Z"/><path class="e5097e30-3625-4e42-b54d-9b6341185c80" d="M547.59,109.46l3.34.67-2,4.81-14.32-1.6-6.42-5.81,5.47-5.28,9.13-1Z"/><path class="e5097e30-3625-4e42-b54d-9b6341185c80" d="M539.67,79.4,538,83.27l-4.51,1-1.88-1.21L528,80.61l-.75-2.41,8.47-1Z"/><path class="e5097e30-3625-4e42-b54d-9b6341185c80" d="M540.69,74.06l2.47,3.74-3.49,1.6-3.93-2.16-8.47,1,.68-4,5.82,1.11.17-2.22Z"/><path class="e5097e30-3625-4e42-b54d-9b6341185c80" d="M541.3,68.39l-.61,5.67-6.75-1-2.69-3.94Z"/><path class="e5097e30-3625-4e42-b54d-9b6341185c80" d="M512.2,84.81l2.61,7.83-6.26,2.48L512,99.26l-1.36,4.25-7.86-.17-5.05-.25L499,98.84l-4.53-1.33-.35-2,.24-2,1.41-7.93,4.3-1.54-.8-2.75,3.17-.08,2.47,2.83Z"/><path class="e5097e30-3625-4e42-b54d-9b6341185c80" d="M534.61,113.34l14.32,1.6-.78,5.17-4.5.6-7.55,1.44-1.7-3Z"/><path class="e5097e30-3625-4e42-b54d-9b6341185c80" d="M536.1,122.15l7.55-1.44.19,3.06-8.3,1.7,4,6.32-3,2.83,1.16,2.74L533.9,136l-4.28-8.55,1.82-3.76Z"/><path class="e5097e30-3625-4e42-b54d-9b6341185c80" d="M591.37,135.05l-6-.17-13.82,1.19-1.13,3.09-.29-2.57-3.65-.43-5.29,2.14-12.26-1.71L544.43,128l7-5.37,10.19-2.47,12.26,3.23,7.54-1.78,5.2,1.36,3.59,4.26-1.55.85Zm-47.72-14.34,4.5-.6,2.27,2.89-5.66,2.81-.92-2Z"/><path class="e5097e30-3625-4e42-b54d-9b6341185c80" d="M531.44,123.68l-1.82,3.76-2.47-6.9,1.6-2.21,1.42,2.29Z"/><path class="e5097e30-3625-4e42-b54d-9b6341185c80" d="M519.39,106.43,525,108.2l.65,3.19-7.85.17,7.22,6.6-.17.51-12.07-9.21Z"/><path class="e5097e30-3625-4e42-b54d-9b6341185c80" d="M502.76,103.34l2.1,1.92-8.51,2.68-2-2.18,3.35-2.67Z"/><path class="e5097e30-3625-4e42-b54d-9b6341185c80" d="M494.09,95.53l.35,2-1.2-.16Z"/><path class="e5097e30-3625-4e42-b54d-9b6341185c80" d="M494.33,93.55l-.24,2-.85,1.82-7.42-4.87,1.86-.57Z"/><path class="e5097e30-3625-4e42-b54d-9b6341185c80" d="M495.74,85.62l-1.41,7.93-6.65-1.64,3.13-5.16Z"/><path class="e5097e30-3625-4e42-b54d-9b6341185c80" d="M458,120.54l6.39,1.53-2.85,5.37-.08,7.78-3.62.77-1.41-5.82Z"/><path class="e5097e30-3625-4e42-b54d-9b6341185c80" d="M461.49,135.22l.08-7.78,2.85-5.37L458,120.54l-.81-3.57,3.47-2.2,14.68,1,11.86,2.88-5.25,4.5-1.66,7-5.62,6.42-8.09,2.23Z"/><path class="e5097e30-3625-4e42-b54d-9b6341185c80" d="M465.85,84.48l-1.52,4.72-7.4,1.31,2-3.1-1-2.93,5-3.71-.13,3.14Z"/><path class="e5097e30-3625-4e42-b54d-9b6341185c80" d="M912.46,315.1l2.45,3.35-6.17-6.35Z"/><path class="e5097e30-3625-4e42-b54d-9b6341185c80" d="M904,274.68l.61,1.62-4.17-3.42Z"/><path class="e5097e30-3625-4e42-b54d-9b6341185c80" d="M914.56,373.92,910,377.67h-3.32l3.06-2.56-1.68-2.9,5.94-6.58-.37-8.84,3.24,9.35,6.09.43Zm-24.48,10.7,13.67-9.42,1.89,2.64-8,7.71-4.7,1.19-5.55,5.05-4.6,2.18-5.39-1.26Z"/><path class="e5097e30-3625-4e42-b54d-9b6341185c80" d="M841.57,376.22l-3.39,7.3-5.15,1.1,1.54-8.74Zm-42.15-26.56-8.14,5.16-9.52.26-5.87,3.34-6.66-2.66,4-6.18-1-18.84,2.17.52,1.4-11.87,20.27-8.67,15.59-16.8,3.77-1.28,6.32,3.51,3.67-7.53,5.34-1.29-.19-3,10.65,2.22-4,9.68,10.89,8.39,9.58-21.74,2,12,3.57,1.37.23,12.25,8.63,10.73,2.88,8.85-1.14,8.86-5.92,10.93L852.63,365.8l-11.6,5-1.45-3.51-4.93,2.83-6.09-2.48,0-5.83-3-1.63,1.78-3.78-4.54,2.75,5.4-7.39-7,6.19-1.56-7.05-6.2-3.43Z"/><path class="e5097e30-3625-4e42-b54d-9b6341185c80" d="M697.31,226.85l-3.63,4.78-1.17-11.88Z"/><path class="e5097e30-3625-4e42-b54d-9b6341185c80" d="M767.13,193.81l-2.83-3.6,5.3-2.15Zm-92-74.72.67-2.54L672,111.23l5.41-1.86-.19-5.45,5,1,2.68-6.67.8-.25,10.48,7.25,1.75,4.87,11.7,3.12,4.2,4.66,22.32,3.48,11.66-3.91,2.24-2.71-1.74-4.13,16.28-4.79-5.88-4.18-5,1.08-1.19-6.48,5.75-.74-1.47-9.26,5.48-.57,6.68,2,9.39,8.95,4.66,1,6.67,4.9,8.36-2,1.09,10-4.63.51,3,7.86-2.43-1.78L793,121.81l-3.73-1.1-3.74,5.79-6.63,3.16.74-4.7-2-1.62-7.3,6.83,7.28,4.88,2-2.23,5.37,2.91L778.81,142l10.37,10-.61,3.18,3,2.58-4.39,16.43-5.92,5.5-12.4,4.29-.28,3.26-2.16-3.26-4.87-.51-8.17-5.59-7.64,2.75-.16,4-1.81-.86-5.47-2.06-2.56-6-2.65.51.39-11.26-4-2.32-2.82-.43-1.09-3.27-10.15,5.24-4.71-1.63-2.41,3.1-2.12-1.81-19.41-7.14-6.91-4.13-1.5-8.76-3.51-3.61-7.89-5.06-.63-.85L661.47,128Z"/><path class="e5097e30-3625-4e42-b54d-9b6341185c80" d="M795.31,174.66l-.93,7.48-2.75-4.9,2.2-5.41Z"/><path class="e5097e30-3625-4e42-b54d-9b6341185c80" d="M504.86,105.26l8,1.17.46,2.78-3.83.58.81,4,15,12-3.91-.77.7,4.7L520,132.48l-2.12-6.32-10.63-7.07-2.57-4.83-6.65.68-1.63-7Zm11.7,26.79,1.88-.34-.81,5-6.8-3.08Zm-15.22-8.54,2.75,1.28-2.35,4.87Z"/><path class="e5097e30-3625-4e42-b54d-9b6341185c80" d="M502.41,81.25l-3.17.08L498.43,76l5.07-2.62,1,3.65ZM507.77,78l-.42,3.77-2.41-1.61Z"/><path class="e5097e30-3625-4e42-b54d-9b6341185c80" d="M465.85,84.48l-3.08-.57.13-3.14,4.27,1.69Zm7,1.38-6.67-9.81,2.71-5.31h4.4l-2.41,3.08,4.73-.39L473,78.36l10.87,9.45-.55,4.26-16.84,3.38,5.62-3.79L467.84,90l2.47-.9-.8-3.5Z"/><path class="e5097e30-3625-4e42-b54d-9b6341185c80" d="M450,49.19l1.53,3.58-11.13,4.45-8.48-1.29,2.24-1.21-4.36-1.35,3.75-1.28-4.25-.67Z"/><path class="e5097e30-3625-4e42-b54d-9b6341185c80" d="M593.07,120.54l3.81,2.21,1.5-2,5.33,4.76-2.76,6-2.62-3.84-3.49,2.47-5-7.59,3.82.51Z"/><path class="e5097e30-3625-4e42-b54d-9b6341185c80" d="M576.6,115.79l16.47,4.75.62,2.46-3.82-.51-3.26.43-5.2-1.36-.73-3.4Z"/><path class="e5097e30-3625-4e42-b54d-9b6341185c80" d="M799.49,210.86l-1.66-2.4,3.31,1.2-.34,2.74Zm5.54,8.38,3.55-3.85-2.15,6.76ZM815.52,224l-2,8.8-5.22-7L804,227.87l3.82-4.7,5.23-.85-.34-2.4Zm-21.12-2.74-3.26,2.91,5.34-9.24Zm6.4-27.57.38,12.09,6.08,1.71.84,3.85-9.64-4.11-2.59-4.79.54-9.6Zm2.3,21.07,2.87-.51-2.66,3.51Zm9-2.31,1.08,3.42-2.12-.77-.17,3.6-2.2-7.45Z"/><path class="e5097e30-3625-4e42-b54d-9b6341185c80" d="M746.09,230.09l2.94,2.4,2.53-1.63L757.68,246,750,241.45Zm47.74,7.18-5.46-.51-5.19,9.48-8.83,1.36L772,243.85l4.09.42,7.8-8.2,3.08.6.07-3.5,4.26-4.53,5.71,4.7Z"/><path class="e5097e30-3625-4e42-b54d-9b6341185c80" d="M787.08,233.17l-.07,3.5-3.08-.6Z"/><path class="e5097e30-3625-4e42-b54d-9b6341185c80" d="M512.91,106.43l5.6-1.08.88,1.08-6.61,3,.59-.25Z"/><path class="e5097e30-3625-4e42-b54d-9b6341185c80" d="M537.82,42.3l3.58,3.57-1.52,2,3,3,.84,6.16,3.52,1.83L541,65.51,530,67.3l-3.74-2.41-.44-6.84,7.38-5.28-3.5-2.39-1.61-5.17-6.35-3.06,8.56,1.23,5.26-4,2.76,1Z"/><path class="e5097e30-3625-4e42-b54d-9b6341185c80" d="M532.9,98.68l-.9,2-12,.83-.11-1.41,4.18-2.66Z"/><path class="e5097e30-3625-4e42-b54d-9b6341185c80" d="M514.81,92.64l9.3,4.79-4.18,2.66L512,99.26l-3.43-4.14Z"/><path class="e5097e30-3625-4e42-b54d-9b6341185c80" d="M576.05,205.55l.76-7.88,4-3.17,2.57,6.34,10.58,10-1.9.42-6.45-6.07Z"/><path class="e5097e30-3625-4e42-b54d-9b6341185c80" d="M829.91,128.8l1.63,12.51-9.14,5.15L819.23,143l-9.43,2.15,3.33,2.32.27,5.24-2.89.09-4-5.85,5.48-6.61,7.56-.26.31-5.48,2.23,1.45,3.15-4.28L823,122.58l2.33-.51Zm-1-14.62,1-1.35,2.49,3.47-10.76,5.17-1.85-12.18Zm-15.15,32.28,2.8-2.75,2.92,1.72-3.21,3.44Z"/><path class="e5097e30-3625-4e42-b54d-9b6341185c80" d="M328,312.27l1.26,5.92,5.62.86,1.52,5,3,.18-.29,5.33-2.12,5.07-7.64-.77,1.42-6.11-13.85-9,1.47-8.07,6.93-.86Z"/><path class="e5097e30-3625-4e42-b54d-9b6341185c80" d="M616.23,191.32l3.46,7.29L596.86,211.2l-2.68-2-1.62-9.68,1.35-3.77,9.61,1.89,5.23-5.15Z"/><path class="e5097e30-3625-4e42-b54d-9b6341185c80" d="M569.33,159.27l6.33-2.06,1-1.55-2.79-3.1,5.4-2.06,15,9.29,4.82.25,4.87,1.73,7.53,11.78,1.47.34.68,1.2,1.49,3.87,8.38.95.25,8.32-7.53,3.09-7.48,1.2-5.23,5.15-9.61-1.89-1.35,3.77L582,184.29l-2.2-7.48-11-13.58Z"/><path class="e5097e30-3625-4e42-b54d-9b6341185c80" d="M562.08,141.31l4.41-1.63-1.3,1.88Z"/><path class="e5097e30-3625-4e42-b54d-9b6341185c80" d="M562.08,141.31l3.11.25L562.78,143Z"/><path class="e5097e30-3625-4e42-b54d-9b6341185c80" d="M474.56,141.22l2.1,9L457.8,160.82l-.08,3.7-7.05,2.41-9.13,16.67-5.89.26,7.19-15,12.75-11.44,2.52-10.31,7.11-7.73Z"/><path class="e5097e30-3625-4e42-b54d-9b6341185c80" d="M576,182.05H545.11l-1.22-29.66,23.19,1,1.81,4.56-1.74,6.54L562.49,158Z"/><path class="e5097e30-3625-4e42-b54d-9b6341185c80" d="M545.11,182.05l.27,6.18-3.07,1.29-21.14-11.85-2.6,1.72-7.45-1.89-7.1-8.17.14-13.07,4.83-8.77,19.67,8.94,4-7.56,11.2,3.52Z"/><path class="e5097e30-3625-4e42-b54d-9b6341185c80" d="M607,225.31l-7.35,9.31L591.41,238l-9.95.94L573.91,233l-6.35-7,2.65-2.73,5.84-17.71,9.52-.34,6.45,6.07-1.39,4.62,2.72.43,2.56,5.39Z"/><path class="e5097e30-3625-4e42-b54d-9b6341185c80" d="M592,211.28l1.9-.42.27,3.76-.84,1.71-2.72-.43Z"/><path class="e5097e30-3625-4e42-b54d-9b6341185c80" d="M609.62,214.79l.25,6.07-2.9,4.45-11.06-3.59-2.56-5.39.84-1.71,2.71,3.17Z"/><path class="e5097e30-3625-4e42-b54d-9b6341185c80" d="M570.3,252.9l-9.29.59-2.27.6L563,243.25l-.93-4.1,8.35-2.22,2.9,7.17Z"/><path class="e5097e30-3625-4e42-b54d-9b6341185c80" d="M561,253.49l.09,3.93-3.86,1.37,1.5-4.7Z"/><path class="e5097e30-3625-4e42-b54d-9b6341185c80" d="M525,118.16l-7.22-6.6,7.85-.17.82,4.06Z"/><path class="e5097e30-3625-4e42-b54d-9b6341185c80" d="M534.4,119.18l1.7,3-4.66,1.53-1.27-3.06,2.29-1.19Z"/><path class="e5097e30-3625-4e42-b54d-9b6341185c80" d="M525,108.2l3.19-.67,6.42,5.81-.21,5.84-1.94.25-2.12-3.22-1.23,1.44-2.64-2.2-.82-4.06Z"/><path class="e5097e30-3625-4e42-b54d-9b6341185c80" d="M528.75,118.33l-1.6,2.21-2.3-1.87.17-.51,1.45-2.71,2.64,2.2Z"/><path class="e5097e30-3625-4e42-b54d-9b6341185c80" d="M530.17,120.62l-1.42-2.29.36-.68,1.23-1.44,2.12,3.22Z"/><path class="e5097e30-3625-4e42-b54d-9b6341185c80" d="M316.59,216.85l1.82,2-2.71.09Z"/><path class="e5097e30-3625-4e42-b54d-9b6341185c80" d="M562.1,239.15l-9.23-5.3-7.59-9.22-1.82-1.2,2.95-5.13,4.56,2.48,12.16-1,3.51-7.52,3.57,11L567.56,226l6.35,7-3.46,3.93Z"/><path class="e5097e30-3625-4e42-b54d-9b6341185c80" d="M610.36,169.08l.13,1.2-.45-1.12Z"/><path class="e5097e30-3625-4e42-b54d-9b6341185c80" d="M317,212.31l0,.51-.46.18Z"/><path class="e5097e30-3625-4e42-b54d-9b6341185c80" d="M318.38,209.49l-.33-.26.26-.51Z"/><path class="e5097e30-3625-4e42-b54d-9b6341185c80" d="M317.38,197.41l.14-.43.42.35Z"/><path class="e5097e30-3625-4e42-b54d-9b6341185c80" d="M318.26,203.07l-.12-1.29.52.51Z"/><path class="e5097e30-3625-4e42-b54d-9b6341185c80" d="M315.42,196.73v.17l-.51-.6Z"/><path class="e5097e30-3625-4e42-b54d-9b6341185c80" d="M323,209.4l-.58.26,0-.77Z"/><path class="e5097e30-3625-4e42-b54d-9b6341185c80" d="M319.23,206.75l-.17.94-.31-.51Z"/></svg>