<svg id="fdc5bd3d-9e1d-4a25-bc76-cb234d18f071" data-name="Layer 1" xmlns="http://www.w3.org/2000/svg" width="16" height="16" viewBox="0 0 16 16"><title>full-screen-close</title><circle cx="8" cy="8" r="7.5" style="fill:#f8f8f8"/><path d="M8,1A7,7,0,1,1,1,8,7,7,0,0,1,8,1M8,0a8,8,0,1,0,8,8A8,8,0,0,0,8,0Z" style="fill:#333"/><polyline points="6.55 4.5 6.55 6.55 4.5 6.55" style="fill:none;stroke:#333;stroke-miterlimit:10"/><polyline points="4.5 9.45 6.55 9.45 6.55 11.5" style="fill:none;stroke:#333;stroke-miterlimit:10"/><polyline points="9.45 11.5 9.45 9.45 11.5 9.45" style="fill:none;stroke:#333;stroke-miterlimit:10"/><polyline points="11.5 6.55 9.45 6.55 9.45 4.5" style="fill:none;stroke:#333;stroke-miterlimit:10"/></svg>