<svg id="e958a221-0a5b-4c5e-9372-a8b7d0f6496b" data-name="Layer 1" xmlns="http://www.w3.org/2000/svg" width="16" height="16" viewBox="0 0 16 16"><title>getting-started</title><path d="M12.83,9.29,15.43,9a6.89,6.89,0,0,0,0-2h0l-2.6-.31h0a5.64,5.64,0,0,0-.21-.62,4,4,0,0,0-.29-.59L14,3.44a7.62,7.62,0,0,0-1.39-1.39L10.5,3.67a4,4,0,0,0-.59-.29,5.64,5.64,0,0,0-.62-.21L9,.57a6.9,6.9,0,0,0-2,0l-.31,2.6a5.64,5.64,0,0,0-.62.21,4,4,0,0,0-.59.29L3.44,2.05A7.62,7.62,0,0,0,2.05,3.44L3.67,5.5a4,4,0,0,0-.29.59,5.64,5.64,0,0,0-.21.62h0L.57,7h0a6.9,6.9,0,0,0,0,2h0l2.6.31h0a5.64,5.64,0,0,0,.21.62,4,4,0,0,0,.29.59L2.05,12.56A7.62,7.62,0,0,0,3.44,14L5.5,12.33a4,4,0,0,0,.59.29,5.64,5.64,0,0,0,.62.21L7,15.43a6.89,6.89,0,0,0,2,0l.31-2.6a5.64,5.64,0,0,0,.62-.21,4,4,0,0,0,.59-.29L12.56,14A7.62,7.62,0,0,0,14,12.56L12.33,10.5a4,4,0,0,0,.29-.59A5.64,5.64,0,0,0,12.83,9.29ZM8,10.5A2.5,2.5,0,1,1,10.5,8,2.5,2.5,0,0,1,8,10.5Z" style="fill:#333"/></svg>