<svg id="b2d03854-60bd-4c68-adb9-2cc34a9afaff" data-name="Layer 1" xmlns="http://www.w3.org/2000/svg" width="16" height="16" viewBox="0 0 16 16"><title>github</title><path d="M8,.2A8,8,0,0,0,5.47,15.79c.4.07.55-.17.55-.38s0-.82,0-1.49c-2,.37-2.53-.49-2.69-.94a2.91,2.91,0,0,0-.82-1.13c-.28-.15-.68-.52,0-.53a1.6,1.6,0,0,1,1.23.82,1.71,1.71,0,0,0,2.33.66,1.68,1.68,0,0,1,.51-1.07c-1.78-.2-3.64-.89-3.64-3.95a3.11,3.11,0,0,1,.82-2.15,2.87,2.87,0,0,1,.08-2.12s.67-.21,2.2.82a7.54,7.54,0,0,1,4,0c1.53-1,2.2-.82,2.2-.82a2.87,2.87,0,0,1,.08,2.12,3.1,3.1,0,0,1,.82,2.15c0,3.07-1.87,3.75-3.65,4A1.89,1.89,0,0,1,10,13.21c0,1.07,0,1.93,0,2.2s.15.46.55.38A8,8,0,0,0,8,.2Z" style="fill:#333;fill-rule:evenodd"/></svg>