<svg id="a324bee6-9057-4528-9e0a-ac85b07f7b5b" data-name="Layer 1" xmlns="http://www.w3.org/2000/svg" width="16" height="16" viewBox="0 0 16 16"><title>instagram</title><path d="M7.84,0C5.67,0,5.4,0,4.54.05A5.85,5.85,0,0,0,2.6.42,4,4,0,0,0,.26,2.76,5.85,5.85,0,0,0-.11,4.7c0,.86,0,1.13,0,3.3s0,2.44.05,3.3a5.85,5.85,0,0,0,.37,1.94A4,4,0,0,0,2.6,15.58,5.85,5.85,0,0,0,4.54,16c.86,0,1.13.05,3.3.05s2.45,0,3.3-.05a5.85,5.85,0,0,0,1.94-.37,4,4,0,0,0,2.34-2.34,5.85,5.85,0,0,0,.37-1.94c0-.86.05-1.13.05-3.3s0-2.44-.05-3.3a5.85,5.85,0,0,0-.37-1.94A4,4,0,0,0,13.08.42,5.85,5.85,0,0,0,11.14.05C10.29,0,10,0,7.84,0Zm0,1.44c2.14,0,2.39,0,3.23.05a4.33,4.33,0,0,1,1.49.27,2.67,2.67,0,0,1,1.52,1.52,4.33,4.33,0,0,1,.27,1.49c0,.84.05,1.09.05,3.23s0,2.39-.05,3.23a4.52,4.52,0,0,1-.28,1.49,2.67,2.67,0,0,1-1.52,1.52,4.33,4.33,0,0,1-1.49.27c-.85,0-1.1.05-3.24.05s-2.39,0-3.24-.05a4.52,4.52,0,0,1-1.49-.28,2.49,2.49,0,0,1-.92-.6,2.45,2.45,0,0,1-.6-.92,4.52,4.52,0,0,1-.28-1.49c0-.84,0-1.1,0-3.23s0-2.39,0-3.24a4.52,4.52,0,0,1,.28-1.49,2.37,2.37,0,0,1,.6-.92,2.37,2.37,0,0,1,.92-.6,4.44,4.44,0,0,1,1.48-.28c.85,0,1.1,0,3.24,0Zm0,2.45A4.11,4.11,0,1,0,12,8,4.11,4.11,0,0,0,7.84,3.89Zm0,6.78A2.67,2.67,0,1,1,10.51,8,2.68,2.68,0,0,1,7.84,10.67Zm5.23-6.94a1,1,0,1,1-1-1A1,1,0,0,1,13.07,3.73Z" style="fill:#333"/></svg>