<svg id="e42b05d7-bbd0-4052-a984-e013a8e1e060" data-name="Layer 1" xmlns="http://www.w3.org/2000/svg" width="16" height="16" viewBox="0 0 16 16"><title>tree-structure</title><circle cx="3" cy="8" r="2.5" style="fill:#ddd"/><path d="M3,6A2,2,0,1,1,1,8,2,2,0,0,1,3,6M3,5A3,3,0,1,0,6,8,3,3,0,0,0,3,5Z" style="fill:#333"/><circle cx="13" cy="3" r="2.5" style="fill:#ddd"/><path d="M13,1a2,2,0,1,1-2,2,2,2,0,0,1,2-2m0-1a3,3,0,1,0,3,3,3,3,0,0,0-3-3Z" style="fill:#333"/><circle cx="13" cy="13" r="2.5" style="fill:#ddd"/><path d="M13,11a2,2,0,1,1-2,2,2,2,0,0,1,2-2m0-1a3,3,0,1,0,3,3,3,3,0,0,0-3-3Z" style="fill:#333"/><line x1="5.68" y1="6.66" x2="10.32" y2="4.34" style="fill:#ddd;stroke:#333;stroke-miterlimit:10"/><line x1="5.68" y1="9.34" x2="10.32" y2="11.66" style="fill:#ddd;stroke:#333;stroke-miterlimit:10"/></svg>