<svg id="a7c00788-1728-4335-9d67-6ecdf1c05cd9" data-name="f3010e07-cc1f-4ef1-8fde-5f843801d9a6" xmlns="http://www.w3.org/2000/svg" width="100" height="72" viewBox="0 0 100 72"><defs><style>.ab1c3c86-52bb-4f36-9d7f-53c0f2189d26,.ac79219c-83e4-4344-964a-61a3d5b62db2{fill:#ddd;}.a0c66b6a-8219-419a-8952-dc860d9a2eba{fill:#333;}.a49f78f1-bddb-4d76-a9c2-d4fe909e5090,.ac79219c-83e4-4344-964a-61a3d5b62db2,.b275d857-2ee7-4ce6-9f60-bbbad199bead{stroke:#333;stroke-miterlimit:10;}.a49f78f1-bddb-4d76-a9c2-d4fe909e5090,.b275d857-2ee7-4ce6-9f60-bbbad199bead{fill:none;}.b275d857-2ee7-4ce6-9f60-bbbad199bead{stroke-linecap:round;}</style></defs><title>Artboard 1 copy</title><rect class="ab1c3c86-52bb-4f36-9d7f-53c0f2189d26" x="13.84" y="10.68" width="15" height="11"/><path class="a0c66b6a-8219-419a-8952-dc860d9a2eba" d="M28.34,11.18v10h-14v-10h14m1-1h-16v12h16Z"/><ellipse class="ac79219c-83e4-4344-964a-61a3d5b62db2" cx="41.95" cy="16.18" rx="7.5" ry="5.5"/><line class="b275d857-2ee7-4ce6-9f60-bbbad199bead" x1="54.55" y1="22.18" x2="66.55" y2="10.18"/><path class="a0c66b6a-8219-419a-8952-dc860d9a2eba" d="M78.66,47.32a7,7,0,1,0,7,7A7,7,0,0,0,78.66,47.32Zm0,12.83V48.49a5.83,5.83,0,0,1,0,11.66Z"/><path class="a0c66b6a-8219-419a-8952-dc860d9a2eba" d="M28.34,49.32v10h-14v-10h14m1-1h-16v12h16Z"/><polyline class="a49f78f1-bddb-4d76-a9c2-d4fe909e5090" points="29.34 54.32 21.34 54.32 13.34 54.32"/><polyline class="a49f78f1-bddb-4d76-a9c2-d4fe909e5090" points="21.34 60.32 21.34 54.32 21.34 48.32"/><path class="a49f78f1-bddb-4d76-a9c2-d4fe909e5090" d="M13.84,60.32s-.5-6,7.5-6,7.5-6,7.5-6"/><path class="b275d857-2ee7-4ce6-9f60-bbbad199bead" d="M72.66,22.18l.69-.12A13.92,13.92,0,0,0,84.66,10.18h0"/><circle class="ab1c3c86-52bb-4f36-9d7f-53c0f2189d26" cx="37.59" cy="54.32" r="2.34"/><path class="a0c66b6a-8219-419a-8952-dc860d9a2eba" d="M37.59,52.44a1.88,1.88,0,1,1-1.88,1.88,1.88,1.88,0,0,1,1.88-1.88m0-.94a2.82,2.82,0,1,0,2.81,2.82A2.82,2.82,0,0,0,37.59,51.5Z"/><circle class="ab1c3c86-52bb-4f36-9d7f-53c0f2189d26" cx="46.96" cy="49.63" r="2.34"/><path class="a0c66b6a-8219-419a-8952-dc860d9a2eba" d="M47,47.75a1.88,1.88,0,1,1-1.87,1.88A1.88,1.88,0,0,1,47,47.75m0-.93a2.81,2.81,0,1,0,2.81,2.81A2.81,2.81,0,0,0,47,46.82Z"/><circle class="ab1c3c86-52bb-4f36-9d7f-53c0f2189d26" cx="46.96" cy="59" r="2.34"/><path class="a0c66b6a-8219-419a-8952-dc860d9a2eba" d="M47,57.13A1.88,1.88,0,1,1,45.09,59,1.88,1.88,0,0,1,47,57.13m0-.94A2.82,2.82,0,1,0,49.77,59,2.81,2.81,0,0,0,47,56.19Z"/><line class="a49f78f1-bddb-4d76-a9c2-d4fe909e5090" x1="40.1" y1="53.06" x2="44.45" y2="50.89"/><line class="a49f78f1-bddb-4d76-a9c2-d4fe909e5090" x1="40.1" y1="55.57" x2="44.45" y2="57.75"/><polygon class="a0c66b6a-8219-419a-8952-dc860d9a2eba" points="55.25 48.03 55.21 60.6 65.23 60.6 65.09 51.04 61.14 50.94 61.06 48.03 55.25 48.03"/><circle class="a0c66b6a-8219-419a-8952-dc860d9a2eba" cx="42.27" cy="34.75" r="2.31"/><path class="a0c66b6a-8219-419a-8952-dc860d9a2eba" d="M42.27,28.19a6.56,6.56,0,1,1-6.56,6.56,6.57,6.57,0,0,1,6.56-6.56m0-.94a7.5,7.5,0,1,0,7.5,7.5A7.5,7.5,0,0,0,42.27,27.25Z"/><polygon class="a0c66b6a-8219-419a-8952-dc860d9a2eba" points="58.29 42.11 55.64 40.52 58.62 35.54 55.32 33.56 64.78 28.11 64.76 39.21 61.27 37.13 58.29 42.11"/><path class="a0c66b6a-8219-419a-8952-dc860d9a2eba" d="M14.27,42.73c-.1-.1-.15-.17-.15-.23a1.55,1.55,0,0,1,.08-.36.77.77,0,0,1,.16-.31v-.06h.3a2.5,2.5,0,0,0,2.13-1c.09-.08,1.36-2.22,3.81-6.4S24.36,28,24.36,28a.41.41,0,0,1,.19-.22,1.93,1.93,0,0,1,.48,0h.33a2.39,2.39,0,0,1,.13.21l.58,6.77c.4,4.51.6,6.78.63,6.83a2.9,2.9,0,0,0,1.36.23h.3a.3.3,0,0,1,.15.05.27.27,0,0,1,0,.15,2.46,2.46,0,0,1-.07.29,1.6,1.6,0,0,1-.11.39.66.66,0,0,1-.28.07H22.67a.49.49,0,0,1-.14-.18,2.5,2.5,0,0,1,.06-.38,1.06,1.06,0,0,1,.12-.34l.08-.06h.42c.76,0,1.2-.15,1.34-.36l-.25-3.2H19.36l-.71,1.21a12.25,12.25,0,0,0-.78,1.36.72.72,0,0,0-.08.32c0,.35.32.55,1,.61.26,0,.4.07.4.21a1.36,1.36,0,0,1-.06.29,1.71,1.71,0,0,1-.13.38.38.38,0,0,1-.27.08H14.46Zm9.93-5.45c0-.15-.09-1.24-.26-3.26s-.27-3-.29-3.06l-.56.9c-.23.37-.67,1.12-1.32,2.24l-1.89,3.18H22Q24.2,37.31,24.2,37.28Z"/><path class="a0c66b6a-8219-419a-8952-dc860d9a2eba" d="M79.16,28.69a6.56,6.56,0,1,1-6.56,6.56,6.56,6.56,0,0,1,6.56-6.56m0-.94a7.5,7.5,0,1,0,7.5,7.5A7.5,7.5,0,0,0,79.16,27.75Z"/><polygon class="a0c66b6a-8219-419a-8952-dc860d9a2eba" points="83.78 35.25 76.85 31.25 76.85 39.25 83.78 35.25"/></svg>