<?xml version="1.0" encoding="utf-8"?>
<!-- Generator: Adobe Illustrator 23.0.4, SVG Export Plug-In . SVG Version: 6.00 Build 0)  -->
<svg version="1.1" id="interactive-0" xmlns="http://www.w3.org/2000/svg" xmlns:xlink="http://www.w3.org/1999/xlink" x="0px"
	 y="0px" viewBox="0 0 600 300" style="enable-background:new 0 0 600 300;" xml:space="preserve">
<style type="text/css">
	.st0{fill:none;stroke:#404040;}
	.st1{fill:#333333;}
	.st2{font-family:'HelveticaNeue';}
	.st3{font-size:12px;}
	.st4{fill:#800080;}
	.st5{fill:#AB6F00;}
	.st6{fill:#0366EE;}
	.st7{fill-opacity:0;}
</style>
<g>
	<rect id="rectangle-1" x="150" y="100" class="st0" width="300" height="100"/>
	<text transform="matrix(1 0 0 1 25 275)" class="st1 st2 st3">&lt;</text>
	<text transform="matrix(1 0 0 1 32.1999 275)" class="st4 st2 st3">rect</text>
	<text transform="matrix(1 0 0 1 52.6475 275)" class="st1 st2 st3"> </text>
	<text transform="matrix(1 0 0 1 55.9835 275)" class="st5 st2 st3">x</text>
	<text transform="matrix(1 0 0 1 62.1993 275)" class="st1 st2 st3">=&quot;150 </text>
	<text transform="matrix(1 0 0 1 97.8632 275)" class="st5 st2 st3">y</text>
	<text transform="matrix(1 0 0 1 103.8632 275)" class="st1 st2 st3">=&quot;100 </text>
	<text transform="matrix(1 0 0 1 139.527 275)" class="st5 st2 st3">width</text>
	<text transform="matrix(1 0 0 1 168.8544 275)" class="st1 st2 st3">=&quot;300 </text>
	<text transform="matrix(1 0 0 1 204.5182 275)" class="st5 st2 st3">height</text>
	<text transform="matrix(1 0 0 1 237.6376 275)" class="st1 st2 st3">=&quot;100&quot;&gt;</text>
</g>
<g>
	<g id="control-2" transform="translate( 150, 100)">
		<circle class="st6" cx="0" cy="0" r="4"/>
		<circle class="st7" cx="0" cy="0" r="13"/>
	</g>
	<g id="control-3" transform="translate( 450, 200)">
		<circle class="st6" cx="0" cy="0" r="4"/>
		<circle class="st7" cx="0" cy="0" r="13"/>
	</g>
</g>
</svg>
