<?xml version="1.0" encoding="utf-8"?>
<!-- Generator: Adobe Illustrator 23.0.4, SVG Export Plug-In . SVG Version: 6.00 Build 0)  -->
<svg version="1.1" id="interactive-72" xmlns="http://www.w3.org/2000/svg" xmlns:xlink="http://www.w3.org/1999/xlink" x="0px"
	 y="0px" viewBox="0 0 600 300" style="enable-background:new 0 0 600 300;" xml:space="preserve">
<style type="text/css">
	.st0{fill:#F8F8F8;stroke:#404040;}
	.st1{fill:none;stroke:#404040;}
	.st2{fill:#404040;}
	.st3{fill:#333333;stroke:#404040;}
	.st4{fill:none;stroke:#404040;stroke-dasharray:3;}
	.st5{fill:#333333;}
	.st6{fill:#0366EE;}
	.st7{fill-opacity:0;}
</style>
<title>svg-coordinate-system</title>
<rect id="rectangle-73" x="23" y="24" class="st0" width="554" height="252"/>
<g id="line-74">
	<g>
		<line class="st1" x1="23" y1="24" x2="567.7" y2="24"/>
		<g>
			<polygon class="st2" points="565.8,30.5 577,24 565.8,17.5 			"/>
		</g>
	</g>
</g>
<g id="line-75">
	<g>
		<line class="st1" x1="23" y1="24" x2="23" y2="266.7"/>
		<g>
			<polygon class="st2" points="16.5,264.8 23,276 29.5,264.8 			"/>
		</g>
	</g>
</g>
<circle id="circle-76" class="st3" cx="23" cy="24" r="3"/>
<line id="line-78" class="st4" x1="23" y1="124" x2="123" y2="124"/>
<line id="line-79" class="st4" x1="123" y1="24" x2="123" y2="124"/>
<g id="text-82">
	<path class="st5" d="M139.7,140c-0.2-0.4-0.4-0.9-0.6-1.4c-0.2-0.5-0.3-0.9-0.4-1.4c-0.1-0.5-0.1-1-0.1-1.5c0-1,0.2-1.9,0.5-2.9
		c0.3-1,0.8-1.9,1.4-2.7h0.8c-0.5,0.8-1,1.7-1.2,2.7c-0.2,0.9-0.4,1.9-0.4,2.8c0,1,0.1,1.9,0.4,2.9c0.3,1,0.7,1.9,1.2,2.7h-0.8
		C140.2,140.9,139.9,140.5,139.7,140z"/>
	<path class="st5" d="M147.7,139v-6.1h-2.2v-0.8c0.3,0,0.6,0,0.8-0.1c0.3,0,0.5-0.1,0.7-0.2c0.2-0.1,0.4-0.3,0.6-0.5
		c0.2-0.2,0.3-0.5,0.3-0.8h0.8v8.5H147.7z"/>
	<path class="st5" d="M151.6,133.9c0-0.3,0.1-0.7,0.1-1c0.1-0.3,0.1-0.6,0.2-0.9c0.1-0.3,0.3-0.5,0.5-0.8c0.2-0.2,0.5-0.4,0.8-0.5
		c0.4-0.1,0.7-0.2,1.1-0.2c0.4,0,0.8,0.1,1.1,0.2c0.3,0.1,0.6,0.3,0.8,0.5c0.2,0.2,0.4,0.5,0.5,0.8c0.1,0.3,0.2,0.6,0.3,0.9
		c0.1,0.3,0.1,0.7,0.1,1c0,0.3,0,0.7,0,1s0,0.6,0,1c0,0.3-0.1,0.7-0.1,1c-0.1,0.3-0.2,0.6-0.3,0.9c-0.1,0.3-0.3,0.5-0.5,0.8
		c-0.2,0.2-0.5,0.4-0.8,0.5c-0.7,0.2-1.5,0.2-2.3,0c-0.3-0.1-0.6-0.3-0.8-0.5c-0.2-0.2-0.4-0.5-0.5-0.8c-0.1-0.3-0.2-0.6-0.3-0.9
		c-0.1-0.3-0.1-0.7-0.1-1c0-0.3,0-0.7,0-1S151.6,134.2,151.6,133.9z M152.7,135.9c0,0.4,0.1,0.7,0.2,1.1c0.1,0.3,0.3,0.6,0.5,0.9
		c0.6,0.5,1.4,0.5,2,0c0.3-0.2,0.4-0.5,0.6-0.8c0.1-0.4,0.2-0.7,0.2-1.1c0-0.4,0-0.8,0-1.1v-0.7c0-0.2,0-0.5-0.1-0.8
		c0-0.2-0.1-0.5-0.2-0.7c-0.1-0.2-0.2-0.4-0.3-0.6c-0.1-0.2-0.3-0.3-0.5-0.4c-0.5-0.2-1-0.2-1.5,0c-0.2,0.1-0.4,0.3-0.5,0.4
		c-0.1,0.2-0.2,0.4-0.3,0.6c-0.1,0.2-0.1,0.5-0.1,0.7c0,0.2-0.1,0.5-0.1,0.8c0,0.2,0,0.5,0,0.7S152.7,135.5,152.7,135.9L152.7,135.9
		z"/>
	<path class="st5" d="M158.3,133.9c0-0.3,0-0.7,0.1-1c0.1-0.3,0.1-0.6,0.3-0.9c0.1-0.3,0.3-0.5,0.5-0.8c0.2-0.2,0.5-0.4,0.8-0.5
		c0.4-0.1,0.7-0.2,1.1-0.2c0.4,0,0.8,0.1,1.1,0.2c0.3,0.1,0.6,0.3,0.8,0.5c0.2,0.2,0.4,0.5,0.5,0.8c0.1,0.3,0.2,0.6,0.3,0.9
		c0.1,0.3,0.1,0.7,0.1,1c0,0.3,0,0.7,0,1s0,0.6,0,1c0,0.3,0,0.7-0.1,1c-0.1,0.3-0.1,0.6-0.3,0.9c-0.1,0.3-0.3,0.5-0.5,0.8
		c-0.2,0.2-0.5,0.4-0.8,0.5c-0.7,0.2-1.5,0.2-2.3,0c-0.3-0.1-0.6-0.3-0.8-0.5c-0.2-0.2-0.4-0.5-0.5-0.8c-0.1-0.3-0.2-0.6-0.3-0.9
		c-0.1-0.3-0.1-0.7-0.1-1c0-0.3,0-0.7,0-1S158.3,134.2,158.3,133.9z M159.4,135.9c0,0.4,0.1,0.7,0.2,1.1c0.1,0.3,0.3,0.6,0.5,0.9
		c0.6,0.5,1.4,0.5,2,0c0.2-0.2,0.4-0.5,0.5-0.9c0.1-0.4,0.2-0.7,0.2-1.1c0-0.4,0-0.8,0-1.1c0-0.2,0-0.4,0-0.7c0-0.3,0-0.5-0.1-0.8
		c0-0.2-0.1-0.5-0.2-0.7c-0.1-0.2-0.2-0.4-0.3-0.6c-0.1-0.2-0.3-0.3-0.5-0.4c-0.5-0.2-1-0.2-1.5,0c-0.2,0.1-0.4,0.3-0.5,0.4
		c-0.1,0.2-0.2,0.4-0.3,0.6c-0.1,0.2-0.1,0.5-0.1,0.7c0,0.2-0.1,0.5-0.1,0.8c0,0.2,0,0.5,0,0.7S159.4,135.5,159.4,135.9L159.4,135.9
		z"/>
	<path class="st5" d="M166.8,137.7v1.2c0,0.4-0.1,0.8-0.3,1.2c-0.2,0.3-0.6,0.6-1,0.7v-0.6c0.1,0,0.2-0.1,0.3-0.2
		c0.1-0.1,0.2-0.2,0.2-0.3c0.1-0.1,0.1-0.2,0.1-0.3c0-0.1,0-0.2,0-0.3h-0.7v-1.3L166.8,137.7z"/>
	<path class="st5" d="M174.4,139v-6.1h-2.2v-0.8c0.3,0,0.5,0,0.8-0.1c0.3,0,0.5-0.1,0.7-0.2c0.2-0.1,0.4-0.3,0.6-0.5
		c0.2-0.2,0.3-0.5,0.3-0.8h0.8v8.5H174.4z"/>
	<path class="st5" d="M178.3,133.9c0-0.3,0.1-0.7,0.1-1c0.1-0.3,0.2-0.6,0.3-0.9c0.1-0.3,0.3-0.5,0.5-0.8c0.2-0.2,0.5-0.4,0.8-0.5
		c0.7-0.3,1.5-0.3,2.3,0c0.3,0.1,0.6,0.3,0.8,0.5c0.2,0.2,0.4,0.5,0.5,0.8c0.1,0.3,0.2,0.6,0.3,0.9c0.1,0.3,0.1,0.7,0.1,1
		c0,0.3,0,0.7,0,1s0,0.6,0,1c0,0.3-0.1,0.7-0.1,1c-0.1,0.3-0.2,0.6-0.3,0.9c-0.1,0.3-0.3,0.5-0.5,0.8c-0.2,0.2-0.5,0.4-0.8,0.5
		c-0.7,0.2-1.5,0.2-2.3,0c-0.3-0.1-0.6-0.3-0.8-0.5c-0.2-0.2-0.4-0.5-0.5-0.8c-0.1-0.3-0.2-0.6-0.3-0.9c-0.1-0.3-0.1-0.7-0.1-1
		c0-0.3,0-0.7,0-1S178.3,134.2,178.3,133.9z M179.4,135.9c0,0.4,0.1,0.7,0.2,1.1c0.1,0.3,0.3,0.6,0.5,0.9c0.6,0.5,1.4,0.5,2,0
		c0.2-0.2,0.4-0.5,0.5-0.9c0.1-0.4,0.2-0.7,0.2-1.1c0-0.4,0-0.8,0-1.1v-0.7c0-0.2,0-0.5-0.1-0.8c0-0.2-0.1-0.5-0.2-0.7
		c-0.1-0.2-0.2-0.4-0.3-0.6c-0.1-0.2-0.3-0.3-0.5-0.4c-0.5-0.2-1-0.2-1.5,0c-0.2,0.1-0.4,0.3-0.5,0.4c-0.1,0.2-0.2,0.4-0.3,0.6
		c-0.1,0.2-0.1,0.5-0.2,0.7c0,0.3,0,0.5-0.1,0.8v0.7C179.4,135.1,179.4,135.5,179.4,135.9L179.4,135.9z"/>
	<path class="st5" d="M185,133.9c0-0.3,0.1-0.7,0.1-1c0.1-0.3,0.2-0.6,0.3-0.9c0.1-0.3,0.3-0.5,0.5-0.8c0.2-0.2,0.5-0.4,0.8-0.5
		c0.4-0.1,0.7-0.2,1.1-0.2c0.4,0,0.8,0.1,1.1,0.2c0.3,0.1,0.6,0.3,0.8,0.5c0.2,0.2,0.4,0.5,0.5,0.8c0.1,0.3,0.2,0.6,0.3,0.9
		c0.1,0.3,0.1,0.7,0.1,1c0,0.3,0,0.7,0,1s0,0.6,0,1c0,0.3-0.1,0.7-0.1,1c-0.1,0.3-0.2,0.6-0.3,0.9c-0.1,0.3-0.3,0.5-0.5,0.8
		c-0.2,0.2-0.5,0.4-0.8,0.5c-0.7,0.2-1.5,0.2-2.3,0c-0.3-0.1-0.6-0.3-0.8-0.5c-0.2-0.2-0.4-0.5-0.5-0.8c-0.1-0.3-0.2-0.6-0.3-0.9
		c-0.1-0.3-0.1-0.7-0.1-1c0-0.3,0-0.7,0-1S185,134.2,185,133.9z M186.1,135.9c0,0.4,0.1,0.7,0.2,1.1c0.1,0.3,0.3,0.6,0.5,0.9
		c0.6,0.5,1.4,0.5,2,0c0.2-0.2,0.4-0.5,0.5-0.9c0.1-0.4,0.2-0.7,0.2-1.1c0-0.4,0-0.8,0-1.1v-0.7c0-0.2,0-0.5-0.1-0.8
		c0-0.2-0.1-0.5-0.2-0.7c-0.1-0.2-0.2-0.4-0.3-0.6c-0.1-0.2-0.3-0.3-0.5-0.4c-0.5-0.2-1-0.2-1.5,0c-0.2,0.1-0.4,0.3-0.5,0.4
		c-0.1,0.2-0.2,0.4-0.3,0.6c-0.1,0.2-0.1,0.5-0.1,0.7c0,0.2-0.1,0.5-0.1,0.8c0,0.2,0,0.5,0,0.7S186.1,135.5,186.1,135.9L186.1,135.9
		z"/>
	<path class="st5" d="M192.2,138.7c0.2-0.9,0.4-1.9,0.4-2.8c0-1-0.1-1.9-0.4-2.9c-0.3-1-0.7-1.9-1.2-2.7h0.8
		c0.3,0.4,0.5,0.9,0.8,1.3c0.2,0.4,0.4,0.9,0.6,1.4c0.2,0.5,0.3,0.9,0.4,1.4c0.1,0.5,0.1,1,0.1,1.5c0,1-0.2,1.9-0.5,2.9
		c-0.3,1-0.8,1.9-1.4,2.7H191C191.6,140.5,192,139.6,192.2,138.7z"/>
</g>
<g id="control-77">
	<circle class="st6" cx="123" cy="124" r="4"/>
	<circle class="st7" cx="123" cy="124" r="13"/>
</g>
</svg>
