<svg xmlns="http://www.w3.org/2000/svg" width="600" height="150" viewBox="0 0 600 150"><defs><style>.a5796b18-ce10-4f57-a063-5452021bd270,.e42eac19-a3b1-4352-ac31-9f786a60cb7f{fill:none;}.e42eac19-a3b1-4352-ac31-9f786a60cb7f{stroke:#ddd;}.a5796b18-ce10-4f57-a063-5452021bd270{stroke:#404040;}</style></defs><title>trace-animation</title><g id="b52e183e-97bf-46bd-83d5-aa5b6f4850ca" data-name="Layer 1"><path class="e42eac19-a3b1-4352-ac31-9f786a60cb7f" d="M108.74,35.86H98.54l25.1,71.4h10.8l25.4-71.4h-9.9l-20.6,61.9h-.2l-20.4-61.9,51.31,33.3c-.18.43-.35.86-.51,1.3a31.14,31.14,0,0,0-1.8,10.8,41,41,0,0,0,1.75,10.9,23.63,23.63,0,0,0,4.65,8.6,21,21,0,0,0,7.65,5.6,26.58,26.58,0,0,0,10.75,2q8.79,0,14.6-4.4t7.5-13.1h-8.4a12.1,12.1,0,0,1-4.55,7.6,14.69,14.69,0,0,1-8.85,2.5,17.48,17.48,0,0,1-7.3-1.4,14.17,14.17,0,0,1-5.1-3.75,14.41,14.41,0,0,1-2.9-5.4,20.4,20.4,0,0,1-.8-6.45h38.7a41.36,41.36,0,0,0-.85-9.9,1,1,0,0,1,0-.17,28.82,28.82,0,0,0-3.76-9.43A22.61,22.61,0,0,0,197.14,60a23.73,23.73,0,0,0-3.65-2.81A21.23,21.23,0,0,0,182,54.36a23.52,23.52,0,0,0-9.75,2,22.91,22.91,0,0,0-7.7,5.6,25.36,25.36,0,0,0-4.54,7.2l7.07,4.59a17.17,17.17,0,0,0-.38,2.71h29.7a17.73,17.73,0,0,0-1.35-5.7,14.62,14.62,0,0,0-3.1-4.65,14.38,14.38,0,0,0-2.27-1.84A14.84,14.84,0,0,0,187.39,63a14.68,14.68,0,0,0-5.85-1.15A14.89,14.89,0,0,0,175.59,63,13.74,13.74,0,0,0,171,66.16a15.11,15.11,0,0,0-3,4.65,16.71,16.71,0,0,0-.92,2.94,16.71,16.71,0,0,1,.92-2.94,15.11,15.11,0,0,1,3-4.65A13.74,13.74,0,0,1,175.59,63a14.89,14.89,0,0,1,5.95-1.15A14.68,14.68,0,0,1,187.39,63a14.84,14.84,0,0,1,2.33,1.26l14.83,9.62a28.82,28.82,0,0,0-3.76-9.43A22.61,22.61,0,0,0,197.14,60l-.7-.64,16.8,10.88h0c-.11.31-.21.63-.3.95a38,38,0,0,0-1.5,10.85A34.6,34.6,0,0,0,213,92.71a23.12,23.12,0,0,0,4.6,8.35,20,20,0,0,0,7.6,5.4,26.83,26.83,0,0,0,10.45,1.9q9.9,0,15.65-5.2t7.15-14.8h-8.7a15,15,0,0,1-4.35,9.3q-3.55,3.3-9.85,3.3a14,14,0,0,1-6.9-1.6,13.27,13.27,0,0,1-4.7-4.25,18.53,18.53,0,0,1-2.65-6,28.55,28.55,0,0,1-.85-7,34.79,34.79,0,0,1,.8-7.55,18.79,18.79,0,0,1,2.65-6.45,13.79,13.79,0,0,1,5-4.5,15.86,15.86,0,0,1,7.7-1.7,11.9,11.9,0,0,1,12.8,10.3h8.8a20.73,20.73,0,0,0-2.4-8,18,18,0,0,0-4.85-5.55,20.31,20.31,0,0,0-6.8-3.25,31.28,31.28,0,0,0-8.25-1,25,25,0,0,0-10.7,2.15,21.37,21.37,0,0,0-7.65,5.9,24.66,24.66,0,0,0-4.25,7.85,24.66,24.66,0,0,1,4.25-7.85,21.37,21.37,0,0,1,7.65-5.9,25,25,0,0,1,10.7-2.15,31.28,31.28,0,0,1,8.25,1,20.31,20.31,0,0,1,6.8,3.25,18,18,0,0,1,4.85,5.55,20.73,20.73,0,0,1,2.4,8l13.09,8.45V96a19.84,19.84,0,0,0,.7,5.8,7.11,7.11,0,0,0,2.15,3.4,8.35,8.35,0,0,0,3.8,1.65,30.55,30.55,0,0,0,5.65.45H290v-7.5h-3.9a28.47,28.47,0,0,1-3.25-.15,4.15,4.15,0,0,1-1.95-.65,2.51,2.51,0,0,1-.95-1.4,9.58,9.58,0,0,1-.25-2.4V63.06H290v-7.5h-10.3V40.06h-8.5v15.5h-8.8v7.5h8.8v0h-8.8v-7.5h8.8V40.06h8.5l27.49,18.46h0A22,22,0,0,0,303,62.21a24.29,24.29,0,0,0-4.8,8.6,34.63,34.63,0,0,0-1.6,10.65,34.13,34.13,0,0,0,1.6,10.6,24.24,24.24,0,0,0,4.8,8.55,22,22,0,0,0,7.9,5.7,29.61,29.61,0,0,0,21.65,0,22,22,0,0,0,7.85-5.7,23.94,23.94,0,0,0,4.8-8.55,33.83,33.83,0,0,0,1.6-10.6,36.82,36.82,0,0,0-.6-6.74l-15.35-9.86a14.83,14.83,0,0,1,2.25,2.1,18,18,0,0,1,3.45,6.15,25.58,25.58,0,0,1,1.25,8.35,25.5,25.5,0,0,1-1.25,8.35,17.28,17.28,0,0,1-3.45,6.1A14.71,14.71,0,0,1,328,99.66a15.67,15.67,0,0,1-12.5,0,14.89,14.89,0,0,1-5.15-3.75,17.59,17.59,0,0,1-3.45-6.1,28.51,28.51,0,0,1,0-16.7A18.31,18.31,0,0,1,310.33,67a14.91,14.91,0,0,1,5.15-3.8,15.67,15.67,0,0,1,12.5,0,15,15,0,0,1,2.9,1.7l-.06-.06,15.41,9.92a33.41,33.41,0,0,0-1-3.91,24,24,0,0,0-4.8-8.6,22.38,22.38,0,0,0-5-4.25,25.17,25.17,0,0,0-2.82-1.5,29,29,0,0,0-21.65,0,24.19,24.19,0,0,0-3.71,2.06,24.19,24.19,0,0,1,3.71-2.06,29,29,0,0,1,21.65,0A25.17,25.17,0,0,1,335.4,58l21.13,13.62v35.68H365v-23a35.23,35.23,0,0,1,1-8.85,17.15,17.15,0,0,1,3.2-6.55,13.79,13.79,0,0,1,5.8-4.1,24.11,24.11,0,0,1,8.7-1.4v-9q-6.9-.2-11.4,2.8a23.05,23.05,0,0,0-7.6,9.3h-.2V55.56h-8v0h8v10.9h.2a23.05,23.05,0,0,1,7.6-9.3q4.5-3,11.4-2.8l25.5,16.54V106l-15.3-9.85h-11.1v11.1h11.1V96.16l15.3,9.85v6.35q0,4-1,5.55c-.67,1-1.93,1.55-3.8,1.55h-1.8a5.9,5.9,0,0,1-.75,0c-.23,0-.51-.08-.85-.15v7.3a21.67,21.67,0,0,0,4.3.4q5.7,0,9.05-3.15t3.35-10V55.56h-8.5v0h8.5l12.14,7.92a13,13,0,0,0-1.14,5.58q0,5,2.5,7.8a16.82,16.82,0,0,0,6.25,4.35,41.43,41.43,0,0,0,8.15,2.4q4.39.86,8.15,1.9A21.4,21.4,0,0,1,460,88.26a5.66,5.66,0,0,1,2.5,5,6.26,6.26,0,0,1-1.2,3.95,7.54,7.54,0,0,1-3.05,2.35,15.08,15.08,0,0,1-4,1.1,31.2,31.2,0,0,1-4.2.3,24.72,24.72,0,0,1-5-.5,14,14,0,0,1-4.4-1.65,9,9,0,0,1-3.15-3.1,9.59,9.59,0,0,1-1.3-4.75h-8.5a18.65,18.65,0,0,0,2,8.15,14.93,14.93,0,0,0,4.8,5.4,20.05,20.05,0,0,0,6.9,2.95,36.35,36.35,0,0,0,8.2.9,42,42,0,0,0,7.85-.75,21.27,21.27,0,0,0,7.1-2.65,15.15,15.15,0,0,0,5.1-5,14.37,14.37,0,0,0,1.95-7.8,12.18,12.18,0,0,0-1.45-6.2,13,13,0,0,0-3.8-4.15,20.58,20.58,0,0,0-5.4-2.65c-2-.66-4.12-1.23-6.25-1.7s-4-.91-6-1.35a33.56,33.56,0,0,1-5.4-1.6,12.22,12.22,0,0,1-4-2.4,4.78,4.78,0,0,1-1.55-3.65,5,5,0,0,1,1-3.25,7.19,7.19,0,0,1,2.6-2,13,13,0,0,1,3.55-1.05,25.26,25.26,0,0,1,3.85-.3,19.32,19.32,0,0,1,4.15.45,12.83,12.83,0,0,1,3.75,1.45,8.14,8.14,0,0,1,4.1,6.8h8.5a19.05,19.05,0,0,0-2-7.85,13.48,13.48,0,0,0-4.55-5,18.78,18.78,0,0,0-6.55-2.6,40.87,40.87,0,0,0-8.1-.75,26.59,26.59,0,0,0-2.81.15,28.72,28.72,0,0,0-4,.7,20.88,20.88,0,0,0-6.2,2.6,14.48,14.48,0,0,0-4.5,4.55,11,11,0,0,0-.61,1.12,11,11,0,0,1,.61-1.12,14.48,14.48,0,0,1,4.5-4.55,20.88,20.88,0,0,1,6.2-2.6,28.72,28.72,0,0,1,4-.7L417.73,36.67v10.4h-8.5V36.67h8.5"/></g><g id="a881e0f8-369c-4843-a7ef-ee320b0ff902" data-name="Layer 5"><path class="a5796b18-ce10-4f57-a063-5452021bd270" d="M108.74,35.86H98.54l25.1,71.4h10.8l25.4-71.4h-9.9l-20.6,61.9h-.2l-20.4-61.9,51.31,33.3c-.18.43-.35.86-.51,1.3a31.14,31.14,0,0,0-1.8,10.8,41,41,0,0,0,1.75,10.9,23.63,23.63,0,0,0,4.65,8.6,21,21,0,0,0,7.65,5.6,26.58,26.58,0,0,0,10.75,2q8.79,0,14.6-4.4t7.5-13.1h-8.4a12.1,12.1,0,0,1-4.55,7.6,14.69,14.69,0,0,1-8.85,2.5,17.48,17.48,0,0,1-7.3-1.4,14.17,14.17,0,0,1-5.1-3.75,14.41,14.41,0,0,1-2.9-5.4,20.4,20.4,0,0,1-.8-6.45h38.7a41.36,41.36,0,0,0-.85-9.9,1,1,0,0,1,0-.17,28.82,28.82,0,0,0-3.76-9.43A22.61,22.61,0,0,0,197.14,60a23.73,23.73,0,0,0-3.65-2.81A21.23,21.23,0,0,0,182,54.36a23.52,23.52,0,0,0-9.75,2,22.91,22.91,0,0,0-7.7,5.6,25.36,25.36,0,0,0-4.54,7.2l7.07,4.59a17.17,17.17,0,0,0-.38,2.71h29.7a17.73,17.73,0,0,0-1.35-5.7,14.62,14.62,0,0,0-3.1-4.65,14.38,14.38,0,0,0-2.27-1.84A14.84,14.84,0,0,0,187.39,63a14.68,14.68,0,0,0-5.85-1.15A14.89,14.89,0,0,0,175.59,63,13.74,13.74,0,0,0,171,66.16a15.11,15.11,0,0,0-3,4.65,16.71,16.71,0,0,0-.92,2.94,16.71,16.71,0,0,1,.92-2.94,15.11,15.11,0,0,1,3-4.65A13.74,13.74,0,0,1,175.59,63a14.89,14.89,0,0,1,5.95-1.15A14.68,14.68,0,0,1,187.39,63a14.84,14.84,0,0,1,2.33,1.26l14.83,9.62a28.82,28.82,0,0,0-3.76-9.43A22.61,22.61,0,0,0,197.14,60l-.7-.64,16.8,10.88h0c-.11.31-.21.63-.3.95a38,38,0,0,0-1.5,10.85A34.6,34.6,0,0,0,213,92.71a23.12,23.12,0,0,0,4.6,8.35,20,20,0,0,0,7.6,5.4,26.83,26.83,0,0,0,10.45,1.9q9.9,0,15.65-5.2t7.15-14.8h-8.7a15,15,0,0,1-4.35,9.3q-3.55,3.3-9.85,3.3a14,14,0,0,1-6.9-1.6,13.27,13.27,0,0,1-4.7-4.25,18.53,18.53,0,0,1-2.65-6,28.55,28.55,0,0,1-.85-7,34.79,34.79,0,0,1,.8-7.55,18.79,18.79,0,0,1,2.65-6.45,13.79,13.79,0,0,1,5-4.5,15.86,15.86,0,0,1,7.7-1.7,11.9,11.9,0,0,1,12.8,10.3h8.8a20.73,20.73,0,0,0-2.4-8,18,18,0,0,0-4.85-5.55,20.31,20.31,0,0,0-6.8-3.25,31.28,31.28,0,0,0-8.25-1,25,25,0,0,0-10.7,2.15,21.37,21.37,0,0,0-7.65,5.9,24.66,24.66,0,0,0-4.25,7.85,24.66,24.66,0,0,1,4.25-7.85,21.37,21.37,0,0,1,7.65-5.9,25,25,0,0,1,10.7-2.15,31.28,31.28,0,0,1,8.25,1,20.31,20.31,0,0,1,6.8,3.25,18,18,0,0,1,4.85,5.55,20.73,20.73,0,0,1,2.4,8l13.09,8.45V96a19.84,19.84,0,0,0,.7,5.8,7.11,7.11,0,0,0,2.15,3.4,8.35,8.35,0,0,0,3.8,1.65,30.55,30.55,0,0,0,5.65.45H290v-7.5h-3.9a28.47,28.47,0,0,1-3.25-.15,4.15,4.15,0,0,1-1.95-.65,2.51,2.51,0,0,1-.95-1.4,9.58,9.58,0,0,1-.25-2.4V78.25"/></g></svg>