<svg xmlns="http://www.w3.org/2000/svg" width="720.6548245743669" height="454" id="interactive-0" class="element interactive interactive-container"><g></g><g></g><svg xmlns="http://www.w3.org/2000/svg" width="200" height="200" id="interactive-1" class="element interactive" x="0" y="0" viewBox="-100 -100 200 200"><g><rect x="-100" y="-100" width="200" height="200" class="default element" id="rectangle-2" style="stroke-width: 2;"></rect><line x1="-100" y1="0" x2="100" y2="0" class="default element" id="line-3"></line><line x1="0" y1="-100" x2="0" y2="100" class="default element" id="line-4"></line><circle id="circle-5" class="element" r="80" cy="0" cx="0"></circle><line x1="0" y1="0" x2="43.2242" y2="-67.3177" class="default element" id="line-7"></line><path d="M 0 0
                      L 43.22418446945118 0
                      L 43.22418446945118 -67.31767878463172
                      Z" id="path-8" class="element" style="fill: rgb(248, 248, 248);"></path></g><g><g id="control-6" class="element control" transform="translate( 43.22418446945118, -67.31767878463172)"><circle class="control-point" r="4" cy="0" cx="0"></circle><circle class="control-handle" r="13" cy="0" cx="0"></circle></g></g></svg><svg xmlns="http://www.w3.org/2000/svg" width="502.6548245743669" height="200" id="interactive-9" class="element interactive" x="218" y="0"><g><rect x="0" y="0" width="502.6548245743669" height="200" class="default element" id="rectangle-10" style="stroke-width: 2;"></rect><g id="plot-11" class="element"><rect x="0" y="0" width="600" height="300" class="default element" id="rectangle-12" style="fill: transparent; stroke: none;"></rect><g id="group-16" class="element" transform="translate(0, 100)"><path d="M -600 -27.730825426802067 L -599 -28.7 L -598 -29.6 L -597 -30.5 L -596 -31.4 L -595 -32.4 L -594 -33.3 L -593 -34.2 L -592 -35.1 L -591 -36.0 L -590 -36.9 L -589 -37.8 L -588 -38.6 L -587 -39.5 L -586 -40.4 L -585 -41.2 L -584 -42.1 L -583 -42.9 L -582 -43.8 L -581 -44.6 L -580 -45.4 L -579 -46.3 L -578 -47.1 L -577 -47.9 L -576 -48.7 L -575 -49.5 L -574 -50.2 L -573 -51.0 L -572 -51.8 L -571 -52.5 L -570 -53.3 L -569 -54.0 L -568 -54.8 L -567 -55.5 L -566 -56.2 L -565 -56.9 L -564 -57.6 L -563 -58.3 L -562 -59.0 L -561 -59.7 L -560 -60.3 L -559 -61.0 L -558 -61.6 L -557 -62.2 L -556 -62.9 L -555 -63.5 L -554 -64.1 L -553 -64.7 L -552 -65.3 L -551 -65.8 L -550 -66.4 L -549 -66.9 L -548 -67.5 L -547 -68.0 L -546 -68.5 L -545 -69.1 L -544 -69.6 L -543 -70.0 L -542 -70.5 L -541 -71.0 L -540 -71.4 L -539 -71.9 L -538 -72.3 L -537 -72.7 L -536 -73.2 L -535 -73.5 L -534 -73.9 L -533 -74.3 L -532 -74.7 L -531 -75.0 L -530 -75.4 L -529 -75.7 L -528 -76.0 L -527 -76.3 L -526 -76.6 L -525 -76.9 L -524 -77.2 L -523 -77.4 L -522 -77.7 L -521 -77.9 L -520 -78.1 L -519 -78.3 L -518 -78.5 L -517 -78.7 L -516 -78.9 L -515 -79.0 L -514 -79.2 L -513 -79.3 L -512 -79.5 L -511 -79.6 L -510 -79.7 L -509 -79.7 L -508 -79.8 L -507 -79.9 L -506 -79.9 L -505 -80.0 L -504 -80.0 L -503 -80.0 L -502 -80.0 L -501 -80.0 L -500 -80.0 L -499 -79.9 L -498 -79.9 L -497 -79.8 L -496 -79.7 L -495 -79.6 L -494 -79.5 L -493 -79.4 L -492 -79.3 L -491 -79.2 L -490 -79.0 L -489 -78.8 L -488 -78.7 L -487 -78.5 L -486 -78.3 L -485 -78.1 L -484 -77.8 L -483 -77.6 L -482 -77.3 L -481 -77.1 L -480 -76.8 L -479 -76.5 L -478 -76.2 L -477 -75.9 L -476 -75.6 L -475 -75.3 L -474 -74.9 L -473 -74.6 L -472 -74.2 L -471 -73.8 L -470 -73.4 L -469 -73.0 L -468 -72.6 L -467 -72.2 L -466 -71.7 L -465 -71.3 L -464 -70.8 L -463 -70.4 L -462 -69.9 L -461 -69.4 L -460 -68.9 L -459 -68.4 L -458 -67.9 L -457 -67.3 L -456 -66.8 L -455 -66.2 L -454 -65.7 L -453 -65.1 L -452 -64.5 L -451 -63.9 L -450 -63.3 L -449 -62.7 L -448 -62.0 L -447 -61.4 L -446 -60.8 L -445 -60.1 L -444 -59.4 L -443 -58.8 L -442 -58.1 L -441 -57.4 L -440 -56.7 L -439 -56.0 L -438 -55.3 L -437 -54.5 L -436 -53.8 L -435 -53.1 L -434 -52.3 L -433 -51.5 L -432 -50.8 L -431 -50.0 L -430 -49.2 L -429 -48.4 L -428 -47.6 L -427 -46.8 L -426 -46.0 L -425 -45.2 L -424 -44.3 L -423 -43.5 L -422 -42.7 L -421 -41.8 L -420 -41.0 L -419 -40.1 L -418 -39.2 L -417 -38.4 L -416 -37.5 L -415 -36.6 L -414 -35.7 L -413 -34.8 L -412 -33.9 L -411 -33.0 L -410 -32.1 L -409 -31.2 L -408 -30.2 L -407 -29.3 L -406 -28.4 L -405 -27.4 L -404 -26.5 L -403 -25.6 L -402 -24.6 L -401 -23.7 L -400 -22.7 L -399 -21.7 L -398 -20.8 L -397 -19.8 L -396 -18.8 L -395 -17.9 L -394 -16.9 L -393 -15.9 L -392 -14.9 L -391 -13.9 L -390 -13.0 L -389 -12.0 L -388 -11.0 L -387 -10.0 L -386 -9.0 L -385 -8.0 L -384 -7.0 L -383 -6.0 L -382 -5.0 L -381 -4.0 L -380 -3.0 L -379 -2.0 L -378 -1.0 L -377 -0.0 L -376 1.0 L -375 2.0 L -374 3.0 L -373 4.0 L -372 5.0 L -371 6.0 L -370 7.0 L -369 8.0 L -368 9.0 L -367 10.0 L -366 11.0 L -365 11.9 L -364 12.9 L -363 13.9 L -362 14.9 L -361 15.9 L -360 16.9 L -359 17.8 L -358 18.8 L -357 19.8 L -356 20.8 L -355 21.7 L -354 22.7 L -353 23.6 L -352 24.6 L -351 25.5 L -350 26.5 L -349 27.4 L -348 28.4 L -347 29.3 L -346 30.2 L -345 31.1 L -344 32.1 L -343 33.0 L -342 33.9 L -341 34.8 L -340 35.7 L -339 36.6 L -338 37.5 L -337 38.3 L -336 39.2 L -335 40.1 L -334 41.0 L -333 41.8 L -332 42.7 L -331 43.5 L -330 44.3 L -329 45.2 L -328 46.0 L -327 46.8 L -326 47.6 L -325 48.4 L -324 49.2 L -323 50.0 L -322 50.8 L -321 51.5 L -320 52.3 L -319 53.0 L -318 53.8 L -317 54.5 L -316 55.3 L -315 56.0 L -314 56.7 L -313 57.4 L -312 58.1 L -311 58.8 L -310 59.4 L -309 60.1 L -308 60.8 L -307 61.4 L -306 62.0 L -305 62.7 L -304 63.3 L -303 63.9 L -302 64.5 L -301 65.1 L -300 65.6 L -299 66.2 L -298 66.8 L -297 67.3 L -296 67.8 L -295 68.4 L -294 68.9 L -293 69.4 L -292 69.9 L -291 70.4 L -290 70.8 L -289 71.3 L -288 71.7 L -287 72.2 L -286 72.6 L -285 73.0 L -284 73.4 L -283 73.8 L -282 74.2 L -281 74.6 L -280 74.9 L -279 75.3 L -278 75.6 L -277 75.9 L -276 76.2 L -275 76.5 L -274 76.8 L -273 77.1 L -272 77.3 L -271 77.6 L -270 77.8 L -269 78.1 L -268 78.3 L -267 78.5 L -266 78.7 L -265 78.8 L -264 79.0 L -263 79.1 L -262 79.3 L -261 79.4 L -260 79.5 L -259 79.6 L -258 79.7 L -257 79.8 L -256 79.9 L -255 79.9 L -254 80.0 L -253 80.0 L -252 80.0 L -251 80.0 L -250 80.0 L -249 80.0 L -248 79.9 L -247 79.9 L -246 79.8 L -245 79.7 L -244 79.7 L -243 79.6 L -242 79.5 L -241 79.3 L -240 79.2 L -239 79.1 L -238 78.9 L -237 78.7 L -236 78.5 L -235 78.3 L -234 78.1 L -233 77.9 L -232 77.7 L -231 77.4 L -230 77.2 L -229 76.9 L -228 76.6 L -227 76.3 L -226 76.0 L -225 75.7 L -224 75.4 L -223 75.0 L -222 74.7 L -221 74.3 L -220 73.9 L -219 73.6 L -218 73.2 L -217 72.7 L -216 72.3 L -215 71.9 L -214 71.4 L -213 71.0 L -212 70.5 L -211 70.0 L -210 69.6 L -209 69.1 L -208 68.6 L -207 68.0 L -206 67.5 L -205 67.0 L -204 66.4 L -203 65.8 L -202 65.3 L -201 64.7 L -200 64.1 L -199 63.5 L -198 62.9 L -197 62.3 L -196 61.6 L -195 61.0 L -194 60.3 L -193 59.7 L -192 59.0 L -191 58.3 L -190 57.6 L -189 56.9 L -188 56.2 L -187 55.5 L -186 54.8 L -185 54.0 L -184 53.3 L -183 52.6 L -182 51.8 L -181 51.0 L -180 50.3 L -179 49.5 L -178 48.7 L -177 47.9 L -176 47.1 L -175 46.3 L -174 45.4 L -173 44.6 L -172 43.8 L -171 42.9 L -170 42.1 L -169 41.2 L -168 40.4 L -167 39.5 L -166 38.6 L -165 37.8 L -164 36.9 L -163 36.0 L -162 35.1 L -161 34.2 L -160 33.3 L -159 32.4 L -158 31.5 L -157 30.5 L -156 29.6 L -155 28.7 L -154 27.7 L -153 26.8 L -152 25.9 L -151 24.9 L -150 24.0 L -149 23.0 L -148 22.0 L -147 21.1 L -146 20.1 L -145 19.1 L -144 18.2 L -143 17.2 L -142 16.2 L -141 15.2 L -140 14.3 L -139 13.3 L -138 12.3 L -137 11.3 L -136 10.3 L -135 9.3 L -134 8.3 L -133 7.3 L -132 6.3 L -131 5.3 L -130 4.3 L -129 3.3 L -128 2.3 L -127 1.3 L -126 0.3 L -125 -0.7 L -124 -1.7 L -123 -2.7 L -122 -3.7 L -121 -4.7 L -120 -5.7 L -119 -6.7 L -118 -7.7 L -117 -8.6 L -116 -9.6 L -115 -10.6 L -114 -11.6 L -113 -12.6 L -112 -13.6 L -111 -14.6 L -110 -15.6 L -109 -16.5 L -108 -17.5 L -107 -18.5 L -106 -19.5 L -105 -20.4 L -104 -21.4 L -103 -22.4 L -102 -23.3 L -101 -24.3 L -100 -25.2 L -99 -26.2 L -98 -27.1 L -97 -28.1 L -96 -29.0 L -95 -29.9 L -94 -30.8 L -93 -31.8 L -92 -32.7 L -91 -33.6 L -90 -34.5 L -89 -35.4 L -88 -36.3 L -87 -37.2 L -86 -38.1 L -85 -38.9 L -84 -39.8 L -83 -40.7 L -82 -41.5 L -81 -42.4 L -80 -43.2 L -79 -44.1 L -78 -44.9 L -77 -45.7 L -76 -46.5 L -75 -47.3 L -74 -48.1 L -73 -48.9 L -72 -49.7 L -71 -50.5 L -70 -51.3 L -69 -52.0 L -68 -52.8 L -67 -53.5 L -66 -54.3 L -65 -55.0 L -64 -55.7 L -63 -56.4 L -62 -57.2 L -61 -57.8 L -60 -58.5 L -59 -59.2 L -58 -59.9 L -57 -60.5 L -56 -61.2 L -55 -61.8 L -54 -62.5 L -53 -63.1 L -52 -63.7 L -51 -64.3 L -50 -64.9 L -49 -65.5 L -48 -66.0 L -47 -66.6 L -46 -67.1 L -45 -67.7 L -44 -68.2 L -43 -68.7 L -42 -69.2 L -41 -69.7 L -40 -70.2 L -39 -70.7 L -38 -71.1 L -37 -71.6 L -36 -72.0 L -35 -72.5 L -34 -72.9 L -33 -73.3 L -32 -73.7 L -31 -74.1 L -30 -74.4 L -29 -74.8 L -28 -75.1 L -27 -75.5 L -26 -75.8 L -25 -76.1 L -24 -76.4 L -23 -76.7 L -22 -77.0 L -21 -77.3 L -20 -77.5 L -19 -77.8 L -18 -78.0 L -17 -78.2 L -16 -78.4 L -15 -78.6 L -14 -78.8 L -13 -78.9 L -12 -79.1 L -11 -79.2 L -10 -79.4 L -9 -79.5 L -8 -79.6 L -7 -79.7 L -6 -79.8 L -5 -79.8 L -4 -79.9 L -3 -79.9 L -2 -80.0 L -1 -80.0 L 0 -80.0 L 1 -80.0 L 2 -80.0 L 3 -79.9 L 4 -79.9 L 5 -79.8 L 6 -79.8 L 7 -79.7 L 8 -79.6 L 9 -79.5 L 10 -79.4 L 11 -79.2 L 12 -79.1 L 13 -78.9 L 14 -78.8 L 15 -78.6 L 16 -78.4 L 17 -78.2 L 18 -78.0 L 19 -77.8 L 20 -77.5 L 21 -77.3 L 22 -77.0 L 23 -76.7 L 24 -76.4 L 25 -76.1 L 26 -75.8 L 27 -75.5 L 28 -75.1 L 29 -74.8 L 30 -74.4 L 31 -74.1 L 32 -73.7 L 33 -73.3 L 34 -72.9 L 35 -72.5 L 36 -72.0 L 37 -71.6 L 38 -71.1 L 39 -70.7 L 40 -70.2 L 41 -69.7 L 42 -69.2 L 43 -68.7 L 44 -68.2 L 45 -67.7 L 46 -67.1 L 47 -66.6 L 48 -66.0 L 49 -65.5 L 50 -64.9 L 51 -64.3 L 52 -63.7 L 53 -63.1 L 54 -62.5 L 55 -61.8 L 56 -61.2 L 57 -60.5 L 58 -59.9 L 59 -59.2 L 60 -58.5 L 61 -57.8 L 62 -57.2 L 63 -56.4 L 64 -55.7 L 65 -55.0 L 66 -54.3 L 67 -53.5 L 68 -52.8 L 69 -52.0 L 70 -51.3 L 71 -50.5 L 72 -49.7 L 73 -48.9 L 74 -48.1 L 75 -47.3 L 76 -46.5 L 77 -45.7 L 78 -44.9 L 79 -44.1 L 80 -43.2 L 81 -42.4 L 82 -41.5 L 83 -40.7 L 84 -39.8 L 85 -38.9 L 86 -38.1 L 87 -37.2 L 88 -36.3 L 89 -35.4 L 90 -34.5 L 91 -33.6 L 92 -32.7 L 93 -31.8 L 94 -30.8 L 95 -29.9 L 96 -29.0 L 97 -28.1 L 98 -27.1 L 99 -26.2 L 100 -25.2 L 101 -24.3 L 102 -23.3 L 103 -22.4 L 104 -21.4 L 105 -20.4 L 106 -19.5 L 107 -18.5 L 108 -17.5 L 109 -16.5 L 110 -15.6 L 111 -14.6 L 112 -13.6 L 113 -12.6 L 114 -11.6 L 115 -10.6 L 116 -9.6 L 117 -8.6 L 118 -7.7 L 119 -6.7 L 120 -5.7 L 121 -4.7 L 122 -3.7 L 123 -2.7 L 124 -1.7 L 125 -0.7 L 126 0.3 L 127 1.3 L 128 2.3 L 129 3.3 L 130 4.3 L 131 5.3 L 132 6.3 L 133 7.3 L 134 8.3 L 135 9.3 L 136 10.3 L 137 11.3 L 138 12.3 L 139 13.3 L 140 14.3 L 141 15.2 L 142 16.2 L 143 17.2 L 144 18.2 L 145 19.1 L 146 20.1 L 147 21.1 L 148 22.0 L 149 23.0 L 150 24.0 L 151 24.9 L 152 25.9 L 153 26.8 L 154 27.7 L 155 28.7 L 156 29.6 L 157 30.5 L 158 31.5 L 159 32.4 L 160 33.3 L 161 34.2 L 162 35.1 L 163 36.0 L 164 36.9 L 165 37.8 L 166 38.6 L 167 39.5 L 168 40.4 L 169 41.2 L 170 42.1 L 171 42.9 L 172 43.8 L 173 44.6 L 174 45.4 L 175 46.3 L 176 47.1 L 177 47.9 L 178 48.7 L 179 49.5 L 180 50.3 L 181 51.0 L 182 51.8 L 183 52.6 L 184 53.3 L 185 54.0 L 186 54.8 L 187 55.5 L 188 56.2 L 189 56.9 L 190 57.6 L 191 58.3 L 192 59.0 L 193 59.7 L 194 60.3 L 195 61.0 L 196 61.6 L 197 62.3 L 198 62.9 L 199 63.5 L 200 64.1 L 201 64.7 L 202 65.3 L 203 65.8 L 204 66.4 L 205 67.0 L 206 67.5 L 207 68.0 L 208 68.6 L 209 69.1 L 210 69.6 L 211 70.0 L 212 70.5 L 213 71.0 L 214 71.4 L 215 71.9 L 216 72.3 L 217 72.7 L 218 73.2 L 219 73.6 L 220 73.9 L 221 74.3 L 222 74.7 L 223 75.0 L 224 75.4 L 225 75.7 L 226 76.0 L 227 76.3 L 228 76.6 L 229 76.9 L 230 77.2 L 231 77.4 L 232 77.7 L 233 77.9 L 234 78.1 L 235 78.3 L 236 78.5 L 237 78.7 L 238 78.9 L 239 79.1 L 240 79.2 L 241 79.3 L 242 79.5 L 243 79.6 L 244 79.7 L 245 79.7 L 246 79.8 L 247 79.9 L 248 79.9 L 249 80.0 L 250 80.0 L 251 80.0 L 252 80.0 L 253 80.0 L 254 80.0 L 255 79.9 L 256 79.9 L 257 79.8 L 258 79.7 L 259 79.6 L 260 79.5 L 261 79.4 L 262 79.3 L 263 79.1 L 264 79.0 L 265 78.8 L 266 78.7 L 267 78.5 L 268 78.3 L 269 78.1 L 270 77.8 L 271 77.6 L 272 77.3 L 273 77.1 L 274 76.8 L 275 76.5 L 276 76.2 L 277 75.9 L 278 75.6 L 279 75.3 L 280 74.9 L 281 74.6 L 282 74.2 L 283 73.8 L 284 73.4 L 285 73.0 L 286 72.6 L 287 72.2 L 288 71.7 L 289 71.3 L 290 70.8 L 291 70.4 L 292 69.9 L 293 69.4 L 294 68.9 L 295 68.4 L 296 67.8 L 297 67.3 L 298 66.8 L 299 66.2 L 300 65.6 L 301 65.1 L 302 64.5 L 303 63.9 L 304 63.3 L 305 62.7 L 306 62.0 L 307 61.4 L 308 60.8 L 309 60.1 L 310 59.4 L 311 58.8 L 312 58.1 L 313 57.4 L 314 56.7 L 315 56.0 L 316 55.3 L 317 54.5 L 318 53.8 L 319 53.0 L 320 52.3 L 321 51.5 L 322 50.8 L 323 50.0 L 324 49.2 L 325 48.4 L 326 47.6 L 327 46.8 L 328 46.0 L 329 45.2 L 330 44.3 L 331 43.5 L 332 42.7 L 333 41.8 L 334 41.0 L 335 40.1 L 336 39.2 L 337 38.3 L 338 37.5 L 339 36.6 L 340 35.7 L 341 34.8 L 342 33.9 L 343 33.0 L 344 32.1 L 345 31.1 L 346 30.2 L 347 29.3 L 348 28.4 L 349 27.4 L 350 26.5 L 351 25.5 L 352 24.6 L 353 23.6 L 354 22.7 L 355 21.7 L 356 20.8 L 357 19.8 L 358 18.8 L 359 17.8 L 360 16.9 L 361 15.9 L 362 14.9 L 363 13.9 L 364 12.9 L 365 11.9 L 366 11.0 L 367 10.0 L 368 9.0 L 369 8.0 L 370 7.0 L 371 6.0 L 372 5.0 L 373 4.0 L 374 3.0 L 375 2.0 L 376 1.0 L 377 -0.0 L 378 -1.0 L 379 -2.0 L 380 -3.0 L 381 -4.0 L 382 -5.0 L 383 -6.0 L 384 -7.0 L 385 -8.0 L 386 -9.0 L 387 -10.0 L 388 -11.0 L 389 -12.0 L 390 -13.0 L 391 -13.9 L 392 -14.9 L 393 -15.9 L 394 -16.9 L 395 -17.9 L 396 -18.8 L 397 -19.8 L 398 -20.8 L 399 -21.7 L 400 -22.7 L 401 -23.7 L 402 -24.6 L 403 -25.6 L 404 -26.5 L 405 -27.4 L 406 -28.4 L 407 -29.3 L 408 -30.2 L 409 -31.2 L 410 -32.1 L 411 -33.0 L 412 -33.9 L 413 -34.8 L 414 -35.7 L 415 -36.6 L 416 -37.5 L 417 -38.4 L 418 -39.2 L 419 -40.1 L 420 -41.0 L 421 -41.8 L 422 -42.7 L 423 -43.5 L 424 -44.3 L 425 -45.2 L 426 -46.0 L 427 -46.8 L 428 -47.6 L 429 -48.4 L 430 -49.2 L 431 -50.0 L 432 -50.8 L 433 -51.5 L 434 -52.3 L 435 -53.1 L 436 -53.8 L 437 -54.5 L 438 -55.3 L 439 -56.0 L 440 -56.7 L 441 -57.4 L 442 -58.1 L 443 -58.8 L 444 -59.4 L 445 -60.1 L 446 -60.8 L 447 -61.4 L 448 -62.0 L 449 -62.7 L 450 -63.3 L 451 -63.9 L 452 -64.5 L 453 -65.1 L 454 -65.7 L 455 -66.2 L 456 -66.8 L 457 -67.3 L 458 -67.9 L 459 -68.4 L 460 -68.9 L 461 -69.4 L 462 -69.9 L 463 -70.4 L 464 -70.8 L 465 -71.3 L 466 -71.7 L 467 -72.2 L 468 -72.6 L 469 -73.0 L 470 -73.4 L 471 -73.8 L 472 -74.2 L 473 -74.6 L 474 -74.9 L 475 -75.3 L 476 -75.6 L 477 -75.9 L 478 -76.2 L 479 -76.5 L 480 -76.8 L 481 -77.1 L 482 -77.3 L 483 -77.6 L 484 -77.8 L 485 -78.1 L 486 -78.3 L 487 -78.5 L 488 -78.7 L 489 -78.8 L 490 -79.0 L 491 -79.2 L 492 -79.3 L 493 -79.4 L 494 -79.5 L 495 -79.6 L 496 -79.7 L 497 -79.8 L 498 -79.9 L 499 -79.9 L 500 -80.0 L 501 -80.0 L 502 -80.0 L 503 -80.0 L 504 -80.0 L 505 -80.0 L 506 -79.9 L 507 -79.9 L 508 -79.8 L 509 -79.7 L 510 -79.7 L 511 -79.6 L 512 -79.5 L 513 -79.3 L 514 -79.2 L 515 -79.0 L 516 -78.9 L 517 -78.7 L 518 -78.5 L 519 -78.3 L 520 -78.1 L 521 -77.9 L 522 -77.7 L 523 -77.4 L 524 -77.2 L 525 -76.9 L 526 -76.6 L 527 -76.3 L 528 -76.0 L 529 -75.7 L 530 -75.4 L 531 -75.0 L 532 -74.7 L 533 -74.3 L 534 -73.9 L 535 -73.5 L 536 -73.2 L 537 -72.7 L 538 -72.3 L 539 -71.9 L 540 -71.4 L 541 -71.0 L 542 -70.5 L 543 -70.0 L 544 -69.6 L 545 -69.1 L 546 -68.5 L 547 -68.0 L 548 -67.5 L 549 -66.9 L 550 -66.4 L 551 -65.8 L 552 -65.3 L 553 -64.7 L 554 -64.1 L 555 -63.5 L 556 -62.9 L 557 -62.2 L 558 -61.6 L 559 -61.0 L 560 -60.3 L 561 -59.7 L 562 -59.0 L 563 -58.3 L 564 -57.6 L 565 -56.9 L 566 -56.2 L 567 -55.5 L 568 -54.8 L 569 -54.0 L 570 -53.3 L 571 -52.5 L 572 -51.8 L 573 -51.0 L 574 -50.2 L 575 -49.5 L 576 -48.7 L 577 -47.9 L 578 -47.1 L 579 -46.3 L 580 -45.4 L 581 -44.6 L 582 -43.8 L 583 -42.9 L 584 -42.1 L 585 -41.2 L 586 -40.4 L 587 -39.5 L 588 -38.6 L 589 -37.8 L 590 -36.9 L 591 -36.0 L 592 -35.1 L 593 -34.2 L 594 -33.3 L 595 -32.4 L 596 -31.4 L 597 -30.5 L 598 -29.6 L 599 -28.7 L 600 -27.7 L 601 -26.8 L 602 -25.8 L 603 -24.9 L 604 -23.9 L 605 -23.0 L 606 -22.0 L 607 -21.1 L 608 -20.1 L 609 -19.1 L 610 -18.2 L 611 -17.2 L 612 -16.2 L 613 -15.2 L 614 -14.2 L 615 -13.3 L 616 -12.3 L 617 -11.3 L 618 -10.3 L 619 -9.3 L 620 -8.3 L 621 -7.3 L 622 -6.3 L 623 -5.3 L 624 -4.3 L 625 -3.3 L 626 -2.3 L 627 -1.3 L 628 -0.3 L 629 0.7 L 630 1.7 L 631 2.7 L 632 3.7 L 633 4.7 L 634 5.7 L 635 6.7 L 636 7.7 L 637 8.7 L 638 9.7 L 639 10.6 L 640 11.6 L 641 12.6 L 642 13.6 L 643 14.6 L 644 15.6 L 645 16.6 L 646 17.5 L 647 18.5 L 648 19.5 L 649 20.5 L 650 21.4 L 651 22.4 L 652 23.3 L 653 24.3 L 654 25.2 L 655 26.2 L 656 27.1 L 657 28.1 L 658 29.0 L 659 29.9 L 660 30.9 L 661 31.8 L 662 32.7 L 663 33.6 L 664 34.5 L 665 35.4 L 666 36.3 L 667 37.2 L 668 38.1 L 669 39.0 L 670 39.8 L 671 40.7 L 672 41.5 L 673 42.4 L 674 43.2 L 675 44.1 L 676 44.9 L 677 45.7 L 678 46.5 L 679 47.4 L 680 48.2 L 681 49.0 L 682 49.7 L 683 50.5 L 684 51.3 L 685 52.1 L 686 52.8 L 687 53.6 L 688 54.3 L 689 55.0 L 690 55.7 L 691 56.5 L 692 57.2 L 693 57.9 L 694 58.5 L 695 59.2 L 696 59.9 L 697 60.6 L 698 61.2 L 699 61.8 L 700 62.5 L 701 63.1 L 702 63.7 L 703 64.3 L 704 64.9 L 705 65.5 L 706 66.0 L 707 66.6 L 708 67.1 L 709 67.7 L 710 68.2 L 711 68.7 L 712 69.2 L 713 69.7 L 714 70.2 L 715 70.7 L 716 71.2 L 717 71.6 L 718 72.0 L 719 72.5 L 720 72.9 L 721 73.3 L 722 73.7 L 723 74.1 L 724 74.4 L 725 74.8 L 726 75.2 L 727 75.5 L 728 75.8 L 729 76.1 L 730 76.4 L 731 76.7 L 732 77.0 L 733 77.3 L 734 77.5 L 735 77.8 L 736 78.0 L 737 78.2 L 738 78.4 L 739 78.6 L 740 78.8 L 741 78.9 L 742 79.1 L 743 79.2 L 744 79.4 L 745 79.5 L 746 79.6 L 747 79.7 L 748 79.8 L 749 79.8 L 750 79.9 L 751 79.9 L 752 80.0 L 753 80.0 L 754 80.0 L 755 80.0 L 756 80.0 L 757 79.9 L 758 79.9 L 759 79.8 L 760 79.8 L 761 79.7 L 762 79.6 L 763 79.5 L 764 79.4 L 765 79.2 L 766 79.1 L 767 78.9 L 768 78.8 L 769 78.6 L 770 78.4 L 771 78.2 L 772 78.0 L 773 77.8 L 774 77.5 L 775 77.3 L 776 77.0 L 777 76.7 L 778 76.4 L 779 76.1 L 780 75.8 L 781 75.5 L 782 75.1 L 783 74.8 L 784 74.4 L 785 74.1 L 786 73.7 L 787 73.3 L 788 72.9 L 789 72.5 L 790 72.0 L 791 71.6 L 792 71.1 L 793 70.7 L 794 70.2 L 795 69.7 L 796 69.2 L 797 68.7 L 798 68.2 L 799 67.7 L 800 67.1 L 801 66.6 L 802 66.0 L 803 65.4 L 804 64.9 L 805 64.3 L 806 63.7 L 807 63.1 L 808 62.4 L 809 61.8 L 810 61.2 L 811 60.5 L 812 59.9 L 813 59.2 L 814 58.5 L 815 57.8 L 816 57.1 L 817 56.4 L 818 55.7 L 819 55.0 L 820 54.3 L 821 53.5 L 822 52.8 L 823 52.0 L 824 51.3 L 825 50.5 L 826 49.7 L 827 48.9 L 828 48.1 L 829 47.3 L 830 46.5 L 831 45.7 L 832 44.9 L 833 44.0 L 834 43.2 L 835 42.4 L 836 41.5 L 837 40.7 L 838 39.8 L 839 38.9 L 840 38.0 L 841 37.2 L 842 36.3 L 843 35.4 L 844 34.5 L 845 33.6 L 846 32.7 L 847 31.7 L 848 30.8 L 849 29.9 L 850 29.0 L 851 28.0 L 852 27.1 L 853 26.2 L 854 25.2 L 855 24.3 L 856 23.3 L 857 22.3 L 858 21.4 L 859 20.4 L 860 19.4 L 861 18.5 L 862 17.5 L 863 16.5 L 864 15.5 L 865 14.6 L 866 13.6 L 867 12.6 L 868 11.6 L 869 10.6 L 870 9.6 L 871 8.6 L 872 7.6 L 873 6.6 L 874 5.6 L 875 4.6 L 876 3.6 L 877 2.6 L 878 1.6 L 879 0.6 L 880 -0.4 L 881 -1.4 L 882 -2.4 L 883 -3.4 L 884 -4.4 L 885 -5.4 L 886 -6.3 L 887 -7.3 L 888 -8.3 L 889 -9.3 L 890 -10.3 L 891 -11.3 L 892 -12.3 L 893 -13.3 L 894 -14.3 L 895 -15.3 L 896 -16.2 L 897 -17.2 L 898 -18.2 L 899 -19.2 L 900 -20.1 L 901 -21.1 L 902 -22.1 L 903 -23.0 L 904 -24.0 L 905 -24.9 L 906 -25.9 L 907 -26.8 L 908 -27.8 L 909 -28.7 L 910 -29.6 L 911 -30.6 L 912 -31.5 L 913 -32.4 L 914 -33.3 L 915 -34.2 L 916 -35.1 L 917 -36.0 L 918 -36.9 L 919 -37.8 L 920 -38.7 L 921 -39.5 L 922 -40.4 L 923 -41.3 L 924 -42.1 L 925 -43.0 L 926 -43.8 L 927 -44.6 L 928 -45.5 L 929 -46.3 L 930 -47.1 L 931 -47.9 L 932 -48.7 L 933 -49.5 L 934 -50.3 L 935 -51.0 L 936 -51.8 L 937 -52.6 L 938 -53.3 L 939 -54.1 L 940 -54.8 L 941 -55.5 L 942 -56.2 L 943 -56.9 L 944 -57.6 L 945 -58.3 L 946 -59.0 L 947 -59.7 L 948 -60.3 L 949 -61.0 L 950 -61.6 L 951 -62.3 L 952 -62.9 L 953 -63.5 L 954 -64.1 L 955 -64.7 L 956 -65.3 L 957 -65.9 L 958 -66.4 L 959 -67.0 L 960 -67.5 L 961 -68.0 L 962 -68.6 L 963 -69.1 L 964 -69.6 L 965 -70.1 L 966 -70.5 L 967 -71.0 L 968 -71.5 L 969 -71.9 L 970 -72.3 L 971 -72.8 L 972 -73.2 L 973 -73.6 L 974 -74.0 L 975 -74.3 L 976 -74.7 L 977 -75.0 L 978 -75.4 L 979 -75.7 L 980 -76.0 L 981 -76.3 L 982 -76.6 L 983 -76.9 L 984 -77.2 L 985 -77.4 L 986 -77.7 L 987 -77.9 L 988 -78.1 L 989 -78.3 L 990 -78.5 L 991 -78.7 L 992 -78.9 L 993 -79.1 L 994 -79.2 L 995 -79.3 L 996 -79.5 L 997 -79.6 L 998 -79.7 L 999 -79.8 L 1000 -79.8 L 1001 -79.9 L 1002 -79.9 L 1003 -80.0 L 1004 -80.0 L 1005 -80.0 L 1006 -80.0 L 1007 -80.0 L 1008 -80.0 L 1009 -79.9 L 1010 -79.9 L 1011 -79.8 L 1012 -79.7 L 1013 -79.6 L 1014 -79.5 L 1015 -79.4 L 1016 -79.3 L 1017 -79.1 L 1018 -79.0 L 1019 -78.8 L 1020 -78.7 L 1021 -78.5 L 1022 -78.3 L 1023 -78.1 L 1024 -77.8 L 1025 -77.6 L 1026 -77.3 L 1027 -77.1 L 1028 -76.8 L 1029 -76.5 L 1030 -76.2 L 1031 -75.9 L 1032 -75.6 L 1033 -75.3 L 1034 -74.9 L 1035 -74.6 L 1036 -74.2 L 1037 -73.8 L 1038 -73.4 L 1039 -73.0 L 1040 -72.6 L 1041 -72.2 L 1042 -71.7 L 1043 -71.3 L 1044 -70.8 L 1045 -70.4 L 1046 -69.9 L 1047 -69.4 L 1048 -68.9 L 1049 -68.4 L 1050 -67.8 L 1051 -67.3 L 1052 -66.8 L 1053 -66.2 L 1054 -65.6 L 1055 -65.1 L 1056 -64.5 L 1057 -63.9 L 1058 -63.3 L 1059 -62.6 L 1060 -62.0 L 1061 -61.4 L 1062 -60.7 L 1063 -60.1 L 1064 -59.4 L 1065 -58.7 L 1066 -58.1 L 1067 -57.4 L 1068 -56.7 L 1069 -56.0 L 1070 -55.2 L 1071 -54.5 L 1072 -53.8 L 1073 -53.0 L 1074 -52.3 L 1075 -51.5 L 1076 -50.7 L 1077 -50.0 L 1078 -49.2 L 1079 -48.4 L 1080 -47.6 L 1081 -46.8 L 1082 -46.0 L 1083 -45.1 L 1084 -44.3 L 1085 -43.5 L 1086 -42.6 L 1087 -41.8 L 1088 -40.9 L 1089 -40.1 L 1090 -39.2 L 1091 -38.3 L 1092 -37.4 L 1093 -36.6 L 1094 -35.7 L 1095 -34.8 L 1096 -33.9 L 1097 -33.0 L 1098 -32.0 L 1099 -31.1 L 1100 -30.2 L 1101 -29.3 L 1102 -28.3 L 1103 -27.4 L 1104 -26.5 L 1105 -25.5 L 1106 -24.6 L 1107 -23.6 L 1108 -22.7 L 1109 -21.7 L 1110 -20.7 L 1111 -19.8 L 1112 -18.8 L 1113 -17.8 L 1114 -16.8 L 1115 -15.9 L 1116 -14.9 L 1117 -13.9 L 1118 -12.9 L 1119 -11.9 L 1120 -10.9 L 1121 -9.9 L 1122 -9.0 L 1123 -8.0 L 1124 -7.0 L 1125 -6.0 L 1126 -5.0 L 1127 -4.0 L 1128 -3.0 L 1129 -2.0 L 1130 -1.0 L 1131 0.0 L 1132 1.0 L 1133 2.0 L 1134 3.0 L 1135 4.0 L 1136 5.0 L 1137 6.0 L 1138 7.0 L 1139 8.0 L 1140 9.0 L 1141 10.0 L 1142 11.0 L 1143 12.0 L 1144 13.0 L 1145 14.0 L 1146 14.9 L 1147 15.9 L 1148 16.9 L 1149 17.9 L 1150 18.8 L 1151 19.8 L 1152 20.8 L 1153 21.7 L 1154 22.7 L 1155 23.7 L 1156 24.6 L 1157 25.6 L 1158 26.5 L 1159 27.5 L 1160 28.4 L 1161 29.3 L 1162 30.3 L 1163 31.2 L 1164 32.1 L 1165 33.0 L 1166 33.9 L 1167 34.8 L 1168 35.7 L 1169 36.6 L 1170 37.5 L 1171 38.4 L 1172 39.3 L 1173 40.1 L 1174 41.0 L 1175 41.8 L 1176 42.7 L 1177 43.5 L 1178 44.4 L 1179 45.2 L 1180 46.0 L 1181 46.8 L 1182 47.6 L 1183 48.4 L 1184 49.2 L 1185 50.0 L 1186 50.8 L 1187 51.6 L 1188 52.3 L 1189 53.1 L 1190 53.8 L 1191 54.6 L 1192 55.3 L 1193 56.0 L 1194 56.7 L 1195 57.4 L 1196 58.1 L 1197 58.8 L 1198 59.5 L 1199 60.1 " id="path-15" class="element"></path><line x1="-10000" y1="0" x2="10000" y2="0" class="default element" id="line-13"></line><line x1="0" y1="-10000" x2="0" y2="10000" class="default element" id="line-14"></line></g></g><text x="8" y="80" id="text-17" class="element">0</text><text x="251.32741228718345" y="80" id="text-18" class="element">π</text><text x="474.6548245743669" y="80" id="text-19" class="element">2π</text></g><g><g id="control-20" class="element control" transform="translate( 80, 56.77581553054882)"><circle class="control-point" r="4" cy="0" cx="0"></circle><circle class="control-handle" r="13" cy="0" cx="0"></circle></g></g></svg><svg xmlns="http://www.w3.org/2000/svg" width="200" height="200" id="interactive-21" class="element interactive" x="0" y="218"><g><rect x="0" y="0" width="200" height="200" class="default element" id="rectangle-22" style="stroke-width: 2;"></rect><text x="20" y="40" id="text-23" class="element">θ = 1.00</text><text x="20" y="80" id="text-24" class="element">x = 0.54</text><text x="20" y="120" id="text-25" class="element">y = 0.84</text></g><g><g id="button-26" class="element button" transform="translate(60,160)"><rect x="0" y="-16" width="87.15234375" height="32" class="default element" id="rectangle-28" rx="2px"></rect><text x="43.576171875" y="1" id="text-27" class="element" alignment-baseline="middle" style="text-anchor: middle;">animate</text></g></g></svg><svg xmlns="http://www.w3.org/2000/svg" width="502.6548245743669" height="200" id="interactive-29" class="element interactive" x="218" y="218"><g><rect x="0" y="0" width="502.6548245743669" height="200" class="default element" id="rectangle-30" style="stroke-width: 2;"></rect><g id="group-41" class="element" transform="translate(160,66.66666666666667)"><svg xmlns="http://www.w3.org/2000/svg" id="f591df06-f1ea-4c75-a50e-782d3148e860" data-name="Layer 2" width="150.68" height="73.98" viewBox="0 0 150.68 73.98" style=""><defs><style>.aec8cc31-db26-4c09-b755-17c89d4b81b7{fill:#333;}.be96c213-0e39-4826-95db-a8fc3460bd10{fill:none;stroke:#333;stroke-linecap:round;stroke-miterlimit:10;}</style></defs><title>cosine</title><path class="aec8cc31-db26-4c09-b755-17c89d4b81b7" d="M107.42,23.45a1.15,1.15,0,0,1-.85.35,1.08,1.08,0,0,1-.83-.35,1.2,1.2,0,0,1-.33-.84,1.66,1.66,0,0,1,.17-.7,2,2,0,0,1,1.15-.93,5.8,5.8,0,0,1,2.09-.33,4.68,4.68,0,0,1,2.51.66,3,3,0,0,1,1.4,1.72,2.42,2.42,0,0,1,.12.69c0,.26,0,1.1,0,2.52s0,2.28,0,2.52a1.18,1.18,0,0,0,.13.56.44.44,0,0,0,.44.31.42.42,0,0,0,.41-.31,3.28,3.28,0,0,0,.14-1.21v-.79h.88v.86a7.36,7.36,0,0,1-.07,1,2.07,2.07,0,0,1-2,1.43,1.45,1.45,0,0,1-1-.38,1.89,1.89,0,0,1-.58-.94v-.09l-.27.3-.28.32a3.81,3.81,0,0,1-2.51.9,4.31,4.31,0,0,1-2-.48A2.53,2.53,0,0,1,104.94,29a2.29,2.29,0,0,1-.17-.84,2.61,2.61,0,0,1,.86-1.89,4.07,4.07,0,0,1,1.25-.83,10.68,10.68,0,0,1,3.83-.82H111v-.48a3.25,3.25,0,0,0-.14-1.1,2.13,2.13,0,0,0-.77-1.15,2.22,2.22,0,0,0-1.36-.41c-1,0-1.47.05-1.47.17a1.1,1.1,0,0,1,.48,1A1.17,1.17,0,0,1,107.42,23.45Zm3.6,3.21a10.32,10.32,0,0,0,0-1.28l-.11,0c-2,.14-3.29.73-3.85,1.79a2,2,0,0,0-.24,1,1.67,1.67,0,0,0,.53,1.25,1.79,1.79,0,0,0,1.3.51,2.25,2.25,0,0,0,1.5-.53,2.46,2.46,0,0,0,.83-1.3A12.76,12.76,0,0,0,111,26.66Z"></path><path class="aec8cc31-db26-4c09-b755-17c89d4b81b7" d="M120.39,20.78a4.37,4.37,0,0,1,2.9,1.08V19.62c0-1.53,0-2.32,0-2.38a.72.72,0,0,0-.32-.56,2.71,2.71,0,0,0-1-.19h-.39V16c0-.34,0-.51,0-.51l.22,0,.64,0,.81-.05.82,0,.66-.06.24,0h.06v6.69c0,4.49,0,6.75,0,6.8a.76.76,0,0,0,.31.58,2.71,2.71,0,0,0,1,.19h.4v1l-1.68.11c-1.1.07-1.67.12-1.73.13h-.15V29.54l-.18.15a4.3,4.3,0,0,1-2.86,1.06,4,4,0,0,1-2.73-1,5.2,5.2,0,0,1-1.67-3.17,6.83,6.83,0,0,1,0-.77,5,5,0,0,1,1.36-3.57A4.37,4.37,0,0,1,120.39,20.78Zm2.84,2.2a3,3,0,0,0-2.49-1.38,2.67,2.67,0,0,0-1.91.79,2.83,2.83,0,0,0-.74,1.34,9.25,9.25,0,0,0-.19,2.14,4.63,4.63,0,0,0,.93,3.34,2.25,2.25,0,0,0,1.71.73,2.87,2.87,0,0,0,1.48-.42,3.17,3.17,0,0,0,1.12-1.15l.09-.13Z"></path><path class="aec8cc31-db26-4c09-b755-17c89d4b81b7" d="M127.87,34.09a6.08,6.08,0,0,0,.79.11,1.56,1.56,0,0,0,.46-.06c.62-.22,1-.87,1.1-1.94,0-.17.05-1.77.05-4.79s0-4.58,0-4.67a.68.68,0,0,0-.37-.56,3.16,3.16,0,0,0-1-.14h-.44v-.51c0-.34,0-.5,0-.5l.09,0h.26l.38,0,.47,0,.54,0,.85-.06.68-.05.25,0h.09v5.68c0,3.23,0,5,0,5.36a2.49,2.49,0,0,1-.12.84,3.37,3.37,0,0,1-1.23,1.69,3.51,3.51,0,0,1-2.13.67,3,3,0,0,1-1.74-.52,1.63,1.63,0,0,1-.75-1.42,1.12,1.12,0,0,1,.33-.83,1.14,1.14,0,0,1,.84-.33,1.18,1.18,0,0,1,1.19,1.18A1.27,1.27,0,0,1,127.87,34.09Zm2.9-18.3a1.38,1.38,0,0,1,.9.39,1.2,1.2,0,0,1,.36.93,1.17,1.17,0,0,1-.6,1.12,1.2,1.2,0,0,1-.7.2,1.26,1.26,0,0,1-.73-.2,1.18,1.18,0,0,1-.59-1.12,1.28,1.28,0,0,1,.38-1A1.43,1.43,0,0,1,130.77,15.79Z"></path><path class="aec8cc31-db26-4c09-b755-17c89d4b81b7" d="M105.1,61c.11.2.46.3,1,.3h.66v1h-.17a20.44,20.44,0,0,0-2.47-.07,20.09,20.09,0,0,0-2.46.07h-.18v-1h.66c.57,0,.92-.1,1-.3V59.57c0-.28,0-.6,0-1s0-.72,0-1.1V53.33c0-.61,0-1.15,0-1.64s0-.93,0-1.33V49a.73.73,0,0,0-.32-.56,2.5,2.5,0,0,0-1-.19h-.4v-.5c0-.34,0-.51,0-.51l.22,0,.63,0,.82,0,.81-.06.66-.05.24,0H105v7.19a4,4,0,0,1,3.17-1.65q2.7,0,3,2.49c0,.1,0,1.12,0,3.06s0,2.83,0,2.86a.53.53,0,0,0,.27.24,8.27,8.27,0,0,0,1.07.06h.36v1h-.18a20.09,20.09,0,0,0-2.46-.07,20.19,20.19,0,0,0-2.47.07h-.17v-1h.52c.78,0,1.17-.11,1.17-.35,0,0,0-1,0-3s0-3,0-3.15a2,2,0,0,0-.5-1,1.43,1.43,0,0,0-1-.32,2.39,2.39,0,0,0-1.74.75,3.15,3.15,0,0,0-.9,1.93v.41c0,.26,0,.58,0,1s0,.77,0,1.12v.69c0,.25,0,.46,0,.65s0,.36,0,.52V61Z"></path><path class="aec8cc31-db26-4c09-b755-17c89d4b81b7" d="M113.93,64.05a1.09,1.09,0,0,1,.78-.3,1,1,0,0,1,.77.32,1.06,1.06,0,0,1,.31.78,1.1,1.1,0,0,1-.18.59.83.83,0,0,1-.41.38c-.06,0-.06.05,0,.08a.88.88,0,0,0,.44.09,1.51,1.51,0,0,0,.63-.13,2.22,2.22,0,0,0,1.06-.88,9,9,0,0,0,.81-1.74l.38-.94-1.59-4-1.65-4.11q-.15-.33-1.14-.33h-.53v-1h.16a14.7,14.7,0,0,0,2.11.07,21.23,21.23,0,0,0,2.44-.07h.18v1h-.2c-.69,0-1,.12-1,.37l2.23,5.63s.33-.86,1-2.53l1-2.51V54.6a.67.67,0,0,0-.27-.56,1,1,0,0,0-.66-.21h-.06v-1h.13a17.43,17.43,0,0,0,1.87,0c.81,0,1.4,0,1.78,0h.11v1h-.24a1.89,1.89,0,0,0-1.65.88s-.35.84-1,2.43-1.27,3.25-2,5a24.45,24.45,0,0,1-1.36,3.07,3.32,3.32,0,0,1-2,1.58,2.45,2.45,0,0,1-.46,0,2.11,2.11,0,0,1-1.48-.53,1.83,1.83,0,0,1-.59-1.4A1,1,0,0,1,113.93,64.05Z"></path><path class="aec8cc31-db26-4c09-b755-17c89d4b81b7" d="M125.6,65.55h.31c.57,0,.92-.1,1-.31v-.6c0-.18,0-.4,0-.65s0-.54,0-.86V57c0-.43,0-.82,0-1.18s0-.64,0-.85v-.35a.73.73,0,0,0-.32-.56,2.64,2.64,0,0,0-1-.18h-.4v-.51c0-.34,0-.51,0-.51l.22,0,.64,0,.82,0,.81-.05.66-.06.24,0h.07v.57l0,.58.18-.16a5.07,5.07,0,0,1,3-1,3.92,3.92,0,0,1,.71,0,4.19,4.19,0,0,1,2.57,1.65,5.15,5.15,0,0,1,1,3.25,6.08,6.08,0,0,1,0,.77,5,5,0,0,1-1.07,2.47A5,5,0,0,1,133,62.32a4.45,4.45,0,0,1-1.36.22,3.94,3.94,0,0,1-2.64-1l-.18-.15v1.87q0,1.91,0,1.95a.46.46,0,0,0,.26.25,8.54,8.54,0,0,0,1.08.06h.35v1h-.18a50.46,50.46,0,0,0-4.92,0h-.18v-1Zm8.54-8a5.33,5.33,0,0,0-.67-2.68,2.48,2.48,0,0,0-1.64-1.35h-.31a3.41,3.41,0,0,0-2.71,1.43v5.26a2.74,2.74,0,0,0,2.47,1.58,2.25,2.25,0,0,0,1.67-.81A4.72,4.72,0,0,0,134.14,57.5Z"></path><line class="be96c213-0e39-4826-95db-a8fc3460bd10" x1="95.32" y1="41.37" x2="142.68" y2="41.37"></line><path class="aec8cc31-db26-4c09-b755-17c89d4b81b7" d="M16.55,40.37a1.17,1.17,0,0,1-.85.32,1.11,1.11,0,0,1-.84-.34,1.24,1.24,0,0,1,0-1.66c.08-.07.11-.12.1-.13s-.07,0-.21-.05a8.32,8.32,0,0,0-1.07-.08,2.24,2.24,0,0,0-1.76.7,4.76,4.76,0,0,0-1,3.45,5.14,5.14,0,0,0,.68,2.84A2.78,2.78,0,0,0,14,46.76a2,2,0,0,0,1-.22,2.55,2.55,0,0,0,1.28-1.71c0-.12.06-.19.11-.22a.75.75,0,0,1,.35,0H17c.09.09.13.16.13.2a2.91,2.91,0,0,1-.55,1.3,3.54,3.54,0,0,1-3.1,1.58,4.5,4.5,0,0,1-2.09-.5A4.86,4.86,0,0,1,8.77,43.4c0-.09,0-.32,0-.71s0-.62,0-.72a5.11,5.11,0,0,1,1.81-3.37,4.55,4.55,0,0,1,2.92-1.05c1.89,0,3,.49,3.32,1.49a1.46,1.46,0,0,1,.07.51A1.05,1.05,0,0,1,16.55,40.37Z"></path><path class="aec8cc31-db26-4c09-b755-17c89d4b81b7" d="M18.38,42.69a5,5,0,0,1,1.28-3.44,4.78,4.78,0,0,1,3.06-1.66,4.39,4.39,0,0,1,.55,0A4.58,4.58,0,0,1,26.59,39a5.07,5.07,0,0,1,1.54,3.72,6.14,6.14,0,0,1-.11,1,4.78,4.78,0,0,1-1.24,2.41,4.86,4.86,0,0,1-2.37,1.37,4.41,4.41,0,0,1-1.14.13,4.6,4.6,0,0,1-1.17-.13,4.78,4.78,0,0,1-2.68-1.75A4.83,4.83,0,0,1,18.38,42.69Zm5.28-4.31-.35,0a3.11,3.11,0,0,0-1.25.26A2.92,2.92,0,0,0,20.58,41c0,.27,0,.74,0,1.41a7.51,7.51,0,0,0,.42,3,2.42,2.42,0,0,0,2.31,1.34q2.68,0,2.68-3.58v-.71a10.23,10.23,0,0,0-.11-1.93A2.62,2.62,0,0,0,23.66,38.38Z"></path><path class="aec8cc31-db26-4c09-b755-17c89d4b81b7" d="M33,38.29c-1.35,0-2,.48-2,1.43a1,1,0,0,0,0,.38,1.34,1.34,0,0,0,.68.76,7.28,7.28,0,0,0,1.5.43,5.66,5.66,0,0,1,1.71.48A3.17,3.17,0,0,1,36.64,44a2.92,2.92,0,0,1,0,.53A3.6,3.6,0,0,1,36.36,46a3.31,3.31,0,0,1-3.24,1.63,3.46,3.46,0,0,1-2.28-.79l-.18.15-.2.2a2.84,2.84,0,0,1-.26.24l-.24.22h-.18a.41.41,0,0,1-.29-.13V45.77c0-1,0-1.5,0-1.65a.33.33,0,0,1,.1-.26,1.87,1.87,0,0,1,.36,0,.75.75,0,0,1,.34,0,.93.93,0,0,1,.12.31A5.31,5.31,0,0,0,31,45.71a2.43,2.43,0,0,0,2.13,1.12c1.43,0,2.14-.57,2.14-1.72a1.37,1.37,0,0,0-.4-1,1.82,1.82,0,0,0-.92-.59l-1.06-.25a7.28,7.28,0,0,1-1.67-.46,2.72,2.72,0,0,1-1.69-2,1.21,1.21,0,0,1,0-.33c0-1.69,1-2.64,3.11-2.84a1.34,1.34,0,0,1,.52,0,3.39,3.39,0,0,1,1.54.33l.33.17.2-.15a3.69,3.69,0,0,1,.49-.37h.17a.41.41,0,0,1,.29.13v2.9l-.13.13h-.62a.35.35,0,0,1-.13-.26,2.06,2.06,0,0,0-.62-1.58A2.39,2.39,0,0,0,33,38.29Z"></path><path class="aec8cc31-db26-4c09-b755-17c89d4b81b7" d="M44.76,52.7c0,.14-.13.2-.39.2h-.29l-.62-.53q-4-3.6-4-10.47a17.89,17.89,0,0,1,.64-4.9,11.89,11.89,0,0,1,3.32-5.57l.36-.3a2.59,2.59,0,0,0,.26-.23h.29a.5.5,0,0,1,.33.07.19.19,0,0,1,.06.13q0,.09-.24.33Q41.11,35,41.11,41.9t3.41,10.47Q44.76,52.63,44.76,52.7Z"></path><path class="aec8cc31-db26-4c09-b755-17c89d4b81b7" d="M53,31.91h.44A2.41,2.41,0,0,1,55.3,33a6.39,6.39,0,0,1,.86,3.54,7.75,7.75,0,0,1,0,1,16.11,16.11,0,0,1-1.51,5.48,12.46,12.46,0,0,1-1.75,2.72,6.61,6.61,0,0,1-2,1.65,2.92,2.92,0,0,1-1.19.31h-.15a2.13,2.13,0,0,1-1.61-.68A5.57,5.57,0,0,1,46.76,43,12.63,12.63,0,0,1,47,40.78a14.43,14.43,0,0,1,3.33-7.19A4.7,4.7,0,0,1,53,31.91Zm.35,8.74.11-.38H49.18l0,.16a18.86,18.86,0,0,0-.68,4.07A3.1,3.1,0,0,0,49,46.57a.84.84,0,0,0,.64.26c.58,0,1.2-.48,1.84-1.43A15.61,15.61,0,0,0,53.36,40.65ZM54.42,35c0-1.5-.39-2.24-1.17-2.24a2.06,2.06,0,0,0-1.49.94,11.79,11.79,0,0,0-1.87,4,9.28,9.28,0,0,0-.44,1.63l2.13,0,2.14,0a8.18,8.18,0,0,0,.39-1.72A13.92,13.92,0,0,0,54.42,35Z"></path><path class="aec8cc31-db26-4c09-b755-17c89d4b81b7" d="M57.63,30.92l.09,0h.48l.62.53q4,3.62,4,10.47a17.24,17.24,0,0,1-.64,4.89,11.8,11.8,0,0,1-3.32,5.58l-.35.3-.27.23h-.26a.81.81,0,0,1-.34,0c-.05,0-.08-.1-.08-.22s.1-.11.24-.29q3.42-3.54,3.41-10.45T57.76,31.45a2.91,2.91,0,0,0-.24-.28A.28.28,0,0,1,57.63,30.92Z"></path><path class="aec8cc31-db26-4c09-b755-17c89d4b81b7" d="M71.6,39.77a.47.47,0,0,1,.31-.44h14a.48.48,0,0,1,.33.44.51.51,0,0,1-.3.42l-7,0H72A.44.44,0,0,1,71.6,39.77Zm0,4.27A.44.44,0,0,1,72,43.6H86l.09.07.12.09a.36.36,0,0,1,.06.11.47.47,0,0,1,0,.17.49.49,0,0,1-.33.44h-14A.48.48,0,0,1,71.6,44Z"></path></svg><svg xmlns="http://www.w3.org/2000/svg" id="b68a17ee-95ac-41af-be89-033de7e03ed8" data-name="Layer 2" width="150.68" height="73.98" viewBox="0 0 150.68 73.98" style="display: none;"><defs><style>.acff0dd8-5260-42f1-a102-d2610ecc3e18{fill:#333;}.a6ac49f0-2712-46fe-b226-b9dd3ef5cec9{fill:none;stroke:#333;stroke-linecap:round;stroke-miterlimit:10;}</style></defs><title>sine</title><path class="acff0dd8-5260-42f1-a102-d2610ecc3e18" d="M103.26,25.8a5,5,0,0,1,1.28-3.44,4.74,4.74,0,0,1,3.06-1.66,4.61,4.61,0,0,1,.55-.05,4.55,4.55,0,0,1,3.32,1.41A5.11,5.11,0,0,1,113,25.78a6,6,0,0,1-.11,1,4.64,4.64,0,0,1-1.25,2.41,4.72,4.72,0,0,1-3.5,1.51A5,5,0,0,1,107,30.6a4.8,4.8,0,0,1-2.68-1.75A4.85,4.85,0,0,1,103.26,25.8Zm5.28-4.31a1.58,1.58,0,0,0-.35,0,3,3,0,0,0-1.25.26,2.87,2.87,0,0,0-1.48,2.4c0,.26,0,.73,0,1.41a7.51,7.51,0,0,0,.42,3,2.4,2.4,0,0,0,2.31,1.34c1.78,0,2.68-1.2,2.68-3.59v-.7a11.33,11.33,0,0,0-.11-1.94A2.61,2.61,0,0,0,108.54,21.49Z"></path><path class="acff0dd8-5260-42f1-a102-d2610ecc3e18" d="M114.44,33.76h.3c.58,0,.92-.1,1-.3v-.61c0-.18,0-.4,0-.65s0-.53,0-.86V25.16c0-.42,0-.82,0-1.18s0-.64,0-.85v-.34a.74.74,0,0,0-.32-.57,2.71,2.71,0,0,0-1-.18h-.39v-.51c0-.34,0-.5,0-.5l.22,0,.64,0,.81,0,.82-.06.66-.05.24,0h.06v.58l0,.57.17-.16a5.11,5.11,0,0,1,3-1,4,4,0,0,1,.7,0,4.28,4.28,0,0,1,2.58,1.65,5.22,5.22,0,0,1,1,3.26c0,.27,0,.53,0,.77A5.09,5.09,0,0,1,124,29a5.17,5.17,0,0,1-2.19,1.54,4.21,4.21,0,0,1-1.36.22,4,4,0,0,1-2.65-1l-.17-.15V31.5c0,1.27,0,1.93,0,2a.53.53,0,0,0,.27.24,8.27,8.27,0,0,0,1.07.06h.36v1h-.18a20.09,20.09,0,0,0-2.46-.07,20.19,20.19,0,0,0-2.47.07h-.17v-1Zm8.53-8A5.25,5.25,0,0,0,122.3,23a2.42,2.42,0,0,0-1.64-1.34h-.14l-.16,0a3.39,3.39,0,0,0-2.71,1.43v5.26a2.74,2.74,0,0,0,2.46,1.59,2.19,2.19,0,0,0,1.67-.82A4.68,4.68,0,0,0,123,25.71Z"></path><path class="acff0dd8-5260-42f1-a102-d2610ecc3e18" d="M126.67,33.76H127c.57,0,.91-.1,1-.3v-.61c0-.18,0-.4,0-.65s0-.53,0-.86V25.16c0-.42,0-.82,0-1.18s0-.64,0-.85v-.34a.74.74,0,0,0-.32-.57,2.71,2.71,0,0,0-1-.18h-.39v-.51c0-.34,0-.5,0-.5l.22,0,.64,0,.81,0,.82-.06.66-.05.24,0h.07v.58l0,.57.17-.16a5.11,5.11,0,0,1,3-1,3.93,3.93,0,0,1,.7,0,4.28,4.28,0,0,1,2.58,1.65,5.16,5.16,0,0,1,1,3.26,6.29,6.29,0,0,1,0,.77,5,5,0,0,1-3.26,4,4.17,4.17,0,0,1-1.36.22,3.94,3.94,0,0,1-2.64-1l-.18-.15V31.5c0,1.27,0,1.93,0,2a.53.53,0,0,0,.27.24,8.43,8.43,0,0,0,1.08.06h.35v1h-.18a20.09,20.09,0,0,0-2.46-.07,20.31,20.31,0,0,0-2.47.07h-.17v-1Zm8.54-8a5.26,5.26,0,0,0-.68-2.68,2.4,2.4,0,0,0-1.63-1.34h-.15l-.16,0a3.4,3.4,0,0,0-2.71,1.43v5.26a2.74,2.74,0,0,0,2.47,1.59,2.22,2.22,0,0,0,1.67-.82A4.72,4.72,0,0,0,135.21,25.71Z"></path><path class="acff0dd8-5260-42f1-a102-d2610ecc3e18" d="M106.47,61c.12.2.46.3,1,.3h.66v1H108a20.09,20.09,0,0,0-2.46-.07,20.19,20.19,0,0,0-2.47.07h-.17v-1h.66c.57,0,.91-.1,1-.3V59.57c0-.28,0-.6,0-1s0-.72,0-1.1V53.33c0-.61,0-1.15,0-1.64s0-.93,0-1.33V49a.7.7,0,0,0-.32-.56,2.46,2.46,0,0,0-1-.19h-.39v-.5c0-.34,0-.51,0-.51l.22,0,.64,0,.81,0,.82-.06.66-.05.24,0h.06v7.19a4,4,0,0,1,3.17-1.65q2.72,0,3,2.49c0,.1,0,1.12,0,3.06s0,2.83,0,2.86a.47.47,0,0,0,.26.24,8.54,8.54,0,0,0,1.08.06h.35v1h-.18a20.09,20.09,0,0,0-2.46-.07,20.09,20.09,0,0,0-2.46.07H109v-1h.53c.78,0,1.16-.11,1.16-.35t0-3c0-2,0-3,0-3.15a2,2,0,0,0-.49-1,1.47,1.47,0,0,0-1-.32,2.39,2.39,0,0,0-1.74.75,3.15,3.15,0,0,0-.9,1.93v.41c0,.26,0,.58,0,1s0,.77,0,1.12v.69c0,.25,0,.46,0,.65s0,.36,0,.52V61Z"></path><path class="acff0dd8-5260-42f1-a102-d2610ecc3e18" d="M115.31,64.05a1.09,1.09,0,0,1,.78-.3,1,1,0,0,1,.77.32,1.14,1.14,0,0,1,.13,1.37.89.89,0,0,1-.42.38c-.06,0-.06.05,0,.08A.88.88,0,0,0,117,66a1.59,1.59,0,0,0,.64-.13,2.2,2.2,0,0,0,1-.88,9,9,0,0,0,.82-1.74l.37-.94-1.58-4-1.65-4.11q-.15-.33-1.14-.33H115v-1h.15a14.8,14.8,0,0,0,2.11.07,21.46,21.46,0,0,0,2.45-.07h.17v1h-.2c-.69,0-1,.12-1,.37l2.22,5.63,1-2.53,1-2.51V54.6a.68.68,0,0,0-.26-.56,1,1,0,0,0-.66-.21h-.07v-1H122a17.73,17.73,0,0,0,1.87,0c.81,0,1.4,0,1.79,0h.1v1h-.24a1.89,1.89,0,0,0-1.65.88s-.35.84-1,2.43-1.27,3.25-2,5a23.82,23.82,0,0,1-1.37,3.07,3.3,3.3,0,0,1-2,1.58,2.52,2.52,0,0,1-.46,0,2.14,2.14,0,0,1-1.49-.53,1.82,1.82,0,0,1-.58-1.4A1,1,0,0,1,115.31,64.05Z"></path><path class="acff0dd8-5260-42f1-a102-d2610ecc3e18" d="M127,65.55h.3c.58,0,.92-.1,1-.31v-.6c0-.18,0-.4,0-.65s0-.54,0-.86V57c0-.43,0-.82,0-1.18s0-.64,0-.85v-.35A.76.76,0,0,0,128,54a2.76,2.76,0,0,0-1-.18h-.4v-.51c0-.34,0-.51,0-.51l.22,0,.64,0,.81,0,.81-.05.66-.06.25,0h.06v.57l0,.58.18-.16a5.1,5.1,0,0,1,3-1,3.79,3.79,0,0,1,.7,0,4.14,4.14,0,0,1,2.57,1.65,5.16,5.16,0,0,1,1,3.25,6,6,0,0,1,0,.77,5,5,0,0,1-1.06,2.47,5.17,5.17,0,0,1-2.19,1.54,4.52,4.52,0,0,1-1.37.22,4,4,0,0,1-2.64-1l-.17-.15v1.87c0,1.27,0,1.92,0,1.95a.53.53,0,0,0,.26.25,8.54,8.54,0,0,0,1.08.06h.35v1h-.17a50.67,50.67,0,0,0-4.93,0h-.18v-1Zm8.53-8a5.23,5.23,0,0,0-.67-2.68,2.46,2.46,0,0,0-1.64-1.35h-.31a3.38,3.38,0,0,0-2.7,1.43v5.26a2.73,2.73,0,0,0,2.46,1.58,2.21,2.21,0,0,0,1.67-.81A4.68,4.68,0,0,0,135.51,57.5Z"></path><line class="a6ac49f0-2712-46fe-b226-b9dd3ef5cec9" x1="95.32" y1="41.37" x2="142.68" y2="41.37"></line><path class="acff0dd8-5260-42f1-a102-d2610ecc3e18" d="M12.18,38.29c-1.35,0-2,.48-2,1.43a1.06,1.06,0,0,0,0,.38,1.34,1.34,0,0,0,.68.76,7.28,7.28,0,0,0,1.5.43,5.57,5.57,0,0,1,1.71.48A3.21,3.21,0,0,1,15.88,44a5.23,5.23,0,0,1,0,.53A3.45,3.45,0,0,1,15.59,46a3.3,3.3,0,0,1-3.23,1.63,3.48,3.48,0,0,1-2.29-.79L9.89,47l-.2.2a2,2,0,0,1-.26.24l-.24.22H9a.37.37,0,0,1-.28-.13V45.77c0-1,0-1.5,0-1.65s0-.23.1-.26a1.73,1.73,0,0,1,.35,0,.75.75,0,0,1,.34,0,.62.62,0,0,1,.12.31,5.31,5.31,0,0,0,.57,1.52,2.46,2.46,0,0,0,2.14,1.12c1.42,0,2.13-.57,2.13-1.72a1.37,1.37,0,0,0-.4-1,1.82,1.82,0,0,0-.92-.59l-1.06-.25a7.44,7.44,0,0,1-1.67-.46,2.72,2.72,0,0,1-1.69-2,1.34,1.34,0,0,1,0-.33c0-1.69,1-2.64,3.1-2.84a1.39,1.39,0,0,1,.53,0,3.42,3.42,0,0,1,1.54.33l.33.17.19-.15a5.71,5.71,0,0,1,.49-.37h.17a.39.39,0,0,1,.29.13v2.9l-.13.13h-.62a.35.35,0,0,1-.13-.26,2.06,2.06,0,0,0-.62-1.58A2.39,2.39,0,0,0,12.18,38.29Z"></path><path class="acff0dd8-5260-42f1-a102-d2610ecc3e18" d="M22.1,47.4a20.6,20.6,0,0,0-2.29-.06c-1.33,0-2.13,0-2.39.06h-.18v-1h.35a6.91,6.91,0,0,0,1.08-.07.41.41,0,0,0,.26-.24s0-1.09,0-3.19a29.81,29.81,0,0,0-.09-3.52c-.12-.29-.55-.44-1.3-.44h-.24v-.5c0-.34,0-.51,0-.51l.22,0,.62,0,.79,0,.79-.05.64-.06.24,0h.07V46a.49.49,0,0,0,.26.27,3,3,0,0,0,.77.08h.51v1ZM19.55,32.68a1.38,1.38,0,0,1,.9.39,1.22,1.22,0,0,1,.35.93,1.18,1.18,0,0,1-.59,1.13,1.22,1.22,0,0,1-.7.19,1.26,1.26,0,0,1-.73-.19A1.18,1.18,0,0,1,18.19,34a1.21,1.21,0,0,1,.38-1A1.38,1.38,0,0,1,19.55,32.68Z"></path><path class="acff0dd8-5260-42f1-a102-d2610ecc3e18" d="M26.92,46.08c.12.21.46.31,1,.31h.67v1h-.18A24.49,24.49,0,0,0,26,47.34a24.36,24.36,0,0,0-2.46.06h-.18v-1H24c.58,0,.92-.1,1-.31V45.4c0-.2,0-.44,0-.69s0-.55,0-.86v-.91c0-.46,0-.95,0-1.47s0-.95,0-1.28v-.51a.7.7,0,0,0-.32-.56,2.5,2.5,0,0,0-1-.19h-.4v-.5c0-.34,0-.51.05-.51l.22,0,.63,0,.8,0,.79-.05.64-.06.24,0h.07v.88a5.12,5.12,0,0,0,0,.83l0,0a3.86,3.86,0,0,1,3.37-1.69A2.57,2.57,0,0,1,33,40.16c0,.11,0,1.13,0,3.06s0,2.83,0,2.86a.46.46,0,0,0,.27.24,6.91,6.91,0,0,0,1.08.07h.35v1h-.18a24.36,24.36,0,0,0-2.46-.06,24.64,24.64,0,0,0-2.47.06h-.17v-1H30c.77,0,1.16-.12,1.16-.35,0,0,0-1,0-3s0-3,0-3.14a2,2,0,0,0-.49-1,1.52,1.52,0,0,0-1.05-.32,2.39,2.39,0,0,0-1.74.75,3.2,3.2,0,0,0-.9,1.94v.41c0,.25,0,.58,0,1s0,.77,0,1.13v.69c0,.24,0,.46,0,.65s0,.36,0,.52v.51Z"></path><path class="acff0dd8-5260-42f1-a102-d2610ecc3e18" d="M42.34,52.7c0,.14-.13.2-.39.2h-.29L41,52.37c-2.63-2.4-4-5.89-4-10.47a17.89,17.89,0,0,1,.64-4.9A11.89,11.89,0,0,1,41,31.43l.36-.3a2.59,2.59,0,0,0,.26-.23H42a.5.5,0,0,1,.33.07.19.19,0,0,1,.06.13q0,.09-.24.33Q38.69,35,38.69,41.9T42.1,52.37Q42.34,52.63,42.34,52.7Z"></path><path class="acff0dd8-5260-42f1-a102-d2610ecc3e18" d="M50.59,31.91H51A2.41,2.41,0,0,1,52.88,33a6.39,6.39,0,0,1,.86,3.54,7.75,7.75,0,0,1-.05,1,16.11,16.11,0,0,1-1.51,5.48,12.46,12.46,0,0,1-1.75,2.72,6.61,6.61,0,0,1-2,1.65,2.92,2.92,0,0,1-1.19.31h-.15a2.13,2.13,0,0,1-1.61-.68A5.57,5.57,0,0,1,44.34,43a12.63,12.63,0,0,1,.22-2.22,14.43,14.43,0,0,1,3.33-7.19A4.7,4.7,0,0,1,50.59,31.91Zm.35,8.74.11-.38H46.76l0,.16a18.86,18.86,0,0,0-.68,4.07,3.1,3.1,0,0,0,.53,2.07.84.84,0,0,0,.64.26c.58,0,1.2-.48,1.84-1.43A15.61,15.61,0,0,0,50.94,40.65ZM52,35c0-1.5-.39-2.24-1.17-2.24a2.06,2.06,0,0,0-1.49.94,11.79,11.79,0,0,0-1.87,4A9.28,9.28,0,0,0,47,39.24l2.13,0,2.14,0a8.18,8.18,0,0,0,.39-1.72A13.92,13.92,0,0,0,52,35Z"></path><path class="acff0dd8-5260-42f1-a102-d2610ecc3e18" d="M55.21,30.92l.09,0h.48l.62.53q4,3.62,4,10.47a17.24,17.24,0,0,1-.64,4.89,11.8,11.8,0,0,1-3.32,5.58l-.35.3-.27.23h-.26a.81.81,0,0,1-.34,0s-.08-.1-.08-.22.1-.11.24-.29q3.42-3.54,3.41-10.45T55.34,31.45a2.91,2.91,0,0,0-.24-.28A.28.28,0,0,1,55.21,30.92Z"></path><path class="acff0dd8-5260-42f1-a102-d2610ecc3e18" d="M69.18,39.77a.47.47,0,0,1,.31-.44h14a.48.48,0,0,1,.33.44.51.51,0,0,1-.3.42l-7,0h-7A.44.44,0,0,1,69.18,39.77Zm0,4.27a.44.44,0,0,1,.35-.44h14l.09.07.12.09a.36.36,0,0,1,.06.11.47.47,0,0,1,0,.17.49.49,0,0,1-.33.44h-14A.48.48,0,0,1,69.18,44Z"></path></svg><svg xmlns="http://www.w3.org/2000/svg" id="bb0285fc-d748-47cf-a94a-98b3778a2270" data-name="Layer 2" width="150.68" height="73.98" viewBox="0 0 150.68 73.98" style="display: none;"><defs><style>.ac405426-a6c9-45ca-9e0e-ccf1136aba0e{fill:#333;}.bc64f476-72d0-495a-85d9-bc2420c9ef5a{fill:none;stroke:#333;stroke-linecap:round;stroke-miterlimit:10;}</style></defs><title>tangent</title><path class="ac405426-a6c9-45ca-9e0e-ccf1136aba0e" d="M101.73,25.8A5,5,0,0,1,103,22.36a4.74,4.74,0,0,1,3.06-1.66,4.61,4.61,0,0,1,.55-.05,4.55,4.55,0,0,1,3.32,1.41,5.11,5.11,0,0,1,1.54,3.72,6,6,0,0,1-.11,1,4.64,4.64,0,0,1-1.25,2.41,4.72,4.72,0,0,1-3.5,1.51,5.1,5.1,0,0,1-1.17-.13,4.8,4.8,0,0,1-2.68-1.75A4.85,4.85,0,0,1,101.73,25.8ZM107,21.49a1.58,1.58,0,0,0-.35,0,3,3,0,0,0-1.25.26,2.87,2.87,0,0,0-1.48,2.4c0,.26,0,.73,0,1.41a7.51,7.51,0,0,0,.42,3,2.41,2.41,0,0,0,2.31,1.34c1.78,0,2.68-1.2,2.68-3.59v-.7a11.33,11.33,0,0,0-.11-1.94A2.61,2.61,0,0,0,107,21.49Z"></path><path class="ac405426-a6c9-45ca-9e0e-ccf1136aba0e" d="M112.91,33.76h.31c.57,0,.91-.1,1-.3v-.61c0-.18,0-.4,0-.65s0-.53,0-.86V25.16c0-.42,0-.82,0-1.18s0-.64,0-.85v-.34a.74.74,0,0,0-.32-.57,2.71,2.71,0,0,0-1-.18h-.39v-.51c0-.34,0-.5,0-.5l.22,0,.64,0,.81,0,.82-.06.66-.05.24,0h.06v.58l0,.57.17-.16a5.11,5.11,0,0,1,3-1,4,4,0,0,1,.7,0,4.28,4.28,0,0,1,2.58,1.65,5.16,5.16,0,0,1,1,3.26c0,.27,0,.53,0,.77A5.09,5.09,0,0,1,122.49,29a5.17,5.17,0,0,1-2.19,1.54,4.21,4.21,0,0,1-1.36.22,3.94,3.94,0,0,1-2.64-1l-.18-.15V31.5c0,1.27,0,1.93,0,2a.53.53,0,0,0,.27.24,8.27,8.27,0,0,0,1.07.06h.36v1h-.18a20.09,20.09,0,0,0-2.46-.07,20.19,20.19,0,0,0-2.47.07h-.17v-1Zm8.53-8a5.25,5.25,0,0,0-.67-2.68,2.42,2.42,0,0,0-1.64-1.34H119l-.16,0a3.39,3.39,0,0,0-2.71,1.43v5.26a2.74,2.74,0,0,0,2.46,1.59,2.23,2.23,0,0,0,1.68-.82A4.71,4.71,0,0,0,121.44,25.71Z"></path><path class="ac405426-a6c9-45ca-9e0e-ccf1136aba0e" d="M125.14,33.76h.31c.57,0,.91-.1,1-.3v-.61c0-.18,0-.4,0-.65s0-.53,0-.86V25.16c0-.42,0-.82,0-1.18s0-.64,0-.85v-.34a.74.74,0,0,0-.32-.57,2.71,2.71,0,0,0-1-.18h-.39v-.51c0-.34,0-.5,0-.5l.22,0,.64,0,.81,0,.82-.06.66-.05.24,0h.07v.58l0,.57.17-.16a5.11,5.11,0,0,1,3-1,3.93,3.93,0,0,1,.7,0,4.28,4.28,0,0,1,2.58,1.65,5.16,5.16,0,0,1,1,3.26,6.29,6.29,0,0,1,0,.77,5,5,0,0,1-3.26,4,4.17,4.17,0,0,1-1.36.22,3.94,3.94,0,0,1-2.64-1l-.18-.15V31.5c0,1.27,0,1.93,0,2a.53.53,0,0,0,.27.24,8.43,8.43,0,0,0,1.08.06h.35v1h-.18a20.09,20.09,0,0,0-2.46-.07,20.31,20.31,0,0,0-2.47.07h-.17v-1Zm8.54-8A5.36,5.36,0,0,0,133,23a2.44,2.44,0,0,0-1.64-1.34h-.15l-.16,0a3.4,3.4,0,0,0-2.71,1.43v5.26a2.74,2.74,0,0,0,2.47,1.59,2.22,2.22,0,0,0,1.67-.82A4.72,4.72,0,0,0,133.68,25.71Z"></path><path class="ac405426-a6c9-45ca-9e0e-ccf1136aba0e" d="M107.26,55.23a1.16,1.16,0,0,1-1.68,0,1.16,1.16,0,0,1-.33-.83,1.77,1.77,0,0,1,.18-.71,2,2,0,0,1,1.14-.92,5.84,5.84,0,0,1,2.09-.33,4.69,4.69,0,0,1,2.52.66,3.08,3.08,0,0,1,1.4,1.72,2.36,2.36,0,0,1,.12.69c0,.26,0,1.1,0,2.52s0,2.27,0,2.52a1.33,1.33,0,0,0,.12.56.47.47,0,0,0,.44.31.45.45,0,0,0,.42-.31,3.36,3.36,0,0,0,.13-1.21v-.79h.88V60a6.59,6.59,0,0,1-.06,1,2.13,2.13,0,0,1-.73,1,2,2,0,0,1-1.25.41,1.4,1.4,0,0,1-1-.39,2,2,0,0,1-.59-.93V61s-.13.14-.26.3l-.29.32a3.78,3.78,0,0,1-2.5.9,4.17,4.17,0,0,1-2-.49,2.44,2.44,0,0,1-1.21-1.27,2.12,2.12,0,0,1-.18-.84,2.63,2.63,0,0,1,.86-1.89,4.08,4.08,0,0,1,1.26-.84,10.85,10.85,0,0,1,3.82-.81h.31v-.48a3.3,3.3,0,0,0-.13-1.1,2.1,2.1,0,0,0-2.13-1.57c-1,0-1.48.06-1.48.18a1.11,1.11,0,0,1,.49,1A1.14,1.14,0,0,1,107.26,55.23Zm3.6,3.22c0-.85,0-1.28,0-1.28l-.11,0c-2,.13-3.29.73-3.85,1.78a2.07,2.07,0,0,0-.24,1,1.66,1.66,0,0,0,.53,1.26,1.77,1.77,0,0,0,1.29.5A2.27,2.27,0,0,0,110,61.2a2.56,2.56,0,0,0,.83-1.3A14.35,14.35,0,0,0,110.86,58.45Z"></path><path class="ac405426-a6c9-45ca-9e0e-ccf1136aba0e" d="M120.23,52.57a4.38,4.38,0,0,1,2.91,1.08V51.41c0-1.53,0-2.32,0-2.38a.73.73,0,0,0-.32-.56,2.5,2.5,0,0,0-1-.19h-.4v-.5c0-.34,0-.51,0-.51l.22,0,.63,0,.82,0,.81-.06.66-.05.24,0h.07v6.69c0,4.48,0,6.75,0,6.79a.77.77,0,0,0,.32.59,2.55,2.55,0,0,0,1,.18h.39v1l-1.68.11c-1.09.07-1.67.11-1.72.13h-.16V61.33l-.17.15A4.3,4.3,0,0,1,120,62.54a4,4,0,0,1-2.73-1,5.16,5.16,0,0,1-1.68-3.16c0-.12,0-.38,0-.77A5,5,0,0,1,117,54,4.35,4.35,0,0,1,120.23,52.57Zm2.84,2.2a3,3,0,0,0-2.48-1.38,2.71,2.71,0,0,0-1.92.79,2.91,2.91,0,0,0-.74,1.34,9.85,9.85,0,0,0-.18,2.13,4.69,4.69,0,0,0,.92,3.35,2.28,2.28,0,0,0,1.72.72,2.82,2.82,0,0,0,1.47-.41A3.09,3.09,0,0,0,123,60.16l.09-.13Z"></path><path class="ac405426-a6c9-45ca-9e0e-ccf1136aba0e" d="M127.71,65.88a6.13,6.13,0,0,0,.8.11,1.6,1.6,0,0,0,.46-.06c.61-.22,1-.87,1.1-1.94,0-.18,0-1.77,0-4.8s0-4.57,0-4.66a.7.7,0,0,0-.37-.56,3.24,3.24,0,0,0-1-.14h-.44v-.51c0-.34,0-.51,0-.51l.08,0h.27l.37,0,.47,0,.54,0,.85-.05.68-.06.26,0h.08v5.68c0,3.22,0,5,0,5.35a3.15,3.15,0,0,1-.12.85,3.37,3.37,0,0,1-1.23,1.69,3.52,3.52,0,0,1-2.14.67,3,3,0,0,1-1.73-.52,1.64,1.64,0,0,1-.75-1.42,1.13,1.13,0,0,1,1.16-1.17,1.15,1.15,0,0,1,.85.35,1.11,1.11,0,0,1,.34.84A1.25,1.25,0,0,1,127.71,65.88Zm2.91-18.3a1.45,1.45,0,0,1,.9.38,1.27,1.27,0,0,1,.35.94,1.18,1.18,0,0,1-.59,1.12,1.38,1.38,0,0,1-1.43,0,1.17,1.17,0,0,1-.6-1.12,1.25,1.25,0,0,1,.39-1A1.42,1.42,0,0,1,130.62,47.58Z"></path><line class="bc64f476-72d0-495a-85d9-bc2420c9ef5a" x1="95.32" y1="41.37" x2="142.68" y2="41.37"></line><path class="ac405426-a6c9-45ca-9e0e-ccf1136aba0e" d="M11.1,34.2v-.33H12v4.05h3v1H12V42.1c0,1.83,0,2.87,0,3.11a1.82,1.82,0,0,0,.14.7,1.09,1.09,0,0,0,1.08.85c.64,0,1-.52,1.18-1.56a9.21,9.21,0,0,0,0-1v-.77h.88v.77a6.84,6.84,0,0,1-.11,1.45,3,3,0,0,1-.83,1.43,2.13,2.13,0,0,1-1.53.55,2.5,2.5,0,0,1-2.7-2.42c0-.1,0-1.19,0-3.25v-3H8.4v-.81h.19A2,2,0,0,0,10,37.41,4.85,4.85,0,0,0,11.1,34.2Z"></path><path class="ac405426-a6c9-45ca-9e0e-ccf1136aba0e" d="M20,40.34a1.15,1.15,0,0,1-.85.35,1.12,1.12,0,0,1-.84-.35,1.17,1.17,0,0,1-.33-.84,1.72,1.72,0,0,1,.18-.7,1.94,1.94,0,0,1,1.14-.92,5.88,5.88,0,0,1,2.09-.33,4.69,4.69,0,0,1,2.52.66,3.09,3.09,0,0,1,1.4,1.71,2.5,2.5,0,0,1,.12.7c0,.25,0,1.09,0,2.51s0,2.28,0,2.52a1.3,1.3,0,0,0,.12.56.45.45,0,0,0,.44.31.44.44,0,0,0,.42-.31A3.28,3.28,0,0,0,26.52,45v-.79h.88v.86a6.41,6.41,0,0,1-.06,1,2.09,2.09,0,0,1-.73,1,2,2,0,0,1-1.25.4,1.41,1.41,0,0,1-1-.38,1.89,1.89,0,0,1-.58-.94v-.08a3,3,0,0,0-.27.29c-.13.16-.23.26-.28.32a3.81,3.81,0,0,1-2.51.9,4.28,4.28,0,0,1-2-.48,2.49,2.49,0,0,1-1.21-1.28,2,2,0,0,1-.17-.83,2.62,2.62,0,0,1,.85-1.89,4.08,4.08,0,0,1,1.26-.84,10.69,10.69,0,0,1,3.83-.81h.3V41a3.34,3.34,0,0,0-.13-1.1,2.11,2.11,0,0,0-2.13-1.56c-1,0-1.48.06-1.48.18a1.08,1.08,0,0,1,.49,1A1.18,1.18,0,0,1,20,40.34Zm3.59,3.21a12.07,12.07,0,0,0,0-1.27.2.2,0,0,0-.11,0c-2,.13-3.29.72-3.85,1.78a2,2,0,0,0-.24,1,1.65,1.65,0,0,0,.53,1.25,1.79,1.79,0,0,0,1.3.51,2.25,2.25,0,0,0,1.5-.53,2.42,2.42,0,0,0,.83-1.3A11.42,11.42,0,0,0,23.55,43.55Z"></path><path class="ac405426-a6c9-45ca-9e0e-ccf1136aba0e" d="M31.69,46.08c.12.21.47.31,1,.31h.66v1h-.18a24.36,24.36,0,0,0-2.46-.06,24.64,24.64,0,0,0-2.47.06h-.17v-1h.66c.57,0,.91-.1,1-.31V45.4c0-.2,0-.44,0-.69s0-.55,0-.86v-.91c0-.46,0-.95,0-1.47s0-.95,0-1.28v-.51a.7.7,0,0,0-.32-.56,2.46,2.46,0,0,0-1-.19h-.39v-.5c0-.34,0-.51,0-.51l.22,0,.63,0,.8,0,.79-.05.64-.06.24,0h.07v.88a7.29,7.29,0,0,0,0,.83l0,0A3.88,3.88,0,0,1,35,37.68a2.56,2.56,0,0,1,2.79,2.48q0,.17,0,3.06c0,1.88,0,2.83,0,2.86a.44.44,0,0,0,.26.24,6.91,6.91,0,0,0,1.08.07h.35v1h-.17a24.64,24.64,0,0,0-2.47-.06,24.36,24.36,0,0,0-2.46.06H34.2v-1h.53c.78,0,1.17-.12,1.17-.35,0,0,0-1,0-3s0-3-.05-3.14a2,2,0,0,0-.49-1,1.52,1.52,0,0,0-1.05-.32,2.35,2.35,0,0,0-1.73.75,3.16,3.16,0,0,0-.91,1.94v.41c0,.25,0,.58,0,1s0,.77,0,1.13v.69c0,.24,0,.46,0,.65s0,.36,0,.52v.51Z"></path><path class="ac405426-a6c9-45ca-9e0e-ccf1136aba0e" d="M47.12,52.7c0,.14-.14.2-.4.2h-.29l-.61-.53q-4-3.6-4-10.47A17.51,17.51,0,0,1,42.5,37a11.81,11.81,0,0,1,3.32-5.57l.35-.3a2.59,2.59,0,0,0,.26-.23h.29c.18,0,.29,0,.33.07a.21.21,0,0,1,.07.13c0,.06-.08.17-.25.33Q43.47,35,43.46,41.9t3.41,10.47C47,52.54,47.12,52.65,47.12,52.7Z"></path><path class="ac405426-a6c9-45ca-9e0e-ccf1136aba0e" d="M55.37,31.91h.44A2.39,2.39,0,0,1,57.65,33a6.31,6.31,0,0,1,.86,3.54,8.09,8.09,0,0,1,0,1A16.12,16.12,0,0,1,57,42.94a12.11,12.11,0,0,1-1.75,2.72,6.49,6.49,0,0,1-2,1.65,2.88,2.88,0,0,1-1.19.31h-.15a2.13,2.13,0,0,1-1.61-.68A5.62,5.62,0,0,1,49.12,43a11.75,11.75,0,0,1,.22-2.22,14.42,14.42,0,0,1,3.32-7.19A4.72,4.72,0,0,1,55.37,31.91Zm.35,8.74.11-.38H51.54l0,.16a18.4,18.4,0,0,0-.69,4.07,3.1,3.1,0,0,0,.53,2.07.85.85,0,0,0,.64.26c.59,0,1.2-.48,1.85-1.43A15.88,15.88,0,0,0,55.72,40.65ZM56.77,35c0-1.5-.39-2.24-1.16-2.24a2.07,2.07,0,0,0-1.5.94,12.19,12.19,0,0,0-1.87,4,10.41,10.41,0,0,0-.44,1.63l2.14,0,2.13,0a7.8,7.8,0,0,0,.4-1.72A14.67,14.67,0,0,0,56.77,35Z"></path><path class="ac405426-a6c9-45ca-9e0e-ccf1136aba0e" d="M60,30.92l.08,0h.49l.61.53q4,3.62,4,10.47a17.62,17.62,0,0,1-.63,4.89,11.89,11.89,0,0,1-3.33,5.58l-.35.3-.26.23h-.27a.84.84,0,0,1-.34,0c-.05,0-.07-.1-.07-.22l.24-.29q3.41-3.54,3.41-10.45T60.12,31.45l-.24-.28A.26.26,0,0,1,60,30.92Z"></path><path class="ac405426-a6c9-45ca-9e0e-ccf1136aba0e" d="M74,39.77a.48.48,0,0,1,.3-.44h14a.48.48,0,0,1,.33.44.52.52,0,0,1-.31.42l-7,0h-7A.43.43,0,0,1,74,39.77ZM74,44a.43.43,0,0,1,.35-.44h14l.1.07.11.09a.36.36,0,0,1,.06.11.33.33,0,0,1,0,.17.49.49,0,0,1-.33.44h-14A.49.49,0,0,1,74,44Z"></path></svg></g></g><g><g id="radiocontrol-31" class="element" transform="translate(36,84)" style="font-family: monospace; font-size: 18px;"><g id="checkbox-32" class="element" transform="translate(0,0)"><rect x="-6.5" y="-6.5" width="13" height="13" class="default element" id="rectangle-33" rx="8px" style="fill: rgb(64, 64, 64);"></rect><text x="18" y="1" id="text-34" class="element" alignment-baseline="middle">cos(θ)</text></g><g id="checkbox-35" class="element" transform="translate(0,24)"><rect x="-6.5" y="-6.5" width="13" height="13" class="default element" id="rectangle-36" rx="8px" style="fill: rgb(242, 242, 242);"></rect><text x="18" y="1" id="text-37" class="element" alignment-baseline="middle">sin(θ)</text></g><g id="checkbox-38" class="element" transform="translate(0,48)"><rect x="-6.5" y="-6.5" width="13" height="13" class="default element" id="rectangle-39" rx="8px" style="fill: rgb(242, 242, 242);"></rect><text x="18" y="1" id="text-40" class="element" alignment-baseline="middle">tan(θ)</text></g></g></g></svg><style type="text/css">.window { display: block; margin: 0px auto 1.5em; box-shadow: rgba(0, 0, 0, 0.15) 0px 5px 9px 0px, rgba(0, 0, 0, 0.19) 0px 3px 10px 0px; overflow: hidden; }
.border { border: 1px solid grey; }
.input-container { width: 100%; height: 2rem; }
input.input { width: 100%; height: 2rem; padding-left: 8px; border: 1px solid grey; border-radius: 4px; font-size: 14px; }
.interactive { max-width: 100%; }
.interactive { font-family: "Helvetica Neue", "Segoe UI", Helvetica, Arial, sans-serif; font-weight: normal; font-feature-settings: "kern", "liga", "clig", "calt"; -webkit-font-smoothing: antialiased; user-select: none; }
text.element { fill: rgb(51, 51, 51); stroke: none; }
path.element, line.element, rect.element, ellipse.element, circle.element { stroke: rgb(64, 64, 64); stroke-width: 1px; fill: none; }
.default text { fill: rgb(51, 51, 51); stroke: none; }
.control-point { fill: rgb(3, 102, 238); stroke: none; }
.control-handle { fill: transparent; stroke: rgb(3, 102, 238); stroke-width: 2px; opacity: 0; }
.control-handle.highlight { opacity: 1; }
.button rect { fill: rgb(85, 85, 85); }
.button:hover rect { fill: rgb(51, 51, 51); }
.button text { fill: rgb(255, 255, 255); }
</style></svg>