<svg id="a75b3b32-1010-4822-a393-0407d91f583f" data-name="b433d41a-cf22-4de9-afe4-5f8667ffd4ab" xmlns="http://www.w3.org/2000/svg" viewBox="0 0 960 500"><defs><style>.eaa5e08d-5cd4-47b4-90a0-229f0eda1c0a{fill:#f8f8f8;stroke:#404040;stroke-miterlimit:10;}</style></defs><title>world-map</title><path class="eaa5e08d-5cd4-47b4-90a0-229f0eda1c0a" d="M917.45,339.45l.6,2-3.1.1Z"/><path class="eaa5e08d-5cd4-47b4-90a0-229f0eda1c0a" d="M540.05,288.35l14.1,11.5-.4,11.7,2.9,5.6-7.7,3.9-7.7-.2-2.1-6.5-2.6-.6-5.2-2.7-3.5-11.9,3.8-3.5-.8-2.9-.1-3.9Z"/><path class="eaa5e08d-5cd4-47b4-90a0-229f0eda1c0a" d="M427.45,200v.8l-.1,4.7-8.4-.2-2.9,14.3-10.8,1,.1-1.3,5.9-.3,9.1-16.7Z"/><path class="eaa5e08d-5cd4-47b4-90a0-229f0eda1c0a" d="M161.35,134.35l-7.6-5.5.4-11.7,3.4-3.2-3.8-11-6.4,2.5-4.5-3.9,23.4-25.5,7,2.2,20.7-4.2,2.4,2.7,4.3-1.8-1.5,2,17.2,1.2,1.7,1.4-3.9,1.3,3.3.5,8.8.8,3.2-1.3-1.3-1.1,2-.9,4.3-.4,7.4,3.1,9.4-2.5,2.5.9-1.7,2.6,6.9-4.7-2.7-2.6,5.8-4.7,3.5,1.5.7,2.9-2.6,1.3,3.4.5-1.7,2.7,4-2,1.5,1.7-.9,3.7,8-7.1,5.5.6,2,1.3-2.9,2.7-.3,2.7-10,1.5-5.9,4.8-9,3.2-11.9,7.5-4,5.5,2.9.5-.4,4.8,19.9,5.6-2,5.4,2.6,6.1,4.6-4-.3-6.2,9.6-5.4-1.5-6.5,4-3,1.6-6.9,9.3-.3,7.5,3.8-1.8,5.9,2.7,2.1,9.1-6,3.5,9.5-1.5,1.8,8.5,5,1.7,7.2-11.6,5.7H295l-14.2,10.2,16.4-7.3,1.7,1.5-2.8,2v5.5l6.8,1.1,3.2-3.4.9,3.3-15.2,7.3-1.2-2.9,4.8-2.4-6.5.4v-5.8l-3.1-1.2-7.6,7.4h-8.1l-22,10.2,3.9-11.2-10.6-9-7.9.5-5.8-3.7-32-2ZM294,68.15l-.6-2.2,7.5,2.1Zm-23-5.4-6.2.1,5.1-1.7Zm1.7-8.9,1.5.8L269.8,56l-.2-2.3Zm7.7,10.3-7.4-1.1v-3.5l-5.1-1.1,10.3-.1,2.4,2.8,15.5-.2,1.2,1.9Zm-35.7-8.9,2.3.3-7.4.6Zm2.2-1.5,1.9.4-5.8.4Zm74.2,73.7-3.9,4.5,7.3,1.7-.9,7.8-2.5-.4.6-2.8-3.4,2.6-8.5-2.2,6.9-9.3Zm-46.9-39.2,6,3.8-15.4.5,6.2-5.9Zm21.1-19L312.5,74l1.9,3.5-4.3,1.2,12.1,4.9-6.4,5-7.1-3.4,3.7,7.7-1.6,2L304.1,92l3.4,5-5.3-1.1-9.7-6.5-8,.3,10.8-2.4,5.1-4.9-.4-2.1-8.4-5.5-19.1-.6-1.1-.9,2.9-1.1h-2.8l1.1-2.6,5.7-3.3,5.4-.6-2.5,1.6.5,1.5,8.7-3,.4,4.2Zm-27.6-4.4,7.2.7-12.7,4.5,1.3-3.4ZM218.05,60l16.2-3.6-4.4,2.6Zm-70.3,59.5,2.3-.2-2.4,5.7-1.9-3.6Zm110.3-66.9,7.5,3.2-9.1-1.1,2.4-.6ZM159,135.75l-4.5-.9-3-5.8,5.3,1.4Zm57.5-71.7,9.3,2.4L205,73l-3.4-2.5,8.2-4.5-.4-1.5Zm29.3-3.4,3.2.9-14.7,2.6-2.6-.7,5-1.1-11.2-.2,7.4-3,9.7,2.4-.6-2.3,2.6-.9Zm-3.4,6.8-.2,5.3,4,3.7-3.4.2-.8,2-22.5.6-5.1-3.8,10.7-1L214.6,74l-.2-.9,5.4-1-5.9-.6L226.1,67l1.6.5-2,1.2,10-.8.6,3.3,2.6-3.6Zm11.2.9-.9-1.6,8.8-1-2.7,1.9,2.1,1.1-2,2.2-4,1-5.7-3.2Zm-10.3-2.2,3.7.4-3.1,1.7Zm21.9-7.6.5,1.1-3.3,3-7.1-1.3,1.5-1.9Zm13-8.8,7.8-1.3,7.8,4.1-14.9,2.2-1.1-.9,2.8-1.4-4.7-1.7Zm10.9-2.6,24.1-2.4,29.3.9-21.3,5.8-11.1,1,1.3,1.8-13.5,5.5-16.3-.7,4.5-1.6.5-1.7,5.4.8-3.9-1.9,7.1-2.2-1.5-2,9.6-.5-10.2-.1ZM295.5,82l-4-.4,3.7-1.8Zm-39.6-5.4.5,1-1.8.9-6-1.7,4.5-1.9Zm41.9,63.7,4.3,1.8-2.4,1.4Z"/><path class="eaa5e08d-5cd4-47b4-90a0-229f0eda1c0a" d="M161.35,134.35l34.3-3.1,32,2,5.8,3.7,7.9-.5,10.6,9-3.9,11.2,22-10.2h8.1l7.6-7.4,3.1,1.2v5.8l-10.2,6.3.5,4.4-9.7,2.2h4.3l-5,.5-3.8,5.6-1.1-1.7.3,3.3-3,3.7.5-6-.9,3.3-1.4-.5,1.2,8.3-17,12.7-1.3,19.4-3.1-2.1-2.7-12.6-6.7-1.4-8.3.8-.3,3.1-13.2-1-7.5,5.2-2.3,6.2-3.5-1.7-2.9-9.3-7.7.3-4.4-7.7-11.8,1.3-8.1-4.3-6.3.6-6.6-6.4-2.4-17.6,8.8-15.9,2.3-8,3.3,3.3Zm-117.8,89.1,1.1,1.8-2.7,1.8Zm44.1-122.2.6,1.3-3.2-.9Zm22.7,6.8,1.5,1.1-6.7,1.7Zm55.9-32-23.4,25.5,4.5,3.9,6.4-2.5,3.8,11.1-3.4,3.2-1.1-9.5-9.5-4.1-12.7-3.7-14.3,4.8,7.8-6-30.5,15L75.55,118l20.2-7.1,8.5-5.4-11.5.7,2.3-3.8-4.7-1.5,3.4-4.3,5.6-3,9.8-1.7.3-1.7,2.6-1.1-9.7.9-3-3.3,10.2-2.5,4.4,1.3-3.8-6,2.7-1.4,26.8-6.4Z"/><path class="eaa5e08d-5cd4-47b4-90a0-229f0eda1c0a" d="M654.65,133.75l-2.7,6.7-5-1,.2,5.5-5.4,1.9,3.8,5.3-.7,2.5-15.5-2.9-7.1,3.1-5.3,4.9-4.1-1.6-6.4-7.8-6.8.7-10-6.3-5.7,1.8,2.5,11.3-5.3-3.1-3.5,1.6-.6-3.1-6.4-5.6,6.1-1.9-1.1-4.9-9.1,1.4-7.5-6,1.3-6.2,2.8,1.7,3.9-5.4,12.2,3.1,12.9-.5-4.2-3.4,3.1-3-1.6-3,16-4,11.9,5.6,6.8-2.9,11.4,10.6,7.5-.6Z"/><path class="eaa5e08d-5cd4-47b4-90a0-229f0eda1c0a" d="M586.45,157.65l-2.5-11.3,5.7-1.8,10,6.3,6.8-.7,6.4,7.8,4.1,1.6,5.3-4.9-.6,2.3,7,2-4.5,2-4.6-1.5-3.1,3.6,2.7,4.4-.7,3.2-3.4-.7-23-16.6Z"/><path class="eaa5e08d-5cd4-47b4-90a0-229f0eda1c0a" d="M825.25,293.45l17.1,10.8-1.5,4,8.6,9-7.6-.5-7.7-7.8-6.2,5.3-4.1-.7Zm30.9,3.3.3,3.4L851,294Zm-4,6.7-7.9-.3,6.7-.9,3.7-4Z"/><path class="eaa5e08d-5cd4-47b4-90a0-229f0eda1c0a" d="M825.25,293.45l-1.2,20.1-2.1-2.5-6.8.3,3.1-3.4-1.5-5.9-11-5.7-1.9,1.8-2.6-4,4.6-1.9-8.3-3.9,9.2-.5,3.8,8,5.4-5.1Zm-43.8,19.4.2,1.5-4.5,2.7Zm-17.9-40.1-1.5,2.7,4.7,7.3-3.2.3-4.6,14.8-15.7-3.3-3.2-10.3,1.8-4.9,2.3,3.8,8.8-1.4,5.2-9.5Zm30.7,21.3,3.7,3.2-7.8-1.4Zm-6.7,3.1-2.3-1.9,2.7-.2Zm2.9-18.4,2.1,3.2-1.6,6.3Zm-13.3,4,6.2-1.6-4.2,3.7h-9.3l-.5,2.3,2.4,2.7,6.5-2.5-4.9,4,4,10.6-2.5-.2,1.4-2.6-3.3.3-1.2-6-3.4,9.4-2.5-8.9,2.9-9.1,2.8-3.6Zm-13.4,28.5,2.3,1-6.4,1Zm-25.5-6,18.7,6-27.1-4.7,2-2.9Zm-10.5-16.5,4.5,6.1-1.1,8.5-8.4-5-19.6-29.9,5.9.8Z"/><path class="eaa5e08d-5cd4-47b4-90a0-229f0eda1c0a" d="M292.15,447.35l3.2,3.5,7,2.5-4.1.6-3.9-.1Zm10.7-68.4-.3,11.4,5.8,9.3-5.1,5.6-7.6.3.6,6.8-5.8.1,1,3.1,4.1,1.5-3.4,2.9.2,4.6-3.6,1.6-.1,2.3,5.5,2.8-5.1,10.5,2.9,4.6-8-.8-6.2-8,.9-13.7-4.3-7.7-.1-24.9-3.5-8.8,4.6-26.7,1.9-2.8,5.2,3,.8-2.5,3.4.8,13.9,9-1.4,6.1,7.6.8,2.1-5.1,3,3.7Z"/><path class="eaa5e08d-5cd4-47b4-90a0-229f0eda1c0a" d="M292.15,447.35l2.3,6.5,3.9.1-1.9,2.1-7-1.6-10.8-6.5,9.4,3.7Zm-25.1-107.6,6.4,16.4,1.8-.4-4.6,26.7,3.5,8.8.1,24.9,4.3,7.7-.9,13.7,6.2,8,8,.8-4.7,1.8.7,2.8-3.9-.9-6.8-3.7-5.3-10.6,1.8-5.3-3.8-.9.7-7.7,3,1-.5-6.3-3.2,2.5-.5-12.2-2.5-6.5,2.2-14.7-3.8-43.7Z"/><path class="eaa5e08d-5cd4-47b4-90a0-229f0eda1c0a" d="M527.85,299.25l3.5,11.9-6.1,2.6-.4,8.1,3.2,1.2.1,3.3-15.1-7.3-4.6.5-.9-11.7-4.4-1-6.9,3.4-3-6.8-10.6.7-.4-.9,2.3-3.1,4.2.5,3.8-4.4,6.6-21.7,2.7-4.8,7.8,3.2,13.2-3.8,9.2,5.3.9,4.1-4.3,10.8-1.5,4.7Z"/><path class="eaa5e08d-5cd4-47b4-90a0-229f0eda1c0a" d="M560.55,290.65,559,277l2.2-3.5,8.2-3.3,7.4-9.3,2.9-4.4-.2-6.1,5.7-1.9-3.8,16.2Z"/><path class="eaa5e08d-5cd4-47b4-90a0-229f0eda1c0a" d="M554.15,299.85l-14.1-11.5,3-8.8-2.9-7.2,3.5-3.9,7.5,5.9,10-.9L559,277l1.6,13.7Z"/><path class="eaa5e08d-5cd4-47b4-90a0-229f0eda1c0a" d="M515.05,260.05l-4.7-9-2.6-4.4,2.6-9.6,2.4.3-.6-12.3,3.1-1.3-.3-6.2h30.8l2.2,10.5,2.6,2-4,3.2-.8,7.9-5.8,17.7-3.6-11-3.5,7.5-12.2,1-4.6-2.5-3,5.1Z"/><path class="eaa5e08d-5cd4-47b4-90a0-229f0eda1c0a" d="M512.05,225l.6,12.3-2.4-.3-2.6,9.6,2.6,4.4-12.9,10-7.1,1.5-3.6-6.6,4-1.3-2.7-8.9-2.7-4.6,4.4-7,1.5-11.7-3-7.6,2.6-1.7Z"/><path class="eaa5e08d-5cd4-47b4-90a0-229f0eda1c0a" d="M262.15,224.65l-.6,5.1-7.1-.9,5.7-1-1.8-3.9Z"/><path class="eaa5e08d-5cd4-47b4-90a0-229f0eda1c0a" d="M261.65,229.75l.6-5.1,8.5,3.3Z"/><path class="eaa5e08d-5cd4-47b4-90a0-229f0eda1c0a" d="M94,71.35h0l-2.4,1.8h0Zm714,1.8-3.5-.7h0l1.1-1.1ZM85.35,78h0L72.45,88.6h0Zm741.7,10.6-4.3,1,11.1,6.4-10.1,1.8-2.1,5-5.1-1.9-9.7,2,.9,4.5,4.3,1.8,4.6,7.9-3.2,11.3-13.2-12.9-2.2-4,5.7-12.3-2.2-3.9-3.9,5.5-5.1-3.4-4.6.9-1.1,4.7,3.3,1.7-28,.2-6.3,12.6,8.9,2.8,3-1.3,5.6,3.2,6.3,13.8-3.6,15.3-8.1,3.6-.7-.5-3-7.9,4.6-.5-1.1-10-8.4,2-6.7-4.9-4.7-1-9.4-9-6.7-2-5.5.6,1.5,9.3-5.7.7-18.3,1.8-26.4-8.2-.4,6.9L664,129l-8.7,4.5-.8.2L643,128.2l-7.5.6-11.4-10.6-6.8,2.9-11.7-5.6-16,4,1.6,3-3.1,3,4.2,3.4-12.9.6-12.2-3.1-3.9,5.4-2.8-1.7-1.3,6.2,7.5,6h0l-4.6,5.4,6.1,8.6-1.5,2-3.8-2.2-16.5-4.7-8.7-5.6,5-5.5-2.1-.2,3.1-2.4-.1-5.1-11.5-2.9-4.5-5.3-4.5.7-1.5-2.9,3.1-.8-5.2-6.5-6.4-1.8-2.5-3.7.6-5.7,2.2-1.6-2.5-1.3,6.2-6.6-3.5-1.8-.8-6.2-3-3,1.5-2-3.6-3.6,4.8-1.3,11.2,1.3,10.4,4.2.7,1.8-5.2,2.1L518.35,84l3.9,2,1.2,4,4.7,1.6-.5-3.5,5.5,1.7,1.6-.7-2-2,4.2-2.6,4.1,1.1.7-1.9-3.6-4.8,5.9.9,1.7,1.5-2,1.8,1.9.9,13.1-5.8,1.6.1L559,79.9l10.1-1.8,2.9,1.6,1.6-1.7-2.8-1.5.7-.9,18.2,4.6.7-1.4-5.6-2.2-2.5-4.1,3.7-5.1,6.8,2.1-.8,2,3.3,2.6,1.4,3.5,3.1,1.6-2.1,5.6,2.6.4,3.3-4.2-2-3.3L598,76l.2-2.6-3.7-2.1,2.5-1.8-1.5-1.7,2.8,1.3.6,2.5,2.3.4-1.9-1.8,2.7-1,8.5,1.3-4.9-4.8,11.7-.7-2.5-1.3,1-1.6L639.1,59l3.9-3,8.1,2.9,14.4,1.5-5.3,4.1,29.6,3L688,65.6l7.6.4L711,73l-.7-2.6,15.9.8-3.8-2.3,1.4-1.1,19.5,1.7L754,73l11.9-.1,8.1,3.7,13.5-.4,6.3,2.3,1.5-.9-4.1-2.8,22.9,3ZM616.45,48.9l3.3-.4,11,3.1,1.6,2-3.7.3-15.3-3.5Zm20.3,3.8,5.9,1.2-9.1,1.8Zm74.8,7.3,13.5,1.4.7,1.8-9.7.5-5.6-1.6Zm20.2,1.9,5.5.6-9.1-.2Zm-201.9-12,11.8-.2-6.2,1.5Zm-28.5,68.7-7-.2,3.4-2.3Zm51.9-52.8L565,59.7l14.1-.7-16.9,5.4-3.8,4.8,6,4.2-12.6-1.8,3.4-5.5Zm222.4,54.7,13.7,14-4.1-1,1.4,4.3,5.4,5.2-2.9-1.8-.1,2.3-15.3-21.8-.7-2.8ZM90,82.65,88.45,85l1.8-1.9,5.1.4,1.2,2.5-7.1,1.5-4.4,3.2-6.3-5-6.4,3.1,12.9-10.6Zm4.4-9.6-2.8.1,2.4-1.8,4,.6Zm435.2,70.4,3.9.7,3.8.8-5.9,3.4-3.9-3Z"/><path class="eaa5e08d-5cd4-47b4-90a0-229f0eda1c0a" d="M247.75,207.55l.9,4.6-1.8-2.6Z"/><path class="eaa5e08d-5cd4-47b4-90a0-229f0eda1c0a" d="M308.45,445.05l5.5-2.2,2.2,1.3Z"/><path class="eaa5e08d-5cd4-47b4-90a0-229f0eda1c0a" d="M477.15,51.75l12,1.6-9.6,5.1-10.9-6.6Zm35.2,24.7-4.8,1.3.5-1.9-2.8-1-5.3,4-8.6-1.2-7.5,2.9-5.6,10.6-2.1-.1.2,11-2.6,3.5-1.6-1.7-4.1,3.3-6-.8-1.8-9.5,12.1-11.2,15.7-10,17.3-3.5,6.7,1.9-2.5.6ZM499.05,51l-7.5,1.5-10.6-2Zm-3.6,4.9-7.3.4,3.6-1.8Z"/><path class="eaa5e08d-5cd4-47b4-90a0-229f0eda1c0a" d="M368.65,45.65l34.8-1.7,10.2,1.5-19.6,1,16.9.9-2.3,1.2,13.4-1.5,6.1,1.2-14.4,2.5,4.1.1-4.1,3.1-.5,2.5,2,1.6-6.2.9,3.3,1.3.1,2-2.1.3,2.2,2.1-8.6,2.5,2,2.8-4.9-.4,5.3,4.2-7.3-2,.3,1.8-2.5,1.4,8.1.2-20.4,5.3-17.9,6.9-8.4,7.6-3.1,7.2-10.1-2.1-4.8-7.7-1.5-9.6,8.9-7.2-8,.9,1.9-3.2,5.7.6-7.8-2.8,3.2-2.3-4.2-7.3-18.1-1.3-4.1-2.2,9.2-.8-11-1.7,16-3.1-3-1.6,12.2-2.6v-.9l22.4-1.3,9.3,1.5Z"/><path class="eaa5e08d-5cd4-47b4-90a0-229f0eda1c0a" d="M612,435.45l3.2,1.9-4.8,1.5Z"/><path class="eaa5e08d-5cd4-47b4-90a0-229f0eda1c0a" d="M781.45,312.85l6.5-1.5-6.3,3.1Z"/><path class="eaa5e08d-5cd4-47b4-90a0-229f0eda1c0a" d="M491.55,373.75l9.2-.3.5-11.4,4.1,6.1,4.6-4.6,6,.7,10.4-10.6,4.5.5,1.1,11.2-3.3,2.8h5.6l-2.1,6.3L521.05,387l-20.9,6.3-4.2-2.1v-7.6Zm32.3,1.2-5.2,2.8,2.7,2.1Z"/><path class="eaa5e08d-5cd4-47b4-90a0-229f0eda1c0a" d="M523.85,375l-2.5,4.9-2.7-2.1Z"/><path class="eaa5e08d-5cd4-47b4-90a0-229f0eda1c0a" d="M153.45,184.85l6.3-.6,8.1,4.3,11.8-1.3,4.4,7.7,7.7-.3,2.9,9.3,3.5,1.7-2.9,10.5,3.3,11.2,3.6,2.1,8.2-2.2,3.9-6.6,8.7-1.6-4.6,9.4-2.6,2h-4.9l.8,5.4h-3.4l-1.8,4.7-3.9-4.3-7.2.9-20.5-11.3-.8-10.7L162.55,196l-.3-6.9-3.6-2-1.2,5.2,8.3,21.1-2,1.6-4.3-5.9.7-4-5.8-5.2,3-2.7Z"/><path class="eaa5e08d-5cd4-47b4-90a0-229f0eda1c0a" d="M302.85,379l10.6,5.7,1.9,5.3-3.4,3.6-9.3-3.2Z"/><path class="eaa5e08d-5cd4-47b4-90a0-229f0eda1c0a" d="M315.35,390l-1.9-5.3-10.6-5.7,8.9-10.2-3-3.7.3-5.3-3-.2-1.5-5-5.6-.9-1.3-5.9,1.2-6.2-2.4-5.8-5-.1L290,328l-13.5-6.8-.1-5.6-11,3.7-2.7.2v-4.6l-7.3-.1-2.3-6,2.7-7,8-3,.1-18.5,6-.9,1.8,2.4,7.1-.8,2.2-2.1-3.8-5.7,4.6.9,6.3-4.4,3.1,3.8-.3,6.7,8.3-.3,5.3-1.3,4.2.5,3.5-6.2,4.4,7.4-1.2,5.6,4.8.5.1,3.1,2-2,7.7,3,.9,3.5,12.2.6,11.7,7,2.4,6.7-.9,5.1-8.9,12.5-.8,14.9L343,353.4l-16.6,9.1-1.9,11.8Z"/><path class="eaa5e08d-5cd4-47b4-90a0-229f0eda1c0a" d="M265.55,319.15l11-3.7.1,5.6,13.5,6.8,1.5,7.7,5,.1,2.4,5.8-1.2,6.2-2.7-2.5-6.9.9-1.5,8.1-3.4-.8-.8,2.5-5.2-3-1.9,2.8-1.8.4-6.4-16.4,1.2-15.6Z"/><path class="eaa5e08d-5cd4-47b4-90a0-229f0eda1c0a" d="M263.75,298.65l-8,3-2.7,7,2.3,6,7.3.1v4.6l2.7-.2,2.7,5-1.2,15.6-1.9,2.3-15.9-11.4-11.5-23-3.8-3.2-.6-4.4L236,296l-.3,3.2,3.3,1.6,9.5-10.5.4-4.3,6.2,6.6,8.1,1.3-1.6,3.2Z"/><path class="eaa5e08d-5cd4-47b4-90a0-229f0eda1c0a" d="M271.65,281.65l-1.8-2.4-6,.9-.1,18.5-2.2-1.7,1.6-3.2-8.1-1.3-6.2-6.6-9.3-4.8,4.8-7.6-1.7-10.4,1.6-4.4,4.6-2.4,2.3-5,8.6-4.2,1,2.1-5.7,8.1,3.2,6.7,12.2,2.7-1.5,10.1Z"/><path class="eaa5e08d-5cd4-47b4-90a0-229f0eda1c0a" d="M244.35,258.75l-1.6,4.4-3-5.5-3.8,5.4-6.6-3,1.4-4.1Z"/><path class="eaa5e08d-5cd4-47b4-90a0-229f0eda1c0a" d="M230.75,256l-1.4,4.1-6.8-5.2.1-3.6,5.4.4Z"/><path class="eaa5e08d-5cd4-47b4-90a0-229f0eda1c0a" d="M228.15,251.65l-5.4-.4-3.8-5.9,11.6-6.2Z"/><path class="eaa5e08d-5cd4-47b4-90a0-229f0eda1c0a" d="M230.55,239.25l-11.6,6.2-1.1-1.2-3.8-3.2,3.5-4.1,8.6-.8Z"/><path class="eaa5e08d-5cd4-47b4-90a0-229f0eda1c0a" d="M214,241l3.8,3.2-6-1.1Z"/><path class="eaa5e08d-5cd4-47b4-90a0-229f0eda1c0a" d="M206.55,240.55l1.8-4.7h3.4l-.8-5.4h4.9l-.2,6,1.9.4-3.5,4.1-2.1,2.1Z"/><path class="eaa5e08d-5cd4-47b4-90a0-229f0eda1c0a" d="M215.75,230.45l2.5-2.1-2.7,8.1Z"/><path class="eaa5e08d-5cd4-47b4-90a0-229f0eda1c0a" d="M288.15,269.35l-6.3,4.4-4.6-.9,3.8,5.7-2.2,2.1-7.1.8-2.4-4.9,1.5-10.1-12.2-2.7-3.2-6.7,5.7-8.1-1.5,8.4,1.1-5.9,4.2-3.7,4.3,5,16.7-.5-2.3.9,7.6,6.3-4.7,7.4Z"/><path class="eaa5e08d-5cd4-47b4-90a0-229f0eda1c0a" d="M299.15,279.65l-8.3.3.3-6.7-3.1-3.8-1.7-2.3,4.7-7.4,6.6,7.4-2.5,5.9Z"/><path class="eaa5e08d-5cd4-47b4-90a0-229f0eda1c0a" d="M304.55,278.35l-5.3,1.3-4-6.7,2.5-5.9,8.5.6Z"/><path class="eaa5e08d-5cd4-47b4-90a0-229f0eda1c0a" d="M312.15,272.65l-3.5,6.2-4.2-.5,1.7-10.7Zm152-139.7,4.5,1.3-1.3,4.2-3.4,2.7,2,2.2,1.6,7-10.7,3.7-11.9-2.9,1.8-7.9-8-8,7,.2-.7-3.4,2.2,1.2,8.1-5.4,7.4,4.9Zm6.9,20.7,1.5-1.2-.2,5Z"/><path class="eaa5e08d-5cd4-47b4-90a0-229f0eda1c0a" d="M249,286l-.4,4.3-9.5,10.5-3.3-1.6.3-3.2,1.4-2.3-3.3-1.3.1-3.7,5.6-7.5Z"/><path class="eaa5e08d-5cd4-47b4-90a0-229f0eda1c0a" d="M276.05,228.35l1.7.9-4.3.9Z"/><path class="eaa5e08d-5cd4-47b4-90a0-229f0eda1c0a" d="M246.35,228.45l3.4,1.9-5.5-1.1Z"/><path class="eaa5e08d-5cd4-47b4-90a0-229f0eda1c0a" d="M236.15,213.85,246,216l9.9,6.9-9.5,1.4,2-1.8-3.8-3.6-7.5-3.3-8.7,2.3Z"/><path class="eaa5e08d-5cd4-47b4-90a0-229f0eda1c0a" d="M530.85,354.15l-4.5-.5-10.3-13.5,4.7.6,8.8-7.5,6.6,3.7-1,11.1Z"/><path class="eaa5e08d-5cd4-47b4-90a0-229f0eda1c0a" d="M526.35,353.65,516,364.25l-6-.7-4.6,4.6-4.1-6.1,3.4-20.2,11-1.9.4.3Z"/><path class="eaa5e08d-5cd4-47b4-90a0-229f0eda1c0a" d="M501.25,362l-.5,11.5-9.2.3-11-35,30.2.7,4.9.4-11,1.9Z"/><path class="eaa5e08d-5cd4-47b4-90a0-229f0eda1c0a" d="M405.65,243.45l-2.3-3.4,3.1-4.4,5-1.5,6.3,6.2,1.6,6.7-5.7-.4-7.9.6-.4-2.4,7.9-1Z"/><path class="eaa5e08d-5cd4-47b4-90a0-229f0eda1c0a" d="M419.25,247.05l-1.6-6.7,1.4-2.4,16.1-.3-2.2-29.4h4l21,18.3,2.9-.3-1.5,11.1-8.6,2-11.6,4.5-3.8,9.6-7,.5-2.9-6.5Z"/><path class="eaa5e08d-5cd4-47b4-90a0-229f0eda1c0a" d="M405.25,220.55l10.8-1,2.9-14.3,8.4.2.1-4.7,9.5,7.6h-4l2.2,29.4-16.1.3-1.4,2.4-6.3-6.2-5,1.5.7-12.3Z"/><path class="eaa5e08d-5cd4-47b4-90a0-229f0eda1c0a" d="M456.85,266.15l-2.1.3-2.6-15,3.4-2.9,3.8.9Z"/><path class="eaa5e08d-5cd4-47b4-90a0-229f0eda1c0a" d="M488.35,214.85l3,7.6-1.5,11.7-4.4,7,2.7,4.6-.9,1.2-2.9-3.5-10.8,2.4-9.5-3.2-3.5,1-1.3,5.7-3.8-.9-4.7-9.2,8.6-2,1.5-11.1,20-13.4Z"/><path class="eaa5e08d-5cd4-47b4-90a0-229f0eda1c0a" d="M456.85,266.15l2.4-16.7,1.3-5.7,3.5-1,9.5,3.2,10.8-2.4,2.9,3.5L481,264l-6.7,1.7-1.9,5.1-6.9,1.5-4.2-6.2h-4.4Z"/><path class="eaa5e08d-5cd4-47b4-90a0-229f0eda1c0a" d="M488.05,245.75l2.7,8.9-4,1.3,3.6,6.6-2.1,8.3,4.1,7.6h-16.9l-3.1-7.7,1.9-5.1L481,264l6.3-16.9Z"/><path class="eaa5e08d-5cd4-47b4-90a0-229f0eda1c0a" d="M452.15,251.55l2.6,15-2.1.7-2.7-15.7Z"/><path class="eaa5e08d-5cd4-47b4-90a0-229f0eda1c0a" d="M449.85,251.45l2.7,15.7-10.4,2.9.1-14.4-.3-4.1Z"/><path class="eaa5e08d-5cd4-47b4-90a0-229f0eda1c0a" d="M428.45,254.05l7-.5,6.9,2.2-.1,14.4-12.9,2-1.9-10.3Z"/><path class="eaa5e08d-5cd4-47b4-90a0-229f0eda1c0a" d="M413.55,246.65l5.7.4,6.3.4,2.9,6.5-1.1,7.8-2.2,1.1-2.7-3.3-2.2-5-5.7,3.5-5-6.6Z"/><path class="eaa5e08d-5cd4-47b4-90a0-229f0eda1c0a" d="M405.65,247.25l7.9-.6-3.9,4.8Z"/><path class="eaa5e08d-5cd4-47b4-90a0-229f0eda1c0a" d="M427.35,261.75l1.9,10.3-9.9-7.5,3.2-5,2.7,3.3Z"/><path class="eaa5e08d-5cd4-47b4-90a0-229f0eda1c0a" d="M414.65,258.05l5.7-3.5,2.2,5-3.2,5Z"/><path class="eaa5e08d-5cd4-47b4-90a0-229f0eda1c0a" d="M435.45,253.45l3.8-9.6,11.6-4.5,4.7,9.2-3.4,2.9-2.3-.1-7.9.2.3,4.1Z"/><path class="eaa5e08d-5cd4-47b4-90a0-229f0eda1c0a" d="M522.65,269.35l-13.2,3.8-7.8-3.2-2.7,4.8-3.5-.7-3,4.4-4.1-7.6,2.1-8.3,7.1-1.5,12.9-10,4.7,9Z"/><path class="eaa5e08d-5cd4-47b4-90a0-229f0eda1c0a" d="M498.85,274.65l-6.6,21.7-3.8,4.4-4.2-.5-2.9.8-2.1-3.2,4-6.3,4.5.2V282l-3.3-3.3h7.8l3-4.4Z"/><path class="eaa5e08d-5cd4-47b4-90a0-229f0eda1c0a" d="M479.75,278.45h4.8l3.3,3.3v9.8l-4.5-.2-4,6.3-6.1-8.9,1.8-6.5,4.8-.2Z"/><path class="eaa5e08d-5cd4-47b4-90a0-229f0eda1c0a" d="M475.45,278.45h4.3v3.8l-4.8.2Z"/><path class="eaa5e08d-5cd4-47b4-90a0-229f0eda1c0a" d="M531.45,311.15l5.2,2.7.8,14.6-8.1,2.6.1,2.2-8.8,7.5-4.7-.6-.4-.3-4.8-.4-3.3-4.5.4-9.8h5.5l-.2-6.2,15.1,7.3-.1-3.3-3.2-1.2.4-8.1Z"/><path class="eaa5e08d-5cd4-47b4-90a0-229f0eda1c0a" d="M536.65,313.85l2.6.6,2.1,6.5-.2,6.3,2.8,3.2-2,6.8-1.3-6.8-3.2-2Z"/><path class="eaa5e08d-5cd4-47b4-90a0-229f0eda1c0a" d="M541.25,321l7.7.2,7.7-3.9-.2,15.7-15.7,13.6,1.3,12.2-8.2,6.3.4,3.1h-2l-.4-2.8-1.1-11.2,4.2-6,1-11.1-6.6-3.7-.1-2.2,8.1-2.6,3.2,2,1.3,6.8,2-6.8-2.8-3.2Z"/><path class="eaa5e08d-5cd4-47b4-90a0-229f0eda1c0a" d="M532.25,368.05h-3.6l3.3-2.8Z"/><path class="eaa5e08d-5cd4-47b4-90a0-229f0eda1c0a" d="M484.35,300.25l-2.3,3.1-.7-2.3Zm-1.8,4,10.6-.7,3,6.8,6.9-3.4,4.4,1,.9,11.7,4.6-.5.2,6.2h-5.4l-.4,9.8,3.3,4.5-30.1-.7,5.5-18.5Z"/><path class="eaa5e08d-5cd4-47b4-90a0-229f0eda1c0a" d="M530.85,292.85l.8,2.9-3.8,3.5-.9-5Z"/><path class="eaa5e08d-5cd4-47b4-90a0-229f0eda1c0a" d="M540.05,184.35l-.3.9-1.1,8.2-1.8-4.6,1.6-5.8,1.7-.6Z"/><path class="eaa5e08d-5cd4-47b4-90a0-229f0eda1c0a" d="M540.15,182.55l-1.7.6,1.6-4.8,1.7,1.4Z"/><path class="eaa5e08d-5cd4-47b4-90a0-229f0eda1c0a" d="M580.75,323.85l1.6,10h-1.8l-9.1,28.6-4.5,2.1-3.4-1.9-1.2-6.9,3.7-10.4-.8-6.3Z"/><path class="eaa5e08d-5cd4-47b4-90a0-229f0eda1c0a" d="M405.65,243.45l7.5.3-7.9,1Z"/><path class="eaa5e08d-5cd4-47b4-90a0-229f0eda1c0a" d="M474,191.75l-5-9.4,1.8-11.2,6.4-.5-1.8,8.6,3.4,3.7Z"/><path class="eaa5e08d-5cd4-47b4-90a0-229f0eda1c0a" d="M427.45,200.75V200l.1-3.7,18.9-10.6-2.1-9,9-4.5,17.4-1L469,182.4l5,9.4-.1,13.1,7.1,8.2-20,13.4-2.9.3-21-18.3Z"/><path class="eaa5e08d-5cd4-47b4-90a0-229f0eda1c0a" d="M539.75,185.25l.3-.9,2.9,1.2,4.6-3.4,1.5,3.8-5.4,2.1,2.8,3.1-1,1.5-6.3,2.1Z"/><path class="eaa5e08d-5cd4-47b4-90a0-229f0eda1c0a" d="M583.35,210.55l6.3.4,4.6-6,.7,1,.6,2.5-2.3,6.9-8.4-.9Z"/><path class="eaa5e08d-5cd4-47b4-90a0-229f0eda1c0a" d="M581.25,209l.8-4.2.7,4.6Z"/><path class="eaa5e08d-5cd4-47b4-90a0-229f0eda1c0a" d="M572.05,192.75l1.6,4.5-4.9-1.7Z"/><path class="eaa5e08d-5cd4-47b4-90a0-229f0eda1c0a" d="M549.05,186l-1.5-3.8,5.2-3.2,2.3-8.7,6.1.2,3.8,4.6-.9,5.2,9.6,12.6-1.5-.2-3.3,2.8-4.8-.3Z"/><path class="eaa5e08d-5cd4-47b4-90a0-229f0eda1c0a" d="M593.25,215.35l2.3-6.9,9.7,8.1-4.5,10.4-11.4,7.1-3.5-7.3,7.5-3.1Z"/><path class="eaa5e08d-5cd4-47b4-90a0-229f0eda1c0a" d="M889,333.85l.3-3.3,1,3.4Z"/><path class="eaa5e08d-5cd4-47b4-90a0-229f0eda1c0a" d="M721.15,247.85l.3-6.2,5.9-.2,5.8.3.9,5.7-7.8,5.7Z"/><path class="eaa5e08d-5cd4-47b4-90a0-229f0eda1c0a" d="M727.45,241.45l-5.9.2-.3,6.2-7-3.8-1.5,10.7,8.7,11.5-2.5,1.6-2.9-2.4-4.5-5.9-.3,1.8.1-6.6,2.2-6.1-4.7-10,1.4-3.3-5-7,6.3-6.1,3.5,3,.4,6,5.2-2.5,4.4,2.7Z"/><path class="eaa5e08d-5cd4-47b4-90a0-229f0eda1c0a" d="M733.15,241.65l-5.8-.3-2.7-9.8-4.4-2.7-5.2,2.5-.4-6-3.5-3,2.2-3.2,1.8.9.2-4,3.6,5.3h3.2l1.5,2.7-2,2,10.5,10.4Z"/><path class="eaa5e08d-5cd4-47b4-90a0-229f0eda1c0a" d="M711.25,222.35l-6.3,6.1,5,7-1.4,3.3,4.7,10-2.2,6.1-6-21.7-4.2,3.8-3.3-1-.4-6.7-6.2-7.6.1-4.2,3.6-14.1,4.9-1.5-.4-3.7,4,2.3-.4,11.3,2.7-.5,2.6,6,5.5,2.1Z"/><path class="eaa5e08d-5cd4-47b4-90a0-229f0eda1c0a" d="M726.25,253.15l7.8-5.7-.9-5.7-.9-5.3-10.5-10.4,2-2-1.5-2.7h-3.2l-3.6-5.3,7.6-2.7,8.2,5.6-4.9,7.7,10.2,11.7,2.2,11.1-9.9,9.5Z"/><path class="eaa5e08d-5cd4-47b4-90a0-229f0eda1c0a" d="M767.25,154.35l.7.5-4.5,7.6,3.7,3.6-4.3,2.7-4.1-1.1v-3.9l-3.5-1.7,3.7-5.8,3.7,1.1,2.1-4.7Z"/><path class="eaa5e08d-5cd4-47b4-90a0-229f0eda1c0a" d="M762.85,168.65l4.3-2.7,5.1,5.6,1.1,5.2-5.7,2.1Z"/><path class="eaa5e08d-5cd4-47b4-90a0-229f0eda1c0a" d="M655.45,133.45l8.7-4.5,13.1,3.2.4-6.9,26.4,8.2,18.3-1.8,1.2,6.5,5-1.1,5.9,4.2-16.3,4.8,1.7,4.1-2.2,2.7-11.7,3.9-22.3-3.5-4.2-4.7-11.7-3.1-1.7-4.9Z"/><path class="eaa5e08d-5cd4-47b4-90a0-229f0eda1c0a" d="M699.15,198.05l.4,3.7-4.9,1.5-3.6,14.1-2.3-5-2.5.4,2.4-4.6-6.6-.9-4.2-3.6,1.7,3.7-1.8,2.3,3.7,7.6-5,1.7-.6,4.2-14.6,13.1.2,17.1-5.8,7.4L643.25,236l-4.2-16.6-5.5,1.5-7.1-8.8,7.1-2.1-5.1-8,5.4-3,6.3-13.6-5.1-6.3,9.4-3.7L648,179l1.5,8.8,6.9,4.1-1.6,4.6,9.1,4.5,12.7,2.9-.7-4.6,2.1,1.8,8.6,1.5-1.5-2.9,10.2-5.2,1.1,3.3Z"/><path class="eaa5e08d-5cd4-47b4-90a0-229f0eda1c0a" d="M691.05,217.45l-.1,4.2-3.6-6.4-5.8,2.1-3.7-7.6,1.8-2.3-1.7-3.7,4.2,3.6,6.6.9-2.4,4.6,2.5-.4Z"/><path class="eaa5e08d-5cd4-47b4-90a0-229f0eda1c0a" d="M685.15,199.65l1.5,2.9-8.6-1.5,2.4-3.1Z"/><path class="eaa5e08d-5cd4-47b4-90a0-229f0eda1c0a" d="M675.85,199.25l.7,4.6-12.7-2.9-9.1-4.5,1.8-4.3Z"/><path class="eaa5e08d-5cd4-47b4-90a0-229f0eda1c0a" d="M644.55,175.65l-9.4,3.7,5.1,6.3-6.3,13.6-5.4,3,5.1,8-7.1,2.1-5.5-5.3-12.4,1,4-5.2-7.7-9.5,14-.3.8-4.4,5.7-1.8.2-6.6,3.5-3.5-1.6-2.8,9-3.3Z"/><path class="eaa5e08d-5cd4-47b4-90a0-229f0eda1c0a" d="M615.05,169.85l3.4.7,6.4-4.2,3.8,5.4,7.3-2.1.6.9-9,3.3,1.6,2.8-3.5,3.5-.2,6.6-5.7,1.8L619,193l-14,.3,1.9-2.8-4.4-7,.2-8.2,4.6.7,3.3-5.2Z"/><path class="eaa5e08d-5cd4-47b4-90a0-229f0eda1c0a" d="M618.45,170.55l.7-3.2-2.7-4.4,3.1-3.6,4.6,1.5-3.3,2.2,10.4.3,4.8,6.2-7.3,2.1-3.8-5.4Z"/><path class="eaa5e08d-5cd4-47b4-90a0-229f0eda1c0a" d="M622.35,154.75l7.1-3.1,15.5,2.9-13.7,8.9-10.4-.3,3.3-2.2,4.5-2-7-2Z"/><path class="eaa5e08d-5cd4-47b4-90a0-229f0eda1c0a" d="M577.65,156.25l3.5-1.6,5.3,3.1,5.5-4.4,23.1,16.6-4.3.8-3.3,5.2-4.6-.7-.7-2.7-10.3-4.7-8,2.6-1.1-5.5-3.5-3.3v-2.6l4.4-.3-3.2-3.6-1.6,3.1Z"/><path class="eaa5e08d-5cd4-47b4-90a0-229f0eda1c0a" d="M573.65,193l-9.6-12.6.9-5.2-3.8-4.6-2.7-7,1.5-.9,3.8,3,.8-.1,3.5-2.5,2.6,3.8,5.6,4.5,7.6-.9,8-2.6,10.3,4.7.7,2.7-.2,8.2,4.4,7-1.9,2.8,7.7,9.5-4,5.2L598,205.9l-2.8-4.3-7.5.9-5.5-3.3-4.5-7.1Z"/><path class="eaa5e08d-5cd4-47b4-90a0-229f0eda1c0a" d="M540.05,184.35v-1.8l1.7-2.8-1.7-1.4v-3.7l1.1-3.1,13.8-1.2-2.3,8.7-5.2,3.2-4.6,3.4Z"/><path class="eaa5e08d-5cd4-47b4-90a0-229f0eda1c0a" d="M564.55,165.55l-.8.1-3.8-3-3.6-4.3,3.3-.4Z"/><path class="eaa5e08d-5cd4-47b4-90a0-229f0eda1c0a" d="M474,105.55l2.6-3.5-.2-11,2.1.1,5.6-10.6,7.5-2.9,6.3,3.1,1.6,5.2L488,94.85l-1.2,3.8,4.1,3.6-3.9,3.8-1.5,7.5-6.4,2.2Z"/><path class="eaa5e08d-5cd4-47b4-90a0-229f0eda1c0a" d="M513,113.25l6.4,1.8,5.2,6.5-3.1.8,1.5,2.9-2.5,2.3-16.3-.7-.9-6.9,4.5-1.1,1.7-3.9Z"/><path class="eaa5e08d-5cd4-47b4-90a0-229f0eda1c0a" d="M523,125.15l4.5-.7,4.5,5.3,11.5,2.9.1,5.1-3.1,2.4-7.1,4.1-3.9-.7-6.6-1.8-2.2,3.9-3.3-.7,3.5-3.5-3.5-4.3-4.9-.3-9.1,1-1.7-1.6.9-2,2.7-4.1-1.3-3.4,16.3.7Z"/><path class="eaa5e08d-5cd4-47b4-90a0-229f0eda1c0a" d="M503.25,119.75l.9,6.9,1.3,3.4-2.7,4.1L494,133l-9.3-4.8-2.6-7.8,7.7-3.2,4.7,1.2,7,.2Z"/><path class="eaa5e08d-5cd4-47b4-90a0-229f0eda1c0a" d="M489.75,137l-1.5,3.8-5.6,1.1-8.1-1.2-2.1-1.9,7.9.2,1.4-4.2,8,.8Z"/><path class="eaa5e08d-5cd4-47b4-90a0-229f0eda1c0a" d="M501.75,136.15l1.7,1.6-5.5,5.3-3.2.7-5.6-1.8-.9-1.1,1.5-3.8Z"/><path class="eaa5e08d-5cd4-47b4-90a0-229f0eda1c0a" d="M512.55,136.75l4.9.3,3.5,4.3-3.5,3.5Z"/><path class="eaa5e08d-5cd4-47b4-90a0-229f0eda1c0a" d="M517.35,145l3.3.7-2,4.8-14.3-1.6-6.4-5.8,5.5-5.3,9.1-1Z"/><path class="eaa5e08d-5cd4-47b4-90a0-229f0eda1c0a" d="M509.45,114.85l-1.7,3.9-4.5,1.1-1.9-1.2-3.6-2.5-.8-2.4,8.5-1Z"/><path class="eaa5e08d-5cd4-47b4-90a0-229f0eda1c0a" d="M510.45,109.55l2.5,3.7-3.5,1.6-3.9-2.2-8.5,1,.7-4,5.8,1.1.2-2.2Z"/><path class="eaa5e08d-5cd4-47b4-90a0-229f0eda1c0a" d="M511.05,103.85l-.6,5.7-6.7-1-2.7-3.9Z"/><path class="eaa5e08d-5cd4-47b4-90a0-229f0eda1c0a" d="M482,120.25l2.6,7.8-6.3,2.5,3.4,4.1-1.4,4.2-7.9-.2-5-.3,1.3-4.2-4.5-1.3-.4-2,.2-2,1.4-7.9,4.3-1.5-.8-2.7,3.2-.1,2.5,2.8Z"/><path class="eaa5e08d-5cd4-47b4-90a0-229f0eda1c0a" d="M504.35,148.75l14.3,1.6-.8,5.2-4.5.6-7.5,1.4-1.7-3Z"/><path class="eaa5e08d-5cd4-47b4-90a0-229f0eda1c0a" d="M505.85,157.65l7.5-1.4.2,3.1-8.3,1.7,4,6.3-2.9,2.8,1.2,2.7-3.8-1.4-4.3-8.6,1.8-3.8Z"/><path class="eaa5e08d-5cd4-47b4-90a0-229f0eda1c0a" d="M561.15,170.45l-6.1-.2-13.8,1.2-1.1,3.1-.3-2.6-3.7-.4-5.3,2.1-12.3-1.7-4.5-8.6,7-5.4,10.2-2.5,12.3,3.2,7.5-1.8,5.2,1.4,3.6,4.3-1.5.9Zm-47.8-14.3,4.5-.6,2.3,2.9-5.7,2.8-.9-2Z"/><path class="eaa5e08d-5cd4-47b4-90a0-229f0eda1c0a" d="M501.15,159.15l-1.8,3.8-2.5-6.9,1.6-2.2,1.4,2.3Z"/><path class="eaa5e08d-5cd4-47b4-90a0-229f0eda1c0a" d="M489.15,141.85l5.6,1.8.7,3.2-7.9.2,7.2,6.6-.2.5-12.1-9.2Z"/><path class="eaa5e08d-5cd4-47b4-90a0-229f0eda1c0a" d="M472.55,138.75l2.1,1.9-8.5,2.7-2-2.2,3.4-2.7Z"/><path class="eaa5e08d-5cd4-47b4-90a0-229f0eda1c0a" d="M463.85,131l.4,2-1.2-.2Z"/><path class="eaa5e08d-5cd4-47b4-90a0-229f0eda1c0a" d="M464.05,129l-.2,2-.8,1.8-7.4-4.9,1.9-.6Z"/><path class="eaa5e08d-5cd4-47b4-90a0-229f0eda1c0a" d="M465.45,121.05l-1.4,7.9-6.6-1.6,3.1-5.2Z"/><path class="eaa5e08d-5cd4-47b4-90a0-229f0eda1c0a" d="M427.75,156l6.4,1.5-2.8,5.4-.1,7.8-3.6.8-1.4-5.8Z"/><path class="eaa5e08d-5cd4-47b4-90a0-229f0eda1c0a" d="M431.25,170.65l.1-7.8,2.8-5.4-6.4-1.5-.8-3.6,3.5-2.2,14.7,1,11.9,2.9-5.3,4.5-1.7,7-5.6,6.4-8.1,2.2Z"/><path class="eaa5e08d-5cd4-47b4-90a0-229f0eda1c0a" d="M435.65,120l-1.5,4.7-7.4,1.3,2-3.1-1-2.9,5-3.7-.1,3.1Z"/><path class="eaa5e08d-5cd4-47b4-90a0-229f0eda1c0a" d="M882.25,350.55l2.4,3.3-6.2-6.4Z"/><path class="eaa5e08d-5cd4-47b4-90a0-229f0eda1c0a" d="M873.75,310.15l.6,1.6-4.2-3.4Z"/><path class="eaa5e08d-5cd4-47b4-90a0-229f0eda1c0a" d="M884.35,409.35l-4.6,3.7h-3.3l3.1-2.6-1.7-2.9,5.9-6.6-.4-8.8,3.2,9.3,6.1.4Zm-24.5,10.7,13.7-9.4,1.9,2.6-8,7.7-4.7,1.2-5.6,5.1-4.6,2.2-5.4-1.3Z"/><path class="eaa5e08d-5cd4-47b4-90a0-229f0eda1c0a" d="M811.35,411.65,808,419l-5.2,1.1,1.5-8.7Zm-42.2-26.5-8.1,5.2-9.5.3-5.9,3.3-6.7-2.7,4-6.2-1-18.8,2.2.5,1.4-11.9,20.3-8.7,15.6-16.8,3.8-1.3,6.3,3.5,3.7-7.5,5.3-1.3-.2-3L811,322l-4,9.7,10.9,8.4,9.6-21.7,2,12,3.6,1.4.2,12.3,8.6,10.7,2.9,8.9-1.1,8.9-5.9,10.9-15.3,17.9-11.6,5-1.4-3.5-4.9,2.8-6.1-2.5v-5.8l-3-1.6,1.8-3.8-4.5,2.7,5.4-7.4-7,6.2-1.6-7-6.2-3.4Z"/><path class="eaa5e08d-5cd4-47b4-90a0-229f0eda1c0a" d="M667.05,262.25l-3.6,4.8-1.2-11.9Z"/><path class="eaa5e08d-5cd4-47b4-90a0-229f0eda1c0a" d="M736.85,229.25l-2.8-3.6,5.3-2.1Zm-92-74.7.7-2.5-3.8-5.3,5.4-1.9-.2-5.5,5,1,2.7-6.7.8-.2,10.5,7.2,1.7,4.9,11.7,3.1,4.2,4.7,22.3,3.5,11.7-3.9,2.2-2.7-1.7-4.1,16.3-4.8-5.9-4.2-5,1.1-1.2-6.5,5.7-.7-1.5-9.3,5.5-.6,6.7,2,9.4,9,4.7,1,6.7,4.9,8.4-2,1.1,10-4.6.5,3,7.9-2.4-1.8-2.1,4.7-3.7-1.1-3.7,5.8-6.6,3.2.7-4.7-2-1.6-7.3,6.8,7.3,4.9,2-2.2,5.4,2.9-6.2,6.3,10.4,10-.6,3.2,3,2.6-4.4,16.4-5.9,5.5-12.4,4.3-.3,3.3-2.2-3.3-4.9-.5-8.2-5.6-7.6,2.7-.2,4-1.8-.9-5.5-2.1-2.6-6-2.7.5.4-11.3-4-2.3-2.8-.4-1.1-3.3-10.2,5.2-4.7-1.6-2.4,3.1-2.1-1.8-19.4-7.1-6.9-4.1-1.5-8.8-3.5-3.6-7.9-5.1-.6-.9-4.8-6.2Z"/><path class="eaa5e08d-5cd4-47b4-90a0-229f0eda1c0a" d="M765.05,210.15l-.9,7.5-2.8-4.9,2.2-5.4Z"/><path class="eaa5e08d-5cd4-47b4-90a0-229f0eda1c0a" d="M474.65,140.75l8.1,1.2.5,2.8-3.8.6.8,4,15,12-3.9-.8.7,4.7-2.2,2.8-2.1-6.3-10.6-7.1-2.6-4.8-6.7.7-1.6-7Zm11.7,26.8,1.9-.3-.8,5.1-6.8-3.1Zm-15.3-8.6,2.8,1.3-2.4,4.9Z"/><path class="eaa5e08d-5cd4-47b4-90a0-229f0eda1c0a" d="M472.15,116.75l-3.2.1-.8-5.4,5.1-2.6,1,3.7Zm5.4-3.3-.4,3.8-2.4-1.6Z"/><path class="eaa5e08d-5cd4-47b4-90a0-229f0eda1c0a" d="M435.65,120l-3.1-.6.1-3.1L437,118Zm7,1.4-6.7-9.8,2.7-5.3h4.4l-2.4,3.1,4.7-.4-2.6,4.9,10.9,9.5-.6,4.3-16.8,3.4,5.6-3.8-4.3-1.6,2.5-.9-.8-3.5Z"/><path class="eaa5e08d-5cd4-47b4-90a0-229f0eda1c0a" d="M419.75,84.65l1.5,3.6-11.1,4.5-8.5-1.3,2.2-1.2-4.4-1.4,3.8-1.3-4.2-.7Z"/><path class="eaa5e08d-5cd4-47b4-90a0-229f0eda1c0a" d="M562.85,156l3.8,2.2,1.5-2,5.3,4.8-2.8,6-2.6-3.8-3.5,2.5-5-7.6,3.8.5Z"/><path class="eaa5e08d-5cd4-47b4-90a0-229f0eda1c0a" d="M546.35,151.25l16.5,4.7.6,2.5-3.8-.5-3.3.4-5.2-1.4-.7-3.4Z"/><path class="eaa5e08d-5cd4-47b4-90a0-229f0eda1c0a" d="M769.25,246.35l-1.7-2.4,3.3,1.2-.3,2.7Zm5.5,8.3,3.5-3.8-2.1,6.8Zm10.5,4.8-2,8.8-5.2-7-4.4,2.1,3.8-4.7,5.2-.9-.3-2.4Zm-21.1-2.7-3.3,2.9,5.3-9.2Zm6.4-27.6.4,12.1,6.1,1.7.8,3.9-9.6-4.1-2.6-4.8.5-9.6Zm2.3,21.1,2.9-.5-2.7,3.5Zm9-2.3,1.1,3.4-2.1-.8-.2,3.6-2.2-7.4Z"/><path class="eaa5e08d-5cd4-47b4-90a0-229f0eda1c0a" d="M715.85,265.55l2.9,2.4,2.5-1.6,6.1,15.1-7.7-4.5Zm47.7,7.2-5.5-.5-5.2,9.5-8.8,1.4-2.3-3.8,4.1.4,7.8-8.2,3.1.6.1-3.5,4.3-4.5,5.7,4.7Z"/><path class="eaa5e08d-5cd4-47b4-90a0-229f0eda1c0a" d="M756.85,268.65l-.1,3.5-3.1-.6Z"/><path class="eaa5e08d-5cd4-47b4-90a0-229f0eda1c0a" d="M482.65,141.85l5.6-1.1.9,1.1-6.6,3,.6-.3Z"/><path class="eaa5e08d-5cd4-47b4-90a0-229f0eda1c0a" d="M507.55,77.75l3.6,3.6-1.5,2,3,3,.8,6.2,3.5,1.8-6.2,6.6-11,1.8-3.7-2.4-.4-6.8,7.4-5.3-3.5-2.4-1.6-5.2-6.3-3.1,8.6,1.2,5.3-4,2.8,1Z"/><path class="eaa5e08d-5cd4-47b4-90a0-229f0eda1c0a" d="M502.65,134.15l-.9,2-12,.8-.1-1.4,4.2-2.7Z"/><path class="eaa5e08d-5cd4-47b4-90a0-229f0eda1c0a" d="M484.55,128.05l9.3,4.8-4.2,2.7-8-.8-3.4-4.1Z"/><path class="eaa5e08d-5cd4-47b4-90a0-229f0eda1c0a" d="M545.85,241l.8-7.9,4-3.2,2.6,6.3,10.6,10-1.9.4-6.5-6.1Z"/><path class="eaa5e08d-5cd4-47b4-90a0-229f0eda1c0a" d="M799.65,164.25l1.6,12.5-9.1,5.2-3.2-3.4-9.4,2.1,3.3,2.3.3,5.2-2.9.1-4-5.8,5.5-6.6,7.6-.3.3-5.5,2.2,1.5,3.1-4.3-2.3-9.2,2.3-.5Zm-1-14.6,1-1.4,2.5,3.5-10.8,5.2-1.9-12.2ZM783.45,182l2.8-2.7,2.9,1.7-3.2,3.4Z"/><path class="eaa5e08d-5cd4-47b4-90a0-229f0eda1c0a" d="M297.75,347.75l1.3,5.9,5.6.9,1.5,5,3,.2-.3,5.3-2.1,5.1-7.6-.8,1.4-6.1-13.9-9,1.5-8.1,6.9-.9Z"/><path class="eaa5e08d-5cd4-47b4-90a0-229f0eda1c0a" d="M586,226.75l3.5,7.3-22.8,12.6-2.7-2-1.6-9.7,1.3-3.8,9.6,1.9,5.2-5.1Z"/><path class="eaa5e08d-5cd4-47b4-90a0-229f0eda1c0a" d="M539.05,194.75l6.3-2.1,1-1.5-2.8-3.1L549,186l15,9.3,4.8.3,4.9,1.7,7.5,11.8,1.5.3.7,1.2,1.5,3.9,8.4.9.2,8.3-7.5,3.1-7.5,1.2-5.2,5.1-9.6-1.9-1.3,3.8-10.6-15.2-2.2-7.5-11-13.6Z"/><path class="eaa5e08d-5cd4-47b4-90a0-229f0eda1c0a" d="M531.85,176.75l4.4-1.6-1.3,1.9Z"/><path class="eaa5e08d-5cd4-47b4-90a0-229f0eda1c0a" d="M531.85,176.75l3.1.3-2.4,1.5Z"/><path class="eaa5e08d-5cd4-47b4-90a0-229f0eda1c0a" d="M444.35,176.65l2.1,9-18.9,10.6-.1,3.7-7.1,2.4-9.1,16.7-5.9.3,7.2-15,12.8-11.4,2.5-10.3L435,175Z"/><path class="eaa5e08d-5cd4-47b4-90a0-229f0eda1c0a" d="M545.75,217.55h-30.9l-1.2-29.7,23.2,1,1.8,4.6L537,200l-4.7-6.5Z"/><path class="eaa5e08d-5cd4-47b4-90a0-229f0eda1c0a" d="M514.85,217.55l.3,6.2-3.1,1.3-21-11.8-2.6,1.7-7.4-1.9-7.1-8.2.1-13.1,4.8-8.8,19.7,8.9,4-7.6,11.2,3.5Z"/><path class="eaa5e08d-5cd4-47b4-90a0-229f0eda1c0a" d="M576.75,260.75l-7.4,9.3-8.2,3.3-10,.9-7.5-5.9-6.3-7,2.7-2.7,5.8-17.7,9.5-.3,6.5,6.1-1.4,4.6,2.7.4,2.6,5.4Z"/><path class="eaa5e08d-5cd4-47b4-90a0-229f0eda1c0a" d="M561.75,246.75l1.9-.4.3,3.8-.8,1.7-2.7-.4Z"/><path class="eaa5e08d-5cd4-47b4-90a0-229f0eda1c0a" d="M579.35,250.25l.2,6.1-2.9,4.4-11.1-3.6-2.6-5.4.8-1.7,2.7,3.2Z"/><path class="eaa5e08d-5cd4-47b4-90a0-229f0eda1c0a" d="M540.05,288.35l-9.3.6-2.3.6,4.3-10.8-.9-4.1,8.4-2.2,2.9,7.2Z"/><path class="eaa5e08d-5cd4-47b4-90a0-229f0eda1c0a" d="M530.75,289l.1,3.9-3.9,1.4,1.5-4.7Z"/><path class="eaa5e08d-5cd4-47b4-90a0-229f0eda1c0a" d="M494.75,153.65l-7.2-6.6,7.9-.2.8,4.1Z"/><path class="eaa5e08d-5cd4-47b4-90a0-229f0eda1c0a" d="M504.15,154.65l1.7,3-4.7,1.5-1.3-3.1,2.3-1.2Z"/><path class="eaa5e08d-5cd4-47b4-90a0-229f0eda1c0a" d="M494.75,143.65l3.2-.7,6.4,5.8-.2,5.8-1.9.3-2.1-3.2-1.2,1.4-2.6-2.2-.8-4.1Z"/><path class="eaa5e08d-5cd4-47b4-90a0-229f0eda1c0a" d="M498.55,153.75,497,156l-2.3-1.9.2-.5,1.5-2.7,2.6,2.2Z"/><path class="eaa5e08d-5cd4-47b4-90a0-229f0eda1c0a" d="M500,156.05l-1.4-2.3.4-.7,1.2-1.4,2.1,3.2Z"/><path class="eaa5e08d-5cd4-47b4-90a0-229f0eda1c0a" d="M286.35,252.25l1.8,2-2.7.1Z"/><path class="eaa5e08d-5cd4-47b4-90a0-229f0eda1c0a" d="M531.85,274.55l-9.2-5.3-7.6-9.2-1.8-1.2,3-5.1,4.6,2.5,12.2-1,3.5-7.5,3.6,11-2.7,2.7,6.3,7-3.5,3.9Z"/><path class="eaa5e08d-5cd4-47b4-90a0-229f0eda1c0a" d="M580.15,204.55l.1,1.2-.5-1.1Z"/><path class="eaa5e08d-5cd4-47b4-90a0-229f0eda1c0a" d="M286.75,247.75v.5l-.5.2Z"/><path class="eaa5e08d-5cd4-47b4-90a0-229f0eda1c0a" d="M288.15,245l-.3-.3.3-.5Z"/><path class="eaa5e08d-5cd4-47b4-90a0-229f0eda1c0a" d="M287.15,232.85l.1-.4.4.3Z"/><path class="eaa5e08d-5cd4-47b4-90a0-229f0eda1c0a" d="M288.05,238.55l-.1-1.3.5.5Z"/><path class="eaa5e08d-5cd4-47b4-90a0-229f0eda1c0a" d="M285.15,232.15v.2l-.5-.6Z"/><path class="eaa5e08d-5cd4-47b4-90a0-229f0eda1c0a" d="M292.75,244.85l-.6.3v-.8Z"/><path class="eaa5e08d-5cd4-47b4-90a0-229f0eda1c0a" d="M289,242.15l-.2.9-.3-.5Z"/></svg>