<svg id="a41e8cf1-a90f-4fff-b4aa-1e60f3ff5eaa" data-name="Layer 1" xmlns="http://www.w3.org/2000/svg" viewBox="0 0 960 450"><defs><style>.b996d648-ff54-41b3-9402-d6fabc31b6df{fill:#f8f8f8;stroke:#404040;stroke-miterlimit:10;}</style></defs><title>world</title><path class="b996d648-ff54-41b3-9402-d6fabc31b6df" d="M947.7,304l.6,2-3.1.1Z"/><path class="b996d648-ff54-41b3-9402-d6fabc31b6df" d="M570.3,252.9l14.1,11.5-.4,11.7,2.9,5.6-7.7,3.9-7.7-.2-2.1-6.5-2.6-.6-5.2-2.7-3.5-11.9,3.8-3.5-.8-2.9-.1-3.9Z"/><path class="b996d648-ff54-41b3-9402-d6fabc31b6df" d="M457.7,164.5v.8l-.1,4.7-8.4-.2-2.9,14.3-10.8,1,.1-1.3,5.9-.3,9.1-16.7Z"/><path class="b996d648-ff54-41b3-9402-d6fabc31b6df" d="M191.6,98.9,184,93.4l.4-11.7,3.4-3.2-3.8-11L177.6,70l-4.5-3.9,23.4-25.5,7,2.2,20.7-4.2,2.4,2.7,4.3-1.8-1.5,2,17.2,1.2,1.7,1.4-3.9,1.3,3.3.5,8.8.8,3.2-1.3-1.3-1.1,2-.9,4.3-.4,7.4,3.1,9.4-2.5,2.5.9-1.7,2.6,6.9-4.7-2.7-2.6,5.8-4.7,3.5,1.5.7,2.9-2.6,1.3,3.4.5L295.6,44l4-2,1.5,1.7-.9,3.7,8-7.1,5.5.6,2,1.3-2.9,2.7-.3,2.7-10,1.5-5.9,4.8-9,3.2-11.9,7.5-4,5.5,2.9.5-.4,4.8L294.1,81l-2,5.4,2.6,6.1,4.6-4-.3-6.2,9.6-5.4-1.5-6.5,4-3,1.6-6.9,9.3-.3,7.5,3.8-1.8,5.9,2.7,2.1,9.1-6,3.5,9.5-1.5,1.8,8.5,5,1.7,7.2-11.6,5.7H325.2L311,105.4l16.4-7.3,1.7,1.5-2.8,2v5.5l6.8,1.1,3.2-3.4.9,3.3L322,115.4l-1.2-2.9,4.8-2.4-6.5.4v-5.8l-3.1-1.2-7.6,7.4h-8.1l-22,10.2,3.9-11.2-10.6-9-7.9.5-5.8-3.7-32-2ZM324.2,32.7l-.6-2.2,7.5,2.1Zm-23-5.4-6.2.1,5.1-1.7Zm1.7-8.9,1.5.8L300,20.5l-.2-2.3Zm7.7,10.3-7.4-1.1V24.1L298.1,23l10.3-.1,2.4,2.8,15.5-.2,1.2,1.9Zm-35.7-8.9,2.3.3-7.4.6Zm2.2-1.5,1.9.4-5.8.4ZM351.3,92l-3.9,4.5,7.3,1.7-.9,7.8-2.5-.4.6-2.8-3.4,2.6-8.5-2.2,6.9-9.3ZM304.4,52.8l6,3.8-15.4.5,6.2-5.9Zm21.1-19,17.2,4.7,1.9,3.5-4.3,1.2,12.1,4.9-6.4,5-7.1-3.4,3.7,7.7-1.6,2-6.7-2.9,3.4,5-5.3-1.1-9.7-6.5-8,.3,10.8-2.4,5.1-4.9-.4-2.1-8.4-5.5-19.1-.6-1.1-.9,2.9-1.1h-2.8l1.1-2.6,5.7-3.3,5.4-.6-2.5,1.6.5,1.5,8.7-3,.4,4.2Zm-27.6-4.4,7.2.7-12.7,4.5,1.3-3.4Zm-49.6-4.9,16.2-3.6-4.4,2.6ZM178,84l2.3-.2-2.4,5.7L176,85.9ZM288.3,17.1l7.5,3.2-9.1-1.1,2.4-.6Zm-99.1,83.2-4.5-.9-3-5.8L187,95Zm57.5-71.7L256,31l-20.8,6.5L231.8,35l8.2-4.5-.4-1.5ZM276,25.2l3.2.9-14.7,2.6-2.6-.7,5-1.1-11.2-.2,7.4-3,9.7,2.4-.6-2.3,2.6-.9ZM272.6,32l-.2,5.3,4,3.7-3.4.2-.8,2-22.5.6L244.6,40l10.7-1-10.5-.5-.2-.9,5.4-1-5.9-.6,12.2-4.5,1.6.5-2,1.2,10-.8.6,3.3,2.6-3.6Zm11.2.9-.9-1.6,8.8-1L289,32.2l2.1,1.1-2,2.2-4,1-5.7-3.2Zm-10.3-2.2,3.7.4-3.1,1.7Zm21.9-7.6.5,1.1-3.3,3-7.1-1.3L287,24Zm13-8.8,7.8-1.3,7.8,4.1-14.9,2.2-1.1-.9,2.8-1.4-4.7-1.7Zm10.9-2.6,24.1-2.4,29.3.9L351.4,16l-11.1,1,1.3,1.8-13.5,5.5-16.3-.7,4.5-1.6.5-1.7,5.4.8-3.9-1.9,7.1-2.2-1.5-2,9.6-.5-10.2-.1Zm6.4,34.8-4-.4,3.7-1.8Zm-39.6-5.4.5,1-1.8.9-6-1.7,4.5-1.9ZM328,104.8l4.3,1.8-2.4,1.4Z"/><path class="b996d648-ff54-41b3-9402-d6fabc31b6df" d="M191.6,98.9l34.3-3.1,32,2,5.8,3.7,7.9-.5,10.6,9-3.9,11.2,22-10.2h8.1l7.6-7.4,3.1,1.2v5.8l-10.2,6.3.5,4.4-9.7,2.2H304l-5,.5-3.8,5.6-1.1-1.7.3,3.3-3,3.7.5-6-.9,3.3-1.4-.5,1.2,8.3-17,12.7-1.3,19.4-3.1-2.1-2.7-12.6L260,156l-8.3.8-.3,3.1-13.2-1-7.5,5.2-2.3,6.2-3.5-1.7-2.9-9.3-7.7.3-4.4-7.7-11.8,1.3-8.1-4.3-6.3.6-6.6-6.4-2.4-17.6,8.8-15.9,2.3-8,3.3,3.3ZM73.8,188l1.1,1.8-2.7,1.8ZM117.9,65.8l.6,1.3-3.2-.9Zm22.7,6.8,1.5,1.1-6.7,1.7Zm55.9-32L173.1,66.1l4.5,3.9,6.4-2.5,3.8,11.1-3.4,3.2-1.1-9.5-9.5-4.1-12.7-3.7-14.3,4.8,7.8-6-30.5,15-18.3,4.2L126,75.4l8.5-5.4-11.5.7,2.3-3.8-4.7-1.5,3.4-4.3,5.6-3,9.8-1.7.3-1.7,2.6-1.1-9.7.9-3-3.3,10.2-2.5,4.4,1.3-3.8-6,2.7-1.4,26.8-6.4Z"/><path class="b996d648-ff54-41b3-9402-d6fabc31b6df" d="M684.9,98.3l-2.7,6.7-5-1,.2,5.5-5.4,1.9,3.8,5.3-.7,2.5-15.5-2.9-7.1,3.1-5.3,4.9-4.1-1.6-6.4-7.8-6.8.7-10-6.3-5.7,1.8,2.5,11.3-5.3-3.1-3.5,1.6-.6-3.1-6.4-5.6,6.1-1.9-1.1-4.9-9.1,1.4-7.5-6,1.3-6.2,2.8,1.7,3.9-5.4L609.5,94l12.9-.5-4.2-3.4,3.1-3-1.6-3,16-4,11.9,5.6,6.8-2.9,11.4,10.6,7.5-.6Z"/><path class="b996d648-ff54-41b3-9402-d6fabc31b6df" d="M616.7,122.2l-2.5-11.3,5.7-1.8,10,6.3,6.8-.7,6.4,7.8,4.1,1.6,5.3-4.9-.6,2.3,7,2-4.5,2-4.6-1.5-3.1,3.6,2.7,4.4-.7,3.2-3.4-.7-23.1-16.6Z"/><path class="b996d648-ff54-41b3-9402-d6fabc31b6df" d="M855.5,258l17.1,10.8-1.5,4,8.6,9-7.6-.5-7.7-7.8-6.2,5.3-4.1-.7Zm30.9,3.3.3,3.4-5.5-6.2Zm-4,6.7-7.9-.3,6.7-.9,3.7-4Z"/><path class="b996d648-ff54-41b3-9402-d6fabc31b6df" d="M855.5,258l-1.2,20.1-2.1-2.5-6.8.3,3.1-3.4-1.5-5.9-11-5.7-1.9,1.8-2.6-4,4.6-1.9-8.3-3.9,9.2-.5,3.8,8,5.4-5.1Zm-43.8,19.4.2,1.5-4.5,2.7Zm-17.9-40.1-1.5,2.7,4.7,7.3-3.2.3-4.6,14.8-15.7-3.3-3.2-10.3,1.8-4.9,2.3,3.8,8.8-1.4,5.2-9.5Zm30.7,21.3,3.7,3.2-7.8-1.4Zm-6.7,3.1-2.3-1.9,2.7-.2Zm2.9-18.4,2.1,3.2-1.6,6.3Zm-13.3,4,6.2-1.6-4.2,3.7h-9.3l-.5,2.3,2.4,2.7,6.5-2.5-4.9,4,4,10.6-2.5-.2,1.4-2.6-3.3.3-1.2-6-3.4,9.4-2.5-8.9,2.9-9.1,2.8-3.6ZM794,275.8l2.3,1-6.4,1Zm-25.5-6,18.7,6-27.1-4.7,2-2.9ZM758,253.3l4.5,6.1-1.1,8.5-8.4-5L733.4,233l5.9.8Z"/><path class="b996d648-ff54-41b3-9402-d6fabc31b6df" d="M322.4,411.9l3.2,3.5,7,2.5-4.1.6-3.9-.1Zm10.7-68.4-.3,11.4,5.8,9.3-5.1,5.6-7.6.3.6,6.8-5.8.1,1,3.1,4.1,1.5-3.4,2.9.2,4.6-3.6,1.6-.1,2.3,5.5,2.8-5.1,10.5,2.9,4.6-8-.8-6.2-8,.9-13.7-4.3-7.7-.1-24.9L301,347l4.6-26.7,1.9-2.8,5.2,3,.8-2.5,3.4.8,13.9,9-1.4,6.1,7.6.8,2.1-5.1,3,3.7Z"/><path class="b996d648-ff54-41b3-9402-d6fabc31b6df" d="M322.4,411.9l2.3,6.5,3.9.1-1.9,2.1-7-1.6-10.8-6.5,9.4,3.7ZM297.3,304.3l6.4,16.4,1.8-.4L300.9,347l3.5,8.8.1,24.9,4.3,7.7-.9,13.7,6.2,8,8,.8-4.7,1.8.7,2.8-3.9-.9-6.8-3.7-5.3-10.6,1.8-5.3-3.8-.9.7-7.7,3,1-.5-6.3-3.2,2.5-.5-12.2-2.5-6.5,2.2-14.7-3.8-43.7Z"/><path class="b996d648-ff54-41b3-9402-d6fabc31b6df" d="M558.1,263.8l3.5,11.9-6.1,2.6-.4,8.1,3.2,1.2.1,3.3-15.1-7.3-4.6.5-.9-11.7-4.4-1-6.9,3.4-3-6.8-10.6.7-.4-.9,2.3-3.1,4.2.5,3.8-4.4,6.6-21.7,2.7-4.8,7.8,3.2,13.2-3.8,9.2,5.3.9,4.1-4.3,10.8-1.5,4.7Z"/><path class="b996d648-ff54-41b3-9402-d6fabc31b6df" d="M590.8,255.2l-1.6-13.7,2.2-3.5,8.2-3.3,7.4-9.3,2.9-4.4-.2-6.1,5.7-1.9-3.8,16.2Z"/><path class="b996d648-ff54-41b3-9402-d6fabc31b6df" d="M584.4,264.4l-14.1-11.5,3-8.8-2.9-7.2,3.5-3.9,7.5,5.9,10-.9-2.2,3.5,1.6,13.7Z"/><path class="b996d648-ff54-41b3-9402-d6fabc31b6df" d="M545.3,224.6l-4.7-9-2.6-4.4,2.6-9.6,2.4.3-.6-12.3,3.1-1.3-.3-6.2H576l2.2,10.5,2.6,2-4,3.2-.8,7.9-5.8,17.7-3.6-11-3.5,7.5-12.2,1-4.6-2.5-3,5.1Z"/><path class="b996d648-ff54-41b3-9402-d6fabc31b6df" d="M542.3,189.5l.6,12.3-2.4-.3-2.6,9.6,2.6,4.4-12.9,10-7.1,1.5-3.6-6.6,4-1.3-2.7-8.9-2.7-4.6,4.4-7,1.5-11.7-3-7.6,2.6-1.7Z"/><path class="b996d648-ff54-41b3-9402-d6fabc31b6df" d="M292.4,189.2l-.6,5.1-7.1-.9,5.7-1-1.8-3.9Z"/><path class="b996d648-ff54-41b3-9402-d6fabc31b6df" d="M291.9,194.3l.6-5.1,8.5,3.3Z"/><path class="b996d648-ff54-41b3-9402-d6fabc31b6df" d="M124.2,35.9h0l-2.4,1.8h0Zm714,1.8-3.5-.7h0l1.1-1.1ZM115.6,42.5h0L102.7,53.1h0ZM857.3,53.1l-4.3,1,11.1,6.4L854,62.3l-2.1,5-5.1-1.9-9.7,2,.9,4.5,4.3,1.8,4.6,7.9-3.2,11.3L830.5,80l-2.2-4L834,63.7l-2.2-3.9-3.9,5.5-5.1-3.4-4.6.9-1.1,4.7,3.3,1.7-28,.2L786.1,82l8.9,2.8,3-1.3,5.6,3.2,6.3,13.8-3.6,15.3-8.1,3.6-.7-.5-3-7.9,4.6-.5-1.1-10-8.4,2-6.7-4.9-4.7-1-9.4-9-6.7-2-5.5.6,1.5,9.3-5.7.7L734.1,98l-26.4-8.2-.4,6.9-13.1-3.2L685.5,98l-.8.2-11.5-5.5-7.5.6L654.3,82.7l-6.8,2.9L635.8,80l-16,4,1.6,3-3.1,3,4.2,3.4-12.9.6-12.2-3.1-3.9,5.4-2.8-1.7-1.3,6.2,7.5,6h0l-4.6,5.4,6.1,8.6-1.5,2-3.8-2.2-16.5-4.7-8.7-5.6,5-5.5-2.1-.2,3.1-2.4-.1-5.1-11.5-2.9-4.5-5.3-4.5.7-1.5-2.9,3.1-.8-5.2-6.5-6.4-1.8-2.5-3.7.6-5.7,2.2-1.6-2.5-1.3,6.2-6.6-3.5-1.8-.8-6.2-3-3,1.5-2-3.6-3.6,4.8-1.3,11.2,1.3,10.4,4.2.7,1.8-5.2,2.1-11.2-1.7,3.9,2,1.2,4,4.7,1.6-.5-3.5,5.5,1.7,1.6-.7-2-2,4.2-2.6,4.1,1.1.7-1.9-3.6-4.8,5.9.9,1.7,1.5-2,1.8,1.9.9L589,42.7l1.6.1-1.4,1.6,10.1-1.8,2.9,1.6,1.6-1.7L601,41l.7-.9,18.2,4.6.7-1.4L615,41.1,612.5,37l3.7-5.1L623,34l-.8,2,3.3,2.6,1.4,3.5,3.1,1.6-2.1,5.6,2.6.4,3.3-4.2-2-3.3-3.6-1.7.2-2.6-3.7-2.1,2.5-1.8-1.5-1.7,2.8,1.3.6,2.5,2.3.4-1.9-1.8,2.7-1,8.5,1.3-4.9-4.8,11.7-.7L645,28.2l1-1.6,23.3-3.1,3.9-3,8.1,2.9,14.4,1.5L690.4,29,720,32l-1.8-1.9,7.6.4,15.4,7-.7-2.6,15.9.8-3.8-2.3,1.4-1.1L773.5,34l10.7,3.5,11.9-.1,8.1,3.7,13.5-.4L824,43l1.5-.9-4.1-2.8,22.9,3ZM646.7,13.4,650,13l11,3.1,1.6,2-3.7.3-15.3-3.5ZM667,17.2l5.9,1.2-9.1,1.8Zm74.8,7.3,13.5,1.4.7,1.8-9.7.5-5.6-1.6ZM762,26.4l5.5.6-9.1-.2Zm-201.9-12,11.8-.2-6.2,1.5ZM531.6,83.1l-7-.2,3.4-2.3Zm51.9-52.8,11.7-6.1,14.1-.7-16.9,5.4-3.8,4.8,6,4.2L582,36.1l3.4-5.5ZM805.9,85l13.7,14-4.1-1,1.4,4.3,5.4,5.2-2.9-1.8-.1,2.3L804,86.2l-.7-2.8ZM120.2,47.2l-1.5,2.3,1.8-1.9,5.1.4,1.2,2.5L119.7,52l-4.4,3.2-6.3-5-6.4,3.1,12.9-10.6Zm4.4-9.6-2.8.1,2.4-1.8,4,.6ZM559.8,108l3.9.7,3.8.8-5.9,3.4-3.9-3Z"/><path class="b996d648-ff54-41b3-9402-d6fabc31b6df" d="M278,172.1l.9,4.6-1.8-2.6Z"/><path class="b996d648-ff54-41b3-9402-d6fabc31b6df" d="M338.7,409.6l5.5-2.2,2.2,1.3Z"/><path class="b996d648-ff54-41b3-9402-d6fabc31b6df" d="M507.4,16.3l12,1.6L509.8,23l-10.9-6.6ZM542.6,41l-4.8,1.3.5-1.9-2.8-1-5.3,4-8.6-1.2-7.5,2.9-5.6,10.6-2.1-.1.2,11L504,70.1l-1.6-1.7-4.1,3.3-6-.8-1.8-9.5,12.1-11.2,15.7-10,17.3-3.5,6.7,1.9-2.5.6ZM529.3,15.5,521.8,17l-10.6-2Zm-3.6,4.9-7.3.4L522,19Z"/><path class="b996d648-ff54-41b3-9402-d6fabc31b6df" d="M398.9,10.2l34.8-1.7L443.9,10l-19.6,1,16.9.9-2.3,1.2,13.4-1.5,6.1,1.2L444,15.3l4.1.1L444,18.5l-.5,2.5,2,1.6-6.2.9,3.3,1.3.1,2-2.1.3,2.2,2.1-8.6,2.5,2,2.8-4.9-.4,5.3,4.2-7.3-2,.3,1.8-2.5,1.4,8.1.2L414.8,45l-17.9,6.9-8.4,7.6-3.1,7.2-10.1-2.1-4.8-7.7L369,47.3l8.9-7.2-8,.9,1.9-3.2,5.7.6-7.8-2.8,3.2-2.3L368.7,26l-18.1-1.3-4.1-2.2,9.2-.8-11-1.7,16-3.1-3-1.6,12.2-2.6v-.9l22.4-1.3,9.3,1.5Z"/><path class="b996d648-ff54-41b3-9402-d6fabc31b6df" d="M642.2,400l3.2,1.9-4.8,1.5Z"/><path class="b996d648-ff54-41b3-9402-d6fabc31b6df" d="M811.7,277.4l6.5-1.5-6.3,3.1Z"/><path class="b996d648-ff54-41b3-9402-d6fabc31b6df" d="M521.8,338.3l9.2-.3.5-11.4,4.1,6.1,4.6-4.6,6,.7,10.4-10.6,4.5.5,1.1,11.2-3.3,2.8h5.6l-2.1,6.3-11.1,12.5-20.9,6.3-4.2-2.1v-7.6Zm32.3,1.2-5.2,2.8,2.7,2.1Z"/><path class="b996d648-ff54-41b3-9402-d6fabc31b6df" d="M554.1,339.5l-2.5,4.9-2.7-2.1Z"/><path class="b996d648-ff54-41b3-9402-d6fabc31b6df" d="M183.7,149.4l6.3-.6,8.1,4.3,11.8-1.3,4.4,7.7,7.7-.3,2.9,9.3,3.5,1.7-2.9,10.5,3.3,11.2,3.6,2.1,8.2-2.2,3.9-6.6,8.7-1.6-4.6,9.4-2.6,2h-4.9l.8,5.4h-3.4l-1.8,4.7-3.9-4.3-7.2.9-20.5-11.3-.8-10.7-11.5-19.2-.3-6.9-3.6-2-1.2,5.2,8.3,21.1-2,1.6-4.3-5.9.7-4-5.8-5.2,3-2.7Z"/><path class="b996d648-ff54-41b3-9402-d6fabc31b6df" d="M333.1,343.5l10.6,5.7,1.9,5.3-3.4,3.6-9.3-3.2Z"/><path class="b996d648-ff54-41b3-9402-d6fabc31b6df" d="M345.6,354.5l-1.9-5.3-10.6-5.7,8.9-10.2-3-3.7.3-5.3-3-.2-1.5-5-5.6-.9-1.3-5.9,1.2-6.2-2.4-5.8-5-.1-1.5-7.7-13.5-6.8-.1-5.6-11,3.7-2.7.2v-4.6l-7.3-.1-2.3-6,2.7-7,8-3,.1-18.5,6-.9,1.8,2.4,7.1-.8,2.2-2.1-3.8-5.7,4.6.9,6.3-4.4,3.1,3.8-.3,6.7,8.3-.3,5.3-1.3,4.2.5,3.5-6.2,4.4,7.4-1.2,5.6,4.8.5.1,3.1,2-2,7.7,3,.9,3.5,12.2.6,11.7,7,2.4,6.7-.9,5.1-8.9,12.5-.8,14.9-3.6,12.6L356.6,327l-1.9,11.8Z"/><path class="b996d648-ff54-41b3-9402-d6fabc31b6df" d="M295.8,283.7l11-3.7.1,5.6,13.5,6.8,1.5,7.7,5,.1,2.4,5.8-1.2,6.2-2.7-2.5-6.9.9-1.5,8.1-3.4-.8-.8,2.5-5.2-3-1.9,2.8-1.8.4-6.4-16.4,1.2-15.6Z"/><path class="b996d648-ff54-41b3-9402-d6fabc31b6df" d="M294,263.2l-8,3-2.7,7,2.3,6,7.3.1v4.6l2.7-.2,2.7,5-1.2,15.6-1.9,2.3-15.9-11.4-11.5-23L264,269l-.6-4.4,2.8-4.1-.3,3.2,3.3,1.6,9.5-10.5.4-4.3,6.2,6.6,8.1,1.3-1.6,3.2Z"/><path class="b996d648-ff54-41b3-9402-d6fabc31b6df" d="M301.9,246.2l-1.8-2.4-6,.9-.1,18.5-2.2-1.7,1.6-3.2-8.1-1.3-6.2-6.6-9.3-4.8,4.8-7.6-1.7-10.4,1.6-4.4,4.6-2.4,2.3-5,8.6-4.2,1,2.1-5.7,8.1,3.2,6.7,12.2,2.7-1.5,10.1Z"/><path class="b996d648-ff54-41b3-9402-d6fabc31b6df" d="M274.6,223.3l-1.6,4.4-3-5.5-3.8,5.4-6.6-3,1.4-4.1Z"/><path class="b996d648-ff54-41b3-9402-d6fabc31b6df" d="M261,220.5l-1.4,4.1-6.8-5.2.1-3.6,5.4.4Z"/><path class="b996d648-ff54-41b3-9402-d6fabc31b6df" d="M258.4,216.2l-5.4-.4-3.8-5.9,11.6-6.2Z"/><path class="b996d648-ff54-41b3-9402-d6fabc31b6df" d="M260.8,203.8,249.2,210l-1.1-1.2-3.8-3.2,3.5-4.1,8.6-.8Z"/><path class="b996d648-ff54-41b3-9402-d6fabc31b6df" d="M244.2,205.5l3.8,3.2-6-1.1Z"/><path class="b996d648-ff54-41b3-9402-d6fabc31b6df" d="M236.8,205.1l1.8-4.7H242l-.8-5.4h4.9l-.2,6,1.9.4-3.5,4.1-2.1,2.1Z"/><path class="b996d648-ff54-41b3-9402-d6fabc31b6df" d="M246,195l2.5-2.1-2.7,8.1Z"/><path class="b996d648-ff54-41b3-9402-d6fabc31b6df" d="M318.4,233.9l-6.3,4.4-4.6-.9,3.8,5.7-2.2,2.1-7.1.8-2.4-4.9,1.5-10.1-12.2-2.7-3.2-6.7,5.7-8.1-1.5,8.4L291,216l4.2-3.7,4.3,5,16.7-.5-2.3.9,7.6,6.3-4.7,7.4Z"/><path class="b996d648-ff54-41b3-9402-d6fabc31b6df" d="M329.4,244.2l-8.3.3.3-6.7-3.1-3.8-1.7-2.3,4.7-7.4,6.6,7.4-2.5,5.9Z"/><path class="b996d648-ff54-41b3-9402-d6fabc31b6df" d="M334.8,242.9l-5.3,1.3-4-6.7,2.5-5.9,8.5.6Z"/><path class="b996d648-ff54-41b3-9402-d6fabc31b6df" d="M342.4,237.2l-3.5,6.2-4.2-.5,1.7-10.7Zm152-139.7,4.5,1.3-1.3,4.2-3.4,2.7,2,2.2,1.6,7-10.7,3.7-11.9-2.9,1.8-7.9-8-8,7,.2-.7-3.4,2.2,1.2,8.1-5.4,7.4,4.9Zm6.9,20.7,1.5-1.2-.2,5Z"/><path class="b996d648-ff54-41b3-9402-d6fabc31b6df" d="M279.2,250.5l-.4,4.3-9.5,10.5-3.3-1.6.3-3.2,1.4-2.3-3.3-1.3.1-3.7,5.6-7.5Z"/><path class="b996d648-ff54-41b3-9402-d6fabc31b6df" d="M306.3,192.9l1.7.9-4.3.9Z"/><path class="b996d648-ff54-41b3-9402-d6fabc31b6df" d="M276.6,193l3.4,1.9-5.5-1.1Z"/><path class="b996d648-ff54-41b3-9402-d6fabc31b6df" d="M266.4,178.4l9.8,2.1,9.9,6.9-9.5,1.4,2-1.8-3.8-3.6-7.5-3.3-8.7,2.3Z"/><path class="b996d648-ff54-41b3-9402-d6fabc31b6df" d="M561.1,318.7l-4.5-.5-10.3-13.5,4.7.6,8.8-7.5,6.6,3.7-1,11.1Z"/><path class="b996d648-ff54-41b3-9402-d6fabc31b6df" d="M556.6,318.2l-10.4,10.6-6-.7-4.6,4.6-4.1-6.1,3.4-20.2,11-1.9.4.3Z"/><path class="b996d648-ff54-41b3-9402-d6fabc31b6df" d="M531.5,326.5,531,338l-9.2.3-11-35,30.2.7,4.9.4-11,1.9Z"/><path class="b996d648-ff54-41b3-9402-d6fabc31b6df" d="M435.9,208l-2.3-3.4,3.1-4.4,5-1.5,6.3,6.2,1.6,6.7-5.7-.4-7.9.6-.4-2.4,7.9-1Z"/><path class="b996d648-ff54-41b3-9402-d6fabc31b6df" d="M449.5,211.6l-1.6-6.7,1.4-2.4,16.1-.3-2.2-29.4h4l21,18.3,2.9-.3-1.5,11.1-8.6,2-11.6,4.5-3.8,9.6-7,.5-2.9-6.5Z"/><path class="b996d648-ff54-41b3-9402-d6fabc31b6df" d="M435.5,185.1l10.8-1,2.9-14.3,8.4.2.1-4.7,9.5,7.6h-4l2.2,29.4-16.1.3-1.4,2.4-6.3-6.2-5,1.5.7-12.3Z"/><path class="b996d648-ff54-41b3-9402-d6fabc31b6df" d="M487.1,230.7l-2.1.3-2.6-15,3.4-2.9,3.8.9Z"/><path class="b996d648-ff54-41b3-9402-d6fabc31b6df" d="M518.6,179.4l3,7.6-1.5,11.7-4.4,7,2.7,4.6-.9,1.2-2.9-3.5-10.8,2.4-9.5-3.2-3.5,1-1.3,5.7-3.8-.9-4.7-9.2,8.6-2,1.5-11.1,20-13.4Z"/><path class="b996d648-ff54-41b3-9402-d6fabc31b6df" d="M487.1,230.7l2.4-16.7,1.3-5.7,3.5-1,9.5,3.2,10.8-2.4,2.9,3.5-6.3,16.9-6.7,1.7-1.9,5.1-6.9,1.5-4.2-6.2h-4.4Z"/><path class="b996d648-ff54-41b3-9402-d6fabc31b6df" d="M518.3,210.3l2.7,8.9-4,1.3,3.6,6.6-2.1,8.3,4.1,7.6H505.7l-3.1-7.7,1.9-5.1,6.7-1.7,6.3-16.9Z"/><path class="b996d648-ff54-41b3-9402-d6fabc31b6df" d="M482.4,216.1l2.6,15-2.1.7-2.7-15.7Z"/><path class="b996d648-ff54-41b3-9402-d6fabc31b6df" d="M480.1,216l2.7,15.7-10.4,2.9.1-14.4-.3-4.1Z"/><path class="b996d648-ff54-41b3-9402-d6fabc31b6df" d="M458.7,218.6l7-.5,6.9,2.2-.1,14.4-12.9,2-1.9-10.3Z"/><path class="b996d648-ff54-41b3-9402-d6fabc31b6df" d="M443.8,211.2l5.7.4,6.3.4,2.9,6.5-1.1,7.8-2.2,1.1-2.7-3.3-2.2-5-5.7,3.5-5-6.6Z"/><path class="b996d648-ff54-41b3-9402-d6fabc31b6df" d="M435.9,211.8l7.9-.6-3.9,4.8Z"/><path class="b996d648-ff54-41b3-9402-d6fabc31b6df" d="M457.6,226.3l1.9,10.3-9.9-7.5,3.2-5,2.7,3.3Z"/><path class="b996d648-ff54-41b3-9402-d6fabc31b6df" d="M444.9,222.6l5.7-3.5,2.2,5-3.2,5Z"/><path class="b996d648-ff54-41b3-9402-d6fabc31b6df" d="M465.7,218l3.8-9.6,11.6-4.5,4.7,9.2-3.4,2.9-2.3-.1-7.9.2.3,4.1Z"/><path class="b996d648-ff54-41b3-9402-d6fabc31b6df" d="M552.9,233.9l-13.2,3.8-7.8-3.2-2.7,4.8-3.5-.7-3,4.4-4.1-7.6,2.1-8.3,7.1-1.5,12.9-10,4.7,9Z"/><path class="b996d648-ff54-41b3-9402-d6fabc31b6df" d="M529.1,239.2l-6.6,21.7-3.8,4.4-4.2-.5-2.9.8-2.1-3.2,4-6.3,4.5.2v-9.8l-3.3-3.3h7.8l3-4.4Z"/><path class="b996d648-ff54-41b3-9402-d6fabc31b6df" d="M510,243h4.8l3.3,3.3v9.8l-4.5-.2-4,6.3-6.1-8.9,1.8-6.5,4.8-.2Z"/><path class="b996d648-ff54-41b3-9402-d6fabc31b6df" d="M505.7,243H510v3.8l-4.8.2Z"/><path class="b996d648-ff54-41b3-9402-d6fabc31b6df" d="M561.7,275.7l5.2,2.7.8,14.6-8.1,2.6.1,2.2-8.8,7.5-4.7-.6-.4-.3L541,304l-3.3-4.5.4-9.8h5.5l-.2-6.2,15.1,7.3-.1-3.3-3.2-1.2.4-8.1Z"/><path class="b996d648-ff54-41b3-9402-d6fabc31b6df" d="M566.9,278.4l2.6.6,2.1,6.5-.2,6.3,2.8,3.2-2,6.8-1.3-6.8-3.2-2Z"/><path class="b996d648-ff54-41b3-9402-d6fabc31b6df" d="M571.5,285.5l7.7.2,7.7-3.9-.2,15.7L571,311.1l1.3,12.2-8.2,6.3.4,3.1h-2l-.4-2.8L561,318.7l4.2-6,1-11.1-6.6-3.7-.1-2.2,8.1-2.6,3.2,2,1.3,6.8,2-6.8-2.8-3.2Z"/><path class="b996d648-ff54-41b3-9402-d6fabc31b6df" d="M562.5,332.6h-3.6l3.3-2.8Z"/><path class="b996d648-ff54-41b3-9402-d6fabc31b6df" d="M514.6,264.8l-2.3,3.1-.7-2.3Zm-1.8,4,10.6-.7,3,6.8,6.9-3.4,4.4,1,.9,11.7,4.6-.5.2,6.2H538l-.4,9.8,3.3,4.5-30.1-.7,5.5-18.5Z"/><path class="b996d648-ff54-41b3-9402-d6fabc31b6df" d="M561.1,257.4l.8,2.9-3.8,3.5-.9-5Z"/><path class="b996d648-ff54-41b3-9402-d6fabc31b6df" d="M570.3,148.9l-.3.9-1.1,8.2-1.8-4.6,1.6-5.8,1.7-.6Z"/><path class="b996d648-ff54-41b3-9402-d6fabc31b6df" d="M570.4,147.1l-1.7.6,1.6-4.8,1.7,1.4Z"/><path class="b996d648-ff54-41b3-9402-d6fabc31b6df" d="M611,288.4l1.6,10h-1.8L601.7,327l-4.5,2.1-3.4-1.9-1.2-6.9,3.7-10.4-.8-6.3Z"/><path class="b996d648-ff54-41b3-9402-d6fabc31b6df" d="M435.9,208l7.5.3-7.9,1Z"/><path class="b996d648-ff54-41b3-9402-d6fabc31b6df" d="M504.2,156.3l-5-9.4,1.8-11.2,6.4-.5-1.8,8.6,3.4,3.7Z"/><path class="b996d648-ff54-41b3-9402-d6fabc31b6df" d="M457.7,165.3v-.8l.1-3.7,18.9-10.6-2.1-9,9-4.5,17.4-1-1.8,11.2,5,9.4-.1,13.1,7.1,8.2-20,13.4-2.9.3-21-18.3Z"/><path class="b996d648-ff54-41b3-9402-d6fabc31b6df" d="M570,149.8l.3-.9,2.9,1.2,4.6-3.4,1.5,3.8-5.4,2.1,2.8,3.1-1,1.5-6.3,2.1Z"/><path class="b996d648-ff54-41b3-9402-d6fabc31b6df" d="M613.6,175.1l6.3.4,4.6-6,.7,1,.6,2.5-2.3,6.9-8.4-.9Z"/><path class="b996d648-ff54-41b3-9402-d6fabc31b6df" d="M611.5,173.5l.8-4.2.7,4.6Z"/><path class="b996d648-ff54-41b3-9402-d6fabc31b6df" d="M602.3,157.3l1.6,4.5-4.9-1.7Z"/><path class="b996d648-ff54-41b3-9402-d6fabc31b6df" d="M579.3,150.5l-1.5-3.8,5.2-3.2,2.3-8.7,6.1.2,3.8,4.6-.9,5.2,9.6,12.6-1.5-.2-3.3,2.8-4.8-.3Z"/><path class="b996d648-ff54-41b3-9402-d6fabc31b6df" d="M623.5,179.9l2.3-6.9,9.7,8.1L631,191.5l-11.4,7.1-3.5-7.3,7.5-3.1Z"/><path class="b996d648-ff54-41b3-9402-d6fabc31b6df" d="M919.2,298.4l.3-3.3,1,3.4Z"/><path class="b996d648-ff54-41b3-9402-d6fabc31b6df" d="M751.4,212.4l.3-6.2,5.9-.2,5.8.3.9,5.7-7.8,5.7Z"/><path class="b996d648-ff54-41b3-9402-d6fabc31b6df" d="M757.7,206l-5.9.2-.3,6.2-7-3.8L743,219.3l8.7,11.5-2.5,1.6-2.9-2.4-4.5-5.9-.3,1.8.1-6.6,2.2-6.1-4.7-10,1.4-3.3-5-7,6.3-6.1,3.5,3,.4,6,5.2-2.5,4.4,2.7Z"/><path class="b996d648-ff54-41b3-9402-d6fabc31b6df" d="M763.4,206.2l-5.8-.3-2.7-9.8-4.4-2.7-5.2,2.5-.4-6-3.5-3,2.2-3.2,1.8.9.2-4,3.6,5.3h3.2l1.5,2.7-2,2L762.4,201Z"/><path class="b996d648-ff54-41b3-9402-d6fabc31b6df" d="M741.5,186.9l-6.3,6.1,5,7-1.4,3.3,4.7,10-2.2,6.1-6-21.7-4.2,3.8-3.3-1-.4-6.7-6.2-7.6.1-4.2,3.6-14.1,4.9-1.5-.4-3.7,4,2.3-.4,11.3,2.7-.5,2.6,6,5.5,2.1Z"/><path class="b996d648-ff54-41b3-9402-d6fabc31b6df" d="M756.5,217.7l7.8-5.7-.9-5.7-.9-5.3L752,190.6l2-2-1.5-2.7h-3.2l-3.6-5.3,7.6-2.7,8.2,5.6-4.9,7.7,10.2,11.7L769,214l-9.9,9.5Z"/><path class="b996d648-ff54-41b3-9402-d6fabc31b6df" d="M797.5,118.9l.7.5-4.5,7.6,3.7,3.6-4.3,2.7-4.1-1.1v-3.9l-3.5-1.7,3.7-5.8,3.7,1.1,2.1-4.7Z"/><path class="b996d648-ff54-41b3-9402-d6fabc31b6df" d="M793.1,133.2l4.3-2.7,5.1,5.6,1.1,5.2-5.7,2.1Z"/><path class="b996d648-ff54-41b3-9402-d6fabc31b6df" d="M685.7,98l8.7-4.5,13.1,3.2.4-6.9L734.3,98l18.3-1.8,1.2,6.5,5-1.1,5.9,4.2-16.3,4.8,1.7,4.1-2.2,2.7-11.7,3.9-22.3-3.5-4.2-4.7L698,110l-1.7-4.9Z"/><path class="b996d648-ff54-41b3-9402-d6fabc31b6df" d="M729.4,162.6l.4,3.7-4.9,1.5-3.6,14.1-2.3-5-2.5.4,2.4-4.6-6.6-.9-4.2-3.6,1.7,3.7-1.8,2.3,3.7,7.6-5,1.7-.6,4.2-14.6,13.1.2,17.1-5.8,7.4-12.4-24.8-4.2-16.6-5.5,1.5-7.1-8.8,7.1-2.1-5.1-8,5.4-3,6.3-13.6-5.1-6.3,9.4-3.7,3.5,3.6,1.5,8.8,6.9,4.1L685,161l9.1,4.5,12.7,2.9-.7-4.6,2.1,1.8,8.6,1.5-1.5-2.9,10.2-5.2,1.1,3.3Z"/><path class="b996d648-ff54-41b3-9402-d6fabc31b6df" d="M721.3,182l-.1,4.2-3.6-6.4-5.8,2.1-3.7-7.6,1.8-2.3-1.7-3.7,4.2,3.6,6.6.9-2.4,4.6,2.5-.4Z"/><path class="b996d648-ff54-41b3-9402-d6fabc31b6df" d="M715.4,164.2l1.5,2.9-8.6-1.5,2.4-3.1Z"/><path class="b996d648-ff54-41b3-9402-d6fabc31b6df" d="M706.1,163.8l.7,4.6-12.7-2.9L685,161l1.8-4.3Z"/><path class="b996d648-ff54-41b3-9402-d6fabc31b6df" d="M674.8,140.2l-9.4,3.7,5.1,6.3-6.3,13.6-5.4,3,5.1,8-7.1,2.1-5.5-5.3-12.4,1,4-5.2-7.7-9.5,14-.3.8-4.4,5.7-1.8.2-6.6,3.5-3.5-1.6-2.8,9-3.3Z"/><path class="b996d648-ff54-41b3-9402-d6fabc31b6df" d="M645.3,134.4l3.4.7,6.4-4.2,3.8,5.4,7.3-2.1.6.9-9,3.3,1.6,2.8-3.5,3.5-.2,6.6-5.7,1.8-.8,4.4-14,.3,1.9-2.8-4.4-7,.2-8.2,4.6.7,3.3-5.2Z"/><path class="b996d648-ff54-41b3-9402-d6fabc31b6df" d="M648.7,135.1l.7-3.2-2.7-4.4,3.1-3.6,4.6,1.5-3.3,2.2,10.4.3,4.8,6.2-7.3,2.1-3.8-5.4Z"/><path class="b996d648-ff54-41b3-9402-d6fabc31b6df" d="M652.6,119.3l7.1-3.1,15.5,2.9L661.5,128l-10.4-.3,3.3-2.2,4.5-2-7-2Z"/><path class="b996d648-ff54-41b3-9402-d6fabc31b6df" d="M607.9,120.8l3.5-1.6,5.3,3.1,5.5-4.4,23.1,16.6-4.3.8-3.3,5.2-4.6-.7-.7-2.7-10.3-4.7-8,2.6-1.1-5.5-3.5-3.3v-2.6l4.4-.3-3.2-3.6-1.6,3.1Z"/><path class="b996d648-ff54-41b3-9402-d6fabc31b6df" d="M603.9,157.5l-9.6-12.6.9-5.2-3.8-4.6-2.7-7,1.5-.9,3.8,3,.8-.1,3.5-2.5,2.6,3.8,5.6,4.5,7.6-.9,8-2.6,10.3,4.7.7,2.7-.2,8.2,4.4,7-1.9,2.8,7.7,9.5-4,5.2-10.9-2.1-2.8-4.3-7.5.9-5.5-3.3-4.5-7.1Z"/><path class="b996d648-ff54-41b3-9402-d6fabc31b6df" d="M570.3,148.9v-1.8l1.7-2.8-1.7-1.4v-3.7l1.1-3.1,13.8-1.2-2.3,8.7-5.2,3.2-4.6,3.4Z"/><path class="b996d648-ff54-41b3-9402-d6fabc31b6df" d="M594.8,130.1l-.8.1-3.8-3-3.6-4.3,3.3-.4Z"/><path class="b996d648-ff54-41b3-9402-d6fabc31b6df" d="M504.2,70.1l2.6-3.5-.2-11,2.1.1,5.6-10.6,7.5-2.9,6.3,3.1,1.6,5.2-11.5,8.9L517,63.2l4.1,3.6-3.9,3.8-1.5,7.5-6.4,2.2Z"/><path class="b996d648-ff54-41b3-9402-d6fabc31b6df" d="M543.2,77.8l6.4,1.8,5.2,6.5-3.1.8,1.5,2.9-2.5,2.3-16.3-.7-.9-6.9,4.5-1.1,1.7-3.9Z"/><path class="b996d648-ff54-41b3-9402-d6fabc31b6df" d="M553.2,89.7l4.5-.7,4.5,5.3,11.5,2.9.1,5.1-3.1,2.4-7.1,4.1-3.9-.7-6.6-1.8-2.2,3.9-3.3-.7,3.5-3.5-3.5-4.3-4.9-.3-9.1,1-1.7-1.6.9-2,2.7-4.1-1.3-3.4,16.3.7Z"/><path class="b996d648-ff54-41b3-9402-d6fabc31b6df" d="M533.5,84.3l.9,6.9,1.3,3.4L533,98.7l-8.8-1.2-9.3-4.8-2.6-7.8,7.7-3.2,4.7,1.2,7,.2Z"/><path class="b996d648-ff54-41b3-9402-d6fabc31b6df" d="M520,101.5l-1.5,3.8-5.6,1.1-8.1-1.2-2.1-1.9,7.9.2,1.4-4.2,8,.8Z"/><path class="b996d648-ff54-41b3-9402-d6fabc31b6df" d="M532,100.7l1.7,1.6-5.5,5.3-3.2.7-5.6-1.8-.9-1.1,1.5-3.8Z"/><path class="b996d648-ff54-41b3-9402-d6fabc31b6df" d="M542.8,101.3l4.9.3,3.5,4.3-3.5,3.5Z"/><path class="b996d648-ff54-41b3-9402-d6fabc31b6df" d="M547.6,109.5l3.3.7-2,4.8-14.3-1.6-6.4-5.8,5.5-5.3,9.1-1Z"/><path class="b996d648-ff54-41b3-9402-d6fabc31b6df" d="M539.7,79.4,538,83.3l-4.5,1.1-1.9-1.2L528,80.7l-.8-2.4,8.5-1Z"/><path class="b996d648-ff54-41b3-9402-d6fabc31b6df" d="M540.7,74.1l2.5,3.7-3.5,1.6-3.9-2.2-8.5,1,.7-4,5.8,1.1.2-2.2Z"/><path class="b996d648-ff54-41b3-9402-d6fabc31b6df" d="M541.3,68.4l-.6,5.7-6.7-1-2.7-3.9Z"/><path class="b996d648-ff54-41b3-9402-d6fabc31b6df" d="M512.2,84.8l2.6,7.8-6.3,2.5,3.4,4.1-1.4,4.2-7.9-.2-5-.3,1.3-4.2-4.5-1.3-.4-2,.2-2,1.4-7.9,4.3-1.5-.8-2.7,3.2-.1,2.5,2.8Z"/><path class="b996d648-ff54-41b3-9402-d6fabc31b6df" d="M534.6,113.3l14.3,1.6-.8,5.2-4.5.6-7.5,1.4-1.7-3Z"/><path class="b996d648-ff54-41b3-9402-d6fabc31b6df" d="M536.1,122.2l7.5-1.4.2,3.1-8.3,1.7,4,6.3-2.9,2.8,1.2,2.7L534,136l-4.3-8.6,1.8-3.8Z"/><path class="b996d648-ff54-41b3-9402-d6fabc31b6df" d="M591.4,135l-6.1-.2L571.5,136l-1.1,3.1-.3-2.6-3.7-.4-5.3,2.1-12.3-1.7-4.5-8.6,7-5.4,10.2-2.5,12.3,3.2,7.5-1.8,5.2,1.4,3.6,4.3-1.5.9Zm-47.8-14.3,4.5-.6,2.3,2.9-5.7,2.8-.9-2Z"/><path class="b996d648-ff54-41b3-9402-d6fabc31b6df" d="M531.4,123.7l-1.8,3.8-2.5-6.9,1.6-2.2,1.4,2.3Z"/><path class="b996d648-ff54-41b3-9402-d6fabc31b6df" d="M519.4,106.4l5.6,1.8.7,3.2-7.9.2,7.2,6.6-.2.5-12.1-9.2Z"/><path class="b996d648-ff54-41b3-9402-d6fabc31b6df" d="M502.8,103.3l2.1,1.9-8.5,2.7-2-2.2,3.4-2.7Z"/><path class="b996d648-ff54-41b3-9402-d6fabc31b6df" d="M494.1,95.5l.4,2-1.2-.2Z"/><path class="b996d648-ff54-41b3-9402-d6fabc31b6df" d="M494.3,93.5l-.2,2-.8,1.8-7.4-4.9,1.9-.6Z"/><path class="b996d648-ff54-41b3-9402-d6fabc31b6df" d="M495.7,85.6l-1.4,7.9-6.6-1.6,3.1-5.2Z"/><path class="b996d648-ff54-41b3-9402-d6fabc31b6df" d="M458,120.5l6.4,1.5-2.8,5.4-.1,7.8-3.6.8-1.4-5.8Z"/><path class="b996d648-ff54-41b3-9402-d6fabc31b6df" d="M461.5,135.2l.1-7.8,2.8-5.4-6.4-1.5-.8-3.6,3.5-2.2,14.7,1,11.9,2.9-5.3,4.5-1.7,7-5.6,6.4-8.1,2.2Z"/><path class="b996d648-ff54-41b3-9402-d6fabc31b6df" d="M465.9,84.5l-1.5,4.7L457,90.5l2-3.1-1-2.9,5-3.7-.1,3.1Z"/><path class="b996d648-ff54-41b3-9402-d6fabc31b6df" d="M912.5,315.1l2.4,3.3-6.2-6.4Z"/><path class="b996d648-ff54-41b3-9402-d6fabc31b6df" d="M904,274.7l.6,1.6-4.2-3.4Z"/><path class="b996d648-ff54-41b3-9402-d6fabc31b6df" d="M914.6,373.9l-4.6,3.7h-3.3l3.1-2.6-1.7-2.9,5.9-6.6-.4-8.8,3.2,9.3,6.1.4Zm-24.5,10.7,13.7-9.4,1.9,2.6-8,7.7-4.7,1.2-5.6,5.1-4.6,2.2-5.4-1.3Z"/><path class="b996d648-ff54-41b3-9402-d6fabc31b6df" d="M841.6,376.2l-3.4,7.3-5.2,1.1,1.5-8.7Zm-42.2-26.5-8.1,5.2-9.5.3-5.9,3.3-6.7-2.7,4-6.2-1-18.8,2.2.5,1.4-11.9,20.3-8.7,15.6-16.8,3.8-1.3,6.3,3.5,3.7-7.5,5.3-1.3-.2-3,10.6,2.2-4,9.7,10.9,8.4,9.6-21.7,2,12,3.6,1.4.2,12.3,8.6,10.7,2.9,8.9-1.1,8.9L868,348l-15.3,17.9-11.6,5-1.4-3.5-4.9,2.8-6.1-2.5v-5.8l-3-1.6,1.8-3.8-4.5,2.7,5.4-7.4-7,6.2-1.6-7-6.2-3.4Z"/><path class="b996d648-ff54-41b3-9402-d6fabc31b6df" d="M697.3,226.8l-3.6,4.8-1.2-11.9Z"/><path class="b996d648-ff54-41b3-9402-d6fabc31b6df" d="M767.1,193.8l-2.8-3.6,5.3-2.1Zm-92-74.7.7-2.5-3.8-5.3,5.4-1.9-.2-5.5,5,1,2.7-6.7.8-.2,10.5,7.2,1.7,4.9,11.7,3.1,4.2,4.7,22.3,3.5,11.7-3.9,2.2-2.7-1.7-4.1,16.3-4.8-5.9-4.2-5,1.1-1.2-6.5,5.7-.7-1.5-9.3,5.5-.6,6.7,2,9.4,9,4.7,1,6.7,4.9,8.4-2,1.1,10-4.6.5,3,7.9-2.4-1.8-2.1,4.7-3.7-1.1-3.7,5.8-6.6,3.2.7-4.7-2-1.6-7.3,6.8,7.3,4.9,2-2.2,5.4,2.9-6.2,6.3,10.4,10-.6,3.2,3,2.6-4.4,16.4-5.9,5.5-12.4,4.3-.3,3.3-2.2-3.3-4.9-.5-8.2-5.6-7.6,2.7-.2,4-1.8-.9-5.5-2.1-2.6-6-2.7.5.4-11.3-4-2.3-2.8-.4-1.1-3.3-10.2,5.2-4.7-1.6-2.4,3.1-2.1-1.8-19.4-7.1-6.9-4.1-1.5-8.8-3.5-3.6-7.9-5.1-.6-.9-4.8-6.2Z"/><path class="b996d648-ff54-41b3-9402-d6fabc31b6df" d="M795.3,174.7l-.9,7.5-2.8-4.9,2.2-5.4Z"/><path class="b996d648-ff54-41b3-9402-d6fabc31b6df" d="M504.9,105.3l8.1,1.2.5,2.8-3.8.6.8,4,15,12-3.9-.8.7,4.7-2.2,2.8-2.1-6.3-10.6-7.1-2.6-4.8-6.7.7-1.6-7Zm11.7,26.8,1.9-.3-.8,5.1-6.8-3.1Zm-15.3-8.6,2.8,1.3-2.4,4.9Z"/><path class="b996d648-ff54-41b3-9402-d6fabc31b6df" d="M502.4,81.3l-3.2.1-.8-5.4,5.1-2.6,1,3.7Zm5.4-3.3-.4,3.8L505,80.2Z"/><path class="b996d648-ff54-41b3-9402-d6fabc31b6df" d="M465.9,84.5l-3.1-.6.1-3.1,4.3,1.7Zm7,1.4-6.7-9.8,2.7-5.3h4.4l-2.4,3.1,4.7-.4L473,78.4l10.9,9.5-.6,4.3-16.8,3.4,5.6-3.8-4.3-1.6,2.5-.9-.8-3.5Z"/><path class="b996d648-ff54-41b3-9402-d6fabc31b6df" d="M450,49.2l1.5,3.6-11.1,4.5L431.9,56l2.2-1.2-4.4-1.4,3.8-1.3-4.2-.7Z"/><path class="b996d648-ff54-41b3-9402-d6fabc31b6df" d="M593.1,120.5l3.8,2.2,1.5-2,5.3,4.8-2.8,6-2.6-3.8-3.5,2.5-5-7.6,3.8.5Z"/><path class="b996d648-ff54-41b3-9402-d6fabc31b6df" d="M576.6,115.8l16.5,4.7.6,2.5-3.8-.5-3.3.4-5.2-1.4-.7-3.4Z"/><path class="b996d648-ff54-41b3-9402-d6fabc31b6df" d="M799.5,210.9l-1.7-2.4,3.3,1.2-.3,2.7Zm5.5,8.3,3.5-3.8-2.1,6.8Zm10.5,4.8-2,8.8-5.2-7-4.4,2.1,3.8-4.7,5.2-.9-.3-2.4Zm-21.1-2.7-3.3,2.9,5.3-9.2Zm6.4-27.6.4,12.1,6.1,1.7.8,3.9-9.6-4.1-2.6-4.8.5-9.6Zm2.3,21.1,2.9-.5-2.7,3.5Zm9-2.3,1.1,3.4-2.1-.8-.2,3.6-2.2-7.4Z"/><path class="b996d648-ff54-41b3-9402-d6fabc31b6df" d="M746.1,230.1l2.9,2.4,2.5-1.6,6.1,15.1-7.7-4.5Zm47.7,7.2-5.5-.5-5.2,9.5-8.8,1.4-2.3-3.8,4.1.4,7.8-8.2,3.1.6.1-3.5,4.3-4.5,5.7,4.7Z"/><path class="b996d648-ff54-41b3-9402-d6fabc31b6df" d="M787.1,233.2l-.1,3.5-3.1-.6Z"/><path class="b996d648-ff54-41b3-9402-d6fabc31b6df" d="M512.9,106.4l5.6-1.1.9,1.1-6.6,3,.6-.3Z"/><path class="b996d648-ff54-41b3-9402-d6fabc31b6df" d="M537.8,42.3l3.6,3.6-1.5,2,3,3,.8,6.2,3.5,1.8L541,65.5l-11,1.8-3.7-2.4-.4-6.8,7.4-5.3-3.5-2.4-1.6-5.2-6.3-3.1,8.6,1.2,5.3-4,2.8,1Z"/><path class="b996d648-ff54-41b3-9402-d6fabc31b6df" d="M532.9,98.7l-.9,2-12,.8-.1-1.4,4.2-2.7Z"/><path class="b996d648-ff54-41b3-9402-d6fabc31b6df" d="M514.8,92.6l9.3,4.8-4.2,2.7-8-.8-3.4-4.1Z"/><path class="b996d648-ff54-41b3-9402-d6fabc31b6df" d="M576.1,205.5l.8-7.9,4-3.2,2.6,6.3,10.6,10-1.9.4-6.5-6.1Z"/><path class="b996d648-ff54-41b3-9402-d6fabc31b6df" d="M829.9,128.8l1.6,12.5-9.1,5.2-3.2-3.4-9.4,2.1,3.3,2.3.3,5.2-2.9.1-4-5.8,5.5-6.6,7.6-.3.3-5.5,2.2,1.5,3.1-4.3-2.3-9.2,2.3-.5Zm-1-14.6,1-1.4,2.5,3.5-10.8,5.2-1.9-12.2Zm-15.2,32.3,2.8-2.7,2.9,1.7-3.2,3.4Z"/><path class="b996d648-ff54-41b3-9402-d6fabc31b6df" d="M328,312.3l1.3,5.9,5.6.9,1.5,5,3,.2-.3,5.3-2.1,5.1-7.6-.8,1.4-6.1-13.9-9,1.5-8.1,6.9-.9Z"/><path class="b996d648-ff54-41b3-9402-d6fabc31b6df" d="M616.2,191.3l3.5,7.3-22.8,12.6-2.7-2-1.6-9.7,1.3-3.8,9.6,1.9,5.2-5.1Z"/><path class="b996d648-ff54-41b3-9402-d6fabc31b6df" d="M569.3,159.3l6.3-2.1,1-1.5-2.8-3.1,5.4-2.1,15,9.3,4.8.3,4.9,1.7,7.5,11.8,1.5.3.7,1.2,1.5,3.9,8.4.9.2,8.3-7.5,3.1-7.5,1.2-5.2,5.1-9.6-1.9-1.3,3.8L582,184.3l-2.2-7.5-11-13.6Z"/><path class="b996d648-ff54-41b3-9402-d6fabc31b6df" d="M562.1,141.3l4.4-1.6-1.3,1.9Z"/><path class="b996d648-ff54-41b3-9402-d6fabc31b6df" d="M562.1,141.3l3.1.3-2.4,1.5Z"/><path class="b996d648-ff54-41b3-9402-d6fabc31b6df" d="M474.6,141.2l2.1,9-18.9,10.6-.1,3.7-7.1,2.4-9.1,16.7-5.9.3,7.2-15,12.8-11.4,2.5-10.3,7.1-7.7Z"/><path class="b996d648-ff54-41b3-9402-d6fabc31b6df" d="M576,182.1H545.1l-1.2-29.7,23.2,1,1.8,4.6-1.7,6.5-4.7-6.5Z"/><path class="b996d648-ff54-41b3-9402-d6fabc31b6df" d="M545.1,182.1l.3,6.2-3.1,1.3-21.1-11.8-2.6,1.7-7.4-1.9-7.1-8.2.1-13.1,4.8-8.8,19.7,8.9,4-7.6,11.2,3.5Z"/><path class="b996d648-ff54-41b3-9402-d6fabc31b6df" d="M607,225.3l-7.4,9.3-8.2,3.3-10,.9-7.5-5.9-6.3-7,2.7-2.7,5.8-17.7,9.5-.3,6.5,6.1-1.4,4.6,2.7.4,2.6,5.4Z"/><path class="b996d648-ff54-41b3-9402-d6fabc31b6df" d="M592,211.3l1.9-.4.3,3.8-.8,1.7-2.7-.4Z"/><path class="b996d648-ff54-41b3-9402-d6fabc31b6df" d="M609.6,214.8l.2,6.1-2.9,4.4-11.1-3.6-2.6-5.4.8-1.7,2.7,3.2Z"/><path class="b996d648-ff54-41b3-9402-d6fabc31b6df" d="M570.3,252.9l-9.3.6-2.3.6,4.3-10.8-.9-4.1,8.4-2.2,2.9,7.2Z"/><path class="b996d648-ff54-41b3-9402-d6fabc31b6df" d="M561,253.5l.1,3.9-3.9,1.4,1.5-4.7Z"/><path class="b996d648-ff54-41b3-9402-d6fabc31b6df" d="M525,118.2l-7.2-6.6,7.9-.2.8,4.1Z"/><path class="b996d648-ff54-41b3-9402-d6fabc31b6df" d="M534.4,119.2l1.7,3-4.7,1.5-1.3-3.1,2.3-1.2Z"/><path class="b996d648-ff54-41b3-9402-d6fabc31b6df" d="M525,108.2l3.2-.7,6.4,5.8-.2,5.8-1.9.3-2.1-3.2-1.2,1.4-2.6-2.2-.8-4.1Z"/><path class="b996d648-ff54-41b3-9402-d6fabc31b6df" d="M528.8,118.3l-1.6,2.2-2.3-1.9.2-.5,1.5-2.7,2.6,2.2Z"/><path class="b996d648-ff54-41b3-9402-d6fabc31b6df" d="M530.2,120.6l-1.4-2.3.4-.7,1.2-1.4,2.1,3.2Z"/><path class="b996d648-ff54-41b3-9402-d6fabc31b6df" d="M316.6,216.8l1.8,2-2.7.1Z"/><path class="b996d648-ff54-41b3-9402-d6fabc31b6df" d="M562.1,239.1l-9.2-5.3-7.6-9.2-1.8-1.2,3-5.1,4.6,2.5,12.2-1,3.5-7.5,3.6,11-2.7,2.7,6.3,7-3.5,3.9Z"/><path class="b996d648-ff54-41b3-9402-d6fabc31b6df" d="M610.4,169.1l.1,1.2-.5-1.1Z"/><path class="b996d648-ff54-41b3-9402-d6fabc31b6df" d="M317,212.3v.5l-.5.2Z"/><path class="b996d648-ff54-41b3-9402-d6fabc31b6df" d="M318.4,209.5l-.3-.3.3-.5Z"/><path class="b996d648-ff54-41b3-9402-d6fabc31b6df" d="M317.4,197.4l.1-.4.4.3Z"/><path class="b996d648-ff54-41b3-9402-d6fabc31b6df" d="M318.3,203.1l-.1-1.3.5.5Z"/><path class="b996d648-ff54-41b3-9402-d6fabc31b6df" d="M315.4,196.7v.2l-.5-.6Z"/><path class="b996d648-ff54-41b3-9402-d6fabc31b6df" d="M323,209.4l-.6.3v-.8Z"/><path class="b996d648-ff54-41b3-9402-d6fabc31b6df" d="M319.2,206.7l-.2.9-.3-.5Z"/></svg>