<svg xmlns="http://www.w3.org/2000/svg" xmlns:xlink="http://www.w3.org/1999/xlink" width="704" height="435.1" viewBox="0 0 704 435.1"><defs><style>.a637c958-569b-4c6a-b430-c26b00408fad,.a7a53bf6-6ec7-41f5-8808-2bccd8da108a,.a9ef329e-a727-4542-8d52-dbc5444701a7,.abf6a731-04b7-45a7-9d0b-12bce87799e9{fill:none;}.efa2185d-a66f-434f-85cc-a7d2a88d51b4{clip-path:url(#b00c5090-78aa-4379-9f6c-05bb759f0815);}.a9dbd228-18be-48f7-bc74-3a509563c430{fill:#f3f3f3;}.aff6a227-5b30-4e33-8e2a-812a2af8ee0d{fill:#fff;}.b47f7d93-50ea-4aab-8e7d-5b2a8a781124{fill:#de4850;}.a2b9b873-9772-4310-9a5c-607e60955faf{fill:#eeb535;}.ab6003dc-dafd-4fc9-9467-1d4cfd7679eb{fill:#68c541;}.a637c958-569b-4c6a-b430-c26b00408fad{stroke:#999;}.a637c958-569b-4c6a-b430-c26b00408fad,.a7a53bf6-6ec7-41f5-8808-2bccd8da108a,.abf6a731-04b7-45a7-9d0b-12bce87799e9{stroke-miterlimit:10;}.b53d8232-5c73-4486-a17d-429be9cccce5{fill:#333;}.a7a53bf6-6ec7-41f5-8808-2bccd8da108a{stroke:#404040;stroke-linecap:round;stroke-width:1.5px;}.bd57a6d8-6473-4b36-98cc-751384e78cc3{fill:#404040;}.faa852d1-b97a-4d40-8fcb-5ea3a09b3681{fill:#f8f8f8;}.abf6a731-04b7-45a7-9d0b-12bce87799e9{stroke:#333;}</style><clipPath id="b00c5090-78aa-4379-9f6c-05bb759f0815"><rect class="a9ef329e-a727-4542-8d52-dbc5444701a7" width="704" height="435.1" rx="6"/></clipPath></defs><title>browser-window</title><g id="b64877ec-250f-45cf-8579-d6b83ef3d921" data-name="Layer 1"><g class="efa2185d-a66f-434f-85cc-a7d2a88d51b4"><rect class="a9dbd228-18be-48f7-bc74-3a509563c430" width="704" height="435.1" rx="6"/><path class="aff6a227-5b30-4e33-8e2a-812a2af8ee0d" d="M0,435.05H698a6,6,0,0,0,6-6V47a6,6,0,0,0-6-6H285.53a6.64,6.64,0,0,1-6.64-6.64V15.72a6.64,6.64,0,0,0-6.64-6.64H88.53a6.64,6.64,0,0,0-6.64,6.64V34.38A6.64,6.64,0,0,1,75.25,41H0"/><circle class="b47f7d93-50ea-4aab-8e7d-5b2a8a781124" cx="19" cy="21" r="6"/><circle class="a2b9b873-9772-4310-9a5c-607e60955faf" cx="39" cy="21" r="6"/><circle class="ab6003dc-dafd-4fc9-9467-1d4cfd7679eb" cx="59" cy="21" r="6"/><line class="a637c958-569b-4c6a-b430-c26b00408fad" y1="78" x2="704" y2="78"/><path class="b53d8232-5c73-4486-a17d-429be9cccce5" d="M698,1.5A4.51,4.51,0,0,1,702.5,6V429.1a4.51,4.51,0,0,1-4.5,4.5H6a4.51,4.51,0,0,1-4.5-4.5V6A4.51,4.51,0,0,1,6,1.5H698M698,0H6A6,6,0,0,0,0,6V429.1a6,6,0,0,0,6,6H698a6,6,0,0,0,6-6V6a6,6,0,0,0-6-6Z"/><line class="a7a53bf6-6ec7-41f5-8808-2bccd8da108a" x1="267.69" y1="29" x2="259.69" y2="21"/><line class="a7a53bf6-6ec7-41f5-8808-2bccd8da108a" x1="259.69" y1="29" x2="267.69" y2="21"/></g></g><g id="fe5379d3-2ffe-482f-ae7d-8e7075c0cac6" data-name="Layer 3"><line class="a7a53bf6-6ec7-41f5-8808-2bccd8da108a" x1="22" y1="66" x2="16" y2="60"/><line class="a7a53bf6-6ec7-41f5-8808-2bccd8da108a" x1="16" y1="60" x2="22" y2="54"/><line class="a7a53bf6-6ec7-41f5-8808-2bccd8da108a" x1="16" y1="60" x2="28" y2="60"/><line class="a7a53bf6-6ec7-41f5-8808-2bccd8da108a" x1="54" y1="54" x2="60" y2="60"/><line class="a7a53bf6-6ec7-41f5-8808-2bccd8da108a" x1="60" y1="60" x2="54" y2="66"/><line class="a7a53bf6-6ec7-41f5-8808-2bccd8da108a" x1="60" y1="60" x2="48" y2="60"/><path class="a7a53bf6-6ec7-41f5-8808-2bccd8da108a" d="M91.49,61.56a6,6,0,1,1-1.55-5.8"/><polygon class="bd57a6d8-6473-4b36-98cc-751384e78cc3" points="87.44 58.26 92.44 58.26 92.44 53.26 87.44 58.26"/><path class="faa852d1-b97a-4d40-8fcb-5ea3a09b3681" d="M682.27,59.79a14,14,0,0,1-14,14H121.85a14,14,0,0,1-14-14h0a14,14,0,0,1,14-14H668.27a14,14,0,0,1,14,14Z"/><path class="b53d8232-5c73-4486-a17d-429be9cccce5" d="M125.76,53.31h1.41V64.68h-1.41Z"/><path class="b53d8232-5c73-4486-a17d-429be9cccce5" d="M136.55,60.74a3.79,3.79,0,0,1-3.86,4.12,3.68,3.68,0,0,1-3.71-4,3.78,3.78,0,0,1,3.84-4.11A3.67,3.67,0,0,1,136.55,60.74Zm-6.15.08c0,1.7,1,3,2.35,3s2.36-1.27,2.36-3c0-1.31-.66-3-2.33-3S130.4,59.35,130.4,60.82Z"/><path class="b53d8232-5c73-4486-a17d-429be9cccce5" d="M143.84,64.39a5.2,5.2,0,0,1-2.22.45,3.68,3.68,0,0,1-3.86-4,3.94,3.94,0,0,1,4.16-4.12,4.72,4.72,0,0,1,2,.4l-.32,1.09a3.25,3.25,0,0,0-1.63-.37,2.92,2.92,0,0,0,0,5.83,3.94,3.94,0,0,0,1.73-.39Z"/><path class="b53d8232-5c73-4486-a17d-429be9cccce5" d="M149.78,64.68l-.12-1h0a2.91,2.91,0,0,1-2.37,1.16,2.21,2.21,0,0,1-2.37-2.23c0-1.87,1.66-2.9,4.66-2.88v-.16a1.6,1.6,0,0,0-1.76-1.79,3.88,3.88,0,0,0-2,.57l-.32-.93a4.86,4.86,0,0,1,2.54-.68c2.37,0,3,1.61,3,3.16v2.9a10.57,10.57,0,0,0,.13,1.86Zm-.21-4c-1.54,0-3.28.24-3.28,1.74a1.25,1.25,0,0,0,1.33,1.34,1.94,1.94,0,0,0,1.87-1.29,1.47,1.47,0,0,0,.08-.45Z"/><path class="b53d8232-5c73-4486-a17d-429be9cccce5" d="M153.2,53.31h1.41V64.68H153.2Z"/><path class="b53d8232-5c73-4486-a17d-429be9cccce5" d="M157,53.31h1.4v4.84h0a2.57,2.57,0,0,1,1-1,2.93,2.93,0,0,1,1.44-.4c1,0,2.71.64,2.71,3.31v4.61h-1.41V60.23c0-1.25-.46-2.31-1.79-2.31a2,2,0,0,0-1.89,1.41,1.71,1.71,0,0,0-.1.68v4.67H157Z"/><path class="b53d8232-5c73-4486-a17d-429be9cccce5" d="M172.87,60.74A3.79,3.79,0,0,1,169,64.86a3.69,3.69,0,0,1-3.72-4,3.78,3.78,0,0,1,3.85-4.11A3.67,3.67,0,0,1,172.87,60.74Zm-6.15.08c0,1.7,1,3,2.35,3s2.36-1.27,2.36-3c0-1.31-.66-3-2.33-3S166.72,59.35,166.72,60.82Z"/><path class="b53d8232-5c73-4486-a17d-429be9cccce5" d="M174.45,63.24a3.68,3.68,0,0,0,1.85.56c1,0,1.51-.51,1.51-1.15s-.4-1-1.44-1.43c-1.4-.49-2.05-1.26-2.05-2.19A2.39,2.39,0,0,1,177,56.76a3.85,3.85,0,0,1,1.91.48l-.36,1a3,3,0,0,0-1.58-.45c-.83,0-1.3.48-1.3,1.06s.47.93,1.48,1.31c1.34.51,2,1.19,2,2.34,0,1.36-1.06,2.32-2.9,2.32a4.44,4.44,0,0,1-2.18-.53Z"/><path class="b53d8232-5c73-4486-a17d-429be9cccce5" d="M182.67,54.71v2.22h2V58h-2v4.18c0,1,.27,1.51,1.06,1.51a2.92,2.92,0,0,0,.81-.1l.07,1.06a3.52,3.52,0,0,1-1.25.19,2,2,0,0,1-1.52-.59,2.89,2.89,0,0,1-.55-2V58h-1.2V56.93h1.2V55.07Z"/><path class="b53d8232-5c73-4486-a17d-429be9cccce5" d="M185.93,58.21a1,1,0,1,1,1.91,0,1,1,0,1,1-1.91,0Zm0,5.65a1,1,0,1,1,.95,1A.95.95,0,0,1,185.93,63.86Z"/><path class="b53d8232-5c73-4486-a17d-429be9cccce5" d="M192.19,55.59h0l-1.81,1-.27-1.07,2.27-1.22h1.2V64.68h-1.36Z"/><path class="b53d8232-5c73-4486-a17d-429be9cccce5" d="M197.34,64.68v-.87l1.11-1.07c2.65-2.53,3.85-3.87,3.87-5.44a1.85,1.85,0,0,0-2.07-2,3.53,3.53,0,0,0-2.2.88l-.45-1a4.59,4.59,0,0,1,2.94-1,2.93,2.93,0,0,1,3.19,3c0,1.92-1.39,3.48-3.59,5.59l-.83.77v0H204v1.17Z"/><path class="b53d8232-5c73-4486-a17d-429be9cccce5" d="M205.89,63.06a4.63,4.63,0,0,0,2.3.66c1.81,0,2.37-1.15,2.35-2,0-1.45-1.33-2.08-2.69-2.08h-.78V58.56h.78c1,0,2.33-.52,2.33-1.76,0-.83-.53-1.56-1.83-1.56a3.83,3.83,0,0,0-2.08.68l-.37-1a5,5,0,0,1,2.72-.8c2,0,3,1.22,3,2.48A2.59,2.59,0,0,1,209.68,59v0A2.71,2.71,0,0,1,212,61.73c0,1.67-1.3,3.13-3.79,3.13a5.25,5.25,0,0,1-2.71-.71Z"/><path class="b53d8232-5c73-4486-a17d-429be9cccce5" d="M218.11,64.68V61.85h-4.83v-.93l4.64-6.65h1.52v6.47h1.46v1.11h-1.46v2.83Zm0-3.94V57.27c0-.55,0-1.09,0-1.63h0c-.32.6-.57,1-.86,1.53l-2.55,3.54v0Z"/><path class="b53d8232-5c73-4486-a17d-429be9cccce5" d="M102.52,30.3a7.5,7.5,0,0,1-2.48.44,3.79,3.79,0,0,1-4.15-4.07,4.06,4.06,0,0,1,4.38-4.18,5.15,5.15,0,0,1,2,.37l-.25.86a4.06,4.06,0,0,0-1.79-.35A3,3,0,0,0,97,26.62a3,3,0,0,0,3.12,3.26,3.39,3.39,0,0,0,1.39-.22V27.25H99.86v-.84h2.66Z"/><path class="b53d8232-5c73-4486-a17d-429be9cccce5" d="M104.73,28a1.86,1.86,0,0,0,2,2,3.8,3.8,0,0,0,1.61-.3l.18.76a4.67,4.67,0,0,1-1.93.36,2.7,2.7,0,0,1-2.86-2.93c0-1.75,1-3.13,2.73-3.13a2.47,2.47,0,0,1,2.4,2.74,4.35,4.35,0,0,1,0,.49Zm3.1-.76a1.5,1.5,0,0,0-1.47-1.71,1.75,1.75,0,0,0-1.62,1.71Z"/><path class="b53d8232-5c73-4486-a17d-429be9cccce5" d="M111.43,23.19v1.67h1.51v.8h-1.51v3.13c0,.72.2,1.13.79,1.13a2.13,2.13,0,0,0,.61-.08l0,.8a2.73,2.73,0,0,1-.94.14,1.49,1.49,0,0,1-1.14-.44,2.17,2.17,0,0,1-.4-1.51V25.66h-.9v-.8h.9v-1.4Z"/><path class="b53d8232-5c73-4486-a17d-429be9cccce5" d="M115.4,23.19v1.67h1.51v.8H115.4v3.13c0,.72.2,1.13.79,1.13a2.08,2.08,0,0,0,.61-.08l0,.8a2.69,2.69,0,0,1-.94.14,1.5,1.5,0,0,1-1.14-.44,2.22,2.22,0,0,1-.4-1.51V25.66h-.9v-.8h.9v-1.4Z"/><path class="b53d8232-5c73-4486-a17d-429be9cccce5" d="M119.27,23.22a.62.62,0,0,1-.67.65.63.63,0,0,1-.63-.65.64.64,0,0,1,.66-.66A.62.62,0,0,1,119.27,23.22Zm-1.17,7.44v-5.8h1.05v5.8Z"/><path class="b53d8232-5c73-4486-a17d-429be9cccce5" d="M120.91,26.43c0-.6,0-1.09,0-1.57h.93l.06,1h0a2.13,2.13,0,0,1,1.92-1.1c.8,0,2,.48,2,2.47v3.47h-1.06V27.31c0-.93-.34-1.71-1.34-1.71A1.5,1.5,0,0,0,122,26.68a1.75,1.75,0,0,0-.07.49v3.49h-1Z"/><path class="b53d8232-5c73-4486-a17d-429be9cccce5" d="M132.57,24.86c0,.42,0,.88,0,1.59v3.37a3.31,3.31,0,0,1-.83,2.65,3.06,3.06,0,0,1-2.11.7,3.78,3.78,0,0,1-1.93-.48l.26-.81a3.31,3.31,0,0,0,1.71.46c1.08,0,1.87-.56,1.87-2v-.65h0a2.06,2.06,0,0,1-1.84,1,2.6,2.6,0,0,1-2.47-2.83,2.79,2.79,0,0,1,2.61-3.09,1.92,1.92,0,0,1,1.81,1h0l0-.87Zm-1.09,2.29a1.75,1.75,0,0,0-.06-.48,1.52,1.52,0,0,0-1.48-1.12c-1,0-1.73.85-1.73,2.2,0,1.14.58,2.08,1.72,2.08a1.53,1.53,0,0,0,1.46-1.08,1.82,1.82,0,0,0,.09-.56Z"/><path class="b53d8232-5c73-4486-a17d-429be9cccce5" d="M136.71,29.39a3.68,3.68,0,0,0,1.87.53c1.07,0,1.69-.57,1.69-1.38s-.43-1.19-1.52-1.61c-1.32-.47-2.13-1.15-2.13-2.29a2.33,2.33,0,0,1,2.61-2.2,3.72,3.72,0,0,1,1.79.4l-.29.85a3.29,3.29,0,0,0-1.54-.38c-1.1,0-1.52.66-1.52,1.21,0,.76.49,1.13,1.61,1.56,1.36.53,2.06,1.19,2.06,2.37s-.92,2.33-2.83,2.33a4.13,4.13,0,0,1-2.06-.52Z"/><path class="b53d8232-5c73-4486-a17d-429be9cccce5" d="M144,23.19v1.67h1.51v.8H144v3.13c0,.72.2,1.13.79,1.13a2.08,2.08,0,0,0,.61-.08l0,.8a2.67,2.67,0,0,1-.93.14,1.47,1.47,0,0,1-1.14-.44,2.17,2.17,0,0,1-.41-1.51V25.66H142v-.8h.9v-1.4Z"/><path class="b53d8232-5c73-4486-a17d-429be9cccce5" d="M149.89,30.66l-.09-.73h0a2.19,2.19,0,0,1-1.78.86,1.65,1.65,0,0,1-1.77-1.66c0-1.41,1.24-2.18,3.49-2.16v-.12a1.21,1.21,0,0,0-1.32-1.35,2.9,2.9,0,0,0-1.51.43l-.25-.69a3.64,3.64,0,0,1,1.91-.52c1.78,0,2.21,1.21,2.21,2.38v2.17a8.47,8.47,0,0,0,.09,1.39Zm-.16-3c-1.15,0-2.46.18-2.46,1.31a.93.93,0,0,0,1,1,1.45,1.45,0,0,0,1.4-1,1,1,0,0,0,.06-.33Z"/><path class="b53d8232-5c73-4486-a17d-429be9cccce5" d="M152.45,26.67c0-.69,0-1.27,0-1.81h.92l0,1.13h0A1.76,1.76,0,0,1,155,24.72a1.28,1.28,0,0,1,.3,0v1a1.32,1.32,0,0,0-.36,0,1.47,1.47,0,0,0-1.41,1.35,2.57,2.57,0,0,0-.05.5v3.09h-1.05Z"/><path class="b53d8232-5c73-4486-a17d-429be9cccce5" d="M157.94,23.19v1.67h1.51v.8h-1.51v3.13c0,.72.2,1.13.79,1.13a2.08,2.08,0,0,0,.61-.08l0,.8a2.69,2.69,0,0,1-.94.14,1.5,1.5,0,0,1-1.14-.44,2.17,2.17,0,0,1-.4-1.51V25.66H156v-.8h.9v-1.4Z"/><path class="b53d8232-5c73-4486-a17d-429be9cccce5" d="M161.15,28a1.86,1.86,0,0,0,2,2,3.75,3.75,0,0,0,1.6-.3l.18.76a4.67,4.67,0,0,1-1.93.36,2.69,2.69,0,0,1-2.85-2.93c0-1.75,1-3.13,2.72-3.13a2.47,2.47,0,0,1,2.4,2.74,4.35,4.35,0,0,1,0,.49Zm3.1-.76a1.5,1.5,0,0,0-1.46-1.71,1.74,1.74,0,0,0-1.62,1.71Z"/><path class="b53d8232-5c73-4486-a17d-429be9cccce5" d="M171.59,22.15v7c0,.52,0,1.1,0,1.5h-.95l-.05-1h0a2.14,2.14,0,0,1-2,1.14c-1.4,0-2.48-1.18-2.48-2.95,0-1.93,1.19-3.12,2.6-3.12a1.93,1.93,0,0,1,1.75.89h0V22.15Zm-1.05,5.07a2.38,2.38,0,0,0,0-.45A1.56,1.56,0,0,0,169,25.55c-1.09,0-1.73,1-1.73,2.24s.57,2.15,1.71,2.15a1.59,1.59,0,0,0,1.55-1.26,2.14,2.14,0,0,0,0-.45Z"/><rect class="abf6a731-04b7-45a7-9d0b-12bce87799e9" x="16" y="94" width="600" height="300"/></g></svg>