<svg xmlns="http://www.w3.org/2000/svg" id="interactive-0" class="interactive" width="600" height="300" viewBox="0 0 600 300" style="border: 1px solid grey;"><g id="group-1" class="group"><svg xmlns="http://www.w3.org/2000/svg" id="geomap-3" class="geomap" viewBox="-73.98723602294922 -54.98310470581055 209.0135498046875 88.7514877319336"><g id="group-463" class="group feature" name="Brazil" style="stroke: white; fill: rgb(107, 232, 140); stroke-width: 0.3;"><path d="M -57.62513342958296 30.216294854454258 L -56.29089962423908 28.85276051200089 L -55.16228634298457 27.881915378533463 L -54.490725267135524 27.47475676850579 L -53.648735317587885 26.923472588816086 L -53.62834896504874 26.124865004177472 L -54.13004960795439 25.547639255477254 L -54.625290696823576 25.73925546641551 L -54.42894609233059 25.162184747012166 L -54.29347632507745 24.570799655863965 L -54.29295956075451 24.02101409271073 L -54.652834235235126 23.83957813893396 L -55.02790178080954 24.001273695575225 L -55.40074723979542 23.956935316668805 L -55.517639329639636 23.571997572526634 L -55.610682745981144 22.655619398694842 L -55.79795813660691 22.356929620047822 L -56.47331743022939 22.086300144135283 L -56.8815095689029 22.28215382252148 L -57.937155727761294 22.090175876557172 L -57.87067399761779 20.73268767668195 L -58.166392381408045 20.176700941653678 L -57.85380164247451 19.969995212486186 L -57.949997321185826 19.40000416430682 L -57.67600887717431 18.961839694904025 L -57.498371141170985 18.174187513911292 L -57.734558274961 17.55246835700777 L -58.28080400250226 17.271710300366017 L -58.38805843772404 16.877109063385276 L -58.24121985536669 16.299573256091293 L -60.158389655179036 16.258283786690082 L -60.542965664295146 15.093910414289596 L -60.251148851142936 15.077218926659322 L -60.26432634137736 14.64597909918364 L -60.45919816755003 14.354007256734555 L -60.503304002511136 13.775954685117659 L -61.08412126325565 13.479383640194598 L -61.71320431176078 13.489202162330052 L -62.127080857986385 13.198780612849724 L -62.80306026879638 13.000653171442686 L -63.19649878605057 12.627032565972433 L -64.3163529120316 12.461978041232191 L -65.40228146021303 11.566270440317153 L -65.32189876978302 10.895872084194679 L -65.44483700220539 10.511451104375432 L -65.33843522811642 9.76198780684639 L -66.64690833196279 9.931331475466862 L -67.17380123561074 10.30681243249961 L -68.04819230820539 10.712059014532485 L -68.27125362819326 11.01452117273682 L -68.78615759954948 11.03638030359628 L -69.52967810736496 10.951734307502194 L -70.0937522040469 11.123971856331012 L -70.54868567572841 11.009146823778465 L -70.48189388699117 9.490118096558845 L -71.30241227892154 10.079436130415374 L -72.18489071316984 10.053597914269432 L -72.56303300646564 9.520193780152717 L -73.22671342639016 9.462212823121234 L -73.01538265653254 9.03283334720806 L -73.57105933296707 8.424446709835834 L -73.98723548042966 7.523829847853064 L -73.7234014553635 7.340998630404414 L -73.72448666044164 6.91859547285064 L -73.1200274319236 6.629930922068239 L -73.21971126981461 6.089188734566078 L -72.96450720894119 5.741251315944893 L -72.89192765978726 5.274561455916981 L -71.74840572781655 4.593982842633011 L -70.92884334988358 4.401591485210368 L -70.7947688463023 4.251264743673303 L -69.89363521999663 4.298186944194327 L -69.44410193548961 1.556287123219818 L -69.42048580593223 1.122618503426409 L -69.5770653957766 0.549991957200163 L -70.02065589057005 0.185156345219539 L -70.0155657619893 -0.541414292804205 L -69.45239600287246 -0.706158758950693 L -69.25243404811906 -0.602650865070075 L -69.21863766140018 -0.985676581217433 L -69.80459672715773 -1.089081122233466 L -69.81697323269162 -1.714805202639624 L -67.86856502955884 -1.692455145673392 L -67.53781002467468 -2.03716278727633 L -67.25999752467358 -1.719998684084956 L -67.0650481838525 -1.130112209473225 L -66.87632585312258 -1.253360500489336 L -66.32576514348496 -0.724452215982012 L -65.54826738143757 -0.78925446207603 L -65.35471330428837 -1.0952822941085 L -64.61101192895985 -1.328730576987042 L -64.19930579289051 -1.49285492594602 L -64.08308549666609 -1.91636912679408 L -63.36878801131166 -2.200899562993129 L -63.42286739770512 -2.411067613124174 L -64.26999915226578 -2.497005520025567 L -64.40882788761792 -3.126786200366624 L -64.36849443221409 -3.797210394705246 L -64.81606401229402 -4.056445217297423 L -64.62865943058755 -4.14848094320925 L -63.88834286157416 -4.020530096854571 L -63.0931975978991 -3.770571193858785 L -62.804533047116706 -4.006965033377952 L -62.08542965355914 -4.162123521334308 L -60.96689327660153 -4.536467596856639 L -60.60117916527194 -4.91809804933213 L -60.73357418480372 -5.200277207861901 L -60.21368343773133 -5.244486395687602 L -59.98095862490488 -5.014061184098139 L -60.11100236676737 -4.574966538914083 L -59.767405768458715 -4.423502915866607 L -59.53803992373123 -3.958802598481938 L -59.81541317405786 -3.606498521332085 L -59.97452490908456 -2.755232652188056 L -59.71854570172674 -2.24963043864436 L -59.64604366722126 -1.786893825686789 L -59.03086157900265 -1.317697658692722 L -58.5400129868783 -1.268088283692521 L -58.42947709820596 -1.463941962078721 L -58.11344987652502 -1.507195135907025 L -57.66097103537737 -1.682584947105639 L -57.335822923396904 -1.94853770589576 L -56.78270423036083 -1.863710842288654 L -56.539385748914555 -1.899522609866921 L -55.99569800477175 -1.817667141116601 L -55.905600145070885 -2.02199575439866 L -56.0733418442903 -2.220794989425499 L -55.973322109589375 -2.510363877773017 L -55.569755011606 -2.421506252447131 L -55.09758744975514 -2.523748073736613 L -54.52475419779971 -2.311848863123785 L -54.08806250671724 -2.105556545414629 L -53.77852067728892 -2.376702785650082 L -53.55483924011354 -2.334896551925951 L -53.4184651352953 -2.053389187015981 L -52.939657151894956 -2.124857692875636 L -52.55642473001842 -2.504705308437053 L -52.249337531123956 -3.241094468596245 L -51.65779741067888 -4.156232408053029 L -51.31714636901086 -4.203490505383954 L -51.069771287629656 -3.650397650564031 L -50.508875291533656 -1.901563828942457 L -49.97407589374506 -1.736483465986069 L -49.947100796088705 -1.046189683431223 L -50.699251268096916 -0.222984117021682 L -50.38821082213214 0.078444512536819 L -48.62056677915631 0.235489190271821 L -48.58449662941659 1.237805271005001 L -47.824956427590635 0.5816179337628 L -46.566583624851226 0.941027520352776 L -44.905703090990414 1.551739597178134 L -44.417619187993665 2.137750339367976 L -44.58158850765578 2.691308282078524 L -43.418791266440195 2.383110039889793 L -41.47265682632825 2.912018324397116 L -39.97866533055404 2.873054294449041 L -38.50038347019657 3.700652357603395 L -37.2232521225352 4.820945733258917 L -36.45293738457639 5.109403578312153 L -35.59779578301047 5.149504489770648 L -35.23538896334756 5.464937432480247 L -34.89602983248683 6.738193047719711 L -34.729993455533034 7.343220716992966 L -35.12821204277422 8.996401462442286 L -35.636966518687714 9.649281508017815 L -37.046518724097 11.040721123908801 L -37.68361161960736 12.171194756725823 L -38.42387651218844 13.038118584854288 L -38.673887091616514 13.057652276260619 L -38.953275722802545 13.793369642800023 L -38.88229814304965 15.667053724838768 L -39.16109249526431 17.208406670808472 L -39.2673392400564 17.867746270420483 L -39.58352149103423 18.262295830968938 L -39.76082333022764 19.59911345792741 L -40.77474077001034 20.904511814052423 L -40.94475623225061 21.937316989837807 L -41.754164191238225 22.370675551037458 L -41.98828426773655 22.970070489190892 L -43.07470374202475 22.96769337330547 L -44.64781185563781 23.351959323827842 L -45.35213578955991 23.796841729428582 L -46.47209326840554 24.08896860117454 L -47.64897233742066 24.885199069927722 L -48.4954581365777 25.877024834905654 L -48.64100480812774 26.623697605090932 L -48.47473588722865 27.17591196056189 L -48.661520351747626 28.186134535435716 L -48.88845740415739 28.674115085567884 L -49.587329474472675 29.224469089476337 L -50.696874152211485 30.984465020472957 L -51.576226162306156 31.77769825615321 L -52.256081305538046 32.24536996839466 L -52.712099982297694 33.19657805759118 L -53.373661668498244 33.768377780900764 L -53.6505439927181 33.20200408298183 L -53.209588995971544 32.727666110974724 L -53.787951626182185 32.047242526987624 L -54.57245154480512 31.494511407193748 L -55.601510179249345 30.853878676071393 L -55.97324459494093 30.883075860316303 L -56.97602576356473 30.109686374636127 L -57.62513342958296 30.216294854454258 " id="path-464" class="path" vector-effect="non-scaling-stroke"></path></g><g id="group-465" class="group feature" name="China" style="stroke: white; fill: rgb(107, 232, 140); stroke-width: 0.3;"><path d="M 110.33918786015154 -18.678395087147607  L 109.4752095886637 -18.197700913968614 L 108.65520796105616 -18.5076819930714 L 108.62621748254045 -19.367887885001977 L 109.11905561730802 -19.821038519769385 L 110.21159874882285 -20.101253973872076 L 110.78655073450223 -20.07753449145008 L 111.01005130416465 -19.695929877190736 L 110.57064660038682 -19.255879218009312 L 110.33918786015154 -18.678395087147607 " id="path-466" class="path" vector-effect="non-scaling-stroke"></path><path d="M 127.6574072612624 -49.76027049417294  L 129.39781782442046 -49.44060008401544 L 130.5822933289824 -48.72968740497612 L 130.98728152885386 -47.790132351261406 L 132.50667199109952 -47.78896963153488 L 133.37359581922803 -48.18344167743493 L 135.02631147678673 -48.47822988544391 L 134.50081383681064 -47.57843984637785 L 134.11236209527263 -47.21246735288673 L 133.7696439963129 -46.11692698829907 L 133.09712690646646 -45.14406647397217 L 131.8834542176596 -45.32116160743644 L 131.0252120301561 -44.96795319272157 L 131.28855512911557 -44.111519680348266 L 131.14468794161488 -42.92998973242695 L 130.6338664084098 -42.90301463477056 L 130.64001590385246 -42.39500946712528 L 129.99426720593326 -42.98538686784379 L 129.5966687358795 -42.42498179785459 L 128.05221520397234 -41.99428457291799 L 128.20843305879075 -41.46677155208254 L 127.34378299368305 -41.50315176041596 L 126.86908328664988 -41.81656932226616 L 126.18204511932946 -41.10733612727637 L 125.07994184784062 -40.569823716792456 L 124.26562462778534 -39.92849335383414 L 122.86757042856104 -39.63778758397626 L 122.13138797413094 -39.17045176854464 L 121.05455447803288 -38.89747101496291 L 121.5859949077225 -39.36085358332414 L 121.37675703337267 -39.750261338859524 L 122.16859500538104 -40.422442531896046 L 121.64035851449356 -40.94638987890332 L 120.76862877816197 -40.5933881699176 L 119.63960208544907 -39.89805593521421 L 119.02346398323304 -39.2523330755111 L 118.04274865119793 -39.20427399347969 L 117.53270226447708 -38.7376358098841 L 118.0596985209897 -38.06147553156105 L 118.87814985562838 -37.8973253443859 L 118.91163618375353 -37.44846385349874 L 119.70280236214207 -37.15638865818508 L 120.82345747282366 -37.87042776137798 L 121.71125857959797 -37.48112335870718 L 122.35793745329848 -37.45448415786069 L 122.51999474496584 -36.930614325501836 L 121.10416385303303 -36.65132904718044 L 120.6370089051146 -36.111439520811125 L 119.6645618022461 -35.609790554337735 L 119.1512081238586 -34.909859117160465 L 120.22752485563375 -34.36033193616862 L 120.6203690939166 -33.37672272392513 L 121.22901411345023 -32.46031871187719 L 121.90814578663006 -31.69217438407469 L 121.89191938689035 -30.949351508095102 L 121.26425744027331 -30.67626740164872 L 121.50351932178475 -30.142914943964257 L 122.09211388558911 -29.832520453403163 L 121.93842817595308 -29.018022365834806 L 121.68443851123847 -28.225512600206685 L 121.12566124886645 -28.135673122667185 L 120.39547326058234 -27.053206895449392 L 119.58549686083958 -25.740780544532612 L 118.65687137255453 -24.547390855400238 L 117.28160647997086 -23.624501451099718 L 115.89073530483515 -22.782873236578098 L 114.76382734584624 -22.66807404224167 L 114.15254682826568 -22.223760077396207 L 113.80677981980075 -22.54833974862143 L 113.24107791550162 -22.05136749927047 L 111.84359215703248 -21.550493679281512 L 110.78546552942414 -21.397143866455334 L 110.44403934127169 -20.341032619706397 L 109.88986128137357 -20.282457383703445 L 109.62765506392466 -21.008227037026728 L 109.86448815311834 -21.395050970947523 L 108.52281294152444 -21.71521230721183 L 108.050180291783 -21.552379869060104 L 107.04342003787266 -21.811898912029903 L 106.56727339073537 -22.218204860924743 L 106.7254032735485 -22.79426788989838 L 105.81124718630521 -22.976892401617903 L 105.32920942588666 -23.352063300056983 L 104.4768583516645 -22.81915009204692 L 103.50451460166053 -22.70375661873922 L 102.70699222210018 -22.708795070887703 L 102.17043582561355 -22.464753119389343 L 101.65201785686158 -22.31819875740956 L 101.80311974488292 -21.174366766845054 L 101.27002566936002 -21.20165192309517 L 101.18000532430759 -21.43657298429406 L 101.15003299357826 -21.84998444262902 L 100.41653771362738 -21.558839423096657 L 99.98348921102158 -21.74293671313646 L 99.24089887898722 -22.118314317304566 L 99.53199222208744 -22.949038804612595 L 98.89874922078283 -23.142722072842588 L 98.6602624857558 -24.063286037690006 L 97.60471967976203 -23.897404690033056 L 97.72460900267916 -25.083637193293043 L 98.67183800658924 -25.918702500913497 L 98.71209394734458 -26.74353587494025 L 98.68269005737054 -27.50881216075066 L 98.24623091023338 -27.74722138112918 L 97.91198774616944 -28.335945136014374 L 97.32711388549004 -28.26158274994634 L 96.24883344928784 -28.411030992134467 L 96.58659061074755 -28.83097951915437 L 96.11767866413103 -29.452802028922516 L 95.40480228066465 -29.031716620392164 L 94.56599043170294 -29.277438055939964 L 93.41334760943268 -28.640629380807237 L 92.50311893104364 -27.89687632904645 L 91.6966565286967 -27.771741848251622 L 91.25885379431989 -28.04061432546635 L 90.73051395056783 -28.064953925075738 L 90.01582889197121 -28.296438503527185 L 89.47581017452116 -28.042758897406372 L 88.8142484883206 -27.299315904239393 L 88.73032596227856 -28.08686473236756 L 88.12044070836994 -27.876541652939576 L 86.95451704300065 -27.97426178640353 L 85.82331994013154 -28.20357595469875 L 85.01163821812307 -28.642773952747376 L 84.23457970575018 -28.839893703724698 L 83.89899295444675 -29.32022614187764 L 83.33711510613719 -29.463731594352193 L 82.32751264845089 -30.115268052688208 L 81.5258044778748 -30.422716986608663 L 81.11125613802928 -30.18348094331341 L 79.72136681510712 -30.882714748654735 L 78.73889448437401 -31.51590607352705 L 78.45844648632604 -32.61816437431273 L 79.17612877799556 -32.483779812137755 L 79.20889163606856 -32.99439463961374 L 78.81108646028574 -33.506198025032404 L 78.91226891471322 -34.32193634697577 L 77.83745079947462 -35.49400950778781 L 76.19284834178572 -35.89840342868786 L 75.89689741405019 -36.66680613865188 L 75.158027785141 -37.13303091078916 L 74.98000247589542 -37.419990139305895 L 74.82998579295216 -37.99000702570146 L 74.8648157083168 -38.3788463404816 L 74.2575142760227 -38.60650686294349 L 73.9288521666464 -38.50581533462272 L 73.67537926625485 -39.43123688410557 L 73.96001305531846 -39.660008449861714 L 73.82224368682833 -39.89397349706314 L 74.77686242055606 -40.36642527929163 L 75.46782799673073 -40.56207225194868 L 76.52636803579745 -40.42794607193513 L 76.90448449087712 -41.06648590754966 L 78.18719689322606 -41.185315863604814 L 78.54366092317528 -41.58224254003871 L 80.11943037305142 -42.123940741538235 L 80.25999026888533 -42.34999929459909 L 80.18015018099439 -42.92006785742686 L 80.86620649610123 -43.180362046881015 L 79.96610639844144 -44.91751699480462 L 81.9470707539181 -45.31702749285316 L 82.45892581576905 -45.539649563166506 L 83.18048383986054 -47.33003123635075 L 85.16429039911324 -47.00095571551611 L 85.7204838398707 -47.45296946877309 L 85.76823286330838 -48.4557506373969 L 86.59877648310336 -48.54918162698061 L 87.35997033076269 -49.21498078062916 L 87.75126427607668 -49.29719798440547 L 88.0138322285517 -48.5994627956006 L 88.85429772334678 -48.069081732773014 L 90.28082563676392 -47.693549099307916 L 90.97080936072499 -46.888146063822944 L 90.58576826371834 -45.7197160914875 L 90.94553958533433 -45.28607330991025 L 92.13389082231825 -45.115075995456436 L 93.48073367714133 -44.975472113620015 L 94.68892866412537 -44.35233185482846 L 95.30687544147153 -44.24133087826547 L 95.7624548685567 -43.31944916439462 L 96.34939578652782 -42.72563528092866 L 97.451757440178 -42.74888967546008 L 99.51581749878002 -42.524691473961695 L 100.8458655131083 -42.663804429691425 L 101.83304039917995 -42.51487295182628 L 103.31227827353482 -41.90746816666763 L 104.52228193564903 -41.90834666601663 L 104.96499393109346 -41.59740957291635 L 106.12931562706169 -42.1343277044289 L 107.744772576938 -42.481515814781915 L 109.24359581913146 -42.51944631608416 L 110.4121033061153 -42.87123362891103 L 111.12968224492023 -43.40683401140018 L 111.8295878438814 -43.74311839453949 L 111.66773725794323 -44.07317576758771 L 111.34837690637946 -44.45744171811006 L 111.87330610560028 -45.10207937273512 L 112.43606245325887 -45.01164561622426 L 113.46390669154422 -44.80889313412711 L 114.46033165899607 -45.33981679949389 L 115.98509647020013 -45.72723501238602 L 116.71786828009888 -46.388202419615254 L 117.42170128791425 -46.67273285581421 L 118.87432579963873 -46.80541209572365 L 119.66326989143877 -46.69267995867895 L 119.77282392789756 -47.04805878355015 L 118.86657433479498 -47.74706004494621 L 118.06414269416675 -48.06673045510374 L 117.29550744025747 -47.6977090521074 L 116.30895267137325 -47.853410142602826 L 115.74283735561575 -47.72654450132629 L 115.48528201707305 -48.135382595403456 L 116.19180219936761 -49.13459809019906 L 116.67880089728621 -49.888531399121405 L 117.87924441942639 -49.51098338479696 L 119.28846072802585 -50.14288279886205 L 119.27936567594239 -50.582907619827296 L 120.18204959521695 -51.64356639261803 L 120.738191359542 -51.964115302124554 L 120.725789015792 -52.516226304730814 L 120.1770886577169 -52.75388621684121 L 121.00308475147024 -53.25140106873124 L 122.24574791879289 -53.43172597921369 L 123.57150678924087 -53.45880442973464 L 125.06821129771045 -53.161044826868846 L 125.94634891164618 -52.79279857035695 L 126.56439904185699 -51.7842554795327 L 126.93915652883769 -51.3538941514059 L 127.28745568248493 -50.73979726826545 L 127.6574072612624 -49.76027049417294 " id="path-467" class="path" vector-effect="non-scaling-stroke"></path></g><g id="group-468" class="group feature" name="Germany" style="stroke: white; fill: rgb(107, 232, 140); stroke-width: 0.3;"><path d="M 9.921906365609232 -54.983104153048025 L 9.9395797054529 -54.596641954153256 L 10.950112338920519 -54.363607082733154 L 10.939466993868448 -54.00869334575258 L 11.956252475643282 -54.19648550070116 L 12.518440382546714 -54.47037059184799 L 13.647467075259499 -54.0755109727059 L 14.119686313542559 -53.75702912049103 L 14.353315463934168 -53.248171291713106 L 14.074521111719434 -52.98126251892535 L 14.4375997250022 -52.624850165408304 L 14.685026482815713 -52.089947414755216 L 14.607098422919648 -51.745188096719964 L 15.016995883858781 -51.10667409932171 L 14.570718214586122 -51.00233938252438 L 14.307013380600665 -51.11726776794137 L 14.056227654688314 -50.92691762959435 L 13.338131951560397 -50.73323436136428 L 12.96683678554325 -50.48407644306917 L 12.240111118222671 -50.26633779560723 L 12.415190870827473 -49.96912079528062 L 12.521024204161336 -49.54741526956275 L 13.031328973043514 -49.30706818297324 L 13.595945672264577 -48.877171942737164 L 13.243357374737116 -48.41611481382903 L 12.884102817443873 -48.28914581968786 L 13.025851271220517 -47.63758352313595 L 12.932626987366064 -47.467645575544 L 12.620759718484521 -47.672387600284424 L 12.141357456112871 -47.70308340106578 L 11.426414015354851 -47.52376618101306 L 10.544504021861597 -47.5663992376538 L 10.402083774465325 -47.30248769793916 L 9.896068149463188 -47.580196845075704 L 9.594226108446376 -47.5250580918202 L 8.522611932009795 -47.83082754169135 L 8.317301466514095 -47.61357982033627 L 7.466759067422288 -47.62058197691192 L 7.593676385131062 -48.33301911070373 L 8.099278598674855 -49.01778351500343 L 6.658229607783709 -49.20195831969164 L 6.186320428094177 -49.463802802114515 L 6.242751092156993 -49.90222565367873 L 6.043073357781111 -50.128051662794235 L 6.156658155958779 -50.80372101501058 L 5.988658074577813 -51.851615709025054 L 6.589396599970826 -51.852029120483394 L 6.842869500362383 -52.22844025329755 L 7.092053256873896 -53.14404328064489 L 6.905139601274129 -53.48216217713064 L 7.100424838905268 -53.69393219666267 L 7.936239454793962 -53.74829580343379 L 8.121706170289485 -53.52779246684429 L 8.800734490604668 -54.020785630908904 L 8.572117954145368 -54.39564647075405 L 8.526229282270208 -54.96274363872516 L 9.282048780971136 -54.83086538351631 L 9.921906365609232 -54.983104153048025 " id="path-469" class="path" vector-effect="non-scaling-stroke"></path></g></svg></g><g id="group-2" class="group"></g></svg>