<svg id="b229b782-ceea-4e65-9f48-4f2f5e3b9827" data-name="Layer 1" xmlns="http://www.w3.org/2000/svg" width="700" height="160" viewBox="0 0 700 160"><defs><style>.e14edc1b-ea87-4a86-82cc-1f936030a6a2{fill:none;stroke:#333;stroke-dasharray:3;}.b3436f43-5e45-43e9-8f83-9b9e343b92f7,.e14edc1b-ea87-4a86-82cc-1f936030a6a2{stroke-miterlimit:10;}.b3436f43-5e45-43e9-8f83-9b9e343b92f7{fill:#f8f8f8;stroke:#ddd;}.b4b7ee34-ed0c-49a7-bbca-29775e12d438{fill:#333;}.aac807e8-77dd-4411-aee4-ab51ac7df1ec{fill:#cc1142;}</style></defs><title>horizontally-align-text</title><line class="e14edc1b-ea87-4a86-82cc-1f936030a6a2" x1="350" x2="350" y2="160"/><rect class="b3436f43-5e45-43e9-8f83-9b9e343b92f7" x="174.37" y="112.67" width="175.63" height="36.69"/><path class="b4b7ee34-ed0c-49a7-bbca-29775e12d438" d="M186.24,140.25l-.23-2.06h-.11a6.08,6.08,0,0,1-5,2.43,4.66,4.66,0,0,1-5-4.69c0-4,3.51-6.11,9.82-6.08v-.33c0-1.35-.37-3.78-3.71-3.78a8.15,8.15,0,0,0-4.25,1.21l-.68-2a10.22,10.22,0,0,1,5.37-1.45c5,0,6.21,3.41,6.21,6.68v6.11a23.35,23.35,0,0,0,.27,3.92Zm-.44-8.34c-3.24-.07-6.92.51-6.92,3.68a2.64,2.64,0,0,0,2.81,2.84,4.05,4.05,0,0,0,3.94-2.74,3.11,3.11,0,0,0,.17-.94Z"/><path class="b4b7ee34-ed0c-49a7-bbca-29775e12d438" d="M193.33,140.25c.07-1.12.13-2.77.13-4.22V116.29h2.94v10.26h.07a6.06,6.06,0,0,1,5.57-3c4.05,0,6.92,3.38,6.88,8.34,0,5.84-3.68,8.74-7.32,8.74a5.82,5.82,0,0,1-5.47-3.07H196l-.14,2.7Zm3.07-6.55a6.26,6.26,0,0,0,.13,1.08,4.6,4.6,0,0,0,4.46,3.48c3.11,0,5-2.53,5-6.28,0-3.27-1.69-6.08-4.86-6.08a4.74,4.74,0,0,0-4.52,3.65,5.68,5.68,0,0,0-.17,1.21Z"/><path class="b4b7ee34-ed0c-49a7-bbca-29775e12d438" d="M212.67,129c0-1.92,0-3.58-.14-5.1h2.6l.1,3.21h.14a4.9,4.9,0,0,1,4.52-3.58,3.52,3.52,0,0,1,.84.1v2.8a4.85,4.85,0,0,0-1-.1c-2.09,0-3.58,1.59-4,3.82a7.93,7.93,0,0,0-.14,1.38v8.71h-2.93Z"/><path class="b4b7ee34-ed0c-49a7-bbca-29775e12d438" d="M232.58,140.25l-.24-2.06h-.1a6.08,6.08,0,0,1-5,2.43,4.66,4.66,0,0,1-5-4.69c0-4,3.51-6.11,9.82-6.08v-.33c0-1.35-.37-3.78-3.71-3.78a8.15,8.15,0,0,0-4.25,1.21l-.68-2a10.22,10.22,0,0,1,5.37-1.45c5,0,6.21,3.41,6.21,6.68v6.11a23.35,23.35,0,0,0,.27,3.92Zm-.44-8.34c-3.24-.07-6.92.51-6.92,3.68a2.63,2.63,0,0,0,2.8,2.84,4.06,4.06,0,0,0,3.95-2.74,3.11,3.11,0,0,0,.17-.94Z"/><path class="b4b7ee34-ed0c-49a7-bbca-29775e12d438" d="M251.45,139.64a10.89,10.89,0,0,1-4.7,1c-4.92,0-8.13-3.34-8.13-8.34s3.44-8.67,8.78-8.67a9.84,9.84,0,0,1,4.11.84l-.67,2.29a6.94,6.94,0,0,0-3.44-.77c-3.75,0-5.78,2.77-5.78,6.17,0,3.78,2.43,6.11,5.67,6.11a8.31,8.31,0,0,0,3.65-.81Z"/><path class="b4b7ee34-ed0c-49a7-bbca-29775e12d438" d="M264,140.25l-.24-2.06h-.1a6.1,6.1,0,0,1-5,2.43,4.65,4.65,0,0,1-5-4.69c0-4,3.51-6.11,9.82-6.08v-.33c0-1.35-.37-3.78-3.71-3.78a8.19,8.19,0,0,0-4.26,1.21l-.67-2a10.22,10.22,0,0,1,5.37-1.45c5,0,6.21,3.41,6.21,6.68v6.11a22.34,22.34,0,0,0,.27,3.92Zm-.44-8.34c-3.24-.07-6.92.51-6.92,3.68a2.63,2.63,0,0,0,2.8,2.84,4.06,4.06,0,0,0,3.95-2.74,3.11,3.11,0,0,0,.17-.94Z"/><path class="b4b7ee34-ed0c-49a7-bbca-29775e12d438" d="M285.3,116.29V136c0,1.45,0,3.1.13,4.22h-2.66l-.14-2.84h-.07a6,6,0,0,1-5.57,3.21c-3.95,0-7-3.34-7-8.3,0-5.44,3.34-8.78,7.32-8.78a5.45,5.45,0,0,1,4.93,2.5h.07v-9.75Zm-3,14.27a5.33,5.33,0,0,0-.14-1.25,4.37,4.37,0,0,0-4.29-3.44c-3.07,0-4.89,2.7-4.89,6.31,0,3.31,1.62,6,4.83,6a4.46,4.46,0,0,0,4.35-3.54,5.23,5.23,0,0,0,.14-1.28Z"/><path class="b4b7ee34-ed0c-49a7-bbca-29775e12d438" d="M299.27,140.25l-.24-2.06h-.1a6.08,6.08,0,0,1-5,2.43,4.66,4.66,0,0,1-5-4.69c0-4,3.51-6.11,9.82-6.08v-.33c0-1.35-.37-3.78-3.71-3.78A8.13,8.13,0,0,0,290.8,127l-.68-2a10.22,10.22,0,0,1,5.37-1.45c5,0,6.21,3.41,6.21,6.68v6.11a23.35,23.35,0,0,0,.27,3.92Zm-.44-8.34c-3.24-.07-6.92.51-6.92,3.68a2.63,2.63,0,0,0,2.8,2.84,4.06,4.06,0,0,0,4-2.74,3.11,3.11,0,0,0,.17-.94Z"/><path class="b4b7ee34-ed0c-49a7-bbca-29775e12d438" d="M306.35,140.25c.07-1.12.14-2.77.14-4.22V116.29h2.94v10.26h.06a6.08,6.08,0,0,1,5.57-3c4.05,0,6.92,3.38,6.89,8.34,0,5.84-3.68,8.74-7.33,8.74a5.8,5.8,0,0,1-5.46-3.07h-.1l-.14,2.7Zm3.08-6.55a5.41,5.41,0,0,0,.13,1.08,4.6,4.6,0,0,0,4.46,3.48c3.1,0,5-2.53,5-6.28,0-3.27-1.69-6.08-4.86-6.08a4.73,4.73,0,0,0-4.52,3.65,5.68,5.68,0,0,0-.17,1.21Z"/><path class="b4b7ee34-ed0c-49a7-bbca-29775e12d438" d="M325.69,129c0-1.92,0-3.58-.13-5.1h2.6l.1,3.21h.13a4.92,4.92,0,0,1,4.53-3.58,3.58,3.58,0,0,1,.84.1v2.8a4.93,4.93,0,0,0-1-.1c-2.1,0-3.58,1.59-4,3.82a9.13,9.13,0,0,0-.13,1.38v8.71h-2.94Z"/><path class="b4b7ee34-ed0c-49a7-bbca-29775e12d438" d="M345.61,140.25l-.24-2.06h-.1a6.1,6.1,0,0,1-5,2.43,4.65,4.65,0,0,1-5-4.69c0-4,3.51-6.11,9.82-6.08v-.33c0-1.35-.37-3.78-3.71-3.78a8.13,8.13,0,0,0-4.25,1.21l-.68-2a10.22,10.22,0,0,1,5.37-1.45c5,0,6.21,3.41,6.21,6.68v6.11a22.34,22.34,0,0,0,.27,3.92Zm-.44-8.34c-3.24-.07-6.92.51-6.92,3.68a2.63,2.63,0,0,0,2.8,2.84,4.06,4.06,0,0,0,3.95-2.74,3.11,3.11,0,0,0,.17-.94Z"/><rect class="b3436f43-5e45-43e9-8f83-9b9e343b92f7" x="174.37" y="112.67" width="175.63" height="36.69"/><path class="b4b7ee34-ed0c-49a7-bbca-29775e12d438" d="M186.24,140.25l-.23-2.06h-.11a6.08,6.08,0,0,1-5,2.43,4.66,4.66,0,0,1-5-4.69c0-4,3.51-6.11,9.82-6.08v-.33c0-1.35-.37-3.78-3.71-3.78a8.15,8.15,0,0,0-4.25,1.21l-.68-2a10.22,10.22,0,0,1,5.37-1.45c5,0,6.21,3.41,6.21,6.68v6.11a23.35,23.35,0,0,0,.27,3.92Zm-.44-8.34c-3.24-.07-6.92.51-6.92,3.68a2.64,2.64,0,0,0,2.81,2.84,4.05,4.05,0,0,0,3.94-2.74,3.11,3.11,0,0,0,.17-.94Z"/><path class="b4b7ee34-ed0c-49a7-bbca-29775e12d438" d="M193.33,140.25c.07-1.12.13-2.77.13-4.22V116.29h2.94v10.26h.07a6.06,6.06,0,0,1,5.57-3c4.05,0,6.92,3.38,6.88,8.34,0,5.84-3.68,8.74-7.32,8.74a5.82,5.82,0,0,1-5.47-3.07H196l-.14,2.7Zm3.07-6.55a6.26,6.26,0,0,0,.13,1.08,4.6,4.6,0,0,0,4.46,3.48c3.11,0,5-2.53,5-6.28,0-3.27-1.69-6.08-4.86-6.08a4.74,4.74,0,0,0-4.52,3.65,5.68,5.68,0,0,0-.17,1.21Z"/><path class="b4b7ee34-ed0c-49a7-bbca-29775e12d438" d="M212.67,129c0-1.92,0-3.58-.14-5.1h2.6l.1,3.21h.14a4.9,4.9,0,0,1,4.52-3.58,3.52,3.52,0,0,1,.84.1v2.8a4.85,4.85,0,0,0-1-.1c-2.09,0-3.58,1.59-4,3.82a7.93,7.93,0,0,0-.14,1.38v8.71h-2.93Z"/><path class="b4b7ee34-ed0c-49a7-bbca-29775e12d438" d="M232.58,140.25l-.24-2.06h-.1a6.08,6.08,0,0,1-5,2.43,4.66,4.66,0,0,1-5-4.69c0-4,3.51-6.11,9.82-6.08v-.33c0-1.35-.37-3.78-3.71-3.78a8.15,8.15,0,0,0-4.25,1.21l-.68-2a10.22,10.22,0,0,1,5.37-1.45c5,0,6.21,3.41,6.21,6.68v6.11a23.35,23.35,0,0,0,.27,3.92Zm-.44-8.34c-3.24-.07-6.92.51-6.92,3.68a2.63,2.63,0,0,0,2.8,2.84,4.06,4.06,0,0,0,3.95-2.74,3.11,3.11,0,0,0,.17-.94Z"/><path class="b4b7ee34-ed0c-49a7-bbca-29775e12d438" d="M251.45,139.64a10.89,10.89,0,0,1-4.7,1c-4.92,0-8.13-3.34-8.13-8.34s3.44-8.67,8.78-8.67a9.84,9.84,0,0,1,4.11.84l-.67,2.29a6.94,6.94,0,0,0-3.44-.77c-3.75,0-5.78,2.77-5.78,6.17,0,3.78,2.43,6.11,5.67,6.11a8.31,8.31,0,0,0,3.65-.81Z"/><path class="b4b7ee34-ed0c-49a7-bbca-29775e12d438" d="M264,140.25l-.24-2.06h-.1a6.1,6.1,0,0,1-5,2.43,4.65,4.65,0,0,1-5-4.69c0-4,3.51-6.11,9.82-6.08v-.33c0-1.35-.37-3.78-3.71-3.78a8.19,8.19,0,0,0-4.26,1.21l-.67-2a10.22,10.22,0,0,1,5.37-1.45c5,0,6.21,3.41,6.21,6.68v6.11a22.34,22.34,0,0,0,.27,3.92Zm-.44-8.34c-3.24-.07-6.92.51-6.92,3.68a2.63,2.63,0,0,0,2.8,2.84,4.06,4.06,0,0,0,3.95-2.74,3.11,3.11,0,0,0,.17-.94Z"/><path class="b4b7ee34-ed0c-49a7-bbca-29775e12d438" d="M285.3,116.29V136c0,1.45,0,3.1.13,4.22h-2.66l-.14-2.84h-.07a6,6,0,0,1-5.57,3.21c-3.95,0-7-3.34-7-8.3,0-5.44,3.34-8.78,7.32-8.78a5.45,5.45,0,0,1,4.93,2.5h.07v-9.75Zm-3,14.27a5.33,5.33,0,0,0-.14-1.25,4.37,4.37,0,0,0-4.29-3.44c-3.07,0-4.89,2.7-4.89,6.31,0,3.31,1.62,6,4.83,6a4.46,4.46,0,0,0,4.35-3.54,5.23,5.23,0,0,0,.14-1.28Z"/><path class="b4b7ee34-ed0c-49a7-bbca-29775e12d438" d="M299.27,140.25l-.24-2.06h-.1a6.08,6.08,0,0,1-5,2.43,4.66,4.66,0,0,1-5-4.69c0-4,3.51-6.11,9.82-6.08v-.33c0-1.35-.37-3.78-3.71-3.78A8.13,8.13,0,0,0,290.8,127l-.68-2a10.22,10.22,0,0,1,5.37-1.45c5,0,6.21,3.41,6.21,6.68v6.11a23.35,23.35,0,0,0,.27,3.92Zm-.44-8.34c-3.24-.07-6.92.51-6.92,3.68a2.63,2.63,0,0,0,2.8,2.84,4.06,4.06,0,0,0,4-2.74,3.11,3.11,0,0,0,.17-.94Z"/><path class="b4b7ee34-ed0c-49a7-bbca-29775e12d438" d="M306.35,140.25c.07-1.12.14-2.77.14-4.22V116.29h2.94v10.26h.06a6.08,6.08,0,0,1,5.57-3c4.05,0,6.92,3.38,6.89,8.34,0,5.84-3.68,8.74-7.33,8.74a5.8,5.8,0,0,1-5.46-3.07h-.1l-.14,2.7Zm3.08-6.55a5.41,5.41,0,0,0,.13,1.08,4.6,4.6,0,0,0,4.46,3.48c3.1,0,5-2.53,5-6.28,0-3.27-1.69-6.08-4.86-6.08a4.73,4.73,0,0,0-4.52,3.65,5.68,5.68,0,0,0-.17,1.21Z"/><path class="b4b7ee34-ed0c-49a7-bbca-29775e12d438" d="M325.69,129c0-1.92,0-3.58-.13-5.1h2.6l.1,3.21h.13a4.92,4.92,0,0,1,4.53-3.58,3.58,3.58,0,0,1,.84.1v2.8a4.93,4.93,0,0,0-1-.1c-2.1,0-3.58,1.59-4,3.82a9.13,9.13,0,0,0-.13,1.38v8.71h-2.94Z"/><path class="b4b7ee34-ed0c-49a7-bbca-29775e12d438" d="M345.61,140.25l-.24-2.06h-.1a6.1,6.1,0,0,1-5,2.43,4.65,4.65,0,0,1-5-4.69c0-4,3.51-6.11,9.82-6.08v-.33c0-1.35-.37-3.78-3.71-3.78a8.13,8.13,0,0,0-4.25,1.21l-.68-2a10.22,10.22,0,0,1,5.37-1.45c5,0,6.21,3.41,6.21,6.68v6.11a22.34,22.34,0,0,0,.27,3.92Zm-.44-8.34c-3.24-.07-6.92.51-6.92,3.68a2.63,2.63,0,0,0,2.8,2.84,4.06,4.06,0,0,0,3.95-2.74,3.11,3.11,0,0,0,.17-.94Z"/><circle class="aac807e8-77dd-4411-aee4-ab51ac7df1ec" cx="350" cy="112.67" r="2.25"/><rect class="b3436f43-5e45-43e9-8f83-9b9e343b92f7" x="262" y="61.99" width="175.63" height="36.69"/><path class="b4b7ee34-ed0c-49a7-bbca-29775e12d438" d="M273.88,89.57l-.24-2.06h-.1a6.07,6.07,0,0,1-5,2.43,4.65,4.65,0,0,1-5-4.69c0-4,3.51-6.11,9.82-6.07v-.34c0-1.35-.37-3.78-3.71-3.78a8.19,8.19,0,0,0-4.26,1.21l-.67-2a10.13,10.13,0,0,1,5.37-1.45c5,0,6.21,3.4,6.21,6.68v6.11a22.15,22.15,0,0,0,.27,3.91Zm-.44-8.33c-3.24-.07-6.92.5-6.92,3.68a2.62,2.62,0,0,0,2.8,2.83A4.06,4.06,0,0,0,273.27,85a3.17,3.17,0,0,0,.17-1Z"/><path class="b4b7ee34-ed0c-49a7-bbca-29775e12d438" d="M281,89.57c.07-1.11.14-2.76.14-4.22V65.61H284V75.87h.07a6.1,6.1,0,0,1,5.57-3c4.05,0,6.92,3.37,6.89,8.33,0,5.84-3.68,8.74-7.33,8.74a5.8,5.8,0,0,1-5.46-3.07h-.11l-.13,2.7ZM284,83a5.41,5.41,0,0,0,.14,1.08,4.58,4.58,0,0,0,4.45,3.47c3.11,0,5-2.53,5-6.28,0-3.27-1.69-6.07-4.86-6.07a4.74,4.74,0,0,0-4.53,3.64,6.52,6.52,0,0,0-.17,1.22Z"/><path class="b4b7ee34-ed0c-49a7-bbca-29775e12d438" d="M300.3,78.33c0-1.92,0-3.57-.13-5.09h2.6l.1,3.2H303a4.89,4.89,0,0,1,4.52-3.57,3.15,3.15,0,0,1,.85.1v2.8a4.37,4.37,0,0,0-1-.1c-2.1,0-3.58,1.58-4,3.81a9.4,9.4,0,0,0-.13,1.39v8.7H300.3Z"/><path class="b4b7ee34-ed0c-49a7-bbca-29775e12d438" d="M320.21,89.57,320,87.51h-.1a6.07,6.07,0,0,1-5,2.43,4.64,4.64,0,0,1-5-4.69c0-4,3.51-6.11,9.82-6.07v-.34c0-1.35-.37-3.78-3.71-3.78a8.19,8.19,0,0,0-4.26,1.21l-.67-2a10.09,10.09,0,0,1,5.36-1.45c5,0,6.21,3.4,6.21,6.68v6.11a23.15,23.15,0,0,0,.27,3.91Zm-.44-8.33c-3.24-.07-6.91.5-6.91,3.68a2.62,2.62,0,0,0,2.8,2.83A4.08,4.08,0,0,0,319.61,85a3.16,3.16,0,0,0,.16-1Z"/><path class="b4b7ee34-ed0c-49a7-bbca-29775e12d438" d="M339.08,89a11.06,11.06,0,0,1-4.69.94c-4.93,0-8.14-3.34-8.14-8.34S329.7,72.9,335,72.9a10,10,0,0,1,4.12.84l-.68,2.3a6.82,6.82,0,0,0-3.44-.78c-3.75,0-5.77,2.77-5.77,6.18,0,3.78,2.43,6.11,5.67,6.11a8.41,8.41,0,0,0,3.64-.81Z"/><path class="b4b7ee34-ed0c-49a7-bbca-29775e12d438" d="M351.6,89.57l-.24-2.06h-.1a6.05,6.05,0,0,1-5,2.43,4.65,4.65,0,0,1-5-4.69c0-4,3.51-6.11,9.82-6.07v-.34c0-1.35-.37-3.78-3.71-3.78a8.15,8.15,0,0,0-4.25,1.21l-.68-2a10.13,10.13,0,0,1,5.37-1.45c5,0,6.21,3.4,6.21,6.68v6.11a23.15,23.15,0,0,0,.27,3.91Zm-.44-8.33c-3.24-.07-6.92.5-6.92,3.68a2.63,2.63,0,0,0,2.8,2.83A4.06,4.06,0,0,0,351,85a3.17,3.17,0,0,0,.17-1Z"/><path class="b4b7ee34-ed0c-49a7-bbca-29775e12d438" d="M372.93,65.61V85.35c0,1.46,0,3.11.14,4.22H370.4l-.13-2.83h-.07a6,6,0,0,1-5.57,3.2c-3.95,0-7-3.34-7-8.3,0-5.43,3.34-8.77,7.33-8.77a5.46,5.46,0,0,1,4.92,2.49H370V65.61Zm-3,14.28a5.26,5.26,0,0,0-.13-1.25,4.38,4.38,0,0,0-4.29-3.45c-3.07,0-4.9,2.7-4.9,6.32,0,3.3,1.63,6,4.83,6A4.48,4.48,0,0,0,369.83,84a5.19,5.19,0,0,0,.13-1.28Z"/><path class="b4b7ee34-ed0c-49a7-bbca-29775e12d438" d="M386.9,89.57l-.23-2.06h-.1a6.09,6.09,0,0,1-5,2.43,4.64,4.64,0,0,1-5-4.69c0-4,3.51-6.11,9.82-6.07v-.34c0-1.35-.37-3.78-3.71-3.78a8.19,8.19,0,0,0-4.26,1.21l-.67-2a10.09,10.09,0,0,1,5.36-1.45c5,0,6.21,3.4,6.21,6.68v6.11a23.15,23.15,0,0,0,.27,3.91Zm-.44-8.33c-3.24-.07-6.91.5-6.91,3.68a2.62,2.62,0,0,0,2.8,2.83A4.08,4.08,0,0,0,386.3,85a3.16,3.16,0,0,0,.16-1Z"/><path class="b4b7ee34-ed0c-49a7-bbca-29775e12d438" d="M394,89.57c.07-1.11.13-2.76.13-4.22V65.61h2.94V75.87h.07a6.08,6.08,0,0,1,5.57-3c4.05,0,6.92,3.37,6.88,8.33,0,5.84-3.68,8.74-7.32,8.74a5.83,5.83,0,0,1-5.47-3.07h-.1l-.13,2.7ZM397.06,83a5.41,5.41,0,0,0,.14,1.08,4.58,4.58,0,0,0,4.45,3.47c3.11,0,5-2.53,5-6.28,0-3.27-1.68-6.07-4.86-6.07a4.74,4.74,0,0,0-4.52,3.64,5.78,5.78,0,0,0-.17,1.22Z"/><path class="b4b7ee34-ed0c-49a7-bbca-29775e12d438" d="M413.33,78.33c0-1.92,0-3.57-.14-5.09h2.6l.1,3.2H416a4.89,4.89,0,0,1,4.52-3.57,3.07,3.07,0,0,1,.84.1v2.8a4.26,4.26,0,0,0-1-.1c-2.09,0-3.58,1.58-4,3.81a8.16,8.16,0,0,0-.14,1.39v8.7h-2.93Z"/><path class="b4b7ee34-ed0c-49a7-bbca-29775e12d438" d="M433.24,89.57,433,87.51h-.11a6.05,6.05,0,0,1-5,2.43,4.65,4.65,0,0,1-5-4.69c0-4,3.51-6.11,9.82-6.07v-.34c0-1.35-.37-3.78-3.71-3.78a8.15,8.15,0,0,0-4.25,1.21l-.68-2a10.13,10.13,0,0,1,5.37-1.45c5,0,6.21,3.4,6.21,6.68v6.11a23.15,23.15,0,0,0,.27,3.91Zm-.44-8.33c-3.24-.07-6.92.5-6.92,3.68a2.63,2.63,0,0,0,2.81,2.83A4.06,4.06,0,0,0,432.63,85a3.17,3.17,0,0,0,.17-1Z"/><rect class="b3436f43-5e45-43e9-8f83-9b9e343b92f7" x="262" y="61.99" width="175.63" height="36.69"/><path class="b4b7ee34-ed0c-49a7-bbca-29775e12d438" d="M273.88,89.57l-.24-2.06h-.1a6.07,6.07,0,0,1-5,2.43,4.65,4.65,0,0,1-5-4.69c0-4,3.51-6.11,9.82-6.07v-.34c0-1.35-.37-3.78-3.71-3.78a8.19,8.19,0,0,0-4.26,1.21l-.67-2a10.13,10.13,0,0,1,5.37-1.45c5,0,6.21,3.4,6.21,6.68v6.11a22.15,22.15,0,0,0,.27,3.91Zm-.44-8.33c-3.24-.07-6.92.5-6.92,3.68a2.62,2.62,0,0,0,2.8,2.83A4.06,4.06,0,0,0,273.27,85a3.17,3.17,0,0,0,.17-1Z"/><path class="b4b7ee34-ed0c-49a7-bbca-29775e12d438" d="M281,89.57c.07-1.11.14-2.76.14-4.22V65.61H284V75.87h.07a6.1,6.1,0,0,1,5.57-3c4.05,0,6.92,3.37,6.89,8.33,0,5.84-3.68,8.74-7.33,8.74a5.8,5.8,0,0,1-5.46-3.07h-.11l-.13,2.7ZM284,83a5.41,5.41,0,0,0,.14,1.08,4.58,4.58,0,0,0,4.45,3.47c3.11,0,5-2.53,5-6.28,0-3.27-1.69-6.07-4.86-6.07a4.74,4.74,0,0,0-4.53,3.64,6.52,6.52,0,0,0-.17,1.22Z"/><path class="b4b7ee34-ed0c-49a7-bbca-29775e12d438" d="M300.3,78.33c0-1.92,0-3.57-.13-5.09h2.6l.1,3.2H303a4.89,4.89,0,0,1,4.52-3.57,3.15,3.15,0,0,1,.85.1v2.8a4.37,4.37,0,0,0-1-.1c-2.1,0-3.58,1.58-4,3.81a9.4,9.4,0,0,0-.13,1.39v8.7H300.3Z"/><path class="b4b7ee34-ed0c-49a7-bbca-29775e12d438" d="M320.21,89.57,320,87.51h-.1a6.07,6.07,0,0,1-5,2.43,4.64,4.64,0,0,1-5-4.69c0-4,3.51-6.11,9.82-6.07v-.34c0-1.35-.37-3.78-3.71-3.78a8.19,8.19,0,0,0-4.26,1.21l-.67-2a10.09,10.09,0,0,1,5.36-1.45c5,0,6.21,3.4,6.21,6.68v6.11a23.15,23.15,0,0,0,.27,3.91Zm-.44-8.33c-3.24-.07-6.91.5-6.91,3.68a2.62,2.62,0,0,0,2.8,2.83A4.08,4.08,0,0,0,319.61,85a3.16,3.16,0,0,0,.16-1Z"/><path class="b4b7ee34-ed0c-49a7-bbca-29775e12d438" d="M339.08,89a11.06,11.06,0,0,1-4.69.94c-4.93,0-8.14-3.34-8.14-8.34S329.7,72.9,335,72.9a10,10,0,0,1,4.12.84l-.68,2.3a6.82,6.82,0,0,0-3.44-.78c-3.75,0-5.77,2.77-5.77,6.18,0,3.78,2.43,6.11,5.67,6.11a8.41,8.41,0,0,0,3.64-.81Z"/><path class="b4b7ee34-ed0c-49a7-bbca-29775e12d438" d="M351.6,89.57l-.24-2.06h-.1a6.05,6.05,0,0,1-5,2.43,4.65,4.65,0,0,1-5-4.69c0-4,3.51-6.11,9.82-6.07v-.34c0-1.35-.37-3.78-3.71-3.78a8.15,8.15,0,0,0-4.25,1.21l-.68-2a10.13,10.13,0,0,1,5.37-1.45c5,0,6.21,3.4,6.21,6.68v6.11a23.15,23.15,0,0,0,.27,3.91Zm-.44-8.33c-3.24-.07-6.92.5-6.92,3.68a2.63,2.63,0,0,0,2.8,2.83A4.06,4.06,0,0,0,351,85a3.17,3.17,0,0,0,.17-1Z"/><path class="b4b7ee34-ed0c-49a7-bbca-29775e12d438" d="M372.93,65.61V85.35c0,1.46,0,3.11.14,4.22H370.4l-.13-2.83h-.07a6,6,0,0,1-5.57,3.2c-3.95,0-7-3.34-7-8.3,0-5.43,3.34-8.77,7.33-8.77a5.46,5.46,0,0,1,4.92,2.49H370V65.61Zm-3,14.28a5.26,5.26,0,0,0-.13-1.25,4.38,4.38,0,0,0-4.29-3.45c-3.07,0-4.9,2.7-4.9,6.32,0,3.3,1.63,6,4.83,6A4.48,4.48,0,0,0,369.83,84a5.19,5.19,0,0,0,.13-1.28Z"/><path class="b4b7ee34-ed0c-49a7-bbca-29775e12d438" d="M386.9,89.57l-.23-2.06h-.1a6.09,6.09,0,0,1-5,2.43,4.64,4.64,0,0,1-5-4.69c0-4,3.51-6.11,9.82-6.07v-.34c0-1.35-.37-3.78-3.71-3.78a8.19,8.19,0,0,0-4.26,1.21l-.67-2a10.09,10.09,0,0,1,5.36-1.45c5,0,6.21,3.4,6.21,6.68v6.11a23.15,23.15,0,0,0,.27,3.91Zm-.44-8.33c-3.24-.07-6.91.5-6.91,3.68a2.62,2.62,0,0,0,2.8,2.83A4.08,4.08,0,0,0,386.3,85a3.16,3.16,0,0,0,.16-1Z"/><path class="b4b7ee34-ed0c-49a7-bbca-29775e12d438" d="M394,89.57c.07-1.11.13-2.76.13-4.22V65.61h2.94V75.87h.07a6.08,6.08,0,0,1,5.57-3c4.05,0,6.92,3.37,6.88,8.33,0,5.84-3.68,8.74-7.32,8.74a5.83,5.83,0,0,1-5.47-3.07h-.1l-.13,2.7ZM397.06,83a5.41,5.41,0,0,0,.14,1.08,4.58,4.58,0,0,0,4.45,3.47c3.11,0,5-2.53,5-6.28,0-3.27-1.68-6.07-4.86-6.07a4.74,4.74,0,0,0-4.52,3.64,5.78,5.78,0,0,0-.17,1.22Z"/><path class="b4b7ee34-ed0c-49a7-bbca-29775e12d438" d="M413.33,78.33c0-1.92,0-3.57-.14-5.09h2.6l.1,3.2H416a4.89,4.89,0,0,1,4.52-3.57,3.07,3.07,0,0,1,.84.1v2.8a4.26,4.26,0,0,0-1-.1c-2.09,0-3.58,1.58-4,3.81a8.16,8.16,0,0,0-.14,1.39v8.7h-2.93Z"/><path class="b4b7ee34-ed0c-49a7-bbca-29775e12d438" d="M433.24,89.57,433,87.51h-.11a6.05,6.05,0,0,1-5,2.43,4.65,4.65,0,0,1-5-4.69c0-4,3.51-6.11,9.82-6.07v-.34c0-1.35-.37-3.78-3.71-3.78a8.15,8.15,0,0,0-4.25,1.21l-.68-2a10.13,10.13,0,0,1,5.37-1.45c5,0,6.21,3.4,6.21,6.68v6.11a23.15,23.15,0,0,0,.27,3.91Zm-.44-8.33c-3.24-.07-6.92.5-6.92,3.68a2.63,2.63,0,0,0,2.81,2.83A4.06,4.06,0,0,0,432.63,85a3.17,3.17,0,0,0,.17-1Z"/><rect class="b3436f43-5e45-43e9-8f83-9b9e343b92f7" x="350" y="10.67" width="175.63" height="36.69"/><path class="b4b7ee34-ed0c-49a7-bbca-29775e12d438" d="M361.87,38.25l-.23-2.06h-.1a6.1,6.1,0,0,1-5,2.43,4.65,4.65,0,0,1-5-4.69c0-3.95,3.51-6.11,9.82-6.08v-.33c0-1.35-.37-3.78-3.71-3.78A8.19,8.19,0,0,0,353.4,25l-.67-2a10.18,10.18,0,0,1,5.36-1.45c5,0,6.21,3.41,6.21,6.68v6.11a23.35,23.35,0,0,0,.27,3.92Zm-.43-8.34c-3.25-.07-6.92.51-6.92,3.68a2.63,2.63,0,0,0,2.8,2.84,4.08,4.08,0,0,0,3.95-2.74,3.11,3.11,0,0,0,.17-.94Z"/><path class="b4b7ee34-ed0c-49a7-bbca-29775e12d438" d="M369,38.25c.07-1.12.14-2.77.14-4.22V14.29H372V24.55h.07a6.08,6.08,0,0,1,5.57-3c4.05,0,6.92,3.38,6.89,8.34,0,5.84-3.68,8.74-7.33,8.74a5.83,5.83,0,0,1-5.47-3.07h-.1l-.13,2.7ZM372,31.7a5.41,5.41,0,0,0,.14,1.08,4.58,4.58,0,0,0,4.45,3.48c3.11,0,5-2.53,5-6.28,0-3.27-1.68-6.08-4.86-6.08a4.74,4.74,0,0,0-4.52,3.65,5.68,5.68,0,0,0-.17,1.21Z"/><path class="b4b7ee34-ed0c-49a7-bbca-29775e12d438" d="M388.3,27c0-1.92,0-3.58-.14-5.1h2.6l.1,3.21H391a4.9,4.9,0,0,1,4.52-3.58,3.6,3.6,0,0,1,.85.1v2.8a5,5,0,0,0-1-.1c-2.09,0-3.57,1.59-4,3.82a8,8,0,0,0-.13,1.38v8.71H388.3Z"/><path class="b4b7ee34-ed0c-49a7-bbca-29775e12d438" d="M408.21,38.25,408,36.19h-.11a6.08,6.08,0,0,1-5,2.43,4.66,4.66,0,0,1-5-4.69c0-3.95,3.51-6.11,9.83-6.08v-.33c0-1.35-.38-3.78-3.72-3.78A8.15,8.15,0,0,0,399.74,25l-.68-2a10.24,10.24,0,0,1,5.37-1.45c5,0,6.21,3.41,6.21,6.68v6.11a23.35,23.35,0,0,0,.27,3.92Zm-.44-8.34c-3.24-.07-6.92.51-6.92,3.68a2.64,2.64,0,0,0,2.81,2.84,4.05,4.05,0,0,0,3.94-2.74,2.83,2.83,0,0,0,.17-.94Z"/><path class="b4b7ee34-ed0c-49a7-bbca-29775e12d438" d="M427.08,37.64a10.87,10.87,0,0,1-4.69,1c-4.93,0-8.14-3.34-8.14-8.34s3.45-8.67,8.78-8.67a9.89,9.89,0,0,1,4.12.84l-.68,2.29a6.94,6.94,0,0,0-3.44-.77c-3.75,0-5.77,2.77-5.77,6.17,0,3.78,2.43,6.11,5.67,6.11a8.3,8.3,0,0,0,3.64-.81Z"/><path class="b4b7ee34-ed0c-49a7-bbca-29775e12d438" d="M439.6,38.25l-.24-2.06h-.1a6.08,6.08,0,0,1-5,2.43,4.66,4.66,0,0,1-5-4.69c0-3.95,3.51-6.11,9.82-6.08v-.33c0-1.35-.37-3.78-3.71-3.78A8.13,8.13,0,0,0,431.13,25l-.68-2a10.22,10.22,0,0,1,5.37-1.45c5,0,6.21,3.41,6.21,6.68v6.11a23.35,23.35,0,0,0,.27,3.92Zm-.44-8.34c-3.24-.07-6.92.51-6.92,3.68a2.63,2.63,0,0,0,2.8,2.84A4.06,4.06,0,0,0,439,33.69a3.11,3.11,0,0,0,.17-.94Z"/><path class="b4b7ee34-ed0c-49a7-bbca-29775e12d438" d="M460.93,14.29V34c0,1.45,0,3.1.13,4.22H458.4l-.14-2.84h-.06a6.05,6.05,0,0,1-5.57,3.21c-3.95,0-7-3.34-7-8.3,0-5.44,3.34-8.78,7.32-8.78a5.45,5.45,0,0,1,4.93,2.5H458V14.29Zm-3,14.27a4.84,4.84,0,0,0-.14-1.25,4.35,4.35,0,0,0-4.28-3.44c-3.07,0-4.9,2.7-4.9,6.31,0,3.31,1.62,6,4.83,6a4.46,4.46,0,0,0,4.35-3.54A4.79,4.79,0,0,0,458,31.4Z"/><path class="b4b7ee34-ed0c-49a7-bbca-29775e12d438" d="M474.9,38.25l-.23-2.06h-.11a6.08,6.08,0,0,1-5,2.43,4.66,4.66,0,0,1-5-4.69c0-3.95,3.51-6.11,9.82-6.08v-.33c0-1.35-.37-3.78-3.71-3.78A8.15,8.15,0,0,0,466.43,25l-.68-2a10.22,10.22,0,0,1,5.37-1.45c5,0,6.21,3.41,6.21,6.68v6.11a23.35,23.35,0,0,0,.27,3.92Zm-.44-8.34c-3.24-.07-6.92.51-6.92,3.68a2.64,2.64,0,0,0,2.81,2.84,4.05,4.05,0,0,0,3.94-2.74,3.11,3.11,0,0,0,.17-.94Z"/><path class="b4b7ee34-ed0c-49a7-bbca-29775e12d438" d="M482,38.25c.07-1.12.13-2.77.13-4.22V14.29h2.94V24.55h.07a6.06,6.06,0,0,1,5.57-3c4.05,0,6.91,3.38,6.88,8.34,0,5.84-3.68,8.74-7.32,8.74a5.81,5.81,0,0,1-5.47-3.07h-.1l-.14,2.7Zm3.07-6.55a6.26,6.26,0,0,0,.13,1.08,4.6,4.6,0,0,0,4.46,3.48c3.1,0,5-2.53,5-6.28,0-3.27-1.69-6.08-4.86-6.08a4.74,4.74,0,0,0-4.52,3.65,5.68,5.68,0,0,0-.17,1.21Z"/><path class="b4b7ee34-ed0c-49a7-bbca-29775e12d438" d="M501.33,27c0-1.92,0-3.58-.14-5.1h2.6l.1,3.21H504a4.9,4.9,0,0,1,4.52-3.58,3.52,3.52,0,0,1,.84.1v2.8a4.93,4.93,0,0,0-1-.1c-2.09,0-3.58,1.59-4,3.82a7.93,7.93,0,0,0-.14,1.38v8.71h-2.93Z"/><path class="b4b7ee34-ed0c-49a7-bbca-29775e12d438" d="M521.24,38.25,521,36.19h-.1a6.08,6.08,0,0,1-5,2.43,4.66,4.66,0,0,1-5-4.69c0-3.95,3.51-6.11,9.82-6.08v-.33c0-1.35-.37-3.78-3.71-3.78A8.15,8.15,0,0,0,512.77,25l-.68-2a10.22,10.22,0,0,1,5.37-1.45c5,0,6.21,3.41,6.21,6.68v6.11a23.35,23.35,0,0,0,.27,3.92Zm-.44-8.34c-3.24-.07-6.92.51-6.92,3.68a2.63,2.63,0,0,0,2.8,2.84,4.06,4.06,0,0,0,4-2.74,3.11,3.11,0,0,0,.17-.94Z"/><rect class="b3436f43-5e45-43e9-8f83-9b9e343b92f7" x="350" y="10.67" width="175.63" height="36.69"/><path class="b4b7ee34-ed0c-49a7-bbca-29775e12d438" d="M361.87,38.25l-.23-2.06h-.1a6.1,6.1,0,0,1-5,2.43,4.65,4.65,0,0,1-5-4.69c0-3.95,3.51-6.11,9.82-6.08v-.33c0-1.35-.37-3.78-3.71-3.78A8.19,8.19,0,0,0,353.4,25l-.67-2a10.18,10.18,0,0,1,5.36-1.45c5,0,6.21,3.41,6.21,6.68v6.11a23.35,23.35,0,0,0,.27,3.92Zm-.43-8.34c-3.25-.07-6.92.51-6.92,3.68a2.63,2.63,0,0,0,2.8,2.84,4.08,4.08,0,0,0,3.95-2.74,3.11,3.11,0,0,0,.17-.94Z"/><path class="b4b7ee34-ed0c-49a7-bbca-29775e12d438" d="M369,38.25c.07-1.12.14-2.77.14-4.22V14.29H372V24.55h.07a6.08,6.08,0,0,1,5.57-3c4.05,0,6.92,3.38,6.89,8.34,0,5.84-3.68,8.74-7.33,8.74a5.83,5.83,0,0,1-5.47-3.07h-.1l-.13,2.7ZM372,31.7a5.41,5.41,0,0,0,.14,1.08,4.58,4.58,0,0,0,4.45,3.48c3.11,0,5-2.53,5-6.28,0-3.27-1.68-6.08-4.86-6.08a4.74,4.74,0,0,0-4.52,3.65,5.68,5.68,0,0,0-.17,1.21Z"/><path class="b4b7ee34-ed0c-49a7-bbca-29775e12d438" d="M388.3,27c0-1.92,0-3.58-.14-5.1h2.6l.1,3.21H391a4.9,4.9,0,0,1,4.52-3.58,3.6,3.6,0,0,1,.85.1v2.8a5,5,0,0,0-1-.1c-2.09,0-3.57,1.59-4,3.82a8,8,0,0,0-.13,1.38v8.71H388.3Z"/><path class="b4b7ee34-ed0c-49a7-bbca-29775e12d438" d="M408.21,38.25,408,36.19h-.11a6.08,6.08,0,0,1-5,2.43,4.66,4.66,0,0,1-5-4.69c0-3.95,3.51-6.11,9.83-6.08v-.33c0-1.35-.38-3.78-3.72-3.78A8.15,8.15,0,0,0,399.74,25l-.68-2a10.24,10.24,0,0,1,5.37-1.45c5,0,6.21,3.41,6.21,6.68v6.11a23.35,23.35,0,0,0,.27,3.92Zm-.44-8.34c-3.24-.07-6.92.51-6.92,3.68a2.64,2.64,0,0,0,2.81,2.84,4.05,4.05,0,0,0,3.94-2.74,2.83,2.83,0,0,0,.17-.94Z"/><path class="b4b7ee34-ed0c-49a7-bbca-29775e12d438" d="M427.08,37.64a10.87,10.87,0,0,1-4.69,1c-4.93,0-8.14-3.34-8.14-8.34s3.45-8.67,8.78-8.67a9.89,9.89,0,0,1,4.12.84l-.68,2.29a6.94,6.94,0,0,0-3.44-.77c-3.75,0-5.77,2.77-5.77,6.17,0,3.78,2.43,6.11,5.67,6.11a8.3,8.3,0,0,0,3.64-.81Z"/><path class="b4b7ee34-ed0c-49a7-bbca-29775e12d438" d="M439.6,38.25l-.24-2.06h-.1a6.08,6.08,0,0,1-5,2.43,4.66,4.66,0,0,1-5-4.69c0-3.95,3.51-6.11,9.82-6.08v-.33c0-1.35-.37-3.78-3.71-3.78A8.13,8.13,0,0,0,431.13,25l-.68-2a10.22,10.22,0,0,1,5.37-1.45c5,0,6.21,3.41,6.21,6.68v6.11a23.35,23.35,0,0,0,.27,3.92Zm-.44-8.34c-3.24-.07-6.92.51-6.92,3.68a2.63,2.63,0,0,0,2.8,2.84A4.06,4.06,0,0,0,439,33.69a3.11,3.11,0,0,0,.17-.94Z"/><path class="b4b7ee34-ed0c-49a7-bbca-29775e12d438" d="M460.93,14.29V34c0,1.45,0,3.1.13,4.22H458.4l-.14-2.84h-.06a6.05,6.05,0,0,1-5.57,3.21c-3.95,0-7-3.34-7-8.3,0-5.44,3.34-8.78,7.32-8.78a5.45,5.45,0,0,1,4.93,2.5H458V14.29Zm-3,14.27a4.84,4.84,0,0,0-.14-1.25,4.35,4.35,0,0,0-4.28-3.44c-3.07,0-4.9,2.7-4.9,6.31,0,3.31,1.62,6,4.83,6a4.46,4.46,0,0,0,4.35-3.54A4.79,4.79,0,0,0,458,31.4Z"/><path class="b4b7ee34-ed0c-49a7-bbca-29775e12d438" d="M474.9,38.25l-.23-2.06h-.11a6.08,6.08,0,0,1-5,2.43,4.66,4.66,0,0,1-5-4.69c0-3.95,3.51-6.11,9.82-6.08v-.33c0-1.35-.37-3.78-3.71-3.78A8.15,8.15,0,0,0,466.43,25l-.68-2a10.22,10.22,0,0,1,5.37-1.45c5,0,6.21,3.41,6.21,6.68v6.11a23.35,23.35,0,0,0,.27,3.92Zm-.44-8.34c-3.24-.07-6.92.51-6.92,3.68a2.64,2.64,0,0,0,2.81,2.84,4.05,4.05,0,0,0,3.94-2.74,3.11,3.11,0,0,0,.17-.94Z"/><path class="b4b7ee34-ed0c-49a7-bbca-29775e12d438" d="M482,38.25c.07-1.12.13-2.77.13-4.22V14.29h2.94V24.55h.07a6.06,6.06,0,0,1,5.57-3c4.05,0,6.91,3.38,6.88,8.34,0,5.84-3.68,8.74-7.32,8.74a5.81,5.81,0,0,1-5.47-3.07h-.1l-.14,2.7Zm3.07-6.55a6.26,6.26,0,0,0,.13,1.08,4.6,4.6,0,0,0,4.46,3.48c3.1,0,5-2.53,5-6.28,0-3.27-1.69-6.08-4.86-6.08a4.74,4.74,0,0,0-4.52,3.65,5.68,5.68,0,0,0-.17,1.21Z"/><path class="b4b7ee34-ed0c-49a7-bbca-29775e12d438" d="M501.33,27c0-1.92,0-3.58-.14-5.1h2.6l.1,3.21H504a4.9,4.9,0,0,1,4.52-3.58,3.52,3.52,0,0,1,.84.1v2.8a4.93,4.93,0,0,0-1-.1c-2.09,0-3.58,1.59-4,3.82a7.93,7.93,0,0,0-.14,1.38v8.71h-2.93Z"/><path class="b4b7ee34-ed0c-49a7-bbca-29775e12d438" d="M521.24,38.25,521,36.19h-.1a6.08,6.08,0,0,1-5,2.43,4.66,4.66,0,0,1-5-4.69c0-3.95,3.51-6.11,9.82-6.08v-.33c0-1.35-.37-3.78-3.71-3.78A8.15,8.15,0,0,0,512.77,25l-.68-2a10.22,10.22,0,0,1,5.37-1.45c5,0,6.21,3.41,6.21,6.68v6.11a23.35,23.35,0,0,0,.27,3.92Zm-.44-8.34c-3.24-.07-6.92.51-6.92,3.68a2.63,2.63,0,0,0,2.8,2.84,4.06,4.06,0,0,0,4-2.74,3.11,3.11,0,0,0,.17-.94Z"/><circle class="aac807e8-77dd-4411-aee4-ab51ac7df1ec" cx="350" cy="10.67" r="2.25"/><circle class="aac807e8-77dd-4411-aee4-ab51ac7df1ec" cx="350" cy="61.99" r="2.25"/></svg>