<svg id="b974c42d-7295-4e8d-add7-e5e2441d77e7" data-name="Layer 1" xmlns="http://www.w3.org/2000/svg" width="33" height="33" viewBox="0 0 33 33"><defs><style>.f8d8f67a-80e4-4ed1-801e-a7eaee33f8ea{fill:none;stroke:#0366ee;stroke-linecap:round;stroke-miterlimit:10;stroke-width:2px;}</style></defs><title>link</title><path class="f8d8f67a-80e4-4ed1-801e-a7eaee33f8ea" d="M18.69,26.93a4.64,4.64,0,0,0,.62-2.31h0A4.62,4.62,0,0,0,14.69,20H11.62A4.62,4.62,0,0,0,7,24.62H7a4.62,4.62,0,0,0,4.62,4.61"/><path class="f8d8f67a-80e4-4ed1-801e-a7eaee33f8ea" d="M15.31,23.85a4.57,4.57,0,0,0-.62,2.3h0a4.62,4.62,0,0,0,4.62,4.62h3.07A4.62,4.62,0,0,0,27,26.15h0a4.61,4.61,0,0,0-4.62-4.61"/></svg>