<?xml version="1.0" encoding="utf-8"?>
<!-- Generator: Adobe Illustrator 23.0.6, SVG Export Plug-In . SVG Version: 6.00 Build 0)  -->
<svg version="1.1" id="interactive-0" 
	 xmlns="http://www.w3.org/2000/svg" xmlns:xlink="http://www.w3.org/1999/xlink" x="0px" y="0px" viewBox="0 0 768 300"
	 style="enable-background:new 0 0 768 300;" xml:space="preserve">
<style type="text/css">
	.st0{fill:#FD8D3C;stroke:#000000;stroke-width:0.15;}
	.st1{fill:#FFEDA0;stroke:#000000;stroke-width:0.15;}
	.st2{fill:#E31A1C;stroke:#000000;stroke-width:0.15;}
	.st3{fill:#FEB24C;stroke:#000000;stroke-width:0.15;}
	.st4{fill:#BD0026;stroke:#000000;stroke-width:0.15;}
	.st5{fill:#800026;stroke:#000000;stroke-width:0.15;}
	.st6{fill:#FC4E2A;stroke:#000000;stroke-width:0.15;}
	.st7{fill:#FED976;stroke:#000000;stroke-width:0.15;}
</style>
<g>
	<path id="path-2" class="st0" d="M608.1,204.1l-4.7,0l0.6,0.6l-0.8,6.2l-1.3,10.7l0.4,8.6l1.4,0.3l0.2-1l0.5-1l0.4,0.2l0.2,1.4
		l1.4,0.9l0.8-0.2l0.8-0.8l-0.4-0.5l0.2-0.9l-1.3-1.1l0.2-0.7h11.8l2.8,0l-0.6-1.5l0.4-1.5l-0.6-1.7l0.5-1l0-0.7l1-0.7l-0.6-0.3
		l0.2-0.6l-0.6-0.9l-0.6-1.6l-1.4-7.1l-1-4.8L608.1,204.1"/>
	<path id="path-3" class="st1" d="M359.6,91.2l-0.2,0.5l1.4,0.1l0.2-1l-1.2-0.6L359.6,91.2"/>
	<path id="path-4" class="st1" d="M358.4,89.4v1.3l0.5,0.3l0.6-1L358.4,89.4"/>
	<path id="path-5" class="st1" d="M351.9,83.8l-0.5,0.6l1.1,0.5l1.2-0.2l0.2-0.8l-0.6-0.2L351.9,83.8"/>
	<path id="path-6" class="st1" d="M348.5,84.2l-0.4,0.2l0.7,1l-0.8,0.4l0.3,0.8l0.8-0.5l0.4,0.7l0.2,1.5l1.2,0.2l0.4,0.9l-1,0.5
		l-1,0.1v0.6l1.3-0.1l-0.1,0.8l0.5,0.7l1.6,1.4l1.1,0.1l0.3-1.1l-0.6-0.3l-0.9,0.2l-0.2-0.8l1,0.3l0.3-0.3l1.1,0.8l0.6-0.1l0.4,1.1
		l1.6,0.1l0.4-0.5l-0.1-2.2l-0.3-0.6l-0.6,0.2l-0.1-0.7l-1-0.8l-0.1-0.8l-0.6-0.1l-0.1-0.6l-0.8-0.7l-2.4-1.2l-0.6-1.1L348.5,84.2"
		/>
	<path id="path-7" class="st1" d="M347.7,88.7l0.6,0.7l1.2,0.2l0.8-0.8l-0.7-0.2l-0.7,0.5L347.7,88.7"/>
	<path id="path-8" class="st1" d="M346.7,81l0.2,0.5l1,0l-0.1,0.9l0.3,1.3l1.4-0.2l1.2,0.2l0.9-0.4l1.3,0.2l0.9-0.3l0.2-0.6
		l-1.8-0.9l-1-1l-1.4,0l-3-0.5l-0.9,0.4L346.7,81"/>
	<path id="path-9" class="st1" d="M345.5,83.5l-1,0.7l0.3,1.6l0.6,0.4l0.1-0.8l0.9,0.3l0.7-1.3l-0.6-0.3L347,83l0.8-0.1l-0.2-1
		l-2.2-1l-0.2,0.6l-0.7-0.3l-0.7,0.3l0.1,0.7l0.8,0.9L345.5,83.5"/>
	<path id="path-10" class="st1" d="M342.6,84.6v-2.5l-1.2-2.9l0-0.9l-1.2-0.1l-1.3-0.4l-0.7-0.5l-1.5,1.1l1.5,1.1l0.5,1.4l-0.5,0.6
		l1.3,0.7l2.1,2.5l0.8,0.4L342.6,84.6"/>
	<path id="path-11" class="st1" d="M342.2,73.7l-1.4-1l0.2,1.1l0.7,0.6l0.4,1.5l-0.1,0.6l0.7,1.2l0.2,1l-0.4,0.6l0.2,1.1l0.6,0
		l1.9-1l0.4-0.5l1.2-0.4l-0.4-1.4l-1.2-0.8l0.3-0.5l1.1,0.2l-1.6-1.5l0.1-0.4l-1.1,0.1L342.2,73.7"/>
	<path id="path-12" class="st1" d="M335.8,78.7l0.2,0.8l-0.2,1.1l1.3-0.2l0.4-0.7l-0.8-1H335.8"/>
	<path id="path-13" class="st1" d="M333.4,73.8l-0.6-0.3l-0.2,0.8l-0.8,0.3l-0.1,0.9l1.1,0.5l0.9,1.1l1.2,0.5l0.6,0.8l1,0.2l0.9-0.5
		l-0.1-1.2l2.7,1.2l1.5-0.2l-0.6-1.5l-0.5-0.1l0.6-1.1l-1.1-0.6l-1.9-0.3l-0.8,0.8l-0.3-0.3l0.9-0.7l-1.6-0.7l-1.1,0.5L333.4,73.8"
		/>
	<path id="path-14" class="st1" d="M272.7,62.6l-0.7-0.4l-1.3,1l-2.1,0.9l-0.4,0.9l1.9-0.4l0.2-0.6L272.7,62.6"/>
	<path id="path-15" class="st1" d="M270,60.5l-1.3,0.6l-0.9,1.4l1.1,0.4l0.8-1.2L270,60.5"/>
	<path id="path-16" class="st1" d="M268.8,6.2l-1-0.4l-1.4-0.2l-0.8,0.2l-1.4-0.6l-1,0.1L261,4.9l-1.6-0.2l-2.3,0.1l-1.4,0.4l-1.3,0
		l0-0.3l-2.3,0l-2.4,0.4l0,0.3l-3.3-0.6l-0.2-0.3l-3.4-0.3l0.9-1.3l-1.8-0.2l-3.6-0.2l-1.4,0.2l-2.5,0l-1.4,0.6l-1-0.4l-1.6-0.2
		l0.4-0.7l-2.6-0.9l-0.9,1l-0.4-0.2l-1.2,0.4l-0.2,0.5L222.8,3l0-0.9l0.8,0l1.8-0.6L225,1l-5.3-0.7L219.5,0l-1.4,0.4l-3.4,1.7
		l-3.4,0.8l-3.5,0.2l-1.8-0.1l-1.8,0.2L203.9,3l-1.8,0.1L197.4,5l-2,0.6l-3.1,0.6l-2.2-0.1l-0.4-0.3L187.2,7l-0.9,0.7l-2.1,1l-1,1.1
		l-0.5,1.3l-2.4,1.3l-2.5,0.9l-1.6,0.3l-6,0.4l-5-0.1l-0.1,1.7l-0.8,0.9l-1.8,0.3l0.1,0.2l2.5,0.5l2.5,0.9l1.7,0.1L171,19l3.7,1.4
		l1.8,0.5l1.1,0.6l1.4,1.6l0.1,0.7l4.7,0.7l1.1-0.3l0.3,0.3l2.2,0.1l2.2-0.3l0.8,0.3l-1,1.6l2.2,0.9l-0.5,0.7l-1.9-0.6l-0.9-0.6
		l0.3-0.7l-1.8-0.9l-1.4,0.2l0.6,0.9l1.8,0.3l1.7,1l-0.2,0.9l2.2-0.3l2.2,0.3l-0.4,0.7l-0.8-0.2l-1.2,0.1l-1.6,1.2l-1.7-0.3
		l-1.3,0.3l-1.5-0.1l-0.6-0.3l-2.2,0.2l-1.9-0.1l-1.5,0.1l-0.8-0.7l0.5-0.5l-0.2-0.6l0.7-0.9l-1.3-0.2l-2.4,0.1l-4.4,0.6l-3.9,0.9
		l0.1,0.5l1,0.1l-0.4,0.6l-1.6-0.1l-1.6-0.4l-2.8,0.8l-4,1.3l-3.2,0.8l0.2,0.6l2,0.5l1.3,0.5l2.5,0.2l1.3,0.2h1.6l0.3,0.9l-1,0.4
		l-0.3,0.7l1.6,0.6l-0.4,0.8l0.5,0.6l1.1,0.3l4.4,0.4l2.3,0.4l1.1-0.1l2.8-0.6l4,0l1.9,0.6l0.4,0.4l0.7-0.8l1,0.2l0.4,1l0.9-0.3
		l0.5-0.8l1.7-0.5l0.4-0.3l1.5-0.1l1.3-0.5l1.4,0.2l1.5-0.9l2,1.1l-0.1,0.6l-1.6,0.6l-1.7-0.2l0.6,0.8l1.6,0.9l0.1,0.8l1,1.4v0.4
		l-2.1,1.5l-2.3,0.3h-2.6l-0.3-0.4l-1.1,0.2l-2.2,1.4l-2.1,1l-1.5,0.1l-2.4-1l-1.7-0.3l-2.2,0.3l-1.2,0.6l-1.4,1.6l0.3,1l-0.5-0.1
		l-0.7,0.7l-3.5,2.2l-0.5,0.7v1l-1.9,0.1l1.1,0.9l-1.3,0.2l0.2,0.8L167,55l0,0.8l0.6,0.6l1.1,0.1l0.2,1l1.4,0.2l0.1-0.6l1.1,0.5
		l-0.4,0.6l0.1,0.7l0.9-0.2l-0.2,1.1l-1.2,0.6l1.7,1.4l1.5,0.2l1.8,1.2l1.1,0.3l0.2,0.9l1.3,0.3l1.5,0.1l2.8-0.3l2.3-0.6l1.4-0.2
		l0.3-1l1.2,0.5l0.8,1.2l1,0.8l1.2,1.4l-1.4,0.7l0.7,1.7l0.3,1.6l-1,0.7l1,0.6l2.1-0.6l0.2-0.4l2.7-0.8l3-1.1l0.5,1l1,0.1l0.8,0.6
		l0.6-0.1l0.4-0.7h0.6l1.3,1l1.8,1.9l1,0.2l1.1-0.5l-0.9-1.2l0.5-1l0.8-0.3l0.3,0.6l0.9,0.2l0.4,0.6l1.6,0.2l5.2-1.3l0.2,0.9
		l-2.2,1.2l-1.4,4.4l0.1,0.6l-1.7,1.1l-2.2,0.8l-1.6,1.3l-0.2,0.6l0.3,0.6l-0.8,0.2l-1-0.4l-2.1,1l-2.8,0.7l-1.8,0.8l-1.3,0.8
		l-1,1.4l0.1,0.3l1.5,0.5l0,0.5l-0.9-0.2l-0.4-0.4l-1.4,0.1l-0.2,0.7l-0.7-0.4l0.6-0.6l-0.3-0.5l-1.2,0.3l-1.2-0.2l-2.9,0.5
		l-2.5,1.2l-1.9,1.3l-1.7,1.5h-1.3l-1.2,0.3l0.1,0.7l-0.6,0.6l-0.8-0.8l-2,0l-2.5,0.8l-1.2,0l-0.9,1.3l-1.2,0.3l0.4,1l1.2,0.2
		l1.6-0.4l0.1-0.4l1.4-0.5l2.8,0l1.4-0.7l1.1,0.3l0-0.4l-1.3-0.2l1.9-0.8l-1-0.5l0.2-0.3l1,0.1l0.9,0.9l1.1-0.4l0.4-0.8l-0.8-0.5
		l0.3-0.4l0.9,0.2l0.2,1.1l1.4,0.1l0.2-0.7l0.7,0.5l2.1-1.9l-0.1-0.6l0.6-0.6l0.7,0.7l-0.2,0.7l1.5,0l2.1-1l1.1,0.4l0.5-0.6l0.2,0.5
		l0.8-0.7l1.9-0.6l0.2-0.4l1.2-0.4l1,0.2l-0.2,1l0.3,0.3l1.4-1.6l4.9-0.6l1.7-1.8l-1.6-0.2l0.9-0.8l1.1,0.1l1-0.3l0.2-0.8l0.9-0.1
		l0.5,0.4l1.7-1.4l1,0.5l0.2-0.4l1.5-0.7l1.9-0.2l1.2-1.5v-1l0.7-0.3l1,0.2l-0.1-0.7l1.8,0.1l1-1.3l1,0.4l0.3-0.7l1.4-0.2l-0.2-0.5
		l0.7-0.3l1,0.1l1-0.3h1l1.8-0.9l0.8-0.9l-0.4-0.6l0.8-0.2l0.1-0.5l1.2,0L237,71l0.8-0.9l-0.6-0.6l-2-0.5l-2.5-0.1l0.4-1.7l2.2-0.4
		l-0.2-0.6l1,0l0.8-0.9l0.5,0.5l1.7-0.4l0.2-1.1l1.8-0.2l0.8-0.9l-0.9-0.6l1.9-0.7l0.5-1.1l1-0.4l0.3-0.6l1.4-0.3l0.2-0.6l1.8-0.9
		l1.8-0.2l0.8-0.8l1.8-0.4l0.3-0.2l1,0.3l1.5-0.1l0.7,0.6l1.9,0.8l-1.7,0.6l-1.1-0.2l-0.9-0.6l-3.7,1.4l-1.9,0.4l0.8,1l-0.2,0.9
		l-0.5,0.2l-0.2,0.8l-1.6,1l-0.9,1.4l0.2,0.3l1.8,0.5l2.2-0.8l-0.1,0.6l-1.7,0.7l-0.3,0.4l-0.9-0.1l-1.4,0.3l-0.5,1l2.2,0.5l1-0.7
		l0.6,0.4l1.7-0.1l1.6-1.3l0.8,0l1-0.6l0.9,0.2l1.3-0.5l0.5-0.6l1.2-0.1l1.3-0.4l-0.4-0.3l0.9-0.7l0.7,0.5l0.5-0.6l0.8-0.3l-0.1,0.5
		l1.8,0l0.7,0.3l1.3-0.3l0.8,0.2l1.5-0.2l-0.6-1.2l-1-0.2l0.3-0.5l1.1,0.3l0.5-0.9l-0.8-0.9l-0.1-0.8l-1.4-0.4l1-1.1l0.6,0l-0.5,1
		l0.7,0.2l1.4-0.2l0.1-0.6l2.2,0.2l0.6-0.5l0.6,0.2l1.7-0.2l0.5-0.4l1.2,1.6l1.2,0.1l0.5,0.6l1.3-0.2l0.4,0.5l-2.8,0.6l-0.9-0.1
		l-0.6,0.5l0.6,0.9l1.4-1l3-0.8l0.5,0.4l2.9,1l0.6-0.7l1.6-0.1l0.3,0.8l0.7,0.5l2.4,0.4l1.9,0.8l1.5-0.2l4.2-0.3l1.9,0l3.2,0.4
		l1.4,0.4l1.4-0.1l0.1,0.6l2.9,0.7l3.4,0.3l2.9-0.8l1.4-1.2l0.4,0.3l-0.8,0.6l0.6,1.1l-0.6,0.5l-0.5-0.2l-0.2,0.8l1.8,0.7l2.8,0.7
		l1.6,0.6l2.9,0.6l1,0.9l0.2,0.6l1.9,1l2.6,1.1h0.9l0.5,0.4l1.5,0.6l0-0.8l1.1,0.3l1.9-0.5l-0.8-0.9l-0.2-0.7l-0.6,0l-1.5-0.9
		l-1.9-0.4l0.3-0.3l3.5,1.2l0.9-0.3l1,1.1l0,1.3l1.6-0.2l1.1,0.2l0.9,0.9l1.1,0.2l0.2-0.8l-0.7-1.3l0.3-0.2l-1.1-1.5l-0.2-0.8
		l0.6-0.9l1.2,3.9l2.7,1.7l2.5,0.2l0.4,0.6l1.4,1.2l1,0.2l-0.2,0.9l1,0.3l-0.1,2.2l3,0.8l1.3,1.1l1.8,0.9l0.9,0l-0.6,1.1l0.3,0.8h-1
		l-1.1,0.7l0.4,1l0.7-0.2l1.1,1.3l1.1-0.6l0.2,0.7l-0.8,0.7l0.2,0.6l1.2,0.5l0.1-0.7l1.5-0.5l-0.8,1.4l2.3,1.2l0.8-0.3l0.7,0.5
		l1.3-0.8l0.4,0.2l-1.3,0.6l0.6,0.6l-0.2,0.5l0.5,1.2l0.7-0.2l0.6,0.6l2-1.1l1.4-1.6l0.6-0.4l-0.8-1.7l-0.1-1l0.8-1.3l-0.6-0.7
		l-1.8-0.2l-0.2-0.6l-0.9-0.2l-0.9-0.6l-1.7-0.2l-2.8-1.2l-1.4,0.1l-0.2-1.1l-1.4-0.4l0.4-1l-1.8-0.2l0.6-0.7l-1.7-1.6l-1.7-1.9
		l-1.2-0.9l-0.6-0.9l-3.8-3.2l-2.3-0.7l-0.8-0.6l0.1-0.3l-1.8-1.2l-1.4-0.2l-0.6-0.8l0.2-0.8l-2.6-1.3l-2.6,0.8l-1.8,0.2l-0.2,0.9
		h-1l0.1,1l-0.6,0.7l-1.4,0l-2.5,0.9l-1,0.5l-0.9-1.9l-5.7-3l-0.4-0.8l-1.9-0.5l-0.9-0.5l0.6-1.5l-3.4,0.1l-1.6,0.9l-2.7-0.7
		l-0.3,0.5l-2.6-0.5V9.6l-1.2-0.2l-1,0.3l-0.3-0.3l-1.6-0.5l-1.7-0.1l-0.4-0.3L299,8.1l-1.9-0.7l-2.9-0.4l-1.4,0.2l0-0.3l-2.3,0.1
		l-0.9,0.4l-2.2,0.2l-0.9,0.3l-3.2-0.1l-2.4-0.5l-1.3-0.5l-1.4,0.1l-2.3-0.2h-2.1l-1.5,0.2l-2.9-0.2L268.8,6.2"/>
	<path id="path-17" class="st1" d="M239.8,74.8l1.6-0.2l1-0.4l2.2-0.1v-0.9l-1.5-0.6l-0.8,0.4l-1-1.2l-0.9,1.3l-1.3,0.1l-1.4,1.4
		l1.9,0.4L239.8,74.8"/>
	<path id="path-18" class="st1" d="M234.1,77.6L234,77l-1.4-0.1l-2.2,0.8l-0.6,1.3l1.1,0.5l0.1,1.1l1.2,0.4l0.1,0.4l1.3-0.7l0.3,1.3
		l0.9-0.5l0.9-0.1l1.1-1.2l1,0.4l0.6-0.5l1.7-0.3l0-1.1l1.1,0.3l0.6-0.6l-0.8-0.7l2.2,0.4l1.2-1.1l-1.8,0.1v-1.6l-1.4-0.6l-0.9,0.3
		h-1.1l-0.9-0.4l-0.2,0.6l-1-0.4l0,1l-0.5,0.4l-0.1-0.6l-0.9-0.3l-1.2,0.4l0,0.6l1.4,0.2L234.1,77.6"/>
	<path id="path-19" class="st1" d="M230.9,82.8l-1.5,1l0.4,0.2L230.9,82.8"/>
	<path id="path-20" class="st1" d="M224.7,86.6l-1.1,0.7l0.2,0.4l1.5,0.2l0.3-1.2L224.7,86.6"/>
	<path id="path-21" class="st1" d="M200.8,90.2l-0.6,0.8l-0.6-0.2l-0.8,1.5l1.7-1L200.8,90.2"/>
	<path id="path-22" class="st1" d="M197.3,89.8l-1.6-0.1l-0.3,0.3l0.3,1l0.6-0.4l0.9,0.5l1-0.7l0-0.6H197.3"/>
	<path id="path-23" class="st1" d="M187.5,91.9l-1,0.3l0.5,0.5l0.6-0.3L187.5,91.9"/>
	<path id="path-24" class="st1" d="M186.6,43.3l-1.1,0.1l0.3,0.5L186.6,43.3"/>
	<path id="path-25" class="st1" d="M184.4,94.7l0.1,0.6l1,0l0.1-0.5L184.4,94.7"/>
	<path id="path-26" class="st1" d="M169,95.8l-0.8,0.2l0.3,0.7l0.9-0.3L169,95.8"/>
	<path id="path-27" class="st1" d="M167.9,96.6l-1.4-0.4l-0.7,0.6l0.4,0.4L167.9,96.6"/>
	<path id="path-28" class="st1" d="M164.4,61.7l-0.7-0.2l-0.5,0.4l-1,0.1l-1,0.6l-2.1-0.2l-0.6,0.2l0.4,0.7l1.2,0.5h0.7l2.1,0.8l1,0
		l2.1,0.6l0.3-0.6l1.4-0.3l0.6-0.5l-0.2-1.6l-1.1-0.4l-1.1,0.1l-0.3-0.4L164.4,61.7"/>
	<path id="path-29" class="st1" d="M164.4,97.4l-1,0.7l-0.5-0.8l-2.2,0.4l-0.6,0.7l0.7,0.4l1.3,0.1l-0.1,0.4l-1.2-0.3l-0.8,0.6
		l0.3,0.6l-1.4,0.5l-0.6-0.1l-1.9,0.6l1,0.5l1.8-0.5l1-0.5l1.4,0l1.7-0.6l0.2-0.5l1.5-0.3l1-0.5l0-0.4l-2.4,0.8l0-0.2l1.9-1
		L164.4,97.4"/>
	<path id="path-30" class="st1" d="M150.8,102.2l0.6,1.1l1-0.4l1.3-1.2l2.4-0.8l-0.2-0.7l-0.7-0.3l-1.3,0.2l-0.8,0.5l-0.1,0.5
		L150.8,102.2"/>
	<path id="path-31" class="st1" d="M145.4,103.6l-1.4,0.2l0.2,0.4l1.4,0L145.4,103.6"/>
	<path id="path-32" class="st1" d="M143.2,79.4h-0.9l0.2,0.5L143.2,79.4"/>
	<path id="path-33" class="st1" d="M140.3,104.8l-0.8,0.3l0.2,0.6l1-0.4L140.3,104.8"/>
	<path id="path-34" class="st1" d="M134.2,42.9l-0.6,1.3l0.6,0.7l1.5,0.3l2-0.6l1.3,0l2.8,0.7l0.6,0.6l1.2,0.1l1.3,0.5l1.1,0.8
		l0.7-0.8l0.8-0.4l1.5-0.2l1.4,0.2l1-0.8l-1.8-0.2l-2.9-0.2l-0.7-0.3l-2.2-0.4l-0.3-0.7l-1-0.4l-1.2-0.1l-2.6,0.7L134.2,42.9"/>
	<path id="path-35" class="st1" d="M130.4,106.5l-0.8,0.2l-0.2,0.6l1.1-0.1L130.4,106.5"/>
	<path id="path-36" class="st1" d="M123.7,107.8l0.4,0.7l2.5-0.3l-0.1-0.2l-2.1,0L123.7,107.8"/>
	<path id="path-37" class="st1" d="M119.7,107.1l-1.9,1l-1.4-0.1l-0.4,0.4l1.3,0.2l2.3-0.6l1.1-0.1l-0.2-0.6l0.7,0l0.4-0.5l-1.1-0.6
		l-0.8,0.2L119.7,107.1"/>
	<path id="path-38" class="st1" d="M107.7,109.5l-0.9,0v-0.6l-0.8,0l-0.1,0.8l-0.7,0l0.6,1.1l1.6-0.8l1.3,0.1v-0.7L107.7,109.5"/>
	<path id="path-39" class="st1" d="M103.8,109l-0.7,0.9l0,0.6l0.9-0.3l0.4-1L103.8,109"/>
	<path id="path-40" class="st1" d="M98.4,109.1l0.9,1.5l0.9-0.8l-0.9-0.7L98.4,109.1"/>
	<path id="path-41" class="st1" d="M47.9,103.1l-8.6-0.1v0.4l-1.5,0.9l9-0.3l0.1-0.6L47.9,103.1"/>
	<path id="path-42" class="st0" d="M486.3,192.9l-8.2,0l-19.9,0v4.5l-0.6,1l-0.6,0l-0.7-0.7l-2.1,0.2l0.3,3.3l0.5,1.1l0.1,1
		l-0.3,0.8v0.7l0.9,0.9l0.8,1.5l1.1,0.8l-0.7,0.7l-0.9,0.4l-0.7,1l0.2,1.3l-0.2,0.8l-1.1,0.8l0.4,2.1l0.8,0l0.3,1l-0.3,0.5l-1.1,0.2
		l-0.5,1.3l14.4,4.4l6.6,2.1h11.4L486.3,192.9"/>
	<path id="path-43" class="st0" d="M568.1,195.7h-0.8l1,6.2l-0.3,9.9l0.6,0.5l1.1-0.3l0.8,0.2v3h2.4l13.7,0.1l0.4-0.8l-0.3-1.2
		l0.5-0.5l-1-0.7l0.9-1.7l1-0.9l-0.3-0.6l1.2-0.9l0-0.4l1-0.3l-0.1-1.1l0.6-0.2l0.4-1l0.9-0.4l-0.3-0.5l0.6-0.2l0.6-1l-0.1-1.4
		l1-0.9l0.2-0.9l0.8-0.3l0.2-1h-3.6l0.9-1l0.9-0.7l-0.5-1.1L568.1,195.7"/>
	<path id="path-44" class="st2" d="M406.6,164.8l-5.5,0l-0.2,1.2l0.6,0.4l0.5,1.5l-0.5,1.7l0.3,0.6l-0.3,0.8l-1.4,2.5l0.3,1l1.4,0.9
		l1.4,1.5l0.5,1.6l-0.3,1l0.8,1.9l-0.3,0.4l1.7,1.4l0.6,0.7l1.1,0.6l0.9,1l0.2,1.3l1.3,0.8l1.1-0.2l0.1-1l0.5-0.2l0.4,2.1h-1v1.5
		l0.6,0.9l-0.1,0.7l0.5,0.7l1.3,0.9l1-0.1l0.8,1l-0.4,1.1l-0.4-0.2l0.2,1.8l1,0.7l2.2,2.3l0.3,0.6l0.6,0.2l0.9,1l0.6,0.1l0.1,1.1
		l1.5,0.8l-0.2,1.1l0.3,0.2l-0.2,1.6l1,0.7l1.9-0.2l1.5,0.4l1.8,0l1.6,0.8l0.3,0.7l2.3,0.8l1.3-0.2l1,1.1l-0.1,0.6l0.9,0.2l0.4-0.3
		l2.2,1.3l1.8,1.4l0.8,1l0.4,1.4l0,1.2l0.7,0.7l6.1-0.5l7.4-0.5l1.1-0.2l0.3-0.5l-0.3-1l-0.8,0l-0.4-2.1l1.1-0.8l0.2-0.8l-0.2-1.3
		l0.7-1l0.9-0.4l0.7-0.7l-1.1-0.8l-0.8-1.5l-0.9-0.9v-0.7l-6.8-5.4l-3.9-3l-5.4-4l-6.8-5l-7.2-5l0-7.1l0-9.7H419l-7.5-0.1
		L406.6,164.8"/>
	<path id="path-45" class="st3" d="M492.6,170.4l-6.3,0l0,10.5l0,4.8l0.1,0.6v6.6h9.1l3.1,0h14.2l7.5,0l5.4,0l-0.1-16.9v-5.6h-11.2
		l-9.4,0L492.6,170.4"/>
	<path id="path-46" class="st4" d="M688.4,164.6l-2.4-0.1l-0.4,4.2l0.4,0.5l-1.4,0.6l0.4,0.6l1.6-0.6l1.4-0.2l1.3-0.8l2.9,0.1
		l2.5-0.4l0.5,0.1l0.3-0.5v-3.3v-0.1L688.4,164.6"/>
	<path id="path-47" class="st2" d="M675.2,177.2L674,177l-1,0.6l0.5,7.1l3.6,0.1l-0.2-1.9l-0.6-0.1l-1.2-1.4l-0.2-1.4l-0.8-0.8
		l-0.1-0.9l0.6-0.4L675.2,177.2"/>
	<path id="path-48" class="st5" d="M666.1,181.7l-0.5,0.3l0.4,0.8l0.7-0.6L666.1,181.7"/>
	<path id="path-49" class="st2" d="M618.6,226.6h-11.8l-0.2,0.7l1.3,1.1l-0.2,0.9l0.4,0.5l-0.8,0.8l3.4-0.5l1.6-0.1l1.9,0.2l2.1,0.7
		l2.9,1.7l0.6,0.7l-0.1,0.6l2.5-0.2l2.3-1l0.6,0.2l-0.1-0.9l1.9-0.3l2.2,1.2l0.6,0.9l0.7,0.3l0.1,0.8l1,0.6l1.3,1.4l1.1,0.2l0.2,0.8
		l0.7,0.6l-0.2,2.6l-1,3.1l0.7,1.1l0.7-0.7l1.1-0.1l-1.7,2.2l0.7,0.8l1.8,3l0.6-0.2l-0.2-0.7l0.6,0.2l-0.2,1.2l0.3,0.8l1.2,1.3
		l0.2,1.1l0.7,1.4l0.9-0.3l1,0.5l1.3,2.5l-0.2,0.9l0.5,0.6l1.8-0.2l1-0.4l0.4,0.2l1.1-1l-0.2-0.5l0.6-1.4l0.5-0.1l0.6-4.6l0-1.3
		l-0.3-1.3l-1.6-4l-1-2l-0.1-1.8l0.4-0.3L644,237l-1.6-3.6l-0.7-2.7l-0.3-2.4l-1.5-0.2l-1.3-0.5L638,228l0.2,1l-0.2,1.1l-0.7,0
		L637,229l-7.2-0.4l-7.7-0.4l-0.8-1.6L618.6,226.6"/>
	<path id="path-50" class="st6" d="M632,204.1l-2.9,0.1l-3.9,0l-7.2,0l1,4.8l1.4,7.1l0.6,1.6l0.6,0.9l-0.2,0.6l0.6,0.3l-1,0.7l0,0.7
		l-0.5,1l0.6,1.7l-0.4,1.5l0.6,1.5l0.8,1.6l7.7,0.4l7.2,0.4l0.3,1.2l0.7,0l0.2-1.1l-0.2-1l0.5-0.4l1.3,0.5l1.5,0.2l0.2-2.4l0.6-0.4
		l0.1-0.9l0.6-0.9l0.2-1l1.4-1.9l-1.3-0.5l0-1l-0.9-1.5l-0.8-0.4l-0.1-1.2l-0.4-0.9l-1.5-0.9l-1-1l0.1-0.6l-1.5-1l-0.7-1l-1.3-0.7
		l-0.9-1.2l-0.2-0.6l-0.9-1.2l-0.6,0.1l-1.9-1.2l0.1-0.6L632,204.1"/>
	<path id="path-51" class="st2" d="M224.7,294.3l0.7-1l1.2-0.7l1.8-0.5l1-1l-1.6-1.2v-0.7l-1.1-0.9l-1.8-0.6l-1.6-0.8l-0.1,0.7
		l0.4,0.6l-0.6,1l-0.8,0.7l1,2.2l-0.2,1.3l0.2,0.5L224.7,294.3"/>
	<path id="path-52" class="st2" d="M219.3,282.6l-0.6,0.6l0.4,0.6l1,0.2l0.1,1l0.4,0.2l1.8-0.4l0.3-0.8l-1.8-0.9l-0.8,0.3
		L219.3,282.6"/>
	<path id="path-53" class="st2" d="M217.1,281.6l-1.4-0.1l-0.4,0.6h1.3L217.1,281.6"/>
	<path id="path-54" class="st2" d="M211.7,278.8l-1,0.6l-0.7,0l0.8,1.6l1.2-0.1l0.3-0.8L211.7,278.8"/>
	<path id="path-55" class="st2" d="M203.2,275.9l-1.4,0.4l-0.2,0.9l1.8,0.6l0.6-0.5l0.2-0.8l-0.3-0.6L203.2,275.9"/>
	<path id="path-56" class="st7" d="M447,125.5h-5.5l-0.1,7l0,7.5l-0.1,0.5l0.7,1l0,1l0.8,1l1.3,0.4l0.5,0.8l-1.2,1.7l-0.3,1
		l-0.6,0.7l0.1,0.5l-0.6,0.8l-0.6,0.2l-1.1,2l0.4,0.8l1.1,0.1l0.5,0.5l-0.7,1.8v10.3l16.8,0h10.5l6.3,0v-13.9l-1-0.6l-0.9-1
		l-1.3,1.2l-1.1,0.2l-0.3-0.3l-1.3,0.2l-0.8-0.3l-1.3,0.5l-1.8,0l-0.6,0.5l-0.6-0.3l-0.7-1.8l-1.2-0.1l-0.6-0.5l0-1.1l-0.7-0.4
		l-0.9-1.1l-0.6-1.1l0.2-0.5l-1-0.6l-0.6,0.6l-1.4,0.8l-1.2-0.6l0.3-0.6l-0.4-0.6l1-0.6l-0.6-0.9l0.2-1.3l0.8-2.1l-1.6,0l-0.1-0.4
		l-1.5-0.6l-0.2-0.6l-2.1-1.5l-0.1-0.4l-1.1-0.2l-1.1-0.7l0-1.5l-1.8-1.6V125.5"/>
	<path id="path-57" class="st2" d="M589.7,162l1.2,1l0.2,0.6l1.3,0.6l0.2,0.7l-0.2,1.1l-0.7,0.4l-0.2,0.9l-1.8,0.7l-2.2,0.3l-0.4,1
		l0.9,0.8l-0.1,1l-0.7,0.6l-0.2,0.9l-1.6,0.6l-0.1,1l-0.5,0.8l0.1,1.1l0.7,1.7l1.7,1.4l1.9,1.2l0.4,1.8l0.4,0.3l0.6-0.5l1.2,0.2
		l0.8,0.4l-0.6,0.7l0.2,0.5l-1,1.4l0,0.9l1.7,1.1l0.6,0.7l0.6-0.1l1.8,1.2v0.9l0.5,1.1l-0.5,0.4l1.3,1.6l0.9,0.1l-0.3-0.3l0.9-1
		l0.6-0.1l2.1,0.9l0.7-0.5l-0.5-0.7l0.2-0.6l2.3-0.5l-0.5-1l0.7-0.8l-0.2-0.4l0.3-1.3l0.4-0.3l-0.2-0.7l0.6-0.1l1-1.2l0.2-0.7
		l0.7-0.8l-0.1-1l-0.7-1.2l0.6-1l0-13.3l-0.9-2.1l-0.9-1.3l0.2-1.1h-5.5L589.7,162"/>
	<path id="path-58" class="st6" d="M615.8,166.2h-4.7l-1.7,0.6h-1.7l-0.6-0.4l0,13.3l-0.6,1l0.7,1.2l0.1,1l-0.7,0.8l-0.2,0.7l-1,1.2
		l-0.6,0.1l0.2,0.7l-0.4,0.3l-0.3,1.3l0.2,0.4l0.5-0.5l1.4-0.1l0.5-0.4l0.5,0.4l0.7-0.2l1.4,0.8l0.5-0.6l1.4-0.6l0.4,0.6l1.3-0.2
		l-0.1-0.6l1.2-0.7l0.2,0.6l1.3,0.5l0.6-0.4l0.5-1.4l1-0.3l0.4-0.7l1-0.5l-0.1-1.1l1.4,0.2l1-0.5l1,0l-0.5-1.5l0.4-0.2l0.1-7.8
		l0-6.7v-0.4H615.8"/>
	<path id="path-59" class="st0" d="M585.6,156.4H557l-0.7,0.1l0.3,0.5l-0.2,1l0.7,0.6l-0.4,0.4l-0.2,1.1l-0.5,0.8l1,1.2l1,2.5
		l0.8,0.4l0.4,1l-0.3,0.7l0.2,0.8l1,0.5l0,1.4l0.6,1.3l-0.3,1.4l0.6,0.7l6.4,0.1l7.7-0.1l8-0.2l0.6,0l1.1,1.1l0.6,0.2l0.1-1l1.6-0.6
		l0.2-0.9l0.7-0.6l0.1-1l-0.9-0.8l0.4-1l2.2-0.3l1.8-0.7l0.2-0.9l0.7-0.4l0.2-1.1l-0.2-0.7l-1.3-0.6l-0.2-0.6l-1.2-1l-0.4-0.7
		l-2-0.6l-0.4-0.9l-0.2-1.3l0.7-0.7l-0.8-0.6l-0.1-0.8H585.6"/>
	<path id="path-60" class="st3" d="M526.4,176.1h-0.8l0.1,16.9l11,0h30.7l0-12.1l-1.2-0.3l-0.9-1.3l-0.7-0.6l1.3-1.6l-1.8-0.4
		l-0.6-0.5H526.4"/>
	<path id="path-61" class="st6" d="M627.5,183l-1.8-0.2l-0.1-0.5l-1.1-1.2h-2.2l-0.4,0.2l0.5,1.5l-1,0l-1,0.5l-1.4-0.2l0.1,1.1
		l-1,0.5l-0.4,0.7l-1,0.3l-0.5,1.4l-0.6,0.4l-1.3-0.5l-0.2-0.6l-1.2,0.7l0.1,0.6l-1.3,0.2l-0.4-0.6l-1.4,0.6l-0.5,0.6l-1.4-0.8
		l-0.7,0.2l-0.5-0.4l-0.5,0.4l-1.4,0.1l-0.5,0.5l-0.7,0.8l0.5,1l-2.3,0.5l-0.2,0.6l0.5,0.7l-0.7,0.5l-2.1-0.9l-0.6,0.1l-0.9,1
		l0.3,0.3l-0.5,2.3l-0.8-0.2l-0.3,0.7l0.7-0.1l7,0.1l-0.1-1l1.2,0.2l7.1-0.1l6.2,0.2l1.1-0.1l4.2,0.2l4.8,0.1l0.1-0.1l3-0.8l0.4-0.6
		l1.1-0.2l0.1-0.5l0.8-0.4v-0.4l2.1-0.8l2.2-1.5l-0.7-0.1l-1.1-0.6l-0.3-0.6l-0.9-0.8l-0.7-1.1l0.2-1.7l-0.8-0.8l-0.6-0.2l-0.2-1
		l-0.8,0.2l-0.6,0.6l-2.1-0.4l-0.9,0.4L627.5,183"/>
	<path id="path-62" class="st6" d="M573,215.3h-2.4v5.8l1.2,1.2l0,1.2l1.5,2.3l0.1,1.2l-0.6,1.4l-0.6,0.6l0.2,0.8l-0.4,0.6l0.4,1.1
		l-1.3,2l0.5,0.6l0.4-0.2l3-0.3l1.4,0.3l2,0.8l1.7,0.2l1.1-0.5l-0.2-0.5l1.4-0.7l0,0.7l1.5-0.2l0.5,1.2l0.5-0.1l1.3,0.6l0.7,1.4
		l0.7,0.1l0.9,0.5l0.9-0.2l0.5-0.9l1.3,0l0.6,0.8l0.7-0.1l0.5-0.7l-0.1-0.8l1-0.3v1l2.1,0.5l0.8,1l1,0.2l0.9-1l-0.5-0.1l-0.6-0.8
		l-1.7-0.2l-1.1-0.7l0.4-0.8l-0.2-0.5l1.3,0.3l0.7-0.3l0.1-0.7l-1.2-0.9l-0.6,0.9l-1.4-0.4l0.1-0.6l1.7-0.8l-0.7-0.6l-0.2-0.9
		l-0.9-1.2l0.6-1.8h-10.6l0.4-0.4l-0.4-1.1l0.7-0.1l0.1-2.1l0.6,0.1l0.3-1.3l1.3-0.8l0.7-1.3l-0.1-1.7l-0.8-0.7l0.1-1.1l0.4-0.2
		l-0.5-0.6L573,215.3"/>
	<path id="path-63" class="st3" d="M701.6,158.9l0.8-1.5l1-0.6l0.1-0.5l0.9-0.2l-0.3-0.6l1.3-1l0.2,0.6l0.9,0.1l0.7-0.6l0.9-0.1
		l0.6-0.7l1,0.2l1-0.7l-0.2-0.3l0.8-1.2l-0.2-0.6l0.9-0.2l0,0.8h1.4l0.6-0.4l0.3,0.7l1.3-0.4l-0.3-0.9l0.6,0.1l0.4,0.8l1.7-1.2
		l1,0.1l0.1-0.5l0.8,0.2l0.6-0.6l0.7,0.3l1.2-0.9l-1-2l-1,0.2l-0.8-0.9l0.4-0.6l-0.5-0.6l0.3-0.6l-1.9-0.4l0.1-1.5l-0.1-6.3
		l-0.9-0.7l-1.6-0.9l-0.8,0.4h-1.1l-1.8,0.6l-0.7-0.4l-0.1-1l-1-0.2l-4.3,4.3l-0.3,1.6l-0.9,0.5l-0.6,1.5l0.3,1l-0.9,0.5l0.2,0.3
		l-1,0.4l-0.9,0.9l0.4,0.4l-2.4,0.8l0.3,3.6l0.4,7.4l0.9,0.6l-0.1,0.6L701.6,158.9"/>
	<path id="path-64" class="st4" d="M671.9,187.6h-0.3h0.2H671.9"/>
	<path id="path-65" class="st4" d="M652.4,177.6l-0.1,2.9l1.1-0.5l1.1-1l0.7,0.2l1.1-0.8l1.7,0.4l0.2-0.6l0.9,0l0.5-0.4l1,0.5h1
		l0.6,1.6l0.9,0.1l0.6,0.5v0.8l1.2,0.3l0.7,0.5l0.5-0.3l0.7,0.6l-0.7,0.6l-0.5,0.9l-0.8,0.9l0.4,0.7l1-0.5l0.6,0.9l1.8,0.4l1.3,0.9
		l0.2-0.5l-0.5-0.7l0.1-0.7l-0.7-0.9l-0.2-1.3l0.6-0.8l0.1-1.6l0.4-0.6l1.5-0.7l0-0.6l0.7-0.1l-0.2,1.1l-1,0.2l-0.6,1l0.5,1.8
		l-0.4,0.5l0,1.3H670l0.4,1l1.2,0.1l0.3-0.4l0.9,0.9l-0.6,0.4l0.5,0.4l0,0.9l1.2-0.2l1.5-0.3l0.9-0.1l1.1-2.4l-3.6-0.1l-0.5-7.1
		H652.4"/>
	<path id="path-66" class="st4" d="M700.4,159.8l-1.5,0.6l-0.6,0.5l-6.5-0.2l-4.6-0.1l-1.4,3.7l0.1,0.2l2.4,0.1l7,0.1v0.1l1.5-0.1
		h0.8l0.3,1.3l0.6,0.4l0.2,0.2l0.4,1l1-0.2l0-0.4l0.9-0.2l0.6,0.5l1,0l2.7-0.7l0.4-0.8l-1.8,0.5l-1.6-0.6l-0.1-0.6l-0.6-0.2l0.1-0.7
		l-0.7-0.9l-1.2-0.1l0-0.9l0.9-0.7l0.2-0.8l-0.2-1L700.4,159.8"/>
	<path id="path-67" class="st6" d="M630,166.3l0.1-0.5l1.4-1.1l0.3-1.3l1.1-0.6l0.7-1.7l0.6-0.2l0,0.7l0.9-0.3l0.6-2l-0.6-1.4
		l-0.1-1.2l-0.6-2.3l-0.6-0.8l-1-0.4l-1.9,0.6l-1.2,1.4l-1,0.7l-1.4-0.5l-0.3-0.5l0.7-1.3l1.4-0.4l0.3-1.1l1.1-0.5l0.3-2.1l-0.3-1
		l-0.7-0.8l0.8-0.6l-1-1.2l-0.6,0l-1.8-0.7l-1-0.1l-0.7-0.8l-1.4-0.1l-1.4-0.6l-1.3,0.1l-1,1l0.5,1.2l-1.5,0.3l-0.5,0.4l0,1.7
		l-0.7,1l-0.6-0.1l0.1-2l-1.1,1l-1.4,0.2l-0.1,0.9l-0.9,0.3l0.2,0.7l-0.3,1.3l-1.3,1.5l0.4,1.5l-0.5,1.2l1.7,3.3l0.1,1.7l-0.3,1.5
		l-0.5,1.1l-0.7,0.8l-0.8,1.3l-1.1,0.7h4.7h6.6v0.4L630,166.3"/>
	<path id="path-68" class="st6" d="M618.5,143.9l-0.3-0.2l-0.3,1l0.7-0.1L618.5,143.9"/>
	<path id="path-69" class="st6" d="M606.8,147.4l-0.1-0.2l1.6-1.7l0.9-1.3l0.6-0.3l1.3,0l0.3-0.8l0.8,0.2L612,144l1.8-0.5l0.2-0.6
		l0.6-0.3l1.6,0.2l1.5-0.2l0.9-0.7l0.9,0l1.8,0.5l1,0.8l0.7,0.1l-0.2-0.5l0.5-0.6l1.6,0.7l1.5-0.2l3.1,0.4l0.5-0.4l-0.6-0.6h-1.1
		l-0.1,0.6l-1.1-0.2l-0.7-0.8l0-2l-1.6,0.2l-0.7,0.5l-0.5-0.4l-1.1,0.2l-1.1-0.2l-0.2-1.6l-1.1,0l-1.4,0.4l-2.1-0.1l-1.6,0.1l-3,1.3
		l-1.4-0.2l-0.3-0.3l-1.4,0.2l-0.7-0.3l-1.4-1.5l-1.5-0.6l-1.9-0.1l-1.1,0.8l0-1l0.5-0.6l2.2-1.7l-1.3-0.4l-1.3,0.5l-0.9,0.7
		l-1.8,0.8l-0.6,0.6l-0.7,0l-1.6,0.8l-2.5,0.3l-1,0.7l-2.2,0.6l1,0.3l0.6,1l5.8,1.1l2.4,0.8l0.7-0.2l2.4,0.6l0.6,0.7l1.2,0.7l-0.1,1
		l-0.5,0.8l1.3,0.1l-0.5,0.8L606.8,147.4"/>
	<path id="path-70" class="st6" d="M600,131.3l0.8-0.2l0.7-0.9l-3.5,1.3l-0.1,0.6l0.7-0.1L600,131.3"/>
	<path id="path-71" class="st0" d="M582,138.4l-0.4-0.5l2.5-1.4l1.6-1l1-0.9l2.4-1.4l1.7-0.6l2.6-0.6l1.9-0.7l0.1-0.3l-1.4,0.1
		l-1.5-0.7l-1.3,0.1l-1.1-0.2l-1,0.2l-0.5-0.8l-1.4,0.3l-1,0.6l-1.7,0.2l-0.8-0.4V130l-1.7-0.4l-0.2-0.5l-1.4,0.2l-0.4,0.5l-0.8-1.3
		l-0.8,0.1l-0.4-0.6l-1.4-0.5l-1.3-0.1l-1.4,0.3v0.2l-1.8,0.2l-0.2-0.6l-2.2-0.1l-0.2-0.3l-1.8-0.1l-0.6-0.3l-0.7-2.9l-0.7-0.4
		l-1.1-0.1v2.2h-11.7l0.7,1.8l-0.4,0.8l0.2,2.3l0.4,1.1l1.1,1.9l0.2,3.6l0.2,0.2l-0.1,1.5l0.5,1.2l0.7,0.6l0.2,2.2l-0.1,0.6
		l-1.5,1.2l1,1.1l1.3,0.6v10.1h28.5h0.9l-0.3-0.6l0.2-0.9l-1.1-1.2l-0.9-0.2l-1.6-1l-0.3-0.7l-1.7-0.6l-0.6-0.6l-1.2-0.1l-1.5-1
		l0.4-2.1l-0.1-1l0.6-0.9l-0.7-0.7l-0.6-0.1l0.1-0.8l1.3-1.2l1.6-0.5l0.3-0.3v-3.3l1.1-0.5L582,138.4"/>
	<path id="path-72" class="st0" d="M601.9,204.2h-10.3l0.3,0.5l-0.9,0.4l-0.4,1l-0.6,0.2l0.1,1.1l-1,0.3l0,0.4l-1.2,0.9l0.3,0.6
		l-1,0.9l-0.9,1.7l1,0.7l-0.5,0.5l0.3,1.2l-0.4,0.8l0.5,0.6l-0.4,0.2l-0.1,1.1l0.8,0.7l0.1,1.7l-0.7,1.3l-1.3,0.8l-0.3,1.3l-0.6-0.1
		l-0.1,2.1l-0.7,0.1l0.4,1.1l-0.4,0.4h10.6l-0.6,1.8l0.9,1.2l0.2,0.9l0.7,0.6l0.6-0.4l1.9-0.6l1.4-0.2l0.6,0.4l1.4,0.1l0.6-0.2
		l-0.4-8.6l1.3-10.7l0.8-6.2l-0.6-0.6H601.9"/>
	<path id="path-73" class="st0" d="M583,172.6l-8,0.2l-7.7,0.1l-6.4-0.1l1.2,1.8l1.4,1.5l0.6,0.5l1.8,0.4l-1.3,1.6l0.7,0.6l0.9,1.3
		l1.2,0.3l0,12.1v2.8h0.8l24.3,0l0.5,1.1l-0.9,0.7l-0.9,1h3.6l1.1-1.4l0-1.4h0.3h0.4l0.3-0.7l0.8,0.2l0.5-2.3l-0.9-0.1l-1.3-1.6
		l0.5-0.4l-0.5-1.1V189l-1.8-1.2l-0.6,0.1l-0.6-0.7l-1.7-1.1l0-0.9l1-1.4l-0.2-0.5l0.6-0.7l-0.8-0.4l-1.2-0.2l-0.6,0.5l-0.4-0.3
		l-0.4-1.8l-1.9-1.2l-1.7-1.4l-0.7-1.7l-0.1-1.1l0.5-0.8l-0.6-0.2l-1.1-1.1L583,172.6"/>
	<path id="path-74" class="st1" d="M514.4,125.5H484l-11.5,0l-25.5,0v5.8l1.8,1.6l0,1.5l1.1,0.7l1.1,0.2l0.1,0.4l2.1,1.5l0.2,0.6
		l1.5,0.6l0.1,0.4l1.6,0l-0.8,2.1l-0.2,1.3l0.6,0.9l-1,0.6l0.4,0.6l-0.3,0.6l1.2,0.6l1.4-0.8l0.6-0.6l1,0.6l-0.2,0.5l0.6,1.1
		l0.9,1.1l0.7,0.4l0,1.1l0.6,0.5l1.2,0.1l0.7,1.8l0.6,0.3l0.6-0.5l1.8,0l1.3-0.5l0.8,0.3l1.3-0.2l0.3,0.3l1.1-0.2l1.3-1.2l0.9,1
		l1,0.6l0-3h11.1h17.8l10.4,0h0.1l0-5.3l0-10.8L514.4,125.5"/>
	<path id="path-75" class="st3" d="M518.4,159.2h-4.1v11.2h11.2v5.6h0.8h37.1l-1.4-1.5l-1.2-1.8l-0.6-0.7l0.3-1.4l-0.6-1.3l0-1.4
		l-1-0.5l-0.2-0.8l0.3-0.7l-0.4-1l-0.8-0.4l-1-2.5l-1-0.2l-0.4-0.8l-3-1h-2.6l-0.8-0.1l-0.7,0.6l-2.9-1l-0.2-0.3H528L518.4,159.2"/>
	<path id="path-76" class="st3" d="M441.5,164.8l-9.4,0.1l-7.3,0l0,9.7l0,7.1l7.2,5l6.8,5l5.4,4l3.9,3l6.8,5.4l0.3-0.8l-0.1-1
		l-0.5-1.1l-0.3-3.3l2.1-0.2l0.7,0.7l0.6,0l0.6-1v-4.5l0-28.1L441.5,164.8"/>
	<path id="path-77" class="st6" d="M699.5,146.3l-0.3,0.3l-1.3-0.2l-0.8,1.4l0.1,0.6l-0.8,0.9l0.5,0.9l-0.9,1l-1.9,0.5l0,1.4
		l-0.5,0.5l-0.5,1.3l-1,1.1l-0.4,2.4l0.1,0.8l-0.5,0.3l-0.1,0.8l0.5,0.4l6.5,0.2l0.6-0.5l1.5-0.6l0.6,0.1l0.6-1l-0.7-0.4l0.1-0.6
		l-0.9-0.6l-0.4-7.4L699.5,146.3"/>
	<path id="path-78" class="st5" d="M681.8,169.7l-2.6-1.2l-0.7,0.4l-0.3,0.6l-1.4,1.2l0.5,0.6l-0.9,1l0.1,0.6l0.7,0.2l0.1,0.7
		l1.6,1.1l-0.3,0.5l-1.7,0.9l-0.1,0.4l-1.5,0.5l-0.5,0.7l-0.3,0.3l0,0.1l0.1,0.8l2,1.2l1.6,0.5l0.5,0.9l1-1.4l1.1-0.6l1.8-2.2l0.7-3
		l-0.1-0.6l-1.5-0.4l0.5-0.9l0.9-0.4l0.7-1.6L681.8,169.7"/>
	<path id="path-79" class="st7" d="M495.4,192.9h-9.1l0,31.8h4.7v-2.6h9.4l-0.6-0.6l0.2-0.6h19.9v-5.6l0.1-5.7l0-14h0.2v-2.8l-7.5,0
		h-14.2L495.4,192.9"/>
	<path id="path-80" class="st2" d="M686.8,147.9l-4.5,0.1l-3.8-0.2l-2.6,1l-2.7,1.9l-0.8,0.8l-2.2,1l-0.3,0.7l1.3,0.6l-0.5,0.9
		l0,1.5l-1,0l-1.6,1l-1.5,0.4l-2.4,0l-0.8,0.2l-1.3-0.6l-1.2-0.2l-2.9,0l-3.3,0.6l0.3,1.5l0.5,0.2l0.4,1l-1.1,0.5l-0.6,0.8l-3.4,1.6
		v0.1v1.4h24.7l0.6,0.8l0.4,0l0.7,0.6l-0.1,0.8l1,1l0.9,0l0.2,0.4l2.6,1.2l1.9,0.8l-0.7,1.6l0.5,0.9l0.9-0.3l1.2,0.1l1.8-0.2
		l4.3-1.2l2.1-0.8l-0.9-0.3l-0.1-0.6l-1.7,0.9l-1,0.2h-2.1l-0.5,0.3l-2.4-0.5l-0.4-0.6l1.4-0.6l-0.4-0.5l0.4-4.2l-0.1-0.2l1.4-3.7
		l-0.1-0.5l0.2-3.9l-0.9-0.9l0.3-0.5l-0.5-1.5l0.6-1.1l0.2-1.1l-0.5-1l0.3-1L686.8,147.9"/>
	<path id="path-81" class="st6" d="M643.9,195.4l-3.9-0.2l-0.2,1.3l-1,0.3l-0.7,1l-1-0.2l-2.2,1.1l-0.2-0.6l-0.8,0.4l-1.2,1.3
		l-1.4,0.3l-1.4,0.9l-1.5,0l-1.4,0.8l-0.4,0.9l-1.1,0.1l-0.2,1.3l3.9,0l2.9-0.1l1.9-0.4l1.2-0.5l1.5-0.2l6.9,0.3l0,0.6l0.6-0.3
		l0.9,1l-0.1,0.6l6.3,0.1l6.4,5.4l2-0.4l1.2,0.4l0.8-1.8l1.5-1.4l1.9-1.1l1.2-0.3l1.8-0.2l1,0.2l1.2-1.6l-0.6-0.2l-0.8-1l0.3-1
		l1.9-0.1l1.4-1.4l0.7-0.1l0.3-0.6l-0.4-1.4l-1,0.2l-0.6-0.5l-1.7,0.3l-0.2-0.2l-1.5,0.3l-0.1-0.4l1.3-0.1l0.3-0.3l1.9-0.3l0.2-0.3
		l1.6,0.2l-0.6-2.2l-20.5,0.1l-4.4,0L643.9,195.4"/>
	<path id="path-82" class="st1" d="M552.7,125.5h-38.3l0,6.4l0,10.8l42,0.1l-0.2-2.2l-0.7-0.6l-0.5-1.2l0.1-1.5l-0.2-0.2l-0.2-3.6
		l-1.1-1.9l-0.4-1.1l-0.2-2.3l0.4-0.8L552.7,125.5"/>
	<path id="path-83" class="st2" d="M646.5,164.9L646.5,164.9l-2.8,0.7l-2.4,1l-1.7,1l-1.5-0.2l-2.6,0.7l-0.8-0.3l-1.2-0.9l-0.6,0.4
		l-0.7-0.5l-2.2-0.8l-7.6,0.2l0,6.7l-0.1,7.8h2.2l1.1,1.2l0.1,0.5l1.8,0.2l1.3,0.8l0.9-0.4l2.1,0.4l0.6-0.6l0.8-0.2l0.2,1l0.6,0.2
		l0.8,0.8l1.5-0.1l0.2-0.7l0.7-0.3l-0.3-0.9l1-1.4l0.8,0.9l0.6-0.5l-0.2-0.6l0.7-1.1l0.6,0l0.6-0.8l0.6,0.4l0.7-0.2l2.2-1.8l0.5-2.1
		l0.8-1.4l0-0.9l-0.4-0.6l0.8-0.3V164.9"/>
	<path id="path-84" class="st0" d="M536.6,192.9l-11,0l-5.4,0v2.8h6.7h10.2v10.9l0.4-0.1l1.3,1.1l0.7-0.2l1.8,0.1l0.4,1.1l1.1-0.1
		l1.2,0.5l1.1-0.1l0.5,0.5l0.7-0.5l1.1,0.2l0.5,0.6l0.8,0.1l0.4,0.8l1-0.7l1.3,0.4l0.5,0.5l0.6-0.2l0.5,0.7l1.4-1.3l0.4,0.6h1.2
		l1.2,0.4l0.4,0.5l1.1-0.9l1.2-0.3l0.6,0.3l1.3-0.6l0.3,0.3l1.4,0l0.4-0.5l1.4,0.6l0.6,0.6l2.2,0.6l0.3-9.9l-1-6.2v-2.8H536.6"/>
	<path id="path-85" class="st3" d="M406.8,141.4l-0.9,0.2l-1-0.6l-2.2,0.8l-0.3,1l0.3,1.6l-0.2,2.9l-0.6,2.1l0.1,0.6l-0.6,4.8
		l-0.4,1.4l-0.8,1.6l-0.4,1.5l-0.6,0.9l0.8,1l-0.1,1.3l0.4,1.8l0.8,0.6l5.5,0l4.8,0l7.5,0.1h5.8l7.3,0l9.4-0.1v-10.3l0.7-1.8
		l-0.5-0.5l-1.1-0.1l-0.4-0.8l1.1-2l0.6-0.2l0.6-0.8l-0.1-0.5l0.6-0.7l0.3-1l1.2-1.7l-0.5-0.8l-1.3-0.4l-0.8-1l-11.6,0l-0.8,0.4
		l-2.2,0.1l-2.5,0.5l-1.4,0.6l-1.7,0.2l-0.7-0.3l-3.1,0.8l-0.2-0.4l-1.8-0.3l-1.5,0.1l-2.5,0.9l-2.9-0.6l-0.3-1.7l-0.5-0.7l-1.2-0.6
		L406.8,141.4"/>
	<path id="path-86" class="st2" d="M650.8,163.4L650.8,163.4l-3.2,1.2l-1,0.3l0,0v7.5v5.1h5.8h20.7l1-0.6l1.1,0.2l1.5-0.5l0.1-0.4
		l1.7-0.9l0.3-0.5l-1.6-1.1l-0.1-0.7l-0.7-0.2l-0.1-0.6l0.9-1l-0.5-0.6l1.4-1.2l0.3-0.6l0.7-0.4L679,168l-0.9,0l-1-1l0.1-0.8
		l-0.7-0.6l-0.4,0l-0.6-0.8h-24.7V163.4"/>
	<path id="path-87" class="st5" d="M698.9,166.6l-0.7,1.1l1.1-0.1L698.9,166.6"/>
	<path id="path-88" class="st5" d="M697,164.7l-1.5,0.1v3.3l-0.3,0.5l2.1-0.3l0.2-1.2l0.6-0.8l0.7,0.1l-0.6-0.4l-0.3-1.3H697"/>
	<path id="path-89" class="st6" d="M633.9,203.8l-1.9,0.4l-1.2,1.2l-0.1,0.6l1.9,1.2l0.6-0.1l0.9,1.2l0.2,0.6l0.9,1.2l1.3,0.7l0.7,1
		l1.5,1l-0.1,0.6l1,1l1.5,0.9l0.4,0.9l0.1,1.2l0.8,0.4l0.9,1.5l0,1l1.3,0.5l1.3-1.2l1.2-0.5l0.1-0.4l1.3-0.9l1.2-0.3l0.7-0.8
		l1.3-0.7l0.3-0.7h1.3l1-0.9l0.2-1.2l1.2-1.4l1.2-0.9l1-0.3l-6.4-5.4l-6.3-0.1l0.1-0.6l-0.9-1l-0.6,0.3l0-0.6l-6.9-0.3l-1.5,0.2
		L633.9,203.8"/>
	<path id="path-90" class="st0" d="M514.4,142.7l0,5.3h-0.1l0,11.2h4.1l9.5,0h17.6l0.2,0.3l2.9,1l0.7-0.6l0.8,0.1h2.6l3,1l0.4,0.8
		l1,0.2l-1-1.2l0.5-0.8l0.2-1.1l0.4-0.4l-0.7-0.6l0.2-1l-0.3-0.5l0.7-0.1v-10.1l-1.3-0.6l-1-1.1l1.5-1.2l0.1-0.6L514.4,142.7"/>
	<path id="path-91" class="st0" d="M604.2,195.7l-7-0.1l-0.7,0.1h-0.4h-0.3l0,1.4l-1.1,1.4l-0.2,1l-0.8,0.3l-0.2,0.9l-1,0.9l0.1,1.4
		l-0.6,1l-0.6,0.2h10.3h1.5l4.7,0l9.8,0.1l7.2,0l0.2-1.3l1.1-0.1l0.4-0.9l1.4-0.8l1.5,0l1.4-0.9l1.4-0.3l1.2-1.3l0.8-0.4l0.2,0.6
		l2.2-1.1l1,0.2l0.7-1l1-0.3l0.2-1.3l-11.2-0.1l-0.1,0.1l-4.8-0.1l-4.2-0.2l-1.1,0.1l-6.2-0.2l-7.1,0.1l-1.2-0.2L604.2,195.7"/>
	<path id="path-92" class="st0" d="M526.9,195.7h-6.7H520l0,14l-0.1,5.7v5.6H500l-0.2,0.6l0.6,0.6l0.8,0.3l1,1.5l1.4,0.6l1,1.1
		l1,0.5l1.2,1.3l2.2,1l0.6,0.6l0.2,1l1,1.2l0.1,1.4l1,1.6l1.4,0.7l0.7,0.7l3.5,1.4l1.4,0.9l0.9,0l0.8-1.1l0.3,0l0.6-1.9l1-1.2
		l1.4-0.2l0.3-0.6l1.3,0.4l1.5-0.1l2.5,0.3l0.9,1.2l1.1,0.4l0.3,0.5l1.2,0.7l0.7,0.8l0.2,1.1l0.7,1.4l0.6,0.5l0.6,1.7l1.2,0.8
		l0.8,0.9l0.3,1l1,0.8l0.6,0.1l0.7,0.9l-0.2,0.8l0.5,0.9l-0.1,0.9l1,1l0.5,1.7l0.8,0.7l1.2,0.2l0.9,0.7l1.1,0.1l1.5,0.9l1.8-0.1
		l1.3,0.3l0.7,0.7l1.7-0.6l-0.5-1l-0.2-1.1l-0.6-0.6l-0.2-1.7l-0.5-0.5l0-0.8l0.4-0.1l0.3-1.5l-0.6,0.2l0.2-0.7l0.6,0.2l0.8-2
		l1.3-1.9l1.3-1l0.2-1l1,0.3l1.1-0.5l-1.5-1.4l0.4-0.2l0.6,0.7l1.4-0.2l0,0.3l1-0.4l0.3,0.2l3.4-1.5l1.7-1.4l1-1.1l-0.1-1l-0.6-0.3
		l0.3-0.8l0.5,0.2l0.7-0.6l0.2,0.9l1,0.4l2.9-0.8l0.9,0l-0.5-0.6l1.3-2l-0.4-1.1l0.4-0.6l-0.2-0.8l0.6-0.6l0.6-1.4l-0.1-1.2
		l-1.5-2.3l0-1.2l-1.2-1.2v-5.8v-3l-0.8-0.2l-1.1,0.3l-0.6-0.5l-2.2-0.6l-0.6-0.6l-1.4-0.6l-0.4,0.5l-1.4,0l-0.3-0.3l-1.3,0.6
		l-0.6-0.3l-1.2,0.3l-1.1,0.9l-0.4-0.5l-1.2-0.4h-1.2l-0.4-0.6l-1.4,1.3l-0.5-0.7l-0.6,0.2l-0.5-0.5l-1.3-0.4l-1,0.7l-0.4-0.8
		l-0.8-0.1l-0.5-0.6l-1.1-0.2l-0.7,0.5l-0.5-0.5L544,209l-1.2-0.5l-1.1,0.1l-0.4-1.1l-1.8-0.1l-0.7,0.2l-1.3-1.1l-0.4,0.1v-10.9
		H526.9"/>
	<path id="path-93" class="st3" d="M468.8,164.9h-10.5l0,28.1l19.9,0l8.2,0v-6.6l-0.1-0.6l0-4.8l0-10.5h-11.2v-5.6L468.8,164.9"/>
	<path id="path-94" class="st0" d="M697.1,147.9l-4.5,0.1l-5.8-0.1l0.1,1.2l-0.3,1l0.5,1l-0.2,1.1l-0.6,1.1l0.5,1.5l-0.3,0.5
		l0.9,0.9l-0.2,3.9l0.1,0.5l4.6,0.1l-0.5-0.4l0.1-0.8l0.5-0.3l-0.1-0.8l0.4-2.4l1-1.1l0.5-1.3l0.5-0.5l0-1.4l1.9-0.5l0.9-1l-0.5-0.9
		l0.8-0.9L697.1,147.9"/>
	<path id="path-95" class="st2" d="M675.3,187.2l-1.5,0.3l-1.5,2.2l-0.5,1.7l0.3,0.8l1-0.4l1.2-2.1l0.5-1.3l0.8-0.3l0.7-1
		L675.3,187.2"/>
	<path id="path-96" class="st2" d="M671.8,187.6h-0.2h0.3H671.8"/>
	<path id="path-97" class="st2" d="M658.7,179.1l-0.3,1.7l-2.6,2.3l-0.7-0.5l-1.2,2l-0.6,0.5l-0.9-0.2l-1-0.8l-0.4,1.3l-1.1,1
		l-0.4,1l-1,0.8l-0.6,0.9l0,1l-1,0.5l-0.2-0.3l-2.6,1.1l-1.4,0.3l-0.8-0.6l-1.1,0.7l-0.7,0l-1-0.5l-0.8-1l0.1-0.5l-2.2,1.5l-2.1,0.8
		v0.4l-0.8,0.4l-0.1,0.5l-1.1,0.2l-0.4,0.6l-3,0.8l11.2,0.1l3.9,0.2l3.8,0.1l4.4,0l20.5-0.1l-0.7-2.1l-2.8-0.2l-1-0.6l0.3-0.3
		l1.2,0.9l0.8-0.7l-0.7-0.4l0.1-0.7l0.8-0.6l-0.6-1.2l0.7-1.6l-1.6-0.8l-0.6-0.7l-2-0.4l-0.3-0.9l-1.5,0.2l-0.2-0.6l0.4-0.8l0.7-0.2
		l0.5-0.9l-0.4-0.8l-0.7-0.5l-1.2-0.3v-0.8l-0.6-0.5l-0.9-0.1l-0.6,1.1L658.7,179.1"/>
	<path id="path-98" class="st6" d="M441.5,125.5h-32.1l-0.2,0.6l0.8,0.6l0.9,0.1l0.4,0.9l-0.3,0.7l0.6,1l0.1,0.9l0.7,0.5l-0.9,1.3
		l-0.2,1.3l0.6,1.3l-0.6,0.2l-0.4-1.5l-0.1-1.7l-0.7,0.1l-0.9-1.2l-1.3,0l-0.7-0.5l-1.5,0.3l-1.6-0.3l-1.6,0l-2.3-0.7L399,129
		l-0.6,1.1l0.5,1.7l1.1,0.8l0.6,2.2l0.5,0.4l0.8,3l1.1,1.2l-0.7,0.4l-0.2,0.8l1.1,0.5l0.8-0.3l1,0.2l1,0.6l0.9-0.2l0.5-0.1l1.2,0.6
		l0.5,0.7l0.3,1.7l2.9,0.6l2.5-0.9l1.5-0.1l1.8,0.3l0.2,0.4l3.1-0.8l0.7,0.3l1.7-0.2l1.4-0.6l2.5-0.5l2.2-0.1l0.8-0.4l11.6,0l0-1
		l-0.7-1l0.1-0.5l0-7.5L441.5,125.5"/>
	<path id="path-99" class="st6" d="M409.5,129.4l-0.3,0.5l0.9,0.4l0.1-1.1L409.5,129.4"/>
	<path id="path-100" class="st6" d="M407.8,127.9l-0.1,0.7l1.3,0.2l0.2-0.8l-0.8-0.9L407.8,127.9"/>
	<path id="path-101" class="st0" d="M646.5,172.5l-0.8,0.3l0.4,0.6l0,0.9l-0.8,1.4l-0.5,2.1l-2.2,1.8l-0.7,0.2l-0.6-0.4l-0.6,0.8
		l-0.6,0l-0.7,1.1l0.2,0.6l-0.6,0.5l-0.8-0.9l-1,1.4l0.3,0.9l-0.7,0.3l-0.2,0.7l-1.5,0.1l-0.2,1.7l0.7,1.1l0.9,0.8l0.3,0.6l1.1,0.6
		l0.7,0.1l-0.1,0.5l0.8,1l1,0.5l0.7,0l1.1-0.7l0.8,0.6l1.4-0.3l2.6-1.1l0.2,0.3l1-0.5l0-1l0.6-0.9l1-0.8l0.4-1l1.1-1l0.4-1.3l1,0.8
		l0.9,0.2l0.6-0.5l1.2-2l0.7,0.5l2.6-2.3l0.3-1.7l2.9,1.9l0.6-1.1l-0.6-1.6h-1l-1-0.5l-0.5,0.4l-0.9,0l-0.2,0.6l-1.7-0.4l-1.1,0.8
		l-0.7-0.2l-1.1,1l-1.1,0.5l0.1-2.9h-5.8V172.5"/>
	<path id="path-102" class="st6" d="M590.9,139.2l-0.8-0.1l-1.8-1l0.8-0.7l-0.5-0.4l-1.4,0.5l-3.9,1l-1.3-0.1l-0.4-0.2l-1.1,0.5v3.3
		l-0.3,0.3l-1.6,0.5l-1.3,1.2l-0.1,0.8l0.6,0.1l0.7,0.7l-0.6,0.9l0.1,1l-0.4,2.1l1.5,1l1.2,0.1l0.6,0.6l1.7,0.6l0.3,0.7l1.6,1
		l0.9,0.2l1.1,1.2l-0.2,0.9l0.3,0.6l0.1,0.8l0.8,0.6l-0.7,0.7l0.2,1.3l0.4,0.9l2,0.6l0.4,0.7l10.4,0.1h5.5l0.2-1.6l-0.7-1.2
		l-0.2-1.4l0.7-1.8l0.5-0.7l-0.2-1.1l0.5-1.3l0.6-0.3l0-0.9l0.4-1.3l1.6-2.3l0.8-0.7l0.1-0.7l-1.2,0.3l-0.9,1.4l-1.2,0.4l-0.9,1.1
		l-0.9,0.6l-0.6-0.2l0.3-0.9l0.9-1.3l1.1-0.1l0.2-0.7l-0.9-0.6l0.5-0.8l-1.3-0.1l0.5-0.8l0.1-1l-1.2-0.7l-0.6-0.7l-2.4-0.6l-0.7,0.2
		l-2.4-0.8l-5.8-1.1l-0.6-1L590.9,139.2"/>
	<path id="path-103" class="st1" d="M486.1,148H475l0,3v13.9v5.6h11.2l6.3,0l12.3,0l9.4,0v-11.2l0-11.2l-10.4,0H486.1"/>
	<path id="path-104" class="st5" d="M725.5,299.7l1.2,0.3l2.2-0.5l0.6-1l0.6-0.1l0-0.9l-1.2-0.4l-3.2-0.3h-3.1l-0.8-0.2l-1,0.9
		l0.6,1l-0.3,1.3l1.3-0.1l0.3,0.2l0.9-0.4L725.5,299.7"/>
</g>
</svg>
