<svg xmlns="http://www.w3.org/2000/svg" id="interactive-0" class="interactive border" width="736" height="360" viewBox="0 0 736 360"><g id="group-1" class="group"><text x="10" y="25" id="text-3" class="text" font-weight="bold" font-size="20">Time: </text><text x="120" y="27" id="text-4" class="text" font-size="20" font-weight="bold">376</text><text x="188" y="180" id="text-5" class="text" font-size="50" font-weight="bold" visibility="hidden"></text><circle cx="152.25" cy="182.75" r="40" id="circle-12" class="circle highlight" style="fill: rgb(255, 0, 0);"></circle><circle cx="145.533" cy="189.468" r="40" id="circle-13" class="circle highlight" style="fill: rgb(255, 16, 0);"></circle><circle cx="138.815" cy="196.185" r="40" id="circle-14" class="circle" style="fill: rgb(255, 32, 0);"></circle><circle cx="132.099" cy="202.904" r="40" id="circle-15" class="circle" style="fill: rgb(255, 47, 0);"></circle><circle cx="125.389" cy="209.629" r="40" id="circle-16" class="circle" style="fill: rgb(255, 62, 0);"></circle><circle cx="118.698" cy="216.373" r="40" id="circle-17" class="circle" style="fill: rgb(255, 78, 0);"></circle><circle cx="112.062" cy="223.171" r="40" id="circle-18" class="circle" style="fill: rgb(255, 93, 0);"></circle><circle cx="105.559" cy="230.096" r="40" id="circle-19" class="circle" style="fill: rgb(255, 108, 0);"></circle><circle cx="99.3466" cy="237.284" r="40" id="circle-20" class="circle" style="fill: rgb(255, 123, 0);"></circle><circle cx="93.7186" cy="244.937" r="40" id="circle-21" class="circle" style="fill: rgb(255, 139, 0);"></circle><circle cx="89.1982" cy="253.293" r="40" id="circle-22" class="circle" style="fill: rgb(255, 154, 0);"></circle><circle cx="86.6483" cy="262.444" r="40" id="circle-23" class="circle" style="fill: rgb(255, 169, 0);"></circle><circle cx="87.2333" cy="271.926" r="40" id="circle-24" class="circle" style="fill: rgb(255, 185, 0);"></circle><circle cx="91.796" cy="280.259" r="40" id="circle-25" class="circle" style="fill: rgb(255, 200, 0);"></circle><circle cx="99.7157" cy="285.505" r="40" id="circle-26" class="circle" style="fill: rgb(255, 215, 0);"></circle><circle cx="109.101" cy="286.976" r="40" id="circle-27" class="circle" style="fill: rgb(255, 231, 0);"></circle><circle cx="118.48" cy="285.46" r="40" id="circle-28" class="circle" style="fill: rgb(255, 246, 0);"></circle><circle cx="127.335" cy="282.021" r="40" id="circle-29" class="circle" style="fill: rgb(249, 255, 0);"></circle><circle cx="135.637" cy="277.403" r="40" id="circle-30" class="circle" style="fill: rgb(234, 255, 0);"></circle><circle cx="143.486" cy="272.051" r="40" id="circle-31" class="circle highlight" style="fill: rgb(218, 255, 0);"></circle><circle cx="150.996" cy="266.233" r="40" id="circle-32" class="circle" style="fill: rgb(203, 255, 0);"></circle><circle cx="158.268" cy="260.12" r="40" id="circle-33" class="circle highlight" style="fill: rgb(188, 255, 0); stroke: black; stroke-width: 3;"></circle></g><g id="group-2" class="group"><g id="button-6" class="button" transform="translate(318,230)" visibility="hidden"><rect x="0" y="-16" width="58.236328125" height="32" id="rectangle-8" class="rectangle" rx="2px" style=""></rect><text x="29.1181640625" y="1" id="text-7" class="text" alignment-baseline="middle" style="text-anchor: middle;">Start</text></g><g id="control-9" class="control" transform="translate( 152.25, 182.75)" visibility="hidden"><circle cx="0" cy="0" r="4" id="circle-10" class="circle"></circle><circle cx="0" cy="0" r="13" id="circle-11" class="circle"></circle></g></g></svg>