<?xml version="1.0" encoding="utf-8"?>
<!-- Generator: Adobe Illustrator 24.0.1, SVG Export Plug-In . SVG Version: 6.00 Build 0)  -->
<svg version="1.1" id="interactive-0" xmlns="http://www.w3.org/2000/svg" xmlns:xlink="http://www.w3.org/1999/xlink" x="0px"
	 y="0px" viewBox="0 0 664 164" style="enable-background:new 0 0 664 164;" xml:space="preserve">
<style type="text/css">
	.st0{fill:none;}
	.st1{fill:#404040;}
	.st2{fill:#333333;}
	.st3{font-family:'KaTeX_Main-Regular';}
	.st4{font-size:22px;}
	.st5{font-family:'KaTeX_Math-Italic';}
	.st6{fill:none;stroke:#6495ED;}
	.st7{fill:none;stroke:#333333;stroke-miterlimit:10;}
</style>
<g id="group-1">
	<path class="st0" d=""/>
	<path id="line-6" marker-start="url(#marker-8)" marker-end="url(#marker-8)" class="st1" d="M632,82"/>
	<g id="text-7">
		<text transform="matrix(1 0 0 1 476.6631 53)" class="st2 st3 st4">3</text>
	</g>
	<text id="text-10" transform="matrix(1 0 0 1 644 86)" class="st2 st5 st4">x</text>
	<line id="line-11" class="st6" x1="482" y1="82" x2="482" y2="82"/>
	<line id="line-12" class="st6" x1="332" y1="82" x2="482" y2="82"/>
	<line id="line-13" class="st7" x1="82" y1="76" x2="82" y2="88"/>
	<text id="text-14" transform="matrix(1 0 0 1 70.665 117)" class="st2 st3 st4">-5</text>
	<line id="line-15" class="st7" x1="132" y1="76" x2="132" y2="88"/>
	<text id="text-16" transform="matrix(1 0 0 1 120.665 117)" class="st2 st3 st4">-4</text>
	<line id="line-17" class="st7" x1="182" y1="76" x2="182" y2="88"/>
	<text id="text-18" transform="matrix(1 0 0 1 170.665 117)" class="st2 st3 st4">-3</text>
	<line id="line-19" class="st7" x1="232" y1="76" x2="232" y2="88"/>
	<text id="text-20" transform="matrix(1 0 0 1 220.665 117)" class="st2 st3 st4">-2</text>
	<line id="line-21" class="st7" x1="282" y1="76" x2="282" y2="88"/>
	<text id="text-22" transform="matrix(1 0 0 1 270.665 117)" class="st2 st3 st4">-1</text>
	<line id="line-23" class="st7" x1="332" y1="76" x2="332" y2="88"/>
	<text id="text-24" transform="matrix(1 0 0 1 326.6631 117)" class="st2 st3 st4">0</text>
	<line id="line-25" class="st7" x1="382" y1="76" x2="382" y2="88"/>
	<text id="text-26" transform="matrix(1 0 0 1 376.6631 117)" class="st2 st3 st4">1</text>
	<line id="line-27" class="st7" x1="432" y1="76" x2="432" y2="88"/>
	<text id="text-28" transform="matrix(1 0 0 1 426.6631 117)" class="st2 st3 st4">2</text>
	<line id="line-29" class="st7" x1="482" y1="76" x2="482" y2="88"/>
	<text id="text-30" transform="matrix(1 0 0 1 476.6631 117)" class="st2 st3 st4">3</text>
	<line id="line-31" class="st7" x1="532" y1="76" x2="532" y2="88"/>
	<text id="text-32" transform="matrix(1 0 0 1 526.6631 117)" class="st2 st3 st4">4</text>
	<line id="line-33" class="st7" x1="582" y1="76" x2="582" y2="88"/>
	<text id="text-34" transform="matrix(1 0 0 1 576.6631 117)" class="st2 st3 st4">5</text>
	<circle id="circle-35" class="st2" cx="332" cy="82" r="3"/>
</g>
<g id="group-2">
	<g id="control-3" transform="translate( 150, 0)">
		<circle id="circle-4" class="st2" cx="332" cy="82" r="4"/>
	</g>
</g>
<g>
	<g>
		<line class="st7" x1="624.8" y1="82" x2="29.2" y2="82"/>
		<g>
			<polygon class="st2" points="623.4,77 632,82 623.4,87 			"/>
		</g>
		<g>
			<polygon class="st2" points="30.6,77 22,82 30.6,87 			"/>
		</g>
	</g>
</g>
</svg>
