<svg id="a5fdf935-0932-40e0-ac60-1ba2fd1240bb" data-name="Layer 1" xmlns="http://www.w3.org/2000/svg" viewBox="0 0 600 400"><defs><style>.e3685a9e-acb3-4d41-b69c-19d58ad3ae8b{fill:#f8f8f8;stroke:#404040;}.e3685a9e-acb3-4d41-b69c-19d58ad3ae8b,.ed47ee77-1088-42e6-94c5-18757f5e7a87{stroke-miterlimit:10;}.af4ca2de-b89f-47d1-91b5-82ba37a2e6a7{fill:#333;}.ed47ee77-1088-42e6-94c5-18757f5e7a87{fill:none;stroke:#333;}</style></defs><title>prime-factorization</title><circle class="e3685a9e-acb3-4d41-b69c-19d58ad3ae8b" cx="236" cy="160" r="32"/><path class="af4ca2de-b89f-47d1-91b5-82ba37a2e6a7" d="M233,157.46a1.42,1.42,0,0,1-1.13-.46,1.63,1.63,0,0,1-.42-1.13,4.2,4.2,0,0,1,1.41-3.18,4.71,4.71,0,0,1,3.35-1.32,5.56,5.56,0,0,1,3.67,1.19,5,5,0,0,1,1.79,3.13c0,.31,0,.59,0,.85a4.86,4.86,0,0,1-.9,2.8,17,17,0,0,1-2.91,3c-.62.53-1.47,1.32-2.57,2.37l-1.52,1.44,2,0a29.83,29.83,0,0,0,4.29-.13c.07,0,.16-.19.26-.54a14.92,14.92,0,0,0,.36-1.75v-.07h1v.07l-.72,4.71v.08h-9.55V168a1.49,1.49,0,0,1,.06-.59l2.16-2.44q2.81-3.12,3.6-4.12a7.44,7.44,0,0,0,1.72-4.3,4.5,4.5,0,0,0-.88-2.84,3,3,0,0,0-2.49-1.14,2.83,2.83,0,0,0-2.42,1.33,2.77,2.77,0,0,1-.15.29.54.54,0,0,0-.08.15s.05,0,.13,0a1.29,1.29,0,0,1,1,.46,1.59,1.59,0,0,1,.4,1.08,1.53,1.53,0,0,1-.42,1.09A1.48,1.48,0,0,1,233,157.46Z"/><circle class="e3685a9e-acb3-4d41-b69c-19d58ad3ae8b" cx="300" cy="80" r="32"/><path class="af4ca2de-b89f-47d1-91b5-82ba37a2e6a7" d="M291.41,87.33c-.3-.06-1.66-.08-4.09-.08s-3.75,0-4,.08H283V86.14h.67a15.31,15.31,0,0,0,1.93-.07,1.7,1.7,0,0,0,.61-.31V72.46a.57.57,0,0,0-.2.07,7.62,7.62,0,0,1-2.65.49h-.49V71.84h.49a7.16,7.16,0,0,0,3.6-1,3.53,3.53,0,0,0,.8-.59s.13-.08.31-.08a.6.6,0,0,1,.43.16V78l0,7.72a2.53,2.53,0,0,0,1.67.38h1.52v1.19Z"/><path class="af4ca2de-b89f-47d1-91b5-82ba37a2e6a7" d="M296.32,81.82a1.47,1.47,0,0,1,1.47,1.49,1.35,1.35,0,0,1-.44,1,1.41,1.41,0,0,1-1,.41h-.18l.08.13a3.35,3.35,0,0,0,1.18,1.36,3.27,3.27,0,0,0,1.88.54A2.72,2.72,0,0,0,302,85.22a7.83,7.83,0,0,0,.49-3.3,6.41,6.41,0,0,0-.69-3.57,2,2,0,0,0-1.65-.85,3.3,3.3,0,0,0-3,1.75.55.55,0,0,1-.2.22,1.41,1.41,0,0,1-.37,0c-.29,0-.45,0-.49-.15s-.05-1.57-.05-4.5c0-.52,0-1.12,0-1.83s0-1.15,0-1.34q0-1.44.15-1.44a.16.16,0,0,1,.1,0l.47.16a9.21,9.21,0,0,0,3.42.67,8.65,8.65,0,0,0,3.5-.73.86.86,0,0,1,.33-.1c.14,0,.21.16.21.47V71a6.6,6.6,0,0,1-5.28,2.5,6.34,6.34,0,0,1-1.44-.16l-.26,0V77.7a4.81,4.81,0,0,1,3-1.18,4.57,4.57,0,0,1,1.06.13A4.87,4.87,0,0,1,304,78.6a6,6,0,0,1,1.09,3.56,5.64,5.64,0,0,1-1.63,4,5.36,5.36,0,0,1-4,1.7,4.27,4.27,0,0,1-2.75-.9,2.76,2.76,0,0,1-.85-.85,4.51,4.51,0,0,1-1-2.29s0-.13,0-.24,0-.19,0-.25a1.52,1.52,0,0,1,.42-1.13A1.42,1.42,0,0,1,296.32,81.82Z"/><path class="af4ca2de-b89f-47d1-91b5-82ba37a2e6a7" d="M316,71.86a2.47,2.47,0,0,0-1.6-.64,3.71,3.71,0,0,0-3,1.54,9,9,0,0,0-1.21,5.2l0,.1.21-.33a3.27,3.27,0,0,1,2.85-1.54,4.34,4.34,0,0,1,2.08.48,5.29,5.29,0,0,1,1.24,1,6.59,6.59,0,0,1,1,1.45,6.92,6.92,0,0,1,.54,2.75v.47a4.31,4.31,0,0,1-.13,1.1,5.73,5.73,0,0,1-1.59,2.86A4.75,4.75,0,0,1,314,87.79a4.27,4.27,0,0,1-1,.1,4.51,4.51,0,0,1-.87-.07,4.6,4.6,0,0,1-3-2.06,12.06,12.06,0,0,1-1.52-6.49,11.36,11.36,0,0,1,1-4.86,7.65,7.65,0,0,1,2.73-3.24,5.13,5.13,0,0,1,3-1,3.53,3.53,0,0,1,2.4.8,2.75,2.75,0,0,1,.92,2.19,1.42,1.42,0,0,1-.38,1,1.34,1.34,0,0,1-1,.38,1.37,1.37,0,0,1-1-.36,1.31,1.31,0,0,1-.37-1A1.28,1.28,0,0,1,316,71.86ZM314.9,78a2.26,2.26,0,0,0-1.86-.93,2.1,2.1,0,0,0-1.54.59,5.59,5.59,0,0,0-1.26,4.07,10.67,10.67,0,0,0,.31,3.16,2.94,2.94,0,0,0,.87,1.32,2.15,2.15,0,0,0,1.47.54,2.34,2.34,0,0,0,2-1,2.82,2.82,0,0,0,.48-1.29,16.53,16.53,0,0,0,.11-2.16v-.82a16.86,16.86,0,0,0-.11-2.21A2.82,2.82,0,0,0,314.9,78Z"/><circle class="e3685a9e-acb3-4d41-b69c-19d58ad3ae8b" cx="364" cy="160" r="32"/><path class="af4ca2de-b89f-47d1-91b5-82ba37a2e6a7" d="M352.72,156.72s.17-1,.44-2.81l.41-2.75s.18,0,.52,0h.51v.1c0,.17.13.32.39.44a4,4,0,0,0,1.35.23c.64,0,2.09.05,4.33.05h3.12v1L362,155.33c-.26.36-.55.76-.88,1.19l-.74,1-.31.44a12,12,0,0,0-1.6,5.58c-.06.7-.11,1.66-.13,2.88,0,.24,0,.49,0,.73s0,.45,0,.61V168a1.37,1.37,0,0,1-.5.75,1.44,1.44,0,0,1-.86.31,1.24,1.24,0,0,1-1-.43,1.7,1.7,0,0,1-.38-1.17c0-.26,0-.75.1-1.47a18.07,18.07,0,0,1,2.4-7c.34-.55,1.06-1.58,2.16-3.11l1.18-1.62h-2.39a31.24,31.24,0,0,0-4.71.15,1.38,1.38,0,0,0-.28.57,9.33,9.33,0,0,0-.26,1.21,2.33,2.33,0,0,1-.08.49v.07h-1Z"/><path class="af4ca2de-b89f-47d1-91b5-82ba37a2e6a7" d="M368.6,159.88a7.58,7.58,0,0,1-1.94-1.72,3.79,3.79,0,0,1-.69-2.37,3.72,3.72,0,0,1,.42-1.85,4.49,4.49,0,0,1,4.16-2.57,5.11,5.11,0,0,1,3,.91,3.75,3.75,0,0,1,1.59,2.35,6.15,6.15,0,0,1,0,1.39,4.86,4.86,0,0,1-2.34,2.94l-.31.2c1,.65,1.46,1,1.49,1a4.72,4.72,0,0,1,1.93,3.83,4.8,4.8,0,0,1-1.53,3.57,5.3,5.3,0,0,1-3.82,1.48,5.16,5.16,0,0,1-4.66-2.32,3.82,3.82,0,0,1-.64-2.24Q365.28,161.7,368.6,159.88Zm-1.67,4.58A3.21,3.21,0,0,0,368,167a3.76,3.76,0,0,0,2.58,1,4.16,4.16,0,0,0,1.91-.44,3.16,3.16,0,0,0,1.3-1.13,2.57,2.57,0,0,0,.44-1.41,2.63,2.63,0,0,0-.9-2,25.75,25.75,0,0,0-2.14-1.47l-.78-.5-.66-.42-.2-.13-.31.15a5,5,0,0,0-2.14,2.58A4,4,0,0,0,366.93,164.46Zm6.79-9.16a2.66,2.66,0,0,0-.72-1.88,3.19,3.19,0,0,0-1.75-1,7,7,0,0,0-.85,0,3.11,3.11,0,0,0-2.29.93,1.83,1.83,0,0,0-.64,1.41,2,2,0,0,0,.92,1.75q.14.13,1.65,1.08l1.49,1,.33-.22a2.28,2.28,0,0,0,.47-.35A3.31,3.31,0,0,0,373.72,155.3Z"/><circle class="e3685a9e-acb3-4d41-b69c-19d58ad3ae8b" cx="428.11" cy="240" r="32"/><path class="af4ca2de-b89f-47d1-91b5-82ba37a2e6a7" d="M418.69,236.59a1.42,1.42,0,0,1-1.1-.44,1.64,1.64,0,0,1-.4-1.13,3.12,3.12,0,0,1,1.16-2.46,4.93,4.93,0,0,1,2.68-1.17h.38c.6,0,1,0,1.13,0a5.86,5.86,0,0,1,1.73.54,3.8,3.8,0,0,1,2.13,2.42,2.17,2.17,0,0,1,.08.69,4.28,4.28,0,0,1-.94,2.72,5.28,5.28,0,0,1-2.35,1.71c-.09,0-.09.06,0,.07a1,1,0,0,0,.26.08,5.59,5.59,0,0,1,2.65,1.63,4,4,0,0,1,1.08,2.72,4.56,4.56,0,0,1-.49,2,5.06,5.06,0,0,1-2,2.17,5.83,5.83,0,0,1-3.13.87,6.17,6.17,0,0,1-3-.72,3.75,3.75,0,0,1-1.77-1.93,2.78,2.78,0,0,1-.26-1.26,1.59,1.59,0,0,1,1.62-1.62,1.59,1.59,0,0,1,1.18.46,1.57,1.57,0,0,1,.47,1.16,1.59,1.59,0,0,1-.34,1,1.44,1.44,0,0,1-.9.57l-.18.05a4.86,4.86,0,0,0,3.19,1.16,2.29,2.29,0,0,0,2.14-1.36,6,6,0,0,0,.43-2.6v-.52c0-1.63-.54-2.72-1.64-3.26a4.93,4.93,0,0,0-1.57-.18l-1.08,0-.08,0a1,1,0,0,1-.05-.41.62.62,0,0,1,.08-.39c.05,0,.09-.08.13-.08a9.84,9.84,0,0,0,1.49-.12,2.24,2.24,0,0,0,1.72-1.28,5.6,5.6,0,0,0,.59-2.69,2.46,2.46,0,0,0-.9-2.24,2.13,2.13,0,0,0-1.21-.36,3.83,3.83,0,0,0-2.26.7.79.79,0,0,0-.23.17,1.07,1.07,0,0,0-.21.22l-.08.1.18,0a1.24,1.24,0,0,1,.87.49,1.57,1.57,0,0,1,.34,1,1.42,1.42,0,0,1-.42,1A1.45,1.45,0,0,1,418.69,236.59Z"/><path class="af4ca2de-b89f-47d1-91b5-82ba37a2e6a7" d="M432.73,246a1.46,1.46,0,0,1-.27.9,1.08,1.08,0,0,1-.71.44l-.1,0s.06.07.18.15a1.77,1.77,0,0,0,.28.14,3.76,3.76,0,0,0,1.47.25,2.58,2.58,0,0,0,.67-.05,3.47,3.47,0,0,0,2.08-1.59c.67-1,1-2.63,1-5v-.18l-.13.2a3.28,3.28,0,0,1-3,1.75,4.37,4.37,0,0,1-3.5-1.77,5.55,5.55,0,0,1-1.39-4,5.33,5.33,0,0,1,1.78-4.37,5.08,5.08,0,0,1,3.19-1.52l.08,0h.48a4,4,0,0,1,.75.05,4.9,4.9,0,0,1,3.27,2.65,13.27,13.27,0,0,1,1.1,5.82,11.34,11.34,0,0,1-1.54,6.09,7.13,7.13,0,0,1-2.17,2.26,4.9,4.9,0,0,1-2.67.81,4.21,4.21,0,0,1-2.61-.76,2.61,2.61,0,0,1-1-2.2c0-1,.46-1.44,1.37-1.44a1.33,1.33,0,0,1,1,.36A1.31,1.31,0,0,1,432.73,246Zm2.6-13.56a4.3,4.3,0,0,0-.72-.05,2.25,2.25,0,0,0-1.67.7,2.68,2.68,0,0,0-.71,1.35,14.74,14.74,0,0,0-.17,2.68,24.7,24.7,0,0,0,.13,2.78,2.6,2.6,0,0,0,.76,1.58,2.21,2.21,0,0,0,1.61.61h.1a2.37,2.37,0,0,0,2-1.45,7.5,7.5,0,0,0,.63-3.23,14.7,14.7,0,0,0-.2-2.88,2.82,2.82,0,0,0-.63-1.34A2.2,2.2,0,0,0,435.33,232.47Z"/><circle class="e3685a9e-acb3-4d41-b69c-19d58ad3ae8b" cx="492" cy="320" r="32"/><path class="af4ca2de-b89f-47d1-91b5-82ba37a2e6a7" d="M490,328.5c-.29-.05-1.65-.08-4.09-.08s-3.75,0-4,.08h-.31v-1.18h.67a14.51,14.51,0,0,0,1.93-.08,1.65,1.65,0,0,0,.62-.31v-13.3a.84.84,0,0,0-.21.08,7.62,7.62,0,0,1-2.65.49h-.48V313h.48a7.13,7.13,0,0,0,3.6-1,3.56,3.56,0,0,0,.8-.6c0-.05.14-.07.31-.07a.67.67,0,0,1,.44.15v7.69l0,7.72a2.45,2.45,0,0,0,1.67.39h1.51v1.18Z"/><path class="af4ca2de-b89f-47d1-91b5-82ba37a2e6a7" d="M495.44,316.59a1.4,1.4,0,0,1-1.09-.44A1.59,1.59,0,0,1,494,315a3.09,3.09,0,0,1,1.16-2.46,4.9,4.9,0,0,1,2.67-1.17h.39c.6,0,1,0,1.13,0A5.89,5.89,0,0,1,501,312a3.79,3.79,0,0,1,2.14,2.42,2.51,2.51,0,0,1,.08.69,4.34,4.34,0,0,1-.94,2.72,5.31,5.31,0,0,1-2.36,1.71c-.08,0-.08.06,0,.07a1.16,1.16,0,0,0,.26.08,5.5,5.5,0,0,1,2.65,1.63,4,4,0,0,1,1.08,2.72,4.43,4.43,0,0,1-.49,2,5,5,0,0,1-2,2.17,5.78,5.78,0,0,1-3.12.87,6.12,6.12,0,0,1-3-.72,3.73,3.73,0,0,1-1.78-1.93,2.92,2.92,0,0,1-.26-1.26,1.53,1.53,0,0,1,.48-1.17,1.57,1.57,0,0,1,1.14-.45,1.6,1.6,0,0,1,1.19.46,1.56,1.56,0,0,1,.46,1.16,1.64,1.64,0,0,1-.33,1,1.5,1.5,0,0,1-.9.57l-.18.05A4.84,4.84,0,0,0,498.3,328a2.29,2.29,0,0,0,2.13-1.36,6,6,0,0,0,.44-2.6v-.52c0-1.63-.55-2.72-1.65-3.26a4.93,4.93,0,0,0-1.57-.18l-1.08,0-.07-.05a.83.83,0,0,1-.06-.41.62.62,0,0,1,.08-.39c.05-.05.09-.08.13-.08a9.64,9.64,0,0,0,1.49-.12,2.22,2.22,0,0,0,1.72-1.28,5.6,5.6,0,0,0,.6-2.69,2.46,2.46,0,0,0-.9-2.24,2.15,2.15,0,0,0-1.21-.36,3.87,3.87,0,0,0-2.27.7,1.2,1.2,0,0,0-.23.17,1.33,1.33,0,0,0-.2.22l-.08.1.18.05a1.22,1.22,0,0,1,.86.49,1.58,1.58,0,0,1,.35,1,1.39,1.39,0,0,1-.43,1A1.44,1.44,0,0,1,495.44,316.59Z"/><circle class="e3685a9e-acb3-4d41-b69c-19d58ad3ae8b" cx="300" cy="240" r="32"/><path class="af4ca2de-b89f-47d1-91b5-82ba37a2e6a7" d="M297.14,237.46A1.42,1.42,0,0,1,296,237a1.62,1.62,0,0,1-.41-1.13,4.19,4.19,0,0,1,1.4-3.18,4.71,4.71,0,0,1,3.36-1.32,5.56,5.56,0,0,1,3.66,1.19,5,5,0,0,1,1.79,3.13c0,.31.05.59.05.85a4.86,4.86,0,0,1-.9,2.8,17,17,0,0,1-2.91,3c-.61.53-1.47,1.32-2.57,2.37L298,246.11l2,0a29.83,29.83,0,0,0,4.29-.13c.07,0,.16-.19.26-.54a14.92,14.92,0,0,0,.36-1.75v-.07h1v.07l-.72,4.71v.08H295.6V248a1.59,1.59,0,0,1,0-.59l2.16-2.44q2.81-3.12,3.6-4.12a7.44,7.44,0,0,0,1.72-4.3,4.5,4.5,0,0,0-.88-2.84,3,3,0,0,0-2.49-1.14,2.8,2.8,0,0,0-2.41,1.33l-.16.29a.54.54,0,0,0-.08.15s.05,0,.13,0a1.29,1.29,0,0,1,1,.46,1.59,1.59,0,0,1,.4,1.08,1.53,1.53,0,0,1-.42,1.09A1.47,1.47,0,0,1,297.14,237.46Z"/><circle class="e3685a9e-acb3-4d41-b69c-19d58ad3ae8b" cx="364" cy="320" r="32"/><path class="af4ca2de-b89f-47d1-91b5-82ba37a2e6a7" d="M360.58,316.59a1.42,1.42,0,0,1-1.1-.44,1.64,1.64,0,0,1-.4-1.13,3.12,3.12,0,0,1,1.16-2.46,4.93,4.93,0,0,1,2.68-1.17h.38q.9,0,1.14,0a5.89,5.89,0,0,1,1.72.54,3.8,3.8,0,0,1,2.13,2.42,2.17,2.17,0,0,1,.08.69,4.28,4.28,0,0,1-.94,2.72,5.28,5.28,0,0,1-2.35,1.71c-.09,0-.09.06,0,.07a1,1,0,0,0,.26.08,5.55,5.55,0,0,1,2.65,1.63,4,4,0,0,1,1.08,2.72,4.56,4.56,0,0,1-.49,2,5.06,5.06,0,0,1-2,2.17,5.83,5.83,0,0,1-3.13.87,6.17,6.17,0,0,1-3-.72,3.75,3.75,0,0,1-1.77-1.93,2.92,2.92,0,0,1-.26-1.26,1.59,1.59,0,0,1,1.62-1.62,1.64,1.64,0,0,1,1.31,2.64,1.44,1.44,0,0,1-.9.57l-.18.05a4.86,4.86,0,0,0,3.19,1.16,2.29,2.29,0,0,0,2.14-1.36A6,6,0,0,0,366,324v-.52c0-1.63-.54-2.72-1.64-3.26a4.93,4.93,0,0,0-1.57-.18l-1.08,0-.08-.05a1,1,0,0,1-.05-.41.62.62,0,0,1,.08-.39c0-.05.09-.08.13-.08a9.74,9.74,0,0,0,1.49-.12,2.24,2.24,0,0,0,1.72-1.28,5.6,5.6,0,0,0,.59-2.69,2.46,2.46,0,0,0-.9-2.24,2.13,2.13,0,0,0-1.21-.36,3.83,3.83,0,0,0-2.26.7.79.79,0,0,0-.23.17,1.07,1.07,0,0,0-.21.22l-.08.1.19.05a1.22,1.22,0,0,1,.86.49,1.57,1.57,0,0,1,.34,1,1.42,1.42,0,0,1-.42,1A1.45,1.45,0,0,1,360.58,316.59Z"/><line class="ed47ee77-1088-42e6-94c5-18757f5e7a87" x1="324.65" y1="209.19" x2="344.01" y2="184.98"/><polygon class="af4ca2de-b89f-47d1-91b5-82ba37a2e6a7" points="330.45 209.34 325.61 207.99 323.23 203.56 319.99 215.02 330.45 209.34"/><line class="ed47ee77-1088-42e6-94c5-18757f5e7a87" x1="280.01" y1="104.98" x2="260.65" y2="129.19"/><polygon class="af4ca2de-b89f-47d1-91b5-82ba37a2e6a7" points="259.23 123.56 261.61 127.98 266.45 129.34 255.99 135.02 259.23 123.56"/><line class="ed47ee77-1088-42e6-94c5-18757f5e7a87" x1="339.35" y1="129.19" x2="319.99" y2="104.98"/><polygon class="af4ca2de-b89f-47d1-91b5-82ba37a2e6a7" points="340.77 123.56 338.39 127.98 333.55 129.34 344.01 135.02 340.77 123.56"/><line class="ed47ee77-1088-42e6-94c5-18757f5e7a87" x1="388.67" y1="289.21" x2="408.1" y2="264.97"/><polygon class="af4ca2de-b89f-47d1-91b5-82ba37a2e6a7" points="394.48 289.37 389.64 288.01 387.26 283.58 384.01 295.03 394.48 289.37"/><line class="ed47ee77-1088-42e6-94c5-18757f5e7a87" x1="403.44" y1="209.21" x2="384.01" y2="184.97"/><polygon class="af4ca2de-b89f-47d1-91b5-82ba37a2e6a7" points="404.85 203.58 402.47 208.01 397.63 209.37 408.1 215.03 404.85 203.58"/><line class="ed47ee77-1088-42e6-94c5-18757f5e7a87" x1="448.07" y1="265" x2="467.38" y2="289.17"/><polygon class="af4ca2de-b89f-47d1-91b5-82ba37a2e6a7" points="461.57 289.32 466.41 287.96 468.8 283.54 472.04 295 461.57 289.32"/></svg>