<?xml version="1.0" encoding="utf-8"?>
<!-- Generator: Adobe Illustrator 23.0.4, SVG Export Plug-In . SVG Version: 6.00 Build 0)  -->
<svg version="1.1" id="interactive-0" xmlns="http://www.w3.org/2000/svg" xmlns:xlink="http://www.w3.org/1999/xlink" x="0px"
	 y="0px" viewBox="0 0 300 150" style="enable-background:new 0 0 300 150;" xml:space="preserve">
<style type="text/css">
	.st0{fill:#404040;stroke:#404040;}
	.st1{fill:#333333;}
	.st2{font-family:'HelveticaNeue';}
	.st3{font-size:17.9999px;}
	.st4{fill:#F2F2F2;stroke:#404040;}
</style>
<path id="rectangle-3" class="st0" d="M118.7,35.3L118.7,35.3c5.4,0,9.7,4.3,9.7,9.7l0,0c0,5.4-4.3,9.7-9.7,9.7l0,0
	c-5.4,0-9.7-4.3-9.7-9.7l0,0C109,39.7,113.3,35.3,118.7,35.3z"/>
<text id="text-4" transform="matrix(1 0 0 1 145.6841 48.3838)" class="st1 st2 st3">blue</text>
<path id="rectangle-6" class="st4" d="M118.7,65.3L118.7,65.3c5.4,0,9.7,4.3,9.7,9.7l0,0c0,5.4-4.3,9.7-9.7,9.7l0,0
	c-5.4,0-9.7-4.3-9.7-9.7l0,0C109,69.7,113.3,65.3,118.7,65.3z"/>
<text id="text-7" transform="matrix(1 0 0 1 145.6841 78.3838)" class="st1 st2 st3">red</text>
<path id="rectangle-9" class="st4" d="M118.7,95.3L118.7,95.3c5.4,0,9.7,4.3,9.7,9.7l0,0c0,5.4-4.3,9.7-9.7,9.7l0,0
	c-5.4,0-9.7-4.3-9.7-9.7l0,0C109,99.7,113.3,95.3,118.7,95.3z"/>
<text id="text-10" transform="matrix(1 0 0 1 145.6841 108.3828)" class="st1 st2 st3">green</text>
</svg>
