<svg id="f4d5f601-dded-487c-aa6f-cad1f9189f14" data-name="svg-23" xmlns="http://www.w3.org/2000/svg" xmlns:xlink="http://www.w3.org/1999/xlink" viewBox="0 0 736 516"><defs><style>.f98d770f-1e0f-41bb-9f5a-f722f73634de{fill:none;}.a0216353-505c-420f-904b-0d5aa4069af5,.a173b87a-5560-486a-904c-ae4d8620c19f,.abdc0cb4-1dbb-4645-a9ab-913bac1b75d7,.f98d770f-1e0f-41bb-9f5a-f722f73634de{stroke:#333;}.a173b87a-5560-486a-904c-ae4d8620c19f,.abdc0cb4-1dbb-4645-a9ab-913bac1b75d7,.f98d770f-1e0f-41bb-9f5a-f722f73634de{stroke-miterlimit:10;}.baf0624c-faa2-455b-8889-65a44d2cbae6{clip-path:url(#e0dca91d-a1f8-4cf9-bd65-ffe073a9ec4e);}.a86c07ed-442b-4bae-9b26-a1c07f3b2d8c{opacity:0.4;}.abdc0cb4-1dbb-4645-a9ab-913bac1b75d7{fill:#eee;}.a173b87a-5560-486a-904c-ae4d8620c19f,.a6463370-5395-40d2-b423-fdeceb16a3a6,.e0498134-4ad8-43a4-8827-361258d43b96,.f136a775-e64b-48b4-a226-64ebbf451571{fill:#333;}.a0216353-505c-420f-904b-0d5aa4069af5{fill:#f8f8f8;}.a6463370-5395-40d2-b423-fdeceb16a3a6,.f136a775-e64b-48b4-a226-64ebbf451571{isolation:isolate;}.f136a775-e64b-48b4-a226-64ebbf451571{font-size:18px;font-family:HelveticaNeue, Helvetica Neue;}.a6463370-5395-40d2-b423-fdeceb16a3a6{font-size:22px;font-family:KaTeX_Math-Italic, KaTeX_Math;font-style:italic;}</style><clipPath id="e0dca91d-a1f8-4cf9-bd65-ffe073a9ec4e"><rect class="f98d770f-1e0f-41bb-9f5a-f722f73634de" x="16" y="16" width="700" height="400"/></clipPath></defs><title>riemann-sum</title><g id="a68e92fc-1b88-4f6b-a4ca-b3cacb98626a" data-name="group-1"><rect id="b698689c-2c2d-4cb2-9c91-b3d6671abee8" data-name="rectangle-41" class="f98d770f-1e0f-41bb-9f5a-f722f73634de" x="16" y="16" width="700" height="400"/><g class="baf0624c-faa2-455b-8889-65a44d2cbae6"><g id="ac4f092c-db5e-4aa7-bcdb-c0e62e34f065" data-name="plot-19"><g id="a2e2cc04-94fe-43de-aa76-fd0314695c26" data-name="group-29" class="a86c07ed-442b-4bae-9b26-a1c07f3b2d8c"><line id="a4b881e2-0d73-41d4-b56f-dcf23a2f9edc" data-name="line-30" class="f98d770f-1e0f-41bb-9f5a-f722f73634de" x1="16" y1="16" x2="16" y2="416"/><line id="f5e61b03-fd9a-4d19-92c5-a856e122bdbd" data-name="line-31" class="f98d770f-1e0f-41bb-9f5a-f722f73634de" x1="116" y1="16" x2="116" y2="416"/><line id="a00aa722-c0d6-441f-8566-24bc02d27f2b" data-name="line-32" class="f98d770f-1e0f-41bb-9f5a-f722f73634de" x1="216" y1="16" x2="216" y2="416"/><line id="b3dcf322-e706-4d0f-95a1-a2c65fad6add" data-name="line-33" class="f98d770f-1e0f-41bb-9f5a-f722f73634de" x1="316" y1="16" x2="316" y2="416"/><line id="bdaa5d7b-4162-4142-8462-35fcfe1362f9" data-name="line-34" class="f98d770f-1e0f-41bb-9f5a-f722f73634de" x1="416" y1="16" x2="416" y2="416"/><line id="b9b68434-a9ce-40dc-959b-70f8f0549996" data-name="line-35" class="f98d770f-1e0f-41bb-9f5a-f722f73634de" x1="516" y1="16" x2="516" y2="416"/><line id="e8bcc5b9-1fe9-4cbe-b9ec-fd74a9c9a858" data-name="line-36" class="f98d770f-1e0f-41bb-9f5a-f722f73634de" x1="616" y1="16" x2="616" y2="416"/><line id="b62f2822-082f-42a1-af7b-3eb1e6042b8f" data-name="line-37" class="f98d770f-1e0f-41bb-9f5a-f722f73634de" x1="16" y1="16" x2="716" y2="16"/><line id="a0c24075-da15-411e-b81e-564ca91e640d" data-name="line-38" class="f98d770f-1e0f-41bb-9f5a-f722f73634de" x1="16" y1="116" x2="716" y2="116"/><line id="b7a66f6b-c165-4ac5-9d93-2dd58f4072fe" data-name="line-39" class="f98d770f-1e0f-41bb-9f5a-f722f73634de" x1="16" y1="216" x2="716" y2="216"/><line id="f9d5862b-3442-4cbc-9972-8ed172a5e5a2" data-name="line-40" class="f98d770f-1e0f-41bb-9f5a-f722f73634de" x1="16" y1="316" x2="716" y2="316"/></g><rect class="abdc0cb4-1dbb-4645-a9ab-913bac1b75d7" x="115.801" y="278.58" width="44.644" height="137.42"/><rect class="abdc0cb4-1dbb-4645-a9ab-913bac1b75d7" x="160.444" y="305.267" width="44.444" height="110.733"/><rect class="abdc0cb4-1dbb-4645-a9ab-913bac1b75d7" x="204.889" y="334.333" width="44.444" height="81.667"/><rect class="abdc0cb4-1dbb-4645-a9ab-913bac1b75d7" x="249.333" y="357.333" width="44.444" height="58.667"/><rect class="abdc0cb4-1dbb-4645-a9ab-913bac1b75d7" x="293.778" y="366.878" width="44.444" height="49.122"/><rect class="abdc0cb4-1dbb-4645-a9ab-913bac1b75d7" x="338.222" y="358.268" width="44.444" height="57.732"/><rect class="abdc0cb4-1dbb-4645-a9ab-913bac1b75d7" x="382.667" y="330.306" width="44.444" height="85.694"/><rect class="abdc0cb4-1dbb-4645-a9ab-913bac1b75d7" x="427.111" y="285.533" width="44.444" height="130.467"/><rect class="abdc0cb4-1dbb-4645-a9ab-913bac1b75d7" x="471.556" y="229.767" width="44.444" height="186.233"/><rect id="aaaf8e63-7573-4317-8e2d-dd558fbf1556" data-name="rectangle-22" class="f98d770f-1e0f-41bb-9f5a-f722f73634de" x="16" y="16" width="700" height="400"/><g id="bd7a3e9d-fb8e-4350-b91e-39ee268ca62b" data-name="group-24"><line id="a8ecd9ec-8567-4a0a-9d23-ac32d677672a" data-name="line-25" class="f98d770f-1e0f-41bb-9f5a-f722f73634de" x1="-9984" y1="416" x2="10016" y2="416"/><line id="b089c9e4-3c57-4821-bcdc-3705054b686b" data-name="line-26" class="f98d770f-1e0f-41bb-9f5a-f722f73634de" x1="16" y1="-9584" x2="16" y2="10416"/><circle id="b42f1c2a-f788-4c3d-a182-9ae82c218294" data-name="circle-27" class="f98d770f-1e0f-41bb-9f5a-f722f73634de" cx="16" cy="416" r="3"/><path id="a1bb04e0-fab1-445f-80e2-fbe569ad57da" data-name="path-28" class="f98d770f-1e0f-41bb-9f5a-f722f73634de" d="M-684,523.943l1-.943,1-1,1-1,1-1,1-.9,1-1,1-.9,1-.9,1-1,1-.9,1-.9,1-.9,1-.9,1-.9,1-.8,1-.9,1-.9,1-.8,1-.8,1-.9,1-.8,1-.8,1-.8,1-.8,1-.8,1-.8,1-.7,1-.8,1-.8,1-.7,1-.7,1-.8,1-.7,1-.7,1-.7,1-.7,1-.6,1-.7,1-.7,1-.6,1-.7,1-.6,1-.6,1-.6,1-.6,1-.6,1-.6,1-.6,1-.5,1-.6,1-.5,1-.6,1-.5,1-.5,1-.5,1-.5,1-.5,1-.5,1-.4,1-.5,1-.4,1-.5,1-.4,1-.4,1-.4,1-.4,1-.4,1-.4,1-.3,1-.4,1-.3,1-.4,1-.3,1-.3,1-.3,1-.3,1-.3,1-.3,1-.2,1-.3,1-.2,1-.3,1-.2,1-.2,1-.2,1-.2,1-.2,1-.2,1-.1,1-.2,1-.1,1-.2,1-.1,1-.1,1-.1,1-.1,1-.1,1-.1,1-.1h1l1-.1h2l1-.1h3l1,.1h2l1,.1h1l1,.1,1,.1h1l1,.1,1,.1,1,.1,1,.2,1,.1,1,.1,1,.2,1,.1,1,.2,1,.1,1,.2,1,.2,1,.2,1,.2,1,.2,1,.3,1,.2,1,.2,1,.3,1,.2,1,.3,1,.3,1,.2,1,.3,1,.3,1,.3,1,.3,1,.3,1,.4,1,.3,1,.3,1,.4,1,.3,1,.4,1,.4,1,.3,1,.4,1,.4,1,.4,1,.4,1,.4,1,.4,1,.5,1,.4,1,.4,1,.5,1,.4,1,.5,1,.4,1,.5,1,.5,1,.5,1,.4,1,.5,1,.5,1,.5,1,.5,1,.6,1,.5,1,.5,1,.5,1,.6,1,.5,1,.5,1,.6,1,.5,1,.6,1,.6,1,.5,1,.6,1,.6,1,.5,1,.6,1,.6,1,.6,1,.6,1,.6,1,.6,1,.6,1,.6,1,.6,1,.6,1,.7,1,.6,1,.6,1,.6,1,.7,1,.6,1,.6,1,.7,1,.6,1,.6,1,.7,1,.6,1,.7,1,.6,1,.7,1,.6,1,.7,1,.6,1,.7,1,.7,1,.6,1,.7,1,.7,1,.6,1,.7,1,.6,1,.7,1,.7,1,.6,1,.7,1,.7,1,.6,1,.7,1,.7,1,.6,1,.7,1,.7,1,.6,1,.7,1,.7,1,.6,1,.7,1,.6,1,.7,1,.7,1,.6,1,.7,1,.6,1,.7,1,.6,1,.7,1,.6,1,.7,1,.6,1,.7,1,.6,1,.6,1,.7,1,.6,1,.6,1,.7,1,.6,1,.6,1,.6,1,.6,1,.6,1,.6,1,.7,1,.6,1,.5,1,.6,1,.6,1,.6,1,.6,1,.6,1,.5,1,.6,1,.6,1,.5,1,.6,1,.5,1,.6,1,.5,1,.6,1,.5,1,.5,1,.5,1,.6,1,.5,1,.5,1,.5,1,.5,1,.4,1,.5,1,.5,1,.5,1,.4,1,.5,1,.5,1,.4,1,.4,1,.5,1,.4,1,.4,1,.4,1,.4,1,.4,1,.4,1,.4,1,.4,1,.4,1,.3,1,.4,1,.3,1,.4,1,.3,1,.4,1,.3,1,.3,1,.3,1,.3,1,.3,1,.3,1,.2,1,.3,1,.3,1,.2,1,.3,1,.2,1,.2,1,.2,1,.2,1,.2,1,.2,1,.2,1,.2,1,.2,1,.1,1,.2,1,.1,1,.1,1,.2,1,.1,1,.1,1,.1,1,.1h1l1,.1,1,.1h1l1,.1h7l1-.1h1l1-.1h1l1-.1,1-.1,1-.1,1-.1,1-.1,1-.1,1-.1,1-.2,1-.1,1-.2,1-.2,1-.1,1-.2,1-.2,1-.2,1-.3,1-.2,1-.2,1-.3,1-.2,1-.3,1-.3,1-.3,1-.3,1-.3,1-.3,1-.3,1-.4,1-.3,1-.4,1-.4,1-.3,1-.4,1-.4,1-.4,1-.5,1-.4,1-.4,1-.5,1-.4,1-.5,1-.5,1-.5,1-.5,1-.5,1-.5,1-.5,1-.6,1-.5,1-.6,1-.5,1-.6,1-.6,1-.6,1-.6,1-.6,1-.6,1-.7,1-.6,1-.7,1-.6,1-.7,1-.7,1-.7,1-.7,1-.7,1-.7,1-.8,1-.7,1-.7,1-.8,1-.8,1-.7,1-.8,1-.8,1-.8,1-.8,1-.8,1-.9,1-.8,1-.8,1-.9,1-.9,1-.8,1-.9,1-.9,1-.9,1-.9,1-.9,1-.9,1-1,1-.9,1-.9,1-1,1-.9,1-1,1-1,1-1,1-1,1-1,1-1,1-1,1-1,1-1,1-1.1,1-1,1-1,1-1.1,1-1.1,1-1,1-1.1,1-1.1,1-1.1,1-1.1,1-1.1,1-1.1,1-1.1,1-1.1,1-1.1,1-1.2,1-1.1,1-1.2,1-1.1,1-1.2,1-1.1,1-1.2,1-1.2,1-1.1,1-1.2,1-1.2,1-1.2,1-1.2,1-1.2,1-1.2,1-1.2,1-1.3,1-1.2,1-1.2,1-1.2,1-1.3,1-1.2,1-1.3,1-1.2,1-1.3,1-1.2,1-1.3,1-1.2,1-1.3,1-1.3,1-1.3,1-1.2,1-1.3,1-1.3,1-1.3,1-1.3,1-1.3,1-1.3,1-1.3,1-1.3,1-1.3,1-1.3,1-1.3,1-1.3,1-1.3,1-1.3,1-1.3,1-1.4,1-1.3,1-1.3,1-1.3,1-1.3,1-1.4,1-1.3,1-1.3,1-1.4,1-1.3,1-1.3,1-1.3,1-1.4,1-1.3,1-1.3,1-1.4,1-1.3,1-1.3,1-1.4,1-1.3,1-1.3,1-1.4,1-1.3,1-1.3,1-1.4,1-1.3,1-1.3,1-1.4,1-1.3,1-1.3,1-1.3,1-1.4,1-1.3,1-1.3,1-1.3,1-1.3,1-1.4,1-1.3,1-1.3,1-1.3,1-1.3,1-1.3,1-1.3,1-1.3,1-1.3,1-1.3,1-1.3,1-1.3,1-1.3,1-1.3,1-1.2,1-1.3,1-1.3,1-1.3,1-1.2,1-1.3,1-1.3,1-1.2,1-1.3,1-1.2,1-1.3,1-1.2,1-1.2,1-1.3,1-1.2,1-1.2,1-1.2,1-1.2,1-1.3,1-1.2,1-1.2,1-1.1,1-1.2,1-1.2,1-1.2,1-1.2,1-1.1,1-1.2,1-1.2,1-1.1,1-1.1,1-1.2,1-1.1,1-1.1,1-1.2,1-1.1,1-1.1,1-1.1,1-1.1,1-1.1,1-1,1-1.1,1-1.1,1-1,1-1.1,1-1.1,1-1,1-1,1-1.1,1-1,1-1,1-1,1-1,1-1,1-1,1-.9,1-1,1-.9,1-1,1-.9,1-1,1-.9,1-.9,1-.9,1-.9,1-.9,1-.9,1-.9,1-.9,1-.8,1-.9,1-.8,1-.8,1-.9,1-.8,1-.8,1-.8,1-.8,1-.8,1-.7,1-.8,1-.8,1-.7,1-.7,1-.8,1-.7,1-.7,1-.7,1-.7,1-.7,1-.6,1-.7,1-.7,1-.6,1-.6,1-.7,1-.6,1-.6,1-.6,1-.6,1-.5,1-.6,1-.6,1-.5,1-.5,1-.6,1-.5,1-.5,1-.5,1-.5,1-.5,1-.4,1-.5,1-.4,1-.5,1-.4,1-.4,1-.4,1-.4,1-.4,1-.4,1-.4,1-.3,1-.4,1-.3,1-.3,1-.3,1-.4,1-.3,1-.2,1-.3,1-.3,1-.2,1-.3,1-.2,1-.3,1-.2,1-.2,1-.2,1-.2,1-.2,1-.1,1-.2,1-.1,1-.2,1-.1,1-.1,1-.1,1-.1,1-.1,1-.1,1-.1h1l1-.1h1l1-.1h6l1,.1h1l1,.1h1l1,.1,1,.1,1,.1,1,.1,1,.1,1,.1,1,.1,1,.1,1,.2,1,.1,1,.2,1,.2,1,.1,1,.2,1,.2,1,.2,1,.2,1,.2,1,.3,1,.2,1,.2,1,.3,1,.3,1,.2,1,.3,1,.3,1,.3,1,.3,1,.3,1,.3,1,.3,1,.3,1,.4,1,.3,1,.4,1,.3,1,.4,1,.4,1,.4,1,.4,1,.3,1,.4,1,.5,1,.4,1,.4,1,.4,1,.5,1,.4,1,.4,1,.5,1,.5,1,.4,1,.5,1,.5,1,.4,1,.5,1,.5,1,.5,1,.5,1,.5,1,.6,1,.5,1,.5,1,.5,1,.6,1,.5,1,.6,1,.5,1,.6,1,.5,1,.6,1,.6,1,.5,1,.6,1,.6,1,.6,1,.6,1,.6,1,.6,1,.6,1,.6,1,.6,1,.6,1,.6,1,.6,1,.6,1,.7,1,.6,1,.6,1,.6,1,.7,1,.6,1,.7,1,.6,1,.6,1,.7,1,.6,1,.7,1,.6,1,.7,1,.6,1,.7,1,.7,1,.6,1,.7,1,.6,1,.7,1,.7,1,.6,1,.7,1,.7,1,.6,1,.7,1,.7,1,.6,1,.7,1,.7,1,.6,1,.7,1,.7,1,.6,1,.7,1,.6,1,.7,1,.7,1,.6,1,.7,1,.7,1,.6,1,.7,1,.6,1,.7,1,.6,1,.7,1,.6,1,.7,1,.6,1,.7,1,.6,1,.7,1,.6,1,.6,1,.7,1,.6,1,.6,1,.6,1,.7,1,.6,1,.6,1,.6,1,.6,1,.6,1,.6,1,.6,1,.6,1,.6,1,.6,1,.6,1,.5,1,.6,1,.6,1,.6,1,.5,1,.6,1,.5,1,.6,1,.5,1,.6,1,.5,1,.5,1,.5,1,.6,1,.5,1,.5,1,.5,1,.5,1,.5,1,.4,1,.5,1,.5,1,.5,1,.4,1,.5,1,.4,1,.5,1,.4,1,.4,1,.4,1,.5,1,.4,1,.4,1,.4,1,.4,1,.3,1,.4,1,.4,1,.3,1,.4,1,.3,1,.4,1,.3,1,.3,1,.3,1,.4,1,.3,1,.2,1,.3,1,.3,1,.3,1,.2,1,.3,1,.2,1,.3,1,.2,1,.2,1,.2,1,.2,1,.2,1,.2,1,.2,1,.2,1,.1,1,.2,1,.1,1,.2,1,.1,1,.1,1,.1,1,.1,1,.1,1,.1h1l1,.1,1,.1h2l1,.1h5l1-.1h1l1-.1h1l1-.1,1-.1,1-.1,1-.1,1-.1,1-.1,1-.1,1-.2,1-.1,1-.2,1-.1,1-.2,1-.2,1-.2,1-.2,1-.2,1-.2,1-.3,1-.2,1-.3,1-.3,1-.2,1-.3,1-.3,1-.3,1-.3,1-.4,1-.3,1-.4,1-.3,1-.4,1-.4,1-.3,1-.4,1-.4,1-.5,1-.4,1-.4,1-.5,1-.4,1-.5,1-.5,1-.5,1-.4,1-.6,1-.5,1-.5,1-.5,1-.6,1-.5,1-.6,1-.6,1-.6,1-.5,1-.7,1-.6,1-.6,1-.6,1-.7,1-.6,1-.7,1-.6,1-.7,1-.7,1-.7,1-.7,1-.7,1-.8,1-.7,1-.7,1-.8,1-.8,1-.7,1-.8,1-.8,1-.8,1-.8,1-.8,1-.8,1-.9,1-.8,1-.9,1-.8,1-.9,1-.9,1-.9,1-.8,1-.9,1-1,1-.9,1-.9,1-.9,1-1,1-.9,1-1,1-.9,1-1,1-1,1-1,1-1,1-1,1-1,1-1,1-1,1-1.1,1-1,1-1,1-1.1,1-1.1,1-1,1-1.1,1-1.1,1-1.1,1-1.1,1-1.1,1-1.1,1-1.1,1-1.1,1-1.1,1-1.2,1-1.1,1-1.1,1-1.2,1-1.1,1-1.2,1-1.2,1-1.1,1-1.2,1-1.2,1-1.2,1-1.2,1-1.2,1-1.2,1-1.2,1-1.2,1-1.2,1-1.2,1-1.3,1-1.2,1-1.2,1-1.3,1-1.2,1-1.3,1-1.2,1-1.3,1-1.2,1-1.3,1-1.2,1-1.3,1-1.3,1-1.3,1-1.2,1-1.3,1-1.3,1-1.3,1-1.3,1-1.3,1-1.3,1-1.3,1-1.3,1-1.3,1-1.3,1-1.3,1-1.3,1-1.3,1-1.4,1-1.3,1-1.3,1-1.3,1-1.3,1-1.4,1-1.3,1-1.3,1-1.3,1-1.4,1-1.3,1-1.3,1-1.4,1-1.3,1-1.3,1-1.4,1-1.3,1-1.3,1-1.4,1-1.3,1-1.3,1-1.4,1-1.3,1-1.3,1-1.4,1-1.3,1-1.3,1-1.3,1-1.4,1-1.3,1-1.3,1-1.4,1-1.3,1-1.3,1-1.3,1-1.3,1-1.4,1-1.3,1-1.3,1-1.3,1-1.3,1-1.3,1-1.3,1-1.3,1-1.3,1-1.3,1-1.3,1-1.3,1-1.3,1-1.3,1-1.3,1-1.3,1-1.3,1-1.2,1-1.3,1-1.3,1-1.2,1-1.3,1-1.3,1-1.2,1-1.3,1-1.2,1-1.2,1-1.3,1-1.2,1-1.2,1-1.3,1-1.2,1-1.2,1-1.2,1-1.2,1-1.2,1-1.2,1-1.2,1-1.2,1-1.2,1-1.1,1-1.2,1-1.2,1-1.1,1-1.2,1-1.1,1-1.2,1-1.1,1-1.1,1-1.1,1-1.2,1-1.1,1-1.1,1-1.1,1-1.1,1-1,1-1.1,1-1.1,1-1.1,1-1,1-1.1,1-1,1-1,1-1.1,1-1,1-1,1-1,1-1,1-1,1-1,1-1,1-.9,1-1,1-.9,1-1,1-.9,1-.9,1-1,1-.9,1-.9,1-.9,1-.9,1-.9,1-.8,1-.9,1-.8,1-.9,1-.8,1-.9,1-.8,1-.8,1-.8,1-.8,1-.8,1-.7,1-.8,1-.8,1-.7,1-.8,1-.7,1-.7,1-.7,1-.7,1-.7,1-.7,1-.7,1-.6,1-.7,1-.6,1-.7,1-.6,1-.6,1-.6,1-.6,1-.6,1-.6,1-.6,1-.5,1-.6,1-.5,1-.5,1-.6,1-.5,1-.5,1-.5,1-.4,1-.5,1-.5,1-.4,1-.5,1-.4,1-.4,1-.4,1-.4,1-.4,1-.4,1-.4,1-.3,1-.4,1-.3,1-.4,1-.3,1-.3,1-.3,1-.3,1-.3,1-.2,1-.3,1-.3,1-.2,1-.2,1-.3,1-.2,1-.2,1-.2,1-.1,1-.2,1-.2,1-.1,1-.2,1-.1,1-.1,1-.1,1-.1,1-.1,1-.1,1-.1,1-.1h1l1-.1h8l1,.1h1l1,.1h1l1,.1,1,.1,1,.1,1,.1,1,.1,1,.1,1,.2,1,.1,1,.1,1,.2,1,.2,1,.1,1,.2,1,.2,1,.2,1,.2,1,.2,1,.3,1,.2,1,.2,1,.3,1,.2,1,.3,1,.3,1,.3,1,.2,1,.3,1,.3,1,.4,1,.3,1,.3,1,.3,1,.4,1,.3,1,.4,1,.4,1,.3,1,.4,1,.4,1,.4,1,.4,1,.4,1,.4,1,.4,1,.4,1,.5,1,.4,1,.5,1,.4,1,.5,1,.4,1,.5,1,.5,1,.5,1,.4,1,.5,1,.5,1,.5,1,.5,1,.6,1,.5,1,.5,1,.5,1,.6,1,.5,1,.6,1,.5,1,.6,1,.5,1,.6,1,.5,1,.6,1,.6,1,.6,1,.6,1,.5,1,.6,1,.6,1,.6,1,.6,1,.6,1,.7,1,.6,1,.6,1,.6,1,.6,1,.6,1,.7,1,.6,1,.6,1,.7,1,.6,1,.7,1,.6,1,.6,1,.7,1,.6,1,.7,1,.6,1,.7,1,.7,1,.6,1,.7,1,.6,1,.7,1,.6,1,.7,1,.7,1,.6,1,.7,1,.7,1,.6,1,.7,1,.7,1,.6,1,.7,1,.7,1,.6,1,.7,1,.7,1,.6,1,.7,1,.7,1,.6,1,.7,1,.6,1,.7,1,.7,1,.6,1,.7,1,.6,1,.7,1,.6,1,.7,1,.6,1,.7,1,.6,1,.7,1,.6,1,.7,1,.6,1,.6,1,.7,1,.6,1,.6,1,.6,1,.6,1,.7,1,.6,1,.6,1,.6,1,.6,1,.6,1,.6,1,.6,1,.6,1,.5,1,.6,1,.6,1,.6,1,.5,1,.6,1,.6,1,.5,1,.6,1,.5,1,.5,1,.6,1,.5,1,.5,1,.5,1,.6,1,.5,1,.5,1,.5,1,.5,1,.4,1,.5,1,.5,1,.5,1,.4,1,.5,1,.4,1,.5,1,.4,1,.4,1,.5,1,.4,1,.4,1,.4,1,.4,1,.4,1,.4,1,.4,1,.3,1,.4,1,.3,1,.4,1,.3,1,.4,1,.3,1,.3,1,.3,1,.3,1,.3,1,.3,1,.3,1,.3,1,.2,1,.3,1,.2,1,.3,1,.2,1,.2,1,.2,1,.2,1,.2,1,.2,1,.2,1,.2,1,.1,1,.2,1,.1,1,.2,1,.1,1,.1,1,.1,1,.1,1,.1,1,.1,1,.1,1,.1h1l1,.1h9l1-.1,1-.1h1l1-.1,1-.1,1-.1,1-.1,1-.1,1-.1,1-.2,1-.1,1-.2,1-.1,1-.2,1-.2,1-.2,1-.2,1-.2,1-.2,1-.2,1-.3,1-.2,1-.3,1-.3,1-.3,1-.3,1-.3,1-.3,1-.3,1-.3,1-.4,1-.3,1-.4,1-.4,1-.4,1-.3,1-.4,1-.5,1-.4,1-.4,1-.5,1-.4,1-.5,1-.5,1-.4,1-.5,1-.5,1-.5,1-.6,1-.5,1-.5,1-.6,1-.6,1-.5,1-.6,1-.6,1-.6,1-.6,1-.6,1-.7,1-.6,1-.6,1-.7,1-.7,1-.6,1-.7,1-.7,1-.7,1-.7,1-.8,1-.7,1-.7,1-.8,1-.7,1-.8,1-.8,1-.8,1-.8,1-.8,1-.8,1-.8,1-.8,1-.9,1-.8,1-.9,1-.9,1-.8,1-.9,1-.9,1-.9,1-.9,1-.9,1-.9,1-1,1-.9,1-1,1-.9,1-1,1-.9,1-1,1-1,1-1,1-1,1-1,1-1,1-1,1-1.1,1-1,1-1.1,1-1,1-1.1,1-1,1-1.1,1-1.1,1-1.1,1-1.1,1-1.1,1-1.1,1-1.1,1-1.1,1-1.1,1-1.1,1-1.2,1-1.1,1-1.2,1-1.1,1-1.2,1-1.1,1-1.2,1-1.2,1-1.2,1-1.1,1-1.2,1-1.2,1-1.2,1-1.2,1-1.2,1-1.3,1-1.2,1-1.2,1-1.2,1-1.3,1-1.2,1-1.2,1-1.3,1-1.2,1-1.3,1-1.3,1-1.2,1-1.3,1-1.3,1-1.2,1-1.3,1-1.3,1-1.3,1-1.2,1-1.3,1-1.3,1-1.3,1-1.3,1-1.3,1-1.3,1-1.3,1-1.3,1-1.3,1-1.4,1-1.3,1-1.3,1-1.3,1-1.3,1-1.3,1-1.4,1-1.3,1-1.3,1-1.3,1-1.4,1-1.3,1-1.3,1-1.3,1-1.4,1-1.3,1-1.3,1-1.4,1-1.3,1-1.3,1-1.4,1-1.3,1-1.3,1-1.4,1-1.3,1-1.3,1-1.4,1-1.3,1-1.3,1-1.4,1-1.3,1-1.3,1-1.4,1-1.3,1-1.3,1-1.3,1-1.3,1-1.4,1-1.3,1-1.3,1-1.3,1-1.3,1-1.3,1-1.4,1-1.3,1-1.3,1-1.3,1-1.3,1-1.3,1-1.3,1-1.3,1-1.2,1-1.3,1-1.3,1-1.3,1-1.3,1-1.2,1-1.3,1-1.3,1-1.2,1-1.3,1-1.2,1-1.3,1-1.2,1-1.3,1-1.2,1-1.3,1-1.2,1-1.2,1-1.2,1-1.3,1-1.2,1-1.2,1-1.2,1-1.2,1-1.2,1-1.1,1-1.2,1-1.2,1-1.2,1-1.1,1-1.2,1-1.1,1-1.2,1-1.1,1-1.2,1-1.1,1-1.1,1-1.1,1-1.2,1-1.1,1-1.1,1-1.1,1-1,1-1.1,1-1.1,1-1.1,1-1,1-1.1,1-1,1-1,1-1.1,1-1,1-1,1-1,1-1,1-1,1-1,1-1,1-1,1-.9,1-1,1-.9,1-1,1-.9,1-.9,1-.9,1-.9,1-.9,1-.9,1-.9,1-.9,1-.9,1-.8,1-.9,1-.8,1-.8,1-.9,1-.8,1-.8,1-.8,1-.8,1-.7,1-.8,1-.8,1-.7,1-.8,1-.7,1-.7,1-.7,1-.7,1-.7,1-.7,1-.7,1-.7,1-.6,1-.7,1-.6,1-.6,1-.7,1-.6,1-.6,1-.6,1-.5,1-.6,1-.6,1-.5,1-.6,1-.5,1-.5,1-.5,1-.6,1-.4,1-.5,1-.5,1-.5,1-.4,1-.5,1-.4,1-.4,1-.4,1-.4,1-.4,1-.4,1-.4,1-.4,1-.3,1-.4,1-.3,1-.3,1-.3,1-.3,1-.3,1-.3,1-.3,1-.3,1-.2,1-.3,1-.2,1-.2,1-.2,1-.2,1-.2,1-.2,1-.2,1-.2,1-.1,1-.2,1-.1,1-.1,1-.1,1-.1,1-.1,1-.1,1-.1,1-.1h1l1-.1h1l1-.1h5l1,.1h2l1,.1,1,.1h1l1,.1,1,.1,1,.1,1,.1,1,.1,1,.2,1,.1,1,.1,1,.2,1,.2,1,.1,1,.2,1,.2,1,.2,1,.2,1,.2,1,.2,1,.3,1,.2,1,.3,1,.2,1,.3,1,.2,1,.3,1,.3,1,.3,1,.3,1,.3,1,.3,1,.4,1,.3,1,.3,1,.4,1,.3,1,.4,1,.4,1,.3,1,.4,1,.4,1,.4,1,.4,1,.4,1,.4,1,.5,1,.4,1,.4,1,.5,1,.4,1,.5,1,.4,1,.5,1,.5,1,.5,1,.4,1,.5,1,.5,1,.5,1,.5,1,.6,1,.5,1,.5,1,.5,1,.6,1,.5,1,.5,1,.6,1,.5,1,.6,1,.6,1,.5,1,.6,1,.6,1,.5,1,.6,1,.6,1,.6,1,.6,1,.6,1,.6,1,.6,1,.6,1,.6,1,.6,1,.7,1,.6,1,.6,1,.6,1,.7,1,.6,1,.6,1,.7,1,.6,1,.7,1,.6,1,.6,1,.7,1,.6,1,.7,1,.6,1,.7"/><g id="b68269c1-58e4-4a7d-849c-347fae0aa9a9" data-name="control-43"><circle id="af993e37-f4c5-4d13-8422-62d720e6f251" data-name="circle-44" class="e0498134-4ad8-43a4-8827-361258d43b96" cx="116" cy="278.636" r="4"/></g><g id="a54f4753-2181-4ae7-a1a9-101ce04cedd7" data-name="control-46"><circle id="ba10a735-db10-4609-a543-99d2c37656be" data-name="circle-47" class="e0498134-4ad8-43a4-8827-361258d43b96" cx="516" cy="170.967" r="4"/></g></g></g></g><rect class="f98d770f-1e0f-41bb-9f5a-f722f73634de" x="16" y="16" width="700" height="400"/></g><g id="f3699491-513e-4108-9de4-37ab07a55640" data-name="group-2"><g id="e46c782e-87e8-4418-96f6-4c676996b1f3" data-name="slider-3"><line id="aff1a092-627d-41ca-9e34-588a697bf9db" data-name="line-4" class="f98d770f-1e0f-41bb-9f5a-f722f73634de" x1="24" y1="491" x2="708" y2="491"/><g id="b8253033-4589-4286-9356-001e3101f760" data-name="controlcircle-5"><circle id="eb752b19-828d-447c-9101-47083ed9e02c" data-name="circle-6" class="e0498134-4ad8-43a4-8827-361258d43b96" cx="79.273" cy="491" r="8.5"/><circle id="a5d23aa8-81af-46e9-855b-57b7083dc963" data-name="circle-7" class="e0498134-4ad8-43a4-8827-361258d43b96" cx="79.273" cy="491" r="8.8"/></g></g><rect id="b589524f-47b0-4399-969d-83ad557b10de" data-name="rectangle-8" class="a0216353-505c-420f-904b-0d5aa4069af5" x="41" y="41" width="120" height="100"/><g id="f71b5b48-6dc9-4cf6-909d-4104e3811518" data-name="radiocontrol-9"><g id="aef0ebad-3529-49f3-8910-518b702652f2" data-name="checkbox-10"><path id="f7c11c9a-1c8d-4684-bc7f-a1515cdcf28b" data-name="rectangle-11" class="a173b87a-5560-486a-904c-ae4d8620c19f" d="M60,59.5h0A6.5,6.5,0,0,1,66.5,66h0A6.5,6.5,0,0,1,60,72.5h0A6.5,6.5,0,0,1,53.5,66h0A6.5,6.5,0,0,1,60,59.5Z"/><text id="b75b20c0-3342-470a-ac5c-ebf6ae14c29b" data-name="text-12" class="f136a775-e64b-48b4-a226-64ebbf451571" transform="translate(76 72)">left</text></g><g id="e50d3dce-f72a-4a57-9dc3-7c0f6218d880" data-name="checkbox-13"><path id="a1c182eb-5e78-47a6-80bb-e33fb8d9fa02" data-name="rectangle-14" class="f98d770f-1e0f-41bb-9f5a-f722f73634de" d="M60,83.5h0A6.5,6.5,0,0,1,66.5,90h0A6.5,6.5,0,0,1,60,96.5h0A6.5,6.5,0,0,1,53.5,90h0A6.5,6.5,0,0,1,60,83.5Z"/><text id="a67d210d-51fa-4b44-b510-470ba19d7d36" data-name="text-15" class="f136a775-e64b-48b4-a226-64ebbf451571" transform="translate(76 96)">right</text></g><g id="e50ada26-3a5e-4948-ae21-f28e67d31f1b" data-name="checkbox-16"><path id="b8167205-dc26-4897-8ced-fac0d2d2f693" data-name="rectangle-17" class="f98d770f-1e0f-41bb-9f5a-f722f73634de" d="M60,107.5h0a6.5,6.5,0,0,1,6.5,6.5h0a6.5,6.5,0,0,1-6.5,6.5h0a6.5,6.5,0,0,1-6.5-6.5h0A6.5,6.5,0,0,1,60,107.5Z"/><text id="e82b0219-529d-4b02-afd6-42683e238377" data-name="text-18" class="f136a775-e64b-48b4-a226-64ebbf451571" transform="translate(76 120)">trapezoid</text></g></g></g><text id="b9851895-1020-4e90-b51e-46e3c1151f0b" data-name="text-49" class="a6463370-5395-40d2-b423-fdeceb16a3a6" transform="translate(109.882 441)">a</text><text id="faa64b46-d065-49b2-a2b4-b45528df8aa4" data-name="text-50" class="a6463370-5395-40d2-b423-fdeceb16a3a6" transform="translate(509.882 441)">b</text></svg>