<svg id="f77e4502-8400-417a-96d5-03e5b84484a3" data-name="f4d5f601-dded-487c-aa6f-cad1f9189f14" xmlns="http://www.w3.org/2000/svg" xmlns:xlink="http://www.w3.org/1999/xlink" viewBox="0 0 736 516"><defs><style>.a0a3f9dc-c54f-4eab-9260-23562662a13a,.a61f83f4-ec05-4869-849a-9c72cdde7184,.fda22335-a531-4fc4-bf56-c6f3a8f89a81{fill:none;}.a0a3f9dc-c54f-4eab-9260-23562662a13a{stroke:#0366ee;}.a0a3f9dc-c54f-4eab-9260-23562662a13a,.adb28bf8-03d4-4355-9385-fb185bc3a165,.fda22335-a531-4fc4-bf56-c6f3a8f89a81{stroke-miterlimit:10;}.adb28bf8-03d4-4355-9385-fb185bc3a165,.ba0bdac3-823d-4266-9cce-294f6ec1c771,.fda22335-a531-4fc4-bf56-c6f3a8f89a81{stroke:#333;}.acae1985-d25b-4978-a5e6-9fb15d6ecbf7{clip-path:url(#bfda9154-6410-4686-95cc-944ef051a6fc);}.f78722b4-cdf6-4335-aec2-fb16ff221dbc{opacity:0.4;}.adb28bf8-03d4-4355-9385-fb185bc3a165,.b5c6450d-8407-47ec-91b2-acea856386f6,.f3fb2b4e-df50-4de8-a567-30b606809422,.fd1371c4-80c0-4675-9725-e44706372914{fill:#333;}.ba0bdac3-823d-4266-9cce-294f6ec1c771{fill:#f8f8f8;}.f3fb2b4e-df50-4de8-a567-30b606809422,.fd1371c4-80c0-4675-9725-e44706372914{isolation:isolate;}.fd1371c4-80c0-4675-9725-e44706372914{font-size:18px;font-family:HelveticaNeue, Helvetica Neue;}.f3fb2b4e-df50-4de8-a567-30b606809422{font-size:22px;font-family:KaTeX_Math-Italic, KaTeX_Math;font-style:italic;}.fb4a333c-d8db-42cd-94ca-f3b54cd95fc3{font-size:30px;font-family:KaTeX_Main-Regular, KaTeX_Main;}.eace46a5-5681-418f-853c-e3777c4fe4f4,.fb4a333c-d8db-42cd-94ca-f3b54cd95fc3{fill:#0366ee;}.eace46a5-5681-418f-853c-e3777c4fe4f4{opacity:0.5;}</style><clipPath id="bfda9154-6410-4686-95cc-944ef051a6fc"><rect class="a61f83f4-ec05-4869-849a-9c72cdde7184" x="16" y="16" width="700" height="400"/></clipPath></defs><title>riemman-sum</title><polygon class="a0a3f9dc-c54f-4eab-9260-23562662a13a" points="466.556 224.767 466.556 280.533 422.111 280.533 422.111 325.306 376.667 325.306 376.667 353.268 333.222 353.268 333.222 361.878 298.777 361.878 298.777 352.333 254.333 353.462 254.333 329.333 209.888 330.351 209.888 300.267 165.445 300.267 165.445 273.58 110.801 273.58 110.801 421 521 421 521 224.767 466.556 224.767"/><g id="fa50add4-e91d-4b77-be41-17b432e44a65" data-name="a68e92fc-1b88-4f6b-a4ca-b3cacb98626a"><rect id="fdcfd830-6294-4783-b71d-ab2d48d43749" data-name="b698689c-2c2d-4cb2-9c91-b3d6671abee8" class="fda22335-a531-4fc4-bf56-c6f3a8f89a81" x="16" y="16" width="700" height="400"/><g class="acae1985-d25b-4978-a5e6-9fb15d6ecbf7"><g id="b0582a2e-9402-436c-9858-67d2dc4ba662" data-name="ac4f092c-db5e-4aa7-bcdb-c0e62e34f065"><g id="b865f9a6-43f1-4e20-bb8d-672cbccf7f2c" data-name="a2e2cc04-94fe-43de-aa76-fd0314695c26" class="f78722b4-cdf6-4335-aec2-fb16ff221dbc"><line id="a0aeebe6-700f-47ce-8932-bc7836207199" data-name="a4b881e2-0d73-41d4-b56f-dcf23a2f9edc" class="fda22335-a531-4fc4-bf56-c6f3a8f89a81" x1="16" y1="16" x2="16" y2="416"/><line id="b8135b9a-4108-4416-8ac3-79646faa0848" data-name="f5e61b03-fd9a-4d19-92c5-a856e122bdbd" class="fda22335-a531-4fc4-bf56-c6f3a8f89a81" x1="116" y1="16" x2="116" y2="416"/><line id="b9a8a0eb-41d0-482b-958a-26b3a7c2b1cf" data-name="a00aa722-c0d6-441f-8566-24bc02d27f2b" class="fda22335-a531-4fc4-bf56-c6f3a8f89a81" x1="216" y1="16" x2="216" y2="416"/><line id="ad916ce9-7867-4213-b152-42167fba4694" data-name="b3dcf322-e706-4d0f-95a1-a2c65fad6add" class="fda22335-a531-4fc4-bf56-c6f3a8f89a81" x1="316" y1="16" x2="316" y2="416"/><line id="bcac2996-e1bf-46eb-a815-b209076d84a8" data-name="bdaa5d7b-4162-4142-8462-35fcfe1362f9" class="fda22335-a531-4fc4-bf56-c6f3a8f89a81" x1="416" y1="16" x2="416" y2="416"/><line id="bdadad8b-aab3-449b-8eb4-e6499a790b7c" data-name="b9b68434-a9ce-40dc-959b-70f8f0549996" class="fda22335-a531-4fc4-bf56-c6f3a8f89a81" x1="516" y1="16" x2="516" y2="416"/><line id="a83731ce-ad4e-4780-9139-df022e55ce43" data-name="e8bcc5b9-1fe9-4cbe-b9ec-fd74a9c9a858" class="fda22335-a531-4fc4-bf56-c6f3a8f89a81" x1="616" y1="16" x2="616" y2="416"/><line id="f28cbc55-688b-4cf0-b04e-cd31c0b0b4b0" data-name="b62f2822-082f-42a1-af7b-3eb1e6042b8f" class="fda22335-a531-4fc4-bf56-c6f3a8f89a81" x1="16" y1="16" x2="716" y2="16"/><line id="aa7dd122-3eeb-4032-8813-16ae94df8b79" data-name="a0c24075-da15-411e-b81e-564ca91e640d" class="fda22335-a531-4fc4-bf56-c6f3a8f89a81" x1="16" y1="116" x2="716" y2="116"/><line id="fe960f9d-c5be-4c6d-b8cc-4407da65e2ef" data-name="b7a66f6b-c165-4ac5-9d93-2dd58f4072fe" class="fda22335-a531-4fc4-bf56-c6f3a8f89a81" x1="16" y1="216" x2="716" y2="216"/><line id="a6de4fbc-c20b-4c14-9a99-13f737855074" data-name="f9d5862b-3442-4cbc-9972-8ed172a5e5a2" class="fda22335-a531-4fc4-bf56-c6f3a8f89a81" x1="16" y1="316" x2="716" y2="316"/></g><rect id="a299f14b-d76d-48c9-b400-84653988df48" data-name="aaaf8e63-7573-4317-8e2d-dd558fbf1556" class="fda22335-a531-4fc4-bf56-c6f3a8f89a81" x="16" y="16" width="700" height="400"/><g id="b68abcee-3d76-49ec-ad7e-2b5e1e80abe2" data-name="bd7a3e9d-fb8e-4350-b91e-39ee268ca62b"><line id="f171ac25-9dc2-40f9-9330-6b6f54b63132" data-name="a8ecd9ec-8567-4a0a-9d23-ac32d677672a" class="fda22335-a531-4fc4-bf56-c6f3a8f89a81" x1="-9984" y1="416" x2="10016" y2="416"/><line id="a11e4f90-3e63-42ba-a4b5-859c0c6ec443" data-name="b089c9e4-3c57-4821-bcdc-3705054b686b" class="fda22335-a531-4fc4-bf56-c6f3a8f89a81" x1="16" y1="-9584" x2="16" y2="10416"/><circle id="b8eccebc-e8df-48a8-beeb-36568718cc74" data-name="b42f1c2a-f788-4c3d-a182-9ae82c218294" class="fda22335-a531-4fc4-bf56-c6f3a8f89a81" cx="16" cy="416" r="3"/><path id="e64cefe0-2fb7-4932-ae74-664d2d22c455" data-name="a1bb04e0-fab1-445f-80e2-fbe569ad57da" class="fda22335-a531-4fc4-bf56-c6f3a8f89a81" d="M-684,523.943l1-.943,1-1,1-1,1-1,1-.9,1-1,1-.9,1-.9,1-1,1-.9,1-.9,1-.9,1-.9,1-.9,1-.8,1-.9,1-.9,1-.8,1-.8,1-.9,1-.8,1-.8,1-.8,1-.8,1-.8,1-.8,1-.7,1-.8,1-.8,1-.7,1-.7,1-.8,1-.7,1-.7,1-.7,1-.7,1-.6,1-.7,1-.7,1-.6,1-.7,1-.6,1-.6,1-.6,1-.6,1-.6,1-.6,1-.6,1-.5,1-.6,1-.5,1-.6,1-.5,1-.5,1-.5,1-.5,1-.5,1-.5,1-.4,1-.5,1-.4,1-.5,1-.4,1-.4,1-.4,1-.4,1-.4,1-.4,1-.3,1-.4,1-.3,1-.4,1-.3,1-.3,1-.3,1-.3,1-.3,1-.3,1-.2,1-.3,1-.2,1-.3,1-.2,1-.2,1-.2,1-.2,1-.2,1-.2,1-.1,1-.2,1-.1,1-.2,1-.1,1-.1,1-.1,1-.1,1-.1,1-.1,1-.1h1l1-.1h2l1-.1h3l1,.1h2l1,.1h1l1,.1,1,.1h1l1,.1,1,.1,1,.1,1,.2,1,.1,1,.1,1,.2,1,.1,1,.2,1,.1,1,.2,1,.2,1,.2,1,.2,1,.2,1,.3,1,.2,1,.2,1,.3,1,.2,1,.3,1,.3,1,.2,1,.3,1,.3,1,.3,1,.3,1,.3,1,.4,1,.3,1,.3,1,.4,1,.3,1,.4,1,.4,1,.3,1,.4,1,.4,1,.4,1,.4,1,.4,1,.4,1,.5,1,.4,1,.4,1,.5,1,.4,1,.5,1,.4,1,.5,1,.5,1,.5,1,.4,1,.5,1,.5,1,.5,1,.5,1,.6,1,.5,1,.5,1,.5,1,.6,1,.5,1,.5,1,.6,1,.5,1,.6,1,.6,1,.5,1,.6,1,.6,1,.5,1,.6,1,.6,1,.6,1,.6,1,.6,1,.6,1,.6,1,.6,1,.6,1,.6,1,.7,1,.6,1,.6,1,.6,1,.7,1,.6,1,.6,1,.7,1,.6,1,.6,1,.7,1,.6,1,.7,1,.6,1,.7,1,.6,1,.7,1,.6,1,.7,1,.7,1,.6,1,.7,1,.7,1,.6,1,.7,1,.6,1,.7,1,.7,1,.6,1,.7,1,.7,1,.6,1,.7,1,.7,1,.6,1,.7,1,.7,1,.6,1,.7,1,.7,1,.6,1,.7,1,.6,1,.7,1,.7,1,.6,1,.7,1,.6,1,.7,1,.6,1,.7,1,.6,1,.7,1,.6,1,.7,1,.6,1,.6,1,.7,1,.6,1,.6,1,.7,1,.6,1,.6,1,.6,1,.6,1,.6,1,.6,1,.7,1,.6,1,.5,1,.6,1,.6,1,.6,1,.6,1,.6,1,.5,1,.6,1,.6,1,.5,1,.6,1,.5,1,.6,1,.5,1,.6,1,.5,1,.5,1,.5,1,.6,1,.5,1,.5,1,.5,1,.5,1,.4,1,.5,1,.5,1,.5,1,.4,1,.5,1,.5,1,.4,1,.4,1,.5,1,.4,1,.4,1,.4,1,.4,1,.4,1,.4,1,.4,1,.4,1,.4,1,.3,1,.4,1,.3,1,.4,1,.3,1,.4,1,.3,1,.3,1,.3,1,.3,1,.3,1,.3,1,.2,1,.3,1,.3,1,.2,1,.3,1,.2,1,.2,1,.2,1,.2,1,.2,1,.2,1,.2,1,.2,1,.2,1,.1,1,.2,1,.1,1,.1,1,.2,1,.1,1,.1,1,.1,1,.1h1l1,.1,1,.1h1l1,.1h7l1-.1h1l1-.1h1l1-.1,1-.1,1-.1,1-.1,1-.1,1-.1,1-.1,1-.2,1-.1,1-.2,1-.2,1-.1,1-.2,1-.2,1-.2,1-.3,1-.2,1-.2,1-.3,1-.2,1-.3,1-.3,1-.3,1-.3,1-.3,1-.3,1-.3,1-.4,1-.3,1-.4,1-.4,1-.3,1-.4,1-.4,1-.4,1-.5,1-.4,1-.4,1-.5,1-.4,1-.5,1-.5,1-.5,1-.5,1-.5,1-.5,1-.5,1-.6,1-.5,1-.6,1-.5,1-.6,1-.6,1-.6,1-.6,1-.6,1-.6,1-.7,1-.6,1-.7,1-.6,1-.7,1-.7,1-.7,1-.7,1-.7,1-.7,1-.8,1-.7,1-.7,1-.8,1-.8,1-.7,1-.8,1-.8,1-.8,1-.8,1-.8,1-.9,1-.8,1-.8,1-.9,1-.9,1-.8,1-.9,1-.9,1-.9,1-.9,1-.9,1-.9,1-1,1-.9,1-.9,1-1,1-.9,1-1,1-1,1-1,1-1,1-1,1-1,1-1,1-1,1-1,1-1.1,1-1,1-1,1-1.1,1-1.1,1-1,1-1.1,1-1.1,1-1.1,1-1.1,1-1.1,1-1.1,1-1.1,1-1.1,1-1.1,1-1.2,1-1.1,1-1.2,1-1.1,1-1.2,1-1.1,1-1.2,1-1.2,1-1.1,1-1.2,1-1.2,1-1.2,1-1.2,1-1.2,1-1.2,1-1.2,1-1.3,1-1.2,1-1.2,1-1.2,1-1.3,1-1.2,1-1.3,1-1.2,1-1.3,1-1.2,1-1.3,1-1.2,1-1.3,1-1.3,1-1.3,1-1.2,1-1.3,1-1.3,1-1.3,1-1.3,1-1.3,1-1.3,1-1.3,1-1.3,1-1.3,1-1.3,1-1.3,1-1.3,1-1.3,1-1.3,1-1.3,1-1.4,1-1.3,1-1.3,1-1.3,1-1.3,1-1.4,1-1.3,1-1.3,1-1.4,1-1.3,1-1.3,1-1.3,1-1.4,1-1.3,1-1.3,1-1.4,1-1.3,1-1.3,1-1.4,1-1.3,1-1.3,1-1.4,1-1.3,1-1.3,1-1.4,1-1.3,1-1.3,1-1.4,1-1.3,1-1.3,1-1.3,1-1.4,1-1.3,1-1.3,1-1.3,1-1.3,1-1.4,1-1.3,1-1.3,1-1.3,1-1.3,1-1.3,1-1.3,1-1.3,1-1.3,1-1.3,1-1.3,1-1.3,1-1.3,1-1.3,1-1.2,1-1.3,1-1.3,1-1.3,1-1.2,1-1.3,1-1.3,1-1.2,1-1.3,1-1.2,1-1.3,1-1.2,1-1.2,1-1.3,1-1.2,1-1.2,1-1.2,1-1.2,1-1.3,1-1.2,1-1.2,1-1.1,1-1.2,1-1.2,1-1.2,1-1.2,1-1.1,1-1.2,1-1.2,1-1.1,1-1.1,1-1.2,1-1.1,1-1.1,1-1.2,1-1.1,1-1.1,1-1.1,1-1.1,1-1.1,1-1,1-1.1,1-1.1,1-1,1-1.1,1-1.1,1-1,1-1,1-1.1,1-1,1-1,1-1,1-1,1-1,1-1,1-.9,1-1,1-.9,1-1,1-.9,1-1,1-.9,1-.9,1-.9,1-.9,1-.9,1-.9,1-.9,1-.9,1-.8,1-.9,1-.8,1-.8,1-.9,1-.8,1-.8,1-.8,1-.8,1-.8,1-.7,1-.8,1-.8,1-.7,1-.7,1-.8,1-.7,1-.7,1-.7,1-.7,1-.7,1-.6,1-.7,1-.7,1-.6,1-.6,1-.7,1-.6,1-.6,1-.6,1-.6,1-.5,1-.6,1-.6,1-.5,1-.5,1-.6,1-.5,1-.5,1-.5,1-.5,1-.5,1-.4,1-.5,1-.4,1-.5,1-.4,1-.4,1-.4,1-.4,1-.4,1-.4,1-.4,1-.3,1-.4,1-.3,1-.3,1-.3,1-.4,1-.3,1-.2,1-.3,1-.3,1-.2,1-.3,1-.2,1-.3,1-.2,1-.2,1-.2,1-.2,1-.2,1-.1,1-.2,1-.1,1-.2,1-.1,1-.1,1-.1,1-.1,1-.1,1-.1,1-.1h1l1-.1h1l1-.1h6l1,.1h1l1,.1h1l1,.1,1,.1,1,.1,1,.1,1,.1,1,.1,1,.1,1,.1,1,.2,1,.1,1,.2,1,.2,1,.1,1,.2,1,.2,1,.2,1,.2,1,.2,1,.3,1,.2,1,.2,1,.3,1,.3,1,.2,1,.3,1,.3,1,.3,1,.3,1,.3,1,.3,1,.3,1,.3,1,.4,1,.3,1,.4,1,.3,1,.4,1,.4,1,.4,1,.4,1,.3,1,.4,1,.5,1,.4,1,.4,1,.4,1,.5,1,.4,1,.4,1,.5,1,.5,1,.4,1,.5,1,.5,1,.4,1,.5,1,.5,1,.5,1,.5,1,.5,1,.6,1,.5,1,.5,1,.5,1,.6,1,.5,1,.6,1,.5,1,.6,1,.5,1,.6,1,.6,1,.5,1,.6,1,.6,1,.6,1,.6,1,.6,1,.6,1,.6,1,.6,1,.6,1,.6,1,.6,1,.6,1,.6,1,.7,1,.6,1,.6,1,.6,1,.7,1,.6,1,.7,1,.6,1,.6,1,.7,1,.6,1,.7,1,.6,1,.7,1,.6,1,.7,1,.7,1,.6,1,.7,1,.6,1,.7,1,.7,1,.6,1,.7,1,.7,1,.6,1,.7,1,.7,1,.6,1,.7,1,.7,1,.6,1,.7,1,.7,1,.6,1,.7,1,.6,1,.7,1,.7,1,.6,1,.7,1,.7,1,.6,1,.7,1,.6,1,.7,1,.6,1,.7,1,.6,1,.7,1,.6,1,.7,1,.6,1,.7,1,.6,1,.6,1,.7,1,.6,1,.6,1,.6,1,.7,1,.6,1,.6,1,.6,1,.6,1,.6,1,.6,1,.6,1,.6,1,.6,1,.6,1,.6,1,.5,1,.6,1,.6,1,.6,1,.5,1,.6,1,.5,1,.6,1,.5,1,.6,1,.5,1,.5,1,.5,1,.6,1,.5,1,.5,1,.5,1,.5,1,.5,1,.4,1,.5,1,.5,1,.5,1,.4,1,.5,1,.4,1,.5,1,.4,1,.4,1,.4,1,.5,1,.4,1,.4,1,.4,1,.4,1,.3,1,.4,1,.4,1,.3,1,.4,1,.3,1,.4,1,.3,1,.3,1,.3,1,.4,1,.3,1,.2,1,.3,1,.3,1,.3,1,.2,1,.3,1,.2,1,.3,1,.2,1,.2,1,.2,1,.2,1,.2,1,.2,1,.2,1,.2,1,.1,1,.2,1,.1,1,.2,1,.1,1,.1,1,.1,1,.1,1,.1,1,.1h1l1,.1,1,.1h2l1,.1h5l1-.1h1l1-.1h1l1-.1,1-.1,1-.1,1-.1,1-.1,1-.1,1-.1,1-.2,1-.1,1-.2,1-.1,1-.2,1-.2,1-.2,1-.2,1-.2,1-.2,1-.3,1-.2,1-.3,1-.3,1-.2,1-.3,1-.3,1-.3,1-.3,1-.4,1-.3,1-.4,1-.3,1-.4,1-.4,1-.3,1-.4,1-.4,1-.5,1-.4,1-.4,1-.5,1-.4,1-.5,1-.5,1-.5,1-.4,1-.6,1-.5,1-.5,1-.5,1-.6,1-.5,1-.6,1-.6,1-.6,1-.5,1-.7,1-.6,1-.6,1-.6,1-.7,1-.6,1-.7,1-.6,1-.7,1-.7,1-.7,1-.7,1-.7,1-.8,1-.7,1-.7,1-.8,1-.8,1-.7,1-.8,1-.8,1-.8,1-.8,1-.8,1-.8,1-.9,1-.8,1-.9,1-.8,1-.9,1-.9,1-.9,1-.8,1-.9,1-1,1-.9,1-.9,1-.9,1-1,1-.9,1-1,1-.9,1-1,1-1,1-1,1-1,1-1,1-1,1-1,1-1,1-1.1,1-1,1-1,1-1.1,1-1.1,1-1,1-1.1,1-1.1,1-1.1,1-1.1,1-1.1,1-1.1,1-1.1,1-1.1,1-1.1,1-1.2,1-1.1,1-1.1,1-1.2,1-1.1,1-1.2,1-1.2,1-1.1,1-1.2,1-1.2,1-1.2,1-1.2,1-1.2,1-1.2,1-1.2,1-1.2,1-1.2,1-1.2,1-1.3,1-1.2,1-1.2,1-1.3,1-1.2,1-1.3,1-1.2,1-1.3,1-1.2,1-1.3,1-1.2,1-1.3,1-1.3,1-1.3,1-1.2,1-1.3,1-1.3,1-1.3,1-1.3,1-1.3,1-1.3,1-1.3,1-1.3,1-1.3,1-1.3,1-1.3,1-1.3,1-1.3,1-1.4,1-1.3,1-1.3,1-1.3,1-1.3,1-1.4,1-1.3,1-1.3,1-1.3,1-1.4,1-1.3,1-1.3,1-1.4,1-1.3,1-1.3,1-1.4,1-1.3,1-1.3,1-1.4,1-1.3,1-1.3,1-1.4,1-1.3,1-1.3,1-1.4,1-1.3,1-1.3,1-1.3,1-1.4,1-1.3,1-1.3,1-1.4,1-1.3,1-1.3,1-1.3,1-1.3,1-1.4,1-1.3,1-1.3,1-1.3,1-1.3,1-1.3,1-1.3,1-1.3,1-1.3,1-1.3,1-1.3,1-1.3,1-1.3,1-1.3,1-1.3,1-1.3,1-1.3,1-1.2,1-1.3,1-1.3,1-1.2,1-1.3,1-1.3,1-1.2,1-1.3,1-1.2,1-1.2,1-1.3,1-1.2,1-1.2,1-1.3,1-1.2,1-1.2,1-1.2,1-1.2,1-1.2,1-1.2,1-1.2,1-1.2,1-1.2,1-1.1,1-1.2,1-1.2,1-1.1,1-1.2,1-1.1,1-1.2,1-1.1,1-1.1,1-1.1,1-1.2,1-1.1,1-1.1,1-1.1,1-1.1,1-1,1-1.1,1-1.1,1-1.1,1-1,1-1.1,1-1,1-1,1-1.1,1-1,1-1,1-1,1-1,1-1,1-1,1-1,1-.9,1-1,1-.9,1-1,1-.9,1-.9,1-1,1-.9,1-.9,1-.9,1-.9,1-.9,1-.8,1-.9,1-.8,1-.9,1-.8,1-.9,1-.8,1-.8,1-.8,1-.8,1-.8,1-.7,1-.8,1-.8,1-.7,1-.8,1-.7,1-.7,1-.7,1-.7,1-.7,1-.7,1-.7,1-.6,1-.7,1-.6,1-.7,1-.6,1-.6,1-.6,1-.6,1-.6,1-.6,1-.6,1-.5,1-.6,1-.5,1-.5,1-.6,1-.5,1-.5,1-.5,1-.4,1-.5,1-.5,1-.4,1-.5,1-.4,1-.4,1-.4,1-.4,1-.4,1-.4,1-.4,1-.3,1-.4,1-.3,1-.4,1-.3,1-.3,1-.3,1-.3,1-.3,1-.2,1-.3,1-.3,1-.2,1-.2,1-.3,1-.2,1-.2,1-.2,1-.1,1-.2,1-.2,1-.1,1-.2,1-.1,1-.1,1-.1,1-.1,1-.1,1-.1,1-.1,1-.1h1l1-.1h8l1,.1h1l1,.1h1l1,.1,1,.1,1,.1,1,.1,1,.1,1,.1,1,.2,1,.1,1,.1,1,.2,1,.2,1,.1,1,.2,1,.2,1,.2,1,.2,1,.2,1,.3,1,.2,1,.2,1,.3,1,.2,1,.3,1,.3,1,.3,1,.2,1,.3,1,.3,1,.4,1,.3,1,.3,1,.3,1,.4,1,.3,1,.4,1,.4,1,.3,1,.4,1,.4,1,.4,1,.4,1,.4,1,.4,1,.4,1,.4,1,.5,1,.4,1,.5,1,.4,1,.5,1,.4,1,.5,1,.5,1,.5,1,.4,1,.5,1,.5,1,.5,1,.5,1,.6,1,.5,1,.5,1,.5,1,.6,1,.5,1,.6,1,.5,1,.6,1,.5,1,.6,1,.5,1,.6,1,.6,1,.6,1,.6,1,.5,1,.6,1,.6,1,.6,1,.6,1,.6,1,.7,1,.6,1,.6,1,.6,1,.6,1,.6,1,.7,1,.6,1,.6,1,.7,1,.6,1,.7,1,.6,1,.6,1,.7,1,.6,1,.7,1,.6,1,.7,1,.7,1,.6,1,.7,1,.6,1,.7,1,.6,1,.7,1,.7,1,.6,1,.7,1,.7,1,.6,1,.7,1,.7,1,.6,1,.7,1,.7,1,.6,1,.7,1,.7,1,.6,1,.7,1,.7,1,.6,1,.7,1,.6,1,.7,1,.7,1,.6,1,.7,1,.6,1,.7,1,.6,1,.7,1,.6,1,.7,1,.6,1,.7,1,.6,1,.7,1,.6,1,.6,1,.7,1,.6,1,.6,1,.6,1,.6,1,.7,1,.6,1,.6,1,.6,1,.6,1,.6,1,.6,1,.6,1,.6,1,.5,1,.6,1,.6,1,.6,1,.5,1,.6,1,.6,1,.5,1,.6,1,.5,1,.5,1,.6,1,.5,1,.5,1,.5,1,.6,1,.5,1,.5,1,.5,1,.5,1,.4,1,.5,1,.5,1,.5,1,.4,1,.5,1,.4,1,.5,1,.4,1,.4,1,.5,1,.4,1,.4,1,.4,1,.4,1,.4,1,.4,1,.4,1,.3,1,.4,1,.3,1,.4,1,.3,1,.4,1,.3,1,.3,1,.3,1,.3,1,.3,1,.3,1,.3,1,.3,1,.2,1,.3,1,.2,1,.3,1,.2,1,.2,1,.2,1,.2,1,.2,1,.2,1,.2,1,.2,1,.1,1,.2,1,.1,1,.2,1,.1,1,.1,1,.1,1,.1,1,.1,1,.1,1,.1,1,.1h1l1,.1h9l1-.1,1-.1h1l1-.1,1-.1,1-.1,1-.1,1-.1,1-.1,1-.2,1-.1,1-.2,1-.1,1-.2,1-.2,1-.2,1-.2,1-.2,1-.2,1-.2,1-.3,1-.2,1-.3,1-.3,1-.3,1-.3,1-.3,1-.3,1-.3,1-.3,1-.4,1-.3,1-.4,1-.4,1-.4,1-.3,1-.4,1-.5,1-.4,1-.4,1-.5,1-.4,1-.5,1-.5,1-.4,1-.5,1-.5,1-.5,1-.6,1-.5,1-.5,1-.6,1-.6,1-.5,1-.6,1-.6,1-.6,1-.6,1-.6,1-.7,1-.6,1-.6,1-.7,1-.7,1-.6,1-.7,1-.7,1-.7,1-.7,1-.8,1-.7,1-.7,1-.8,1-.7,1-.8,1-.8,1-.8,1-.8,1-.8,1-.8,1-.8,1-.8,1-.9,1-.8,1-.9,1-.9,1-.8,1-.9,1-.9,1-.9,1-.9,1-.9,1-.9,1-1,1-.9,1-1,1-.9,1-1,1-.9,1-1,1-1,1-1,1-1,1-1,1-1,1-1,1-1.1,1-1,1-1.1,1-1,1-1.1,1-1,1-1.1,1-1.1,1-1.1,1-1.1,1-1.1,1-1.1,1-1.1,1-1.1,1-1.1,1-1.1,1-1.2,1-1.1,1-1.2,1-1.1,1-1.2,1-1.1,1-1.2,1-1.2,1-1.2,1-1.1,1-1.2,1-1.2,1-1.2,1-1.2,1-1.2,1-1.3,1-1.2,1-1.2,1-1.2,1-1.3,1-1.2,1-1.2,1-1.3,1-1.2,1-1.3,1-1.3,1-1.2,1-1.3,1-1.3,1-1.2,1-1.3,1-1.3,1-1.3,1-1.2,1-1.3,1-1.3,1-1.3,1-1.3,1-1.3,1-1.3,1-1.3,1-1.3,1-1.3,1-1.4,1-1.3,1-1.3,1-1.3,1-1.3,1-1.3,1-1.4,1-1.3,1-1.3,1-1.3,1-1.4,1-1.3,1-1.3,1-1.3,1-1.4,1-1.3,1-1.3,1-1.4,1-1.3,1-1.3,1-1.4,1-1.3,1-1.3,1-1.4,1-1.3,1-1.3,1-1.4,1-1.3,1-1.3,1-1.4,1-1.3,1-1.3,1-1.4,1-1.3,1-1.3,1-1.3,1-1.3,1-1.4,1-1.3,1-1.3,1-1.3,1-1.3,1-1.3,1-1.4,1-1.3,1-1.3,1-1.3,1-1.3,1-1.3,1-1.3,1-1.3,1-1.2,1-1.3,1-1.3,1-1.3,1-1.3,1-1.2,1-1.3,1-1.3,1-1.2,1-1.3,1-1.2,1-1.3,1-1.2,1-1.3,1-1.2,1-1.3,1-1.2,1-1.2,1-1.2,1-1.3,1-1.2,1-1.2,1-1.2,1-1.2,1-1.2,1-1.1,1-1.2,1-1.2,1-1.2,1-1.1,1-1.2,1-1.1,1-1.2,1-1.1,1-1.2,1-1.1,1-1.1,1-1.1,1-1.2,1-1.1,1-1.1,1-1.1,1-1,1-1.1,1-1.1,1-1.1,1-1,1-1.1,1-1,1-1,1-1.1,1-1,1-1,1-1,1-1,1-1,1-1,1-1,1-1,1-.9,1-1,1-.9,1-1,1-.9,1-.9,1-.9,1-.9,1-.9,1-.9,1-.9,1-.9,1-.9,1-.8,1-.9,1-.8,1-.8,1-.9,1-.8,1-.8,1-.8,1-.8,1-.7,1-.8,1-.8,1-.7,1-.8,1-.7,1-.7,1-.7,1-.7,1-.7,1-.7,1-.7,1-.7,1-.6,1-.7,1-.6,1-.6,1-.7,1-.6,1-.6,1-.6,1-.5,1-.6,1-.6,1-.5,1-.6,1-.5,1-.5,1-.5,1-.6,1-.4,1-.5,1-.5,1-.5,1-.4,1-.5,1-.4,1-.4,1-.4,1-.4,1-.4,1-.4,1-.4,1-.4,1-.3,1-.4,1-.3,1-.3,1-.3,1-.3,1-.3,1-.3,1-.3,1-.3,1-.2,1-.3,1-.2,1-.2,1-.2,1-.2,1-.2,1-.2,1-.2,1-.2,1-.1,1-.2,1-.1,1-.1,1-.1,1-.1,1-.1,1-.1,1-.1,1-.1h1l1-.1h1l1-.1h5l1,.1h2l1,.1,1,.1h1l1,.1,1,.1,1,.1,1,.1,1,.1,1,.2,1,.1,1,.1,1,.2,1,.2,1,.1,1,.2,1,.2,1,.2,1,.2,1,.2,1,.2,1,.3,1,.2,1,.3,1,.2,1,.3,1,.2,1,.3,1,.3,1,.3,1,.3,1,.3,1,.3,1,.4,1,.3,1,.3,1,.4,1,.3,1,.4,1,.4,1,.3,1,.4,1,.4,1,.4,1,.4,1,.4,1,.4,1,.5,1,.4,1,.4,1,.5,1,.4,1,.5,1,.4,1,.5,1,.5,1,.5,1,.4,1,.5,1,.5,1,.5,1,.5,1,.6,1,.5,1,.5,1,.5,1,.6,1,.5,1,.5,1,.6,1,.5,1,.6,1,.6,1,.5,1,.6,1,.6,1,.5,1,.6,1,.6,1,.6,1,.6,1,.6,1,.6,1,.6,1,.6,1,.6,1,.6,1,.7,1,.6,1,.6,1,.6,1,.7,1,.6,1,.6,1,.7,1,.6,1,.7,1,.6,1,.6,1,.7,1,.6,1,.7,1,.6,1,.7"/><g id="f50ed8db-8650-42ca-84e0-abd8178db0bc" data-name="a54f4753-2181-4ae7-a1a9-101ce04cedd7"><circle id="ac1db9dc-c865-42ef-af75-a5ee83fde19e" data-name="ba10a735-db10-4609-a543-99d2c37656be" class="b5c6450d-8407-47ec-91b2-acea856386f6" cx="516" cy="170.967" r="4"/></g></g></g></g><rect class="fda22335-a531-4fc4-bf56-c6f3a8f89a81" x="16" y="16" width="700" height="400"/></g><g id="ac881c62-8623-4325-85c0-ac2e57cbfbf1" data-name="f3699491-513e-4108-9de4-37ab07a55640"><g id="f6b0be5a-7a26-4870-aa64-24194ebac961" data-name="e46c782e-87e8-4418-96f6-4c676996b1f3"><line id="a353a25d-3ba3-4e1e-8da9-399b9973b183" data-name="aff1a092-627d-41ca-9e34-588a697bf9db" class="fda22335-a531-4fc4-bf56-c6f3a8f89a81" x1="24" y1="491" x2="708" y2="491"/><g id="a50afa56-a401-4468-affe-a39beb42472e" data-name="b8253033-4589-4286-9356-001e3101f760"><circle id="f37498a1-fcb3-429b-9a4c-ffd1c04d0615" data-name="eb752b19-828d-447c-9101-47083ed9e02c" class="b5c6450d-8407-47ec-91b2-acea856386f6" cx="53.644" cy="491" r="8.5"/><circle id="f6472307-6fe2-400e-b215-fe85e76dd02b" data-name="a5d23aa8-81af-46e9-855b-57b7083dc963" class="b5c6450d-8407-47ec-91b2-acea856386f6" cx="53.644" cy="491" r="8.8"/></g></g><rect id="e4509f87-39c2-48b8-a96c-9bc7ba636ca7" data-name="b589524f-47b0-4399-969d-83ad557b10de" class="ba0bdac3-823d-4266-9cce-294f6ec1c771" x="41" y="41" width="120" height="100"/><g id="ed770dc6-2661-4860-8496-bb154d7a5357" data-name="f71b5b48-6dc9-4cf6-909d-4104e3811518"><g id="af2b9965-32f3-4ef5-9aca-8dc8deaf5fad" data-name="aef0ebad-3529-49f3-8910-518b702652f2"><path id="b6a21ed1-c468-4dbe-998d-67c55fa79806" data-name="f7c11c9a-1c8d-4684-bc7f-a1515cdcf28b" class="adb28bf8-03d4-4355-9385-fb185bc3a165" d="M60,59.5h0A6.5,6.5,0,0,1,66.5,66h0A6.5,6.5,0,0,1,60,72.5h0A6.5,6.5,0,0,1,53.5,66h0A6.5,6.5,0,0,1,60,59.5Z"/><text id="b4a628ef-f75a-4b10-bd26-7357c4cd1c15" data-name="b75b20c0-3342-470a-ac5c-ebf6ae14c29b" class="fd1371c4-80c0-4675-9725-e44706372914" transform="translate(76 72)">left</text></g><g id="b5a08c24-9257-4eeb-8210-6c2049d83f82" data-name="e50d3dce-f72a-4a57-9dc3-7c0f6218d880"><path id="f3de3946-7b8f-42e0-8d47-4c7c71b6bbea" data-name="a1c182eb-5e78-47a6-80bb-e33fb8d9fa02" class="fda22335-a531-4fc4-bf56-c6f3a8f89a81" d="M60,83.5h0A6.5,6.5,0,0,1,66.5,90h0A6.5,6.5,0,0,1,60,96.5h0A6.5,6.5,0,0,1,53.5,90h0A6.5,6.5,0,0,1,60,83.5Z"/><text id="eefe95c9-acd8-4f7e-bf93-3b9877474741" data-name="a67d210d-51fa-4b44-b510-470ba19d7d36" class="fd1371c4-80c0-4675-9725-e44706372914" transform="translate(76 96)">right</text></g><g id="bd2a2858-5354-4f88-811d-4df4af0e1c5c" data-name="e50ada26-3a5e-4948-ae21-f28e67d31f1b"><path id="a5ff9e26-f240-437b-829f-94538ec17504" data-name="b8167205-dc26-4897-8ced-fac0d2d2f693" class="fda22335-a531-4fc4-bf56-c6f3a8f89a81" d="M60,107.5h0a6.5,6.5,0,0,1,6.5,6.5h0a6.5,6.5,0,0,1-6.5,6.5h0a6.5,6.5,0,0,1-6.5-6.5h0a6.5,6.5,0,0,1,6.5-6.5Z"/><text id="f82aae71-6a8f-4a48-a74d-8c41aafc335b" data-name="e82b0219-529d-4b02-afd6-42683e238377" class="fd1371c4-80c0-4675-9725-e44706372914" transform="translate(76 120)">trapezoid</text></g></g></g><text id="fb1264c6-3c80-41c6-a8da-94ed5bd08a4a" data-name="b9851895-1020-4e90-b51e-46e3c1151f0b" class="f3fb2b4e-df50-4de8-a567-30b606809422" transform="translate(109.882 441)">a</text><text id="b9b09e5b-7e95-4f01-9979-a06139b13fcd" data-name="faa64b46-d065-49b2-a2b4-b45528df8aa4" class="f3fb2b4e-df50-4de8-a567-30b606809422" transform="translate(509.883 441)">b</text><rect class="a0a3f9dc-c54f-4eab-9260-23562662a13a" x="34" y="35" width="135" height="112"/><text class="fb4a333c-d8db-42cd-94ca-f3b54cd95fc3" transform="translate(182.644 59.5)">A</text><text class="fb4a333c-d8db-42cd-94ca-f3b54cd95fc3" transform="translate(124.979 258)">B</text><text class="fb4a333c-d8db-42cd-94ca-f3b54cd95fc3" transform="translate(138.123 456.406)">E</text><text class="fb4a333c-d8db-42cd-94ca-f3b54cd95fc3" transform="translate(537.757 456.406)">F</text><text class="fb4a333c-d8db-42cd-94ca-f3b54cd95fc3" transform="translate(537.757 274.636)">D</text><text class="fb4a333c-d8db-42cd-94ca-f3b54cd95fc3" transform="translate(45.144 463.294)">G</text><text class="fb4a333c-d8db-42cd-94ca-f3b54cd95fc3" transform="translate(537.757 176.021)">C</text><circle class="a0a3f9dc-c54f-4eab-9260-23562662a13a" cx="53.644" cy="491" r="15"/><circle class="eace46a5-5681-418f-853c-e3777c4fe4f4" cx="515.858" cy="171.095" r="13"/><rect class="fda22335-a531-4fc4-bf56-c6f3a8f89a81" x="115.801" y="278.58" width="44.644" height="137.42"/><rect class="fda22335-a531-4fc4-bf56-c6f3a8f89a81" x="160.444" y="305.267" width="44.444" height="110.733"/><rect class="fda22335-a531-4fc4-bf56-c6f3a8f89a81" x="204.889" y="334.333" width="44.444" height="81.667"/><rect class="fda22335-a531-4fc4-bf56-c6f3a8f89a81" x="249.333" y="357.333" width="44.444" height="58.667"/><rect class="fda22335-a531-4fc4-bf56-c6f3a8f89a81" x="293.778" y="366.878" width="44.444" height="49.122"/><rect class="fda22335-a531-4fc4-bf56-c6f3a8f89a81" x="338.222" y="358.268" width="44.444" height="57.732"/><rect class="fda22335-a531-4fc4-bf56-c6f3a8f89a81" x="382.667" y="330.306" width="44.444" height="85.694"/><rect class="fda22335-a531-4fc4-bf56-c6f3a8f89a81" x="427.111" y="285.533" width="44.444" height="130.467"/><rect class="fda22335-a531-4fc4-bf56-c6f3a8f89a81" x="471.556" y="229.767" width="44.444" height="186.233"/><circle class="eace46a5-5681-418f-853c-e3777c4fe4f4" cx="116.034" cy="278.58" r="13"/><circle class="eace46a5-5681-418f-853c-e3777c4fe4f4" cx="116.034" cy="436" r="13"/><circle class="eace46a5-5681-418f-853c-e3777c4fe4f4" cx="514.858" cy="435" r="13"/><g id="babf4916-5aa9-41de-8982-a6406862f018" data-name="b68269c1-58e4-4a7d-849c-347fae0aa9a9"><circle id="bf55da83-e7f4-4392-a9b6-19141f282084" data-name="af993e37-f4c5-4d13-8422-62d720e6f251" class="b5c6450d-8407-47ec-91b2-acea856386f6" cx="116" cy="278.636" r="4"/></g></svg>