<svg id="svg100" xmlns="http://www.w3.org/2000/svg" xmlns:xlink="http://www.w3.org/1999/xlink" viewBox="0 0 400 400"><defs><style>.cls-1{clip-path:url(#clip-path);}.cls-2,.cls-3,.cls-4{fill:none;stroke:#000;stroke-miterlimit:10;}.cls-2,.cls-3{stroke-width:5px;}.cls-3{stroke-dasharray:12.53 12.53;}.cls-4{stroke-width:7px;}</style><clipPath id="clip-path"><rect id="rect109" x="75" y="75" width="250" height="250" transform="translate(-82.84 200) rotate(-45)"/></clipPath></defs><title>rotate</title><rect id="rect109-2" data-name="rect109" x="75" y="75" width="250" height="250" transform="translate(-82.84 200) rotate(-45)"/><g class="cls-1"><g id="g101"><rect id="rect109-3" data-name="rect109" x="75" y="75" width="250" height="250"/></g></g><polyline class="cls-2" points="325 319 325 325 319 325"/><line class="cls-3" x1="306.47" y1="325" x2="87.26" y2="325"/><polyline class="cls-2" points="81 325 75 325 75 319"/><line class="cls-3" x1="75" y1="306.47" x2="75" y2="87.26"/><polyline class="cls-2" points="75 81 75 75 81 75"/><line class="cls-3" x1="93.53" y1="75" x2="312.74" y2="75"/><polyline class="cls-2" points="319 75 325 75 325 81"/><line class="cls-3" x1="325" y1="93.53" x2="325" y2="312.74"/><path class="cls-4" d="M325,75A176.24,176.24,0,0,0,220.06,24.35"/><polygon points="225.06 10.91 200 23.22 223.19 38.77 225.06 10.91"/></svg>