<svg id="Layer_1" data-name="Layer 1" xmlns="http://www.w3.org/2000/svg" viewBox="0 0 215.11 215.11"><defs><style>.cls-1{fill:none;stroke:#000;stroke-miterlimit:10;}</style></defs><title>svg-coordinate-system-point</title><polyline class="cls-1" points="166.41 10 10 10 10 166.41"/><polygon points="165.68 7.51 170 10 165.68 12.49 165.68 7.51"/><polygon points="7.51 165.68 10 170 12.49 165.68 7.51 165.68"/><path d="M176.54,6.74l1.17,1.77c.31.46.56.88.83,1.34h.05c.28-.49.55-.91.82-1.36l1.16-1.75h1.61l-2.8,4L182.26,15h-1.69l-1.21-1.85c-.32-.48-.6-.94-.89-1.43h0c-.27.49-.56.93-.87,1.43L176.38,15h-1.65l2.93-4.2-2.79-4Z"/><path d="M7.38,176.74l1.81,4.86c.18.55.39,1.19.52,1.69h0c.15-.5.32-1.12.52-1.72l1.64-4.83h1.58l-2.25,5.87c-1.07,2.82-1.8,4.26-2.82,5.15a4.12,4.12,0,0,1-1.84,1l-.37-1.26a4.07,4.07,0,0,0,1.31-.73,4.47,4.47,0,0,0,1.26-1.67,1,1,0,0,0,.12-.36,1.39,1.39,0,0,0-.11-.39l-3-7.58Z"/><path d="M114.89,100.65a17,17,0,0,1,2.84-.22,4.71,4.71,0,0,1,3.21.95,3.08,3.08,0,0,1,1,2.4,3.35,3.35,0,0,1-.89,2.44,4.72,4.72,0,0,1-3.5,1.26,5.39,5.39,0,0,1-1.19-.1V112h-1.48Zm1.48,5.52a4.69,4.69,0,0,0,1.22.12c1.79,0,2.88-.86,2.88-2.45s-1.07-2.24-2.71-2.24a6,6,0,0,0-1.39.12Z"/><path d="M130.73,100.17a11.23,11.23,0,0,0-2.14,7,11.52,11.52,0,0,0,2.14,6.91h-1.17a11,11,0,0,1-2.23-6.91,11.26,11.26,0,0,1,2.23-7Z"/><path d="M135.09,102.31h0l-1.92,1-.29-1.14,2.42-1.29h1.27v11h-1.44Z"/><path d="M147.9,106.33c0,3.75-1.39,5.83-3.84,5.83-2.16,0-3.62-2-3.65-5.68s1.6-5.75,3.84-5.75S147.9,102.81,147.9,106.33Zm-6,.17c0,2.87.89,4.5,2.25,4.5,1.53,0,2.26-1.78,2.26-4.61s-.7-4.5-2.25-4.5C142.86,101.89,141.9,103.49,141.9,106.5Z"/><path d="M156.62,106.33c0,3.75-1.39,5.83-3.84,5.83-2.16,0-3.62-2-3.65-5.68s1.6-5.75,3.84-5.75S156.62,102.81,156.62,106.33Zm-6,.17c0,2.87.89,4.5,2.25,4.5,1.53,0,2.26-1.78,2.26-4.61s-.7-4.5-2.25-4.5C151.58,101.89,150.62,103.49,150.62,106.5Z"/><path d="M157.51,114.06a25.08,25.08,0,0,0,1-4.06l1.66-.17a20.58,20.58,0,0,1-1.61,4.13Z"/><path d="M165,109.17a3.15,3.15,0,0,1,2.19-3l0,0a2.75,2.75,0,0,1-1.75-2.49c0-1.75,1.48-2.94,3.42-2.94,2.14,0,3.21,1.35,3.21,2.72a2.81,2.81,0,0,1-1.82,2.59v0a3.05,3.05,0,0,1,2.23,2.85c0,1.93-1.65,3.22-3.76,3.22C166.38,112.16,165,110.78,165,109.17Zm5.95-.07c0-1.35-.94-2-2.43-2.42a2.4,2.4,0,0,0-2,2.28,2,2,0,0,0,2.21,2.11A2,2,0,0,0,170.94,109.1Zm-4.12-5.53c0,1.11.84,1.7,2.11,2a2.18,2.18,0,0,0,1.69-2,1.72,1.72,0,0,0-1.87-1.81A1.76,1.76,0,0,0,166.82,103.57Z"/><path d="M181.19,106.33c0,3.75-1.4,5.83-3.84,5.83-2.16,0-3.62-2-3.66-5.68s1.6-5.75,3.84-5.75S181.19,102.81,181.19,106.33Zm-6,.17c0,2.87.88,4.5,2.24,4.5,1.53,0,2.26-1.78,2.26-4.61s-.69-4.5-2.24-4.5C176.14,101.89,175.19,103.49,175.19,106.5Z"/><path d="M182.14,114a11.52,11.52,0,0,0,2.14-7,11.25,11.25,0,0,0-2.14-6.9h1.16a10.89,10.89,0,0,1,2.22,6.92A11.11,11.11,0,0,1,183.3,114Z"/><path d="M23.09,20.17a11.23,11.23,0,0,0-2.15,7A11.45,11.45,0,0,0,23.09,34H21.91a11,11,0,0,1-2.22-6.91,11.2,11.2,0,0,1,2.22-6.95Z"/><path d="M31.54,26.33c0,3.75-1.4,5.83-3.85,5.83-2.15,0-3.62-2-3.65-5.68s1.6-5.75,3.84-5.75S31.54,22.81,31.54,26.33Zm-6,.17c0,2.87.88,4.5,2.24,4.5C29.31,31,30,29.22,30,26.39s-.7-4.5-2.24-4.5C26.49,21.89,25.54,23.49,25.54,26.5Z"/><path d="M32.42,34.06a25.08,25.08,0,0,0,1-4.06l1.67-.17A21.15,21.15,0,0,1,33.49,34Z"/><path d="M47.38,26.33c0,3.75-1.4,5.83-3.84,5.83-2.16,0-3.62-2-3.66-5.68s1.6-5.75,3.84-5.75S47.38,22.81,47.38,26.33Zm-6,.17c0,2.87.88,4.5,2.24,4.5,1.53,0,2.26-1.78,2.26-4.61s-.69-4.5-2.24-4.5C42.33,21.89,41.38,23.49,41.38,26.5Z"/><path d="M48.33,34a11.52,11.52,0,0,0,2.14-7,11.25,11.25,0,0,0-2.14-6.9h1.16a10.89,10.89,0,0,1,2.22,6.92A11.11,11.11,0,0,1,49.49,34Z"/><polyline class="cls-1" points="10 90 110 90 110 10"/><circle cx="110" cy="90" r="2"/><circle cx="10" cy="10" r="2"/></svg>