<?xml version="1.0" encoding="utf-8"?>
<!-- Generator: Adobe Illustrator 23.0.4, SVG Export Plug-In . SVG Version: 6.00 Build 0)  -->
<svg version="1.1" id="interactive-0" xmlns="http://www.w3.org/2000/svg" xmlns:xlink="http://www.w3.org/1999/xlink" x="0px"
	 y="0px" viewBox="0 0 400 200" style="enable-background:new 0 0 400 200;" xml:space="preserve">
<style type="text/css">
	.st0{clip-path:url(#SVGID_2_);}
	.st1{fill:#D3D3D3;stroke:#404040;}
	.st2{fill:none;stroke:#404040;}
	.st3{display:none;fill:#0366EE;}
	.st4{fill-opacity:0;}
</style>
<g>
	<defs>
		<circle id="SVGID_1_" cx="200" cy="100" r="50"/>
	</defs>
	<clipPath id="SVGID_2_">
		<use xlink:href="#SVGID_1_"  style="overflow:visible;"/>
	</clipPath>
	<g class="st0">
		<rect id="rectangle-1" x="-152" y="-50" class="st1" width="30" height="30"/>
		<rect id="rectangle-2" x="-152" y="-20" class="st2" width="30" height="30"/>
		<rect id="rectangle-3" x="-152" y="10" class="st1" width="30" height="30"/>
		<rect id="rectangle-4" x="-152" y="40" class="st2" width="30" height="30"/>
		<rect id="rectangle-5" x="-152" y="70" class="st1" width="30" height="30"/>
		<rect id="rectangle-6" x="-152" y="100" class="st2" width="30" height="30"/>
		<rect id="rectangle-7" x="-152" y="130" class="st1" width="30" height="30"/>
		<rect id="rectangle-8" x="-152" y="160" class="st2" width="30" height="30"/>
		<rect id="rectangle-9" x="-152" y="190" class="st1" width="30" height="30"/>
		<rect id="rectangle-10" x="-152" y="220" class="st2" width="30" height="30"/>
		<rect id="rectangle-11" x="-122" y="-50" class="st2" width="30" height="30"/>
		<rect id="rectangle-12" x="-122" y="-20" class="st1" width="30" height="30"/>
		<rect id="rectangle-13" x="-122" y="10" class="st2" width="30" height="30"/>
		<rect id="rectangle-14" x="-122" y="40" class="st1" width="30" height="30"/>
		<rect id="rectangle-15" x="-122" y="70" class="st2" width="30" height="30"/>
		<rect id="rectangle-16" x="-122" y="100" class="st1" width="30" height="30"/>
		<rect id="rectangle-17" x="-122" y="130" class="st2" width="30" height="30"/>
		<rect id="rectangle-18" x="-122" y="160" class="st1" width="30" height="30"/>
		<rect id="rectangle-19" x="-122" y="190" class="st2" width="30" height="30"/>
		<rect id="rectangle-20" x="-122" y="220" class="st1" width="30" height="30"/>
		<rect id="rectangle-21" x="-92" y="-50" class="st1" width="30" height="30"/>
		<rect id="rectangle-22" x="-92" y="-20" class="st2" width="30" height="30"/>
		<rect id="rectangle-23" x="-92" y="10" class="st1" width="30" height="30"/>
		<rect id="rectangle-24" x="-92" y="40" class="st2" width="30" height="30"/>
		<rect id="rectangle-25" x="-92" y="70" class="st1" width="30" height="30"/>
		<rect id="rectangle-26" x="-92" y="100" class="st2" width="30" height="30"/>
		<rect id="rectangle-27" x="-92" y="130" class="st1" width="30" height="30"/>
		<rect id="rectangle-28" x="-92" y="160" class="st2" width="30" height="30"/>
		<rect id="rectangle-29" x="-92" y="190" class="st1" width="30" height="30"/>
		<rect id="rectangle-30" x="-92" y="220" class="st2" width="30" height="30"/>
		<rect id="rectangle-31" x="-62" y="-50" class="st2" width="30" height="30"/>
		<rect id="rectangle-32" x="-62" y="-20" class="st1" width="30" height="30"/>
		<rect id="rectangle-33" x="-62" y="10" class="st2" width="30" height="30"/>
		<rect id="rectangle-34" x="-62" y="40" class="st1" width="30" height="30"/>
		<rect id="rectangle-35" x="-62" y="70" class="st2" width="30" height="30"/>
		<rect id="rectangle-36" x="-62" y="100" class="st1" width="30" height="30"/>
		<rect id="rectangle-37" x="-62" y="130" class="st2" width="30" height="30"/>
		<rect id="rectangle-38" x="-62" y="160" class="st1" width="30" height="30"/>
		<rect id="rectangle-39" x="-62" y="190" class="st2" width="30" height="30"/>
		<rect id="rectangle-40" x="-62" y="220" class="st1" width="30" height="30"/>
		<rect id="rectangle-41" x="-32" y="-50" class="st1" width="30" height="30"/>
		<rect id="rectangle-42" x="-32" y="-20" class="st2" width="30" height="30"/>
		<rect id="rectangle-43" x="-32" y="10" class="st1" width="30" height="30"/>
		<rect id="rectangle-44" x="-32" y="40" class="st2" width="30" height="30"/>
		<rect id="rectangle-45" x="-32" y="70" class="st1" width="30" height="30"/>
		<rect id="rectangle-46" x="-32" y="100" class="st2" width="30" height="30"/>
		<rect id="rectangle-47" x="-32" y="130" class="st1" width="30" height="30"/>
		<rect id="rectangle-48" x="-32" y="160" class="st2" width="30" height="30"/>
		<rect id="rectangle-49" x="-32" y="190" class="st1" width="30" height="30"/>
		<rect id="rectangle-50" x="-32" y="220" class="st2" width="30" height="30"/>
		<rect id="rectangle-51" x="-2" y="-50" class="st2" width="30" height="30"/>
		<rect id="rectangle-52" x="-2" y="-20" class="st1" width="30" height="30"/>
		<rect id="rectangle-53" x="-2" y="10" class="st2" width="30" height="30"/>
		<rect id="rectangle-54" x="-2" y="40" class="st1" width="30" height="30"/>
		<rect id="rectangle-55" x="-2" y="70" class="st2" width="30" height="30"/>
		<rect id="rectangle-56" x="-2" y="100" class="st1" width="30" height="30"/>
		<rect id="rectangle-57" x="-2" y="130" class="st2" width="30" height="30"/>
		<rect id="rectangle-58" x="-2" y="160" class="st1" width="30" height="30"/>
		<rect id="rectangle-59" x="-2" y="190" class="st2" width="30" height="30"/>
		<rect id="rectangle-60" x="-2" y="220" class="st1" width="30" height="30"/>
		<rect id="rectangle-61" x="28" y="-50" class="st1" width="30" height="30"/>
		<rect id="rectangle-62" x="28" y="-20" class="st2" width="30" height="30"/>
		<rect id="rectangle-63" x="28" y="10" class="st1" width="30" height="30"/>
		<rect id="rectangle-64" x="28" y="40" class="st2" width="30" height="30"/>
		<rect id="rectangle-65" x="28" y="70" class="st1" width="30" height="30"/>
		<rect id="rectangle-66" x="28" y="100" class="st2" width="30" height="30"/>
		<rect id="rectangle-67" x="28" y="130" class="st1" width="30" height="30"/>
		<rect id="rectangle-68" x="28" y="160" class="st2" width="30" height="30"/>
		<rect id="rectangle-69" x="28" y="190" class="st1" width="30" height="30"/>
		<rect id="rectangle-70" x="28" y="220" class="st2" width="30" height="30"/>
		<rect id="rectangle-71" x="58" y="-50" class="st2" width="30" height="30"/>
		<rect id="rectangle-72" x="58" y="-20" class="st1" width="30" height="30"/>
		<rect id="rectangle-73" x="58" y="10" class="st2" width="30" height="30"/>
		<rect id="rectangle-74" x="58" y="40" class="st1" width="30" height="30"/>
		<rect id="rectangle-75" x="58" y="70" class="st2" width="30" height="30"/>
		<rect id="rectangle-76" x="58" y="100" class="st1" width="30" height="30"/>
		<rect id="rectangle-77" x="58" y="130" class="st2" width="30" height="30"/>
		<rect id="rectangle-78" x="58" y="160" class="st1" width="30" height="30"/>
		<rect id="rectangle-79" x="58" y="190" class="st2" width="30" height="30"/>
		<rect id="rectangle-80" x="58" y="220" class="st1" width="30" height="30"/>
		<rect id="rectangle-81" x="88" y="-50" class="st1" width="30" height="30"/>
		<rect id="rectangle-82" x="88" y="-20" class="st2" width="30" height="30"/>
		<rect id="rectangle-83" x="88" y="10" class="st1" width="30" height="30"/>
		<rect id="rectangle-84" x="88" y="40" class="st2" width="30" height="30"/>
		<rect id="rectangle-85" x="88" y="70" class="st1" width="30" height="30"/>
		<rect id="rectangle-86" x="88" y="100" class="st2" width="30" height="30"/>
		<rect id="rectangle-87" x="88" y="130" class="st1" width="30" height="30"/>
		<rect id="rectangle-88" x="88" y="160" class="st2" width="30" height="30"/>
		<rect id="rectangle-89" x="88" y="190" class="st1" width="30" height="30"/>
		<rect id="rectangle-90" x="88" y="220" class="st2" width="30" height="30"/>
		<rect id="rectangle-91" x="118" y="-50" class="st2" width="30" height="30"/>
		<rect id="rectangle-92" x="118" y="-20" class="st1" width="30" height="30"/>
		<rect id="rectangle-93" x="118" y="10" class="st2" width="30" height="30"/>
		<rect id="rectangle-94" x="118" y="40" class="st1" width="30" height="30"/>
		<rect id="rectangle-95" x="118" y="70" class="st2" width="30" height="30"/>
		<rect id="rectangle-96" x="118" y="100" class="st1" width="30" height="30"/>
		<rect id="rectangle-97" x="118" y="130" class="st2" width="30" height="30"/>
		<rect id="rectangle-98" x="118" y="160" class="st1" width="30" height="30"/>
		<rect id="rectangle-99" x="118" y="190" class="st2" width="30" height="30"/>
		<rect id="rectangle-100" x="118" y="220" class="st1" width="30" height="30"/>
		<rect id="rectangle-101" x="148" y="-50" class="st1" width="30" height="30"/>
		<rect id="rectangle-102" x="148" y="-20" class="st2" width="30" height="30"/>
		<rect id="rectangle-103" x="148" y="10" class="st1" width="30" height="30"/>
		<rect id="rectangle-104" x="148" y="40" class="st2" width="30" height="30"/>
		<rect id="rectangle-105" x="148" y="70" class="st1" width="30" height="30"/>
		<rect id="rectangle-106" x="148" y="100" class="st2" width="30" height="30"/>
		<rect id="rectangle-107" x="148" y="130" class="st1" width="30" height="30"/>
		<rect id="rectangle-108" x="148" y="160" class="st2" width="30" height="30"/>
		<rect id="rectangle-109" x="148" y="190" class="st1" width="30" height="30"/>
		<rect id="rectangle-110" x="148" y="220" class="st2" width="30" height="30"/>
		<rect id="rectangle-111" x="178" y="-50" class="st2" width="30" height="30"/>
		<rect id="rectangle-112" x="178" y="-20" class="st1" width="30" height="30"/>
		<rect id="rectangle-113" x="178" y="10" class="st2" width="30" height="30"/>
		<rect id="rectangle-114" x="178" y="40" class="st1" width="30" height="30"/>
		<rect id="rectangle-115" x="178" y="70" class="st2" width="30" height="30"/>
		<rect id="rectangle-116" x="178" y="100" class="st1" width="30" height="30"/>
		<rect id="rectangle-117" x="178" y="130" class="st2" width="30" height="30"/>
		<rect id="rectangle-118" x="178" y="160" class="st1" width="30" height="30"/>
		<rect id="rectangle-119" x="178" y="190" class="st2" width="30" height="30"/>
		<rect id="rectangle-120" x="178" y="220" class="st1" width="30" height="30"/>
		<rect id="rectangle-121" x="208" y="-50" class="st1" width="30" height="30"/>
		<rect id="rectangle-122" x="208" y="-20" class="st2" width="30" height="30"/>
		<rect id="rectangle-123" x="208" y="10" class="st1" width="30" height="30"/>
		<rect id="rectangle-124" x="208" y="40" class="st2" width="30" height="30"/>
		<rect id="rectangle-125" x="208" y="70" class="st1" width="30" height="30"/>
		<rect id="rectangle-126" x="208" y="100" class="st2" width="30" height="30"/>
		<rect id="rectangle-127" x="208" y="130" class="st1" width="30" height="30"/>
		<rect id="rectangle-128" x="208" y="160" class="st2" width="30" height="30"/>
		<rect id="rectangle-129" x="208" y="190" class="st1" width="30" height="30"/>
		<rect id="rectangle-130" x="208" y="220" class="st2" width="30" height="30"/>
		<rect id="rectangle-131" x="238" y="-50" class="st2" width="30" height="30"/>
		<rect id="rectangle-132" x="238" y="-20" class="st1" width="30" height="30"/>
		<rect id="rectangle-133" x="238" y="10" class="st2" width="30" height="30"/>
		<rect id="rectangle-134" x="238" y="40" class="st1" width="30" height="30"/>
		<rect id="rectangle-135" x="238" y="70" class="st2" width="30" height="30"/>
		<rect id="rectangle-136" x="238" y="100" class="st1" width="30" height="30"/>
		<rect id="rectangle-137" x="238" y="130" class="st2" width="30" height="30"/>
		<rect id="rectangle-138" x="238" y="160" class="st1" width="30" height="30"/>
		<rect id="rectangle-139" x="238" y="190" class="st2" width="30" height="30"/>
		<rect id="rectangle-140" x="238" y="220" class="st1" width="30" height="30"/>
		<rect id="rectangle-141" x="268" y="-50" class="st1" width="30" height="30"/>
		<rect id="rectangle-142" x="268" y="-20" class="st2" width="30" height="30"/>
		<rect id="rectangle-143" x="268" y="10" class="st1" width="30" height="30"/>
		<rect id="rectangle-144" x="268" y="40" class="st2" width="30" height="30"/>
		<rect id="rectangle-145" x="268" y="70" class="st1" width="30" height="30"/>
		<rect id="rectangle-146" x="268" y="100" class="st2" width="30" height="30"/>
		<rect id="rectangle-147" x="268" y="130" class="st1" width="30" height="30"/>
		<rect id="rectangle-148" x="268" y="160" class="st2" width="30" height="30"/>
		<rect id="rectangle-149" x="268" y="190" class="st1" width="30" height="30"/>
		<rect id="rectangle-150" x="268" y="220" class="st2" width="30" height="30"/>
		<rect id="rectangle-151" x="298" y="-50" class="st2" width="30" height="30"/>
		<rect id="rectangle-152" x="298" y="-20" class="st1" width="30" height="30"/>
		<rect id="rectangle-153" x="298" y="10" class="st2" width="30" height="30"/>
		<rect id="rectangle-154" x="298" y="40" class="st1" width="30" height="30"/>
		<rect id="rectangle-155" x="298" y="70" class="st2" width="30" height="30"/>
		<rect id="rectangle-156" x="298" y="100" class="st1" width="30" height="30"/>
		<rect id="rectangle-157" x="298" y="130" class="st2" width="30" height="30"/>
		<rect id="rectangle-158" x="298" y="160" class="st1" width="30" height="30"/>
		<rect id="rectangle-159" x="298" y="190" class="st2" width="30" height="30"/>
		<rect id="rectangle-160" x="298" y="220" class="st1" width="30" height="30"/>
		<rect id="rectangle-161" x="328" y="-50" class="st1" width="30" height="30"/>
		<rect id="rectangle-162" x="328" y="-20" class="st2" width="30" height="30"/>
		<rect id="rectangle-163" x="328" y="10" class="st1" width="30" height="30"/>
		<rect id="rectangle-164" x="328" y="40" class="st2" width="30" height="30"/>
		<rect id="rectangle-165" x="328" y="70" class="st1" width="30" height="30"/>
		<rect id="rectangle-166" x="328" y="100" class="st2" width="30" height="30"/>
		<rect id="rectangle-167" x="328" y="130" class="st1" width="30" height="30"/>
		<rect id="rectangle-168" x="328" y="160" class="st2" width="30" height="30"/>
		<rect id="rectangle-169" x="328" y="190" class="st1" width="30" height="30"/>
		<rect id="rectangle-170" x="328" y="220" class="st2" width="30" height="30"/>
		<rect id="rectangle-171" x="358" y="-50" class="st2" width="30" height="30"/>
		<rect id="rectangle-172" x="358" y="-20" class="st1" width="30" height="30"/>
		<rect id="rectangle-173" x="358" y="10" class="st2" width="30" height="30"/>
		<rect id="rectangle-174" x="358" y="40" class="st1" width="30" height="30"/>
		<rect id="rectangle-175" x="358" y="70" class="st2" width="30" height="30"/>
		<rect id="rectangle-176" x="358" y="100" class="st1" width="30" height="30"/>
		<rect id="rectangle-177" x="358" y="130" class="st2" width="30" height="30"/>
		<rect id="rectangle-178" x="358" y="160" class="st1" width="30" height="30"/>
		<rect id="rectangle-179" x="358" y="190" class="st2" width="30" height="30"/>
		<rect id="rectangle-180" x="358" y="220" class="st1" width="30" height="30"/>
		<rect id="rectangle-181" x="388" y="-50" class="st1" width="30" height="30"/>
		<rect id="rectangle-182" x="388" y="-20" class="st2" width="30" height="30"/>
		<rect id="rectangle-183" x="388" y="10" class="st1" width="30" height="30"/>
		<rect id="rectangle-184" x="388" y="40" class="st2" width="30" height="30"/>
		<rect id="rectangle-185" x="388" y="70" class="st1" width="30" height="30"/>
		<rect id="rectangle-186" x="388" y="100" class="st2" width="30" height="30"/>
		<rect id="rectangle-187" x="388" y="130" class="st1" width="30" height="30"/>
		<rect id="rectangle-188" x="388" y="160" class="st2" width="30" height="30"/>
		<rect id="rectangle-189" x="388" y="190" class="st1" width="30" height="30"/>
		<rect id="rectangle-190" x="388" y="220" class="st2" width="30" height="30"/>
		<rect id="rectangle-191" x="418" y="-50" class="st2" width="30" height="30"/>
		<rect id="rectangle-192" x="418" y="-20" class="st1" width="30" height="30"/>
		<rect id="rectangle-193" x="418" y="10" class="st2" width="30" height="30"/>
		<rect id="rectangle-194" x="418" y="40" class="st1" width="30" height="30"/>
		<rect id="rectangle-195" x="418" y="70" class="st2" width="30" height="30"/>
		<rect id="rectangle-196" x="418" y="100" class="st1" width="30" height="30"/>
		<rect id="rectangle-197" x="418" y="130" class="st2" width="30" height="30"/>
		<rect id="rectangle-198" x="418" y="160" class="st1" width="30" height="30"/>
		<rect id="rectangle-199" x="418" y="190" class="st2" width="30" height="30"/>
		<rect id="rectangle-200" x="418" y="220" class="st1" width="30" height="30"/>
		<rect id="rectangle-201" x="448" y="-50" class="st1" width="30" height="30"/>
		<rect id="rectangle-202" x="448" y="-20" class="st2" width="30" height="30"/>
		<rect id="rectangle-203" x="448" y="10" class="st1" width="30" height="30"/>
		<rect id="rectangle-204" x="448" y="40" class="st2" width="30" height="30"/>
		<rect id="rectangle-205" x="448" y="70" class="st1" width="30" height="30"/>
		<rect id="rectangle-206" x="448" y="100" class="st2" width="30" height="30"/>
		<rect id="rectangle-207" x="448" y="130" class="st1" width="30" height="30"/>
		<rect id="rectangle-208" x="448" y="160" class="st2" width="30" height="30"/>
		<rect id="rectangle-209" x="448" y="190" class="st1" width="30" height="30"/>
		<rect id="rectangle-210" x="448" y="220" class="st2" width="30" height="30"/>
		<rect id="rectangle-211" x="478" y="-50" class="st2" width="30" height="30"/>
		<rect id="rectangle-212" x="478" y="-20" class="st1" width="30" height="30"/>
		<rect id="rectangle-213" x="478" y="10" class="st2" width="30" height="30"/>
		<rect id="rectangle-214" x="478" y="40" class="st1" width="30" height="30"/>
		<rect id="rectangle-215" x="478" y="70" class="st2" width="30" height="30"/>
		<rect id="rectangle-216" x="478" y="100" class="st1" width="30" height="30"/>
		<rect id="rectangle-217" x="478" y="130" class="st2" width="30" height="30"/>
		<rect id="rectangle-218" x="478" y="160" class="st1" width="30" height="30"/>
		<rect id="rectangle-219" x="478" y="190" class="st2" width="30" height="30"/>
		<rect id="rectangle-220" x="478" y="220" class="st1" width="30" height="30"/>
		<rect id="rectangle-221" x="508" y="-50" class="st1" width="30" height="30"/>
		<rect id="rectangle-222" x="508" y="-20" class="st2" width="30" height="30"/>
		<rect id="rectangle-223" x="508" y="10" class="st1" width="30" height="30"/>
		<rect id="rectangle-224" x="508" y="40" class="st2" width="30" height="30"/>
		<rect id="rectangle-225" x="508" y="70" class="st1" width="30" height="30"/>
		<rect id="rectangle-226" x="508" y="100" class="st2" width="30" height="30"/>
		<rect id="rectangle-227" x="508" y="130" class="st1" width="30" height="30"/>
		<rect id="rectangle-228" x="508" y="160" class="st2" width="30" height="30"/>
		<rect id="rectangle-229" x="508" y="190" class="st1" width="30" height="30"/>
		<rect id="rectangle-230" x="508" y="220" class="st2" width="30" height="30"/>
		<rect id="rectangle-231" x="538" y="-50" class="st2" width="30" height="30"/>
		<rect id="rectangle-232" x="538" y="-20" class="st1" width="30" height="30"/>
		<rect id="rectangle-233" x="538" y="10" class="st2" width="30" height="30"/>
		<rect id="rectangle-234" x="538" y="40" class="st1" width="30" height="30"/>
		<rect id="rectangle-235" x="538" y="70" class="st2" width="30" height="30"/>
		<rect id="rectangle-236" x="538" y="100" class="st1" width="30" height="30"/>
		<rect id="rectangle-237" x="538" y="130" class="st2" width="30" height="30"/>
		<rect id="rectangle-238" x="538" y="160" class="st1" width="30" height="30"/>
		<rect id="rectangle-239" x="538" y="190" class="st2" width="30" height="30"/>
		<rect id="rectangle-240" x="538" y="220" class="st1" width="30" height="30"/>
	</g>
</g>
<g>
	<g id="controlcircle-241" transform="translate( 352, 150)">
		<circle class="st3" cx="-152" cy="-50" r="10"/>
		<circle class="st4" cx="-152" cy="-50" r="50"/>
	</g>
</g>
</svg>
