<?xml version="1.0" encoding="utf-8"?>
<!-- Generator: Adobe Illustrator 23.0.4, SVG Export Plug-In . SVG Version: 6.00 Build 0)  -->
<svg version="1.1" id="interactive-0" xmlns="http://www.w3.org/2000/svg" xmlns:xlink="http://www.w3.org/1999/xlink" x="0px"
	 y="0px" viewBox="0 0 300 150" style="enable-background:new 0 0 300 150;" xml:space="preserve">
<style type="text/css">
	.st0{fill:none;stroke:#404040;}
	.st1{fill:#333333;}
	.st2{font-family:'HelveticaNeue';}
	.st3{font-size:12px;}
	.st4{fill:#800080;}
	.st5{fill:#AB6F00;}
	.st6{fill:#0366EE;}
	.st7{fill-opacity:0;}
</style>
<line id="line-1" class="st0" x1="75" y1="100" x2="225" y2="30"/>
<text transform="matrix(1 0 0 1 19.9998 134.2274)" class="st1 st2 st3">&lt;</text>
<text transform="matrix(1 0 0 1 27.1997 134.2274)" class="st4 st2 st3">line</text>
<text transform="matrix(1 0 0 1 45.6431 134.2274)" class="st1 st2 st3"> </text>
<text transform="matrix(1 0 0 1 48.9791 134.2274)" class="st5 st2 st3">x1</text>
<text transform="matrix(1 0 0 1 61.867 134.2274)" class="st1 st2 st3">=&quot;75&quot; </text>
<text transform="matrix(1 0 0 1 97.5308 134.2274)" class="st5 st2 st3">y1</text>
<text transform="matrix(1 0 0 1 110.2028 134.2274)" class="st1 st2 st3">=&quot;100&quot; </text>
<text transform="matrix(1 0 0 1 150.8666 134.2274)" class="st5 st2 st3">x2</text>
<text transform="matrix(1 0 0 1 163.7545 134.2274)" class="st1 st2 st3">=&quot;225&quot; </text>
<text transform="matrix(1 0 0 1 206.4183 134.2274)" class="st5 st2 st3">y2</text>
<text transform="matrix(1 0 0 1 219.0903 134.2274)" class="st1 st2 st3">=&quot;30&quot;&gt;</text>
<g id="control-2" transform="translate( 150, 200)">
	<circle class="st6" cx="-75" cy="-100" r="4"/>
	<circle class="st7" cx="-75" cy="-100" r="13"/>
</g>
<g id="control-3" transform="translate( 440, 103)">
	<circle class="st6" cx="-215" cy="-73" r="4"/>
	<circle class="st7" cx="-215" cy="-73" r="13"/>
</g>
</svg>
