<svg id="a069411e-70fc-4a8e-9818-ea933e1542ce" data-name="Layer 1" xmlns="http://www.w3.org/2000/svg" viewBox="0 0 720 400"><defs><style>.a6f255a9-bce3-4282-b160-5ba1fcde1299{fill:#cdc2d3;stroke:#333;stroke-miterlimit:10;}.b163a29c-4993-4b80-937a-1b0bd4df847d{fill:#333;}</style></defs><title>svg-tutorial</title><path class="a6f255a9-bce3-4282-b160-5ba1fcde1299" d="M77.47,236.07l25.19-2.21Q104.45,249,111,258.71t20.31,15.69a76.9,76.9,0,0,0,31,6q15.28,0,27-4.54t17.41-12.46a28.89,28.89,0,0,0,5.72-17.28,26.24,26.24,0,0,0-5.51-16.58q-5.51-7.09-18.17-11.91-8.13-3.17-35.93-9.84t-38.95-12.6q-14.46-7.56-21.55-18.79a46.1,46.1,0,0,1-7.09-25.12,51.2,51.2,0,0,1,8.68-28.56q8.67-13.29,25.32-20.17a96.09,96.09,0,0,1,37-6.88q22.44,0,39.58,7.23t26.36,21.26a61.08,61.08,0,0,1,9.91,31.8l-25.6,1.93q-2.07-19.14-14-28.91T157.3,119.2q-24.23,0-35.3,8.88t-11.08,21.4a23,23,0,0,0,7.84,17.9q7.71,7,40.26,14.38t44.67,12.87q17.63,8.13,26,20.58a50.13,50.13,0,0,1,8.4,28.7,54.85,54.85,0,0,1-9.23,30.35q-9.23,14.25-26.49,22.17t-38.89,7.91q-27.39,0-45.91-8a64.28,64.28,0,0,1-29-24A68,68,0,0,1,77.47,236.07Z"/><path class="a6f255a9-bce3-4282-b160-5ba1fcde1299" d="M332.26,300.9,254.08,99.1H283l52.45,146.6q6.33,17.63,10.6,33,4.68-16.51,10.87-33L411.41,99.1h27.26l-79,201.8Z"/><path class="a6f255a9-bce3-4282-b160-5ba1fcde1299" d="M557.05,221.75V198.07l85.48-.13v74.88a151.14,151.14,0,0,1-40.6,23.61A120.61,120.61,0,0,1,559,304.34q-29.73,0-54-12.73a84.1,84.1,0,0,1-36.68-36.82Q455.88,230.7,455.88,201a124.84,124.84,0,0,1,12.32-55q12.32-25.53,35.44-37.92t53.27-12.39q21.9,0,39.58,7.09t27.74,19.75q10,12.67,15.28,33l-24.09,6.61q-4.54-15.42-11.29-24.23t-19.27-14.11a70.73,70.73,0,0,0-27.81-5.3q-18.3,0-31.66,5.57t-21.54,14.66a70.15,70.15,0,0,0-12.74,20,105.83,105.83,0,0,0-7.7,40.61q0,27,9.29,45.15a59.39,59.39,0,0,0,27.05,27,83.65,83.65,0,0,0,37.71,8.81,89.65,89.65,0,0,0,33.87-6.67q16.51-6.68,25-14.25V221.75Z"/><circle class="b163a29c-4993-4b80-937a-1b0bd4df847d" cx="642.53" cy="197.94" r="3"/><circle class="b163a29c-4993-4b80-937a-1b0bd4df847d" cx="557.2" cy="198.09" r="3"/><circle class="b163a29c-4993-4b80-937a-1b0bd4df847d" cx="557.05" cy="221.75" r="3"/><circle class="b163a29c-4993-4b80-937a-1b0bd4df847d" cx="616.38" cy="221.75" r="3"/><circle class="b163a29c-4993-4b80-937a-1b0bd4df847d" cx="616.38" cy="259.33" r="3"/><circle class="b163a29c-4993-4b80-937a-1b0bd4df847d" cx="642.53" cy="272.26" r="3"/><circle class="b163a29c-4993-4b80-937a-1b0bd4df847d" cx="557.2" cy="304.34" r="3"/><circle class="b163a29c-4993-4b80-937a-1b0bd4df847d" cx="557.2" cy="280.4" r="3"/><circle class="b163a29c-4993-4b80-937a-1b0bd4df847d" cx="455.88" cy="198.09" r="3"/><circle class="b163a29c-4993-4b80-937a-1b0bd4df847d" cx="438.67" cy="99.1" r="3"/><circle class="b163a29c-4993-4b80-937a-1b0bd4df847d" cx="483.43" cy="198.09" r="3"/><circle class="b163a29c-4993-4b80-937a-1b0bd4df847d" cx="557.2" cy="118.61" r="3"/><circle class="b163a29c-4993-4b80-937a-1b0bd4df847d" cx="557.05" cy="95.66" r="3"/><circle class="b163a29c-4993-4b80-937a-1b0bd4df847d" cx="639.51" cy="155.54" r="3"/><circle class="b163a29c-4993-4b80-937a-1b0bd4df847d" cx="615.42" cy="162.15" r="3"/><circle class="b163a29c-4993-4b80-937a-1b0bd4df847d" cx="411.41" cy="99.1" r="3"/><circle class="b163a29c-4993-4b80-937a-1b0bd4df847d" cx="282.68" cy="99.1" r="3"/><circle class="b163a29c-4993-4b80-937a-1b0bd4df847d" cx="254.08" cy="99.1" r="3"/><circle class="b163a29c-4993-4b80-937a-1b0bd4df847d" cx="206.3" cy="158.33" r="3"/><circle class="b163a29c-4993-4b80-937a-1b0bd4df847d" cx="232.17" cy="156.02" r="3"/><circle class="b163a29c-4993-4b80-937a-1b0bd4df847d" cx="157.79" cy="119.36" r="3"/><circle class="b163a29c-4993-4b80-937a-1b0bd4df847d" cx="110.89" cy="148.42" r="3"/><circle class="b163a29c-4993-4b80-937a-1b0bd4df847d" cx="85.44" cy="148.42" r="3"/><circle class="b163a29c-4993-4b80-937a-1b0bd4df847d" cx="237.74" cy="246.37" r="3"/><circle class="b163a29c-4993-4b80-937a-1b0bd4df847d" cx="212.3" cy="246.37" r="3"/><circle class="b163a29c-4993-4b80-937a-1b0bd4df847d" cx="172.87" cy="185.04" r="3"/><circle class="b163a29c-4993-4b80-937a-1b0bd4df847d" cx="140.26" cy="204.58" r="3"/><circle class="b163a29c-4993-4b80-937a-1b0bd4df847d" cx="102.71" cy="234.02" r="3"/><circle class="b163a29c-4993-4b80-937a-1b0bd4df847d" cx="77.47" cy="235.79" r="3"/><circle class="b163a29c-4993-4b80-937a-1b0bd4df847d" cx="157.79" cy="95.66" r="3"/><circle class="b163a29c-4993-4b80-937a-1b0bd4df847d" cx="157.79" cy="304.04" r="3"/><circle class="b163a29c-4993-4b80-937a-1b0bd4df847d" cx="157.79" cy="280.35" r="3"/><circle class="b163a29c-4993-4b80-937a-1b0bd4df847d" cx="346.03" cy="278.74" r="3"/><circle class="b163a29c-4993-4b80-937a-1b0bd4df847d" cx="359.81" cy="300.9" r="3"/><circle class="b163a29c-4993-4b80-937a-1b0bd4df847d" cx="332.06" cy="300.9" r="3"/></svg>