<svg id="b4997eda-1ae8-46d4-8268-5b25c1623321" data-name="f3010e07-cc1f-4ef1-8fde-5f843801d9a6" xmlns="http://www.w3.org/2000/svg" width="100" height="72" viewBox="0 0 100 72"><defs><style>.f6bdc41c-b43f-4f7e-abbb-ca0a77042069{fill:#333;}</style></defs><title>svg</title><path class="f6bdc41c-b43f-4f7e-abbb-ca0a77042069" d="M3.7,36,11.59,32v1.17L4.94,36.45v0l6.65,3.34V41L3.7,36.93Z"/><path class="f6bdc41c-b43f-4f7e-abbb-ca0a77042069" d="M13.75,39.46a3.89,3.89,0,0,0,2,.59c1.09,0,1.6-.54,1.6-1.22s-.43-1.1-1.53-1.51C14.31,36.79,13.61,36,13.61,35a2.54,2.54,0,0,1,2.84-2.42,4.13,4.13,0,0,1,2,.51l-.37,1.09a3.24,3.24,0,0,0-1.68-.47c-.89,0-1.38.51-1.38,1.12s.49,1,1.56,1.39c1.43.55,2.16,1.26,2.16,2.48,0,1.45-1.12,2.47-3.07,2.47a4.73,4.73,0,0,1-2.32-.56Z"/><path class="f6bdc41c-b43f-4f7e-abbb-ca0a77042069" d="M21.26,32.76l1.62,4.63a20.86,20.86,0,0,1,.66,2.1h.05c.19-.68.43-1.36.7-2.1l1.6-4.63h1.56L24.22,41H22.79l-3.13-8.23Z"/><path class="f6bdc41c-b43f-4f7e-abbb-ca0a77042069" d="M35.78,32.76c0,.6-.07,1.26-.07,2.26V39.8c0,1.89-.37,3-1.17,3.76a4.4,4.4,0,0,1-3,1,5.32,5.32,0,0,1-2.74-.68l.37-1.14a4.68,4.68,0,0,0,2.42.65c1.53,0,2.65-.8,2.65-2.87v-.92h0A3,3,0,0,1,31.6,41c-2,0-3.5-1.73-3.5-4,0-2.78,1.82-4.37,3.7-4.37A2.74,2.74,0,0,1,34.37,34h0l.07-1.24ZM34.23,36a2,2,0,0,0-.08-.68,2.15,2.15,0,0,0-2.09-1.58c-1.43,0-2.45,1.2-2.45,3.11,0,1.61.82,3,2.43,3a2.18,2.18,0,0,0,2.07-1.53,2.51,2.51,0,0,0,.12-.8Z"/><path class="f6bdc41c-b43f-4f7e-abbb-ca0a77042069" d="M46,36.94,38.08,41V39.82l6.69-3.34v0l-6.69-3.33V32L46,36Z"/><path class="f6bdc41c-b43f-4f7e-abbb-ca0a77042069" d="M48.21,36,56.09,32v1.17l-6.64,3.33v0l6.64,3.34V41l-7.88-4.06Z"/><path class="f6bdc41c-b43f-4f7e-abbb-ca0a77042069" d="M57.2,41.67l4.74-12.32H63.1L58.34,41.67Z"/><path class="f6bdc41c-b43f-4f7e-abbb-ca0a77042069" d="M64.08,39.46a4,4,0,0,0,2,.59c1.08,0,1.59-.54,1.59-1.22s-.42-1.1-1.53-1.51C64.64,36.79,64,36,64,35a2.54,2.54,0,0,1,2.84-2.42,4.13,4.13,0,0,1,2,.51l-.37,1.09a3.28,3.28,0,0,0-1.69-.47c-.88,0-1.37.51-1.37,1.12s.49,1,1.56,1.39c1.43.55,2.16,1.26,2.16,2.48,0,1.45-1.12,2.47-3.08,2.47a4.69,4.69,0,0,1-2.31-.56Z"/><path class="f6bdc41c-b43f-4f7e-abbb-ca0a77042069" d="M71.6,32.76l1.61,4.63a18.71,18.71,0,0,1,.67,2.1h.05c.18-.68.42-1.36.69-2.1l1.6-4.63h1.57L74.56,41H73.13L70,32.76Z"/><path class="f6bdc41c-b43f-4f7e-abbb-ca0a77042069" d="M86.12,32.76c0,.6-.07,1.26-.07,2.26V39.8c0,1.89-.38,3-1.18,3.76a4.37,4.37,0,0,1-3,1,5.31,5.31,0,0,1-2.73-.68l.37-1.14a4.61,4.61,0,0,0,2.41.65c1.53,0,2.66-.8,2.66-2.87v-.92h0A2.94,2.94,0,0,1,81.93,41c-2,0-3.5-1.73-3.5-4,0-2.78,1.82-4.37,3.71-4.37A2.72,2.72,0,0,1,84.7,34h0l.07-1.24ZM84.57,36a2,2,0,0,0-.09-.68,2.15,2.15,0,0,0-2.09-1.58C81,33.75,80,35,80,36.86c0,1.61.81,3,2.43,3a2.19,2.19,0,0,0,2.07-1.53,2.82,2.82,0,0,0,.12-.8Z"/><path class="f6bdc41c-b43f-4f7e-abbb-ca0a77042069" d="M96.3,36.94,88.41,41V39.82l6.7-3.34v0l-6.7-3.33V32l7.89,4Z"/></svg>