<?xml version="1.0" encoding="utf-8"?>
<!-- Generator: Adobe Illustrator 24.0.0, SVG Export Plug-In . SVG Version: 6.00 Build 0)  -->
<svg version="1.1" xmlns="http://www.w3.org/2000/svg" xmlns:xlink="http://www.w3.org/1999/xlink" x="0px" y="0px"
	 viewBox="0 0 736 400" style="enable-background:new 0 0 736 400;" xml:space="preserve">
<style type="text/css">
	.st0{fill:#F8F8F8;stroke:#333333;stroke-miterlimit:10;}
	.st1{font-family:'ArialMT';}
	.st2{font-size:12px;}
	.st3{fill:#333333;}
</style>
<g id="interactive-0">
	<line id="edge-63" class="st0" x1="500" y1="237.5" x2="700" y2="312.5"/>
	<line id="edge-62" class="st0" x1="500" y1="237.5" x2="600" y2="312.5"/>
	<line id="edge-61" class="st0" x1="500" y1="237.5" x2="500" y2="312.5"/>
	<line id="edge-60" class="st0" x1="500" y1="237.5" x2="400" y2="312.5"/>
	<line id="edge-59" class="st0" x1="500" y1="237.5" x2="300" y2="312.5"/>
	<line id="edge-58" class="st0" x1="450" y1="162.5" x2="500" y2="237.5"/>
	<line id="edge-57" class="st0" x1="450" y1="162.5" x2="400" y2="237.5"/>
	<line id="edge-56" class="st0" x1="150" y1="237.5" x2="200" y2="312.5"/>
	<line id="edge-55" class="st0" x1="150" y1="237.5" x2="100" y2="312.5"/>
	<line id="edge-54" class="st0" x1="100" y1="162.5" x2="150" y2="237.5"/>
	<line id="edge-53" class="st0" x1="100" y1="162.5" x2="50" y2="237.5"/>
	<line id="edge-52" class="st0" x1="275" y1="87.5" x2="450" y2="162.5"/>
	<line id="edge-51" class="st0" x1="275" y1="87.5" x2="275" y2="162.5"/>
	<line id="edge-50" class="st0" x1="275" y1="87.5" x2="100" y2="162.5"/>
	<g id="node-5">
		<ellipse id="ellipse-7" class="st0" cx="275" cy="87.5" rx="20" ry="20"/>
	</g>
	<g id="node-8">
		<ellipse id="ellipse-10" class="st0" cx="100" cy="162.5" rx="20" ry="20"/>
	</g>
	<g id="node-11">
		<ellipse id="ellipse-13" class="st0" cx="275" cy="162.5" rx="20" ry="20"/>
	</g>
	<g id="node-14">
		<ellipse id="ellipse-16" class="st0" cx="450" cy="162.5" rx="20" ry="20"/>
	</g>
	<g id="node-17">
		<ellipse id="ellipse-19" class="st0" cx="50" cy="237.5" rx="20" ry="20"/>
	</g>
	<g id="node-20">
		<ellipse id="ellipse-22" class="st0" cx="150" cy="237.5" rx="20" ry="20"/>
	</g>
	<g id="node-23">
		<ellipse id="ellipse-25" class="st0" cx="100" cy="312.5" rx="20" ry="20"/>
	</g>
	<g id="node-26">
		<ellipse id="ellipse-28" class="st0" cx="200" cy="312.5" rx="20" ry="20"/>
	</g>
	<g id="node-29">
		<ellipse id="ellipse-31" class="st0" cx="400" cy="237.5" rx="20" ry="20"/>
	</g>
	<g id="node-32">
		<ellipse id="ellipse-34" class="st0" cx="500" cy="237.5" rx="20" ry="20"/>
	</g>
	<g id="node-35">
		<ellipse id="ellipse-37" class="st0" cx="300" cy="312.5" rx="20" ry="20"/>
	</g>
	<g id="node-38">
		<ellipse id="ellipse-40" class="st0" cx="400" cy="312.5" rx="20" ry="20"/>
	</g>
	<g id="node-41">
		<ellipse id="ellipse-43" class="st0" cx="500" cy="312.5" rx="20" ry="20"/>
	</g>
	<g id="node-44">
		<ellipse id="ellipse-46" class="st0" cx="600" cy="312.5" rx="20" ry="20"/>
	</g>
	<g id="node-47">
		<ellipse id="ellipse-49" class="st0" cx="700" cy="312.5" rx="20" ry="20"/>
	</g>
	<g id="group-2">
	</g>
</g>
<g id="Layer_2">
	<text id="text-6" transform="matrix(1 0 0 1 270.333 90.5)" class="st1 st2">O</text>
	<text id="text-9" transform="matrix(1 0 0 1 95.998 165.5)" class="st1 st2">E</text>
	<text id="text-12" transform="matrix(1 0 0 1 271.335 165.5)" class="st1 st2">F</text>
	<text id="text-18" transform="matrix(1 0 0 1 45.998 240.5)" class="st1 st2">A</text>
	<text id="text-21" transform="matrix(1 0 0 1 145.667 240.5)" class="st1 st2">D</text>
	<text id="text-15" transform="matrix(1 0 0 1 445.667 165.5)" class="st1 st2">N</text>
	<text id="text-30" transform="matrix(1 0 0 1 395.333 240.5)" class="st1 st2">G</text>
	<text id="text-33" transform="matrix(1 0 0 1 495.002 240.5)" class="st1 st2">M</text>
	<text id="text-39" transform="matrix(1 0 0 1 398.333 315.5)" class="st1 st2">I</text>
	<text id="text-42" transform="matrix(1 0 0 1 497 315.5)" class="st1 st2">J</text>
	<text id="text-45" transform="matrix(1 0 0 1 595.998 315.5)" class="st1 st2">K</text>
	<text id="text-24" transform="matrix(1 0 0 1 95.998 315.5)" class="st1 st2">B</text>
	<text id="text-27" transform="matrix(1 0 0 1 195.667 315.5)" class="st1 st2">C</text>
	<text id="text-36" transform="matrix(1 0 0 1 295.667 315.5)" class="st1 st2">H</text>
	<text id="text-48" transform="matrix(1 0 0 1 696.6631 315.5)" class="st3 st1 st2">L</text>
</g>
</svg>
