<svg xmlns="http://www.w3.org/2000/svg" id="interactive-0" class="interactive border" width="736" height="400" viewBox="0 0 736 400"><g id="group-1" class="group"><g id="graph-3" class="graph"><line x1="500" y1="200" x2="700" y2="275" id="edge-63" class="edge" marker-end="url(#arrow)"></line><line x1="500" y1="200" x2="600" y2="275" id="edge-62" class="edge" marker-end="url(#arrow)"></line><line x1="500" y1="200" x2="500" y2="275" id="edge-61" class="edge" marker-end="url(#arrow)"></line><line x1="500" y1="200" x2="400" y2="275" id="edge-60" class="edge" marker-end="url(#arrow)"></line><line x1="500" y1="200" x2="300" y2="275" id="edge-59" class="edge" marker-end="url(#arrow)"></line><line x1="450" y1="125" x2="500" y2="200" id="edge-58" class="edge" marker-end="url(#arrow)"></line><line x1="450" y1="125" x2="400" y2="200" id="edge-57" class="edge" marker-end="url(#arrow)"></line><line x1="150" y1="200" x2="200" y2="275" id="edge-56" class="edge" marker-end="url(#arrow)"></line><line x1="150" y1="200" x2="100" y2="275" id="edge-55" class="edge" marker-end="url(#arrow)"></line><line x1="100" y1="125" x2="150" y2="200" id="edge-54" class="edge" marker-end="url(#arrow)"></line><line x1="100" y1="125" x2="50" y2="200" id="edge-53" class="edge" marker-end="url(#arrow)"></line><line x1="275" y1="50" x2="450" y2="125" id="edge-52" class="edge" marker-end="url(#arrow)"></line><line x1="275" y1="50" x2="275" y2="125" id="edge-51" class="edge" marker-end="url(#arrow)"></line><line x1="275" y1="50" x2="100" y2="125" id="edge-50" class="edge" marker-end="url(#arrow)"></line><defs id="definitions-4" class="definitions"><marker id="arrow" refX="10" refY="5" markerWidth="10" markerHeight="10" orient="auto-start-reverse"><path d="M 0 0 L 10 5 L 0 10 z" style="fill:#333333;"></path></marker></defs><g id="node-5" class="node"><ellipse cx="275" cy="50" rx="20" ry="20" id="ellipse-7" class="ellipse" style="fill: rgb(248, 248, 248);"></ellipse><text x="275" y="50" id="text-6" class="text" alignment-baseline="middle" style="text-anchor: middle;">O</text></g><g id="node-8" class="node"><ellipse cx="100" cy="125" rx="20" ry="20" id="ellipse-10" class="ellipse" style="fill: rgb(248, 248, 248);"></ellipse><text x="100" y="125" id="text-9" class="text" alignment-baseline="middle" style="text-anchor: middle;">E</text></g><g id="node-11" class="node"><ellipse cx="275" cy="125" rx="20" ry="20" id="ellipse-13" class="ellipse" style="fill: rgb(248, 248, 248);"></ellipse><text x="275" y="125" id="text-12" class="text" alignment-baseline="middle" style="text-anchor: middle;">F</text></g><g id="node-14" class="node"><ellipse cx="450" cy="125" rx="20" ry="20" id="ellipse-16" class="ellipse" style="fill: rgb(248, 248, 248);"></ellipse><text x="450" y="125" id="text-15" class="text" alignment-baseline="middle" style="text-anchor: middle;">N</text></g><g id="node-17" class="node"><ellipse cx="50" cy="200" rx="20" ry="20" id="ellipse-19" class="ellipse" style="fill: rgb(248, 248, 248);"></ellipse><text x="50" y="200" id="text-18" class="text" alignment-baseline="middle" style="text-anchor: middle;">A</text></g><g id="node-20" class="node"><ellipse cx="150" cy="200" rx="20" ry="20" id="ellipse-22" class="ellipse" style="fill: rgb(248, 248, 248);"></ellipse><text x="150" y="200" id="text-21" class="text" alignment-baseline="middle" style="text-anchor: middle;">D</text></g><g id="node-23" class="node"><ellipse cx="100" cy="275" rx="20" ry="20" id="ellipse-25" class="ellipse" style="fill: rgb(248, 248, 248);"></ellipse><text x="100" y="275" id="text-24" class="text" alignment-baseline="middle" style="text-anchor: middle;">B</text></g><g id="node-26" class="node"><ellipse cx="200" cy="275" rx="20" ry="20" id="ellipse-28" class="ellipse" style="fill: rgb(248, 248, 248);"></ellipse><text x="200" y="275" id="text-27" class="text" alignment-baseline="middle" style="text-anchor: middle;">C</text></g><g id="node-29" class="node"><ellipse cx="400" cy="200" rx="20" ry="20" id="ellipse-31" class="ellipse" style="fill: rgb(248, 248, 248);"></ellipse><text x="400" y="200" id="text-30" class="text" alignment-baseline="middle" style="text-anchor: middle;">G</text></g><g id="node-32" class="node"><ellipse cx="500" cy="200" rx="20" ry="20" id="ellipse-34" class="ellipse" style="fill: rgb(248, 248, 248);"></ellipse><text x="500" y="200" id="text-33" class="text" alignment-baseline="middle" style="text-anchor: middle;">M</text></g><g id="node-35" class="node"><ellipse cx="300" cy="275" rx="20" ry="20" id="ellipse-37" class="ellipse" style="fill: rgb(248, 248, 248);"></ellipse><text x="300" y="275" id="text-36" class="text" alignment-baseline="middle" style="text-anchor: middle;">H</text></g><g id="node-38" class="node"><ellipse cx="400" cy="275" rx="20" ry="20" id="ellipse-40" class="ellipse" style="fill: rgb(248, 248, 248);"></ellipse><text x="400" y="275" id="text-39" class="text" alignment-baseline="middle" style="text-anchor: middle;">I</text></g><g id="node-41" class="node"><ellipse cx="500" cy="275" rx="20" ry="20" id="ellipse-43" class="ellipse" style="fill: rgb(248, 248, 248);"></ellipse><text x="500" y="275" id="text-42" class="text" alignment-baseline="middle" style="text-anchor: middle;">J</text></g><g id="node-44" class="node"><ellipse cx="600" cy="275" rx="20" ry="20" id="ellipse-46" class="ellipse" style="fill: rgb(248, 248, 248);"></ellipse><text x="600" y="275" id="text-45" class="text" alignment-baseline="middle" style="text-anchor: middle;">K</text></g><g id="node-47" class="node"><ellipse cx="700" cy="275" rx="20" ry="20" id="ellipse-49" class="ellipse" style="fill: rgb(248, 248, 248);"></ellipse><text x="700" y="275" id="text-48" class="text" alignment-baseline="middle" style="text-anchor: middle;">L</text></g></g></g><g id="group-2" class="group"></g></svg>