<svg id="Layer_1" data-name="Layer 1" xmlns="http://www.w3.org/2000/svg" viewBox="0 0 600 300"><defs><style>.cls-1{fill:#999;}.cls-2,.cls-3,.cls-5{fill:none;stroke-miterlimit:10;}.cls-2,.cls-3{stroke:#231f20;}.cls-3{stroke-dasharray:5.76 5.76;}.cls-4{fill:#231f20;}.cls-5{stroke:#000;}</style></defs><title>transform-scale</title><rect class="cls-1" x="262.5" y="112.5" width="75" height="75"/><polyline class="cls-2" points="225 222 225 225 228 225"/><line class="cls-3" x1="233.76" y1="225" x2="369.12" y2="225"/><polyline class="cls-2" points="372 225 375 225 375 222"/><line class="cls-3" x1="375" y1="216.24" x2="375" y2="80.88"/><polyline class="cls-2" points="375 78 375 75 372 75"/><line class="cls-3" x1="366.24" y1="75" x2="230.88" y2="75"/><polyline class="cls-2" points="228 75 225 75 225 78"/><line class="cls-3" x1="225" y1="83.76" x2="225" y2="219.12"/><circle cx="337.5" cy="112.5" r="4"/><line class="cls-4" x1="375" y1="75" x2="340.33" y2="109.67"/><line class="cls-5" x1="375" y1="75" x2="345.4" y2="104.6"/><polygon points="342.91 100.04 340.33 109.67 349.96 107.09 342.91 100.04"/><path class="cls-4" d="M41.34,271v-.35L47,267.23l.45.75-4.76,2.82,4.77,2.77-.45.72Z"/><path class="cls-4" d="M48.8,274.7v-.81h1.62V269.5H48.8v-.8H51l.19.78h.06a4.51,4.51,0,0,1,.91-.64,2.53,2.53,0,0,1,1.2-.26,1.26,1.26,0,0,1,.66.15,1.09,1.09,0,0,1,.38.46,2.36,2.36,0,0,1,.19.72,9.35,9.35,0,0,1,0,1h-.84a3.09,3.09,0,0,0-.15-1.12.56.56,0,0,0-.55-.35,2,2,0,0,0-.67.1,2.11,2.11,0,0,0-.52.27,2.53,2.53,0,0,0-.38.31,1.58,1.58,0,0,0-.23.26v3.53h2.3v.81Z"/><path class="cls-4" d="M61.55,273.94a2.55,2.55,0,0,1-.51.36,4.15,4.15,0,0,1-.64.29,4.33,4.33,0,0,1-.73.18,3.84,3.84,0,0,1-.76.07,3.35,3.35,0,0,1-1.27-.22,2.46,2.46,0,0,1-.93-.64,2.81,2.81,0,0,1-.56-1,4.46,4.46,0,0,1,0-2.64,2.58,2.58,0,0,1,1.57-1.59,3.54,3.54,0,0,1,1.26-.21,4.2,4.2,0,0,1,1,.13,2,2,0,0,1,.87.5,2.36,2.36,0,0,1,.58,1,4.58,4.58,0,0,1,.15,1.66H57a2.1,2.1,0,0,0,.58,1.62,2.21,2.21,0,0,0,1.55.53,2.87,2.87,0,0,0,.64-.08,5.26,5.26,0,0,0,.6-.18l.51-.24a2.37,2.37,0,0,0,.34-.24ZM59,269.34a2.94,2.94,0,0,0-.74.09,1.59,1.59,0,0,0-1.07.8A2.11,2.11,0,0,0,57,271h3.72a1.83,1.83,0,0,0-.51-1.23A1.62,1.62,0,0,0,59,269.34Z"/><path class="cls-4" d="M67.67,269.62a4.59,4.59,0,0,0-.59-.16,2.7,2.7,0,0,0-.63-.07,2.42,2.42,0,0,0-1.75.56,2.29,2.29,0,0,0-.58,1.75,2.37,2.37,0,0,0,.17.95,1.9,1.9,0,0,0,.48.7,2.34,2.34,0,0,0,.75.45,2.93,2.93,0,0,0,1,.15,3.14,3.14,0,0,0,1.1-.19,2.63,2.63,0,0,0,.9-.52l.42.7a3.82,3.82,0,0,1-.42.3,4.64,4.64,0,0,1-.59.29,3.68,3.68,0,0,1-.73.23,4.77,4.77,0,0,1-.87.08,3.82,3.82,0,0,1-1.37-.22,2.53,2.53,0,0,1-1-.64,2.56,2.56,0,0,1-.6-1,3.79,3.79,0,0,1-.21-1.29,4,4,0,0,1,.21-1.35,2.63,2.63,0,0,1,.61-1,2.51,2.51,0,0,1,1-.61,3.62,3.62,0,0,1,1.26-.21,5.33,5.33,0,0,1,1.45.16,5,5,0,0,1,.94.35v1.7h-.87Z"/><path class="cls-4" d="M70,268.7H71.4v-1.19l.95-.27v1.46h3.21v.8H72.35v2.83a1.73,1.73,0,0,0,.43,1.3,1.63,1.63,0,0,0,1.21.42,2,2,0,0,0,.94-.21,4.18,4.18,0,0,0,.72-.44l.31.71a3.53,3.53,0,0,1-1,.54,3.72,3.72,0,0,1-1.19.2,2.75,2.75,0,0,1-.91-.14,2.13,2.13,0,0,1-.75-.42,2,2,0,0,1-.51-.74,2.69,2.69,0,0,1-.2-1.07v-3H70Z"/><path class="cls-4" d="M87,271.62l-2.32-2.92h1.2L87.65,271l1.78-2.25h1.08l-2.32,2.88,2.46,3.12H89.5l-1.91-2.46-1.94,2.46h-1.1Z"/><path class="cls-4" d="M92,269.21h5.57v.87H92Zm0,2h5.57V272H92Z"/><path class="cls-4" d="M100,266.55a.67.67,0,0,1,.21-.52.77.77,0,0,1,.53-.19.88.88,0,0,1,.67.25,1,1,0,0,1,.26.76,2.29,2.29,0,0,1-.14.83,2.42,2.42,0,0,1-.34.6,1.74,1.74,0,0,1-.41.37,1.61,1.61,0,0,1-.39.2l-.36-.49a2.13,2.13,0,0,0,.59-.43,1,1,0,0,0,.24-.67h-.14a.7.7,0,0,1-.5-.21A.64.64,0,0,1,100,266.55Zm2.4,0a.67.67,0,0,1,.21-.52.77.77,0,0,1,.53-.19.88.88,0,0,1,.67.25,1,1,0,0,1,.26.76,2.29,2.29,0,0,1-.14.83,2.14,2.14,0,0,1-.34.6,1.74,1.74,0,0,1-.41.37,1.61,1.61,0,0,1-.39.2l-.36-.49a2,2,0,0,0,.58-.43.93.93,0,0,0,.25-.67h-.14a.7.7,0,0,1-.5-.21A.64.64,0,0,1,102.39,266.55Z"/><path class="cls-4" d="M108.58,274a3.07,3.07,0,0,0,.88-.12,2.43,2.43,0,0,0,.7-.36,1.55,1.55,0,0,0,.47-.55,1.52,1.52,0,0,0,.17-.71,1.28,1.28,0,0,0-.58-1.18,3,3,0,0,0-1.57-.36h-.77v-.57l2.38-3h-3.6v-.86h4.75v.86L109,269.93h.2a3,3,0,0,1,1,.16,2.49,2.49,0,0,1,.8.44,2,2,0,0,1,.52.7,2.26,2.26,0,0,1,.19.92,2.5,2.5,0,0,1-.26,1.15,2.35,2.35,0,0,1-.68.85,3.07,3.07,0,0,1-1,.52,4.53,4.53,0,0,1-1.24.17,5.55,5.55,0,0,1-1.07-.09,5.7,5.7,0,0,1-.82-.23l.24-.84a3.93,3.93,0,0,0,.73.23A4.58,4.58,0,0,0,108.58,274Z"/><path class="cls-4" d="M113.46,270.5a8.47,8.47,0,0,1,.18-1.83,4.17,4.17,0,0,1,.54-1.37,2.41,2.41,0,0,1,.92-.85,2.7,2.7,0,0,1,1.31-.3,2.94,2.94,0,0,1,1.36.29,2.23,2.23,0,0,1,.91.84,4.1,4.1,0,0,1,.51,1.36,10.3,10.3,0,0,1,.15,1.86,8.47,8.47,0,0,1-.18,1.83,4.11,4.11,0,0,1-.54,1.36,2.41,2.41,0,0,1-.91.86,2.84,2.84,0,0,1-1.31.29,2.76,2.76,0,0,1-1.36-.32,2.58,2.58,0,0,1-.91-.89,4,4,0,0,1-.51-1.38A8.62,8.62,0,0,1,113.46,270.5Zm1,0a5.24,5.24,0,0,0,0,.57c0,.19,0,.37,0,.54l3.57-3.24a2.33,2.33,0,0,0-.6-1,1.49,1.49,0,0,0-1.09-.38,1.53,1.53,0,0,0-1.5.88A6.09,6.09,0,0,0,114.46,270.5Zm3.89,0a9.49,9.49,0,0,0-.08-1.22l-3.56,3.26a2.61,2.61,0,0,0,.61,1.09,1.46,1.46,0,0,0,1.07.41,1.58,1.58,0,0,0,1.51-.88A6,6,0,0,0,118.35,270.5Z"/><path class="cls-4" d="M120.66,270.5a8.47,8.47,0,0,1,.18-1.83,4.17,4.17,0,0,1,.54-1.37,2.41,2.41,0,0,1,.92-.85,2.7,2.7,0,0,1,1.31-.3,2.94,2.94,0,0,1,1.36.29,2.23,2.23,0,0,1,.91.84,4.1,4.1,0,0,1,.51,1.36,10.3,10.3,0,0,1,.15,1.86,8.47,8.47,0,0,1-.18,1.83,4.11,4.11,0,0,1-.54,1.36,2.41,2.41,0,0,1-.91.86,2.84,2.84,0,0,1-1.31.29,2.76,2.76,0,0,1-1.36-.32,2.58,2.58,0,0,1-.91-.89,4,4,0,0,1-.51-1.38A8.62,8.62,0,0,1,120.66,270.5Zm1,0c0,.2,0,.39,0,.57s0,.37,0,.54l3.57-3.24a2.33,2.33,0,0,0-.6-1,1.49,1.49,0,0,0-1.09-.38,1.53,1.53,0,0,0-1.5.88A6.09,6.09,0,0,0,121.66,270.5Zm3.89,0a9.49,9.49,0,0,0-.08-1.22l-3.56,3.26a2.61,2.61,0,0,0,.61,1.09,1.46,1.46,0,0,0,1.07.41,1.58,1.58,0,0,0,1.51-.88A6,6,0,0,0,125.55,270.5Z"/><path class="cls-4" d="M128.79,266.55A.67.67,0,0,1,129,266a.77.77,0,0,1,.53-.19.9.9,0,0,1,.67.25,1,1,0,0,1,.25.76,2.3,2.3,0,0,1-.13.83,2.42,2.42,0,0,1-.34.6,1.74,1.74,0,0,1-.41.37,1.81,1.81,0,0,1-.39.2l-.36-.49a2,2,0,0,0,.58-.43.93.93,0,0,0,.25-.67h-.14a.7.7,0,0,1-.5-.21A.64.64,0,0,1,128.79,266.55Zm2.4,0a.67.67,0,0,1,.21-.52.77.77,0,0,1,.53-.19.9.9,0,0,1,.67.25,1,1,0,0,1,.25.76,2.3,2.3,0,0,1-.13.83,2.42,2.42,0,0,1-.34.6,1.74,1.74,0,0,1-.41.37,1.81,1.81,0,0,1-.39.2l-.36-.49a2,2,0,0,0,.58-.43.93.93,0,0,0,.25-.67h-.14a.7.7,0,0,1-.5-.21A.64.64,0,0,1,131.19,266.55Z"/><path class="cls-4" d="M145.33,273.77h.46l1.49-5.07h1l-1.67,5.38q-.14.42-.27,1a4.33,4.33,0,0,1-.39,1,2.35,2.35,0,0,1-.68.79,1.83,1.83,0,0,1-1.13.33,2.11,2.11,0,0,1-.33,0,1.89,1.89,0,0,1-.34-.09,2.22,2.22,0,0,1-.31-.13.64.64,0,0,1-.22-.14l.34-.86a.78.78,0,0,0,.19.12l.28.1.29.07.24,0c.6,0,1-.51,1.23-1.52h-.81l-2.52-6h1.08Z"/><path class="cls-4" d="M149.62,269.21h5.57v.87h-5.57Zm0,2h5.57V272h-5.57Z"/><path class="cls-4" d="M157.59,266.55a.67.67,0,0,1,.21-.52.77.77,0,0,1,.53-.19.9.9,0,0,1,.67.25,1,1,0,0,1,.25.76,2.3,2.3,0,0,1-.13.83,2.42,2.42,0,0,1-.34.6,1.74,1.74,0,0,1-.41.37,1.81,1.81,0,0,1-.39.2l-.36-.49a2,2,0,0,0,.58-.43.93.93,0,0,0,.25-.67h-.14a.7.7,0,0,1-.5-.21A.64.64,0,0,1,157.59,266.55Zm2.4,0a.67.67,0,0,1,.21-.52.77.77,0,0,1,.53-.19.9.9,0,0,1,.67.25,1,1,0,0,1,.25.76,2.3,2.3,0,0,1-.13.83,2.42,2.42,0,0,1-.34.6,1.74,1.74,0,0,1-.41.37,1.81,1.81,0,0,1-.39.2l-.36-.49a2,2,0,0,0,.58-.43.93.93,0,0,0,.25-.67h-.14a.7.7,0,0,1-.5-.21A.64.64,0,0,1,160,266.55Z"/><path class="cls-4" d="M164.73,273.83h1.88v-6.31l-1.92,1.34-.47-.68,2.64-1.88h.67v7.53h1.85v.87h-4.65Z"/><path class="cls-4" d="M173.47,274a3.11,3.11,0,0,0,.84-.11,1.89,1.89,0,0,0,.66-.35,1.63,1.63,0,0,0,.42-.58,2.1,2.1,0,0,0,.15-.82,1.52,1.52,0,0,0-.62-1.31,2.8,2.8,0,0,0-1.69-.45l-1.12.06V266.3h4.12v.86H173v2.44l.61,0a3.16,3.16,0,0,1,2.1.65,2.27,2.27,0,0,1,.78,1.85,2.81,2.81,0,0,1-.24,1.19,2.66,2.66,0,0,1-.64.87,2.94,2.94,0,0,1-1,.53,4,4,0,0,1-1.22.18,5.09,5.09,0,0,1-.69,0,4.65,4.65,0,0,1-.59-.14,3.5,3.5,0,0,1-.46-.16,1.06,1.06,0,0,1-.28-.17l.38-.78a4.41,4.41,0,0,0,.63.29A2.9,2.9,0,0,0,173.47,274Z"/><path class="cls-4" d="M178.26,270.5a8.47,8.47,0,0,1,.18-1.83,4.17,4.17,0,0,1,.54-1.37,2.41,2.41,0,0,1,.92-.85,2.7,2.7,0,0,1,1.31-.3,3,3,0,0,1,1.36.29,2.23,2.23,0,0,1,.91.84,4.1,4.1,0,0,1,.51,1.36,10.3,10.3,0,0,1,.15,1.86,8.47,8.47,0,0,1-.18,1.83,4.11,4.11,0,0,1-.54,1.36,2.41,2.41,0,0,1-.91.86,2.84,2.84,0,0,1-1.31.29,2.76,2.76,0,0,1-1.36-.32,2.58,2.58,0,0,1-.91-.89,4,4,0,0,1-.51-1.38A8.62,8.62,0,0,1,178.26,270.5Zm1,0a5.24,5.24,0,0,0,0,.57c0,.19,0,.37,0,.54l3.57-3.24a2.33,2.33,0,0,0-.6-1,1.49,1.49,0,0,0-1.09-.38,1.53,1.53,0,0,0-1.5.88A6.09,6.09,0,0,0,179.26,270.5Zm3.89,0a9.49,9.49,0,0,0-.08-1.22l-3.56,3.26a2.61,2.61,0,0,0,.61,1.09,1.46,1.46,0,0,0,1.07.41,1.58,1.58,0,0,0,1.51-.88A6,6,0,0,0,183.15,270.5Z"/><path class="cls-4" d="M186.39,266.55a.67.67,0,0,1,.21-.52.77.77,0,0,1,.53-.19.9.9,0,0,1,.67.25,1,1,0,0,1,.25.76,2.3,2.3,0,0,1-.13.83,2.42,2.42,0,0,1-.34.6,1.74,1.74,0,0,1-.41.37,1.81,1.81,0,0,1-.39.2l-.36-.49a2,2,0,0,0,.58-.43.93.93,0,0,0,.25-.67h-.14a.7.7,0,0,1-.5-.21A.64.64,0,0,1,186.39,266.55Zm2.4,0A.67.67,0,0,1,189,266a.77.77,0,0,1,.53-.19.9.9,0,0,1,.67.25,1,1,0,0,1,.25.76,2.3,2.3,0,0,1-.13.83,2.42,2.42,0,0,1-.34.6,1.74,1.74,0,0,1-.41.37,1.81,1.81,0,0,1-.39.2l-.36-.49a2,2,0,0,0,.58-.43.93.93,0,0,0,.25-.67h-.14a.7.7,0,0,1-.5-.21A.64.64,0,0,1,188.79,266.55Z"/><path class="cls-4" d="M203.27,270l1.2,3.33h.08l.86-4.65h.87l-1.17,6H204l-1.16-3.32h0l-1.2,3.32h-1.07l-1.26-6h.93l1,4.68h.07l1.16-3.36Z"/><path class="cls-4" d="M207.66,274.7v-.81h2.09V269.5h-2.09v-.8h3v5.19h2v.81Zm1.75-7.71a.84.84,0,0,1,.22-.56.73.73,0,0,1,.55-.23.8.8,0,0,1,.58.23.77.77,0,0,1,.24.56.68.68,0,0,1-.24.53.83.83,0,0,1-.58.22.76.76,0,0,1-.55-.22A.73.73,0,0,1,209.41,267Z"/><path class="cls-4" d="M217.78,266.3h1.95v6.34c0,.08,0,.17,0,.27l0,.35c0,.12,0,.23,0,.35s0,.22,0,.31h.81v.78h-1.61l-.12-.93h-.05a2,2,0,0,1-.78.76,2.28,2.28,0,0,1-1.2.31,2.46,2.46,0,0,1-2-.76,4.51,4.51,0,0,1-.42-3.71,2.59,2.59,0,0,1,.61-1,2.74,2.74,0,0,1,1-.6,3.77,3.77,0,0,1,1.25-.2h.45l.37,0a3,3,0,0,1,.32.06l.32.09v-1.7h-1Zm-.72,7.74a1.66,1.66,0,0,0,1.15-.38,2,2,0,0,0,.57-1.14v-2.78a1.66,1.66,0,0,0-.59-.26,3.38,3.38,0,0,0-.86-.09,2,2,0,0,0-1.51.56,2.41,2.41,0,0,0-.55,1.76,4.49,4.49,0,0,0,.09.92,2,2,0,0,0,.3.73,1.47,1.47,0,0,0,.55.5A1.84,1.84,0,0,0,217.06,274Z"/><path class="cls-4" d="M221.17,268.7h1.43v-1.19l1-.27v1.46h3.2v.8h-3.2v2.83a1.77,1.77,0,0,0,.42,1.3,1.67,1.67,0,0,0,1.22.42,2,2,0,0,0,.94-.21,5.12,5.12,0,0,0,.72-.44l.31.71a3.53,3.53,0,0,1-1,.54,3.78,3.78,0,0,1-1.2.2,2.65,2.65,0,0,1-.9-.14,2,2,0,0,1-.75-.42,2,2,0,0,1-.52-.74,2.88,2.88,0,0,1-.19-1.07v-3h-1.43Z"/><path class="cls-4" d="M228.05,266.3h1.87v3.14H230a2.68,2.68,0,0,1,.86-.65,2.81,2.81,0,0,1,1.23-.24,3.7,3.7,0,0,1,1,.12,1.47,1.47,0,0,1,.7.42,2,2,0,0,1,.4.82,5.47,5.47,0,0,1,.13,1.33v3.46h-1v-3.28a6,6,0,0,0-.06-.9,1.47,1.47,0,0,0-.23-.64,1.12,1.12,0,0,0-.47-.39,1.9,1.9,0,0,0-.77-.13,1.74,1.74,0,0,0-.63.11,2.24,2.24,0,0,0-.57.31,1.84,1.84,0,0,0-.44.48,1.78,1.78,0,0,0-.26.62v3.82H229v-7.6h-.95Z"/><path class="cls-4" d="M236,269.21h5.56v.87H236Zm0,2h5.56V272H236Z"/><path class="cls-4" d="M244,266.55a.68.68,0,0,1,.22-.52.75.75,0,0,1,.53-.19.9.9,0,0,1,.67.25,1,1,0,0,1,.25.76,2.09,2.09,0,0,1-.14.83,2.13,2.13,0,0,1-.33.6,1.6,1.6,0,0,1-.42.37,1.56,1.56,0,0,1-.38.2l-.36-.49a2.09,2.09,0,0,0,.58-.43.93.93,0,0,0,.25-.67h-.15a.68.68,0,0,1-.49-.21A.65.65,0,0,1,244,266.55Zm2.4,0a.68.68,0,0,1,.22-.52.75.75,0,0,1,.53-.19.9.9,0,0,1,.67.25,1,1,0,0,1,.25.76,2.09,2.09,0,0,1-.14.83,2.13,2.13,0,0,1-.33.6,1.6,1.6,0,0,1-.42.37,1.56,1.56,0,0,1-.38.2l-.36-.49a2.09,2.09,0,0,0,.58-.43.93.93,0,0,0,.25-.67h-.15a.68.68,0,0,1-.49-.21A.65.65,0,0,1,246.38,266.55Z"/><path class="cls-4" d="M251.12,273.83H253v-6.31l-1.92,1.34-.47-.68,2.64-1.88h.67v7.53h1.85v.87h-4.66Z"/><path class="cls-4" d="M259.87,274a3.11,3.11,0,0,0,.84-.11,1.89,1.89,0,0,0,.66-.35,1.63,1.63,0,0,0,.42-.58,2.1,2.1,0,0,0,.15-.82,1.52,1.52,0,0,0-.62-1.31,2.82,2.82,0,0,0-1.69-.45l-1.13.06V266.3h4.13v.86H259.4v2.44l.61,0a3.16,3.16,0,0,1,2.1.65,2.26,2.26,0,0,1,.77,1.85,2.81,2.81,0,0,1-.23,1.19,2.66,2.66,0,0,1-.64.87,2.94,2.94,0,0,1-1,.53,4,4,0,0,1-1.22.18,5.09,5.09,0,0,1-.69,0,4.65,4.65,0,0,1-.59-.14,3.5,3.5,0,0,1-.46-.16,1.06,1.06,0,0,1-.28-.17l.38-.78a4.75,4.75,0,0,0,.62.29A3,3,0,0,0,259.87,274Z"/><path class="cls-4" d="M264.66,270.5a8.47,8.47,0,0,1,.18-1.83,4.17,4.17,0,0,1,.54-1.37,2.46,2.46,0,0,1,.91-.85,2.74,2.74,0,0,1,1.32-.3,3,3,0,0,1,1.36.29,2.29,2.29,0,0,1,.91.84,3.89,3.89,0,0,1,.5,1.36,9.41,9.41,0,0,1,.16,1.86,8.47,8.47,0,0,1-.18,1.83,4.11,4.11,0,0,1-.54,1.36,2.44,2.44,0,0,1-.92.86,2.79,2.79,0,0,1-1.31.29,2.7,2.7,0,0,1-1.35-.32,2.5,2.5,0,0,1-.91-.89,4,4,0,0,1-.51-1.38A8.62,8.62,0,0,1,264.66,270.5Zm1,0c0,.2,0,.39,0,.57s0,.37.05.54l3.57-3.24a2.42,2.42,0,0,0-.6-1,1.49,1.49,0,0,0-1.09-.38,1.56,1.56,0,0,0-1.51.88A6.26,6.26,0,0,0,265.66,270.5Zm3.88,0a9.54,9.54,0,0,0-.07-1.22l-3.56,3.26a2.51,2.51,0,0,0,.61,1.09,1.46,1.46,0,0,0,1.07.41,1.57,1.57,0,0,0,1.5-.88A6,6,0,0,0,269.54,270.5Z"/><path class="cls-4" d="M272.78,266.55A.68.68,0,0,1,273,266a.75.75,0,0,1,.53-.19.9.9,0,0,1,.67.25,1,1,0,0,1,.25.76,2.09,2.09,0,0,1-.14.83,2.13,2.13,0,0,1-.33.6,1.6,1.6,0,0,1-.42.37,1.56,1.56,0,0,1-.38.2l-.36-.49a2.09,2.09,0,0,0,.58-.43.93.93,0,0,0,.25-.67h-.15a.68.68,0,0,1-.49-.21A.65.65,0,0,1,272.78,266.55Zm2.4,0a.68.68,0,0,1,.22-.52.75.75,0,0,1,.53-.19.9.9,0,0,1,.67.25,1,1,0,0,1,.25.76,2.09,2.09,0,0,1-.14.83,2.13,2.13,0,0,1-.33.6,1.6,1.6,0,0,1-.42.37,1.56,1.56,0,0,1-.38.2l-.36-.49a2.09,2.09,0,0,0,.58-.43.93.93,0,0,0,.25-.67h-.15a.68.68,0,0,1-.49-.21A.65.65,0,0,1,275.18,266.55Z"/><path class="cls-4" d="M285.65,266.3h1.87v3.14h.06a2.68,2.68,0,0,1,.86-.65,2.81,2.81,0,0,1,1.23-.24,3.7,3.7,0,0,1,1,.12,1.47,1.47,0,0,1,.7.42,2,2,0,0,1,.4.82,5.47,5.47,0,0,1,.13,1.33v3.46H291v-3.28a6,6,0,0,0-.06-.9,1.61,1.61,0,0,0-.23-.64,1.12,1.12,0,0,0-.47-.39,1.9,1.9,0,0,0-.77-.13,1.71,1.71,0,0,0-.63.11,2.24,2.24,0,0,0-.57.31,1.84,1.84,0,0,0-.44.48,1.78,1.78,0,0,0-.26.62v3.82h-.92v-7.6h-1Z"/><path class="cls-4" d="M299.15,273.94a3.3,3.3,0,0,1-.51.36,4.15,4.15,0,0,1-.64.29,4.58,4.58,0,0,1-.73.18,3.91,3.91,0,0,1-.76.07,3.31,3.31,0,0,1-1.27-.22,2.46,2.46,0,0,1-.93-.64,2.67,2.67,0,0,1-.56-1,4.46,4.46,0,0,1,0-2.64,2.62,2.62,0,0,1,.6-1,2.67,2.67,0,0,1,1-.61,3.62,3.62,0,0,1,1.26-.21,4.22,4.22,0,0,1,1,.13,2,2,0,0,1,.87.5,2.47,2.47,0,0,1,.58,1,4.6,4.6,0,0,1,.14,1.66h-4.63a2.13,2.13,0,0,0,.58,1.62,2.24,2.24,0,0,0,1.55.53,2.74,2.74,0,0,0,.64-.08,5.43,5.43,0,0,0,.61-.18l.51-.24a3.13,3.13,0,0,0,.34-.24Zm-2.53-4.6a3.08,3.08,0,0,0-.75.09,1.67,1.67,0,0,0-.62.28,1.41,1.41,0,0,0-.44.52,1.94,1.94,0,0,0-.22.78h3.72a1.83,1.83,0,0,0-.51-1.23A1.62,1.62,0,0,0,296.62,269.34Z"/><path class="cls-4" d="M301.26,274.7v-.81h2.09V269.5h-2.09v-.8h3v5.19h2v.81ZM303,267a.79.79,0,0,1,.22-.56.73.73,0,0,1,.55-.23.8.8,0,0,1,.58.23.77.77,0,0,1,.24.56.68.68,0,0,1-.24.53.83.83,0,0,1-.58.22.76.76,0,0,1-.55-.22A.69.69,0,0,1,303,267Z"/><path class="cls-4" d="M313.49,275a2.12,2.12,0,0,1-.22,1,2,2,0,0,1-.59.7,2.8,2.8,0,0,1-.89.41,4.17,4.17,0,0,1-1.09.14,5,5,0,0,1-1.23-.14,3.46,3.46,0,0,1-.91-.38l.45-.85a1.05,1.05,0,0,0,.28.19l.4.17a3.19,3.19,0,0,0,.49.12,2.92,2.92,0,0,0,.5,0,3.09,3.09,0,0,0,.88-.1,1.2,1.2,0,0,0,.57-.3,1.05,1.05,0,0,0,.31-.52,2.64,2.64,0,0,0,.1-.8V274h-.05a1.79,1.79,0,0,1-.7.61,3,3,0,0,1-3.12-.54,3.63,3.63,0,0,1-.64-2.37,3.07,3.07,0,0,1,.81-2.32,3.37,3.37,0,0,1,2.43-.79,6.49,6.49,0,0,1,1.26.1,7.38,7.38,0,0,1,1,.26Zm-2.68-1a1.66,1.66,0,0,0,1.15-.38,2.15,2.15,0,0,0,.58-1.16v-2.84a3.43,3.43,0,0,0-1.47-.26,2,2,0,0,0-1.5.57,2.41,2.41,0,0,0-.55,1.73,4,4,0,0,0,.1.94,2.13,2.13,0,0,0,.3.74,1.42,1.42,0,0,0,.55.48A1.8,1.8,0,0,0,310.81,274Z"/><path class="cls-4" d="M314.45,266.3h1.87v3.14h.06a2.68,2.68,0,0,1,.86-.65,2.81,2.81,0,0,1,1.23-.24,3.7,3.7,0,0,1,1,.12,1.47,1.47,0,0,1,.7.42,2,2,0,0,1,.4.82,5.47,5.47,0,0,1,.13,1.33v3.46h-.95v-3.28a6,6,0,0,0-.06-.9,1.61,1.61,0,0,0-.23-.64,1.12,1.12,0,0,0-.47-.39,1.9,1.9,0,0,0-.77-.13,1.71,1.71,0,0,0-.63.11,2.24,2.24,0,0,0-.57.31,1.84,1.84,0,0,0-.44.48,1.78,1.78,0,0,0-.26.62v3.82h-.92v-7.6h-.95Z"/><path class="cls-4" d="M322,268.7h1.43v-1.19l1-.27v1.46h3.2v.8h-3.2v2.83a1.77,1.77,0,0,0,.42,1.3,1.67,1.67,0,0,0,1.22.42,2,2,0,0,0,.93-.21,4.71,4.71,0,0,0,.73-.44l.31.71a3.53,3.53,0,0,1-1,.54,3.78,3.78,0,0,1-1.2.2,2.65,2.65,0,0,1-.9-.14,2,2,0,0,1-.75-.42,2,2,0,0,1-.52-.74,2.69,2.69,0,0,1-.19-1.07v-3H322Z"/><path class="cls-4" d="M329.62,269.21h5.56v.87h-5.56Zm0,2h5.56V272h-5.56Z"/><path class="cls-4" d="M337.58,266.55a.68.68,0,0,1,.22-.52.75.75,0,0,1,.53-.19.9.9,0,0,1,.67.25,1,1,0,0,1,.25.76,2.09,2.09,0,0,1-.14.83,2.13,2.13,0,0,1-.33.6,1.6,1.6,0,0,1-.42.37,1.56,1.56,0,0,1-.38.2l-.36-.49a2.09,2.09,0,0,0,.58-.43.93.93,0,0,0,.25-.67h-.15a.72.72,0,0,1-.5-.21A.67.67,0,0,1,337.58,266.55Zm2.4,0a.65.65,0,0,1,.22-.52.75.75,0,0,1,.53-.19.9.9,0,0,1,.67.25,1,1,0,0,1,.25.76,2.29,2.29,0,0,1-.14.83,2.13,2.13,0,0,1-.33.6,1.77,1.77,0,0,1-.42.37,1.56,1.56,0,0,1-.38.2l-.36-.49a2.09,2.09,0,0,0,.58-.43,1,1,0,0,0,.25-.67h-.15a.68.68,0,0,1-.49-.21A.65.65,0,0,1,340,266.55Z"/><path class="cls-4" d="M344.72,273.83h1.89v-6.31l-1.92,1.34-.47-.68,2.64-1.88h.67v7.53h1.85v.87h-4.66Z"/><path class="cls-4" d="M353.47,274a3.11,3.11,0,0,0,.84-.11,1.89,1.89,0,0,0,.66-.35,1.63,1.63,0,0,0,.42-.58,2.1,2.1,0,0,0,.15-.82,1.52,1.52,0,0,0-.62-1.31,2.85,2.85,0,0,0-1.69-.45l-1.13.06V266.3h4.13v.86H353v2.44l.61,0a3.16,3.16,0,0,1,2.1.65,2.26,2.26,0,0,1,.77,1.85,2.81,2.81,0,0,1-.23,1.19,2.66,2.66,0,0,1-.64.87,2.94,2.94,0,0,1-1,.53,4,4,0,0,1-1.22.18,5.09,5.09,0,0,1-.69,0,4.27,4.27,0,0,1-.59-.14,3,3,0,0,1-.46-.16,1.06,1.06,0,0,1-.28-.17l.38-.78a4.75,4.75,0,0,0,.62.29A3,3,0,0,0,353.47,274Z"/><path class="cls-4" d="M358.26,270.5a8.47,8.47,0,0,1,.18-1.83,4.17,4.17,0,0,1,.54-1.37,2.46,2.46,0,0,1,.91-.85,2.74,2.74,0,0,1,1.32-.3,3,3,0,0,1,1.36.29,2.29,2.29,0,0,1,.91.84,3.89,3.89,0,0,1,.5,1.36,9.41,9.41,0,0,1,.16,1.86,8.47,8.47,0,0,1-.18,1.83,4.11,4.11,0,0,1-.54,1.36,2.44,2.44,0,0,1-.92.86,2.81,2.81,0,0,1-1.31.29,2.7,2.7,0,0,1-1.35-.32,2.5,2.5,0,0,1-.91-.89,4,4,0,0,1-.51-1.38A8.62,8.62,0,0,1,358.26,270.5Zm1,0c0,.2,0,.39,0,.57s0,.37,0,.54l3.58-3.24a2.44,2.44,0,0,0-.61-1,1.47,1.47,0,0,0-1.08-.38,1.55,1.55,0,0,0-1.51.88A6.24,6.24,0,0,0,359.25,270.5Zm3.89,0a9.54,9.54,0,0,0-.07-1.22l-3.56,3.26a2.51,2.51,0,0,0,.61,1.09,1.46,1.46,0,0,0,1.07.41,1.57,1.57,0,0,0,1.5-.88A6,6,0,0,0,363.14,270.5Z"/><path class="cls-4" d="M366.38,266.55a.68.68,0,0,1,.22-.52.75.75,0,0,1,.53-.19.9.9,0,0,1,.67.25,1,1,0,0,1,.25.76,2.29,2.29,0,0,1-.14.83,2.13,2.13,0,0,1-.33.6,1.6,1.6,0,0,1-.42.37,1.56,1.56,0,0,1-.38.2l-.36-.49a2.09,2.09,0,0,0,.58-.43.93.93,0,0,0,.25-.67h-.15a.72.72,0,0,1-.5-.21A.67.67,0,0,1,366.38,266.55Zm2.4,0A.65.65,0,0,1,369,266a.75.75,0,0,1,.53-.19.9.9,0,0,1,.67.25,1,1,0,0,1,.25.76,2.29,2.29,0,0,1-.14.83,2.13,2.13,0,0,1-.33.6,1.77,1.77,0,0,1-.42.37,1.56,1.56,0,0,1-.38.2l-.36-.49a2.09,2.09,0,0,0,.58-.43,1,1,0,0,0,.25-.67h-.15a.72.72,0,0,1-.5-.21A.67.67,0,0,1,368.78,266.55Z"/><path class="cls-4" d="M379.57,268.7H381v-1.19l.95-.27v1.46h3.2v.8H382v2.83a1.77,1.77,0,0,0,.42,1.3,1.65,1.65,0,0,0,1.21.42,2,2,0,0,0,.94-.21,4.71,4.71,0,0,0,.73-.44l.31.71a3.67,3.67,0,0,1-1,.54,3.78,3.78,0,0,1-1.2.2,2.65,2.65,0,0,1-.9-.14,2,2,0,0,1-.75-.42,2,2,0,0,1-.52-.74,2.69,2.69,0,0,1-.19-1.07v-3h-1.43Z"/><path class="cls-4" d="M387.19,274.7v-.81h1.62V269.5h-1.62v-.8h2.24l.2.78h.06a4.25,4.25,0,0,1,.91-.64,2.47,2.47,0,0,1,1.2-.26,1.23,1.23,0,0,1,.65.15,1.11,1.11,0,0,1,.39.46,2.37,2.37,0,0,1,.18.72,9.35,9.35,0,0,1,.05,1h-.84a3.09,3.09,0,0,0-.15-1.12.55.55,0,0,0-.55-.35,2,2,0,0,0-.67.1,2.31,2.31,0,0,0-.52.27,3.17,3.17,0,0,0-.38.31,2.26,2.26,0,0,0-.23.26v3.53H392v.81Z"/><path class="cls-4" d="M394.89,269.16a4.28,4.28,0,0,1,1.17-.43,6.22,6.22,0,0,1,1.27-.13,2.23,2.23,0,0,1,1,.19,1.61,1.61,0,0,1,.61.5,1.85,1.85,0,0,1,.31.7,4.11,4.11,0,0,1,.07.78c0,.31,0,.63,0,1s0,.69,0,1a10.26,10.26,0,0,0,.07,1.14h.81v.78h-1.59l-.1-.9h-.06a2.94,2.94,0,0,1-.22.27,2.14,2.14,0,0,1-.38.33,2.52,2.52,0,0,1-.57.28,2.41,2.41,0,0,1-.8.12,2,2,0,0,1-1.4-.45,1.57,1.57,0,0,1-.52-1.25,1.8,1.8,0,0,1,.27-1,1.68,1.68,0,0,1,.78-.62,3.5,3.5,0,0,1,1.22-.26,8.46,8.46,0,0,1,1.61.1,4.08,4.08,0,0,0,0-.92,1.28,1.28,0,0,0-.19-.58.83.83,0,0,0-.42-.31,2.13,2.13,0,0,0-.67-.09,3.47,3.47,0,0,0-1,.15c-.33.1-.63.21-.88.31Zm1.78,4.84a1.8,1.8,0,0,0,.62-.11,1.9,1.9,0,0,0,.51-.27,2.5,2.5,0,0,0,.36-.37,2.17,2.17,0,0,0,.22-.38V272a7.17,7.17,0,0,0-1.16-.11,3.09,3.09,0,0,0-.91.12,1.19,1.19,0,0,0-.6.35.92.92,0,0,0-.21.63,1,1,0,0,0,.26.69A1.23,1.23,0,0,0,396.67,274Z"/><path class="cls-4" d="M401.91,270.8v-.29c0-.11,0-.23,0-.36l0-.36c0-.12,0-.23,0-.31H401v-.78h1.61l.11,1h.06a1.94,1.94,0,0,1,.32-.4,1.84,1.84,0,0,1,.46-.36,2.25,2.25,0,0,1,.59-.26,2.15,2.15,0,0,1,.68-.1,3.6,3.6,0,0,1,1,.12,1.48,1.48,0,0,1,.71.43,1.86,1.86,0,0,1,.42.83,4.84,4.84,0,0,1,.15,1.32v3.45h-1v-3.26a2.88,2.88,0,0,0-.32-1.5,1.3,1.3,0,0,0-1.17-.5,1.46,1.46,0,0,0-.61.13,2,2,0,0,0-.53.33,2.11,2.11,0,0,0-.42.47,1.83,1.83,0,0,0-.26.57v3.76h-.93Z"/><path class="cls-4" d="M413.24,273.08a.69.69,0,0,0-.3-.6,2.3,2.3,0,0,0-.74-.33c-.29-.09-.62-.17-1-.24a5.5,5.5,0,0,1-1-.29,2.25,2.25,0,0,1-.74-.48,1.18,1.18,0,0,1-.3-.86,1.51,1.51,0,0,1,.2-.78A1.65,1.65,0,0,1,410,269a2.49,2.49,0,0,1,.76-.32,4.43,4.43,0,0,1,.9-.1,4.48,4.48,0,0,1,1.45.21,4.87,4.87,0,0,1,1,.44l-.38.76a7.65,7.65,0,0,0-.86-.42,2.93,2.93,0,0,0-1.15-.2,2.24,2.24,0,0,0-.52.06,1.74,1.74,0,0,0-.47.16.91.91,0,0,0-.33.28.69.69,0,0,0-.13.43.52.52,0,0,0,.3.48,3.48,3.48,0,0,0,.74.28c.3.08.62.15,1,.22a4.28,4.28,0,0,1,1,.29,2.2,2.2,0,0,1,.74.52,1.21,1.21,0,0,1,.3.87,1.72,1.72,0,0,1-.65,1.37,3,3,0,0,1-2,.54,4.11,4.11,0,0,1-.78-.07,5.42,5.42,0,0,1-.72-.19,4.88,4.88,0,0,1-.61-.27A2.92,2.92,0,0,1,409,274l.47-.78a2.19,2.19,0,0,0,.39.29,3.63,3.63,0,0,0,.52.27,4.08,4.08,0,0,0,.62.2,3.7,3.7,0,0,0,.66.07,2.93,2.93,0,0,0,.61-.06,1.83,1.83,0,0,0,.5-.16,1.1,1.1,0,0,0,.34-.3A.84.84,0,0,0,413.24,273.08Z"/><path class="cls-4" d="M416.25,274.7v-.81h1.43V269.5h-1.43v-.8h1.43v-.34a2,2,0,0,1,.59-1.63,2.48,2.48,0,0,1,1.68-.51,5,5,0,0,1,.71,0,3.27,3.27,0,0,1,.67.19l-.21.78a3,3,0,0,0-.6-.17,3.4,3.4,0,0,0-.53,0,1.25,1.25,0,0,0-1.07.39,2.2,2.2,0,0,0-.29,1.28h2.48v.8h-2.48v4.39h2.48v.81Z"/><path class="cls-4" d="M423.08,271.7a3.29,3.29,0,0,1,.76-2.3,2.72,2.72,0,0,1,2.16-.85,3,3,0,0,1,1.3.25,2.54,2.54,0,0,1,.91.66,2.82,2.82,0,0,1,.53,1,4.13,4.13,0,0,1,.17,1.24,4.08,4.08,0,0,1-.19,1.3,2.67,2.67,0,0,1-.56,1,2.6,2.6,0,0,1-.92.63,3.23,3.23,0,0,1-1.24.22,3.08,3.08,0,0,1-1.3-.25,2.46,2.46,0,0,1-.91-.66,2.6,2.6,0,0,1-.53-1A4.06,4.06,0,0,1,423.08,271.7Zm1,0a3.44,3.44,0,0,0,.1.84,2.32,2.32,0,0,0,.33.75,1.61,1.61,0,0,0,.59.54,2,2,0,0,0,2.33-.39,2.65,2.65,0,0,0,.49-1.74,4,4,0,0,0-.1-.85,2.14,2.14,0,0,0-.34-.75,1.74,1.74,0,0,0-.6-.54,1.86,1.86,0,0,0-.89-.2,1.73,1.73,0,0,0-1.43.58A2.76,2.76,0,0,0,424.08,271.7Z"/><path class="cls-4" d="M430.39,274.7v-.81H432V269.5h-1.62v-.8h2.24l.2.78h.06a4.25,4.25,0,0,1,.91-.64,2.47,2.47,0,0,1,1.2-.26,1.23,1.23,0,0,1,.65.15,1.11,1.11,0,0,1,.39.46,2.37,2.37,0,0,1,.18.72,9.35,9.35,0,0,1,0,1h-.84a3.09,3.09,0,0,0-.15-1.12.55.55,0,0,0-.55-.35,2,2,0,0,0-.67.1,2.31,2.31,0,0,0-.52.27,3.17,3.17,0,0,0-.38.31,2.26,2.26,0,0,0-.23.26v3.53h2.31v.81Z"/><path class="cls-4" d="M439.94,274.7v-4a3.93,3.93,0,0,0,0-.49,1.84,1.84,0,0,0-.08-.42.67.67,0,0,0-.19-.29.52.52,0,0,0-.33-.11.89.89,0,0,0-.69.34,2.22,2.22,0,0,0-.43.84v4.13h-.91v-6h.62l.18.73h.05c.08-.12.16-.24.24-.34a1.2,1.2,0,0,1,.26-.29,1.06,1.06,0,0,1,.35-.18,1.56,1.56,0,0,1,.52-.07,1.24,1.24,0,0,1,.37.06,1.17,1.17,0,0,1,.36.16,1.21,1.21,0,0,1,.28.31,1.09,1.09,0,0,1,.15.47,2.54,2.54,0,0,1,.62-.73,1.48,1.48,0,0,1,.94-.27,1.5,1.5,0,0,1,.65.13,1,1,0,0,1,.38.38,1.71,1.71,0,0,1,.19.59,4.42,4.42,0,0,1,.06.76v4.29h-.92v-4.08a3.7,3.7,0,0,0,0-.48,1.87,1.87,0,0,0-.09-.39.55.55,0,0,0-.18-.26.5.5,0,0,0-.31-.1.9.9,0,0,0-.7.34,2.15,2.15,0,0,0-.44,1v4Z"/><path class="cls-4" d="M444.81,269.21h5.57v.87h-5.57Zm0,2h5.57V272h-5.57Z"/><path class="cls-4" d="M452.78,266.55A.65.65,0,0,1,453,266a.75.75,0,0,1,.53-.19.9.9,0,0,1,.67.25,1,1,0,0,1,.25.76,2.29,2.29,0,0,1-.14.83,2.13,2.13,0,0,1-.33.6,1.77,1.77,0,0,1-.42.37,1.56,1.56,0,0,1-.38.2l-.36-.49a2.09,2.09,0,0,0,.58-.43,1,1,0,0,0,.25-.67h-.15a.72.72,0,0,1-.5-.21A.67.67,0,0,1,452.78,266.55Zm2.4,0a.65.65,0,0,1,.22-.52.74.74,0,0,1,.52-.19.91.91,0,0,1,.68.25,1,1,0,0,1,.25.76,2.29,2.29,0,0,1-.14.83,2.13,2.13,0,0,1-.33.6,1.77,1.77,0,0,1-.42.37,1.56,1.56,0,0,1-.38.2l-.36-.49a2.24,2.24,0,0,0,.58-.43,1,1,0,0,0,.24-.67h-.14a.72.72,0,0,1-.5-.21A.64.64,0,0,1,455.18,266.55Z"/><path class="cls-4" d="M463.64,273.08a.69.69,0,0,0-.3-.6,2.3,2.3,0,0,0-.74-.33c-.29-.09-.62-.17-1-.24a5.5,5.5,0,0,1-1-.29,2.25,2.25,0,0,1-.74-.48,1.18,1.18,0,0,1-.3-.86,1.51,1.51,0,0,1,.2-.78,1.65,1.65,0,0,1,.52-.53,2.49,2.49,0,0,1,.76-.32,4.43,4.43,0,0,1,.9-.1,4.48,4.48,0,0,1,1.45.21,4.87,4.87,0,0,1,1,.44L464,270a7.65,7.65,0,0,0-.86-.42,2.93,2.93,0,0,0-1.15-.2,2.24,2.24,0,0,0-.52.06,1.74,1.74,0,0,0-.47.16.91.91,0,0,0-.33.28.69.69,0,0,0-.13.43.52.52,0,0,0,.3.48,3.48,3.48,0,0,0,.74.28c.3.08.62.15,1,.22a4.28,4.28,0,0,1,1,.29,2.2,2.2,0,0,1,.74.52,1.21,1.21,0,0,1,.3.87,1.72,1.72,0,0,1-.65,1.37,3,3,0,0,1-2,.54,4.11,4.11,0,0,1-.78-.07,5.42,5.42,0,0,1-.72-.19,4.3,4.3,0,0,1-.61-.27,2.92,2.92,0,0,1-.45-.31l.47-.78a2.19,2.19,0,0,0,.39.29,3.63,3.63,0,0,0,.52.27,4.08,4.08,0,0,0,.62.2,3.7,3.7,0,0,0,.66.07,2.93,2.93,0,0,0,.61-.06,1.66,1.66,0,0,0,.49-.16,1,1,0,0,0,.35-.3A.84.84,0,0,0,463.64,273.08Z"/><path class="cls-4" d="M470.87,269.62a5.25,5.25,0,0,0-.6-.16,2.7,2.7,0,0,0-.63-.07,2.44,2.44,0,0,0-1.75.56,2.33,2.33,0,0,0-.58,1.75,2.55,2.55,0,0,0,.17.95,1.9,1.9,0,0,0,.48.7,2.34,2.34,0,0,0,.75.45,3,3,0,0,0,1,.15,3.22,3.22,0,0,0,1.1-.19,2.68,2.68,0,0,0,.89-.52l.42.7a2.54,2.54,0,0,1-.42.3,4.47,4.47,0,0,1-.58.29,3.9,3.9,0,0,1-.73.23,4.77,4.77,0,0,1-.87.08,3.92,3.92,0,0,1-1.38-.22,2.69,2.69,0,0,1-1-.64,2.83,2.83,0,0,1-.6-1,4.06,4.06,0,0,1-.2-1.29,4,4,0,0,1,.21-1.35,2.62,2.62,0,0,1,.6-1,2.67,2.67,0,0,1,1-.61,3.62,3.62,0,0,1,1.26-.21,5.23,5.23,0,0,1,1.45.16,4.78,4.78,0,0,1,.94.35v1.7h-.86Z"/><path class="cls-4" d="M474.09,269.16a4.28,4.28,0,0,1,1.17-.43,6.15,6.15,0,0,1,1.27-.13,2.23,2.23,0,0,1,1,.19,1.61,1.61,0,0,1,.61.5,1.69,1.69,0,0,1,.3.7,3.44,3.44,0,0,1,.08.78c0,.31,0,.63,0,1s0,.69,0,1a10.26,10.26,0,0,0,.07,1.14h.81v.78h-1.59l-.11-.9h-.06a2.57,2.57,0,0,1-.21.27,2.14,2.14,0,0,1-.38.33,2.52,2.52,0,0,1-.57.28,2.41,2.41,0,0,1-.8.12,2.09,2.09,0,0,1-1.41-.45,1.6,1.6,0,0,1-.51-1.25,1.8,1.8,0,0,1,.27-1,1.7,1.7,0,0,1,.77-.62,3.61,3.61,0,0,1,1.23-.26,8.36,8.36,0,0,1,1.6.1,4.16,4.16,0,0,0,0-.92,1.28,1.28,0,0,0-.19-.58.83.83,0,0,0-.42-.31,2.17,2.17,0,0,0-.67-.09,3.58,3.58,0,0,0-1,.15c-.33.1-.62.21-.88.31Zm1.78,4.84a1.8,1.8,0,0,0,.62-.11,2.06,2.06,0,0,0,.51-.27,2.5,2.5,0,0,0,.36-.37,2.08,2.08,0,0,0,.21-.38V272a7,7,0,0,0-1.15-.11,3,3,0,0,0-.91.12,1.19,1.19,0,0,0-.6.35.88.88,0,0,0-.22.63,1,1,0,0,0,.27.69A1.21,1.21,0,0,0,475.87,274Z"/><path class="cls-4" d="M481.42,266.3h2v6.38a1.68,1.68,0,0,0,.24,1,.9.9,0,0,0,.73.3,1.73,1.73,0,0,0,.64-.12,2.55,2.55,0,0,0,.68-.41l.43.66a2,2,0,0,1-.42.3,2.92,2.92,0,0,1-.47.23,2.85,2.85,0,0,1-.48.13,1.82,1.82,0,0,1-.45.05,2.74,2.74,0,0,1-.79-.11,1.35,1.35,0,0,1-.58-.37,1.61,1.61,0,0,1-.36-.66,3.78,3.78,0,0,1-.12-1V267.1h-1.06Z"/><path class="cls-4" d="M493.54,273.94a2.79,2.79,0,0,1-.5.36,4.27,4.27,0,0,1-.65.29,4.21,4.21,0,0,1-.72.18,3.91,3.91,0,0,1-.76.07,3.37,3.37,0,0,1-1.28-.22,2.5,2.5,0,0,1-.92-.64,2.53,2.53,0,0,1-.56-1,4.35,4.35,0,0,1,0-2.64,2.58,2.58,0,0,1,1.57-1.59,3.62,3.62,0,0,1,1.26-.21,4.22,4.22,0,0,1,1,.13,2.13,2.13,0,0,1,.87.5,2.47,2.47,0,0,1,.58,1,4.84,4.84,0,0,1,.14,1.66H489a2.1,2.1,0,0,0,.58,1.62,2.22,2.22,0,0,0,1.55.53,2.8,2.8,0,0,0,.64-.08,5.26,5.26,0,0,0,.6-.18,4.13,4.13,0,0,0,.51-.24,2.37,2.37,0,0,0,.34-.24Zm-2.52-4.6a3.08,3.08,0,0,0-.75.09,1.67,1.67,0,0,0-.62.28,1.41,1.41,0,0,0-.44.52,1.94,1.94,0,0,0-.22.78h3.72a1.83,1.83,0,0,0-.51-1.23A1.64,1.64,0,0,0,491,269.34Z"/><path class="cls-4" d="M499.58,277.24a6.05,6.05,0,0,1-1.51-.61,4.19,4.19,0,0,1-1.22-1.05A5,5,0,0,1,496,274a7.27,7.27,0,0,1-.3-2.22,7.15,7.15,0,0,1,.31-2.23,5.39,5.39,0,0,1,.84-1.62,4.13,4.13,0,0,1,1.23-1.06,5,5,0,0,1,1.48-.57l.3.75a6.33,6.33,0,0,0-1.3.54,3.53,3.53,0,0,0-1,.87,4.21,4.21,0,0,0-.66,1.36,7,7,0,0,0-.24,2,6.1,6.1,0,0,0,.29,2,4.2,4.2,0,0,0,.74,1.36,3.64,3.64,0,0,0,1,.86,4.45,4.45,0,0,0,1.15.42Z"/><path class="cls-4" d="M504.39,274a.78.78,0,0,1,.22-.6.77.77,0,0,1,.57-.21.85.85,0,0,1,.61.21.81.81,0,0,1,.21.6.8.8,0,0,1-.21.57.82.82,0,0,1-.61.23.75.75,0,0,1-.57-.23A.77.77,0,0,1,504.39,274Z"/><path class="cls-4" d="M511.87,274a3.22,3.22,0,0,0,.84-.11,1.93,1.93,0,0,0,.65-.35,1.63,1.63,0,0,0,.42-.58,2.1,2.1,0,0,0,.15-.82,1.49,1.49,0,0,0-.62-1.31,2.79,2.79,0,0,0-1.68-.45l-1.13.06V266.3h4.13v.86H511.4v2.44l.6,0a3.19,3.19,0,0,1,2.11.65,2.29,2.29,0,0,1,.77,1.85,3,3,0,0,1-.23,1.19,2.55,2.55,0,0,1-.65.87,2.75,2.75,0,0,1-1,.53,4,4,0,0,1-1.22.18,4.83,4.83,0,0,1-.68,0,4,4,0,0,1-.59-.14,3,3,0,0,1-.46-.16,1.16,1.16,0,0,1-.29-.17l.39-.78a4.19,4.19,0,0,0,.62.29A3,3,0,0,0,511.87,274Z"/><path class="cls-4" d="M518.74,274a.78.78,0,0,1,.24-.59.87.87,0,0,1,.6-.22.86.86,0,0,1,.71.32,1.39,1.39,0,0,1,.25.89,2.12,2.12,0,0,1-.15.83,2.59,2.59,0,0,1-.39.6,2.31,2.31,0,0,1-.51.39,2.26,2.26,0,0,1-.49.22l-.3-.46a2.48,2.48,0,0,0,.74-.48,1,1,0,0,0,.31-.76l-.26,0a.76.76,0,0,1-.55-.2A.8.8,0,0,1,518.74,274Z"/><path class="cls-4" d="M526,274a.78.78,0,0,1,.22-.6.77.77,0,0,1,.57-.21.81.81,0,0,1,.6.21.78.78,0,0,1,.22.6.77.77,0,0,1-.22.57.78.78,0,0,1-.6.23.75.75,0,0,1-.57-.23A.77.77,0,0,1,526,274Z"/><path class="cls-4" d="M533.47,274a3.22,3.22,0,0,0,.84-.11,1.93,1.93,0,0,0,.65-.35,1.63,1.63,0,0,0,.42-.58,2.1,2.1,0,0,0,.15-.82,1.49,1.49,0,0,0-.62-1.31,2.79,2.79,0,0,0-1.68-.45l-1.13.06V266.3h4.13v.86H533v2.44l.6,0a3.19,3.19,0,0,1,2.11.65,2.29,2.29,0,0,1,.77,1.85,3,3,0,0,1-.23,1.19,2.55,2.55,0,0,1-.65.87,2.75,2.75,0,0,1-1,.53,4,4,0,0,1-1.22.18,4.83,4.83,0,0,1-.68,0,4,4,0,0,1-.59-.14,3.67,3.67,0,0,1-.47-.16,1.26,1.26,0,0,1-.28-.17l.39-.78a4.19,4.19,0,0,0,.62.29A3,3,0,0,0,533.47,274Z"/><path class="cls-4" d="M539.3,276.41a4.32,4.32,0,0,0,1.15-.42,3.64,3.64,0,0,0,1-.86,4.4,4.4,0,0,0,.74-1.36,6.1,6.1,0,0,0,.29-2,7,7,0,0,0-.24-2,4.21,4.21,0,0,0-.66-1.36,3.53,3.53,0,0,0-1-.87,6.33,6.33,0,0,0-1.3-.54l.3-.75a5,5,0,0,1,1.48.57,4.13,4.13,0,0,1,1.23,1.06,5.39,5.39,0,0,1,.84,1.62,7.15,7.15,0,0,1,.31,2.23,7.27,7.27,0,0,1-.3,2.22,5,5,0,0,1-.83,1.58,4.19,4.19,0,0,1-1.22,1.05,6.05,6.05,0,0,1-1.51.61Z"/><path class="cls-4" d="M546.38,266.55a.65.65,0,0,1,.22-.52.74.74,0,0,1,.52-.19.92.92,0,0,1,.68.25,1.07,1.07,0,0,1,.25.76,2.29,2.29,0,0,1-.14.83,1.92,1.92,0,0,1-.34.6,1.74,1.74,0,0,1-.41.37,1.56,1.56,0,0,1-.38.2l-.36-.49a2.24,2.24,0,0,0,.58-.43,1,1,0,0,0,.24-.67h-.14a.72.72,0,0,1-.5-.21A.64.64,0,0,1,546.38,266.55Zm2.4,0A.65.65,0,0,1,549,266a.74.74,0,0,1,.52-.19.92.92,0,0,1,.68.25,1.07,1.07,0,0,1,.25.76,2.29,2.29,0,0,1-.14.83,1.92,1.92,0,0,1-.34.6,1.74,1.74,0,0,1-.41.37,1.56,1.56,0,0,1-.38.2l-.36-.49a2.24,2.24,0,0,0,.58-.43,1,1,0,0,0,.24-.67h-.14a.72.72,0,0,1-.5-.21A.64.64,0,0,1,548.78,266.55Z"/><path class="cls-4" d="M553,274.29l-.45-.72,4.77-2.77L552.55,268l.45-.75,5.66,3.45V271Z"/></svg>