<?xml version="1.0" encoding="utf-8"?>
<!-- Generator: Adobe Illustrator 24.0.1, SVG Export Plug-In . SVG Version: 6.00 Build 0)  -->
<svg version="1.1" id="interactive-0" xmlns="http://www.w3.org/2000/svg" xmlns:xlink="http://www.w3.org/1999/xlink" x="0px"
	 y="0px" viewBox="0 0 600 300" style="enable-background:new 0 0 600 300;" xml:space="preserve">
<style type="text/css">
	.st0{fill:#ECECEC;}
	.st1{fill:none;stroke:#333333;stroke-miterlimit:10;}
	.st2{fill:none;stroke:#333333;stroke-miterlimit:10;stroke-dasharray:11.5762,11.5762;}
	.st3{fill:none;stroke:#333333;stroke-miterlimit:10;stroke-dasharray:12.1443,12.1443;}
	.st4{fill:#333333;}
	.st5{fill:#ECECEC;stroke:#333333;stroke-miterlimit:10;}
</style>
<g id="group-1">
	<path id="path-12" class="st0" d="M120,200L280,90l70,140L120,200z"/>
	<g id="path-13">
		<g>
			<line class="st1" x1="280" y1="90" x2="285.9" y2="90.8"/>
			<line class="st2" x1="297.4" y1="92.3" x2="498.3" y2="118.5"/>
			<polyline class="st1" points="504.1,119.2 510,120 505.1,123.4 			"/>
			<line class="st3" x1="495" y1="130.3" x2="359.9" y2="223.2"/>
			<line class="st1" x1="354.9" y1="226.6" x2="350" y2="230"/>
		</g>
	</g>
</g>
<g id="group-2">
	<g id="control-3" transform="translate( -180, 50)">
		<circle id="circle-4" class="st4" cx="300" cy="150" r="4"/>
	</g>
</g>
<g id="path-12_1_">
	<line class="st0" x1="120" y1="200" x2="280" y2="90"/>
	<g>
		<line class="st1" x1="120" y1="200" x2="274.1" y2="94.1"/>
		<g>
			<polygon class="st4" points="275.7,99 280,90 270.1,90.8 			"/>
		</g>
	</g>
</g>
<g id="path-12_2_">
	<line class="st0" x1="350" y1="230" x2="120" y2="200"/>
	<g>
		<line class="st1" x1="342.9" y1="229.1" x2="120" y2="200"/>
		<g>
			<polygon class="st4" points="342.1,223.9 350,230 340.8,233.8 			"/>
		</g>
	</g>
</g>
<path id="path-12_4_" class="st5" d="M280,90l70,140"/>
</svg>
