<svg id="fde88523-1440-40c1-86dc-801c72e207bf" data-name="Layer 1" xmlns="http://www.w3.org/2000/svg" viewBox="0 0 751 448"><defs><style>.a96c8dfb-65ab-4b2b-927c-14a454dfeed6,.f5192416-81c5-4f1f-8889-f50a6cb1354d{fill:#f8f8f8;}.a96c8dfb-65ab-4b2b-927c-14a454dfeed6,.af40a5d7-4b45-4215-a751-23d8803c74eb,.b13e1f7c-a0a9-4ddf-880a-23dc4e498f98,.bd782480-0f9f-456a-ba5f-68d723b69ec0,.f5192416-81c5-4f1f-8889-f50a6cb1354d{stroke:#404040;}.a96c8dfb-65ab-4b2b-927c-14a454dfeed6,.b13e1f7c-a0a9-4ddf-880a-23dc4e498f98,.bd782480-0f9f-456a-ba5f-68d723b69ec0,.e6c4040c-4395-49d8-866e-83216c2cd715,.ebc25f08-81a3-4883-8b54-fd980d516a23{stroke-miterlimit:10;}.af40a5d7-4b45-4215-a751-23d8803c74eb,.b13e1f7c-a0a9-4ddf-880a-23dc4e498f98,.e6c4040c-4395-49d8-866e-83216c2cd715,.ebc25f08-81a3-4883-8b54-fd980d516a23{fill:none;}.a478a1cf-98fe-4569-82a0-0380c43c424b{fill:#0366ee;}.b060e897-08bd-45e6-ba9b-28448e74aac4{fill-opacity:0;}.b274398c-80ff-4363-8037-072b39b70a93{isolation:isolate;}.b5b68ba7-234f-4c32-ac7b-5036174d96b3{fill:#404040;}.bae54af2-da09-48e3-b586-c00cfcde54ef,.bd782480-0f9f-456a-ba5f-68d723b69ec0{fill:#333;}.e6c4040c-4395-49d8-866e-83216c2cd715,.ebc25f08-81a3-4883-8b54-fd980d516a23{stroke:#333;}.ebc25f08-81a3-4883-8b54-fd980d516a23{stroke-linecap:round;}</style></defs><title>Artboard 1</title><line class="a96c8dfb-65ab-4b2b-927c-14a454dfeed6" x1="296" y1="58.6" x2="296" y2="116"/><polygon class="a96c8dfb-65ab-4b2b-927c-14a454dfeed6" points="174.64 61.59 174.64 116 116 116 174.64 61.59"/><line id="a943e416-0af9-4d64-8f18-b5cd690e9234" data-name="Line-0" class="af40a5d7-4b45-4215-a751-23d8803c74eb" x1="16" y1="116" x2="216" y2="116"/><line id="fa7ca8cc-2a5f-4430-9c3c-10f8a69b94fb" data-name="Line-1" class="af40a5d7-4b45-4215-a751-23d8803c74eb" x1="116" y1="16" x2="116" y2="216"/><circle id="b7694294-81e5-4685-8979-4bec4e9c6c67" data-name="Circle-2" class="af40a5d7-4b45-4215-a751-23d8803c74eb" cx="116" cy="116" r="80"/><line id="b5147fb0-4d68-48bd-accf-76fe7f8c1034" data-name="Line-4" class="af40a5d7-4b45-4215-a751-23d8803c74eb" x1="116" y1="116" x2="196" y2="116"/><path id="b16e6f58-097c-4d3c-a1d2-f47bd8bd4e95" data-name="Path-5" class="f5192416-81c5-4f1f-8889-f50a6cb1354d" d="M116,116h0Z"/><g id="a82aaac7-40af-4bba-95cd-fa931d837573" data-name="Control-3"><circle class="a478a1cf-98fe-4569-82a0-0380c43c424b" cx="174.64" cy="61.17" r="4"/><circle class="b060e897-08bd-45e6-ba9b-28448e74aac4" cx="174.64" cy="61.17" r="13"/></g><path class="af40a5d7-4b45-4215-a751-23d8803c74eb" d="M232,116l1-1,1-1,1-1,1-1,1-1,1-1,1-1,1-1,1-1,1-1,1-1,1-1,1-.9,1-1,1-1,1-1,1-1,1-.9,1-1,1-1,1-1,1-.9,1-1,1-.9,1-1,1-.9,1-1,1-.9,1-1,1-.9,1-.9,1-1,1-.9,1-.9,1-.9,1-.9,1-.9,1-.9,1-.9,1-.9,1-.8,1-.9,1-.9,1-.8,1-.9,1-.8,1-.8,1-.9,1-.8,1-.8,1-.8,1-.8,1-.8,1-.8,1-.8,1-.7,1-.8,1-.8,1-.7,1-.7,1-.8,1-.7,1-.7,1-.7,1-.7,1-.7,1-.6,1-.7,1-.7,1-.6,1-.6,1-.7,1-.6,1-.6,1-.6,1-.6,1-.5,1-.6,1-.6,1-.5,1-.6,1-.5,1-.5,1-.5,1-.5,1-.5,1-.4,1-.5,1-.4,1-.5,1-.4,1-.4,1-.4,1-.4,1-.4,1-.4,1-.3,1-.4,1-.3,1-.3,1-.3,1-.3,1-.3,1-.3,1-.2,1-.3,1-.2,1-.3,1-.2,1-.2,1-.2,1-.1,1-.2,1-.2,1-.1,1-.1,1-.1,1-.1,1-.1,1-.1,1-.1h1l1-.1h5l1,.1h1l1,.1,1,.1h1l1,.1,1,.1,1,.2,1,.1,1,.1,1,.2,1,.2,1,.2,1,.2,1,.2,1,.2,1,.2,1,.3,1,.2,1,.3,1,.3,1,.3,1,.3,1,.3,1,.3,1,.4,1,.3,1,.4,1,.4,1,.3,1,.4,1,.5,1,.4,1,.4,1,.5,1,.4,1,.5,1,.5,1,.4,1,.5,1,.6,1,.5,1,.5,1,.5,1,.6,1,.6,1,.5,1,.6,1,.6,1,.6,1,.6,1,.7,1,.6,1,.6,1,.7,1,.6,1,.7,1,.7,1,.7,1,.7,1,.7,1,.7,1,.7,1,.8,1,.7,1,.8,1,.7,1,.8,1,.8,1,.7,1,.8,1,.8,1,.8,1,.8,1,.9,1,.8,1,.8,1,.9,1,.8,1,.9,1,.8,1,.9,1,.9,1,.8,1,.9,1,.9,1,.9,1,.9,1,.9,1,.9,1,.9,1,1,1,.9,1,.9,1,1,1,.9,1,.9,1,1,1,.9,1,1,1,1,1,.9,1,1,1,1,1,.9,1,1,1,1,1,1,1,.9,1,1,1,1,1,1,1,1,1,1,1,1,1,1,1,1,1,1,1,1,1,1,1,1,1,1,1,1,1,1,1,1,1,1,1,1,1,1,1,1,1,1,1,1,1,1,1,.9,1,1,1,1,1,1,1,1,1,1,1,1,1,1,1,.9,1,1,1,1,1,.9,1,1,1,1,1,.9,1,1,1,.9,1,1,1,.9,1,1,1,.9,1,.9,1,1,1,.9,1,.9,1,.9,1,.9,1,.9,1,.9,1,.9,1,.9,1,.8,1,.9,1,.9,1,.8,1,.9,1,.8,1,.9,1,.8,1,.8,1,.8,1,.9,1,.8,1,.7,1,.8,1,.8,1,.8,1,.8,1,.7,1,.8,1,.7,1,.7,1,.7,1,.8,1,.7,1,.7,1,.6,1,.7,1,.7,1,.6,1,.7,1,.6,1,.7,1,.6,1,.6,1,.6,1,.6,1,.6,1,.5,1,.6,1,.5,1,.6,1,.5,1,.5,1,.5,1,.5,1,.5,1,.5,1,.4,1,.5,1,.4,1,.5,1,.4,1,.4,1,.4,1,.4,1,.3,1,.4,1,.4,1,.3,1,.3,1,.3,1,.3,1,.3,1,.3,1,.3,1,.2,1,.3,1,.2,1,.2,1,.2,1,.2,1,.2,1,.1,1,.2,1,.1,1,.2,1,.1,1,.1,1,.1,1,.1h1l1,.1h1l1,.1h4l1-.1h1l1-.1h1l1-.1,1-.1,1-.1,1-.1,1-.2,1-.1,1-.2,1-.1,1-.2,1-.2,1-.2,1-.2,1-.2,1-.3,1-.2,1-.3,1-.3,1-.3,1-.3,1-.3,1-.3,1-.4,1-.3,1-.4,1-.3,1-.4,1-.4,1-.4,1-.4,1-.5,1-.4,1-.5,1-.4,1-.5,1-.5,1-.5,1-.5,1-.5,1-.5,1-.6,1-.5,1-.6,1-.5,1-.6,1-.6,1-.6,1-.6,1-.6,1-.7,1-.6,1-.7,1-.6,1-.7,1-.7,1-.7,1-.7,1-.7,1-.7,1-.7,1-.7,1-.8,1-.7,1-.8,1-.7,1-.8,1-.8,1-.8,1-.8,1-.8,1-.8,1-.8,1-.8,1-.8,1-.9,1-.8,1-.9,1-.8,1-.9,1-.9,1-.8,1-.9,1-.9,1-.9,1-.9,1-.9,1-.9,1-.9,1-1,1-.9,1-.9,1-1,1-.9,1-.9,1-1,1-.9,1-1,1-.9,1-1,1-1,1-.9,1-1,1-1,1-1,1-.9,1-1,1-1,1-1,1-1,1-1,1-1,1-1,1-1,1-1,1-.9,1-1,1-1,1-1,1-1,1-1,1-1"/><line class="af40a5d7-4b45-4215-a751-23d8803c74eb" x1="232" y1="116" x2="734.62" y2="116"/><g id="b5a58ea0-e9a7-466c-94d4-8cb2187941a0" data-name="Text-1" class="b274398c-80ff-4363-8037-072b39b70a93"><path class="b5b68ba7-234f-4c32-ac7b-5036174d96b3" d="M240.28,86.64a2.84,2.84,0,0,1,2.45-1.3,3,3,0,0,1,2.05.8,3.58,3.58,0,0,1,.73,1.09,9.08,9.08,0,0,1,.59,3.65,8.33,8.33,0,0,1-.68,3.79A2.79,2.79,0,0,1,244.1,96a3,3,0,0,1-1.35.33,2.81,2.81,0,0,1-2.69-1.68,8.32,8.32,0,0,1-.69-3.79,12.82,12.82,0,0,1,.2-2.46A5.32,5.32,0,0,1,240.28,86.64Zm3.6-.19a1.48,1.48,0,0,0-1.13-.51,1.54,1.54,0,0,0-1.16.51,2,2,0,0,0-.48.89,10.36,10.36,0,0,0-.16,1.83v.62c0,.35,0,.65,0,.88,0,1,0,1.74,0,2.15a9.36,9.36,0,0,0,.19,1.6,1.85,1.85,0,0,0,.48.84,1.43,1.43,0,0,0,1.11.48,1.38,1.38,0,0,0,1.08-.48,1.69,1.69,0,0,0,.48-.84,9.11,9.11,0,0,0,.2-1.6c0-.41,0-1.12,0-2.15,0-.23,0-.53,0-.88s0-.56,0-.62a9.46,9.46,0,0,0-.16-1.83A1.8,1.8,0,0,0,243.88,86.45Z"/></g><g id="b456828e-4f68-40e9-bba6-c8574878ff5d" data-name="Text-2" class="b274398c-80ff-4363-8037-072b39b70a93"><path class="b5b68ba7-234f-4c32-ac7b-5036174d96b3" d="M487.57,95.41a.7.7,0,0,1-.23.51.75.75,0,0,1-.57.24.64.64,0,0,1-.33-.06.88.88,0,0,1-.18-.26,4.56,4.56,0,0,1-.3-1.78c0-.38,0-.64,0-.76a20.47,20.47,0,0,1,.5-2.68c0-.21.08-.33.08-.35H485v.07s0,0,0,.13-.05.2-.08.35-.08.3-.11.43a44.47,44.47,0,0,1-1.26,4.48.69.69,0,0,1-.69.45.52.52,0,0,1-.51-.28.67.67,0,0,1,0-.25v-.18l.21-.45a32.07,32.07,0,0,0,1.75-4.36l.12-.39h-.51a5.52,5.52,0,0,0-.88,0,1.61,1.61,0,0,0-.61.3,2.46,2.46,0,0,0-.67.66c0,.09-.09.14-.13.15a.56.56,0,0,1-.24,0c-.2,0-.3-.06-.3-.16a.86.86,0,0,1,.16-.32c.74-1.12,1.46-1.74,2.16-1.84.08,0,1.28,0,3.6,0,1.71,0,2.58,0,2.62,0a.43.43,0,0,1,.33.45.68.68,0,0,1-.52.67,9.13,9.13,0,0,1-1.1,0h-1l0,.27a11.84,11.84,0,0,0-.19,1.91,6.4,6.4,0,0,0,.49,2.57A1.22,1.22,0,0,1,487.57,95.41Z"/></g><g id="a7154682-25ea-473c-8c64-14b412b7696e" data-name="Text-3" class="b274398c-80ff-4363-8037-072b39b70a93"><path class="b5b68ba7-234f-4c32-ac7b-5036174d96b3" d="M711.27,89.14a.93.93,0,0,1-.71-.29,1,1,0,0,1-.25-.71,2.63,2.63,0,0,1,.87-2,2.94,2.94,0,0,1,2.09-.83,3.44,3.44,0,0,1,2.28.75A3.11,3.11,0,0,1,716.66,88a5.13,5.13,0,0,1,0,.53,3,3,0,0,1-.56,1.74,10.21,10.21,0,0,1-1.81,1.84c-.38.33-.91.83-1.6,1.48l-.94.89,1.22,0a19.92,19.92,0,0,0,2.67-.08s.09-.12.16-.34a9.11,9.11,0,0,0,.22-1.09v0h.64v0L716.24,96v0h-5.93v-.3a1.12,1.12,0,0,1,0-.37l1.34-1.52c1.17-1.29,1.91-2.15,2.25-2.56A4.66,4.66,0,0,0,715,88.58a2.78,2.78,0,0,0-.56-1.77,1.81,1.81,0,0,0-1.54-.71,1.73,1.73,0,0,0-1.5.83l-.1.17a.79.79,0,0,0,0,.1s0,0,.08,0a.81.81,0,0,1,.65.28,1,1,0,0,1,0,1.36A1,1,0,0,1,711.27,89.14Z"/><path class="b5b68ba7-234f-4c32-ac7b-5036174d96b3" d="M724.4,95.41a.7.7,0,0,1-.23.51.75.75,0,0,1-.57.24.6.6,0,0,1-.32-.06.87.87,0,0,1-.19-.26,4.56,4.56,0,0,1-.3-1.78c0-.38,0-.64,0-.76a22.3,22.3,0,0,1,.5-2.68c.05-.21.08-.33.08-.35h-1.57v.07a.63.63,0,0,1,0,.13c0,.08,0,.2-.08.35s-.08.3-.11.43a44.47,44.47,0,0,1-1.26,4.48.69.69,0,0,1-.69.45.53.53,0,0,1-.51-.28.73.73,0,0,1,0-.25v-.18l.2-.45A29.65,29.65,0,0,0,721,90.66l.13-.39h-.52a5.52,5.52,0,0,0-.88,0,1.52,1.52,0,0,0-.6.3,2.36,2.36,0,0,0-.68.66q-.08.14-.12.15a.62.62,0,0,1-.24,0c-.21,0-.31-.06-.31-.16A1.08,1.08,0,0,1,718,91c.74-1.12,1.46-1.74,2.16-1.84.08,0,1.28,0,3.6,0,1.71,0,2.58,0,2.63,0a.43.43,0,0,1,.32.45.67.67,0,0,1-.52.67,9.13,9.13,0,0,1-1.1,0h-1l0,.27a11.84,11.84,0,0,0-.19,1.91,6.4,6.4,0,0,0,.49,2.57A1.22,1.22,0,0,1,724.4,95.41Z"/></g><g id="a45fcb55-4567-427f-a26c-3ae27dc56134" data-name="Control-4"><circle class="a478a1cf-98fe-4569-82a0-0380c43c424b" cx="296.24" cy="58.42" r="4"/><circle class="b060e897-08bd-45e6-ba9b-28448e74aac4" cx="296.24" cy="58.42" r="13"/></g><rect class="b13e1f7c-a0a9-4ddf-880a-23dc4e498f98" x="16" y="16" width="200" height="200"/><rect class="b13e1f7c-a0a9-4ddf-880a-23dc4e498f98" x="16" y="232" width="200" height="200"/><rect class="b13e1f7c-a0a9-4ddf-880a-23dc4e498f98" x="232" y="16" width="503" height="200"/><rect class="b13e1f7c-a0a9-4ddf-880a-23dc4e498f98" x="232" y="232" width="503" height="200"/><path class="bae54af2-da09-48e3-b586-c00cfcde54ef" d="M530.21,313.29a1.37,1.37,0,0,1-2,0,1.39,1.39,0,0,1-.38-1,2.21,2.21,0,0,1,.2-.83,2.35,2.35,0,0,1,1.34-1.08,7,7,0,0,1,2.45-.38,5.42,5.42,0,0,1,2.94.77,3.54,3.54,0,0,1,1.63,2,2.54,2.54,0,0,1,.15.81c0,.3,0,1.28,0,2.94s0,2.66,0,2.95a1.53,1.53,0,0,0,.14.65.54.54,0,0,0,.52.36.52.52,0,0,0,.49-.36,4,4,0,0,0,.15-1.41v-.93h1v1a7.6,7.6,0,0,1-.08,1.21,2.34,2.34,0,0,1-.85,1.19,2.31,2.31,0,0,1-1.46.48,1.69,1.69,0,0,1-1.15-.45,2.3,2.3,0,0,1-.68-1.1v-.1l-.31.35c-.15.18-.26.3-.33.37a4.46,4.46,0,0,1-2.94,1.06,4.94,4.94,0,0,1-2.39-.57,2.9,2.9,0,0,1-1.41-1.49,2.47,2.47,0,0,1-.21-1,3.09,3.09,0,0,1,1-2.21,4.85,4.85,0,0,1,1.47-1,12.59,12.59,0,0,1,4.48-.95h.36v-.57a3.68,3.68,0,0,0-.16-1.28,2.46,2.46,0,0,0-2.49-1.83c-1.15,0-1.73.07-1.73.2a1.29,1.29,0,0,1,.57,1.14A1.33,1.33,0,0,1,530.21,313.29Zm4.21,3.76a14,14,0,0,0,0-1.49l-.13,0c-2.35.16-3.85.85-4.5,2.09a2.34,2.34,0,0,0-.28,1.16,1.91,1.91,0,0,0,.62,1.46,2.07,2.07,0,0,0,1.51.59,2.66,2.66,0,0,0,1.77-.61,2.94,2.94,0,0,0,1-1.52A15.79,15.79,0,0,0,534.42,317.05Z"/><path class="bae54af2-da09-48e3-b586-c00cfcde54ef" d="M545.38,310.18a5.09,5.09,0,0,1,3.39,1.26v-2.62c0-1.79,0-2.71,0-2.78a.86.86,0,0,0-.38-.66,2.9,2.9,0,0,0-1.14-.21h-.46v-.6c0-.39,0-.59.05-.59l.26,0,.74-.06.95,0,1-.06.78-.07.28,0h.08v7.82q0,7.88,0,8a.87.87,0,0,0,.38.68,3,3,0,0,0,1.14.22h.46v1.18l-2,.13c-1.28.09-2,.14-2,.16h-.18v-1.42l-.21.18a5.07,5.07,0,0,1-3.34,1.24,4.72,4.72,0,0,1-3.19-1.21,6,6,0,0,1-2-3.71,8.08,8.08,0,0,1,0-.9,5.84,5.84,0,0,1,1.6-4.17A5.09,5.09,0,0,1,545.38,310.18Zm3.32,2.57a3.47,3.47,0,0,0-2.91-1.62,3.16,3.16,0,0,0-2.24.93,3.33,3.33,0,0,0-.86,1.57,10.81,10.81,0,0,0-.22,2.49c0,1.91.36,3.21,1.08,3.92a2.65,2.65,0,0,0,2,.84,3.36,3.36,0,0,0,1.72-.48,3.66,3.66,0,0,0,1.31-1.34l.11-.16Z"/><path class="bae54af2-da09-48e3-b586-c00cfcde54ef" d="M554.13,325.75c.51.08.82.13.92.13a1.71,1.71,0,0,0,.54-.08c.72-.26,1.15-1,1.29-2.27,0-.2,0-2.07,0-5.61s0-5.35,0-5.45a.81.81,0,0,0-.43-.65,3.75,3.75,0,0,0-1.21-.17h-.52v-.59c0-.4,0-.6,0-.6l.11,0h.31l.43,0,.56,0,.63,0,1-.07.79-.06.3,0h.1v6.64c0,3.77,0,5.86,0,6.26a3,3,0,0,1-.14,1,3.84,3.84,0,0,1-1.44,2,4,4,0,0,1-2.49.79,3.56,3.56,0,0,1-2-.61,1.9,1.9,0,0,1-.87-1.66,1.32,1.32,0,0,1,1.36-1.36,1.37,1.37,0,0,1,1.39,1.39A1.5,1.5,0,0,1,554.13,325.75Zm3.39-21.41a1.74,1.74,0,0,1,1.06.45,1.47,1.47,0,0,1,.41,1.09,1.38,1.38,0,0,1-.7,1.32,1.42,1.42,0,0,1-.82.23,1.49,1.49,0,0,1-.85-.23,1.39,1.39,0,0,1-.69-1.32,1.48,1.48,0,0,1,.45-1.13A1.64,1.64,0,0,1,557.52,304.34Z"/><path class="bae54af2-da09-48e3-b586-c00cfcde54ef" d="M527.5,357.18c.13.24.54.36,1.21.36h.77v1.19h-.21a51.88,51.88,0,0,0-5.76,0h-.21v-1.19h.77c.67,0,1.08-.12,1.21-.36v-1.64c0-.33,0-.7,0-1.12s0-.85,0-1.29v-4.89c0-.71,0-1.35,0-1.91s0-1.09,0-1.56v-1.56a.83.83,0,0,0-.37-.65,3,3,0,0,0-1.14-.22h-.47v-.59c0-.4,0-.59.05-.59l.26,0,.75-.05.95-.05,1-.07.77-.06.29,0h.07v8.42a4.71,4.71,0,0,1,3.71-1.93q3.17,0,3.47,2.9c0,.12,0,1.32,0,3.58s0,3.31,0,3.34a.55.55,0,0,0,.31.29,9.35,9.35,0,0,0,1.26.07h.41v1.19h-.2a26.19,26.19,0,0,0-2.88-.08,25.91,25.91,0,0,0-2.88.08h-.21v-1.19h.62c.91,0,1.36-.13,1.36-.41,0,0,0-1.21,0-3.55s0-3.54-.06-3.68a2.22,2.22,0,0,0-.58-1.19,1.71,1.71,0,0,0-1.22-.38,2.8,2.8,0,0,0-2,.88,3.65,3.65,0,0,0-1,2.26V352c0,.3,0,.68,0,1.14s0,.9,0,1.32v.81c0,.28,0,.53,0,.75s0,.43,0,.61v.6Z"/><path class="bae54af2-da09-48e3-b586-c00cfcde54ef" d="M537.83,360.77a1.27,1.27,0,0,1,.91-.34,1.19,1.19,0,0,1,.9.37,1.26,1.26,0,0,1,.36.91,1.32,1.32,0,0,1-.21.7.91.91,0,0,1-.49.43c-.06,0-.06.07,0,.11a1.2,1.2,0,0,0,.52.1,1.88,1.88,0,0,0,.74-.15,2.6,2.6,0,0,0,1.24-1,10.44,10.44,0,0,0,1-2l.44-1.1L541.34,354l-1.93-4.81c-.12-.26-.57-.39-1.34-.39h-.62v-1.18h.18a19.06,19.06,0,0,0,2.47.08,27.68,27.68,0,0,0,2.86-.08h.2v1.18h-.23c-.8,0-1.21.15-1.21.44l2.6,6.59s.4-1,1.18-3l1.14-2.93v-.24a.8.8,0,0,0-.31-.65,1.19,1.19,0,0,0-.77-.25h-.08v-1.18h.15c.16,0,.89.05,2.19.05.94,0,1.64,0,2.08-.05H550v1.18h-.28a2.25,2.25,0,0,0-1.93,1s-.41,1-1.13,2.84-1.49,3.8-2.29,5.82a28.57,28.57,0,0,1-1.6,3.59,3.9,3.9,0,0,1-2.39,1.85,3.06,3.06,0,0,1-.54,0,2.48,2.48,0,0,1-1.74-.63,2.16,2.16,0,0,1-.68-1.64A1.23,1.23,0,0,1,537.83,360.77Z"/><path class="bae54af2-da09-48e3-b586-c00cfcde54ef" d="M551.47,362.54h.36c.67,0,1.08-.12,1.21-.37v-.7c0-.22,0-.47,0-.76s0-.63,0-1v-7.23c0-.5,0-1,0-1.38s0-.76,0-1v-.4a.84.84,0,0,0-.37-.66,3.17,3.17,0,0,0-1.15-.22h-.46v-.59c0-.39,0-.59.05-.59l.26,0,.75-.05,1-.05.95-.06.77-.07.29,0h.07V348l0,.66.2-.18a6,6,0,0,1,3.55-1.13,5.23,5.23,0,0,1,.83.05,5,5,0,0,1,3,1.93,6.11,6.11,0,0,1,1.21,3.81,8.12,8.12,0,0,1-.05.9,5.79,5.79,0,0,1-3.81,4.68,5.11,5.11,0,0,1-1.6.26,4.7,4.7,0,0,1-3.09-1.13l-.2-.18v2.18c0,1.5,0,2.26,0,2.29a.53.53,0,0,0,.3.29,9.21,9.21,0,0,0,1.26.08h.42v1.18H557a51.88,51.88,0,0,0-5.76,0h-.21v-1.18Zm10-9.42a6.23,6.23,0,0,0-.79-3.14,2.86,2.86,0,0,0-1.92-1.57h-.36a3.94,3.94,0,0,0-3.16,1.67v6.15a3.21,3.21,0,0,0,2.88,1.85,2.65,2.65,0,0,0,2-.95A5.53,5.53,0,0,0,561.46,353.12Z"/><line class="ebc25f08-81a3-4883-8b54-fd980d516a23" x1="516.07" y1="334.26" x2="571.45" y2="334.26"/><path class="bae54af2-da09-48e3-b586-c00cfcde54ef" d="M424,333.09a1.4,1.4,0,0,1-1,.37,1.27,1.27,0,0,1-1-.4,1.3,1.3,0,0,1-.39-1,1.33,1.33,0,0,1,.39-1c.08-.08.12-.14.11-.15s-.09,0-.24-.05a8.26,8.26,0,0,0-1.26-.11,2.64,2.64,0,0,0-2.06.83c-.81.8-1.21,2.15-1.21,4a6,6,0,0,0,.8,3.31,3.24,3.24,0,0,0,2.83,1.57,2.41,2.41,0,0,0,1.13-.25,3,3,0,0,0,1.49-2,.51.51,0,0,1,.13-.26,1,1,0,0,1,.41-.05h.36c.11.1.16.18.16.23a3.46,3.46,0,0,1-.65,1.52,4.13,4.13,0,0,1-3.62,1.85,5.24,5.24,0,0,1-2.45-.59,5.65,5.65,0,0,1-3.06-4.37,7.39,7.39,0,0,1,0-.83,7.84,7.84,0,0,1,0-.84A6,6,0,0,1,417,331a5.37,5.37,0,0,1,3.42-1.24c2.22,0,3.51.59,3.89,1.75a2,2,0,0,1,.07.59A1.28,1.28,0,0,1,424,333.09Z"/><path class="bae54af2-da09-48e3-b586-c00cfcde54ef" d="M426.09,335.8a5.83,5.83,0,0,1,1.5-4,5.57,5.57,0,0,1,3.57-1.95c.28,0,.49-.05.64-.05a5.31,5.31,0,0,1,3.89,1.65,5.93,5.93,0,0,1,1.8,4.35,6.5,6.5,0,0,1-.13,1.21,5.4,5.4,0,0,1-1.45,2.81,5.69,5.69,0,0,1-2.77,1.61,5,5,0,0,1-1.34.16,5.13,5.13,0,0,1-1.36-.16,5.6,5.6,0,0,1-3.14-2A5.71,5.71,0,0,1,426.09,335.8Zm6.18-5-.41,0a3.65,3.65,0,0,0-1.47.3,3.37,3.37,0,0,0-1.72,2.81,15.09,15.09,0,0,0-.06,1.65,8.93,8.93,0,0,0,.49,3.47,2.83,2.83,0,0,0,2.7,1.57c2.1,0,3.14-1.4,3.14-4.2v-.82a12.32,12.32,0,0,0-.13-2.26A3.06,3.06,0,0,0,432.27,330.76Z"/><path class="bae54af2-da09-48e3-b586-c00cfcde54ef" d="M443.12,330.66c-1.57,0-2.36.56-2.36,1.67a1.1,1.1,0,0,0,.05.44,1.53,1.53,0,0,0,.8.89,8,8,0,0,0,1.75.5,7.15,7.15,0,0,1,2,.56,3.76,3.76,0,0,1,2.09,2.55c0,.1,0,.31,0,.62a4.11,4.11,0,0,1-.36,1.77c-.67,1.27-1.93,1.91-3.78,1.91a4.1,4.1,0,0,1-2.68-.93l-.2.18-.23.23a3.73,3.73,0,0,1-.31.28l-.28.26h-.21a.46.46,0,0,1-.33-.15v-2c0-1.12,0-1.76,0-1.93s0-.28.11-.31a1.52,1.52,0,0,1,.42,0,.88.88,0,0,1,.39.05.9.9,0,0,1,.15.36,5.66,5.66,0,0,0,.67,1.78,2.85,2.85,0,0,0,2.49,1.31c1.66,0,2.5-.67,2.5-2a1.65,1.65,0,0,0-.47-1.21,2.25,2.25,0,0,0-1.08-.69l-1.23-.28a9,9,0,0,1-2-.54,3.21,3.21,0,0,1-2-2.4,1.69,1.69,0,0,1,0-.38q0-3,3.62-3.32a1.92,1.92,0,0,1,.62,0,3.92,3.92,0,0,1,1.8.39l.39.2.23-.18c.22-.19.41-.33.56-.44h.21a.44.44,0,0,1,.33.16v3.39l-.15.16H446a.45.45,0,0,1-.15-.31,2.39,2.39,0,0,0-.72-1.85A2.79,2.79,0,0,0,443.12,330.66Z"/><path class="bae54af2-da09-48e3-b586-c00cfcde54ef" d="M456.94,347.51c0,.15-.15.23-.46.23h-.34l-.72-.62q-4.64-4.22-4.63-12.24a20.67,20.67,0,0,1,.75-5.74,13.92,13.92,0,0,1,3.88-6.51l.41-.35a2,2,0,0,0,.31-.27h.34a.6.6,0,0,1,.38.08.23.23,0,0,1,.08.16c0,.06-.09.19-.28.38q-4,4.23-4,12.25t4,12.24C456.85,347.31,456.94,347.44,456.94,347.51Z"/><path class="bae54af2-da09-48e3-b586-c00cfcde54ef" d="M466.59,323.2l.2,0h.31a2.81,2.81,0,0,1,2.16,1.26,7.47,7.47,0,0,1,1,4.15,7.92,7.92,0,0,1-.06,1.1,18.79,18.79,0,0,1-1.77,6.41,14.55,14.55,0,0,1-2.05,3.19,7.66,7.66,0,0,1-2.3,1.93,3.45,3.45,0,0,1-1.39.36h-.18a2.49,2.49,0,0,1-1.88-.8c-.91-1-1.36-2.5-1.36-4.61a14,14,0,0,1,.26-2.59,16.93,16.93,0,0,1,3.88-8.42A5.46,5.46,0,0,1,466.59,323.2Zm.41,10.21.13-.44h-5l0,.18a21.42,21.42,0,0,0-.8,4.76,3.6,3.6,0,0,0,.61,2.42,1,1,0,0,0,.75.31c.69,0,1.41-.56,2.16-1.67A18.31,18.31,0,0,0,467,333.41Zm1.23-6.66c0-1.75-.45-2.63-1.36-2.63a2.42,2.42,0,0,0-1.75,1.11,13.78,13.78,0,0,0-2.19,4.63,11.79,11.79,0,0,0-.51,1.9l2.49,0,2.5,0a8.5,8.5,0,0,0,.46-2A16.87,16.87,0,0,0,468.23,326.75Z"/><path class="bae54af2-da09-48e3-b586-c00cfcde54ef" d="M472,322l.1,0h.57l.72.62q4.64,4.23,4.63,12.25a20.2,20.2,0,0,1-.75,5.71,13.84,13.84,0,0,1-3.88,6.53l-.41.35-.31.27h-.31a1,1,0,0,1-.4-.05c-.06,0-.09-.12-.09-.26s.11-.13.28-.33q4-4.14,4-12.22t-4-12.22l-.28-.34A.3.3,0,0,1,472,322Z"/><path class="bae54af2-da09-48e3-b586-c00cfcde54ef" d="M488.33,332.38a.56.56,0,0,1,.36-.51h16.38a.56.56,0,0,1,.39.51.59.59,0,0,1-.36.49l-8.18,0h-8.18A.51.51,0,0,1,488.33,332.38Zm0,5a.51.51,0,0,1,.41-.51H505.1l.12.09.12.1a.32.32,0,0,1,.08.13.41.41,0,0,1,0,.19.56.56,0,0,1-.39.52H488.69A.56.56,0,0,1,488.33,337.37Z"/><path class="bae54af2-da09-48e3-b586-c00cfcde54ef" d="M56.86,255.18h.44a2.37,2.37,0,0,1,1.85,1.08,6.35,6.35,0,0,1,.86,3.54,8.09,8.09,0,0,1,0,1,16.07,16.07,0,0,1-1.52,5.47,12.18,12.18,0,0,1-1.75,2.73,6.49,6.49,0,0,1-2,1.65,2.88,2.88,0,0,1-1.19.31h-.15a2.13,2.13,0,0,1-1.61-.68,5.59,5.59,0,0,1-1.16-3.94,11.75,11.75,0,0,1,.22-2.22,14.46,14.46,0,0,1,3.32-7.2A4.67,4.67,0,0,1,56.86,255.18Zm.36,8.74.11-.38H53l0,.16a18.77,18.77,0,0,0-.68,4.07,3.07,3.07,0,0,0,.53,2.06.81.81,0,0,0,.64.27c.58,0,1.2-.48,1.85-1.43A15.88,15.88,0,0,0,57.22,263.92Zm1.05-5.7c0-1.5-.39-2.25-1.16-2.25a2.07,2.07,0,0,0-1.5,1,11.79,11.79,0,0,0-1.87,4,10.12,10.12,0,0,0-.44,1.63l2.13,0,2.14,0a8.39,8.39,0,0,0,.39-1.72A14,14,0,0,0,58.27,258.22Z"/><path class="bae54af2-da09-48e3-b586-c00cfcde54ef" d="M66.9,263a.48.48,0,0,1,.3-.44h14a.44.44,0,0,1,0,.85l-7,0h-7A.43.43,0,0,1,66.9,263Zm0,4.26a.43.43,0,0,1,.35-.44h14s.05,0,.1.08l.11.09a.36.36,0,0,1,.06.11.32.32,0,0,1,0,.16.47.47,0,0,1-.33.44h-14A.47.47,0,0,1,66.9,267.3Z"/><path class="bae54af2-da09-48e3-b586-c00cfcde54ef" d="M98.44,270.67c-.2,0-1.15-.07-2.83-.07s-2.75,0-3,.07h-.2v-1h.68a5,5,0,0,0,1.17-.11.38.38,0,0,0,.26-.22,11.55,11.55,0,0,0,0-1.19V267H88.9v-1L92.22,261q3.36-5.11,3.41-5.13a1.17,1.17,0,0,1,.46,0h.4l.13.13V266h2v1h-2v1.12c0,.6,0,1,0,1.06a.42.42,0,0,0,.12.26,2.88,2.88,0,0,0,1.25.18h.64v1ZM94.73,266v-7.35L89.91,266l2.4,0Z"/><path class="bae54af2-da09-48e3-b586-c00cfcde54ef" d="M101.63,266a1.21,1.21,0,0,1,.9.37,1.23,1.23,0,0,1,.36.91,1.15,1.15,0,0,1-.38.86,1.19,1.19,0,0,1-.83.35h-.16l.07.11a2.86,2.86,0,0,0,2.62,1.63,2.33,2.33,0,0,0,2.24-1.32,6.74,6.74,0,0,0,.42-2.82,5.55,5.55,0,0,0-.59-3.06,1.75,1.75,0,0,0-1.41-.72,2.83,2.83,0,0,0-2.6,1.49c-.06.1-.11.17-.16.19a1.08,1.08,0,0,1-.32,0c-.25,0-.39,0-.42-.13s0-1.34,0-3.85c0-.44,0-1,0-1.56s0-1,0-1.15c0-.82,0-1.23.14-1.23a.1.1,0,0,1,.08,0l.4.13a7.83,7.83,0,0,0,2.93.57,7.51,7.51,0,0,0,3-.61.64.64,0,0,1,.28-.09q.18,0,.18.39v.29a5.63,5.63,0,0,1-4.51,2.13,5.16,5.16,0,0,1-1.23-.13l-.22,0v3.78a4.07,4.07,0,0,1,2.57-1,4.25,4.25,0,0,1,.9.11,4.16,4.16,0,0,1,2.41,1.67,5,5,0,0,1,.94,3,4.82,4.82,0,0,1-1.4,3.45,4.58,4.58,0,0,1-3.44,1.45,3.64,3.64,0,0,1-2.36-.77,2.35,2.35,0,0,1-.72-.72,3.93,3.93,0,0,1-.84-2,2,2,0,0,0,0-.21,1.79,1.79,0,0,1,0-.21,1.34,1.34,0,0,1,.35-1A1.25,1.25,0,0,1,101.63,266Z"/><path class="bae54af2-da09-48e3-b586-c00cfcde54ef" d="M51.12,306.63a.36.36,0,0,1-.13-.24,4.39,4.39,0,0,1,.68-1.52,3.78,3.78,0,0,1,2.6-1.8,3.26,3.26,0,0,1,.46,0,2.71,2.71,0,0,1,1.42.39,2.32,2.32,0,0,1,.93,1l.36-.46a2.41,2.41,0,0,1,1.87-.92,2.08,2.08,0,0,1,1.46.51,1.68,1.68,0,0,1,.56,1.27A1.76,1.76,0,0,1,61,306a1.27,1.27,0,0,1-1,.46,1,1,0,0,1-.68-.24.8.8,0,0,1-.26-.64,1.39,1.39,0,0,1,1.1-1.38s-.08-.07-.25-.16a1.29,1.29,0,0,0-.63-.13,1.4,1.4,0,0,0-.42.05,2.25,2.25,0,0,0-1.23,1.45c0,.11-.26.93-.64,2.45s-.59,2.37-.62,2.56a3.68,3.68,0,0,0-.06.66,1.17,1.17,0,0,0,.3.84,1.14,1.14,0,0,0,.82.31A2.28,2.28,0,0,0,59,311.4a4,4,0,0,0,1-1.73c0-.15.09-.23.13-.25a.9.9,0,0,1,.36,0c.27,0,.41.06.41.18a2.42,2.42,0,0,1,0,.24,4.8,4.8,0,0,1-1.54,2.38,3.47,3.47,0,0,1-2.18.81,2.54,2.54,0,0,1-2.33-1.38,3.08,3.08,0,0,1-1.63,1.31,2.65,2.65,0,0,1-.57.05,1.91,1.91,0,0,1-1.8-.9,1.69,1.69,0,0,1-.22-.88,1.66,1.66,0,0,1,.39-1.12,1.28,1.28,0,0,1,1-.47.83.83,0,0,1,.95.93,1.23,1.23,0,0,1-.77,1.18l-.11.06-.11.06-.07,0-.06,0s.11.11.33.2a1.48,1.48,0,0,0,.57.11,1.61,1.61,0,0,0,1.36-1,15.92,15.92,0,0,0,.86-2.86c.09-.34.19-.71.29-1.12s.18-.73.23-.95.08-.35.1-.4a5.66,5.66,0,0,0,.11-.86,1.18,1.18,0,0,0-.29-.83,1,1,0,0,0-.79-.31,2.3,2.3,0,0,0-1.72.76,4.23,4.23,0,0,0-1,1.75c0,.13-.06.21-.1.23a1.09,1.09,0,0,1-.36,0Z"/><path class="bae54af2-da09-48e3-b586-c00cfcde54ef" d="M69.16,305.12a.48.48,0,0,1,.31-.45h14a.49.49,0,0,1,.33.45.48.48,0,0,1-.3.41l-7,0h-7A.43.43,0,0,1,69.16,305.12Zm0,4.26a.44.44,0,0,1,.35-.44h14s0,0,.1.08l.11.09a.36.36,0,0,1,.06.11.41.41,0,0,1,0,.16.48.48,0,0,1-.33.44h-14A.47.47,0,0,1,69.16,309.38Z"/><path class="bae54af2-da09-48e3-b586-c00cfcde54ef" d="M92.66,299.88A3.87,3.87,0,0,1,96,298.1a4,4,0,0,1,2.82,1.1,4.76,4.76,0,0,1,1,1.49,12.46,12.46,0,0,1,.82,5,11.47,11.47,0,0,1-1,5.21,3.81,3.81,0,0,1-1.8,1.85,4.13,4.13,0,0,1-1.87.46,3.88,3.88,0,0,1-3.7-2.31,11.49,11.49,0,0,1-.94-5.21,17.46,17.46,0,0,1,.27-3.38A7.28,7.28,0,0,1,92.66,299.88Zm5-.26a2,2,0,0,0-1.56-.71,2.11,2.11,0,0,0-1.59.71,2.62,2.62,0,0,0-.66,1.23,14.32,14.32,0,0,0-.22,2.51c0,.08,0,.37,0,.85s0,.89,0,1.21c0,1.41,0,2.39,0,2.95a12.28,12.28,0,0,0,.27,2.21,2.54,2.54,0,0,0,.66,1.16,1.94,1.94,0,0,0,1.52.66,1.91,1.91,0,0,0,1.49-.66,2.45,2.45,0,0,0,.66-1.16,12.28,12.28,0,0,0,.27-2.21c0-.56,0-1.54,0-2.95,0-.32,0-.72,0-1.21s0-.77,0-.85a13.38,13.38,0,0,0-.22-2.51A2.62,2.62,0,0,0,97.61,299.62Z"/><path class="bae54af2-da09-48e3-b586-c00cfcde54ef" d="M103.26,311.43a1.3,1.3,0,0,1,.38-.95,1.27,1.27,0,0,1,.94-.37,1.34,1.34,0,0,1,1,.38,1.24,1.24,0,0,1,.38.92,1.27,1.27,0,0,1-.39.95,1.29,1.29,0,0,1-.93.39,1.24,1.24,0,0,1-.95-.4A1.26,1.26,0,0,1,103.26,311.43Z"/><path class="bae54af2-da09-48e3-b586-c00cfcde54ef" d="M108.87,302.67s.14-.83.38-2.39l.35-2.36s.14,0,.44,0h.44V298c0,.15.11.28.33.38a3.5,3.5,0,0,0,1.15.2c.55,0,1.79,0,3.71,0h2.66v.86l-1.49,2.05-.75,1c-.28.37-.49.66-.64.87a4.19,4.19,0,0,0-.26.37,10.13,10.13,0,0,0-1.37,4.78c-.06.6-.09,1.42-.11,2.46,0,.2,0,.41,0,.63s0,.38,0,.51v.2a1.13,1.13,0,0,1-.43.64,1.15,1.15,0,0,1-.74.26,1.06,1.06,0,0,1-.84-.36,1.43,1.43,0,0,1-.32-1c0-.22,0-.64.09-1.25a15.44,15.44,0,0,1,2-6c.29-.47.91-1.35,1.85-2.66l1-1.38h-2a25.69,25.69,0,0,0-4,.13q-.09,0-.24.48a7.34,7.34,0,0,0-.22,1,2,2,0,0,1-.07.42v.07h-.88Z"/><path class="bae54af2-da09-48e3-b586-c00cfcde54ef" d="M120.77,299.88a3.9,3.9,0,0,1,3.37-1.78,4,4,0,0,1,2.82,1.1,4.93,4.93,0,0,1,1,1.49,12.66,12.66,0,0,1,.81,5,11.49,11.49,0,0,1-.94,5.21,3.83,3.83,0,0,1-1.81,1.85,4.1,4.1,0,0,1-1.87.46,3.86,3.86,0,0,1-3.69-2.31,11.34,11.34,0,0,1-1-5.21,17.46,17.46,0,0,1,.27-3.38A7.5,7.5,0,0,1,120.77,299.88Zm5-.26a2,2,0,0,0-1.56-.71,2.1,2.1,0,0,0-1.58.71,2.46,2.46,0,0,0-.66,1.23,13.38,13.38,0,0,0-.22,2.51c0,.08,0,.37,0,.85s0,.89,0,1.21c0,1.41,0,2.39,0,2.95a13.56,13.56,0,0,0,.26,2.21,2.54,2.54,0,0,0,.66,1.16,2,2,0,0,0,1.52.66,1.94,1.94,0,0,0,1.5-.66,2.54,2.54,0,0,0,.66-1.16,13.56,13.56,0,0,0,.26-2.21c0-.56,0-1.54,0-2.95,0-.32,0-.72,0-1.21s0-.77,0-.85a13.38,13.38,0,0,0-.22-2.51A2.46,2.46,0,0,0,125.72,299.62Z"/><path class="bae54af2-da09-48e3-b586-c00cfcde54ef" d="M130.87,302.67s.14-.83.38-2.39l.35-2.36s.14,0,.44,0h.44V298c0,.15.11.28.33.38a3.5,3.5,0,0,0,1.15.2c.55,0,1.79,0,3.71,0h2.66v.86l-1.49,2.05-.75,1c-.28.37-.49.66-.64.87a4.19,4.19,0,0,0-.26.37,10.13,10.13,0,0,0-1.37,4.78c-.06.6-.09,1.42-.11,2.46,0,.2,0,.41,0,.63s0,.38,0,.51v.2a1.13,1.13,0,0,1-.43.64,1.15,1.15,0,0,1-.74.26,1.06,1.06,0,0,1-.84-.36,1.43,1.43,0,0,1-.32-1c0-.22,0-.64.09-1.25a15.44,15.44,0,0,1,2-6c.29-.47.91-1.35,1.85-2.66l1-1.38h-2a25.61,25.61,0,0,0-4,.13q-.09,0-.24.48a7.34,7.34,0,0,0-.22,1,2,2,0,0,1-.07.42v.07h-.88Z"/><path class="bae54af2-da09-48e3-b586-c00cfcde54ef" d="M60,345.35a.86.86,0,0,1,.53.16.55.55,0,0,1,.22.45q0,.29-1.08,4.62c-.72,2.89-1.13,4.48-1.23,4.75a5.82,5.82,0,0,1-1.14,2,6.13,6.13,0,0,1-1.81,1.44,5.15,5.15,0,0,1-2.22.57A2.36,2.36,0,0,1,51,358.28a1.84,1.84,0,0,1,.2-2,1.43,1.43,0,0,1,1-.42c.64,0,1,.31,1,.92a1.25,1.25,0,0,1-.77,1.19l-.11.06-.11.05-.07,0-.07,0a.91.91,0,0,0,.47.29,1.93,1.93,0,0,0,.7.13h.18a2.78,2.78,0,0,0,.57,0,3.37,3.37,0,0,0,1.58-1.12,6.27,6.27,0,0,0,1.15-2.12,5,5,0,0,0,.24-.85s0,0,0,0l-.13.1a3,3,0,0,1-1.8.59,3.07,3.07,0,0,1-1.85-.53,2.49,2.49,0,0,1-.95-1.52c0-.1,0-.33,0-.68a5.41,5.41,0,0,1,0-.81,20.23,20.23,0,0,1,1-3.24,6.27,6.27,0,0,0,.48-1.8,1.38,1.38,0,0,0,0-.43c0-.08-.12-.12-.26-.12h-.11a1.34,1.34,0,0,0-1,.46,4.65,4.65,0,0,0-1.08,2.11.45.45,0,0,1,0,.08l0,.07,0,0s0,0-.08,0h-.58c-.09-.09-.13-.15-.13-.2a1.8,1.8,0,0,1,.06-.3,5.21,5.21,0,0,1,1.39-2.4,2.28,2.28,0,0,1,1.56-.71,2.1,2.1,0,0,1,1.48.51,1.85,1.85,0,0,1,.55,1.41,3.39,3.39,0,0,1-.07.46,5.1,5.1,0,0,1-.33.95A21.29,21.29,0,0,0,53.87,352c0,.12,0,.29,0,.51a2.54,2.54,0,0,0,.26,1.27,1,1,0,0,0,1,.44,1.82,1.82,0,0,0,1-.26,2.92,2.92,0,0,0,.68-.52,8.88,8.88,0,0,0,.58-.69l.11-.45c.08-.29.18-.72.32-1.29s.28-1.11.41-1.63c.56-2.2.87-3.35.92-3.45A1,1,0,0,1,60,345.35Z"/><path class="bae54af2-da09-48e3-b586-c00cfcde54ef" d="M67.36,347.19a.48.48,0,0,1,.31-.44h14a.49.49,0,0,1,.33.44.48.48,0,0,1-.31.42l-7,0h-7A.44.44,0,0,1,67.36,347.19Zm0,4.27a.44.44,0,0,1,.35-.44h14l.1.08.11.09a.35.35,0,0,1,.07.11.41.41,0,0,1,0,.16.48.48,0,0,1-.33.44h-14A.47.47,0,0,1,67.36,351.46Z"/><path class="bae54af2-da09-48e3-b586-c00cfcde54ef" d="M90.85,342a3.9,3.9,0,0,1,3.37-1.78,4,4,0,0,1,2.82,1.1,4.93,4.93,0,0,1,1,1.49,12.66,12.66,0,0,1,.81,5,11.49,11.49,0,0,1-.94,5.21,3.83,3.83,0,0,1-1.81,1.85,4.1,4.1,0,0,1-1.87.46A3.86,3.86,0,0,1,90.55,353a11.34,11.34,0,0,1-1-5.21,17.46,17.46,0,0,1,.27-3.38A7.5,7.5,0,0,1,90.85,342Zm5-.27a2,2,0,0,0-1.56-.7,2.09,2.09,0,0,0-1.58.7,2.53,2.53,0,0,0-.66,1.24,13.34,13.34,0,0,0-.22,2.5c0,.09,0,.38,0,.86s0,.89,0,1.21c0,1.41,0,2.39,0,2.95a13.56,13.56,0,0,0,.26,2.21,2.59,2.59,0,0,0,.66,1.16,2,2,0,0,0,1.52.66,1.94,1.94,0,0,0,1.5-.66,2.59,2.59,0,0,0,.66-1.16,13.56,13.56,0,0,0,.26-2.21c0-.56,0-1.54,0-2.95,0-.32,0-.72,0-1.21s0-.77,0-.86a13.34,13.34,0,0,0-.22-2.5A2.53,2.53,0,0,0,95.8,341.69Z"/><path class="bae54af2-da09-48e3-b586-c00cfcde54ef" d="M101.46,353.51a1.34,1.34,0,0,1,2.27-.94,1.3,1.3,0,0,1,0,1.87,1.32,1.32,0,0,1-1.88,0A1.29,1.29,0,0,1,101.46,353.51Z"/><path class="bae54af2-da09-48e3-b586-c00cfcde54ef" d="M107.07,344.75s.14-.83.37-2.4l.35-2.35s.15,0,.44,0h.44V340c0,.15.11.28.33.38a3.57,3.57,0,0,0,1.16.2c.55,0,1.78,0,3.71,0h2.66v.86l-1.5,2-.75,1c-.27.37-.49.66-.63.87l-.27.37A10.13,10.13,0,0,0,112,350.6c-.06.61-.1,1.43-.11,2.47,0,.2,0,.41,0,.63s0,.38,0,.51v.2a1.18,1.18,0,0,1-.43.64,1.24,1.24,0,0,1-.74.26,1.1,1.1,0,0,1-.85-.36,1.48,1.48,0,0,1-.32-1q0-.33.09-1.26a15.31,15.31,0,0,1,2-6c.29-.47.91-1.35,1.85-2.66l1-1.39h-2a24.73,24.73,0,0,0-4,.14c-.06,0-.14.19-.25.48a9.11,9.11,0,0,0-.22,1q0,.38-.06.42v.07h-.88Z"/><path class="bae54af2-da09-48e3-b586-c00cfcde54ef" d="M119,342a3.87,3.87,0,0,1,3.37-1.78,4,4,0,0,1,2.81,1.1,4.6,4.6,0,0,1,1,1.49,12.46,12.46,0,0,1,.82,5,11.47,11.47,0,0,1-1,5.21,3.81,3.81,0,0,1-1.8,1.85,4.13,4.13,0,0,1-1.87.46,3.88,3.88,0,0,1-3.7-2.31,11.49,11.49,0,0,1-.94-5.21,17.46,17.46,0,0,1,.27-3.38A7.28,7.28,0,0,1,119,342Zm5-.27a2,2,0,0,0-1.56-.7,2.1,2.1,0,0,0-1.59.7,2.71,2.71,0,0,0-.66,1.24,14.28,14.28,0,0,0-.22,2.5c0,.09,0,.38,0,.86s0,.89,0,1.21c0,1.41,0,2.39,0,2.95a11.61,11.61,0,0,0,.26,2.21,2.59,2.59,0,0,0,.66,1.16,2,2,0,0,0,1.52.66,1.91,1.91,0,0,0,1.49-.66,2.42,2.42,0,0,0,.66-1.16,12.28,12.28,0,0,0,.27-2.21c0-.56,0-1.54,0-2.95,0-.32,0-.72,0-1.21s0-.77,0-.86a13.34,13.34,0,0,0-.22-2.5A2.71,2.71,0,0,0,123.92,341.69Z"/><path class="bae54af2-da09-48e3-b586-c00cfcde54ef" d="M129.07,344.75s.14-.83.37-2.4l.35-2.35s.15,0,.44,0h.44V340c0,.15.11.28.33.38a3.57,3.57,0,0,0,1.16.2c.55,0,1.78,0,3.71,0h2.66v.86l-1.5,2-.75,1c-.27.37-.49.66-.63.87l-.27.37A10.13,10.13,0,0,0,134,350.6c-.06.61-.1,1.43-.11,2.47,0,.2,0,.41,0,.63s0,.38,0,.51v.2a1.18,1.18,0,0,1-.43.64,1.24,1.24,0,0,1-.74.26,1.1,1.1,0,0,1-.85-.36,1.48,1.48,0,0,1-.32-1q0-.33.09-1.26a15.31,15.31,0,0,1,2.05-6c.29-.47.91-1.35,1.85-2.66l1-1.39H134.5a24.73,24.73,0,0,0-4,.14c-.06,0-.14.19-.25.48a9.11,9.11,0,0,0-.22,1q0,.38-.06.42v.07h-.88Z"/><path class="bae54af2-da09-48e3-b586-c00cfcde54ef" d="M624.79,314.4a.45.45,0,0,1-.16-.28,5,5,0,0,1,.8-1.78,4.42,4.42,0,0,1,3-2.11,5.07,5.07,0,0,1,.54-.05,3.22,3.22,0,0,1,1.66.46,2.81,2.81,0,0,1,1.09,1.16l.41-.54a2.87,2.87,0,0,1,2.19-1.08,2.4,2.4,0,0,1,1.71.61,1.92,1.92,0,0,1,.66,1.48,2,2,0,0,1-.45,1.33,1.5,1.5,0,0,1-1.2.54,1.13,1.13,0,0,1-.8-.28,1,1,0,0,1-.31-.75,1.65,1.65,0,0,1,1.29-1.62l-.28-.18a1.53,1.53,0,0,0-.75-.15,1.87,1.87,0,0,0-.49,0,2.71,2.71,0,0,0-1.44,1.7c0,.14-.3,1.09-.75,2.87s-.68,2.77-.72,3a4.11,4.11,0,0,0-.07.78,1.31,1.31,0,0,0,.36,1,1.27,1.27,0,0,0,1,.36A2.63,2.63,0,0,0,634,320a4.73,4.73,0,0,0,1.19-2c0-.17.1-.27.15-.29a1.12,1.12,0,0,1,.41,0c.33,0,.49.07.49.2a2,2,0,0,1,0,.29,5.58,5.58,0,0,1-1.8,2.77,4,4,0,0,1-2.55,1,2.94,2.94,0,0,1-2.72-1.63,2.66,2.66,0,0,1-2.58,1.6,2.25,2.25,0,0,1-2.11-1.06,2,2,0,0,1-.25-1,2,2,0,0,1,.46-1.32,1.48,1.48,0,0,1,1.18-.54A1,1,0,0,1,627,319a1.45,1.45,0,0,1-.9,1.39l-.13.07-.13.06-.08,0-.07,0c0,.06.13.13.38.23a1.67,1.67,0,0,0,.67.13,1.9,1.9,0,0,0,1.6-1.15,19.64,19.64,0,0,0,1-3.35c.1-.39.22-.83.34-1.31s.21-.85.26-1.11.1-.41.12-.46a5.85,5.85,0,0,0,.13-1,1.34,1.34,0,0,0-.34-1,1.19,1.19,0,0,0-.92-.36,2.71,2.71,0,0,0-2,.89,4.89,4.89,0,0,0-1.18,2c0,.16-.07.25-.12.27a1.08,1.08,0,0,1-.42,0Z"/><path class="bae54af2-da09-48e3-b586-c00cfcde54ef" d="M634.93,358.73c-.3-.05-1.66-.08-4.09-.08s-3.75,0-4,.08h-.31v-1.19h.67a15.42,15.42,0,0,0,1.93-.07,1.7,1.7,0,0,0,.61-.31v-13.3a.57.57,0,0,0-.2.07,7.44,7.44,0,0,1-2.65.49h-.49v-1.18h.49a7.16,7.16,0,0,0,3.6-1,3.77,3.77,0,0,0,.8-.59c0-.05.13-.08.3-.08a.61.61,0,0,1,.44.16v7.69l0,7.72a2.47,2.47,0,0,0,1.67.38h1.52v1.19Z"/><line class="ebc25f08-81a3-4883-8b54-fd980d516a23" x1="617.98" y1="334.26" x2="643.33" y2="334.26"/><path class="bae54af2-da09-48e3-b586-c00cfcde54ef" d="M587.29,330.61a.56.56,0,0,1,.36-.51H604a.56.56,0,0,1,.39.51.59.59,0,0,1-.36.49l-8.18,0H587.7A.52.52,0,0,1,587.29,330.61Zm0,5a.52.52,0,0,1,.41-.51h16.37a.39.39,0,0,0,.11.09l.13.1a.49.49,0,0,1,.08.13.65.65,0,0,1,0,.19.56.56,0,0,1-.39.52H587.65A.56.56,0,0,1,587.29,335.6Z"/><path class="bae54af2-da09-48e3-b586-c00cfcde54ef" d="M661,330.61a.56.56,0,0,1,.36-.51h16.38a.56.56,0,0,1,.39.51.59.59,0,0,1-.36.49l-8.18,0h-8.18A.51.51,0,0,1,661,330.61Zm0,5a.51.51,0,0,1,.41-.51h16.36l.12.09.12.1a.32.32,0,0,1,.08.13.43.43,0,0,1,0,.19.56.56,0,0,1-.39.52H661.33A.56.56,0,0,1,661,335.6Z"/><path class="bae54af2-da09-48e3-b586-c00cfcde54ef" d="M687.47,332.39a.41.41,0,0,1-.16-.29,4.82,4.82,0,0,1,.8-1.77,4.4,4.4,0,0,1,3-2.11,5.07,5.07,0,0,1,.54-.05,3.1,3.1,0,0,1,1.66.46,2.83,2.83,0,0,1,1.1,1.16l.41-.54a2.84,2.84,0,0,1,2.19-1.08,2.44,2.44,0,0,1,1.71.6,2,2,0,0,1,.65,1.48,2,2,0,0,1-.45,1.34,1.48,1.48,0,0,1-1.19.54,1.12,1.12,0,0,1-.8-.28,1,1,0,0,1-.31-.75,1.63,1.63,0,0,1,1.29-1.62s-.1-.08-.29-.18a2.08,2.08,0,0,0-1.23-.1,2.69,2.69,0,0,0-1.44,1.7c-.05.13-.3,1.09-.75,2.86s-.68,2.78-.72,3a4.11,4.11,0,0,0-.08.77,1.31,1.31,0,0,0,.36,1,1.3,1.3,0,0,0,1,.36,2.63,2.63,0,0,0,2-.91,4.7,4.7,0,0,0,1.18-2,.63.63,0,0,1,.16-.3,1.42,1.42,0,0,1,.41,0c.33,0,.49.07.49.21s0,.11-.05.28a5.56,5.56,0,0,1-1.8,2.78,4,4,0,0,1-2.55.95,3,3,0,0,1-2.73-1.62,3.61,3.61,0,0,1-1.9,1.55,3.65,3.65,0,0,1-.67.05,2.24,2.24,0,0,1-2.11-1.06,2,2,0,0,1-.26-1,2,2,0,0,1,.47-1.31,1.47,1.47,0,0,1,1.18-.54,1,1,0,0,1,1.11,1.08,1.45,1.45,0,0,1-.9,1.39l-.13.07-.13.06-.08,0-.08,0c0,.05.13.13.39.23a1.67,1.67,0,0,0,.67.13,1.87,1.87,0,0,0,1.59-1.16,19,19,0,0,0,1-3.34l.33-1.31q.18-.72.27-1.11a4.67,4.67,0,0,1,.12-.46,7.21,7.21,0,0,0,.13-1,1.38,1.38,0,0,0-.34-1,1.19,1.19,0,0,0-.92-.36,2.67,2.67,0,0,0-2,.88,4.88,4.88,0,0,0-1.18,2.05.56.56,0,0,1-.12.27,1.08,1.08,0,0,1-.42,0Z"/><line class="a96c8dfb-65ab-4b2b-927c-14a454dfeed6" x1="483.31" y1="112" x2="483.31" y2="120"/><rect class="e6c4040c-4395-49d8-866e-83216c2cd715" x="46.64" y="376.26" width="128" height="30" rx="9.8"/><path class="b5b68ba7-234f-4c32-ac7b-5036174d96b3" d="M87.56,385.61l4.18,10.71H90.17L89,393.1H84.47l-1.2,3.22H81.81L86,385.61Zm1,6.29-1.79-5h0l-1.81,5Z"/><path class="b5b68ba7-234f-4c32-ac7b-5036174d96b3" d="M93.78,388.57v1.23h0a2.68,2.68,0,0,1,2.52-1.41,3.39,3.39,0,0,1,1.28.21,2.07,2.07,0,0,1,.82.58,2.13,2.13,0,0,1,.44.89,4.6,4.6,0,0,1,.13,1.15v5.1H97.73v-5.25a1.54,1.54,0,0,0-.42-1.14,1.57,1.57,0,0,0-1.16-.42,2.57,2.57,0,0,0-1,.18,1.85,1.85,0,0,0-.71.51A2.16,2.16,0,0,0,94,391a3,3,0,0,0-.14,1v4.38H92.58v-7.75Z"/><path class="b5b68ba7-234f-4c32-ac7b-5036174d96b3" d="M101,387.17v-1.56h1.27v1.56Zm1.27,1.4v7.75H101v-7.75Z"/><path class="b5b68ba7-234f-4c32-ac7b-5036174d96b3" d="M105.45,388.57v1.14h0a2.83,2.83,0,0,1,2.51-1.32,2.8,2.8,0,0,1,1.3.3,1.69,1.69,0,0,1,.83,1,2.74,2.74,0,0,1,1-1,2.94,2.94,0,0,1,1.41-.34,4.21,4.21,0,0,1,1,.12,2.2,2.2,0,0,1,.81.4,1.78,1.78,0,0,1,.53.7,2.63,2.63,0,0,1,.19,1v5.68h-1.28v-5.08a3.66,3.66,0,0,0-.06-.68,1.41,1.41,0,0,0-.22-.55,1.19,1.19,0,0,0-.46-.36,1.84,1.84,0,0,0-.76-.14,2,2,0,0,0-1.48.54,2,2,0,0,0-.54,1.44v4.83h-1.28v-5.08a3,3,0,0,0-.07-.69,1.37,1.37,0,0,0-.23-.55,1,1,0,0,0-.44-.36,1.64,1.64,0,0,0-.71-.13,2,2,0,0,0-1,.23,2.14,2.14,0,0,0-.64.54,1.91,1.91,0,0,0-.36.65,1.66,1.66,0,0,0-.11.56v4.83h-1.28v-7.75Z"/><path class="b5b68ba7-234f-4c32-ac7b-5036174d96b3" d="M123.92,396.29a1.82,1.82,0,0,1-.92.2,1.14,1.14,0,0,1-.79-.28,1.24,1.24,0,0,1-.29-.91,3.13,3.13,0,0,1-1.22.91,4.18,4.18,0,0,1-1.51.28,4.09,4.09,0,0,1-1-.12,2.33,2.33,0,0,1-.81-.38,1.73,1.73,0,0,1-.55-.67,2.13,2.13,0,0,1-.2-1,2.28,2.28,0,0,1,.22-1.08,2.08,2.08,0,0,1,.59-.69,2.94,2.94,0,0,1,.84-.39c.32-.09.64-.17,1-.23s.68-.12,1-.16a4.57,4.57,0,0,0,.83-.15,1.38,1.38,0,0,0,.57-.28.71.71,0,0,0,.21-.55,1.21,1.21,0,0,0-.16-.67,1.07,1.07,0,0,0-.4-.39,1.67,1.67,0,0,0-.56-.18,4,4,0,0,0-.6-.05,2.64,2.64,0,0,0-1.35.31,1.3,1.3,0,0,0-.59,1.16h-1.27a2.73,2.73,0,0,1,.3-1.21A2.34,2.34,0,0,1,118,389a3.12,3.12,0,0,1,1-.44,5.48,5.48,0,0,1,1.24-.13,7.17,7.17,0,0,1,1,.07,2.61,2.61,0,0,1,.94.31,1.77,1.77,0,0,1,.68.65,2.07,2.07,0,0,1,.25,1.09v4a3.37,3.37,0,0,0,0,.66q.06.21.36.21a1.55,1.55,0,0,0,.39-.06Zm-2.07-4a1.66,1.66,0,0,1-.63.26c-.26.05-.54.1-.82.13l-.86.12a3.41,3.41,0,0,0-.78.22,1.51,1.51,0,0,0-.57.42,1.25,1.25,0,0,0-.21.76,1.09,1.09,0,0,0,.12.53,1.23,1.23,0,0,0,.33.35,1.46,1.46,0,0,0,.48.19,2.62,2.62,0,0,0,.57.06,3.14,3.14,0,0,0,1.08-.17,2.24,2.24,0,0,0,.73-.43,1.82,1.82,0,0,0,.42-.57,1.44,1.44,0,0,0,.14-.57Z"/><path class="b5b68ba7-234f-4c32-ac7b-5036174d96b3" d="M128.42,388.57v1.12h-1.55v4.82a1.19,1.19,0,0,0,0,.36.34.34,0,0,0,.14.21.59.59,0,0,0,.29.09,3.28,3.28,0,0,0,.49,0h.59v1.12h-1a4.22,4.22,0,0,1-.85-.07A1.23,1.23,0,0,1,126,396a1.09,1.09,0,0,1-.32-.51,3,3,0,0,1-.1-.87v-4.94h-1.32v-1.12h1.32v-2.33h1.27v2.33Z"/><path class="b5b68ba7-234f-4c32-ac7b-5036174d96b3" d="M135.32,395.83a3.52,3.52,0,0,1-2.19.66,4,4,0,0,1-1.62-.3,3.19,3.19,0,0,1-1.14-.84,3.5,3.5,0,0,1-.7-1.29,6.06,6.06,0,0,1-.26-1.64,4.67,4.67,0,0,1,.27-1.62,3.92,3.92,0,0,1,.75-1.27,3.46,3.46,0,0,1,1.16-.84,3.5,3.5,0,0,1,1.46-.3,3.25,3.25,0,0,1,1.72.42,3.44,3.44,0,0,1,1.09,1.09,4.1,4.1,0,0,1,.57,1.44,6,6,0,0,1,.13,1.49h-5.8a3,3,0,0,0,.12,1,2.12,2.12,0,0,0,1.2,1.38,2.62,2.62,0,0,0,1.09.21,2.23,2.23,0,0,0,1.33-.38,1.83,1.83,0,0,0,.68-1.14h1.26A3.11,3.11,0,0,1,135.32,395.83Zm-.31-5a2.15,2.15,0,0,0-.47-.7,2.11,2.11,0,0,0-.69-.47,2.21,2.21,0,0,0-.87-.17,2.37,2.37,0,0,0-.9.17,2.2,2.2,0,0,0-.68.48,2.29,2.29,0,0,0-.45.69,2.7,2.7,0,0,0-.19.85h4.45A2.71,2.71,0,0,0,135,390.85Z"/><rect class="bd782480-0f9f-456a-ba5f-68d723b69ec0" x="259.58" y="282.34" width="16" height="16" rx="8"/><path class="bae54af2-da09-48e3-b586-c00cfcde54ef" d="M296.23,289.44a1.37,1.37,0,0,1-1,.38,1.34,1.34,0,0,1-1-.4,1.38,1.38,0,0,1-.38-1,1.33,1.33,0,0,1,.38-1c.09-.09.13-.14.12-.16s-.09,0-.24-.05a8.19,8.19,0,0,0-1.26-.1,2.62,2.62,0,0,0-2.06.82,5.56,5.56,0,0,0-1.21,4,5.91,5.91,0,0,0,.8,3.32,3.26,3.26,0,0,0,2.83,1.57,2.44,2.44,0,0,0,1.13-.26,3,3,0,0,0,1.49-2,.41.41,0,0,1,.13-.25.83.83,0,0,1,.41-.06h.36c.1.11.16.18.16.24a3.43,3.43,0,0,1-.65,1.51,4.15,4.15,0,0,1-3.63,1.86,5.24,5.24,0,0,1-2.44-.6,5.65,5.65,0,0,1-3.06-4.37,6.27,6.27,0,0,1,0-.82,7,7,0,0,1,0-.85,6,6,0,0,1,2.11-3.94,5.36,5.36,0,0,1,3.42-1.23c2.21,0,3.51.58,3.88,1.75a1.65,1.65,0,0,1,.08.59A1.23,1.23,0,0,1,296.23,289.44Z"/><path class="bae54af2-da09-48e3-b586-c00cfcde54ef" d="M298.38,292.16a5.89,5.89,0,0,1,1.49-4,5.6,5.6,0,0,1,3.58-1.94,4.41,4.41,0,0,1,.64-.05,5.34,5.34,0,0,1,3.89,1.64,5.93,5.93,0,0,1,1.8,4.35,6.41,6.41,0,0,1-.13,1.21,5.55,5.55,0,0,1-1.45,2.82,5.77,5.77,0,0,1-2.77,1.61,5.43,5.43,0,0,1-1.34.15,5.55,5.55,0,0,1-1.36-.15,5.75,5.75,0,0,1-4.35-5.61Zm6.18-5a2.12,2.12,0,0,0-.42,0,3.48,3.48,0,0,0-1.46.31,3.38,3.38,0,0,0-1.73,2.8c0,.31-.05.86-.05,1.65a8.86,8.86,0,0,0,.49,3.47,2.82,2.82,0,0,0,2.7,1.57c2.1,0,3.14-1.4,3.14-4.19v-.82a12.38,12.38,0,0,0-.13-2.27A3,3,0,0,0,304.56,287.12Z"/><path class="bae54af2-da09-48e3-b586-c00cfcde54ef" d="M315.41,287c-1.58,0-2.36.56-2.36,1.67a1.07,1.07,0,0,0,.05.44,1.55,1.55,0,0,0,.79.89,7.79,7.79,0,0,0,1.75.5,6.74,6.74,0,0,1,2,.57,3.69,3.69,0,0,1,2.08,2.54,4.09,4.09,0,0,1,0,.62,4.19,4.19,0,0,1-.36,1.78c-.67,1.27-1.93,1.9-3.78,1.9a4.1,4.1,0,0,1-2.68-.93l-.2.18-.23.24-.31.28-.29.26h-.2a.51.51,0,0,1-.34-.16v-2c0-1.12,0-1.76,0-1.93s0-.27.11-.31a1.65,1.65,0,0,1,.41,0c.23,0,.36,0,.4.05s.09.15.14.36a6,6,0,0,0,.67,1.77,2.85,2.85,0,0,0,2.5,1.31c1.66,0,2.49-.66,2.49-2a1.63,1.63,0,0,0-.46-1.21,2.19,2.19,0,0,0-1.08-.7l-1.23-.28a9,9,0,0,1-2-.54,3.22,3.22,0,0,1-2-2.39,1.67,1.67,0,0,1,0-.39q0-3,3.63-3.32a1.92,1.92,0,0,1,.62,0,4,4,0,0,1,1.8.39l.38.2.24-.17a6.07,6.07,0,0,1,.56-.44h.21a.46.46,0,0,1,.33.15v3.4l-.15.15h-.72a.45.45,0,0,1-.16-.31,2.42,2.42,0,0,0-.72-1.85A2.82,2.82,0,0,0,315.41,287Z"/><path class="bae54af2-da09-48e3-b586-c00cfcde54ef" d="M329.23,303.86c0,.16-.16.23-.47.23h-.33l-.72-.61q-4.63-4.23-4.63-12.25a21.11,21.11,0,0,1,.74-5.74,13.85,13.85,0,0,1,3.89-6.5l.41-.35.31-.27h.33c.21,0,.34,0,.39.08a.22.22,0,0,1,.08.15c0,.07-.1.2-.29.39q-4,4.22-4,12.24t4,12.25C329.13,303.67,329.23,303.79,329.23,303.86Z"/><path class="bae54af2-da09-48e3-b586-c00cfcde54ef" d="M338.88,279.55h.51a2.76,2.76,0,0,1,2.16,1.26,7.41,7.41,0,0,1,1,4.14,8.19,8.19,0,0,1-.05,1.1,18.73,18.73,0,0,1-1.77,6.41,14.68,14.68,0,0,1-2.05,3.19,7.78,7.78,0,0,1-2.3,1.93,3.45,3.45,0,0,1-1.39.36h-.18a2.47,2.47,0,0,1-1.88-.8c-.91-1-1.36-2.49-1.36-4.6a13.32,13.32,0,0,1,.26-2.6,16.85,16.85,0,0,1,3.88-8.41A5.54,5.54,0,0,1,338.88,279.55Zm.41,10.21.13-.43h-5l0,.18a21.69,21.69,0,0,0-.79,4.76,3.64,3.64,0,0,0,.61,2.42,1,1,0,0,0,.75.3c.68,0,1.41-.55,2.16-1.67A18.2,18.2,0,0,0,339.29,289.76Zm1.23-6.66c0-1.75-.45-2.62-1.36-2.62a2.43,2.43,0,0,0-1.75,1.1,13.88,13.88,0,0,0-2.19,4.63,11.49,11.49,0,0,0-.51,1.91c.84,0,1.67,0,2.49,0l2.5,0a9.55,9.55,0,0,0,.46-2A16.77,16.77,0,0,0,340.52,283.1Z"/><path class="bae54af2-da09-48e3-b586-c00cfcde54ef" d="M344.28,278.39l.1,0H345l.72.62q4.62,4.22,4.63,12.24a20.15,20.15,0,0,1-.75,5.71,13.92,13.92,0,0,1-3.88,6.54l-.41.34-.31.27h-.31a.88.88,0,0,1-.4,0c-.06,0-.09-.12-.09-.25l.28-.34q4-4.14,4-12.22t-4-12.22c-.17-.2-.26-.32-.28-.33A.31.31,0,0,1,344.28,278.39Z"/><path class="bae54af2-da09-48e3-b586-c00cfcde54ef" d="M294,328.91c-1.58,0-2.37.56-2.37,1.67a1.28,1.28,0,0,0,.05.44,1.56,1.56,0,0,0,.8.89,7.48,7.48,0,0,0,1.75.5,6.65,6.65,0,0,1,2,.57,3.73,3.73,0,0,1,2.09,2.54,4.58,4.58,0,0,1,0,.62,4.19,4.19,0,0,1-.36,1.78c-.67,1.27-1.93,1.9-3.78,1.9a4.06,4.06,0,0,1-2.67-.93l-.21.18-.23.24-.31.28-.28.26h-.21a.47.47,0,0,1-.33-.16v-2c0-1.12,0-1.76,0-1.93s.05-.27.12-.31a1.38,1.38,0,0,1,.41,0,.78.78,0,0,1,.4.06.8.8,0,0,1,.14.36,5.7,5.7,0,0,0,.67,1.77,2.84,2.84,0,0,0,2.49,1.31c1.67,0,2.5-.67,2.5-2a1.64,1.64,0,0,0-.47-1.21,2.19,2.19,0,0,0-1.08-.7l-1.23-.28a9.22,9.22,0,0,1-2-.54,3.22,3.22,0,0,1-2-2.39,3,3,0,0,1,0-.39q0-3,3.62-3.32a1.92,1.92,0,0,1,.62,0,3.92,3.92,0,0,1,1.8.39l.39.2.23-.18a6.07,6.07,0,0,1,.57-.43h.2a.5.5,0,0,1,.34.15v3.4l-.16.15h-.72a.43.43,0,0,1-.15-.31,2.4,2.4,0,0,0-.72-1.85A2.78,2.78,0,0,0,294,328.91Z"/><path class="bae54af2-da09-48e3-b586-c00cfcde54ef" d="M305.56,339.56a23.34,23.34,0,0,0-2.68-.07c-1.56,0-2.49,0-2.8.07h-.21v-1.18h.41a9.36,9.36,0,0,0,1.27-.08.52.52,0,0,0,.3-.28s0-1.28,0-3.73a35.78,35.78,0,0,0-.1-4.12c-.14-.34-.65-.51-1.52-.51H300v-.59c0-.4,0-.6,0-.6l.25,0c.18,0,.42,0,.73-.05l.92,0,.93-.07.74-.06.29,0H304V338a.6.6,0,0,0,.31.32,4.48,4.48,0,0,0,.9.09h.59v1.18Zm-3-17.21a1.74,1.74,0,0,1,1.06.45,1.47,1.47,0,0,1,.41,1.09,1.39,1.39,0,0,1-.69,1.32,1.47,1.47,0,0,1-.83.23,1.52,1.52,0,0,1-.85-.23,1.39,1.39,0,0,1-.69-1.32,1.48,1.48,0,0,1,.45-1.13A1.64,1.64,0,0,1,302.57,322.35Z"/><path class="bae54af2-da09-48e3-b586-c00cfcde54ef" d="M311.19,338c.14.24.54.36,1.21.36h.77v1.18H313a59.49,59.49,0,0,0-5.77,0H307v-1.18h.77c.67,0,1.07-.12,1.21-.36v-.8c0-.24,0-.51,0-.81s0-.63,0-1v-1.07c0-.53,0-1.1,0-1.71s0-1.11,0-1.51v-.59a.86.86,0,0,0-.37-.65,2.78,2.78,0,0,0-1.15-.22H307v-.59c0-.4,0-.6.05-.6l.26,0c.17,0,.41,0,.73-.05l.94,0,.93-.07.74-.06.28,0H311v1a6.07,6.07,0,0,0,0,1l0,0a4.53,4.53,0,0,1,3.94-2,3,3,0,0,1,3.27,2.91c0,.12,0,1.31,0,3.57s0,3.31,0,3.35a.53.53,0,0,0,.31.28,9.21,9.21,0,0,0,1.26.08h.41v1.18h-.21a59.28,59.28,0,0,0-5.76,0h-.2v-1.18h.61c.91,0,1.37-.14,1.37-.41,0,0,0-1.22,0-3.55s0-3.54-.05-3.68a2.25,2.25,0,0,0-.58-1.2,1.71,1.71,0,0,0-1.22-.37,2.79,2.79,0,0,0-2,.87,3.74,3.74,0,0,0-1.06,2.27v.47c0,.3,0,.68,0,1.15s0,.9,0,1.31v.81c0,.28,0,.54,0,.76s0,.42,0,.6V338Z"/><path class="bae54af2-da09-48e3-b586-c00cfcde54ef" d="M329.23,345.76c0,.16-.16.23-.47.23h-.33l-.72-.61q-4.63-4.23-4.63-12.25a21.11,21.11,0,0,1,.74-5.74,13.93,13.93,0,0,1,3.89-6.51l.41-.34.31-.27h.33c.21,0,.34,0,.39.07a.27.27,0,0,1,.08.16c0,.07-.1.2-.29.38q-4,4.23-4,12.25t4,12.25C329.13,345.57,329.23,345.69,329.23,345.76Z"/><path class="bae54af2-da09-48e3-b586-c00cfcde54ef" d="M338.88,321.45h.2l.31,0a2.8,2.8,0,0,1,2.16,1.27,7.41,7.41,0,0,1,1,4.14,8.19,8.19,0,0,1-.05,1.1,18.79,18.79,0,0,1-1.77,6.41,14.68,14.68,0,0,1-2.05,3.19,7.78,7.78,0,0,1-2.3,1.93,3.45,3.45,0,0,1-1.39.36h-.18a2.47,2.47,0,0,1-1.88-.8c-.91-1-1.36-2.49-1.36-4.6a13.32,13.32,0,0,1,.26-2.6,16.85,16.85,0,0,1,3.88-8.41A5.54,5.54,0,0,1,338.88,321.45Zm.41,10.21.13-.43h-5l0,.18a21.69,21.69,0,0,0-.79,4.76,3.59,3.59,0,0,0,.61,2.41,1,1,0,0,0,.75.31c.68,0,1.41-.55,2.16-1.67A18.2,18.2,0,0,0,339.29,331.66Zm1.23-6.66c0-1.75-.45-2.62-1.36-2.62a2.43,2.43,0,0,0-1.75,1.1,13.88,13.88,0,0,0-2.19,4.63,11.49,11.49,0,0,0-.51,1.91c.84,0,1.67,0,2.49,0l2.5,0a9.55,9.55,0,0,0,.46-2A16.77,16.77,0,0,0,340.52,325Z"/><path class="bae54af2-da09-48e3-b586-c00cfcde54ef" d="M344.28,320.29l.1,0H345l.72.61q4.62,4.23,4.63,12.25a20.2,20.2,0,0,1-.75,5.71,13.92,13.92,0,0,1-3.88,6.54l-.41.34L345,346h-.31a.88.88,0,0,1-.4-.05c-.06,0-.09-.12-.09-.25l.28-.34q4-4.14,4-12.22t-4-12.22c-.17-.2-.26-.32-.28-.33A.3.3,0,0,1,344.28,320.29Z"/><path class="bae54af2-da09-48e3-b586-c00cfcde54ef" d="M287.11,366.17v-.39h1v4.73h3.47v1.19h-3.47v3.7c0,2.15,0,3.36,0,3.64a2.21,2.21,0,0,0,.17.81,1.3,1.3,0,0,0,1.26,1c.75,0,1.22-.61,1.39-1.83,0-.14,0-.53,0-1.18V377h1v.9a7.5,7.5,0,0,1-.13,1.69,3.58,3.58,0,0,1-1,1.68,2.55,2.55,0,0,1-1.79.64A2.93,2.93,0,0,1,286,379q0-.18,0-3.81V371.7h-2v-.95h.23a2.42,2.42,0,0,0,1.62-.83A5.63,5.63,0,0,0,287.11,366.17Z"/><path class="bae54af2-da09-48e3-b586-c00cfcde54ef" d="M297.47,373.34a1.31,1.31,0,0,1-1,.41,1.26,1.26,0,0,1-1-.41,1.36,1.36,0,0,1-.39-1,2.07,2.07,0,0,1,.21-.83,2.32,2.32,0,0,1,1.34-1.08,6.76,6.76,0,0,1,2.44-.38,5.48,5.48,0,0,1,2.95.77,3.6,3.6,0,0,1,1.63,2,2.61,2.61,0,0,1,.14.82c0,.29,0,1.28,0,2.94s0,2.66,0,2.95a1.39,1.39,0,0,0,.14.65.52.52,0,0,0,.51.36.51.51,0,0,0,.49-.36,3.68,3.68,0,0,0,.16-1.41v-.93h1v1a9,9,0,0,1-.08,1.21,2.49,2.49,0,0,1-.85,1.2,2.32,2.32,0,0,1-1.47.48,1.64,1.64,0,0,1-1.14-.45,2.23,2.23,0,0,1-.68-1.1v-.1c0,.05-.16.17-.31.35l-.34.37a4.43,4.43,0,0,1-2.93,1.05,4.93,4.93,0,0,1-2.39-.56,2.92,2.92,0,0,1-1.42-1.49,2.68,2.68,0,0,1-.2-1,3,3,0,0,1,1-2.21,4.61,4.61,0,0,1,1.47-1,12.53,12.53,0,0,1,4.47-1h.36v-.57a4.11,4.11,0,0,0-.15-1.29A2.46,2.46,0,0,0,299,371c-1.15,0-1.72.07-1.72.2a1.29,1.29,0,0,1,.57,1.14A1.37,1.37,0,0,1,297.47,373.34Zm4.2,3.76c0-1,0-1.49,0-1.49l-.13,0c-2.35.16-3.85.85-4.5,2.09a2.34,2.34,0,0,0-.29,1.15,2,2,0,0,0,.62,1.47,2.09,2.09,0,0,0,1.52.59,2.66,2.66,0,0,0,1.76-.61,3,3,0,0,0,1-1.52A14.45,14.45,0,0,0,301.67,377.1Z"/><path class="bae54af2-da09-48e3-b586-c00cfcde54ef" d="M311.19,380.06c.14.24.54.36,1.21.36h.77v1.18H313a52.06,52.06,0,0,0-5.77,0H307v-1.18h.77c.67,0,1.07-.12,1.21-.36v-.8c0-.24,0-.51,0-.81s0-.63,0-1v-1.07c0-.53,0-1.1,0-1.71s0-1.11,0-1.51v-.59a.86.86,0,0,0-.37-.65,2.78,2.78,0,0,0-1.15-.22H307v-.6c0-.39,0-.59.05-.59l.26,0c.17,0,.41,0,.73-.05l.94-.06.93-.06.74-.06.28,0H311v1a6.07,6.07,0,0,0,0,1l0,0a4.53,4.53,0,0,1,3.94-2,3,3,0,0,1,3.27,2.91c0,.12,0,1.31,0,3.57s0,3.31,0,3.35a.53.53,0,0,0,.31.28,9.21,9.21,0,0,0,1.26.08h.41v1.18h-.21a51.88,51.88,0,0,0-5.76,0h-.2v-1.18h.61c.91,0,1.37-.14,1.37-.41,0,0,0-1.22,0-3.55s0-3.54-.05-3.68a2.25,2.25,0,0,0-.58-1.2,1.71,1.71,0,0,0-1.22-.37,2.79,2.79,0,0,0-2,.87,3.74,3.74,0,0,0-1.06,2.27v.47c0,.3,0,.68,0,1.15s0,.9,0,1.31v.81c0,.28,0,.54,0,.76s0,.42,0,.6v.61Z"/><path class="bae54af2-da09-48e3-b586-c00cfcde54ef" d="M329.23,387.8c0,.16-.16.23-.47.23h-.33l-.72-.61q-4.63-4.23-4.63-12.25a21.11,21.11,0,0,1,.74-5.74,13.93,13.93,0,0,1,3.89-6.51l.41-.34.31-.27h.33c.21,0,.34,0,.39.07a.24.24,0,0,1,.08.16c0,.07-.1.2-.29.38q-4,4.23-4,12.25t4,12.25C329.13,387.6,329.23,387.73,329.23,387.8Z"/><path class="bae54af2-da09-48e3-b586-c00cfcde54ef" d="M338.87,363.49h.21l.31,0a2.83,2.83,0,0,1,2.16,1.26,7.47,7.47,0,0,1,1,4.15,8.19,8.19,0,0,1-.05,1.1,18.79,18.79,0,0,1-1.77,6.41,14.68,14.68,0,0,1-2.05,3.19,7.78,7.78,0,0,1-2.3,1.93,3.49,3.49,0,0,1-1.39.36h-.18a2.47,2.47,0,0,1-1.88-.8c-.91-1-1.36-2.49-1.36-4.6a14.1,14.1,0,0,1,.25-2.6,16.86,16.86,0,0,1,3.89-8.41A5.5,5.5,0,0,1,338.87,363.49Zm.42,10.21.12-.43h-5l0,.18a21.85,21.85,0,0,0-.8,4.76,3.58,3.58,0,0,0,.62,2.41,1,1,0,0,0,.75.31c.68,0,1.4-.55,2.16-1.67A18.85,18.85,0,0,0,339.29,373.7Zm1.23-6.66c0-1.75-.45-2.62-1.36-2.62a2.43,2.43,0,0,0-1.75,1.1,13.88,13.88,0,0,0-2.19,4.63,11.49,11.49,0,0,0-.51,1.91l2.49,0,2.5,0a9.55,9.55,0,0,0,.46-2A16.87,16.87,0,0,0,340.52,367Z"/><path class="bae54af2-da09-48e3-b586-c00cfcde54ef" d="M344.28,362.33l.1,0H345l.72.61q4.62,4.23,4.63,12.25a20.2,20.2,0,0,1-.75,5.71,13.92,13.92,0,0,1-3.88,6.54l-.41.34L345,388h-.31a.88.88,0,0,1-.4,0c-.06,0-.09-.12-.09-.26a3.38,3.38,0,0,0,.28-.33q4-4.14,4-12.22t-4-12.22a3.38,3.38,0,0,0-.28-.33A.3.3,0,0,1,344.28,362.33Z"/><rect class="e6c4040c-4395-49d8-866e-83216c2cd715" x="259.58" y="324.24" width="16" height="16" rx="8"/><rect class="e6c4040c-4395-49d8-866e-83216c2cd715" x="259.58" y="366.28" width="16" height="16" rx="8"/></svg>