<svg xmlns="http://www.w3.org/2000/svg" id="interactive-0" class="element interactive" width="723.4225476445438" height="261.4225476445437" viewBox="0 0 723.4225476445438 261.4225476445437"><g id="group-1" class="element"><text x="37.78872617772814" y="250" id="text-124" class="element">-1</text><text x="111" y="250" id="text-125" class="element">0</text><text x="184.21127382227186" y="250" id="text-126" class="element">1</text><text x="241.42254764454373" y="119" id="text-127" class="element">0</text><text x="237.42254764454373" y="192.21127382227186" id="text-128" class="element">-1</text><text x="241.42254764454373" y="45.78872617772814" id="text-129" class="element">1</text><circle cx="261.4225476445437" cy="115" r="3" id="circle-130" class="element" style="fill: rgb(64, 64, 64);"></circle><text x="257.4225476445437" y="250" id="text-131" class="element">0</text><text x="330.63382146681556" y="250" id="text-132" class="element">1</text><text x="403.84509528908745" y="250" id="text-133" class="element">2</text><text x="477.05636911135934" y="250" id="text-134" class="element">3</text><text x="550.2676429336311" y="250" id="text-135" class="element">4</text><text x="623.4789167559031" y="250" id="text-136" class="element">5</text><text x="696.6901905781749" y="250" id="text-137" class="element">6</text><line x1="721.4225476445438" y1="111" x2="721.4225476445438" y2="119" id="line-138" class="element"></line></g><g id="group-2" class="element"></g><svg xmlns="http://www.w3.org/2000/svg" id="interactive-4" class="element interactive" width="230" height="230" viewBox="-115 -115 230 230" x="0" y="0"><g id="group-5" class="element"><rect x="219.63381958007812" y="219.63381958007812" width="73.21127319335938" height="73.21127319335938" id="rectangle-78" class="element" vector-effect="non-scaling-stroke" style="stroke-opacity: 0.25;"></rect><rect x="219.63381958007812" y="146.42254638671875" width="73.21127319335938" height="73.21127319335938" id="rectangle-77" class="element" vector-effect="non-scaling-stroke" style="stroke-opacity: 0.25;"></rect><rect x="219.63381958007812" y="73.21127319335938" width="73.21127319335938" height="73.21127319335938" id="rectangle-76" class="element" vector-effect="non-scaling-stroke" style="stroke-opacity: 0.25;"></rect><rect x="219.63381958007812" y="0" width="73.21127319335938" height="73.21127319335938" id="rectangle-75" class="element" vector-effect="non-scaling-stroke" style="stroke-opacity: 0.25;"></rect><rect x="219.63381958007812" y="-73.21127319335938" width="73.21127319335938" height="73.21127319335938" id="rectangle-74" class="element" vector-effect="non-scaling-stroke" style="stroke-opacity: 0.25;"></rect><rect x="219.63381958007812" y="-146.42254638671875" width="73.21127319335938" height="73.21127319335938" id="rectangle-73" class="element" vector-effect="non-scaling-stroke" style="stroke-opacity: 0.25;"></rect><rect x="219.63381958007812" y="-219.63381958007812" width="73.21127319335938" height="73.21127319335938" id="rectangle-72" class="element" vector-effect="non-scaling-stroke" style="stroke-opacity: 0.25;"></rect><rect x="146.42254638671875" y="219.63381958007812" width="73.21127319335938" height="73.21127319335938" id="rectangle-71" class="element" vector-effect="non-scaling-stroke" style="stroke-opacity: 0.25;"></rect><rect x="146.42254638671875" y="146.42254638671875" width="73.21127319335938" height="73.21127319335938" id="rectangle-70" class="element" vector-effect="non-scaling-stroke" style="stroke-opacity: 0.25;"></rect><rect x="146.42254638671875" y="73.21127319335938" width="73.21127319335938" height="73.21127319335938" id="rectangle-69" class="element" vector-effect="non-scaling-stroke" style="stroke-opacity: 0.25;"></rect><rect x="146.42254638671875" y="0" width="73.21127319335938" height="73.21127319335938" id="rectangle-68" class="element" vector-effect="non-scaling-stroke" style="stroke-opacity: 0.25;"></rect><rect x="146.42254638671875" y="-73.21127319335938" width="73.21127319335938" height="73.21127319335938" id="rectangle-67" class="element" vector-effect="non-scaling-stroke" style="stroke-opacity: 0.25;"></rect><rect x="146.42254638671875" y="-146.42254638671875" width="73.21127319335938" height="73.21127319335938" id="rectangle-66" class="element" vector-effect="non-scaling-stroke" style="stroke-opacity: 0.25;"></rect><rect x="146.42254638671875" y="-219.63381958007812" width="73.21127319335938" height="73.21127319335938" id="rectangle-65" class="element" vector-effect="non-scaling-stroke" style="stroke-opacity: 0.25;"></rect><rect x="73.21127319335938" y="219.63381958007812" width="73.21127319335938" height="73.21127319335938" id="rectangle-64" class="element" vector-effect="non-scaling-stroke" style="stroke-opacity: 0.25;"></rect><rect x="73.21127319335938" y="146.42254638671875" width="73.21127319335938" height="73.21127319335938" id="rectangle-63" class="element" vector-effect="non-scaling-stroke" style="stroke-opacity: 0.25;"></rect><rect x="73.21127319335938" y="73.21127319335938" width="73.21127319335938" height="73.21127319335938" id="rectangle-62" class="element" vector-effect="non-scaling-stroke" style="stroke-opacity: 0.25;"></rect><rect x="73.21127319335938" y="0" width="73.21127319335938" height="73.21127319335938" id="rectangle-61" class="element" vector-effect="non-scaling-stroke" style="stroke-opacity: 0.25;"></rect><rect x="73.21127319335938" y="-73.21127319335938" width="73.21127319335938" height="73.21127319335938" id="rectangle-60" class="element" vector-effect="non-scaling-stroke" style="stroke-opacity: 0.25;"></rect><rect x="73.21127319335938" y="-146.42254638671875" width="73.21127319335938" height="73.21127319335938" id="rectangle-59" class="element" vector-effect="non-scaling-stroke" style="stroke-opacity: 0.25;"></rect><rect x="73.21127319335938" y="-219.63381958007812" width="73.21127319335938" height="73.21127319335938" id="rectangle-58" class="element" vector-effect="non-scaling-stroke" style="stroke-opacity: 0.25;"></rect><rect x="0" y="219.63381958007812" width="73.21127319335938" height="73.21127319335938" id="rectangle-57" class="element" vector-effect="non-scaling-stroke" style="stroke-opacity: 0.25;"></rect><rect x="0" y="146.42254638671875" width="73.21127319335938" height="73.21127319335938" id="rectangle-56" class="element" vector-effect="non-scaling-stroke" style="stroke-opacity: 0.25;"></rect><rect x="0" y="73.21127319335938" width="73.21127319335938" height="73.21127319335938" id="rectangle-55" class="element" vector-effect="non-scaling-stroke" style="stroke-opacity: 0.25;"></rect><rect x="0" y="0" width="73.21127319335938" height="73.21127319335938" id="rectangle-54" class="element" vector-effect="non-scaling-stroke" style="stroke-opacity: 0.25;"></rect><rect x="0" y="-73.21127319335938" width="73.21127319335938" height="73.21127319335938" id="rectangle-53" class="element" vector-effect="non-scaling-stroke" style="stroke-opacity: 0.25;"></rect><rect x="0" y="-146.42254638671875" width="73.21127319335938" height="73.21127319335938" id="rectangle-52" class="element" vector-effect="non-scaling-stroke" style="stroke-opacity: 0.25;"></rect><rect x="0" y="-219.63381958007812" width="73.21127319335938" height="73.21127319335938" id="rectangle-51" class="element" vector-effect="non-scaling-stroke" style="stroke-opacity: 0.25;"></rect><rect x="-73.21127319335938" y="219.63381958007812" width="73.21127319335938" height="73.21127319335938" id="rectangle-50" class="element" vector-effect="non-scaling-stroke" style="stroke-opacity: 0.25;"></rect><rect x="-73.21127319335938" y="146.42254638671875" width="73.21127319335938" height="73.21127319335938" id="rectangle-49" class="element" vector-effect="non-scaling-stroke" style="stroke-opacity: 0.25;"></rect><rect x="-73.21127319335938" y="73.21127319335938" width="73.21127319335938" height="73.21127319335938" id="rectangle-48" class="element" vector-effect="non-scaling-stroke" style="stroke-opacity: 0.25;"></rect><rect x="-73.21127319335938" y="0" width="73.21127319335938" height="73.21127319335938" id="rectangle-47" class="element" vector-effect="non-scaling-stroke" style="stroke-opacity: 0.25;"></rect><rect x="-73.21127319335938" y="-73.21127319335938" width="73.21127319335938" height="73.21127319335938" id="rectangle-46" class="element" vector-effect="non-scaling-stroke" style="stroke-opacity: 0.25;"></rect><rect x="-73.21127319335938" y="-146.42254638671875" width="73.21127319335938" height="73.21127319335938" id="rectangle-45" class="element" vector-effect="non-scaling-stroke" style="stroke-opacity: 0.25;"></rect><rect x="-73.21127319335938" y="-219.63381958007812" width="73.21127319335938" height="73.21127319335938" id="rectangle-44" class="element" vector-effect="non-scaling-stroke" style="stroke-opacity: 0.25;"></rect><rect x="-146.42254638671875" y="219.63381958007812" width="73.21127319335938" height="73.21127319335938" id="rectangle-43" class="element" vector-effect="non-scaling-stroke" style="stroke-opacity: 0.25;"></rect><rect x="-146.42254638671875" y="146.42254638671875" width="73.21127319335938" height="73.21127319335938" id="rectangle-42" class="element" vector-effect="non-scaling-stroke" style="stroke-opacity: 0.25;"></rect><rect x="-146.42254638671875" y="73.21127319335938" width="73.21127319335938" height="73.21127319335938" id="rectangle-41" class="element" vector-effect="non-scaling-stroke" style="stroke-opacity: 0.25;"></rect><rect x="-146.42254638671875" y="0" width="73.21127319335938" height="73.21127319335938" id="rectangle-40" class="element" vector-effect="non-scaling-stroke" style="stroke-opacity: 0.25;"></rect><rect x="-146.42254638671875" y="-73.21127319335938" width="73.21127319335938" height="73.21127319335938" id="rectangle-39" class="element" vector-effect="non-scaling-stroke" style="stroke-opacity: 0.25;"></rect><rect x="-146.42254638671875" y="-146.42254638671875" width="73.21127319335938" height="73.21127319335938" id="rectangle-38" class="element" vector-effect="non-scaling-stroke" style="stroke-opacity: 0.25;"></rect><rect x="-146.42254638671875" y="-219.63381958007812" width="73.21127319335938" height="73.21127319335938" id="rectangle-37" class="element" vector-effect="non-scaling-stroke" style="stroke-opacity: 0.25;"></rect><rect x="-219.63381958007812" y="219.63381958007812" width="73.21127319335938" height="73.21127319335938" id="rectangle-36" class="element" vector-effect="non-scaling-stroke" style="stroke-opacity: 0.25;"></rect><rect x="-219.63381958007812" y="146.42254638671875" width="73.21127319335938" height="73.21127319335938" id="rectangle-35" class="element" vector-effect="non-scaling-stroke" style="stroke-opacity: 0.25;"></rect><rect x="-219.63381958007812" y="73.21127319335938" width="73.21127319335938" height="73.21127319335938" id="rectangle-34" class="element" vector-effect="non-scaling-stroke" style="stroke-opacity: 0.25;"></rect><rect x="-219.63381958007812" y="0" width="73.21127319335938" height="73.21127319335938" id="rectangle-33" class="element" vector-effect="non-scaling-stroke" style="stroke-opacity: 0.25;"></rect><rect x="-219.63381958007812" y="-73.21127319335938" width="73.21127319335938" height="73.21127319335938" id="rectangle-32" class="element" vector-effect="non-scaling-stroke" style="stroke-opacity: 0.25;"></rect><rect x="-219.63381958007812" y="-146.42254638671875" width="73.21127319335938" height="73.21127319335938" id="rectangle-31" class="element" vector-effect="non-scaling-stroke" style="stroke-opacity: 0.25;"></rect><rect x="-219.63381958007812" y="-219.63381958007812" width="73.21127319335938" height="73.21127319335938" id="rectangle-30" class="element" vector-effect="non-scaling-stroke" style="stroke-opacity: 0.25;"></rect><rect x="-115" y="-115" width="230" height="230" id="rectangle-7" class="element"></rect><path d="M 0 0
                  L 39.556219721914395 0
                  L 39.556219721914395 -61.605162153056064
                  Z" id="path-8" class="element" style="fill: rgb(248, 248, 248);"></path><circle cx="0" cy="0" r="73.21127382227186" id="circle-9" class="element"></circle><line x1="39.5562" y1="0" x2="39.5562" y2="-61.6052" id="line-13" class="element" style="stroke: cornflowerblue; stroke-width: 2;"></line><circle cx="0" cy="0" r="3" id="circle-14" class="element" style="fill: rgb(64, 64, 64);"></circle></g><g id="group-6" class="element"><g id="control-10" class="element control" transform="translate( 39.556219721914395, -61.605162153056064)"><circle cx="0" cy="0" r="4" id="circle-11" class="element"></circle><circle cx="0" cy="0" r="13" id="circle-12" class="element"></circle></g></g></svg><svg xmlns="http://www.w3.org/2000/svg" id="interactive-15" class="element interactive" width="460" height="230" viewBox="0 0 460 230" x="261.4225476445437" y="0"><g id="group-16" class="element"><g id="plot-18" class="element"><rect x="0" y="0" width="460" height="230" id="rectangle-19" class="element" style="fill: transparent; border: 1px solid rgb(64, 64, 64);"></rect><svg xmlns="http://www.w3.org/2000/svg" width="460" height="230" id="svg-20" class="element" preserveAspectRatio="none" viewBox="0 -1.5707963267948963 6.283185307179585 3.1415926535897927"><rect x="0" y="-2" width="1" height="1" id="rectangle-79" class="element" vector-effect="non-scaling-stroke" style="stroke-opacity: 0.25;"></rect><rect x="0" y="-1" width="1" height="1" id="rectangle-80" class="element" vector-effect="non-scaling-stroke" style="stroke-opacity: 0.25;"></rect><rect x="0" y="0" width="1" height="1" id="rectangle-81" class="element" vector-effect="non-scaling-stroke" style="stroke-opacity: 0.25;"></rect><rect x="0" y="1" width="1" height="1" id="rectangle-82" class="element" vector-effect="non-scaling-stroke" style="stroke-opacity: 0.25;"></rect><rect x="0" y="2" width="1" height="1" id="rectangle-83" class="element" vector-effect="non-scaling-stroke" style="stroke-opacity: 0.25;"></rect><rect x="1" y="-2" width="1" height="1" id="rectangle-84" class="element" vector-effect="non-scaling-stroke" style="stroke-opacity: 0.25;"></rect><rect x="1" y="-1" width="1" height="1" id="rectangle-85" class="element" vector-effect="non-scaling-stroke" style="stroke-opacity: 0.25;"></rect><rect x="1" y="0" width="1" height="1" id="rectangle-86" class="element" vector-effect="non-scaling-stroke" style="stroke-opacity: 0.25;"></rect><rect x="1" y="1" width="1" height="1" id="rectangle-87" class="element" vector-effect="non-scaling-stroke" style="stroke-opacity: 0.25;"></rect><rect x="1" y="2" width="1" height="1" id="rectangle-88" class="element" vector-effect="non-scaling-stroke" style="stroke-opacity: 0.25;"></rect><rect x="2" y="-2" width="1" height="1" id="rectangle-89" class="element" vector-effect="non-scaling-stroke" style="stroke-opacity: 0.25;"></rect><rect x="2" y="-1" width="1" height="1" id="rectangle-90" class="element" vector-effect="non-scaling-stroke" style="stroke-opacity: 0.25;"></rect><rect x="2" y="0" width="1" height="1" id="rectangle-91" class="element" vector-effect="non-scaling-stroke" style="stroke-opacity: 0.25;"></rect><rect x="2" y="1" width="1" height="1" id="rectangle-92" class="element" vector-effect="non-scaling-stroke" style="stroke-opacity: 0.25;"></rect><rect x="2" y="2" width="1" height="1" id="rectangle-93" class="element" vector-effect="non-scaling-stroke" style="stroke-opacity: 0.25;"></rect><rect x="3" y="-2" width="1" height="1" id="rectangle-94" class="element" vector-effect="non-scaling-stroke" style="stroke-opacity: 0.25;"></rect><rect x="3" y="-1" width="1" height="1" id="rectangle-95" class="element" vector-effect="non-scaling-stroke" style="stroke-opacity: 0.25;"></rect><rect x="3" y="0" width="1" height="1" id="rectangle-96" class="element" vector-effect="non-scaling-stroke" style="stroke-opacity: 0.25;"></rect><rect x="3" y="1" width="1" height="1" id="rectangle-97" class="element" vector-effect="non-scaling-stroke" style="stroke-opacity: 0.25;"></rect><rect x="3" y="2" width="1" height="1" id="rectangle-98" class="element" vector-effect="non-scaling-stroke" style="stroke-opacity: 0.25;"></rect><rect x="4" y="-2" width="1" height="1" id="rectangle-99" class="element" vector-effect="non-scaling-stroke" style="stroke-opacity: 0.25;"></rect><rect x="4" y="-1" width="1" height="1" id="rectangle-100" class="element" vector-effect="non-scaling-stroke" style="stroke-opacity: 0.25;"></rect><rect x="4" y="0" width="1" height="1" id="rectangle-101" class="element" vector-effect="non-scaling-stroke" style="stroke-opacity: 0.25;"></rect><rect x="4" y="1" width="1" height="1" id="rectangle-102" class="element" vector-effect="non-scaling-stroke" style="stroke-opacity: 0.25;"></rect><rect x="4" y="2" width="1" height="1" id="rectangle-103" class="element" vector-effect="non-scaling-stroke" style="stroke-opacity: 0.25;"></rect><rect x="5" y="-2" width="1" height="1" id="rectangle-104" class="element" vector-effect="non-scaling-stroke" style="stroke-opacity: 0.25;"></rect><rect x="5" y="-1" width="1" height="1" id="rectangle-105" class="element" vector-effect="non-scaling-stroke" style="stroke-opacity: 0.25;"></rect><rect x="5" y="0" width="1" height="1" id="rectangle-106" class="element" vector-effect="non-scaling-stroke" style="stroke-opacity: 0.25;"></rect><rect x="5" y="1" width="1" height="1" id="rectangle-107" class="element" vector-effect="non-scaling-stroke" style="stroke-opacity: 0.25;"></rect><rect x="5" y="2" width="1" height="1" id="rectangle-108" class="element" vector-effect="non-scaling-stroke" style="stroke-opacity: 0.25;"></rect><rect x="6" y="-2" width="1" height="1" id="rectangle-109" class="element" vector-effect="non-scaling-stroke" style="stroke-opacity: 0.25;"></rect><rect x="6" y="-1" width="1" height="1" id="rectangle-110" class="element" vector-effect="non-scaling-stroke" style="stroke-opacity: 0.25;"></rect><rect x="6" y="0" width="1" height="1" id="rectangle-111" class="element" vector-effect="non-scaling-stroke" style="stroke-opacity: 0.25;"></rect><rect x="6" y="1" width="1" height="1" id="rectangle-112" class="element" vector-effect="non-scaling-stroke" style="stroke-opacity: 0.25;"></rect><rect x="6" y="2" width="1" height="1" id="rectangle-113" class="element" vector-effect="non-scaling-stroke" style="stroke-opacity: 0.25;"></rect><rect x="7" y="-2" width="1" height="1" id="rectangle-114" class="element" vector-effect="non-scaling-stroke" style="stroke-opacity: 0.25;"></rect><rect x="7" y="-1" width="1" height="1" id="rectangle-115" class="element" vector-effect="non-scaling-stroke" style="stroke-opacity: 0.25;"></rect><rect x="7" y="0" width="1" height="1" id="rectangle-116" class="element" vector-effect="non-scaling-stroke" style="stroke-opacity: 0.25;"></rect><rect x="7" y="1" width="1" height="1" id="rectangle-117" class="element" vector-effect="non-scaling-stroke" style="stroke-opacity: 0.25;"></rect><rect x="7" y="2" width="1" height="1" id="rectangle-118" class="element" vector-effect="non-scaling-stroke" style="stroke-opacity: 0.25;"></rect></svg><g id="group-21" class="element" transform="translate(0, 115)"><line x1="-10000" y1="0" x2="10000" y2="0" id="line-22" class="element"></line><line x1="0" y1="-10000" x2="0" y2="10000" id="line-23" class="element"></line><circle cx="0" cy="0" r="3" id="circle-24" class="element" style="fill: rgb(64, 64, 64);"></circle><path d="M -460 8.29562639172877e-14 L -459.0 1.0 L -458.0 2.0 L -457.0 3.0 L -456.0 4.0 L -455.0 5.0 L -454.0 6.0 L -453.0 7.0 L -452.0 8.0 L -451.0 9.0 L -450.0 10.0 L -449.0 11.0 L -448.0 11.9 L -447.0 12.9 L -446.0 13.9 L -445.0 14.9 L -444.0 15.9 L -443.0 16.8 L -442.0 17.8 L -441.0 18.8 L -440.0 19.8 L -439.0 20.7 L -438.0 21.7 L -437.0 22.6 L -436.0 23.6 L -435.0 24.5 L -434.0 25.5 L -433.0 26.4 L -432.0 27.3 L -431.0 28.2 L -430.0 29.2 L -429.0 30.1 L -428.0 31.0 L -427.0 31.9 L -426.0 32.8 L -425.0 33.7 L -424.0 34.6 L -423.0 35.4 L -422.0 36.3 L -421.0 37.2 L -420.0 38.0 L -419.0 38.9 L -418.0 39.7 L -417.0 40.6 L -416.0 41.4 L -415.0 42.2 L -414.0 43.0 L -413.0 43.8 L -412.0 44.6 L -411.0 45.4 L -410.0 46.2 L -409.0 47.0 L -408.0 47.7 L -407.0 48.5 L -406.0 49.2 L -405.0 50.0 L -404.0 50.7 L -403.0 51.4 L -402.0 52.1 L -401.0 52.8 L -400.0 53.5 L -399.0 54.2 L -398.0 54.9 L -397.0 55.5 L -396.0 56.2 L -395.0 56.8 L -394.0 57.4 L -393.0 58.0 L -392.0 58.6 L -391.0 59.2 L -390.0 59.8 L -389.0 60.4 L -388.0 60.9 L -387.0 61.5 L -386.0 62.0 L -385.0 62.6 L -384.0 63.1 L -383.0 63.6 L -382.0 64.1 L -381.0 64.5 L -380.0 65.0 L -379.0 65.5 L -378.0 65.9 L -377.0 66.3 L -376.0 66.7 L -375.0 67.2 L -374.0 67.5 L -373.0 67.9 L -372.0 68.3 L -371.0 68.6 L -370.0 69.0 L -369.0 69.3 L -368.0 69.6 L -367.0 69.9 L -366.0 70.2 L -365.0 70.5 L -364.0 70.8 L -363.0 71.0 L -362.0 71.2 L -361.0 71.5 L -360.0 71.7 L -359.0 71.9 L -358.0 72.1 L -357.0 72.2 L -356.0 72.4 L -355.0 72.5 L -354.0 72.7 L -353.0 72.8 L -352.0 72.9 L -351.0 73.0 L -350.0 73.0 L -349.0 73.1 L -348.0 73.1 L -347.0 73.2 L -346.0 73.2 L -345.0 73.2 L -344.0 73.2 L -343.0 73.2 L -342.0 73.1 L -341.0 73.1 L -340.0 73.0 L -339.0 73.0 L -338.0 72.9 L -337.0 72.8 L -336.0 72.7 L -335.0 72.5 L -334.0 72.4 L -333.0 72.2 L -332.0 72.1 L -331.0 71.9 L -330.0 71.7 L -329.0 71.5 L -328.0 71.2 L -327.0 71.0 L -326.0 70.8 L -325.0 70.5 L -324.0 70.2 L -323.0 69.9 L -322.0 69.6 L -321.0 69.3 L -320.0 69.0 L -319.0 68.6 L -318.0 68.3 L -317.0 67.9 L -316.0 67.5 L -315.0 67.2 L -314.0 66.7 L -313.0 66.3 L -312.0 65.9 L -311.0 65.5 L -310.0 65.0 L -309.0 64.5 L -308.0 64.1 L -307.0 63.6 L -306.0 63.1 L -305.0 62.6 L -304.0 62.0 L -303.0 61.5 L -302.0 60.9 L -301.0 60.4 L -300.0 59.8 L -299.0 59.2 L -298.0 58.6 L -297.0 58.0 L -296.0 57.4 L -295.0 56.8 L -294.0 56.2 L -293.0 55.5 L -292.0 54.9 L -291.0 54.2 L -290.0 53.5 L -289.0 52.8 L -288.0 52.1 L -287.0 51.4 L -286.0 50.7 L -285.0 50.0 L -284.0 49.2 L -283.0 48.5 L -282.0 47.7 L -281.0 47.0 L -280.0 46.2 L -279.0 45.4 L -278.0 44.6 L -277.0 43.8 L -276.0 43.0 L -275.0 42.2 L -274.0 41.4 L -273.0 40.6 L -272.0 39.7 L -271.0 38.9 L -270.0 38.0 L -269.0 37.2 L -268.0 36.3 L -267.0 35.4 L -266.0 34.6 L -265.0 33.7 L -264.0 32.8 L -263.0 31.9 L -262.0 31.0 L -261.0 30.1 L -260.0 29.2 L -259.0 28.2 L -258.0 27.3 L -257.0 26.4 L -256.0 25.5 L -255.0 24.5 L -254.0 23.6 L -253.0 22.6 L -252.0 21.7 L -251.0 20.7 L -250.0 19.8 L -249.0 18.8 L -248.0 17.8 L -247.0 16.8 L -246.0 15.9 L -245.0 14.9 L -244.0 13.9 L -243.0 12.9 L -242.0 11.9 L -241.0 11.0 L -240.0 10.0 L -239.0 9.0 L -238.0 8.0 L -237.0 7.0 L -236.0 6.0 L -235.0 5.0 L -234.0 4.0 L -233.0 3.0 L -232.0 2.0 L -231.0 1.0 L -230.0 -0.0 L -229.0 -1.0 L -228.0 -2.0 L -227.0 -3.0 L -226.0 -4.0 L -225.0 -5.0 L -224.0 -6.0 L -223.0 -7.0 L -222.0 -8.0 L -221.0 -9.0 L -220.0 -10.0 L -219.0 -11.0 L -218.0 -11.9 L -217.0 -12.9 L -216.0 -13.9 L -215.0 -14.9 L -214.0 -15.9 L -213.0 -16.8 L -212.0 -17.8 L -211.0 -18.8 L -210.0 -19.8 L -209.0 -20.7 L -208.0 -21.7 L -207.0 -22.6 L -206.0 -23.6 L -205.0 -24.5 L -204.0 -25.5 L -203.0 -26.4 L -202.0 -27.3 L -201.0 -28.2 L -200.0 -29.2 L -199.0 -30.1 L -198.0 -31.0 L -197.0 -31.9 L -196.0 -32.8 L -195.0 -33.7 L -194.0 -34.6 L -193.0 -35.4 L -192.0 -36.3 L -191.0 -37.2 L -190.0 -38.0 L -189.0 -38.9 L -188.0 -39.7 L -187.0 -40.6 L -186.0 -41.4 L -185.0 -42.2 L -184.0 -43.0 L -183.0 -43.8 L -182.0 -44.6 L -181.0 -45.4 L -180.0 -46.2 L -179.0 -47.0 L -178.0 -47.7 L -177.0 -48.5 L -176.0 -49.2 L -175.0 -50.0 L -174.0 -50.7 L -173.0 -51.4 L -172.0 -52.1 L -171.0 -52.8 L -170.0 -53.5 L -169.0 -54.2 L -168.0 -54.9 L -167.0 -55.5 L -166.0 -56.2 L -165.0 -56.8 L -164.0 -57.4 L -163.0 -58.0 L -162.0 -58.6 L -161.0 -59.2 L -160.0 -59.8 L -159.0 -60.4 L -158.0 -60.9 L -157.0 -61.5 L -156.0 -62.0 L -155.0 -62.6 L -154.0 -63.1 L -153.0 -63.6 L -152.0 -64.1 L -151.0 -64.5 L -150.0 -65.0 L -149.0 -65.5 L -148.0 -65.9 L -147.0 -66.3 L -146.0 -66.7 L -145.0 -67.2 L -144.0 -67.5 L -143.0 -67.9 L -142.0 -68.3 L -141.0 -68.6 L -140.0 -69.0 L -139.0 -69.3 L -138.0 -69.6 L -137.0 -69.9 L -136.0 -70.2 L -135.0 -70.5 L -134.0 -70.8 L -133.0 -71.0 L -132.0 -71.2 L -131.0 -71.5 L -130.0 -71.7 L -129.0 -71.9 L -128.0 -72.1 L -127.0 -72.2 L -126.0 -72.4 L -125.0 -72.5 L -124.0 -72.7 L -123.0 -72.8 L -122.0 -72.9 L -121.0 -73.0 L -120.0 -73.0 L -119.0 -73.1 L -118.0 -73.1 L -117.0 -73.2 L -116.0 -73.2 L -115.0 -73.2 L -114.0 -73.2 L -113.0 -73.2 L -112.0 -73.1 L -111.0 -73.1 L -110.0 -73.0 L -109.0 -73.0 L -108.0 -72.9 L -107.0 -72.8 L -106.0 -72.7 L -105.0 -72.5 L -104.0 -72.4 L -103.0 -72.2 L -102.0 -72.1 L -101.0 -71.9 L -100.0 -71.7 L -99.0 -71.5 L -98.0 -71.2 L -97.0 -71.0 L -96.0 -70.8 L -95.0 -70.5 L -94.0 -70.2 L -93.0 -69.9 L -92.0 -69.6 L -91.0 -69.3 L -90.0 -69.0 L -89.0 -68.6 L -88.0 -68.3 L -87.0 -67.9 L -86.0 -67.5 L -85.0 -67.2 L -84.0 -66.7 L -83.0 -66.3 L -82.0 -65.9 L -81.0 -65.5 L -80.0 -65.0 L -79.0 -64.5 L -78.0 -64.1 L -77.0 -63.6 L -76.0 -63.1 L -75.0 -62.6 L -74.0 -62.0 L -73.0 -61.5 L -72.0 -60.9 L -71.0 -60.4 L -70.0 -59.8 L -69.0 -59.2 L -68.0 -58.6 L -67.0 -58.0 L -66.0 -57.4 L -65.0 -56.8 L -64.0 -56.2 L -63.0 -55.5 L -62.0 -54.9 L -61.0 -54.2 L -60.0 -53.5 L -59.0 -52.8 L -58.0 -52.1 L -57.0 -51.4 L -56.0 -50.7 L -55.0 -50.0 L -54.0 -49.2 L -53.0 -48.5 L -52.0 -47.7 L -51.0 -47.0 L -50.0 -46.2 L -49.0 -45.4 L -48.0 -44.6 L -47.0 -43.8 L -46.0 -43.0 L -45.0 -42.2 L -44.0 -41.4 L -43.0 -40.6 L -42.0 -39.7 L -41.0 -38.9 L -40.0 -38.0 L -39.0 -37.2 L -38.0 -36.3 L -37.0 -35.4 L -36.0 -34.6 L -35.0 -33.7 L -34.0 -32.8 L -33.0 -31.9 L -32.0 -31.0 L -31.0 -30.1 L -30.0 -29.2 L -29.0 -28.2 L -28.0 -27.3 L -27.0 -26.4 L -26.0 -25.5 L -25.0 -24.5 L -24.0 -23.6 L -23.0 -22.6 L -22.0 -21.7 L -21.0 -20.7 L -20.0 -19.8 L -19.0 -18.8 L -18.0 -17.8 L -17.0 -16.8 L -16.0 -15.9 L -15.0 -14.9 L -14.0 -13.9 L -13.0 -12.9 L -12.0 -11.9 L -11.0 -11.0 L -10.0 -10.0 L -9.0 -9.0 L -8.0 -8.0 L -7.0 -7.0 L -6.0 -6.0 L -5.0 -5.0 L -4.0 -4.0 L -3.0 -3.0 L -2.0 -2.0 L -1.0 -1.0 L 0.0 0.0 L 1.0 1.0 L 2.0 2.0 L 3.0 3.0 L 4.0 4.0 L 5.0 5.0 L 6.0 6.0 L 7.0 7.0 L 8.0 8.0 L 9.0 9.0 L 10.0 10.0 L 11.0 11.0 L 12.0 11.9 L 13.0 12.9 L 14.0 13.9 L 15.0 14.9 L 16.0 15.9 L 17.0 16.8 L 18.0 17.8 L 19.0 18.8 L 20.0 19.8 L 21.0 20.7 L 22.0 21.7 L 23.0 22.6 L 24.0 23.6 L 25.0 24.5 L 26.0 25.5 L 27.0 26.4 L 28.0 27.3 L 29.0 28.2 L 30.0 29.2 L 31.0 30.1 L 32.0 31.0 L 33.0 31.9 L 34.0 32.8 L 35.0 33.7 L 36.0 34.6 L 37.0 35.4 L 38.0 36.3 L 39.0 37.2 L 40.0 38.0 L 41.0 38.9 L 42.0 39.7 L 43.0 40.6 L 44.0 41.4 L 45.0 42.2 L 46.0 43.0 L 47.0 43.8 L 48.0 44.6 L 49.0 45.4 L 50.0 46.2 L 51.0 47.0 L 52.0 47.7 L 53.0 48.5 L 54.0 49.2 L 55.0 50.0 L 56.0 50.7 L 57.0 51.4 L 58.0 52.1 L 59.0 52.8 L 60.0 53.5 L 61.0 54.2 L 62.0 54.9 L 63.0 55.5 L 64.0 56.2 L 65.0 56.8 L 66.0 57.4 L 67.0 58.0 L 68.0 58.6 L 69.0 59.2 L 70.0 59.8 L 71.0 60.4 L 72.0 60.9 L 73.0 61.5 L 74.0 62.0 L 75.0 62.6 L 76.0 63.1 L 77.0 63.6 L 78.0 64.1 L 79.0 64.5 L 80.0 65.0 L 81.0 65.5 L 82.0 65.9 L 83.0 66.3 L 84.0 66.7 L 85.0 67.2 L 86.0 67.5 L 87.0 67.9 L 88.0 68.3 L 89.0 68.6 L 90.0 69.0 L 91.0 69.3 L 92.0 69.6 L 93.0 69.9 L 94.0 70.2 L 95.0 70.5 L 96.0 70.8 L 97.0 71.0 L 98.0 71.2 L 99.0 71.5 L 100.0 71.7 L 101.0 71.9 L 102.0 72.1 L 103.0 72.2 L 104.0 72.4 L 105.0 72.5 L 106.0 72.7 L 107.0 72.8 L 108.0 72.9 L 109.0 73.0 L 110.0 73.0 L 111.0 73.1 L 112.0 73.1 L 113.0 73.2 L 114.0 73.2 L 115.0 73.2 L 116.0 73.2 L 117.0 73.2 L 118.0 73.1 L 119.0 73.1 L 120.0 73.0 L 121.0 73.0 L 122.0 72.9 L 123.0 72.8 L 124.0 72.7 L 125.0 72.5 L 126.0 72.4 L 127.0 72.2 L 128.0 72.1 L 129.0 71.9 L 130.0 71.7 L 131.0 71.5 L 132.0 71.2 L 133.0 71.0 L 134.0 70.8 L 135.0 70.5 L 136.0 70.2 L 137.0 69.9 L 138.0 69.6 L 139.0 69.3 L 140.0 69.0 L 141.0 68.6 L 142.0 68.3 L 143.0 67.9 L 144.0 67.5 L 145.0 67.2 L 146.0 66.7 L 147.0 66.3 L 148.0 65.9 L 149.0 65.5 L 150.0 65.0 L 151.0 64.5 L 152.0 64.1 L 153.0 63.6 L 154.0 63.1 L 155.0 62.6 L 156.0 62.0 L 157.0 61.5 L 158.0 60.9 L 159.0 60.4 L 160.0 59.8 L 161.0 59.2 L 162.0 58.6 L 163.0 58.0 L 164.0 57.4 L 165.0 56.8 L 166.0 56.2 L 167.0 55.5 L 168.0 54.9 L 169.0 54.2 L 170.0 53.5 L 171.0 52.8 L 172.0 52.1 L 173.0 51.4 L 174.0 50.7 L 175.0 50.0 L 176.0 49.2 L 177.0 48.5 L 178.0 47.7 L 179.0 47.0 L 180.0 46.2 L 181.0 45.4 L 182.0 44.6 L 183.0 43.8 L 184.0 43.0 L 185.0 42.2 L 186.0 41.4 L 187.0 40.6 L 188.0 39.7 L 189.0 38.9 L 190.0 38.0 L 191.0 37.2 L 192.0 36.3 L 193.0 35.4 L 194.0 34.6 L 195.0 33.7 L 196.0 32.8 L 197.0 31.9 L 198.0 31.0 L 199.0 30.1 L 200.0 29.2 L 201.0 28.2 L 202.0 27.3 L 203.0 26.4 L 204.0 25.5 L 205.0 24.5 L 206.0 23.6 L 207.0 22.6 L 208.0 21.7 L 209.0 20.7 L 210.0 19.8 L 211.0 18.8 L 212.0 17.8 L 213.0 16.8 L 214.0 15.9 L 215.0 14.9 L 216.0 13.9 L 217.0 12.9 L 218.0 11.9 L 219.0 11.0 L 220.0 10.0 L 221.0 9.0 L 222.0 8.0 L 223.0 7.0 L 224.0 6.0 L 225.0 5.0 L 226.0 4.0 L 227.0 3.0 L 228.0 2.0 L 229.0 1.0 L 230.0 0.0 L 231.0 -1.0 L 232.0 -2.0 L 233.0 -3.0 L 234.0 -4.0 L 235.0 -5.0 L 236.0 -6.0 L 237.0 -7.0 L 238.0 -8.0 L 239.0 -9.0 L 240.0 -10.0 L 241.0 -11.0 L 242.0 -11.9 L 243.0 -12.9 L 244.0 -13.9 L 245.0 -14.9 L 246.0 -15.9 L 247.0 -16.8 L 248.0 -17.8 L 249.0 -18.8 L 250.0 -19.8 L 251.0 -20.7 L 252.0 -21.7 L 253.0 -22.6 L 254.0 -23.6 L 255.0 -24.5 L 256.0 -25.5 L 257.0 -26.4 L 258.0 -27.3 L 259.0 -28.2 L 260.0 -29.2 L 261.0 -30.1 L 262.0 -31.0 L 263.0 -31.9 L 264.0 -32.8 L 265.0 -33.7 L 266.0 -34.6 L 267.0 -35.4 L 268.0 -36.3 L 269.0 -37.2 L 270.0 -38.0 L 271.0 -38.9 L 272.0 -39.7 L 273.0 -40.6 L 274.0 -41.4 L 275.0 -42.2 L 276.0 -43.0 L 277.0 -43.8 L 278.0 -44.6 L 279.0 -45.4 L 280.0 -46.2 L 281.0 -47.0 L 282.0 -47.7 L 283.0 -48.5 L 284.0 -49.2 L 285.0 -50.0 L 286.0 -50.7 L 287.0 -51.4 L 288.0 -52.1 L 289.0 -52.8 L 290.0 -53.5 L 291.0 -54.2 L 292.0 -54.9 L 293.0 -55.5 L 294.0 -56.2 L 295.0 -56.8 L 296.0 -57.4 L 297.0 -58.0 L 298.0 -58.6 L 299.0 -59.2 L 300.0 -59.8 L 301.0 -60.4 L 302.0 -60.9 L 303.0 -61.5 L 304.0 -62.0 L 305.0 -62.6 L 306.0 -63.1 L 307.0 -63.6 L 308.0 -64.1 L 309.0 -64.5 L 310.0 -65.0 L 311.0 -65.5 L 312.0 -65.9 L 313.0 -66.3 L 314.0 -66.7 L 315.0 -67.2 L 316.0 -67.5 L 317.0 -67.9 L 318.0 -68.3 L 319.0 -68.6 L 320.0 -69.0 L 321.0 -69.3 L 322.0 -69.6 L 323.0 -69.9 L 324.0 -70.2 L 325.0 -70.5 L 326.0 -70.8 L 327.0 -71.0 L 328.0 -71.2 L 329.0 -71.5 L 330.0 -71.7 L 331.0 -71.9 L 332.0 -72.1 L 333.0 -72.2 L 334.0 -72.4 L 335.0 -72.5 L 336.0 -72.7 L 337.0 -72.8 L 338.0 -72.9 L 339.0 -73.0 L 340.0 -73.0 L 341.0 -73.1 L 342.0 -73.1 L 343.0 -73.2 L 344.0 -73.2 L 345.0 -73.2 L 346.0 -73.2 L 347.0 -73.2 L 348.0 -73.1 L 349.0 -73.1 L 350.0 -73.0 L 351.0 -73.0 L 352.0 -72.9 L 353.0 -72.8 L 354.0 -72.7 L 355.0 -72.5 L 356.0 -72.4 L 357.0 -72.2 L 358.0 -72.1 L 359.0 -71.9 L 360.0 -71.7 L 361.0 -71.5 L 362.0 -71.2 L 363.0 -71.0 L 364.0 -70.8 L 365.0 -70.5 L 366.0 -70.2 L 367.0 -69.9 L 368.0 -69.6 L 369.0 -69.3 L 370.0 -69.0 L 371.0 -68.6 L 372.0 -68.3 L 373.0 -67.9 L 374.0 -67.5 L 375.0 -67.2 L 376.0 -66.7 L 377.0 -66.3 L 378.0 -65.9 L 379.0 -65.5 L 380.0 -65.0 L 381.0 -64.5 L 382.0 -64.1 L 383.0 -63.6 L 384.0 -63.1 L 385.0 -62.6 L 386.0 -62.0 L 387.0 -61.5 L 388.0 -60.9 L 389.0 -60.4 L 390.0 -59.8 L 391.0 -59.2 L 392.0 -58.6 L 393.0 -58.0 L 394.0 -57.4 L 395.0 -56.8 L 396.0 -56.2 L 397.0 -55.5 L 398.0 -54.9 L 399.0 -54.2 L 400.0 -53.5 L 401.0 -52.8 L 402.0 -52.1 L 403.0 -51.4 L 404.0 -50.7 L 405.0 -50.0 L 406.0 -49.2 L 407.0 -48.5 L 408.0 -47.7 L 409.0 -47.0 L 410.0 -46.2 L 411.0 -45.4 L 412.0 -44.6 L 413.0 -43.8 L 414.0 -43.0 L 415.0 -42.2 L 416.0 -41.4 L 417.0 -40.6 L 418.0 -39.7 L 419.0 -38.9 L 420.0 -38.0 L 421.0 -37.2 L 422.0 -36.3 L 423.0 -35.4 L 424.0 -34.6 L 425.0 -33.7 L 426.0 -32.8 L 427.0 -31.9 L 428.0 -31.0 L 429.0 -30.1 L 430.0 -29.2 L 431.0 -28.2 L 432.0 -27.3 L 433.0 -26.4 L 434.0 -25.5 L 435.0 -24.5 L 436.0 -23.6 L 437.0 -22.6 L 438.0 -21.7 L 439.0 -20.7 L 440.0 -19.8 L 441.0 -18.8 L 442.0 -17.8 L 443.0 -16.8 L 444.0 -15.9 L 445.0 -14.9 L 446.0 -13.9 L 447.0 -12.9 L 448.0 -11.9 L 449.0 -11.0 L 450.0 -10.0 L 451.0 -9.0 L 452.0 -8.0 L 453.0 -7.0 L 454.0 -6.0 L 455.0 -5.0 L 456.0 -4.0 L 457.0 -3.0 L 458.0 -2.0 L 459.0 -1.0 L 460.0 -0.0 L 461.0 1.0 L 462.0 2.0 L 463.0 3.0 L 464.0 4.0 L 465.0 5.0 L 466.0 6.0 L 467.0 7.0 L 468.0 8.0 L 469.0 9.0 L 470.0 10.0 L 471.0 11.0 L 472.0 11.9 L 473.0 12.9 L 474.0 13.9 L 475.0 14.9 L 476.0 15.9 L 477.0 16.8 L 478.0 17.8 L 479.0 18.8 L 480.0 19.8 L 481.0 20.7 L 482.0 21.7 L 483.0 22.6 L 484.0 23.6 L 485.0 24.5 L 486.0 25.5 L 487.0 26.4 L 488.0 27.3 L 489.0 28.2 L 490.0 29.2 L 491.0 30.1 L 492.0 31.0 L 493.0 31.9 L 494.0 32.8 L 495.0 33.7 L 496.0 34.6 L 497.0 35.4 L 498.0 36.3 L 499.0 37.2 L 500.0 38.0 L 501.0 38.9 L 502.0 39.7 L 503.0 40.6 L 504.0 41.4 L 505.0 42.2 L 506.0 43.0 L 507.0 43.8 L 508.0 44.6 L 509.0 45.4 L 510.0 46.2 L 511.0 47.0 L 512.0 47.7 L 513.0 48.5 L 514.0 49.2 L 515.0 50.0 L 516.0 50.7 L 517.0 51.4 L 518.0 52.1 L 519.0 52.8 L 520.0 53.5 L 521.0 54.2 L 522.0 54.9 L 523.0 55.5 L 524.0 56.2 L 525.0 56.8 L 526.0 57.4 L 527.0 58.0 L 528.0 58.6 L 529.0 59.2 L 530.0 59.8 L 531.0 60.4 L 532.0 60.9 L 533.0 61.5 L 534.0 62.0 L 535.0 62.6 L 536.0 63.1 L 537.0 63.6 L 538.0 64.1 L 539.0 64.5 L 540.0 65.0 L 541.0 65.5 L 542.0 65.9 L 543.0 66.3 L 544.0 66.7 L 545.0 67.2 L 546.0 67.5 L 547.0 67.9 L 548.0 68.3 L 549.0 68.6 L 550.0 69.0 L 551.0 69.3 L 552.0 69.6 L 553.0 69.9 L 554.0 70.2 L 555.0 70.5 L 556.0 70.8 L 557.0 71.0 L 558.0 71.2 L 559.0 71.5 L 560.0 71.7 L 561.0 71.9 L 562.0 72.1 L 563.0 72.2 L 564.0 72.4 L 565.0 72.5 L 566.0 72.7 L 567.0 72.8 L 568.0 72.9 L 569.0 73.0 L 570.0 73.0 L 571.0 73.1 L 572.0 73.1 L 573.0 73.2 L 574.0 73.2 L 575.0 73.2 L 576.0 73.2 L 577.0 73.2 L 578.0 73.1 L 579.0 73.1 L 580.0 73.0 L 581.0 73.0 L 582.0 72.9 L 583.0 72.8 L 584.0 72.7 L 585.0 72.5 L 586.0 72.4 L 587.0 72.2 L 588.0 72.1 L 589.0 71.9 L 590.0 71.7 L 591.0 71.5 L 592.0 71.2 L 593.0 71.0 L 594.0 70.8 L 595.0 70.5 L 596.0 70.2 L 597.0 69.9 L 598.0 69.6 L 599.0 69.3 L 600.0 69.0 L 601.0 68.6 L 602.0 68.3 L 603.0 67.9 L 604.0 67.5 L 605.0 67.2 L 606.0 66.7 L 607.0 66.3 L 608.0 65.9 L 609.0 65.5 L 610.0 65.0 L 611.0 64.5 L 612.0 64.1 L 613.0 63.6 L 614.0 63.1 L 615.0 62.6 L 616.0 62.0 L 617.0 61.5 L 618.0 60.9 L 619.0 60.4 L 620.0 59.8 L 621.0 59.2 L 622.0 58.6 L 623.0 58.0 L 624.0 57.4 L 625.0 56.8 L 626.0 56.2 L 627.0 55.5 L 628.0 54.9 L 629.0 54.2 L 630.0 53.5 L 631.0 52.8 L 632.0 52.1 L 633.0 51.4 L 634.0 50.7 L 635.0 50.0 L 636.0 49.2 L 637.0 48.5 L 638.0 47.7 L 639.0 47.0 L 640.0 46.2 L 641.0 45.4 L 642.0 44.6 L 643.0 43.8 L 644.0 43.0 L 645.0 42.2 L 646.0 41.4 L 647.0 40.6 L 648.0 39.7 L 649.0 38.9 L 650.0 38.0 L 651.0 37.2 L 652.0 36.3 L 653.0 35.4 L 654.0 34.6 L 655.0 33.7 L 656.0 32.8 L 657.0 31.9 L 658.0 31.0 L 659.0 30.1 L 660.0 29.2 L 661.0 28.2 L 662.0 27.3 L 663.0 26.4 L 664.0 25.5 L 665.0 24.5 L 666.0 23.6 L 667.0 22.6 L 668.0 21.7 L 669.0 20.7 L 670.0 19.8 L 671.0 18.8 L 672.0 17.8 L 673.0 16.8 L 674.0 15.9 L 675.0 14.9 L 676.0 13.9 L 677.0 12.9 L 678.0 11.9 L 679.0 11.0 L 680.0 10.0 L 681.0 9.0 L 682.0 8.0 L 683.0 7.0 L 684.0 6.0 L 685.0 5.0 L 686.0 4.0 L 687.0 3.0 L 688.0 2.0 L 689.0 1.0 L 690.0 0.0 L 691.0 -1.0 L 692.0 -2.0 L 693.0 -3.0 L 694.0 -4.0 L 695.0 -5.0 L 696.0 -6.0 L 697.0 -7.0 L 698.0 -8.0 L 699.0 -9.0 L 700.0 -10.0 L 701.0 -11.0 L 702.0 -11.9 L 703.0 -12.9 L 704.0 -13.9 L 705.0 -14.9 L 706.0 -15.9 L 707.0 -16.8 L 708.0 -17.8 L 709.0 -18.8 L 710.0 -19.8 L 711.0 -20.7 L 712.0 -21.7 L 713.0 -22.6 L 714.0 -23.6 L 715.0 -24.5 L 716.0 -25.5 L 717.0 -26.4 L 718.0 -27.3 L 719.0 -28.2 L 720.0 -29.2 L 721.0 -30.1 L 722.0 -31.0 L 723.0 -31.9 L 724.0 -32.8 L 725.0 -33.7 L 726.0 -34.6 L 727.0 -35.4 L 728.0 -36.3 L 729.0 -37.2 L 730.0 -38.0 L 731.0 -38.9 L 732.0 -39.7 L 733.0 -40.6 L 734.0 -41.4 L 735.0 -42.2 L 736.0 -43.0 L 737.0 -43.8 L 738.0 -44.6 L 739.0 -45.4 L 740.0 -46.2 L 741.0 -47.0 L 742.0 -47.7 L 743.0 -48.5 L 744.0 -49.2 L 745.0 -50.0 L 746.0 -50.7 L 747.0 -51.4 L 748.0 -52.1 L 749.0 -52.8 L 750.0 -53.5 L 751.0 -54.2 L 752.0 -54.9 L 753.0 -55.5 L 754.0 -56.2 L 755.0 -56.8 L 756.0 -57.4 L 757.0 -58.0 L 758.0 -58.6 L 759.0 -59.2 L 760.0 -59.8 L 761.0 -60.4 L 762.0 -60.9 L 763.0 -61.5 L 764.0 -62.0 L 765.0 -62.6 L 766.0 -63.1 L 767.0 -63.6 L 768.0 -64.1 L 769.0 -64.5 L 770.0 -65.0 L 771.0 -65.5 L 772.0 -65.9 L 773.0 -66.3 L 774.0 -66.7 L 775.0 -67.2 L 776.0 -67.5 L 777.0 -67.9 L 778.0 -68.3 L 779.0 -68.6 L 780.0 -69.0 L 781.0 -69.3 L 782.0 -69.6 L 783.0 -69.9 L 784.0 -70.2 L 785.0 -70.5 L 786.0 -70.8 L 787.0 -71.0 L 788.0 -71.2 L 789.0 -71.5 L 790.0 -71.7 L 791.0 -71.9 L 792.0 -72.1 L 793.0 -72.2 L 794.0 -72.4 L 795.0 -72.5 L 796.0 -72.7 L 797.0 -72.8 L 798.0 -72.9 L 799.0 -73.0 L 800.0 -73.0 L 801.0 -73.1 L 802.0 -73.1 L 803.0 -73.2 L 804.0 -73.2 L 805.0 -73.2 L 806.0 -73.2 L 807.0 -73.2 L 808.0 -73.1 L 809.0 -73.1 L 810.0 -73.0 L 811.0 -73.0 L 812.0 -72.9 L 813.0 -72.8 L 814.0 -72.7 L 815.0 -72.5 L 816.0 -72.4 L 817.0 -72.2 L 818.0 -72.1 L 819.0 -71.9 L 820.0 -71.7 L 821.0 -71.5 L 822.0 -71.2 L 823.0 -71.0 L 824.0 -70.8 L 825.0 -70.5 L 826.0 -70.2 L 827.0 -69.9 L 828.0 -69.6 L 829.0 -69.3 L 830.0 -69.0 L 831.0 -68.6 L 832.0 -68.3 L 833.0 -67.9 L 834.0 -67.5 L 835.0 -67.2 L 836.0 -66.7 L 837.0 -66.3 L 838.0 -65.9 L 839.0 -65.5 L 840.0 -65.0 L 841.0 -64.5 L 842.0 -64.1 L 843.0 -63.6 L 844.0 -63.1 L 845.0 -62.6 L 846.0 -62.0 L 847.0 -61.5 L 848.0 -60.9 L 849.0 -60.4 L 850.0 -59.8 L 851.0 -59.2 L 852.0 -58.6 L 853.0 -58.0 L 854.0 -57.4 L 855.0 -56.8 L 856.0 -56.2 L 857.0 -55.5 L 858.0 -54.9 L 859.0 -54.2 L 860.0 -53.5 L 861.0 -52.8 L 862.0 -52.1 L 863.0 -51.4 L 864.0 -50.7 L 865.0 -50.0 L 866.0 -49.2 L 867.0 -48.5 L 868.0 -47.7 L 869.0 -47.0 L 870.0 -46.2 L 871.0 -45.4 L 872.0 -44.6 L 873.0 -43.8 L 874.0 -43.0 L 875.0 -42.2 L 876.0 -41.4 L 877.0 -40.6 L 878.0 -39.7 L 879.0 -38.9 L 880.0 -38.0 L 881.0 -37.2 L 882.0 -36.3 L 883.0 -35.4 L 884.0 -34.6 L 885.0 -33.7 L 886.0 -32.8 L 887.0 -31.9 L 888.0 -31.0 L 889.0 -30.1 L 890.0 -29.2 L 891.0 -28.2 L 892.0 -27.3 L 893.0 -26.4 L 894.0 -25.5 L 895.0 -24.5 L 896.0 -23.6 L 897.0 -22.6 L 898.0 -21.7 L 899.0 -20.7 L 900.0 -19.8 L 901.0 -18.8 L 902.0 -17.8 L 903.0 -16.8 L 904.0 -15.9 L 905.0 -14.9 L 906.0 -13.9 L 907.0 -12.9 L 908.0 -11.9 L 909.0 -11.0 L 910.0 -10.0 L 911.0 -9.0 L 912.0 -8.0 L 913.0 -7.0 L 914.0 -6.0 L 915.0 -5.0 L 916.0 -4.0 L 917.0 -3.0 L 918.0 -2.0 L 919.0 -1.0 " id="path-25" class="element" transform="scale(1, -1)"></path><line x1="73.2113" y1="0" x2="73.2113" y2="61.6052" id="line-26" class="element" transform="scale(1,-1)" style="stroke: cornflowerblue; stroke-width: 2;"></line><g id="control-27" class="element control" transform="translate( 73.21127382227186, -61.605162682267675)"><circle cx="0" cy="0" r="4" id="circle-28" class="element"></circle><circle cx="0" cy="0" r="13" id="circle-29" class="element"></circle></g><line x1="115.00000000000001" y1="-4" x2="115.00000000000001" y2="4" id="line-119" class="element"></line><line x1="230.00000000000003" y1="-4" x2="230.00000000000003" y2="4" id="line-120" class="element"></line><line x1="345" y1="-4" x2="345" y2="4" id="line-121" class="element"></line><text x="226.00000000000003" y="-8" id="text-122" class="element">π</text><text x="448.00000000000006" y="-8" id="text-123" class="element">τ</text></g></g></g><g id="group-17" class="element"></g></svg><style type="text/css">.window { display: block; margin: 0px auto 1.5em; box-shadow: rgba(0, 0, 0, 0.15) 0px 5px 9px 0px, rgba(0, 0, 0, 0.19) 0px 3px 10px 0px; overflow: hidden; }
.border { border: 1px solid grey; }
.input-container { width: 100%; height: 2rem; }
input.input { width: 100%; height: 2rem; padding-left: 8px; border: 1px solid grey; border-radius: 4px; font-size: 14px; }
.interactive { }
.interactive { font-family: "Helvetica Neue", "Segoe UI", Helvetica, Arial, sans-serif; font-weight: normal; font-feature-settings: "kern", "liga", "clig", "calt"; -webkit-font-smoothing: antialiased; user-select: none; }
svg.cartesian { display: flex; }
svg.cartesian { transform: scaleY(-1); }
svg.cartesian > g text { transform: scaleY(-1); }
text.element { fill: rgb(51, 51, 51); stroke: none; }
path.element, line.element, rect.element, ellipse.element, circle.element, polygon.element { stroke: rgb(64, 64, 64); stroke-width: 1px; fill: none; }
.control &gt; :first-child { fill: rgb(3, 102, 238); stroke: none; }
.control &gt; :nth-child(2) { fill: transparent; stroke: rgb(3, 102, 238); stroke-width: 2px; opacity: 0; }
.control &gt; .highlight { opacity: 1; }
.icon { width: 1rem; height: 1rem; }
.button rect { fill: rgb(85, 85, 85); }
.button:hover rect { fill: rgb(51, 51, 51); }
.button text { fill: rgb(255, 255, 255); }
</style></svg>