<svg id="f4b1f616-bd7e-4552-9f4b-9b8c9a3dcc06" data-name="Layer 1" xmlns="http://www.w3.org/2000/svg" viewBox="0 0 420 100"><defs><style>.b0068f63-ab70-4f8e-af61-8c87ca94eab5{fill:#404040;}.a526c184-333b-4bf9-a85c-55c24ec3433c{fill:#93348b;}.bc656ea4-99cf-4dfc-926c-6363d5a2e1d0{fill:#a15727;}.a38889e4-8a3d-44ed-b2d3-b2f2bfbcbf66{fill:#1c23a3;}.b341ff71-97d1-4b38-ada3-bf4931865b77{fill:#333;}</style></defs><title>xml-structure</title><path class="b0068f63-ab70-4f8e-af61-8c87ca94eab5" d="M19.16,36.72v-.41l6.68-4.08.54.88-5.63,3.34,5.65,3.27-.54.85Z"/><path class="a526c184-333b-4bf9-a85c-55c24ec3433c" d="M33.26,35.06a4.77,4.77,0,0,0-.7-.19,3.19,3.19,0,0,0-.75-.08,2.94,2.94,0,0,0-2.07.65,2.8,2.8,0,0,0-.68,2.08,3,3,0,0,0,.2,1.11,2.24,2.24,0,0,0,.57.84,2.57,2.57,0,0,0,.88.52,3.27,3.27,0,0,0,1.15.19A3.81,3.81,0,0,0,33.15,40a3.28,3.28,0,0,0,1.06-.61l.5.82a3.84,3.84,0,0,1-.5.36,4.44,4.44,0,0,1-.69.34,5.1,5.1,0,0,1-.86.27,5.54,5.54,0,0,1-1,.1A4.47,4.47,0,0,1,30,41a3,3,0,0,1-1.17-.75A3.09,3.09,0,0,1,28.13,39a4.63,4.63,0,0,1-.24-1.53,4.87,4.87,0,0,1,.24-1.59,3.17,3.17,0,0,1,.72-1.16A3.22,3.22,0,0,1,30,34a4.43,4.43,0,0,1,1.49-.25,6.62,6.62,0,0,1,1.71.19,6.49,6.49,0,0,1,1.12.41l0,0v2h-1Z"/><path class="a526c184-333b-4bf9-a85c-55c24ec3433c" d="M37,41.06v-1H39.5v-5.2H37V34h3.59v6.15H43v1ZM39.1,32a1,1,0,0,1,.26-.66A.87.87,0,0,1,40,31,1,1,0,0,1,41,32a.82.82,0,0,1-.28.62,1,1,0,0,1-.69.26.89.89,0,0,1-.65-.26A.84.84,0,0,1,39.1,32Z"/><path class="a526c184-333b-4bf9-a85c-55c24ec3433c" d="M45,41.06v-1h1.92v-5.2H45V34h2.65l.23.93h.07A4.53,4.53,0,0,1,49,34.14a3,3,0,0,1,1.42-.32,1.35,1.35,0,0,1,.77.19,1.21,1.21,0,0,1,.45.54,2.52,2.52,0,0,1,.22.85,9.88,9.88,0,0,1,.06,1.15H51a3.58,3.58,0,0,0-.18-1.32.65.65,0,0,0-.65-.42,2.47,2.47,0,0,0-.79.12,3,3,0,0,0-.62.31,4.48,4.48,0,0,0-.44.37,1.62,1.62,0,0,0-.27.31v4.18h2.72v1Z"/><path class="a526c184-333b-4bf9-a85c-55c24ec3433c" d="M58.79,35.06a4.77,4.77,0,0,0-.7-.19,3.19,3.19,0,0,0-.75-.08,2.94,2.94,0,0,0-2.07.65,2.8,2.8,0,0,0-.68,2.08,3,3,0,0,0,.2,1.11,2.24,2.24,0,0,0,.57.84,2.57,2.57,0,0,0,.88.52,3.27,3.27,0,0,0,1.15.19A3.81,3.81,0,0,0,58.68,40a3.39,3.39,0,0,0,1.06-.61l.5.82a4.68,4.68,0,0,1-.5.36,4.44,4.44,0,0,1-.69.34,5.1,5.1,0,0,1-.86.27,5.54,5.54,0,0,1-1,.1A4.43,4.43,0,0,1,55.54,41a3,3,0,0,1-1.17-.75A3.09,3.09,0,0,1,53.66,39a4.63,4.63,0,0,1-.24-1.53,4.87,4.87,0,0,1,.24-1.59,3.17,3.17,0,0,1,.72-1.16A3.22,3.22,0,0,1,55.51,34,4.43,4.43,0,0,1,57,33.79a6.62,6.62,0,0,1,1.71.19,6.49,6.49,0,0,1,1.12.41l0,0v2h-1Z"/><path class="a526c184-333b-4bf9-a85c-55c24ec3433c" d="M62.76,31.13h2.37v7.54a2,2,0,0,0,.29,1.22,1,1,0,0,0,.86.36,2.18,2.18,0,0,0,.76-.14,3.45,3.45,0,0,0,.8-.49l.51.78a3,3,0,0,1-.5.36,3.94,3.94,0,0,1-.55.26,3,3,0,0,1-.57.16,2.61,2.61,0,0,1-.53.06,3.05,3.05,0,0,1-.94-.13,1.67,1.67,0,0,1-.69-.44,2.07,2.07,0,0,1-.42-.78A4.65,4.65,0,0,1,64,38.67V32.08H62.76Z"/><path class="a526c184-333b-4bf9-a85c-55c24ec3433c" d="M77.09,40.16a3.28,3.28,0,0,1-.61.43,5.16,5.16,0,0,1-.75.34,6,6,0,0,1-.86.22,5.47,5.47,0,0,1-.9.08A4,4,0,0,1,72.46,41a2.8,2.8,0,0,1-1.09-.75A3.35,3.35,0,0,1,70.7,39a4.83,4.83,0,0,1-.22-1.53,4.62,4.62,0,0,1,.25-1.59,3,3,0,0,1,.71-1.16A3.17,3.17,0,0,1,72.58,34a4.35,4.35,0,0,1,1.49-.25,4.65,4.65,0,0,1,1.17.16,2.28,2.28,0,0,1,1,.59A2.76,2.76,0,0,1,77,35.73a5.53,5.53,0,0,1,.17,2H71.65a2.44,2.44,0,0,0,.69,1.9,2.61,2.61,0,0,0,1.83.63,3.22,3.22,0,0,0,.76-.09,4.91,4.91,0,0,0,.71-.22,3.85,3.85,0,0,0,.61-.28,3.24,3.24,0,0,0,.4-.29Zm-3-5.43a3.6,3.6,0,0,0-.88.1,2.17,2.17,0,0,0-.74.33,1.94,1.94,0,0,0-.52.61,2.26,2.26,0,0,0-.26.93h4.39a2.11,2.11,0,0,0-.6-1.45A1.87,1.87,0,0,0,74.1,34.73Z"/><path class="bc656ea4-99cf-4dfc-926c-6363d5a2e1d0" d="M92.83,35.06a4.77,4.77,0,0,0-.7-.19,3.19,3.19,0,0,0-.75-.08,2.94,2.94,0,0,0-2.07.65,2.8,2.8,0,0,0-.68,2.08,3,3,0,0,0,.2,1.11,2.24,2.24,0,0,0,.57.84,2.57,2.57,0,0,0,.88.52,3.27,3.27,0,0,0,1.15.19A3.81,3.81,0,0,0,92.72,40a3.28,3.28,0,0,0,1.06-.61l.5.82a3.84,3.84,0,0,1-.5.36,4.44,4.44,0,0,1-.69.34,5.1,5.1,0,0,1-.86.27,5.54,5.54,0,0,1-1,.1A4.43,4.43,0,0,1,89.58,41a3,3,0,0,1-1.17-.75A3.09,3.09,0,0,1,87.7,39a4.63,4.63,0,0,1-.24-1.53,4.87,4.87,0,0,1,.24-1.59,3.17,3.17,0,0,1,.72-1.16A3.22,3.22,0,0,1,89.55,34,4.43,4.43,0,0,1,91,33.79a6.62,6.62,0,0,1,1.71.19,6.49,6.49,0,0,1,1.12.41l0,0v2h-1Z"/><path class="bc656ea4-99cf-4dfc-926c-6363d5a2e1d0" d="M98.7,37.43,96,34h1.41l2.05,2.67,2.1-2.67h1.27l-2.74,3.41L103,41.06h-1.36l-2.26-2.91-2.29,2.91H95.77Z"/><path d="M104.59,34.57h6.58v1h-6.58Zm0,2.33h6.58v1h-6.58Z"/><path class="a38889e4-8a3d-44ed-b2d3-b2f2bfbcbf66" d="M114.3,31.13h1.24l-.44,4.3h-.8Zm2.93,0h1.23l-.43,4.3h-.8Z"/><path class="a38889e4-8a3d-44ed-b2d3-b2f2bfbcbf66" d="M122.45,40h2.22V32.57l-2.27,1.59-.55-.81L125,31.13h.79V40H128v1h-5.5Z"/><path class="a38889e4-8a3d-44ed-b2d3-b2f2bfbcbf66" d="M129.93,36.09a10.11,10.11,0,0,1,.22-2.16,4.77,4.77,0,0,1,.64-1.62,2.9,2.9,0,0,1,1.08-1,3.25,3.25,0,0,1,1.55-.34,3.45,3.45,0,0,1,1.61.34,2.75,2.75,0,0,1,1.07,1,4.5,4.5,0,0,1,.6,1.61,12,12,0,0,1,.18,2.19,10.17,10.17,0,0,1-.21,2.17,4.8,4.8,0,0,1-.64,1.61,2.82,2.82,0,0,1-1.08,1,3.25,3.25,0,0,1-1.55.35,3.21,3.21,0,0,1-1.6-.38,3,3,0,0,1-1.08-1.06,4.71,4.71,0,0,1-.6-1.62A11.08,11.08,0,0,1,129.93,36.09Zm1.18,0c0,.24,0,.47,0,.68s0,.43.05.64l4.23-3.83a2.77,2.77,0,0,0-.72-1.22,1.77,1.77,0,0,0-1.28-.45,1.83,1.83,0,0,0-1.78,1A7.27,7.27,0,0,0,131.11,36.09Zm4.6,0a10.86,10.86,0,0,0-.09-1.43l-4.21,3.84a3,3,0,0,0,.72,1.29,1.68,1.68,0,0,0,1.27.49,1.86,1.86,0,0,0,1.78-1A7.24,7.24,0,0,0,135.71,36.09Z"/><path class="a38889e4-8a3d-44ed-b2d3-b2f2bfbcbf66" d="M138.44,36.09a10.11,10.11,0,0,1,.22-2.16,4.77,4.77,0,0,1,.64-1.62,2.9,2.9,0,0,1,1.08-1,3.25,3.25,0,0,1,1.55-.34,3.45,3.45,0,0,1,1.61.34,2.75,2.75,0,0,1,1.07,1,4.5,4.5,0,0,1,.6,1.61,12,12,0,0,1,.18,2.19,10.17,10.17,0,0,1-.21,2.17,4.8,4.8,0,0,1-.64,1.61,2.82,2.82,0,0,1-1.08,1,3.25,3.25,0,0,1-1.55.35,3.21,3.21,0,0,1-1.6-.38,3,3,0,0,1-1.08-1.06,4.71,4.71,0,0,1-.6-1.62A11.08,11.08,0,0,1,138.44,36.09Zm1.18,0c0,.24,0,.47,0,.68s0,.43.05.64l4.23-3.83a2.77,2.77,0,0,0-.72-1.22,1.77,1.77,0,0,0-1.28-.45,1.83,1.83,0,0,0-1.78,1A7.27,7.27,0,0,0,139.62,36.09Zm4.6,0a10.86,10.86,0,0,0-.09-1.43l-4.21,3.84a3,3,0,0,0,.72,1.29,1.7,1.7,0,0,0,1.27.49,1.86,1.86,0,0,0,1.78-1A7.24,7.24,0,0,0,144.22,36.09Z"/><path class="a38889e4-8a3d-44ed-b2d3-b2f2bfbcbf66" d="M148.34,31.13h1.24l-.44,4.3h-.8Zm2.93,0h1.23l-.43,4.3h-.8Z"/><path class="bc656ea4-99cf-4dfc-926c-6363d5a2e1d0" d="M169.42,35.06a4.77,4.77,0,0,0-.7-.19,3.19,3.19,0,0,0-.75-.08,2.94,2.94,0,0,0-2.07.65,2.8,2.8,0,0,0-.68,2.08,3,3,0,0,0,.2,1.11,2.24,2.24,0,0,0,.57.84,2.52,2.52,0,0,0,.89.52,3.17,3.17,0,0,0,1.14.19,3.81,3.81,0,0,0,1.29-.23,3.28,3.28,0,0,0,1.06-.61l.5.82a3.84,3.84,0,0,1-.5.36,4.44,4.44,0,0,1-.69.34,4.83,4.83,0,0,1-.86.27,5.54,5.54,0,0,1-1,.1,4.47,4.47,0,0,1-1.62-.27,3,3,0,0,1-1.17-.75,3.09,3.09,0,0,1-.71-1.17,4.63,4.63,0,0,1-.24-1.53,4.87,4.87,0,0,1,.24-1.59A3,3,0,0,1,166.15,34a4.33,4.33,0,0,1,1.48-.25,6.62,6.62,0,0,1,1.71.19,6.49,6.49,0,0,1,1.12.41l0,0v2h-1Z"/><path class="bc656ea4-99cf-4dfc-926c-6363d5a2e1d0" d="M176.12,40h.53l1.76-6h1.15l-2,6.37c-.1.33-.21.71-.32,1.13a5.08,5.08,0,0,1-.46,1.18,2.82,2.82,0,0,1-.81.94,2.12,2.12,0,0,1-1.33.38,1.84,1.84,0,0,1-.39,0l-.41-.1-.36-.15a1.3,1.3,0,0,1-.26-.17l.4-1a.91.91,0,0,0,.23.15l.33.12.35.08a1,1,0,0,0,.28,0c.71,0,1.19-.6,1.45-1.8h-.95l-3-7.1h1.27Z"/><path d="M181.18,34.57h6.58v1h-6.58Zm0,2.33h6.58v1h-6.58Z"/><path class="a38889e4-8a3d-44ed-b2d3-b2f2bfbcbf66" d="M190.89,31.13h1.24l-.44,4.3h-.8Zm2.93,0h1.23l-.43,4.3h-.8Z"/><path class="a38889e4-8a3d-44ed-b2d3-b2f2bfbcbf66" d="M199,40h2.22V32.57L199,34.16l-.55-.81,3.12-2.22h.79V40h2.19v1H199Z"/><path class="a38889e4-8a3d-44ed-b2d3-b2f2bfbcbf66" d="M206.52,36.09a10.11,10.11,0,0,1,.22-2.16,4.77,4.77,0,0,1,.64-1.62,2.9,2.9,0,0,1,1.08-1A3.25,3.25,0,0,1,210,31a3.45,3.45,0,0,1,1.61.34,2.75,2.75,0,0,1,1.07,1,4.5,4.5,0,0,1,.6,1.61,12,12,0,0,1,.18,2.19,10.17,10.17,0,0,1-.21,2.17,4.8,4.8,0,0,1-.64,1.61,2.82,2.82,0,0,1-1.08,1,3.25,3.25,0,0,1-1.55.35,3.21,3.21,0,0,1-1.6-.38,3,3,0,0,1-1.08-1.06,4.71,4.71,0,0,1-.6-1.62A11.08,11.08,0,0,1,206.52,36.09Zm1.18,0c0,.24,0,.47,0,.68s0,.43.05.64L212,33.58a2.77,2.77,0,0,0-.72-1.22,1.77,1.77,0,0,0-1.28-.45,1.83,1.83,0,0,0-1.78,1A7.27,7.27,0,0,0,207.7,36.09Zm4.6,0a10.86,10.86,0,0,0-.09-1.43L208,38.5a3,3,0,0,0,.72,1.29,1.7,1.7,0,0,0,1.27.49,1.86,1.86,0,0,0,1.78-1A7.24,7.24,0,0,0,212.3,36.09Z"/><path class="a38889e4-8a3d-44ed-b2d3-b2f2bfbcbf66" d="M215,36.09a10.14,10.14,0,0,1,.21-2.16,4.77,4.77,0,0,1,.64-1.62,2.9,2.9,0,0,1,1.08-1,3.25,3.25,0,0,1,1.55-.34,3.45,3.45,0,0,1,1.61.34,2.75,2.75,0,0,1,1.07,1,4.5,4.5,0,0,1,.6,1.61,12,12,0,0,1,.18,2.19,10.17,10.17,0,0,1-.21,2.17,4.8,4.8,0,0,1-.64,1.61,2.82,2.82,0,0,1-1.08,1,3.25,3.25,0,0,1-1.55.35,3.21,3.21,0,0,1-1.6-.38,3,3,0,0,1-1.08-1.06,4.71,4.71,0,0,1-.6-1.62A11.12,11.12,0,0,1,215,36.09Zm1.17,0c0,.24,0,.47,0,.68s0,.43.05.64l4.23-3.83a2.77,2.77,0,0,0-.72-1.22,1.77,1.77,0,0,0-1.28-.45,1.84,1.84,0,0,0-1.78,1A7.27,7.27,0,0,0,216.21,36.09Zm4.6,0a10.86,10.86,0,0,0-.09-1.43l-4.21,3.84a3,3,0,0,0,.72,1.29,1.7,1.7,0,0,0,1.27.49,1.86,1.86,0,0,0,1.78-1A7.24,7.24,0,0,0,220.81,36.09Z"/><path class="a38889e4-8a3d-44ed-b2d3-b2f2bfbcbf66" d="M224.94,31.13h1.23l-.44,4.3h-.79Zm2.92,0h1.23l-.43,4.3h-.8Z"/><path class="bc656ea4-99cf-4dfc-926c-6363d5a2e1d0" d="M240.72,41.06v-1h1.92v-5.2h-1.92V34h2.65l.23.93h.07a4.53,4.53,0,0,1,1.08-.75,3,3,0,0,1,1.42-.32,1.35,1.35,0,0,1,.77.19,1.15,1.15,0,0,1,.45.54,2.52,2.52,0,0,1,.22.85,9.88,9.88,0,0,1,.06,1.15h-1a3.58,3.58,0,0,0-.18-1.32.65.65,0,0,0-.65-.42,2.47,2.47,0,0,0-.79.12,3,3,0,0,0-.62.31,4.48,4.48,0,0,0-.44.37,1.62,1.62,0,0,0-.27.31v4.18h2.72v1Z"/><path d="M249.26,34.57h6.58v1h-6.58Zm0,2.33h6.58v1h-6.58Z"/><path class="a38889e4-8a3d-44ed-b2d3-b2f2bfbcbf66" d="M259,31.13h1.23l-.44,4.3H259Zm2.92,0h1.23l-.43,4.3h-.8Z"/><path class="a38889e4-8a3d-44ed-b2d3-b2f2bfbcbf66" d="M269,40.23a3.44,3.44,0,0,0,1-.13,2.1,2.1,0,0,0,.77-.41,2,2,0,0,0,.5-.69,2.38,2.38,0,0,0,.18-1,1.81,1.81,0,0,0-.74-1.56,3.33,3.33,0,0,0-2-.53l-1.33.07V31.13h4.88v1h-3.82V35l.71,0a3.77,3.77,0,0,1,2.5.77,2.7,2.7,0,0,1,.91,2.18,3.39,3.39,0,0,1-.28,1.4,3,3,0,0,1-.76,1,3.21,3.21,0,0,1-1.15.63,4.44,4.44,0,0,1-1.44.22,4.28,4.28,0,0,1-.81-.07,5.68,5.68,0,0,1-.7-.15,3.65,3.65,0,0,1-.54-.2,1.86,1.86,0,0,1-.34-.19l.46-.93a5.7,5.7,0,0,0,.73.35A3.54,3.54,0,0,0,269,40.23Z"/><path class="a38889e4-8a3d-44ed-b2d3-b2f2bfbcbf66" d="M274.6,36.09a10.11,10.11,0,0,1,.22-2.16,4.77,4.77,0,0,1,.64-1.62,2.9,2.9,0,0,1,1.08-1,3.25,3.25,0,0,1,1.55-.34,3.45,3.45,0,0,1,1.61.34,2.75,2.75,0,0,1,1.07,1,4.5,4.5,0,0,1,.6,1.61,11.91,11.91,0,0,1,.19,2.19,10.14,10.14,0,0,1-.22,2.17,4.8,4.8,0,0,1-.64,1.61,2.82,2.82,0,0,1-1.08,1,3.25,3.25,0,0,1-1.55.35,3.21,3.21,0,0,1-1.6-.38,3,3,0,0,1-1.08-1.06,4.71,4.71,0,0,1-.6-1.62A11.08,11.08,0,0,1,274.6,36.09Zm1.18,0c0,.24,0,.47,0,.68s0,.43.05.64l4.23-3.83a2.77,2.77,0,0,0-.72-1.22,1.77,1.77,0,0,0-1.28-.45,1.84,1.84,0,0,0-1.78,1A7.27,7.27,0,0,0,275.78,36.09Zm4.6,0a10.86,10.86,0,0,0-.09-1.43l-4.21,3.84a3,3,0,0,0,.72,1.29,1.7,1.7,0,0,0,1.27.49,1.86,1.86,0,0,0,1.78-1A7.24,7.24,0,0,0,280.38,36.09Z"/><path class="a38889e4-8a3d-44ed-b2d3-b2f2bfbcbf66" d="M284.51,31.13h1.23l-.43,4.3h-.8Zm2.92,0h1.23l-.43,4.3h-.8Z"/><path class="b0068f63-ab70-4f8e-af61-8c87ca94eab5" d="M292,40.57l-.54-.85,5.65-3.27-5.63-3.34.54-.88,6.68,4.08v.41Z"/><path class="b0068f63-ab70-4f8e-af61-8c87ca94eab5" d="M302.66,40.28a.91.91,0,0,1,.26-.71.94.94,0,0,1,.68-.24,1,1,0,0,1,.71.24,1.09,1.09,0,0,1,0,1.39.93.93,0,0,1-.71.27.88.88,0,0,1-.68-.27A.92.92,0,0,1,302.66,40.28Z"/><path class="b0068f63-ab70-4f8e-af61-8c87ca94eab5" d="M311.17,40.28a1,1,0,0,1,.26-.71.94.94,0,0,1,.68-.24,1,1,0,0,1,.71.24,1.09,1.09,0,0,1,0,1.39.93.93,0,0,1-.71.27.88.88,0,0,1-.68-.27A1,1,0,0,1,311.17,40.28Z"/><path class="b0068f63-ab70-4f8e-af61-8c87ca94eab5" d="M319.68,40.28a1,1,0,0,1,.26-.71.94.94,0,0,1,.68-.24,1,1,0,0,1,.71.24,1.09,1.09,0,0,1,0,1.39.93.93,0,0,1-.71.27.88.88,0,0,1-.68-.27A1,1,0,0,1,319.68,40.28Z"/><path class="b0068f63-ab70-4f8e-af61-8c87ca94eab5" d="M325.52,36.72v-.41l6.68-4.08.54.88-5.63,3.34,5.65,3.27-.54.85Z"/><path class="b0068f63-ab70-4f8e-af61-8c87ca94eab5" d="M339.79,31l.9.39L335.51,43l-.9-.4Z"/><path class="a526c184-333b-4bf9-a85c-55c24ec3433c" d="M348.13,35.06a4.77,4.77,0,0,0-.7-.19,3.16,3.16,0,0,0-.74-.08,3,3,0,0,0-2.08.65,2.8,2.8,0,0,0-.68,2.08,3,3,0,0,0,.2,1.11,2.36,2.36,0,0,0,.57.84,2.61,2.61,0,0,0,.89.52,3.17,3.17,0,0,0,1.14.19A3.92,3.92,0,0,0,348,40a3.34,3.34,0,0,0,1.05-.61l.5.82a3.84,3.84,0,0,1-.5.36,4.79,4.79,0,0,1-.68.34,5.22,5.22,0,0,1-.87.27,5.54,5.54,0,0,1-1,.1,4.51,4.51,0,0,1-1.62-.27,3,3,0,0,1-1.17-.75A3.23,3.23,0,0,1,343,39a5.09,5.09,0,0,1,0-3.12,3,3,0,0,1,.71-1.16,3.17,3.17,0,0,1,1.14-.72,4.35,4.35,0,0,1,1.49-.25,6.59,6.59,0,0,1,1.7.19,6.49,6.49,0,0,1,1.12.41l0,0v2h-1Z"/><path class="a526c184-333b-4bf9-a85c-55c24ec3433c" d="M351.9,41.06v-1h2.47v-5.2H351.9V34h3.59v6.15h2.41v1ZM354,32a1,1,0,0,1,.25-.66.87.87,0,0,1,.65-.28.94.94,0,0,1,.69.28.9.9,0,0,1,.28.66.79.79,0,0,1-.28.62,1,1,0,0,1-.69.26.89.89,0,0,1-.65-.26A.83.83,0,0,1,354,32Z"/><path class="a526c184-333b-4bf9-a85c-55c24ec3433c" d="M359.86,41.06v-1h1.92v-5.2h-1.92V34h2.65l.23.93h.07a4.53,4.53,0,0,1,1.08-.75,3,3,0,0,1,1.42-.32,1.35,1.35,0,0,1,.77.19,1.15,1.15,0,0,1,.45.54,2.52,2.52,0,0,1,.22.85,9.88,9.88,0,0,1,.06,1.15h-1a3.58,3.58,0,0,0-.18-1.32.64.64,0,0,0-.64-.42,2.49,2.49,0,0,0-.8.12,3.26,3.26,0,0,0-.62.31,4.48,4.48,0,0,0-.44.37,2.92,2.92,0,0,0-.27.31v4.18h2.72v1Z"/><path class="a526c184-333b-4bf9-a85c-55c24ec3433c" d="M373.66,35.06a4.77,4.77,0,0,0-.7-.19,3.16,3.16,0,0,0-.74-.08,2.9,2.9,0,0,0-2.07.65,2.76,2.76,0,0,0-.69,2.08,3,3,0,0,0,.2,1.11,2.36,2.36,0,0,0,.57.84,2.61,2.61,0,0,0,.89.52,3.17,3.17,0,0,0,1.14.19,3.87,3.87,0,0,0,1.3-.23,3.34,3.34,0,0,0,1.05-.61l.5.82a3.84,3.84,0,0,1-.5.36,4.31,4.31,0,0,1-.68.34,5.22,5.22,0,0,1-.87.27,5.54,5.54,0,0,1-1,.1,4.51,4.51,0,0,1-1.62-.27,3,3,0,0,1-1.17-.75,3.23,3.23,0,0,1-.71-1.17,5.09,5.09,0,0,1,0-3.12,3,3,0,0,1,.71-1.16,3.17,3.17,0,0,1,1.14-.72,4.35,4.35,0,0,1,1.49-.25,6.54,6.54,0,0,1,1.7.19,6.19,6.19,0,0,1,1.12.41l0,0v2h-1Z"/><path class="a526c184-333b-4bf9-a85c-55c24ec3433c" d="M377.63,31.13H380v7.54a2,2,0,0,0,.29,1.22,1,1,0,0,0,.86.36,2.14,2.14,0,0,0,.76-.14,3.45,3.45,0,0,0,.8-.49l.51.78a3,3,0,0,1-.5.36,3.94,3.94,0,0,1-.55.26,3,3,0,0,1-.57.16,2.61,2.61,0,0,1-.53.06,3.05,3.05,0,0,1-.94-.13,1.67,1.67,0,0,1-.69-.44,2.07,2.07,0,0,1-.42-.78,4.65,4.65,0,0,1-.14-1.22V32.08h-1.25Z"/><path class="a526c184-333b-4bf9-a85c-55c24ec3433c" d="M392,40.16a3.55,3.55,0,0,1-.6.43,5.84,5.84,0,0,1-.76.34,6,6,0,0,1-.86.22,5.47,5.47,0,0,1-.9.08,4,4,0,0,1-1.51-.27,2.88,2.88,0,0,1-1.09-.75,3.19,3.19,0,0,1-.66-1.17,4.56,4.56,0,0,1-.23-1.53,4.62,4.62,0,0,1,.25-1.59,3,3,0,0,1,.71-1.16,3.26,3.26,0,0,1,1.14-.72,4.35,4.35,0,0,1,1.49-.25,4.65,4.65,0,0,1,1.17.16,2.23,2.23,0,0,1,1,.59,2.76,2.76,0,0,1,.69,1.19,5.53,5.53,0,0,1,.17,2h-5.47a2.47,2.47,0,0,0,.68,1.9,2.61,2.61,0,0,0,1.83.63,3.22,3.22,0,0,0,.76-.09,5.48,5.48,0,0,0,.72-.22,4.17,4.17,0,0,0,.6-.28,2.62,2.62,0,0,0,.4-.29Zm-3-5.43a3.6,3.6,0,0,0-.88.1,2.26,2.26,0,0,0-.74.33,1.94,1.94,0,0,0-.52.61,2.43,2.43,0,0,0-.26.93H391a2.16,2.16,0,0,0-.61-1.45A1.87,1.87,0,0,0,389,34.73Z"/><path class="b0068f63-ab70-4f8e-af61-8c87ca94eab5" d="M394.14,40.57l-.54-.85,5.65-3.27-5.63-3.34.54-.88,6.68,4.08v.41Z"/><path class="b341ff71-97d1-4b38-ada3-bf4931865b77" d="M72.5,47.09a1.35,1.35,0,0,1,.28,0s0,.07,0,.15v.38l-.15.29A6.6,6.6,0,0,1,72,49.09a5.77,5.77,0,0,1-3.3,2.3,4.82,4.82,0,0,1-.66.13c-.11,0-2.68,0-6.43,0l-4.17,0a7.88,7.88,0,0,0-.93.08,5.86,5.86,0,0,0-2.3.9,5.62,5.62,0,0,0-1.69,1.71l-.06.08s0,.05,0,.06l-.05,0h-.46l0,0,0,0-.06-.09A5.55,5.55,0,0,0,50,52.54a5.76,5.76,0,0,0-2.29-.9,7.88,7.88,0,0,0-.93-.08l-4.15,0c-3.77,0-6.34,0-6.46,0a5,5,0,0,1-.65-.13,5.48,5.48,0,0,1-2.72-1.62,7.36,7.36,0,0,1-1.31-1.84l-.14-.29v-.21a.71.71,0,0,1,0-.3s.13,0,.29,0a.92.92,0,0,1,.23,0,.29.29,0,0,1,.11.11,4.87,4.87,0,0,0,1,1.27,5.41,5.41,0,0,0,3.29,1.45c.09,0,2.6,0,6.26,0h4.45a5.68,5.68,0,0,1,3.23,1.36,6.75,6.75,0,0,1,.85.85,7.7,7.7,0,0,1,.94,1.42,6.64,6.64,0,0,1,.95-1.42,6.75,6.75,0,0,1,.85-.85A5.68,5.68,0,0,1,57.13,50h4.45c3.66,0,6.17,0,6.25,0a5.13,5.13,0,0,0,2.54-.85,5.8,5.8,0,0,0,1.79-1.87c0-.07.07-.11.1-.12Z"/><path class="b341ff71-97d1-4b38-ada3-bf4931865b77" d="M398,47.72a1.21,1.21,0,0,1,.28,0s.05.07.05.15v.39l-.14.28a7.54,7.54,0,0,1-.72,1.16A5.76,5.76,0,0,1,394.2,52a3.73,3.73,0,0,1-.65.13c-.12,0-16.6,0-20.35,0l-4.16,0a5.23,5.23,0,0,0-.94.08,5.8,5.8,0,0,0-2.29.89,5.47,5.47,0,0,0-1.7,1.72l-.06.07,0,.06,0,0-.09,0h-.3l-.08,0,0,0,0-.05-.07-.08a5.44,5.44,0,0,0-1.69-1.72,5.86,5.86,0,0,0-2.29-.89,5.32,5.32,0,0,0-.94-.08l-4.15,0c-3.76,0-20.25,0-20.36,0a3.55,3.55,0,0,1-.65-.13,5.43,5.43,0,0,1-2.73-1.62,7.33,7.33,0,0,1-1.3-1.84l-.14-.28v-.22c0-.17,0-.27,0-.29a.47.47,0,0,1,.28-.05,1,1,0,0,1,.24,0,.37.37,0,0,1,.1.11,5.13,5.13,0,0,0,1,1.28,5.34,5.34,0,0,0,3.29,1.44l20.16,0h4.45A5.68,5.68,0,0,1,361.94,52a6.93,6.93,0,0,1,.85.86,7.66,7.66,0,0,1,.94,1.41,7,7,0,0,1,.95-1.41,7.7,7.7,0,0,1,.85-.86,5.68,5.68,0,0,1,3.24-1.36h4.45l20.16,0a5.09,5.09,0,0,0,2.53-.85,5.7,5.7,0,0,0,1.79-1.87c0-.07.07-.1.1-.11A1,1,0,0,1,398,47.72Z"/><path class="b341ff71-97d1-4b38-ada3-bf4931865b77" d="M282.94,48.09a1.35,1.35,0,0,1,.28,0s0,.07,0,.15v.38l-.14.29a7.31,7.31,0,0,1-.73,1.16,5.77,5.77,0,0,1-3.3,2.3,4.82,4.82,0,0,1-.66.13l-81.44,0-5.35,0a7.88,7.88,0,0,0-.93.08,5.76,5.76,0,0,0-2.29.9,5.55,5.55,0,0,0-1.7,1.71l-.06.08s0,.05,0,.06l0,0h-.46l0,0,0,0-.06-.09a5.55,5.55,0,0,0-1.7-1.71,5.76,5.76,0,0,0-2.29-.9,7.88,7.88,0,0,0-.93-.08l-81,0c-3.76,0-5.7,0-5.81,0a4.82,4.82,0,0,1-.66-.13,5.52,5.52,0,0,1-2.72-1.62,7.33,7.33,0,0,1-1.3-1.84l-.14-.29v-.21c0-.17,0-.27,0-.3s.12,0,.28,0a.92.92,0,0,1,.23,0,.29.29,0,0,1,.11.11,4.91,4.91,0,0,0,1,1.27,5.36,5.36,0,0,0,3.29,1.45c.08,0,2,0,5.61,0h81.28a5.68,5.68,0,0,1,3.23,1.36,6.75,6.75,0,0,1,.85.85,7.7,7.7,0,0,1,.94,1.42,7,7,0,0,1,1-1.42,6.75,6.75,0,0,1,.85-.85A5.68,5.68,0,0,1,191.38,51H197l81.26,0a5.13,5.13,0,0,0,2.54-.85,5.8,5.8,0,0,0,1.79-1.87c0-.07.07-.11.1-.12Z"/><path class="b341ff71-97d1-4b38-ada3-bf4931865b77" d="M20.21,69.13V68h8.1v1.13H24.94v9H23.59v-9Z"/><path class="b341ff71-97d1-4b38-ada3-bf4931865b77" d="M34.16,78.1a1.76,1.76,0,0,1-.87.18,1,1,0,0,1-.74-.26,1.13,1.13,0,0,1-.28-.86,2.91,2.91,0,0,1-1.16.86,3.9,3.9,0,0,1-1.42.26,4.19,4.19,0,0,1-1-.11,2.38,2.38,0,0,1-.77-.36,1.7,1.7,0,0,1-.52-.63,2.22,2.22,0,0,1-.19-.94,2.15,2.15,0,0,1,.21-1,1.89,1.89,0,0,1,.57-.65,2.5,2.5,0,0,1,.79-.37,9.28,9.28,0,0,1,.91-.22l1-.15a4.78,4.78,0,0,0,.78-.14,1.25,1.25,0,0,0,.54-.27.63.63,0,0,0,.2-.51,1.19,1.19,0,0,0-.15-.64,1,1,0,0,0-.38-.37,1.52,1.52,0,0,0-.52-.17,3.86,3.86,0,0,0-.58,0A2.53,2.53,0,0,0,29.3,72a1.23,1.23,0,0,0-.55,1.1h-1.2a2.47,2.47,0,0,1,.28-1.15,2.09,2.09,0,0,1,.68-.76,2.83,2.83,0,0,1,1-.42,4.94,4.94,0,0,1,1.17-.13,8.24,8.24,0,0,1,1,.07,2.76,2.76,0,0,1,.88.29,1.66,1.66,0,0,1,.64.62,2,2,0,0,1,.24,1V76.4a3,3,0,0,0,.05.62c0,.13.15.2.34.2a1.48,1.48,0,0,0,.37-.06Zm-2-3.76a1.67,1.67,0,0,1-.6.25c-.24,0-.5.09-.77.12l-.82.12a3,3,0,0,0-.73.2,1.37,1.37,0,0,0-.54.4,1.17,1.17,0,0,0-.2.71,1,1,0,0,0,.12.51A1.08,1.08,0,0,0,29,77a1.51,1.51,0,0,0,.45.18,2.35,2.35,0,0,0,.54.06,2.87,2.87,0,0,0,1-.17,2.09,2.09,0,0,0,.69-.4,1.65,1.65,0,0,0,.4-.54,1.25,1.25,0,0,0,.13-.54Z"/><path class="b341ff71-97d1-4b38-ada3-bf4931865b77" d="M40.78,80.2a3.37,3.37,0,0,1-2.58.89,5.33,5.33,0,0,1-1-.11,3.31,3.31,0,0,1-1-.37,2.2,2.2,0,0,1-.72-.67,2,2,0,0,1-.31-1h1.21a1,1,0,0,0,.2.56,1.71,1.71,0,0,0,.47.37,2.49,2.49,0,0,0,.6.2,3.57,3.57,0,0,0,.63.07,2.22,2.22,0,0,0,1-.21,2,2,0,0,0,.68-.57,2.31,2.31,0,0,0,.39-.87,4.87,4.87,0,0,0,.12-1.12v-.48h0a2.08,2.08,0,0,1-.94,1,3,3,0,0,1-1.34.32,3.25,3.25,0,0,1-1.44-.3,3.21,3.21,0,0,1-1-.8,3.59,3.59,0,0,1-.62-1.18,5.09,5.09,0,0,1-.2-1.43,5.79,5.79,0,0,1,.17-1.34,3.51,3.51,0,0,1,.57-1.24A3,3,0,0,1,36.67,71a3.26,3.26,0,0,1,1.6-.36,2.66,2.66,0,0,1,1.28.31,2.14,2.14,0,0,1,.9.91h0v-1H41.6V77.5A3.88,3.88,0,0,1,40.78,80.2Zm-1.54-3.3a2,2,0,0,0,.67-.65,3,3,0,0,0,.38-.92,4.44,4.44,0,0,0,.12-1,4.33,4.33,0,0,0-.11-1,2.88,2.88,0,0,0-.36-.84,1.89,1.89,0,0,0-.65-.61,2,2,0,0,0-1-.22,2.08,2.08,0,0,0-1,.22,1.88,1.88,0,0,0-.67.58,2.43,2.43,0,0,0-.38.85,4.23,4.23,0,0,0-.12,1,5.52,5.52,0,0,0,.09,1,2.7,2.7,0,0,0,.35.91,2,2,0,0,0,.63.65,1.92,1.92,0,0,0,1,.25A2,2,0,0,0,39.24,76.9Z"/><path class="b341ff71-97d1-4b38-ada3-bf4931865b77" d="M49,68l5.33,8.21h0V68h1.27V78.13H54.14L48.85,70h0v8.13H47.54V68Z"/><path class="b341ff71-97d1-4b38-ada3-bf4931865b77" d="M64.1,78.1a1.76,1.76,0,0,1-.87.18,1,1,0,0,1-.74-.26,1.13,1.13,0,0,1-.28-.86,2.91,2.91,0,0,1-1.16.86,3.9,3.9,0,0,1-1.42.26,4,4,0,0,1-.94-.11,2.33,2.33,0,0,1-.78-.36,1.58,1.58,0,0,1-.51-.63,2.07,2.07,0,0,1-.2-.94,2,2,0,0,1,.22-1,1.77,1.77,0,0,1,.56-.65,2.5,2.5,0,0,1,.79-.37,8.82,8.82,0,0,1,.92-.22l.94-.15a5.13,5.13,0,0,0,.79-.14,1.37,1.37,0,0,0,.54-.27.66.66,0,0,0,.19-.51,1.19,1.19,0,0,0-.15-.64.9.9,0,0,0-.38-.37,1.45,1.45,0,0,0-.52-.17,3.86,3.86,0,0,0-.58,0,2.46,2.46,0,0,0-1.27.29,1.24,1.24,0,0,0-.56,1.1h-1.2a2.6,2.6,0,0,1,.28-1.15,2.09,2.09,0,0,1,.68-.76,2.92,2.92,0,0,1,1-.42,4.94,4.94,0,0,1,1.17-.13,8.24,8.24,0,0,1,1,.07,2.82,2.82,0,0,1,.89.29,1.7,1.7,0,0,1,.63.62,2,2,0,0,1,.25,1V76.4a3.15,3.15,0,0,0,0,.62c0,.13.15.2.34.2a1.41,1.41,0,0,0,.37-.06Zm-2-3.76a1.67,1.67,0,0,1-.6.25c-.24,0-.5.09-.77.12l-.81.12a3.07,3.07,0,0,0-.74.2,1.27,1.27,0,0,0-.53.4,1.11,1.11,0,0,0-.21.71,1,1,0,0,0,.12.51,1.22,1.22,0,0,0,.31.33,1.51,1.51,0,0,0,.45.18,2.35,2.35,0,0,0,.54.06,2.79,2.79,0,0,0,1-.17,2,2,0,0,0,.69-.4,1.65,1.65,0,0,0,.4-.54,1.25,1.25,0,0,0,.13-.54Z"/><path class="b341ff71-97d1-4b38-ada3-bf4931865b77" d="M66.35,70.79v1.08h0a2.84,2.84,0,0,1,3.6-1,1.56,1.56,0,0,1,.78,1,2.59,2.59,0,0,1,1-.92,2.76,2.76,0,0,1,1.33-.33,3.86,3.86,0,0,1,1,.12,2.14,2.14,0,0,1,.77.38,1.73,1.73,0,0,1,.49.66,2.37,2.37,0,0,1,.18,1v5.38H74.29V73.32a3.26,3.26,0,0,0-.05-.64,1.28,1.28,0,0,0-.22-.52,1,1,0,0,0-.43-.35,1.78,1.78,0,0,0-.71-.12,1.91,1.91,0,0,0-1.41.51A1.83,1.83,0,0,0,71,73.56v4.57h-1.2V73.32a3.34,3.34,0,0,0-.07-.66,1.24,1.24,0,0,0-.22-.51,1,1,0,0,0-.42-.34,1.61,1.61,0,0,0-.67-.12,1.81,1.81,0,0,0-.9.21,2,2,0,0,0-.61.51,1.9,1.9,0,0,0-.34.62,1.78,1.78,0,0,0-.11.53v4.57h-1.2V70.79Z"/><path class="b341ff71-97d1-4b38-ada3-bf4931865b77" d="M82.51,77.66a3.37,3.37,0,0,1-2.07.62A3.77,3.77,0,0,1,78.91,78a3,3,0,0,1-1.08-.8A3.13,3.13,0,0,1,77.17,76a5.7,5.7,0,0,1-.25-1.54,4.39,4.39,0,0,1,.25-1.53,3.57,3.57,0,0,1,.72-1.21A3.15,3.15,0,0,1,79,70.91a3.31,3.31,0,0,1,1.38-.29A3,3,0,0,1,82,71a3.24,3.24,0,0,1,1,1,4.17,4.17,0,0,1,.54,1.37,5.72,5.72,0,0,1,.12,1.4H78.19a3.1,3.1,0,0,0,.12.92,2,2,0,0,0,.41.76,2,2,0,0,0,.72.53,2.41,2.41,0,0,0,1,.2,2.1,2.1,0,0,0,1.25-.35,1.75,1.75,0,0,0,.65-1.08h1.19A2.94,2.94,0,0,1,82.51,77.66ZM82.22,73a2.06,2.06,0,0,0-.44-.66,2.12,2.12,0,0,0-.66-.44,2,2,0,0,0-.83-.16,2.06,2.06,0,0,0-.84.16,2,2,0,0,0-.65.45,2,2,0,0,0-.42.66,2.35,2.35,0,0,0-.19.8h4.22A2.67,2.67,0,0,0,82.22,73Z"/><path class="b341ff71-97d1-4b38-ada3-bf4931865b77" d="M333.93,69.43a3.11,3.11,0,0,0-1.83-.54,3.39,3.39,0,0,0-1.56.34,3,3,0,0,0-1.06.92,3.87,3.87,0,0,0-.62,1.31,5.94,5.94,0,0,0-.2,1.53,6.7,6.7,0,0,0,.2,1.64,4,4,0,0,0,.62,1.35,3.06,3.06,0,0,0,1.07.91,3.27,3.27,0,0,0,1.56.34,2.92,2.92,0,0,0,1.18-.22,2.56,2.56,0,0,0,.9-.61,3,3,0,0,0,.59-.93,3.93,3.93,0,0,0,.25-1.16h1.35a4.57,4.57,0,0,1-1.32,3A4.27,4.27,0,0,1,332,78.35a4.85,4.85,0,0,1-2.06-.4,4,4,0,0,1-1.46-1.12,4.66,4.66,0,0,1-.87-1.67,6.91,6.91,0,0,1-.3-2.07,6.71,6.71,0,0,1,.32-2.08,5,5,0,0,1,.91-1.69,4.11,4.11,0,0,1,1.51-1.14,4.8,4.8,0,0,1,2.06-.42,5.23,5.23,0,0,1,1.5.21,4.06,4.06,0,0,1,1.27.62,3.8,3.8,0,0,1,.92,1,4,4,0,0,1,.48,1.43h-1.35A2.49,2.49,0,0,0,333.93,69.43Z"/><path class="b341ff71-97d1-4b38-ada3-bf4931865b77" d="M339.13,68V78.13h-1.21V68Z"/><path class="b341ff71-97d1-4b38-ada3-bf4931865b77" d="M340.83,73a3.38,3.38,0,0,1,.68-1.22,3.19,3.19,0,0,1,1.12-.82,3.74,3.74,0,0,1,1.54-.3,3.66,3.66,0,0,1,1.53.3,3.19,3.19,0,0,1,1.12.82A3.38,3.38,0,0,1,347.5,73a4.88,4.88,0,0,1,.23,1.51,4.81,4.81,0,0,1-.23,1.5,3.42,3.42,0,0,1-.68,1.21,3,3,0,0,1-1.12.81,3.83,3.83,0,0,1-1.53.29,3.92,3.92,0,0,1-1.54-.29,3,3,0,0,1-1.12-.81,3.42,3.42,0,0,1-.68-1.21,4.81,4.81,0,0,1-.23-1.5A4.88,4.88,0,0,1,340.83,73Zm1.23,2.69a2.53,2.53,0,0,0,.49.87,2.25,2.25,0,0,0,.73.53,2.27,2.27,0,0,0,1.77,0,2.25,2.25,0,0,0,.73-.53,2.53,2.53,0,0,0,.49-.87,4,4,0,0,0,0-2.37,2.63,2.63,0,0,0-.49-.87,2,2,0,0,0-.73-.54,2.27,2.27,0,0,0-1.77,0,2,2,0,0,0-.73.54,2.63,2.63,0,0,0-.49.87,4,4,0,0,0,0,2.37Z"/><path class="b341ff71-97d1-4b38-ada3-bf4931865b77" d="M350.06,76.49a1.45,1.45,0,0,0,.45.44,2.05,2.05,0,0,0,.63.23,3.35,3.35,0,0,0,.71.07,4.22,4.22,0,0,0,.6,0A2,2,0,0,0,353,77a1,1,0,0,0,.44-.33.91.91,0,0,0,.17-.56.8.8,0,0,0-.36-.71,3.06,3.06,0,0,0-.89-.39c-.35-.1-.74-.19-1.15-.27a5.81,5.81,0,0,1-1.16-.34,2.34,2.34,0,0,1-.88-.62,1.57,1.57,0,0,1-.36-1.1,1.7,1.7,0,0,1,.25-.95,2,2,0,0,1,.64-.65,3,3,0,0,1,.88-.37,4,4,0,0,1,1-.12,5.91,5.91,0,0,1,1.15.11,2.56,2.56,0,0,1,.93.37,1.84,1.84,0,0,1,.64.71,2.7,2.7,0,0,1,.29,1.11h-1.21a1.11,1.11,0,0,0-.58-1,1.63,1.63,0,0,0-.53-.21,3,3,0,0,0-.59-.06,3.48,3.48,0,0,0-.55,0,1.94,1.94,0,0,0-.5.15,1,1,0,0,0-.37.28.68.68,0,0,0-.14.46.67.67,0,0,0,.22.52,1.61,1.61,0,0,0,.56.34,4.56,4.56,0,0,0,.76.23l.85.19c.31.07.6.15.89.24a2.64,2.64,0,0,1,.77.38,1.87,1.87,0,0,1,.54.58,1.82,1.82,0,0,1,.2.88,2.07,2.07,0,0,1-.27,1.11,2.25,2.25,0,0,1-.73.71,3.24,3.24,0,0,1-1,.38,6.14,6.14,0,0,1-1.12.1,4.85,4.85,0,0,1-1.16-.13,2.78,2.78,0,0,1-1-.41A2.2,2.2,0,0,1,349,77a2.55,2.55,0,0,1-.28-1.16h1.2A1.43,1.43,0,0,0,350.06,76.49Z"/><path class="b341ff71-97d1-4b38-ada3-bf4931865b77" d="M356.31,69.47V68h1.2v1.47Zm1.2,1.32v7.34h-1.2V70.79Z"/><path class="b341ff71-97d1-4b38-ada3-bf4931865b77" d="M360.52,70.79V72h0a2.53,2.53,0,0,1,2.38-1.34,3.29,3.29,0,0,1,1.21.2,2,2,0,0,1,.78.55,2.17,2.17,0,0,1,.41.85,4.52,4.52,0,0,1,.12,1.08v4.83h-1.2v-5a1.46,1.46,0,0,0-.4-1.08,1.48,1.48,0,0,0-1.09-.39,2.35,2.35,0,0,0-1,.17,1.72,1.72,0,0,0-.67.48,2.09,2.09,0,0,0-.41.73,2.94,2.94,0,0,0-.13.91v4.15h-1.21V70.79Z"/><path class="b341ff71-97d1-4b38-ada3-bf4931865b77" d="M372.77,80.2a3.37,3.37,0,0,1-2.58.89,5.33,5.33,0,0,1-1-.11,3.15,3.15,0,0,1-1-.37,2.2,2.2,0,0,1-.72-.67,1.89,1.89,0,0,1-.31-1h1.2a.9.9,0,0,0,.21.56,1.46,1.46,0,0,0,.47.37,2.23,2.23,0,0,0,.6.2,3.46,3.46,0,0,0,.62.07,2.19,2.19,0,0,0,1-.21,2,2,0,0,0,.68-.57,2.31,2.31,0,0,0,.39-.87,4.87,4.87,0,0,0,.12-1.12v-.48h0a2.08,2.08,0,0,1-.94,1,3,3,0,0,1-1.34.32,3.17,3.17,0,0,1-1.43-.3,3,3,0,0,1-1-.8,3.41,3.41,0,0,1-.62-1.18,4.76,4.76,0,0,1-.21-1.43,5.79,5.79,0,0,1,.17-1.34,3.9,3.9,0,0,1,.57-1.24,3.05,3.05,0,0,1,1.05-.93,3.26,3.26,0,0,1,1.6-.36,2.63,2.63,0,0,1,1.28.31,2.16,2.16,0,0,1,.91.91h0v-1h1.14V77.5A3.88,3.88,0,0,1,372.77,80.2Zm-1.54-3.3a2,2,0,0,0,.68-.65,3,3,0,0,0,.37-.92,4.44,4.44,0,0,0,.12-1,3.8,3.8,0,0,0-.11-1,2.64,2.64,0,0,0-.36-.84,1.81,1.81,0,0,0-.65-.61,1.89,1.89,0,0,0-1-.22,2,2,0,0,0-1,.22,1.91,1.91,0,0,0-.68.58,2.63,2.63,0,0,0-.38.85,4.23,4.23,0,0,0-.12,1,4.75,4.75,0,0,0,.1,1,2.68,2.68,0,0,0,.34.91,1.9,1.9,0,0,0,.64.65,1.86,1.86,0,0,0,1,.25A2,2,0,0,0,371.23,76.9Z"/><path class="b341ff71-97d1-4b38-ada3-bf4931865b77" d="M378.47,69.13V68h8.1v1.13H383.2v9h-1.35v-9Z"/><path class="b341ff71-97d1-4b38-ada3-bf4931865b77" d="M392.42,78.1a1.76,1.76,0,0,1-.87.18,1,1,0,0,1-.74-.26,1.13,1.13,0,0,1-.28-.86,2.91,2.91,0,0,1-1.16.86,3.86,3.86,0,0,1-1.42.26,4,4,0,0,1-.94-.11,2.33,2.33,0,0,1-.78-.36,1.67,1.67,0,0,1-.51-.63,2.07,2.07,0,0,1-.2-.94,2.14,2.14,0,0,1,.22-1,1.77,1.77,0,0,1,.56-.65,2.5,2.5,0,0,1,.79-.37A8.82,8.82,0,0,1,388,74l.94-.15a5.13,5.13,0,0,0,.79-.14,1.37,1.37,0,0,0,.54-.27.66.66,0,0,0,.19-.51,1.29,1.29,0,0,0-.14-.64,1,1,0,0,0-.39-.37,1.45,1.45,0,0,0-.52-.17,3.86,3.86,0,0,0-.58,0,2.46,2.46,0,0,0-1.27.29,1.24,1.24,0,0,0-.56,1.1h-1.2a2.6,2.6,0,0,1,.28-1.15,2.09,2.09,0,0,1,.68-.76,2.92,2.92,0,0,1,1-.42,4.94,4.94,0,0,1,1.17-.13,8.24,8.24,0,0,1,1,.07,2.82,2.82,0,0,1,.89.29,1.7,1.7,0,0,1,.63.62,1.87,1.87,0,0,1,.25,1V76.4a2.42,2.42,0,0,0,.05.62c0,.13.14.2.33.2a1.41,1.41,0,0,0,.37-.06Zm-2-3.76a1.67,1.67,0,0,1-.6.25c-.24,0-.5.09-.77.12l-.81.12a3.07,3.07,0,0,0-.74.2,1.27,1.27,0,0,0-.53.4,1.11,1.11,0,0,0-.21.71,1,1,0,0,0,.12.51,1.22,1.22,0,0,0,.31.33,1.51,1.51,0,0,0,.45.18,2.35,2.35,0,0,0,.54.06,2.79,2.79,0,0,0,1-.17,2.14,2.14,0,0,0,.7-.4,1.76,1.76,0,0,0,.39-.54,1.25,1.25,0,0,0,.13-.54Z"/><path class="b341ff71-97d1-4b38-ada3-bf4931865b77" d="M399,80.2a3.37,3.37,0,0,1-2.58.89,5.33,5.33,0,0,1-1-.11,3.31,3.31,0,0,1-1-.37,2.17,2.17,0,0,1-.71-.67,1.89,1.89,0,0,1-.32-1h1.21a.9.9,0,0,0,.21.56,1.53,1.53,0,0,0,.46.37,2.43,2.43,0,0,0,.61.2,3.37,3.37,0,0,0,.62.07,2.22,2.22,0,0,0,1-.21,2,2,0,0,0,.68-.57,2.31,2.31,0,0,0,.39-.87,4.87,4.87,0,0,0,.12-1.12v-.48h0a2.08,2.08,0,0,1-.94,1,3,3,0,0,1-1.34.32,3.25,3.25,0,0,1-1.44-.3,3.21,3.21,0,0,1-1-.8,3.39,3.39,0,0,1-.61-1.18,4.76,4.76,0,0,1-.21-1.43,5.79,5.79,0,0,1,.17-1.34,3.51,3.51,0,0,1,.57-1.24,3,3,0,0,1,1.05-.93,3.26,3.26,0,0,1,1.6-.36,2.66,2.66,0,0,1,1.28.31,2.14,2.14,0,0,1,.9.91h0v-1h1.13V77.5A3.88,3.88,0,0,1,399,80.2Zm-1.54-3.3a2,2,0,0,0,.68-.65,3,3,0,0,0,.37-.92,4.44,4.44,0,0,0,.12-1,4.33,4.33,0,0,0-.11-1,2.88,2.88,0,0,0-.36-.84,1.81,1.81,0,0,0-.65-.61,1.89,1.89,0,0,0-1-.22,2.08,2.08,0,0,0-1,.22,2,2,0,0,0-.67.58,2.63,2.63,0,0,0-.38.85,4.23,4.23,0,0,0-.12,1,4.75,4.75,0,0,0,.1,1,2.68,2.68,0,0,0,.34.91,2,2,0,0,0,.63.65,1.92,1.92,0,0,0,1,.25A2,2,0,0,0,397.5,76.9Z"/><path class="b341ff71-97d1-4b38-ada3-bf4931865b77" d="M161,68l4,10.13h-1.49l-1.11-3h-4.28l-1.14,3h-1.37L159.52,68Zm.94,5.94-1.69-4.72h0l-1.72,4.72Z"/><path class="b341ff71-97d1-4b38-ada3-bf4931865b77" d="M168.9,70.79v1.07h-1.46v4.55a1.58,1.58,0,0,0,0,.34.35.35,0,0,0,.14.2.48.48,0,0,0,.27.09l.46,0h.56v1.07H168a4.58,4.58,0,0,1-.8-.07,1.21,1.21,0,0,1-.54-.23,1.14,1.14,0,0,1-.3-.49,2.61,2.61,0,0,1-.1-.82V71.86H165V70.79h1.25v-2.2h1.21v2.2Z"/><path class="b341ff71-97d1-4b38-ada3-bf4931865b77" d="M173.36,70.79v1.07H171.9v4.55a1.51,1.51,0,0,0,0,.34.39.39,0,0,0,.13.2.55.55,0,0,0,.28.09l.46,0h.55v1.07h-.92a4.49,4.49,0,0,1-.8-.07,1.21,1.21,0,0,1-.54-.23,1,1,0,0,1-.3-.49,2.61,2.61,0,0,1-.1-.82V71.86h-1.25V70.79h1.25v-2.2h1.2v2.2Z"/><path class="b341ff71-97d1-4b38-ada3-bf4931865b77" d="M175.79,70.79v1.55h0A3.16,3.16,0,0,1,176.9,71a2.7,2.7,0,0,1,1.61-.4V71.9a3.44,3.44,0,0,0-1.23.2,1.83,1.83,0,0,0-.82.58,2.39,2.39,0,0,0-.46.93,5.19,5.19,0,0,0-.14,1.25v3.27h-1.21V70.79Z"/><path class="b341ff71-97d1-4b38-ada3-bf4931865b77" d="M179.49,69.47V68h1.21v1.47Zm1.21,1.32v7.34h-1.21V70.79Z"/><path class="b341ff71-97d1-4b38-ada3-bf4931865b77" d="M183.82,68v3.79h0a1.76,1.76,0,0,1,.93-.89,3.69,3.69,0,0,1,2.89,0,3,3,0,0,1,1.05.85,3.58,3.58,0,0,1,.63,1.23,5,5,0,0,1,.21,1.47,5.51,5.51,0,0,1-.2,1.48,3.58,3.58,0,0,1-.63,1.21,3,3,0,0,1-1,.81,3.51,3.51,0,0,1-2.07.24A2.71,2.71,0,0,1,185,78a2.4,2.4,0,0,1-.62-.35,1.92,1.92,0,0,1-.48-.54h0v1h-1.21V68Zm4.33,5.39a2.9,2.9,0,0,0-.41-.87,2.1,2.1,0,0,0-.71-.61,2.18,2.18,0,0,0-1-.22,2.08,2.08,0,0,0-1,.24,2,2,0,0,0-.69.63,2.6,2.6,0,0,0-.39.88,3.89,3.89,0,0,0-.13,1,4.42,4.42,0,0,0,.13,1,2.51,2.51,0,0,0,.41.89A2,2,0,0,0,185,77a2.35,2.35,0,0,0,1.07.23,2.08,2.08,0,0,0,1-.24,1.87,1.87,0,0,0,.67-.64,2.56,2.56,0,0,0,.37-.91,4.57,4.57,0,0,0,.11-1A3.76,3.76,0,0,0,188.15,73.39Z"/><path class="b341ff71-97d1-4b38-ada3-bf4931865b77" d="M195.92,78.13V77h0a2.42,2.42,0,0,1-1,1,2.88,2.88,0,0,1-1.41.32,3.21,3.21,0,0,1-1.2-.19,1.94,1.94,0,0,1-.78-.55,2,2,0,0,1-.42-.84,4.61,4.61,0,0,1-.12-1.09V70.79h1.21v5a1.37,1.37,0,0,0,1.48,1.47,2.35,2.35,0,0,0,1-.17,1.75,1.75,0,0,0,.68-.48,2.24,2.24,0,0,0,.4-.73,3,3,0,0,0,.13-.92V70.79h1.21v7.34Z"/><path class="b341ff71-97d1-4b38-ada3-bf4931865b77" d="M202,70.79v1.07h-1.46v4.55a1.58,1.58,0,0,0,0,.34.41.41,0,0,0,.14.2A.55.55,0,0,0,201,77l.46,0H202v1.07h-.92a4.49,4.49,0,0,1-.8-.07,1.12,1.12,0,0,1-.54-.23,1.06,1.06,0,0,1-.31-.49,3,3,0,0,1-.1-.82V71.86h-1.25V70.79h1.25v-2.2h1.21v2.2Z"/><path class="b341ff71-97d1-4b38-ada3-bf4931865b77" d="M208.52,77.66a3.33,3.33,0,0,1-2.07.62,3.75,3.75,0,0,1-1.52-.28,3.12,3.12,0,0,1-1.09-.8,3.41,3.41,0,0,1-.66-1.22,5.71,5.71,0,0,1-.24-1.54,4.39,4.39,0,0,1,.25-1.53,3.57,3.57,0,0,1,.72-1.21,3.06,3.06,0,0,1,1.09-.79,3.31,3.31,0,0,1,1.38-.29A3,3,0,0,1,208,71a3.24,3.24,0,0,1,1,1,4.17,4.17,0,0,1,.54,1.37,5.72,5.72,0,0,1,.12,1.4h-5.49a2.8,2.8,0,0,0,.12.92,2,2,0,0,0,.41.76,2,2,0,0,0,.72.53,2.38,2.38,0,0,0,1,.2,2.12,2.12,0,0,0,1.25-.35,1.75,1.75,0,0,0,.65-1.08h1.19A3,3,0,0,1,208.52,77.66ZM208.23,73a1.91,1.91,0,0,0-.44-.66,2,2,0,0,0-.65-.44,2.26,2.26,0,0,0-1.67,0,2,2,0,0,0-.65.45,2,2,0,0,0-.42.66,2.35,2.35,0,0,0-.19.8h4.21A2.19,2.19,0,0,0,208.23,73Z"/><path class="b341ff71-97d1-4b38-ada3-bf4931865b77" d="M211.87,76.49a1.35,1.35,0,0,0,.45.44,2,2,0,0,0,.62.23,3.38,3.38,0,0,0,.72.07,4,4,0,0,0,.59,0,2.16,2.16,0,0,0,.58-.16,1,1,0,0,0,.43-.33.91.91,0,0,0,.17-.56.82.82,0,0,0-.35-.71,3.06,3.06,0,0,0-.89-.39c-.35-.1-.74-.19-1.16-.27a5.71,5.71,0,0,1-1.15-.34,2.38,2.38,0,0,1-.89-.62,1.61,1.61,0,0,1-.35-1.1,1.7,1.7,0,0,1,.25-.95,2,2,0,0,1,.63-.65,3.15,3.15,0,0,1,.88-.37,4.09,4.09,0,0,1,1-.12,5.83,5.83,0,0,1,1.15.11,2.56,2.56,0,0,1,.93.37,1.86,1.86,0,0,1,.65.71,2.7,2.7,0,0,1,.28,1.11h-1.2a1.18,1.18,0,0,0-.19-.59,1.1,1.1,0,0,0-.4-.37,1.55,1.55,0,0,0-.53-.21,2.88,2.88,0,0,0-.59-.06,3.27,3.27,0,0,0-.54,0,2,2,0,0,0-.51.15.92.92,0,0,0-.36.28.69.69,0,0,0-.15.46.71.71,0,0,0,.22.52,1.82,1.82,0,0,0,.56.34,5,5,0,0,0,.77.23l.85.19c.3.07.6.15.89.24a2.58,2.58,0,0,1,.76.38,1.66,1.66,0,0,1,.54.58,1.71,1.71,0,0,1,.21.88,2,2,0,0,1-.28,1.11,2.13,2.13,0,0,1-.72.71,3.21,3.21,0,0,1-1,.38,6,6,0,0,1-1.11.1,4.94,4.94,0,0,1-1.17-.13,2.81,2.81,0,0,1-1-.41,2.11,2.11,0,0,1-.68-.77,2.68,2.68,0,0,1-.29-1.16h1.21A1.43,1.43,0,0,0,211.87,76.49Z"/></svg>