<?xml version="1.0" encoding="utf-8"?>
<!-- Generator: Adobe Illustrator 23.0.4, SVG Export Plug-In . SVG Version: 6.00 Build 0)  -->
<svg version="1.1" id="interactive-0" xmlns="http://www.w3.org/2000/svg" xmlns:xlink="http://www.w3.org/1999/xlink" x="0px"
	 y="0px" viewBox="0 0 600 300" style="enable-background:new 0 0 600 300;" xml:space="preserve">
<style type="text/css">
	.st0{fill:none;stroke:#404040;}
</style>
<g>
	<rect id="rectangle-1" x="200" y="50" class="st0" width="20" height="20"/>
	<rect id="rectangle-2" x="200" y="70" class="st0" width="20" height="20"/>
	<rect id="rectangle-3" x="200" y="90" class="st0" width="20" height="20"/>
	<rect id="rectangle-4" x="200" y="110" class="st0" width="20" height="20"/>
	<rect id="rectangle-5" x="200" y="130" class="st0" width="20" height="20"/>
	<rect id="rectangle-6" x="200" y="150" class="st0" width="20" height="20"/>
	<rect id="rectangle-7" x="200" y="170" class="st0" width="20" height="20"/>
	<rect id="rectangle-8" x="200" y="190" class="st0" width="20" height="20"/>
	<rect id="rectangle-9" x="200" y="210" class="st0" width="20" height="20"/>
	<rect id="rectangle-10" x="200" y="230" class="st0" width="20" height="20"/>
	<rect id="rectangle-11" x="220" y="50" class="st0" width="20" height="20"/>
	<rect id="rectangle-12" x="220" y="70" class="st0" width="20" height="20"/>
	<rect id="rectangle-13" x="220" y="90" class="st0" width="20" height="20"/>
	<rect id="rectangle-14" x="220" y="110" class="st0" width="20" height="20"/>
	<rect id="rectangle-15" x="220" y="130" class="st0" width="20" height="20"/>
	<rect id="rectangle-16" x="220" y="150" class="st0" width="20" height="20"/>
	<rect id="rectangle-17" x="220" y="170" class="st0" width="20" height="20"/>
	<rect id="rectangle-18" x="220" y="190" class="st0" width="20" height="20"/>
	<rect id="rectangle-19" x="220" y="210" class="st0" width="20" height="20"/>
	<rect id="rectangle-20" x="220" y="230" class="st0" width="20" height="20"/>
	<rect id="rectangle-21" x="240" y="50" class="st0" width="20" height="20"/>
	<rect id="rectangle-22" x="240" y="70" class="st0" width="20" height="20"/>
	<rect id="rectangle-23" x="240" y="90" class="st0" width="20" height="20"/>
	<rect id="rectangle-24" x="240" y="110" class="st0" width="20" height="20"/>
	<rect id="rectangle-25" x="240" y="130" class="st0" width="20" height="20"/>
	<rect id="rectangle-26" x="240" y="150" class="st0" width="20" height="20"/>
	<rect id="rectangle-27" x="240" y="170" class="st0" width="20" height="20"/>
	<rect id="rectangle-28" x="240" y="190" class="st0" width="20" height="20"/>
	<rect id="rectangle-29" x="240" y="210" class="st0" width="20" height="20"/>
	<rect id="rectangle-30" x="240" y="230" class="st0" width="20" height="20"/>
	<rect id="rectangle-31" x="260" y="50" class="st0" width="20" height="20"/>
	<rect id="rectangle-32" x="260" y="70" class="st0" width="20" height="20"/>
	<rect id="rectangle-33" x="260" y="90" class="st0" width="20" height="20"/>
	<rect id="rectangle-34" x="260" y="110" class="st0" width="20" height="20"/>
	<rect id="rectangle-35" x="260" y="130" class="st0" width="20" height="20"/>
	<rect id="rectangle-36" x="260" y="150" class="st0" width="20" height="20"/>
	<rect id="rectangle-37" x="260" y="170" class="st0" width="20" height="20"/>
	<rect id="rectangle-38" x="260" y="190" class="st0" width="20" height="20"/>
	<rect id="rectangle-39" x="260" y="210" class="st0" width="20" height="20"/>
	<rect id="rectangle-40" x="260" y="230" class="st0" width="20" height="20"/>
	<rect id="rectangle-41" x="280" y="50" class="st0" width="20" height="20"/>
	<rect id="rectangle-42" x="280" y="70" class="st0" width="20" height="20"/>
	<rect id="rectangle-43" x="280" y="90" class="st0" width="20" height="20"/>
	<rect id="rectangle-44" x="280" y="110" class="st0" width="20" height="20"/>
	<rect id="rectangle-45" x="280" y="130" class="st0" width="20" height="20"/>
	<rect id="rectangle-46" x="280" y="150" class="st0" width="20" height="20"/>
	<rect id="rectangle-47" x="280" y="170" class="st0" width="20" height="20"/>
	<rect id="rectangle-48" x="280" y="190" class="st0" width="20" height="20"/>
	<rect id="rectangle-49" x="280" y="210" class="st0" width="20" height="20"/>
	<rect id="rectangle-50" x="280" y="230" class="st0" width="20" height="20"/>
	<rect id="rectangle-51" x="300" y="50" class="st0" width="20" height="20"/>
	<rect id="rectangle-52" x="300" y="70" class="st0" width="20" height="20"/>
	<rect id="rectangle-53" x="300" y="90" class="st0" width="20" height="20"/>
	<rect id="rectangle-54" x="300" y="110" class="st0" width="20" height="20"/>
	<rect id="rectangle-55" x="300" y="130" class="st0" width="20" height="20"/>
	<rect id="rectangle-56" x="300" y="150" class="st0" width="20" height="20"/>
	<rect id="rectangle-57" x="300" y="170" class="st0" width="20" height="20"/>
	<rect id="rectangle-58" x="300" y="190" class="st0" width="20" height="20"/>
	<rect id="rectangle-59" x="300" y="210" class="st0" width="20" height="20"/>
	<rect id="rectangle-60" x="300" y="230" class="st0" width="20" height="20"/>
	<rect id="rectangle-61" x="320" y="50" class="st0" width="20" height="20"/>
	<rect id="rectangle-62" x="320" y="70" class="st0" width="20" height="20"/>
	<rect id="rectangle-63" x="320" y="90" class="st0" width="20" height="20"/>
	<rect id="rectangle-64" x="320" y="110" class="st0" width="20" height="20"/>
	<rect id="rectangle-65" x="320" y="130" class="st0" width="20" height="20"/>
	<rect id="rectangle-66" x="320" y="150" class="st0" width="20" height="20"/>
	<rect id="rectangle-67" x="320" y="170" class="st0" width="20" height="20"/>
	<rect id="rectangle-68" x="320" y="190" class="st0" width="20" height="20"/>
	<rect id="rectangle-69" x="320" y="210" class="st0" width="20" height="20"/>
	<rect id="rectangle-70" x="320" y="230" class="st0" width="20" height="20"/>
	<rect id="rectangle-71" x="340" y="50" class="st0" width="20" height="20"/>
	<rect id="rectangle-72" x="340" y="70" class="st0" width="20" height="20"/>
	<rect id="rectangle-73" x="340" y="90" class="st0" width="20" height="20"/>
	<rect id="rectangle-74" x="340" y="110" class="st0" width="20" height="20"/>
	<rect id="rectangle-75" x="340" y="130" class="st0" width="20" height="20"/>
	<rect id="rectangle-76" x="340" y="150" class="st0" width="20" height="20"/>
	<rect id="rectangle-77" x="340" y="170" class="st0" width="20" height="20"/>
	<rect id="rectangle-78" x="340" y="190" class="st0" width="20" height="20"/>
	<rect id="rectangle-79" x="340" y="210" class="st0" width="20" height="20"/>
	<rect id="rectangle-80" x="340" y="230" class="st0" width="20" height="20"/>
	<rect id="rectangle-81" x="360" y="50" class="st0" width="20" height="20"/>
	<rect id="rectangle-82" x="360" y="70" class="st0" width="20" height="20"/>
	<rect id="rectangle-83" x="360" y="90" class="st0" width="20" height="20"/>
	<rect id="rectangle-84" x="360" y="110" class="st0" width="20" height="20"/>
	<rect id="rectangle-85" x="360" y="130" class="st0" width="20" height="20"/>
	<rect id="rectangle-86" x="360" y="150" class="st0" width="20" height="20"/>
	<rect id="rectangle-87" x="360" y="170" class="st0" width="20" height="20"/>
	<rect id="rectangle-88" x="360" y="190" class="st0" width="20" height="20"/>
	<rect id="rectangle-89" x="360" y="210" class="st0" width="20" height="20"/>
	<rect id="rectangle-90" x="360" y="230" class="st0" width="20" height="20"/>
	<rect id="rectangle-91" x="380" y="50" class="st0" width="20" height="20"/>
	<rect id="rectangle-92" x="380" y="70" class="st0" width="20" height="20"/>
	<rect id="rectangle-93" x="380" y="90" class="st0" width="20" height="20"/>
	<rect id="rectangle-94" x="380" y="110" class="st0" width="20" height="20"/>
	<rect id="rectangle-95" x="380" y="130" class="st0" width="20" height="20"/>
	<rect id="rectangle-96" x="380" y="150" class="st0" width="20" height="20"/>
	<rect id="rectangle-97" x="380" y="170" class="st0" width="20" height="20"/>
	<rect id="rectangle-98" x="380" y="190" class="st0" width="20" height="20"/>
	<rect id="rectangle-99" x="380" y="210" class="st0" width="20" height="20"/>
	<rect id="rectangle-100" x="380" y="230" class="st0" width="20" height="20"/>
</g>
</svg>
