<svg id="a66a46c2-b156-4823-9748-cca82e0fe4f8" data-name="Layer 1" xmlns="http://www.w3.org/2000/svg" width="600" height="300" viewBox="0 0 600 300"><defs><style>.afcffa7e-cb33-401e-857b-17963b039b40,.b4f75523-d2fc-4afd-b75b-70975dfb96f7,.ec0dc2f4-28dd-4e4a-979c-dc9fe70d56c3,.f3dcc70f-9d63-4ee5-bc63-2ea4711c21af{fill:none;}.f3dcc70f-9d63-4ee5-bc63-2ea4711c21af{stroke:#ccc;}.a380d9bb-fb66-4dc3-914c-d76e55f896e6,.b4f75523-d2fc-4afd-b75b-70975dfb96f7,.ec0dc2f4-28dd-4e4a-979c-dc9fe70d56c3,.f3dcc70f-9d63-4ee5-bc63-2ea4711c21af{stroke-miterlimit:10;}.afcffa7e-cb33-401e-857b-17963b039b40{stroke:#404040;}.ec7f7c1d-a86e-4877-bdbf-895e7912d137{fill:#404040;}.a380d9bb-fb66-4dc3-914c-d76e55f896e6,.b275c731-61ac-4b05-a7fa-f79fff174b57{fill:#f8f8f8;}.a380d9bb-fb66-4dc3-914c-d76e55f896e6,.b4f75523-d2fc-4afd-b75b-70975dfb96f7,.ec0dc2f4-28dd-4e4a-979c-dc9fe70d56c3{stroke:#333;}.b4f75523-d2fc-4afd-b75b-70975dfb96f7{stroke-linecap:round;}</style></defs><title>cartesian-coordinate-system</title><rect class="f3dcc70f-9d63-4ee5-bc63-2ea4711c21af" width="100" height="300"/><rect class="f3dcc70f-9d63-4ee5-bc63-2ea4711c21af" x="100" width="100" height="300"/><rect class="f3dcc70f-9d63-4ee5-bc63-2ea4711c21af" x="200" width="100" height="300"/><rect class="f3dcc70f-9d63-4ee5-bc63-2ea4711c21af" x="300" width="100" height="300"/><rect class="f3dcc70f-9d63-4ee5-bc63-2ea4711c21af" x="50" width="100" height="300"/><rect class="f3dcc70f-9d63-4ee5-bc63-2ea4711c21af" x="250" width="100" height="300"/><rect class="f3dcc70f-9d63-4ee5-bc63-2ea4711c21af" x="350" width="100" height="300"/><rect class="f3dcc70f-9d63-4ee5-bc63-2ea4711c21af" x="400" width="100" height="300"/><rect class="f3dcc70f-9d63-4ee5-bc63-2ea4711c21af" x="450" width="100" height="300"/><rect class="f3dcc70f-9d63-4ee5-bc63-2ea4711c21af" x="250" y="-50" width="100" height="600" transform="translate(550 -50) rotate(90)"/><rect class="f3dcc70f-9d63-4ee5-bc63-2ea4711c21af" x="250" y="-250" width="100" height="600" transform="translate(350 -250) rotate(90)"/><rect class="f3dcc70f-9d63-4ee5-bc63-2ea4711c21af" x="250" y="-200" width="100" height="600" transform="translate(400 -200) rotate(90)"/><rect class="f3dcc70f-9d63-4ee5-bc63-2ea4711c21af" x="250" y="-100" width="100" height="600" transform="translate(500 -100) rotate(90)"/><g id="a1f77dcc-c66c-4a4a-9f73-807aaf3be1c3" data-name="Path-3"><line class="afcffa7e-cb33-401e-857b-17963b039b40" x1="10.76" y1="150" x2="589.24" y2="150"/><polygon class="ec7f7c1d-a86e-4877-bdbf-895e7912d137" points="12.95 157.48 0 150 12.95 142.52 12.95 157.48"/><polygon class="ec7f7c1d-a86e-4877-bdbf-895e7912d137" points="587.05 157.48 600 150 587.05 142.52 587.05 157.48"/></g><g id="b4a33dbd-fa51-4527-a3a8-045ef1c27b20" data-name="Path-3"><line class="afcffa7e-cb33-401e-857b-17963b039b40" x1="300" y1="289.24" x2="300" y2="10.76"/><polygon class="ec7f7c1d-a86e-4877-bdbf-895e7912d137" points="307.48 287.05 300 300 292.52 287.05 307.48 287.05"/><polygon class="ec7f7c1d-a86e-4877-bdbf-895e7912d137" points="307.48 12.95 300 0 292.52 12.95 307.48 12.95"/></g><circle class="a380d9bb-fb66-4dc3-914c-d76e55f896e6" cx="575" cy="275" r="16"/><polyline class="ec0dc2f4-28dd-4e4a-979c-dc9fe70d56c3" points="568 272.11 568 268 572.11 268"/><polyline class="ec0dc2f4-28dd-4e4a-979c-dc9fe70d56c3" points="577.89 268 582 268 582 273.11"/><polyline class="ec0dc2f4-28dd-4e4a-979c-dc9fe70d56c3" points="572.11 282 568 282 568 277.89"/><polyline class="ec0dc2f4-28dd-4e4a-979c-dc9fe70d56c3" points="582 277.89 582 282 577.89 282"/><rect class="b275c731-61ac-4b05-a7fa-f79fff174b57" x="563" y="11.49" width="24" height="48" rx="3"/><rect class="ec0dc2f4-28dd-4e4a-979c-dc9fe70d56c3" x="563" y="11.49" width="24" height="48" rx="3"/><line class="b4f75523-d2fc-4afd-b75b-70975dfb96f7" x1="581" y1="23.49" x2="569" y2="23.49"/><line class="b4f75523-d2fc-4afd-b75b-70975dfb96f7" x1="575" y1="29.49" x2="575" y2="17.49"/><line class="b4f75523-d2fc-4afd-b75b-70975dfb96f7" x1="581" y1="47.49" x2="569" y2="47.49"/><line class="a380d9bb-fb66-4dc3-914c-d76e55f896e6" x1="587" y1="35.49" x2="563" y2="35.49"/></svg>