<svg id="Layer_1" data-name="Layer 1" xmlns="http://www.w3.org/2000/svg" viewBox="0 0 215.11 215.11"><defs><style>.cls-1{fill:none;stroke:#000;stroke-miterlimit:10;}</style></defs><title>svg-coordinate-system</title><polyline class="cls-1" points="166.41 10 10 10 10 166.41"/><polygon points="165.68 7.51 170 10 165.68 12.49 165.68 7.51"/><polygon points="7.51 165.68 10 170 12.49 165.68 7.51 165.68"/><line class="cls-1" x1="149.5" y1="10.5" x2="149.5" y2="149.5"/><line class="cls-1" x1="129.5" y1="149.5" x2="129.5" y2="10.5"/><line class="cls-1" x1="109.5" y1="10.5" x2="109.5" y2="149.5"/><line class="cls-1" x1="89.5" y1="149.5" x2="89.5" y2="10.5"/><line class="cls-1" x1="69.5" y1="10.5" x2="69.5" y2="149.5"/><line class="cls-1" x1="49.5" y1="149.5" x2="49.5" y2="10.5"/><line class="cls-1" x1="29.5" y1="10.5" x2="29.5" y2="149.5"/><line class="cls-1" x1="149.5" y1="149.5" x2="10.5" y2="149.5"/><line class="cls-1" x1="10.5" y1="129.5" x2="149.5" y2="129.5"/><line class="cls-1" x1="149.5" y1="109.5" x2="10.5" y2="109.5"/><line class="cls-1" x1="10.5" y1="89.5" x2="149.5" y2="89.5"/><line class="cls-1" x1="149.5" y1="69.5" x2="10.5" y2="69.5"/><line class="cls-1" x1="10.5" y1="49.5" x2="149.5" y2="49.5"/><line class="cls-1" x1="149.5" y1="29.5" x2="10.5" y2="29.5"/><path d="M176.54,6.74l1.17,1.77c.31.46.56.88.83,1.34h.05c.28-.49.55-.91.82-1.36l1.16-1.75h1.61l-2.8,4L182.27,15h-1.7l-1.21-1.85c-.32-.48-.6-.94-.89-1.43h0c-.27.49-.56.93-.87,1.43L176.38,15h-1.65l2.93-4.2-2.79-4Z"/><path d="M7.38,176.74l1.81,4.86c.18.55.39,1.19.52,1.69h0c.15-.5.32-1.12.52-1.72l1.64-4.83h1.58l-2.25,5.87c-1.07,2.82-1.8,4.26-2.82,5.15a4.12,4.12,0,0,1-1.84,1l-.37-1.26a4.07,4.07,0,0,0,1.31-.73,4.47,4.47,0,0,0,1.26-1.67,1,1,0,0,0,.12-.36,1.39,1.39,0,0,0-.11-.39l-3-7.58Z"/></svg>