<?xml version="1.0" encoding="utf-8"?>
<!-- Generator: Adobe Illustrator 24.0.1, SVG Export Plug-In . SVG Version: 6.00 Build 0)  -->
<svg version="1.1" id="interactive-0" xmlns="http://www.w3.org/2000/svg" xmlns:xlink="http://www.w3.org/1999/xlink" x="0px"
	 y="0px" viewBox="0 0 500 300" style="enable-background:new 0 0 500 300;" xml:space="preserve">
<style type="text/css">
	.st0{fill:none;stroke:#333333;}
	.st1{fill:#333333;}
	.st2{fill:none;stroke:#333333;stroke-miterlimit:10;}
	.st3{fill:#EEEEEE;stroke:#333333;}
	.st4{stroke:#333333;stroke-width:2;stroke-linecap:round;}
</style>
<g id="group-1">
	<path id="path-17" class="st0" d="M341.7,73.3v10.4h-8.5V73.3H341.7l27.5,17.8c-1.3,0.1-2.7,0.4-4,0.7c-2.2,0.5-4.3,1.4-6.2,2.6
		c-1.8,1.2-3.4,2.7-4.5,4.6c-0.2,0.4-0.4,0.7-0.6,1.1c0.2-0.4,0.4-0.7,0.6-1.1c1.1-1.8,2.7-3.4,4.5-4.6c1.9-1.2,4-2.1,6.2-2.6
		c1.3-0.3,2.7-0.6,4-0.7c0.9-0.1,1.9-0.1,2.8-0.1c2.7,0,5.4,0.2,8.1,0.8c2.3,0.4,4.6,1.3,6.5,2.6c1.9,1.3,3.5,3,4.5,5
		c1.2,2.4,1.9,5.1,2,7.8h-8.5c-0.1-2.8-1.6-5.4-4.1-6.8c-1.2-0.7-2.4-1.2-3.8-1.5c-1.4-0.3-2.8-0.5-4.1-0.4c-1.3,0-2.6,0.1-3.9,0.3
		c-1.2,0.2-2.4,0.5-3.5,1c-1,0.5-1.9,1.1-2.6,2c-0.7,0.9-1.1,2.1-1,3.2c0,1.4,0.5,2.7,1.5,3.6c1.2,1,2.5,1.9,4,2.4
		c1.8,0.7,3.6,1.2,5.4,1.6c2,0.4,4,0.9,6,1.4c2.1,0.5,4.2,1,6.2,1.7c1.9,0.6,3.7,1.5,5.4,2.6c1.6,1.1,2.9,2.5,3.8,4.2
		c1,1.9,1.5,4,1.5,6.2c0.1,2.7-0.6,5.4-2,7.8c-1.3,2-3,3.8-5.1,5c-2.2,1.3-4.6,2.2-7.1,2.6c-2.6,0.5-5.2,0.7-7.9,0.8
		c-2.8,0-5.5-0.3-8.2-0.9c-2.5-0.6-4.8-1.6-6.9-3c-2-1.4-3.7-3.2-4.8-5.4c-1.3-2.5-2-5.3-2-8.1h8.5c0,1.7,0.5,3.3,1.3,4.8
		c0.8,1.3,1.9,2.3,3.1,3.1c1.4,0.8,2.9,1.4,4.4,1.7c1.6,0.3,3.3,0.5,5,0.5c1.4,0,2.8-0.1,4.2-0.3c1.4-0.2,2.7-0.6,4-1.1
		c1.2-0.5,2.3-1.3,3-2.3c0.8-1.2,1.3-2.6,1.2-4c0.1-2-0.8-3.9-2.5-5c-1.9-1.2-4-2.2-6.2-2.8c-2.5-0.7-5.2-1.3-8.1-1.9
		c-2.8-0.5-5.5-1.3-8.1-2.4c-2.4-1-4.5-2.4-6.2-4.4c-1.7-1.9-2.5-4.5-2.5-7.8c0-1.9,0.4-3.8,1.1-5.6l-12.1-7.7h-8.5l0,0h8.5v58.2
		c0,4.6-1.1,7.9-3.4,10s-5.2,3.1-9.1,3.2c-1.4,0-2.9-0.1-4.3-0.4v-7.3l0.9,0.2c0.2,0,0.5,0,0.8,0h1.8c1.9,0,3.1-0.5,3.8-1.6
		c0.7-1,1-2.9,1-5.6v-6.4l-15.3-9.8v11.1h-11.1v-11h11.1l15.3,9.8v-35.1l-25.5-16.6l0,0c-4.6-0.1-8.4,0.8-11.4,2.8
		c-3.3,2.4-5.9,5.6-7.6,9.3h-0.2V92.1h-8l0,0h8v10.9h0.2c1.7-3.7,4.3-6.9,7.6-9.3c3-2,6.8-2.9,11.4-2.8v9c-3-0.1-5.9,0.4-8.7,1.4
		c-2.3,0.8-4.3,2.2-5.8,4.1c-1.5,1.9-2.6,4.2-3.2,6.6c-0.7,2.9-1,5.9-1,8.9v23h-8.5v-35.7L260.1,95l0,0c-1.1-0.8-2.3-1.4-3.6-2
		c-8.2-3.7-17.7-2.9-25.2,2c1.1-0.8,2.3-1.4,3.6-2c6.9-2.8,14.7-2.8,21.6,0c1.2,0.6,2.4,1.2,3.6,2c1.6,1.1,3,2.3,4.3,3.8
		c2.2,2.5,3.8,5.4,4.8,8.6c1.1,3.4,1.6,7,1.6,10.7c0,0.8,0,1.5-0.1,2.2l-9.1-5.9c0.1,1.2,0.2,2.5,0.2,3.7c0.1,2.8-0.4,5.7-1.2,8.4
		c-0.7,2.2-1.9,4.3-3.5,6.1c-1.4,1.6-3.2,2.9-5.1,3.8c-4,1.7-8.5,1.7-12.5,0c-2-0.9-3.7-2.1-5.1-3.8c-1.5-1.8-2.7-3.9-3.5-6.1
		c-1.7-5.4-1.7-11.3,0-16.7c0.7-2.2,1.9-4.3,3.4-6.1c1.4-1.6,3.2-2.9,5.1-3.8c4-1.7,8.5-1.7,12.5,0c2,0.9,3.7,2.2,5.1,3.8
		c1.5,1.8,2.7,3.9,3.5,6.1c0.5,1.5,0.8,3.1,1,4.7l9.1,5.9c0,0.1,0,0.1,0,0.2c-0.2,2.8-0.7,5.5-1.5,8.2c-0.5,1.6-1.2,3.1-2,4.6
		c-0.8,1.4-1.7,2.8-2.8,4c-2.2,2.5-4.8,4.4-7.9,5.7c-7,2.7-14.7,2.7-21.6,0c-3-1.3-5.7-3.2-7.9-5.7c-2.2-2.5-3.8-5.4-4.8-8.6
		c-1.1-3.4-1.6-7-1.6-10.6c0-3.6,0.5-7.2,1.6-10.6c1-3.2,2.6-6.1,4.8-8.6c1.3-1.5,2.7-2.7,4.3-3.8l-27.6-18.4h-8.5v15.5h-8.8v7.5
		h8.8l0,0h-8.8v-7.5h8.8V76.6h8.5v15.5H214v7.5h-10.3v32.1c0,0.8,0.1,1.6,0.2,2.4c0.1,0.6,0.5,1.1,1,1.4c0.6,0.4,1.3,0.6,2,0.6
		c1.1,0.1,2.2,0.2,3.2,0.2h3.9v7.5h-6.5c-1.9,0-3.8-0.1-5.6-0.4c-1.4-0.2-2.7-0.8-3.8-1.7c-1-0.9-1.8-2.1-2.1-3.4
		c-0.5-1.9-0.8-3.8-0.7-5.8v-15.4l-13.1-8.4c-0.2-2.8-1.1-5.5-2.4-8c-1.2-2.2-2.9-4.1-4.9-5.6c-2-1.5-4.3-2.6-6.8-3.2
		c-2.7-0.7-5.5-1.1-8.2-1.1c-3.7-0.1-7.3,0.7-10.7,2.2c-3,1.4-5.6,3.4-7.6,5.9c-1.9,2.3-3.3,5-4.2,7.8c0.9-2.8,2.4-5.5,4.2-7.8
		c2.1-2.5,4.7-4.5,7.6-5.9c3.4-1.5,7-2.2,10.7-2.2c2.8,0,5.6,0.3,8.2,1c2.5,0.6,4.8,1.7,6.8,3.2c2,1.5,3.6,3.4,4.9,5.6
		c1.3,2.5,2.2,5.2,2.4,8h-8.8c-0.8-6.3-6.5-10.8-12.8-10.3c-2.7-0.1-5.3,0.5-7.7,1.7c-2,1.1-3.7,2.6-5,4.5c-1.3,2-2.2,4.2-2.6,6.4
		c-0.5,2.5-0.8,5-0.8,7.6c0,2.4,0.3,4.7,0.9,7c0.5,2.2,1.4,4.2,2.6,6.1c1.2,1.8,2.8,3.2,4.7,4.2c2.1,1.1,4.5,1.7,6.9,1.6
		c4.2,0,7.5-1.1,9.9-3.3c2.5-2.5,4-5.8,4.4-9.3h8.7c-0.9,6.4-3.3,11.3-7.1,14.8s-9,5.2-15.6,5.2c-3.6,0.1-7.1-0.6-10.4-1.9
		c-2.9-1.2-5.5-3-7.6-5.4c-2.1-2.4-3.7-5.3-4.6-8.4c-1.1-3.4-1.6-7-1.6-10.6c0-3.7,0.5-7.3,1.5-10.9c0.1-0.3,0.2-0.7,0.3-1l0,0
		l-16.4-10.5c-1-0.9-2.1-1.7-3.3-2.5c-3.5-2-7.4-3-11.4-2.9c-3.4,0-6.7,0.6-9.8,2c-2.9,1.3-5.6,3.2-7.7,5.6
		c-1.9,2.1-3.4,4.6-4.5,7.2c1.1-2.6,2.6-5.1,4.5-7.2c2.1-2.4,4.8-4.3,7.7-5.6c3.1-1.4,6.4-2,9.8-2c4-0.2,8,0.8,11.4,2.8
		c1.2,0.7,2.3,1.6,3.3,2.5c1.6,1.4,2.9,3,4,4.8c1.8,2.9,3.1,6.2,3.8,9.6c0.6,2.7,0.9,5.4,0.9,8.2c0,0.6,0,1.2,0,1.7h-22.6L95.3,113
		h-4.5c0.1-1.9,0.6-3.9,1.3-5.7c0.7-1.7,1.7-3.3,3-4.6c1.3-1.4,2.8-2.4,4.5-3.2c1.9-0.8,3.9-1.2,5.9-1.2c2,0,4,0.4,5.9,1.2
		c1.7,0.7,3.3,1.8,4.6,3.1c1.3,1.3,2.4,2.9,3.1,4.7c0.8,1.8,1.2,3.7,1.4,5.7H95.3l11.6,7.6H90.8c-0.1,2.2,0.2,4.4,0.8,6.4
		c0.6,2,1.6,3.8,2.9,5.4c1.4,1.6,3.1,2.9,5.1,3.8c2.3,1,4.8,1.5,7.3,1.4c3.1,0.1,6.2-0.7,8.9-2.5c2.4-1.9,4.1-4.6,4.6-7.6h8.4
		c-1.1,5.8-3.6,10.2-7.5,13.1c-3.9,2.9-8.7,4.4-14.6,4.4c-3.7,0.1-7.3-0.6-10.8-2c-2.9-1.3-5.6-3.2-7.6-5.6
		c-2.1-2.5-3.7-5.4-4.6-8.6c-1.1-3.5-1.7-7.2-1.8-10.9c0-3.7,0.6-7.3,1.8-10.8c0.2-0.4,0.3-0.9,0.5-1.3l0,0L32.8,72.4l20.4,61.9h0.2
		L74,72.4h9.9l-25.4,71.4H47.7L22.6,72.4h10.2"/>
</g>
<g id="group-2">
	<g id="control-3" transform="translate( 224.8616180419922, 56.62936019897461)">
		<circle id="circle-4" class="st1" cx="-76" cy="36.5" r="4"/>
	</g>
	<g id="scrubber-6">
		<line id="line-7" class="st2" x1="104" y1="211.6" x2="492" y2="211.6"/>
		<g id="controlcircle-8" transform="translate( 409.696000000001, 175)">
			<circle id="circle-9" class="st1" cx="-76" cy="36.5" r="8.5"/>
		</g>
		<g id="group-13" transform="translate( 100, 175)">
			<circle id="circle-11" class="st3" cx="-76" cy="36.5" r="16"/>
			<path id="path-12" class="st1" d="M-68,36.5l-12-6.9v13.9L-68,36.5z"/>
		</g>
		<g id="group-16" transform="translate( 142, 175)">
			<circle id="circle-14" class="st3" cx="-76" cy="36.5" r="16"/>
			<path id="path-15" class="st4" d="M-79.5,31.5v10 M-72.5,31.5v10"/>
		</g>
	</g>
</g>
</svg>
