<svg id="f08549b6-310c-4c56-a5c9-2f6e57b03590" data-name="interactive-0" xmlns="http://www.w3.org/2000/svg" viewBox="0 0 664 364"><defs><style>.b16e9631-929a-40f8-813e-10ebb65910ab,.b268746a-8b88-4ce5-a0a9-9ef2656de824,.fe7ba121-6928-4f18-b724-f19e76bf6233{fill:none;stroke-miterlimit:10;}.b16e9631-929a-40f8-813e-10ebb65910ab{stroke:#ddd;}.b268746a-8b88-4ce5-a0a9-9ef2656de824,.fe7ba121-6928-4f18-b724-f19e76bf6233{stroke:#404040;}.fe7ba121-6928-4f18-b724-f19e76bf6233{stroke-dasharray:6;}.ad3622a3-61ed-443c-a551-15b63ada4923{fill:#404040;}</style></defs><title>cartesian-coordinate-system-2d</title><rect id="a5fd3d14-380e-416f-b805-84b81b744973" data-name="rectangle-88" class="b16e9631-929a-40f8-813e-10ebb65910ab" x="582" y="282" width="50" height="50"/><rect id="b70652e0-fa03-474a-acd1-346423999fdf" data-name="rectangle-87" class="b16e9631-929a-40f8-813e-10ebb65910ab" x="582" y="232" width="50" height="50"/><rect id="bd8aef84-0699-4cd9-b2ef-a810c0c63bc0" data-name="rectangle-86" class="b16e9631-929a-40f8-813e-10ebb65910ab" x="582" y="182" width="50" height="50"/><rect id="a8f539b7-69a3-4716-b644-8b666aa0d062" data-name="rectangle-85" class="b16e9631-929a-40f8-813e-10ebb65910ab" x="582" y="132" width="50" height="50"/><rect id="ed6d71ed-43f5-4677-9f54-435ef3eb3899" data-name="rectangle-84" class="b16e9631-929a-40f8-813e-10ebb65910ab" x="582" y="82" width="50" height="50"/><rect id="e57cc292-9bcf-4022-8fa5-bf37a68098e3" data-name="rectangle-83" class="b16e9631-929a-40f8-813e-10ebb65910ab" x="582" y="32" width="50" height="50"/><rect id="a8c6ef3a-0702-408e-83dd-3f74f1167efb" data-name="rectangle-82" class="b16e9631-929a-40f8-813e-10ebb65910ab" x="532" y="282" width="50" height="50"/><rect id="a19cae77-2def-4b8d-912b-2e9f14ade175" data-name="rectangle-81" class="b16e9631-929a-40f8-813e-10ebb65910ab" x="532" y="232" width="50" height="50"/><rect id="f91cbd1f-cb24-412b-a6f9-a23057445fe3" data-name="rectangle-80" class="b16e9631-929a-40f8-813e-10ebb65910ab" x="532" y="182" width="50" height="50"/><rect id="a54d8b7e-fa84-48df-a19e-829e9ecc4117" data-name="rectangle-79" class="b16e9631-929a-40f8-813e-10ebb65910ab" x="532" y="132" width="50" height="50"/><rect id="acac7e89-2a20-478b-9780-1d1c365c73cb" data-name="rectangle-78" class="b16e9631-929a-40f8-813e-10ebb65910ab" x="532" y="82" width="50" height="50"/><rect id="b4674ae9-a614-467d-a027-035056b717e1" data-name="rectangle-77" class="b16e9631-929a-40f8-813e-10ebb65910ab" x="532" y="32" width="50" height="50"/><rect id="a0c428db-d27b-4b8a-8372-dcff5e5e59ca" data-name="rectangle-76" class="b16e9631-929a-40f8-813e-10ebb65910ab" x="482" y="282" width="50" height="50"/><rect id="b272a7f0-5e46-4d01-b672-136c7c8215f3" data-name="rectangle-75" class="b16e9631-929a-40f8-813e-10ebb65910ab" x="482" y="232" width="50" height="50"/><rect id="f49a96f4-fee9-4777-8238-54a6f3769e48" data-name="rectangle-74" class="b16e9631-929a-40f8-813e-10ebb65910ab" x="482" y="182" width="50" height="50"/><rect id="ffd9849a-62a2-488e-9c94-85a076a7296f" data-name="rectangle-73" class="b16e9631-929a-40f8-813e-10ebb65910ab" x="482" y="132" width="50" height="50"/><rect id="bfa612c7-db54-4b8d-a887-b3fa284630ac" data-name="rectangle-72" class="b16e9631-929a-40f8-813e-10ebb65910ab" x="482" y="82" width="50" height="50"/><rect id="bab756dc-5886-4a99-846b-dcbe71c7460f" data-name="rectangle-71" class="b16e9631-929a-40f8-813e-10ebb65910ab" x="482" y="32" width="50" height="50"/><rect id="f84fb339-5ca2-4c3b-abc3-96d7a898ce11" data-name="rectangle-70" class="b16e9631-929a-40f8-813e-10ebb65910ab" x="432" y="282" width="50" height="50"/><rect id="a71ed599-cbb0-43c2-aa6c-8639e35f15a7" data-name="rectangle-69" class="b16e9631-929a-40f8-813e-10ebb65910ab" x="432" y="232" width="50" height="50"/><rect id="b5d0ae0b-ee8f-42b8-8abc-d776c59dcd53" data-name="rectangle-68" class="b16e9631-929a-40f8-813e-10ebb65910ab" x="432" y="182" width="50" height="50"/><rect id="f2c101a4-fc5c-4ec8-a769-bcf60687e0e6" data-name="rectangle-67" class="b16e9631-929a-40f8-813e-10ebb65910ab" x="432" y="132" width="50" height="50"/><rect id="bb4d224b-4b60-4ede-ba0f-b2872646001a" data-name="rectangle-66" class="b16e9631-929a-40f8-813e-10ebb65910ab" x="432" y="82" width="50" height="50"/><rect id="a7c24c09-6baf-4a8b-ae23-f11378f62e1e" data-name="rectangle-65" class="b16e9631-929a-40f8-813e-10ebb65910ab" x="432" y="32" width="50" height="50"/><rect id="e7e0aecb-f0d5-4edd-a6e6-31e6c7b5e9db" data-name="rectangle-64" class="b16e9631-929a-40f8-813e-10ebb65910ab" x="382" y="282" width="50" height="50"/><rect id="af055a52-65af-481f-ac58-1657a623dc0e" data-name="rectangle-63" class="b16e9631-929a-40f8-813e-10ebb65910ab" x="382" y="232" width="50" height="50"/><rect id="f0dc49f6-0711-46e4-bd29-c3699e68ce36" data-name="rectangle-62" class="b16e9631-929a-40f8-813e-10ebb65910ab" x="382" y="182" width="50" height="50"/><rect id="ab2713af-3585-4f17-bce2-ba06d1635dd7" data-name="rectangle-61" class="b16e9631-929a-40f8-813e-10ebb65910ab" x="382" y="132" width="50" height="50"/><rect id="beb54811-85c5-41b5-8c0a-e336ddd61fb5" data-name="rectangle-60" class="b16e9631-929a-40f8-813e-10ebb65910ab" x="382" y="82" width="50" height="50"/><rect id="fbd4d564-dba4-48b3-981d-bb5c821d3eeb" data-name="rectangle-59" class="b16e9631-929a-40f8-813e-10ebb65910ab" x="382" y="32" width="50" height="50"/><rect id="b17b8379-a431-4b18-901d-1435300e6633" data-name="rectangle-58" class="b16e9631-929a-40f8-813e-10ebb65910ab" x="332" y="282" width="50" height="50"/><rect id="a5d26a72-885a-4c6f-94a5-ac5d5795212a" data-name="rectangle-57" class="b16e9631-929a-40f8-813e-10ebb65910ab" x="332" y="232" width="50" height="50"/><rect id="b36f1f17-cbd6-4d5b-bc6f-819754f7ec19" data-name="rectangle-56" class="b16e9631-929a-40f8-813e-10ebb65910ab" x="332" y="182" width="50" height="50"/><rect id="a52b4297-5fec-4d99-8f11-c4b5eb5d7845" data-name="rectangle-55" class="b16e9631-929a-40f8-813e-10ebb65910ab" x="332" y="132" width="50" height="50"/><rect id="a8ce2163-3a2b-4894-a2ed-14a58f6eadb0" data-name="rectangle-54" class="b16e9631-929a-40f8-813e-10ebb65910ab" x="332" y="82" width="50" height="50"/><rect id="e59022de-4c1a-4b5c-abea-7f79b381ef43" data-name="rectangle-53" class="b16e9631-929a-40f8-813e-10ebb65910ab" x="332" y="32" width="50" height="50"/><rect id="bbeca5d8-8702-4507-8fc8-96bd63aa8bdf" data-name="rectangle-52" class="b16e9631-929a-40f8-813e-10ebb65910ab" x="282" y="282" width="50" height="50"/><rect id="b7f1ff5f-abc7-483f-bdc3-0ba0a0299e38" data-name="rectangle-51" class="b16e9631-929a-40f8-813e-10ebb65910ab" x="282" y="232" width="50" height="50"/><rect id="b5166aa4-a9fe-4c18-80f4-cb4689edd76c" data-name="rectangle-50" class="b16e9631-929a-40f8-813e-10ebb65910ab" x="282" y="182" width="50" height="50"/><rect id="e7b633ea-a78c-48cf-b3f7-0bd47056c682" data-name="rectangle-49" class="b16e9631-929a-40f8-813e-10ebb65910ab" x="282" y="132" width="50" height="50"/><rect id="b8964338-b952-4daa-a63a-53fc2989bce4" data-name="rectangle-48" class="b16e9631-929a-40f8-813e-10ebb65910ab" x="282" y="82" width="50" height="50"/><rect id="a466e1a6-0062-47b0-ad1d-2123e43891ea" data-name="rectangle-47" class="b16e9631-929a-40f8-813e-10ebb65910ab" x="282" y="32" width="50" height="50"/><rect id="b57790cc-a27d-4a78-af83-2aa7486b348c" data-name="rectangle-46" class="b16e9631-929a-40f8-813e-10ebb65910ab" x="232" y="282" width="50" height="50"/><rect id="a4905621-240d-4d4d-8891-b42b44e5ffc4" data-name="rectangle-45" class="b16e9631-929a-40f8-813e-10ebb65910ab" x="232" y="232" width="50" height="50"/><rect id="a6dc680a-a261-4411-a6a1-899b6dd7bbc5" data-name="rectangle-44" class="b16e9631-929a-40f8-813e-10ebb65910ab" x="232" y="182" width="50" height="50"/><rect id="b38232b0-c3dc-4f73-8d19-b1e1a8aa4b6f" data-name="rectangle-43" class="b16e9631-929a-40f8-813e-10ebb65910ab" x="232" y="132" width="50" height="50"/><rect id="a286f97f-5d9d-4d9d-b152-e88e1f17ef39" data-name="rectangle-42" class="b16e9631-929a-40f8-813e-10ebb65910ab" x="232" y="82" width="50" height="50"/><rect id="bb040928-ab9f-47ad-ac1c-8c4c36ce8dd0" data-name="rectangle-41" class="b16e9631-929a-40f8-813e-10ebb65910ab" x="232" y="32" width="50" height="50"/><rect id="fc09256c-ac08-48b0-b448-68d527cdf95c" data-name="rectangle-40" class="b16e9631-929a-40f8-813e-10ebb65910ab" x="182" y="282" width="50" height="50"/><rect id="b30e86f9-c260-4f0c-bdc8-18b07c92bf8c" data-name="rectangle-39" class="b16e9631-929a-40f8-813e-10ebb65910ab" x="182" y="232" width="50" height="50"/><rect id="b0e4680d-43fa-488a-9994-afacf4b96c26" data-name="rectangle-38" class="b16e9631-929a-40f8-813e-10ebb65910ab" x="182" y="182" width="50" height="50"/><rect id="babfdbc5-d217-40f1-9fa1-c39e9a33fa5c" data-name="rectangle-37" class="b16e9631-929a-40f8-813e-10ebb65910ab" x="182" y="132" width="50" height="50"/><rect id="aae77a6b-a7b5-4b54-b384-9924d670823e" data-name="rectangle-36" class="b16e9631-929a-40f8-813e-10ebb65910ab" x="182" y="82" width="50" height="50"/><rect id="ebe1a19d-d53e-4482-b5e8-8bf90db92cfb" data-name="rectangle-35" class="b16e9631-929a-40f8-813e-10ebb65910ab" x="182" y="32" width="50" height="50"/><rect id="b908805b-ead8-4b3d-9aa2-df2cb913451c" data-name="rectangle-34" class="b16e9631-929a-40f8-813e-10ebb65910ab" x="132" y="282" width="50" height="50"/><rect id="a33e9f46-1b91-4bb3-93ac-65c1f1ef85eb" data-name="rectangle-33" class="b16e9631-929a-40f8-813e-10ebb65910ab" x="132" y="232" width="50" height="50"/><rect id="ebb1daa0-e80e-42fb-9d59-b6eb893b9db2" data-name="rectangle-32" class="b16e9631-929a-40f8-813e-10ebb65910ab" x="132" y="182" width="50" height="50"/><rect id="e522a41a-8397-449f-9c6c-8aec892dcfc0" data-name="rectangle-31" class="b16e9631-929a-40f8-813e-10ebb65910ab" x="132" y="132" width="50" height="50"/><rect id="a9ea4c9e-632c-467c-b772-5e25fd5c61cd" data-name="rectangle-30" class="b16e9631-929a-40f8-813e-10ebb65910ab" x="132" y="82" width="50" height="50"/><rect id="a5011d32-546b-44e4-abc0-4a49af01005f" data-name="rectangle-29" class="b16e9631-929a-40f8-813e-10ebb65910ab" x="132" y="32" width="50" height="50"/><rect id="f8e74de9-bf84-4f9d-bbcf-b23f77790e62" data-name="rectangle-28" class="b16e9631-929a-40f8-813e-10ebb65910ab" x="82" y="282" width="50" height="50"/><rect id="a44fcdfa-bda0-48fd-8f39-884c2e90c7ee" data-name="rectangle-27" class="b16e9631-929a-40f8-813e-10ebb65910ab" x="82" y="232" width="50" height="50"/><rect id="bc90e1e3-cd29-4648-86d8-0137f4df873d" data-name="rectangle-26" class="b16e9631-929a-40f8-813e-10ebb65910ab" x="82" y="182" width="50" height="50"/><rect id="a2fa4bf0-b35d-4b8a-b49e-e83947a7e122" data-name="rectangle-25" class="b16e9631-929a-40f8-813e-10ebb65910ab" x="82" y="132" width="50" height="50"/><rect id="b8ad1fb7-c22f-4934-bc57-e41cf5d9e76e" data-name="rectangle-24" class="b16e9631-929a-40f8-813e-10ebb65910ab" x="82" y="82" width="50" height="50"/><rect id="a6d7be2c-50a3-47b2-8781-f62e45f3c01a" data-name="rectangle-23" class="b16e9631-929a-40f8-813e-10ebb65910ab" x="82" y="32" width="50" height="50"/><rect id="b3186b93-17e8-4d4c-8eb6-1bf479e5660a" data-name="rectangle-22" class="b16e9631-929a-40f8-813e-10ebb65910ab" x="32" y="282" width="50" height="50"/><rect id="fe571783-cee3-404a-82a1-a20fe9105363" data-name="rectangle-21" class="b16e9631-929a-40f8-813e-10ebb65910ab" x="32" y="232" width="50" height="50"/><rect id="b8c04c0c-4287-403f-b95d-5b6fd6c2403f" data-name="rectangle-20" class="b16e9631-929a-40f8-813e-10ebb65910ab" x="32" y="182" width="50" height="50"/><rect id="ec7d4238-76b0-4d0c-925d-0d811232c540" data-name="rectangle-19" class="b16e9631-929a-40f8-813e-10ebb65910ab" x="32" y="132" width="50" height="50"/><rect id="b782e8a9-5e07-466b-b6e0-d65eae313a5e" data-name="rectangle-18" class="b16e9631-929a-40f8-813e-10ebb65910ab" x="32" y="82" width="50" height="50"/><rect id="b18b5168-a870-4005-984f-2b543d1bd0c1" data-name="rectangle-17" class="b16e9631-929a-40f8-813e-10ebb65910ab" x="32" y="32" width="50" height="50"/><line id="efdcb67b-0e42-4092-b5d3-fba6745f20d8" data-name="line-15" class="fe7ba121-6928-4f18-b724-f19e76bf6233" x1="482" y1="182" x2="482" y2="82"/><line id="b7567b82-3395-4a13-ab40-6d55609ac69b" data-name="line-16" class="fe7ba121-6928-4f18-b724-f19e76bf6233" x1="332" y1="82" x2="482" y2="82"/><path id="adbdab13-738a-40d0-a2fa-f2630ad3a294" data-name="path-12" class="ad3622a3-61ed-443c-a551-15b63ada4923" d="M42,187l-10-5,10-5Z"/><path class="ad3622a3-61ed-443c-a551-15b63ada4923" d="M622,177l10,5-10,5Z"/><path class="ad3622a3-61ed-443c-a551-15b63ada4923" d="M327,42l5-10,5,10Z"/><path class="ad3622a3-61ed-443c-a551-15b63ada4923" d="M337,322l-5,10-5-10Z"/><rect id="f0ed36d4-c758-4191-a5df-a5e7952ca1e7" data-name="rectangle-8" class="b268746a-8b88-4ce5-a0a9-9ef2656de824" x="32" y="32" width="600" height="300"/><circle id="adb0296d-6726-418c-8101-b400431f1938" data-name="circle-9" class="ad3622a3-61ed-443c-a551-15b63ada4923" cx="332" cy="182" r="3"/><g id="a2e3acde-88b2-498d-b40d-09787630cde6" data-name="text-10"><path class="ad3622a3-61ed-443c-a551-15b63ada4923" d="M503,71.34c0,.11-.1.16-.32.16h-.23l-.51-.43q-3.24-3-3.24-8.57a14.81,14.81,0,0,1,.52-4,9.76,9.76,0,0,1,2.72-4.56l.29-.24.22-.19h.23a.5.5,0,0,1,.27,0,.15.15,0,0,1,.05.11c0,.05-.06.14-.19.27q-2.79,3-2.79,8.57t2.79,8.57C502.93,71.2,503,71.29,503,71.34Z"/><path class="ad3622a3-61ed-443c-a551-15b63ada4923" d="M506.29,58.67a1,1,0,0,1-.77-.31,1.15,1.15,0,0,1-.28-.79,2.16,2.16,0,0,1,.81-1.72,3.45,3.45,0,0,1,1.88-.82h.27c.42,0,.68,0,.79,0a4.07,4.07,0,0,1,1.2.38,2.67,2.67,0,0,1,1.5,1.69,2,2,0,0,1,.05.48,3,3,0,0,1-.66,1.9,3.57,3.57,0,0,1-1.64,1.2c-.06,0-.06,0,0,0a.69.69,0,0,0,.18.06A3.77,3.77,0,0,1,511.47,62a2.74,2.74,0,0,1,.76,1.9,3.22,3.22,0,0,1-.34,1.42,3.56,3.56,0,0,1-1.42,1.52,4,4,0,0,1-2.18.61,4.25,4.25,0,0,1-2.11-.51,2.53,2.53,0,0,1-1.24-1.35,2,2,0,0,1-.18-.88,1.08,1.08,0,0,1,.33-.82,1.21,1.21,0,0,1,1.63,0,1.09,1.09,0,0,1,.32.81,1.1,1.1,0,0,1-.86,1.12l-.13,0a3.41,3.41,0,0,0,2.24.81,1.61,1.61,0,0,0,1.49-1,4.2,4.2,0,0,0,.31-1.82v-.36a2.32,2.32,0,0,0-1.16-2.29,3.78,3.78,0,0,0-1.09-.12l-.76,0L507,61a.53.53,0,0,1,0-.28.45.45,0,0,1,.05-.27s.07-.06.09-.06a6.38,6.38,0,0,0,1.05-.09,1.54,1.54,0,0,0,1.2-.89,3.92,3.92,0,0,0,.42-1.88,1.73,1.73,0,0,0-.63-1.57,1.57,1.57,0,0,0-.85-.25,2.6,2.6,0,0,0-1.58.49.51.51,0,0,0-.16.12,1.06,1.06,0,0,0-.15.15l-.05.07.12,0a.83.83,0,0,1,.61.34,1.1,1.1,0,0,1,.24.7,1,1,0,0,1-.3.73A1,1,0,0,1,506.29,58.67Z"/><path class="ad3622a3-61ed-443c-a551-15b63ada4923" d="M514.73,66.69a1,1,0,0,1-.32-.77,1.07,1.07,0,0,1,.29-.77,1,1,0,0,1,.77-.33,1.06,1.06,0,0,1,1,.58,3,3,0,0,1,.31,1.46q0,.33,0,.63a5.18,5.18,0,0,1-1.32,2.75c-.17.17-.27.25-.32.25s-.13,0-.24-.16-.16-.19-.16-.23.06-.15.18-.27a4.25,4.25,0,0,0,1.23-2.78v-.21l-.11,0a1.21,1.21,0,0,1-.49.11A1.09,1.09,0,0,1,514.73,66.69Z"/><path class="ad3622a3-61ed-443c-a551-15b63ada4923" d="M520,59.28a1,1,0,0,1-.8-.33,1.12,1.12,0,0,1-.28-.79,2.93,2.93,0,0,1,1-2.22,3.28,3.28,0,0,1,2.35-.93,3.89,3.89,0,0,1,2.56.84A3.49,3.49,0,0,1,526.05,58a4.18,4.18,0,0,1,0,.59,3.39,3.39,0,0,1-.63,2,11.77,11.77,0,0,1-2,2.07c-.43.37-1,.93-1.8,1.66l-1.06,1h1.37a21.74,21.74,0,0,0,3-.09s.1-.13.18-.37.13-.54.25-1.23v0h.72v0l-.51,3.3v0h-6.67v-.34a1.52,1.52,0,0,1,0-.42l1.51-1.71q2-2.18,2.52-2.88a5.17,5.17,0,0,0,1.21-3,3.17,3.17,0,0,0-.62-2,2.09,2.09,0,0,0-1.74-.8,2,2,0,0,0-1.69.93,1.44,1.44,0,0,1-.11.2l0,.11s0,0,.09,0a.94.94,0,0,1,.73.32,1.17,1.17,0,0,1,.28.76,1.06,1.06,0,0,1-.3.76A1,1,0,0,1,520,59.28Z"/><path class="ad3622a3-61ed-443c-a551-15b63ada4923" d="M528.09,53.52l.07,0h.39l.51.43q3.24,3,3.24,8.57a14.52,14.52,0,0,1-.52,4,9.79,9.79,0,0,1-2.72,4.57l-.29.24-.22.19h-.21a.55.55,0,0,1-.28,0s-.06-.08-.06-.18l.19-.23Q531,68.16,531,62.5T528.19,54l-.19-.23A.2.2,0,0,1,528.09,53.52Z"/></g><g id="f8013c9c-2d4f-4d17-95d2-49091ca46b28" data-name="text-10"><path class="ad3622a3-61ed-443c-a551-15b63ada4923" d="M294.51,208.73c0,.11-.11.16-.33.16H294l-.5-.43c-2.16-2-3.24-4.82-3.24-8.57a14.42,14.42,0,0,1,.52-4,9.69,9.69,0,0,1,2.72-4.55l.28-.25.22-.19h.23q.22,0,.27.06a.14.14,0,0,1,.06.11s-.07.13-.2.27c-1.86,2-2.79,4.82-2.79,8.56s.93,6.6,2.79,8.57C294.44,208.59,294.51,208.68,294.51,208.73Z"/><path class="ad3622a3-61ed-443c-a551-15b63ada4923" d="M297.24,193.86a3.19,3.19,0,0,1,2.76-1.45,3.32,3.32,0,0,1,2.3.9,3.85,3.85,0,0,1,.83,1.22,10.35,10.35,0,0,1,.67,4.1,9.31,9.31,0,0,1-.78,4.27,3.09,3.09,0,0,1-1.47,1.51,3.46,3.46,0,0,1-1.53.38,3.18,3.18,0,0,1-3-1.89,9.46,9.46,0,0,1-.77-4.27,14.11,14.11,0,0,1,.22-2.76A6.27,6.27,0,0,1,297.24,193.86Zm4.05-.21a1.62,1.62,0,0,0-1.27-.58,1.7,1.7,0,0,0-1.3.58,2.2,2.2,0,0,0-.54,1,10.38,10.38,0,0,0-.18,2.05c0,.07,0,.3,0,.7s0,.73,0,1c0,1.15,0,2,0,2.41a11.22,11.22,0,0,0,.21,1.81,2.15,2.15,0,0,0,.54.95,1.61,1.61,0,0,0,1.25.54,1.57,1.57,0,0,0,1.22-.54,2.15,2.15,0,0,0,.54-.95,9.94,9.94,0,0,0,.22-1.81c0-.45,0-1.26,0-2.41,0-.26,0-.59,0-1s0-.63,0-.7a10.38,10.38,0,0,0-.18-2.05A2,2,0,0,0,301.29,193.65Z"/><path class="ad3622a3-61ed-443c-a551-15b63ada4923" d="M306.24,204.08a1.06,1.06,0,0,1-.32-.77,1.1,1.1,0,0,1,.3-.77,1,1,0,0,1,.76-.32,1.06,1.06,0,0,1,1,.57,3,3,0,0,1,.32,1.46,5.9,5.9,0,0,1,0,.63,5.17,5.17,0,0,1-1.31,2.75c-.17.17-.28.26-.33.26s-.12-.06-.23-.17-.16-.18-.16-.23.06-.15.18-.27a4.23,4.23,0,0,0,1.22-2.77v-.22l-.11.06a1.15,1.15,0,0,1-.48.1A1.1,1.1,0,0,1,306.24,204.08Z"/><path class="ad3622a3-61ed-443c-a551-15b63ada4923" d="M311.25,193.86a3.17,3.17,0,0,1,2.75-1.45,3.33,3.33,0,0,1,2.31.9,3.84,3.84,0,0,1,.82,1.22,10.17,10.17,0,0,1,.67,4.1,9.46,9.46,0,0,1-.77,4.27,3.11,3.11,0,0,1-1.48,1.51,3.39,3.39,0,0,1-1.53.38,3.16,3.16,0,0,1-3-1.89,9.31,9.31,0,0,1-.78-4.27,14,14,0,0,1,.23-2.76A6,6,0,0,1,311.25,193.86Zm4.05-.21a1.66,1.66,0,0,0-1.28-.58,1.71,1.71,0,0,0-1.3.58,2.2,2.2,0,0,0-.54,1,12.24,12.24,0,0,0-.18,2.05v.7c0,.4,0,.73,0,1,0,1.15,0,2,0,2.41a9.94,9.94,0,0,0,.22,1.81,2,2,0,0,0,.54.95,1.59,1.59,0,0,0,1.24.54,1.57,1.57,0,0,0,1.22-.54,2,2,0,0,0,.54-.95,9.94,9.94,0,0,0,.22-1.81c0-.45,0-1.26,0-2.41,0-.26,0-.59,0-1s0-.63,0-.7a12.24,12.24,0,0,0-.18-2.05A2.2,2.2,0,0,0,315.3,193.65Z"/><path class="ad3622a3-61ed-443c-a551-15b63ada4923" d="M319.6,190.91l.07,0h.4l.5.44c2.16,2,3.24,4.82,3.24,8.56a14.15,14.15,0,0,1-.52,4,9.66,9.66,0,0,1-2.72,4.57l-.29.25-.21.18h-.22a.81.81,0,0,1-.28,0,.22.22,0,0,1-.06-.18l.2-.24q2.79-2.9,2.79-8.55t-2.79-8.55l-.2-.23A.22.22,0,0,1,319.6,190.91Z"/></g><g id="ba6943f5-c545-4e08-9a2f-fa09e3b98253" data-name="text-13"><path class="ad3622a3-61ed-443c-a551-15b63ada4923" d="M648,181a.31.31,0,0,1-.1-.2,3.24,3.24,0,0,1,.55-1.24,3.09,3.09,0,0,1,2.13-1.48l.38,0a2.17,2.17,0,0,1,1.16.33,1.84,1.84,0,0,1,.76.81l.29-.38a2,2,0,0,1,1.53-.76,1.73,1.73,0,0,1,1.2.43,1.36,1.36,0,0,1,.46,1,1.43,1.43,0,0,1-.32.94,1,1,0,0,1-.84.38.79.79,0,0,1-.55-.2.66.66,0,0,1-.22-.52,1.15,1.15,0,0,1,.9-1.14,1.16,1.16,0,0,0-.72-.23,1.35,1.35,0,0,0-.34,0,1.91,1.91,0,0,0-1,1.19c0,.1-.21.77-.52,2s-.48,1.94-.51,2.1a3.29,3.29,0,0,0,0,.54.92.92,0,0,0,.25.68.9.9,0,0,0,.67.25,1.86,1.86,0,0,0,1.37-.64,3.27,3.27,0,0,0,.82-1.41.46.46,0,0,1,.11-.21.91.91,0,0,1,.29,0c.23,0,.34,0,.34.14s0,.08,0,.2a4,4,0,0,1-1.26,1.94,2.83,2.83,0,0,1-1.79.67,2.06,2.06,0,0,1-1.9-1.14,2.54,2.54,0,0,1-1.34,1.08,1.81,1.81,0,0,1-.46,0,1.58,1.58,0,0,1-1.48-.74,1.37,1.37,0,0,1-.18-.72,1.41,1.41,0,0,1,.32-.92,1.06,1.06,0,0,1,.83-.37q.78,0,.78.75a1,1,0,0,1-.63,1l-.09,0-.09,0-.06,0-.05,0s.09.09.27.16a1.19,1.19,0,0,0,.47.09,1.32,1.32,0,0,0,1.11-.81,12.92,12.92,0,0,0,.7-2.34c.08-.27.15-.58.24-.92s.14-.59.19-.77.07-.29.08-.32a4.46,4.46,0,0,0,.09-.71,1,1,0,0,0-.24-.68.81.81,0,0,0-.64-.25,1.91,1.91,0,0,0-1.41.62,3.5,3.5,0,0,0-.83,1.43.3.3,0,0,1-.08.19.77.77,0,0,1-.29,0Z"/></g><g id="a9f0b1a2-f1da-4379-ba51-fbd8d0f576bc" data-name="text-14"><path class="ad3622a3-61ed-443c-a551-15b63ada4923" d="M335.32,11.24a.71.71,0,0,1,.43.14.43.43,0,0,1,.18.37c0,.15-.3,1.41-.88,3.78s-.93,3.66-1,3.88a4.6,4.6,0,0,1-.93,1.63,4.8,4.8,0,0,1-1.48,1.18,4.28,4.28,0,0,1-1.82.47,2,2,0,0,1-1.86-.86,1.24,1.24,0,0,1-.18-.72,1.3,1.3,0,0,1,.35-1,1.14,1.14,0,0,1,.79-.34c.53,0,.79.25.79.76a1,1,0,0,1-.63,1l-.09,0-.09.05-.05,0h-.06c0,.08.16.15.38.24a1.66,1.66,0,0,0,.58.11h.14a2.64,2.64,0,0,0,.47,0,2.71,2.71,0,0,0,1.29-.92,5,5,0,0,0,.94-1.73,4.18,4.18,0,0,0,.2-.7s0,0,0,0l-.11.08a2.39,2.39,0,0,1-1.47.49,2.55,2.55,0,0,1-1.51-.43,2,2,0,0,1-.78-1.25,5.42,5.42,0,0,1,0-.55,5.31,5.31,0,0,1,0-.67,15.92,15.92,0,0,1,.83-2.65,5.19,5.19,0,0,0,.39-1.47.94.94,0,0,0,0-.35c0-.07-.1-.1-.21-.1h-.09a1.09,1.09,0,0,0-.79.38,3.76,3.76,0,0,0-.88,1.72.25.25,0,0,1,0,.07s0,0,0,0l0,0L328,14h-.47c-.08-.08-.11-.13-.11-.17a2,2,0,0,1,.05-.25,4.23,4.23,0,0,1,1.14-2,1.85,1.85,0,0,1,1.27-.58,1.7,1.7,0,0,1,1.21.42,1.48,1.48,0,0,1,.45,1.15,2.57,2.57,0,0,1-.05.38,4,4,0,0,1-.27.77,16.86,16.86,0,0,0-.89,2.94c0,.09,0,.23,0,.41a2.07,2.07,0,0,0,.21,1,.83.83,0,0,0,.79.36,1.58,1.58,0,0,0,.79-.21,2.78,2.78,0,0,0,.55-.42q.19-.21.48-.57s0-.14.09-.37.15-.59.26-1.05l.34-1.34q.68-2.7.75-2.82A.81.81,0,0,1,335.32,11.24Z"/></g><g id="e4483325-833a-4a69-8c8a-4a41b01a8047" data-name="group-2"><g id="f0b36da2-aa2e-43d2-98d0-a48a2234272a" data-name="control-3"><circle id="e64f7c3b-77e0-4dce-9811-0f028b674a0b" data-name="circle-4" class="ad3622a3-61ed-443c-a551-15b63ada4923" cx="482" cy="82" r="3"/></g></g><line class="b268746a-8b88-4ce5-a0a9-9ef2656de824" x1="32" y1="182" x2="632" y2="182"/><line class="b268746a-8b88-4ce5-a0a9-9ef2656de824" x1="332" y1="32" x2="332" y2="332"/></svg>