<svg id="ab3cb693-70f8-4d13-a052-50ffa7d4d33a" data-name="Layer 1" xmlns="http://www.w3.org/2000/svg" viewBox="0 0 600 300"><defs><style>.a1291f97-666d-4975-b47e-48ad83ebad9d,.adba25d0-56de-468c-8aa0-983bf802f8e8,.eeae8be3-3306-4e94-9787-4c3d667e3231,.fc1012cf-edad-4b71-bc0b-993364f0ca87{fill:none;}.a1291f97-666d-4975-b47e-48ad83ebad9d{stroke:#ccc;}.a1291f97-666d-4975-b47e-48ad83ebad9d,.be675a66-dd5a-4f27-b7ec-1b026e3dc6b6,.eeae8be3-3306-4e94-9787-4c3d667e3231,.fc1012cf-edad-4b71-bc0b-993364f0ca87{stroke-miterlimit:10;}.adba25d0-56de-468c-8aa0-983bf802f8e8{stroke:#404040;}.e4076b27-3349-49d8-8557-c22541c64c76{fill:#404040;}.be675a66-dd5a-4f27-b7ec-1b026e3dc6b6,.fc922b9b-5a0e-445c-a202-8ea8d41160a0{fill:#f8f8f8;}.be675a66-dd5a-4f27-b7ec-1b026e3dc6b6,.eeae8be3-3306-4e94-9787-4c3d667e3231,.fc1012cf-edad-4b71-bc0b-993364f0ca87{stroke:#333;}.eeae8be3-3306-4e94-9787-4c3d667e3231{stroke-linecap:round;}</style></defs><title>cartesian-coordinate-system</title><rect class="a1291f97-666d-4975-b47e-48ad83ebad9d" width="100" height="300"/><rect class="a1291f97-666d-4975-b47e-48ad83ebad9d" x="100" width="100" height="300"/><rect class="a1291f97-666d-4975-b47e-48ad83ebad9d" x="200" width="100" height="300"/><rect class="a1291f97-666d-4975-b47e-48ad83ebad9d" x="300" width="100" height="300"/><rect class="a1291f97-666d-4975-b47e-48ad83ebad9d" x="50" width="100" height="300"/><rect class="a1291f97-666d-4975-b47e-48ad83ebad9d" x="250" width="100" height="300"/><rect class="a1291f97-666d-4975-b47e-48ad83ebad9d" x="350" width="100" height="300"/><rect class="a1291f97-666d-4975-b47e-48ad83ebad9d" x="400" width="100" height="300"/><rect class="a1291f97-666d-4975-b47e-48ad83ebad9d" x="450" width="100" height="300"/><rect class="a1291f97-666d-4975-b47e-48ad83ebad9d" x="250" y="-50" width="100" height="600" transform="translate(550 -50) rotate(90)"/><rect class="a1291f97-666d-4975-b47e-48ad83ebad9d" x="250" y="-250" width="100" height="600" transform="translate(350 -250) rotate(90)"/><rect class="a1291f97-666d-4975-b47e-48ad83ebad9d" x="250" y="-200" width="100" height="600" transform="translate(400 -200) rotate(90)"/><rect class="a1291f97-666d-4975-b47e-48ad83ebad9d" x="250" y="-100" width="100" height="600" transform="translate(500 -100) rotate(90)"/><g id="ea291b7d-fbeb-467c-90b2-cd93d744ff1e" data-name="Path-3"><line class="adba25d0-56de-468c-8aa0-983bf802f8e8" x1="10.76" y1="150" x2="589.24" y2="150"/><polygon class="e4076b27-3349-49d8-8557-c22541c64c76" points="12.95 157.48 0 150 12.95 142.52 12.95 157.48"/><polygon class="e4076b27-3349-49d8-8557-c22541c64c76" points="587.05 157.48 600 150 587.05 142.52 587.05 157.48"/></g><g id="a5bb89ae-f994-4e66-9670-e66d35aec873" data-name="Path-3"><line class="adba25d0-56de-468c-8aa0-983bf802f8e8" x1="300" y1="289.24" x2="300" y2="10.76"/><polygon class="e4076b27-3349-49d8-8557-c22541c64c76" points="307.48 287.05 300 300 292.52 287.05 307.48 287.05"/><polygon class="e4076b27-3349-49d8-8557-c22541c64c76" points="307.48 12.95 300 0 292.52 12.95 307.48 12.95"/></g><circle class="be675a66-dd5a-4f27-b7ec-1b026e3dc6b6" cx="575" cy="275" r="16"/><polyline class="fc1012cf-edad-4b71-bc0b-993364f0ca87" points="568 272.11 568 268 572.11 268"/><polyline class="fc1012cf-edad-4b71-bc0b-993364f0ca87" points="577.89 268 582 268 582 273.11"/><polyline class="fc1012cf-edad-4b71-bc0b-993364f0ca87" points="572.11 282 568 282 568 277.89"/><polyline class="fc1012cf-edad-4b71-bc0b-993364f0ca87" points="582 277.89 582 282 577.89 282"/><rect class="fc922b9b-5a0e-445c-a202-8ea8d41160a0" x="563" y="11.49" width="24" height="48" rx="3"/><rect class="fc1012cf-edad-4b71-bc0b-993364f0ca87" x="563" y="11.49" width="24" height="48" rx="3"/><line class="eeae8be3-3306-4e94-9787-4c3d667e3231" x1="581" y1="23.49" x2="569" y2="23.49"/><line class="eeae8be3-3306-4e94-9787-4c3d667e3231" x1="575" y1="29.49" x2="575" y2="17.49"/><line class="eeae8be3-3306-4e94-9787-4c3d667e3231" x1="581" y1="47.49" x2="569" y2="47.49"/><line class="be675a66-dd5a-4f27-b7ec-1b026e3dc6b6" x1="587" y1="35.49" x2="563" y2="35.49"/></svg>