<svg id="bf055426-2ee5-4068-871a-a62ce9761f3c" data-name="Layer 1" xmlns="http://www.w3.org/2000/svg" width="600" height="300" viewBox="0 0 600 300"><defs><style>.ae5fc26c-ccdb-43ac-9a91-423b643d2a2f,.b334878b-3ead-4e2c-88c8-2401b181d3a4{fill:none;stroke:#404040;stroke-linecap:round;}.ae5fc26c-ccdb-43ac-9a91-423b643d2a2f,.b334878b-3ead-4e2c-88c8-2401b181d3a4,.ff0b6b39-0b9f-4529-8320-5501c9042de2{stroke-miterlimit:10;}.a419c8fe-86de-4e93-8b4b-13d949edfd17{fill:#404040;}.ff0b6b39-0b9f-4529-8320-5501c9042de2{fill:#f8f8f8;stroke:#555;}.a6add148-cc69-4744-9288-12e87ccd3574{fill:#333;}.b334878b-3ead-4e2c-88c8-2401b181d3a4{stroke-width:1.5px;}</style></defs><title>exponential-growth</title><line class="ae5fc26c-ccdb-43ac-9a91-423b643d2a2f" x1="75" y1="275" x2="575" y2="275"/><circle class="a419c8fe-86de-4e93-8b4b-13d949edfd17" cx="166.48" cy="275" r="6"/><circle class="ff0b6b39-0b9f-4529-8320-5501c9042de2" cx="164.44" cy="106.21" r="6.5"/><circle class="ff0b6b39-0b9f-4529-8320-5501c9042de2" cx="162.89" cy="119.21" r="6.5"/><circle class="ff0b6b39-0b9f-4529-8320-5501c9042de2" cx="175" cy="98.18" r="6.5"/><circle class="ff0b6b39-0b9f-4529-8320-5501c9042de2" cx="175" cy="113.92" r="6.5"/><circle class="ff0b6b39-0b9f-4529-8320-5501c9042de2" cx="187" cy="103.68" r="6.5"/><circle class="ff0b6b39-0b9f-4529-8320-5501c9042de2" cx="198.57" cy="97.18" r="6.5"/><circle class="ff0b6b39-0b9f-4529-8320-5501c9042de2" cx="266.36" cy="125.71" r="6.5"/><circle class="ff0b6b39-0b9f-4529-8320-5501c9042de2" cx="269.77" cy="106.21" r="6.5"/><circle class="ff0b6b39-0b9f-4529-8320-5501c9042de2" cx="282.77" cy="71.18" r="6.5"/><circle class="ff0b6b39-0b9f-4529-8320-5501c9042de2" cx="271.77" cy="64.68" r="6.5"/><circle class="ff0b6b39-0b9f-4529-8320-5501c9042de2" cx="259.86" cy="97.18" r="6.5"/><circle class="ff0b6b39-0b9f-4529-8320-5501c9042de2" cx="256.77" cy="84.18" r="6.5"/><circle class="ff0b6b39-0b9f-4529-8320-5501c9042de2" cx="243.77" cy="86.67" r="6.5"/><circle class="ff0b6b39-0b9f-4529-8320-5501c9042de2" cx="263.27" cy="138.71" r="6.5"/><circle class="ff0b6b39-0b9f-4529-8320-5501c9042de2" cx="279.36" cy="120.42" r="6.5"/><circle class="ff0b6b39-0b9f-4529-8320-5501c9042de2" cx="327.88" cy="84.18" r="6.5"/><rect class="ff0b6b39-0b9f-4529-8320-5501c9042de2" x="415" y="168.2" width="160" height="83.91"/><path class="a6add148-cc69-4744-9288-12e87ccd3574" d="M446.34,194.69h.24c.44,0,.71-.08.8-.23v-1c0-.2,0-.42,0-.67v-4.77c0-.33,0-.64,0-.91v-.93a.58.58,0,0,0-.25-.43,2,2,0,0,0-.76-.15h-.3v-.39q0-.39,0-.39l.17,0,.49,0,.63,0,.63-.05.51,0,.19,0h0v.45l0,.44.13-.12a3.92,3.92,0,0,1,2.35-.75,3.39,3.39,0,0,1,.54,0,3.26,3.26,0,0,1,2,1.28,4,4,0,0,1,.8,2.52,5.41,5.41,0,0,1,0,.59,3.84,3.84,0,0,1-2.52,3.09,3.12,3.12,0,0,1-1.05.17,3.05,3.05,0,0,1-2-.74l-.14-.12v1.44c0,1,0,1.49,0,1.52a.32.32,0,0,0,.2.18,5.21,5.21,0,0,0,.83.05h.28v.79H450a30.27,30.27,0,0,0-3.81,0h-.13v-.79Zm6.59-6.22a4.13,4.13,0,0,0-.51-2.07,1.91,1.91,0,0,0-1.27-1h-.24a2.62,2.62,0,0,0-2.09,1.11v4.06a2.13,2.13,0,0,0,1.9,1.23,1.74,1.74,0,0,0,1.3-.63A3.67,3.67,0,0,0,452.93,188.47Z"/><path class="a6add148-cc69-4744-9288-12e87ccd3574" d="M455.65,188.54a3.87,3.87,0,0,1,1-2.66A3.69,3.69,0,0,1,459,184.6a2.72,2.72,0,0,1,.43,0,3.52,3.52,0,0,1,2.57,1.09,3.92,3.92,0,0,1,1.19,2.87,4.16,4.16,0,0,1-.09.8,3.62,3.62,0,0,1-1,1.86,3.78,3.78,0,0,1-1.83,1.07,3.87,3.87,0,0,1-.88.1,4,4,0,0,1-.9-.1,3.81,3.81,0,0,1-2.88-3.71Zm4.08-3.33-.27,0a2.48,2.48,0,0,0-1,.2,2.27,2.27,0,0,0-1.14,1.86c0,.2,0,.56,0,1.09a5.91,5.91,0,0,0,.32,2.29,1.88,1.88,0,0,0,1.79,1c1.38,0,2.07-.93,2.07-2.77v-.55a9.35,9.35,0,0,0-.08-1.49A2,2,0,0,0,459.73,185.21Z"/><path class="a6add148-cc69-4744-9288-12e87ccd3574" d="M464.29,194.69h.24c.44,0,.71-.08.8-.23V194c0-.14,0-.31,0-.5v-6.35c0-.28,0-.5,0-.67v-.26a.58.58,0,0,0-.25-.43,2,2,0,0,0-.75-.15H464v-.39q0-.39,0-.39l.17,0,.5,0,.62,0,.63-.05.51,0,.19,0h.05v.45l0,.44.13-.12a3.94,3.94,0,0,1,2.35-.75,3.39,3.39,0,0,1,.54,0,3.26,3.26,0,0,1,2,1.28,4,4,0,0,1,.8,2.52,5.41,5.41,0,0,1,0,.59,3.78,3.78,0,0,1-.83,1.9,3.83,3.83,0,0,1-1.69,1.19,3.12,3.12,0,0,1-1.05.17,3.05,3.05,0,0,1-2-.74l-.14-.12v1.44c0,1,0,1.49,0,1.52a.32.32,0,0,0,.2.18,5.27,5.27,0,0,0,.84.05h.27v.79H468a14.47,14.47,0,0,0-1.9-.06,14.8,14.8,0,0,0-1.91.06H464v-.79Zm6.6-6.22a4.13,4.13,0,0,0-.52-2.07,1.91,1.91,0,0,0-1.27-1h-.24a2.62,2.62,0,0,0-2.09,1.11v4.06a2.13,2.13,0,0,0,1.91,1.23,1.74,1.74,0,0,0,1.29-.63A3.67,3.67,0,0,0,470.89,188.47Z"/><path class="a6add148-cc69-4744-9288-12e87ccd3574" d="M474.92,184.77l.62-.05.52,0,.2,0h.05v3.08c0,2.09,0,3.16,0,3.23a1,1,0,0,0,.26.53,1.76,1.76,0,0,0,1,.24,1.9,1.9,0,0,0,.8-.16,2.14,2.14,0,0,0,1.15-1.85s0-.11,0-.29,0-.41,0-.69v-2.27l0-.27a.54.54,0,0,0-.24-.43,2,2,0,0,0-.76-.15h-.31v-.78l1.31-.08,1.33-.11H481v3c0,2,0,3.08,0,3.11a.55.55,0,0,0,.24.45,2.18,2.18,0,0,0,.76.15h.3v.78l-1.27.08-1.31.1h-.12v-1.17a2.76,2.76,0,0,1-1.38,1,2.63,2.63,0,0,1-.9.12,3.07,3.07,0,0,1-1.68-.4,1.88,1.88,0,0,1-.76-1.29c0-.07,0-.85,0-2.32,0-1.24,0-1.93,0-2.08a.76.76,0,0,0-.1-.36q-.17-.27-1-.27h-.18v-.39q0-.39,0-.39l.19,0,.49,0Z"/><path class="a6add148-cc69-4744-9288-12e87ccd3574" d="M483.3,191.4h.24c.44,0,.7-.08.79-.24v-.53c0-.16,0-.35,0-.56s0-.46,0-.74V184c0-.37,0-.71,0-1s0-.55,0-.73v-.29a.56.56,0,0,0-.24-.44,2,2,0,0,0-.76-.14H483V181q0-.39,0-.39l.17,0,.49,0,.63,0,.63,0,.51,0,.19,0h.05v5.35c0,3.6,0,5.4,0,5.43a.32.32,0,0,0,.2.18,5,5,0,0,0,.83.06h.27v.78h-.13a16.71,16.71,0,0,0-1.87-.05,15.61,15.61,0,0,0-1.89.05H483v-.78Z"/><path class="a6add148-cc69-4744-9288-12e87ccd3574" d="M489.94,186.72a.9.9,0,0,1-.66.27.86.86,0,0,1-.65-.27.91.91,0,0,1-.25-.65,1.24,1.24,0,0,1,.14-.54,1.48,1.48,0,0,1,.88-.71,4.49,4.49,0,0,1,1.61-.26,3.63,3.63,0,0,1,1.95.51A2.37,2.37,0,0,1,494,186.4a1.47,1.47,0,0,1,.09.53c0,.2,0,.85,0,1.95s0,1.76,0,2a1.15,1.15,0,0,0,.09.43.36.36,0,0,0,.34.24.35.35,0,0,0,.33-.24,2.61,2.61,0,0,0,.1-.94v-.61h.68v.67a5.36,5.36,0,0,1-.05.79,1.56,1.56,0,0,1-1.53,1.11,1.11,1.11,0,0,1-.76-.3,1.52,1.52,0,0,1-.45-.72v-.07l-.2.23-.22.25a3,3,0,0,1-1.94.69A3.26,3.26,0,0,1,489,192a1.91,1.91,0,0,1-.94-1,1.63,1.63,0,0,1-.13-.64,2,2,0,0,1,.66-1.46,3.11,3.11,0,0,1,1-.65,8.4,8.4,0,0,1,3-.63h.23v-.37a2.53,2.53,0,0,0-.1-.85,1.69,1.69,0,0,0-.59-.89,1.75,1.75,0,0,0-1.06-.32c-.76,0-1.14.05-1.14.14a.85.85,0,0,1,.38.74A.92.92,0,0,1,489.94,186.72Zm2.77,2.48c0-.65,0-1,0-1h-.09c-1.55.11-2.54.56-3,1.38a1.52,1.52,0,0,0-.19.77,1.28,1.28,0,0,0,.41,1,1.35,1.35,0,0,0,1,.4,1.79,1.79,0,0,0,1.17-.41,1.9,1.9,0,0,0,.63-1A7.54,7.54,0,0,0,492.71,189.2Z"/><path class="a6add148-cc69-4744-9288-12e87ccd3574" d="M498.21,182v-.26h.68v3.13h2.29v.78h-2.29v2.45c0,1.42,0,2.22,0,2.41a1.62,1.62,0,0,0,.11.53.86.86,0,0,0,.83.66c.5,0,.81-.4.92-1.2,0-.09,0-.35,0-.78v-.6h.68v.6a4.9,4.9,0,0,1-.09,1.12,2.27,2.27,0,0,1-.63,1.1,1.63,1.63,0,0,1-1.18.43,1.94,1.94,0,0,1-2.1-1.87c0-.08,0-.92,0-2.52v-2.33h-1.35V185h.16a1.55,1.55,0,0,0,1.07-.54A3.77,3.77,0,0,0,498.21,182Z"/><path class="a6add148-cc69-4744-9288-12e87ccd3574" d="M506.62,192.18a13.24,13.24,0,0,0-1.77-.05,16.24,16.24,0,0,0-1.85.05h-.14v-.78h.28a5.13,5.13,0,0,0,.83-.06.32.32,0,0,0,.2-.18s0-.85,0-2.47a22.1,22.1,0,0,0-.07-2.72c-.09-.22-.42-.34-1-.34h-.19v-.39c0-.26,0-.39,0-.39l.17,0,.47,0,.61,0,.62-.05.49,0,.19,0h.05v6.46a.37.37,0,0,0,.2.22,4.63,4.63,0,0,0,.6.06h.39v.78Zm-2-11.38a1.21,1.21,0,0,1,.7.3,1,1,0,0,1,.27.72.92.92,0,0,1-.46.87,1,1,0,0,1-.54.15,1,1,0,0,1-.57-.15.92.92,0,0,1-.46-.87,1,1,0,0,1,.3-.74A1.09,1.09,0,0,1,504.65,180.8Z"/><path class="a6add148-cc69-4744-9288-12e87ccd3574" d="M507.62,188.54a3.87,3.87,0,0,1,1-2.66A3.67,3.67,0,0,1,511,184.6a2.72,2.72,0,0,1,.43,0,3.48,3.48,0,0,1,2.56,1.09,3.88,3.88,0,0,1,1.19,2.87,4.08,4.08,0,0,1-.08.8,3.62,3.62,0,0,1-1,1.86,3.82,3.82,0,0,1-1.83,1.07,3.87,3.87,0,0,1-.88.1,4,4,0,0,1-.9-.1,3.81,3.81,0,0,1-2.88-3.71Zm4.08-3.33-.27,0a2.48,2.48,0,0,0-1,.2,2.27,2.27,0,0,0-1.14,1.86c0,.2,0,.56,0,1.09a5.91,5.91,0,0,0,.32,2.29,1.87,1.87,0,0,0,1.79,1c1.38,0,2.07-.93,2.07-2.77v-.55a9.35,9.35,0,0,0-.08-1.49A2,2,0,0,0,511.7,185.21Z"/><path class="a6add148-cc69-4744-9288-12e87ccd3574" d="M518.84,191.16c.09.16.36.24.8.24h.51v.78H520a15.94,15.94,0,0,0-1.91-.05,15.71,15.71,0,0,0-1.9.05h-.14v-.78h.51c.44,0,.71-.08.8-.24v-.53c0-.16,0-.34,0-.54s0-.41,0-.66v-.7c0-.35,0-.73,0-1.13s0-.74,0-1v-.39a.55.55,0,0,0-.25-.43,2,2,0,0,0-.75-.15h-.31v-.39c0-.26,0-.39,0-.39l.17,0,.48,0,.62,0,.61-.05.5,0,.18,0h.05v.68a4.59,4.59,0,0,0,0,.65l0,0a3,3,0,0,1,2.6-1.31,2,2,0,0,1,2.16,1.92c0,.08,0,.87,0,2.37s0,2.18,0,2.21a.37.37,0,0,0,.21.18,5,5,0,0,0,.83.06h.27v.78h-.13a15.94,15.94,0,0,0-1.91-.05,15.6,15.6,0,0,0-1.9.05h-.14v-.78h.41c.6,0,.9-.1.9-.28,0,0,0-.8,0-2.34s0-2.34,0-2.43a1.43,1.43,0,0,0-.38-.79,1.12,1.12,0,0,0-.81-.25,1.83,1.83,0,0,0-1.34.58,2.4,2.4,0,0,0-.7,1.49v.32c0,.2,0,.45,0,.75v1.91c0,.15,0,.28,0,.4v.4Z"/><path class="a6add148-cc69-4744-9288-12e87ccd3574" d="M530.3,186.28a.37.37,0,0,1,.24-.34h10.83a.36.36,0,0,1,.25.34.39.39,0,0,1-.23.32l-5.41,0h-5.41A.34.34,0,0,1,530.3,186.28Zm0,3.3a.33.33,0,0,1,.27-.34h10.82l.07.06.09.06.05.09a.27.27,0,0,1,0,.13.37.37,0,0,1-.25.34H530.54A.38.38,0,0,1,530.3,189.58Z"/><path class="a6add148-cc69-4744-9288-12e87ccd3574" d="M553.9,192.18c-.2,0-1.1-.05-2.71-.05s-2.47,0-2.66.05h-.21v-.78h.44a8.19,8.19,0,0,0,1.28-.06,1,1,0,0,0,.41-.2v-8.79a.47.47,0,0,0-.14.05,5,5,0,0,1-1.75.33h-.32v-.79h.32a4.79,4.79,0,0,0,2.38-.64,3.16,3.16,0,0,0,.53-.39s.09,0,.2,0a.43.43,0,0,1,.29.1V186l0,5.1a1.62,1.62,0,0,0,1.1.26h1v.78Z"/><path class="a6add148-cc69-4744-9288-12e87ccd3574" d="M561.67,182a1.58,1.58,0,0,0-1.06-.42,2.45,2.45,0,0,0-2,1,5.9,5.9,0,0,0-.8,3.43l0,.07.14-.22a2.16,2.16,0,0,1,1.88-1,2.79,2.79,0,0,1,1.38.32,3.58,3.58,0,0,1,.82.69,4.32,4.32,0,0,1,.66,1,4.51,4.51,0,0,1,.36,1.82v.3a2.81,2.81,0,0,1-.09.73,3.83,3.83,0,0,1-1,1.89,3.09,3.09,0,0,1-1.63.95,2.68,2.68,0,0,1-.68.07,3.3,3.3,0,0,1-.58-.05,3,3,0,0,1-2-1.36,7.9,7.9,0,0,1-1-4.28,7.38,7.38,0,0,1,.65-3.22,5.13,5.13,0,0,1,1.8-2.14,3.37,3.37,0,0,1,2-.64,2.36,2.36,0,0,1,1.59.52,1.84,1.84,0,0,1,.6,1.45.92.92,0,0,1-.25.68.85.85,0,0,1-.65.25.92.92,0,0,1-.66-.24.88.88,0,0,1-.24-.66A.84.84,0,0,1,561.67,182Zm-.75,4.08a1.49,1.49,0,0,0-1.23-.61,1.38,1.38,0,0,0-1,.39,3.7,3.7,0,0,0-.83,2.69,7.52,7.52,0,0,0,.2,2.09,2,2,0,0,0,.58.86,1.44,1.44,0,0,0,1,.36,1.52,1.52,0,0,0,1.33-.65,1.78,1.78,0,0,0,.32-.85,10.17,10.17,0,0,0,.07-1.42v-.55a10.73,10.73,0,0,0-.07-1.46A1.82,1.82,0,0,0,560.92,186Z"/><path class="a6add148-cc69-4744-9288-12e87ccd3574" d="M494.25,203.23V203h.68v3.13h2.3v.78h-2.3v2.45c0,1.41,0,2.22,0,2.4a1.41,1.41,0,0,0,.11.54.84.84,0,0,0,.83.66c.5,0,.8-.4.92-1.21,0-.09,0-.35,0-.78v-.59h.68V211a5,5,0,0,1-.08,1.12,2.35,2.35,0,0,1-.64,1.11,1.65,1.65,0,0,1-1.18.42,2,2,0,0,1-1.46-.5,2.08,2.08,0,0,1-.63-1.37c0-.08,0-.91,0-2.51v-2.33h-1.34v-.63h.15a1.57,1.57,0,0,0,1.07-.54A3.82,3.82,0,0,0,494.25,203.23Z"/><path class="a6add148-cc69-4744-9288-12e87ccd3574" d="M502.67,213.43a15.86,15.86,0,0,0-1.77-.05c-1,0-1.65,0-1.86.05h-.13v-.78h.27a5.06,5.06,0,0,0,.83-.05.39.39,0,0,0,.21-.19s0-.84,0-2.46a26.59,26.59,0,0,0-.06-2.72c-.09-.23-.43-.34-1-.34H499v-.39q0-.39,0-.39l.17,0,.48,0,.61,0,.61,0,.49,0,.19,0h.05v6.46a.42.42,0,0,0,.21.21,2.35,2.35,0,0,0,.59.06h.39v.78Zm-2-11.37a1,1,0,0,1,.7.3,1,1,0,0,1,.27.72.91.91,0,0,1-.46.87.93.93,0,0,1-.54.15,1,1,0,0,1-.56-.15.91.91,0,0,1-.46-.87,1,1,0,0,1,.3-.75A1.08,1.08,0,0,1,500.69,202.06Z"/><path class="a6add148-cc69-4744-9288-12e87ccd3574" d="M506.39,212.41c.09.16.36.24.8.24h.51v.78h-.14a18.54,18.54,0,0,0-1.9-.05,18.81,18.81,0,0,0-1.91.05h-.13v-.78h.51c.44,0,.71-.08.8-.24v-1.06c0-.2,0-.42,0-.66V210c0-.35,0-.73,0-1.13v-1.38a.6.6,0,0,0-.25-.44,2,2,0,0,0-.76-.14h-.3v-.39q0-.39,0-.39l.17,0,.49,0,.62,0,.61,0,.49,0,.19,0h0v.68a4.59,4.59,0,0,0,0,.65v0a3,3,0,0,1,2.6-1.31,1.91,1.91,0,0,1,2,1.29l0,.09c.27-.34.43-.53.46-.56a2.84,2.84,0,0,1,2-.82c1.42,0,2.2.64,2.33,1.92,0,.08,0,.87,0,2.36s0,2.19,0,2.21a.34.34,0,0,0,.2.19,5.21,5.21,0,0,0,.83.05h.28v.78H517a36.32,36.32,0,0,0-3.81,0H513v-.78h.4q.9,0,.9-.27s0-.8,0-2.35,0-2.34,0-2.43a1.58,1.58,0,0,0-.38-.79,1.19,1.19,0,0,0-.81-.24,1.88,1.88,0,0,0-1.35.57,2.44,2.44,0,0,0-.69,1.5s0,.12,0,.31,0,.45,0,.76v1.9c0,.15,0,.29,0,.4s0,.22,0,.3v.1c.09.16.35.24.8.24h.51v.78h-.14a36.32,36.32,0,0,0-3.81,0h-.13v-.78h.4c.6,0,.91-.09.91-.27,0,0,0-.8,0-2.35s0-2.34,0-2.43a1.58,1.58,0,0,0-.38-.79,1.19,1.19,0,0,0-.81-.24,1.88,1.88,0,0,0-1.35.57,2.5,2.5,0,0,0-.69,1.5V209c0,.2,0,.45,0,.76s0,.6,0,.87v.53c0,.19,0,.36,0,.5s0,.29,0,.4v.4Z"/><path class="a6add148-cc69-4744-9288-12e87ccd3574" d="M524.41,209.27a.35.35,0,0,1-.12.24H519.5v.25a4.18,4.18,0,0,0,.34,1.91,2.15,2.15,0,0,0,2.1,1.25,1.6,1.6,0,0,0,1.23-.54,2.31,2.31,0,0,0,.52-.88.53.53,0,0,1,.11-.24s.12,0,.27,0,.34,0,.34.17a1,1,0,0,1,0,.22,3.3,3.3,0,0,1-1,1.45,2.67,2.67,0,0,1-1.73.57,4.36,4.36,0,0,1-.74-.08,3.54,3.54,0,0,1-1.74-.89A3.86,3.86,0,0,1,518,211a4.07,4.07,0,0,1-.2-1.24,4,4,0,0,1,.92-2.65,3.47,3.47,0,0,1,2.26-1.25h.24a3,3,0,0,1,2.35.91A3.67,3.67,0,0,1,524.41,209.27Zm-1.4-.51c-.1-1.24-.52-2-1.25-2.24a1,1,0,0,0-.36-.07,1.71,1.71,0,0,0-1.45.81,3.76,3.76,0,0,0-.44,1.52v.12H523Z"/><path class="a6add148-cc69-4744-9288-12e87ccd3574" d="M530.1,207.53a.36.36,0,0,1,.24-.33h10.83a.36.36,0,0,1,.26.33.39.39,0,0,1-.24.33H530.37A.33.33,0,0,1,530.1,207.53Zm0,3.3a.34.34,0,0,1,.27-.34h10.82l.07.06.09.07a.36.36,0,0,1,0,.09.27.27,0,0,1,0,.12.38.38,0,0,1-.26.34H530.34A.37.37,0,0,1,530.1,210.83Z"/><path class="a6add148-cc69-4744-9288-12e87ccd3574" d="M554.48,213.43c-.16,0-.89-.05-2.19-.05s-2.12,0-2.28.05h-.15v-.78h.52a4.08,4.08,0,0,0,.91-.08.33.33,0,0,0,.2-.17s0-.33,0-.92v-.85H547.1v-.78l2.57-3.93q2.6-3.94,2.63-4a1.09,1.09,0,0,1,.36,0H553l.1.1v7.82h1.56v.78h-1.56v.87c0,.46,0,.73,0,.81a.33.33,0,0,0,.09.21,2.19,2.19,0,0,0,1,.13h.49v.78Zm-2.87-3.58v-5.68l-3.73,5.66,1.86,0Z"/><path class="a6add148-cc69-4744-9288-12e87ccd3574" d="M562.61,206.4c-1.05,0-1.57.36-1.57,1.1a.63.63,0,0,0,0,.29,1,1,0,0,0,.52.59,5.09,5.09,0,0,0,1.16.33,4.72,4.72,0,0,1,1.33.37,2.45,2.45,0,0,1,1.37,1.69,2.94,2.94,0,0,1,0,.4,2.76,2.76,0,0,1-.24,1.18,2.55,2.55,0,0,1-2.5,1.25A2.7,2.7,0,0,1,561,213l-.13.12-.15.15-.21.19-.19.17h-.13a.3.3,0,0,1-.22-.1v-1.34c0-.74,0-1.17,0-1.28s0-.18.07-.2a1.16,1.16,0,0,1,.27,0,.67.67,0,0,1,.27,0,.58.58,0,0,1,.09.24,4,4,0,0,0,.44,1.17,1.9,1.9,0,0,0,1.65.87q1.65,0,1.65-1.32a1.09,1.09,0,0,0-.3-.8,1.47,1.47,0,0,0-.72-.46l-.81-.19a5.3,5.3,0,0,1-1.3-.36,2.1,2.1,0,0,1-1.3-1.58.76.76,0,0,1,0-.25c0-1.3.8-2,2.39-2.2a1.27,1.27,0,0,1,.41,0,2.61,2.61,0,0,1,1.19.26l.26.14.15-.12a4.43,4.43,0,0,1,.37-.29h.14a.3.3,0,0,1,.22.1v2.24l-.1.11h-.48a.34.34,0,0,1-.1-.21,1.6,1.6,0,0,0-.47-1.22A1.84,1.84,0,0,0,562.61,206.4Z"/><path class="a6add148-cc69-4744-9288-12e87ccd3574" d="M431.21,227.18a3.37,3.37,0,0,1,2.25.83v-1.73c0-1.18,0-1.79,0-1.84a.53.53,0,0,0-.24-.43,1.87,1.87,0,0,0-.76-.15h-.31v-.39c0-.26,0-.39,0-.39l.17,0,.49,0,.63,0,.63,0,.51,0,.18,0h.05v5.17c0,3.47,0,5.22,0,5.25a.58.58,0,0,0,.25.45,1.79,1.79,0,0,0,.76.15h.3v.78l-1.3.09c-.84.05-1.29.09-1.33.1h-.12v-.94l-.14.12a3.31,3.31,0,0,1-2.21.82,3.16,3.16,0,0,1-2.11-.8,4,4,0,0,1-1.29-2.45c0-.09,0-.29,0-.59a3.87,3.87,0,0,1,1.06-2.76A3.33,3.33,0,0,1,431.21,227.18Zm2.2,1.7a2.27,2.27,0,0,0-1.92-1.07,2.07,2.07,0,0,0-1.48.61,2.11,2.11,0,0,0-.57,1,7.12,7.12,0,0,0-.15,1.65,3.6,3.6,0,0,0,.72,2.59,1.74,1.74,0,0,0,1.32.56,2.23,2.23,0,0,0,1.14-.32,2.48,2.48,0,0,0,.87-.89l.07-.1Z"/><path class="a6add148-cc69-4744-9288-12e87ccd3574" d="M437,231.05a3.87,3.87,0,0,1,1-2.66,3.69,3.69,0,0,1,2.36-1.28l.43,0a3.56,3.56,0,0,1,2.57,1.09,3.94,3.94,0,0,1,1.19,2.88,4.15,4.15,0,0,1-.09.79,3.69,3.69,0,0,1-1,1.87,3.76,3.76,0,0,1-1.83,1.06,3.38,3.38,0,0,1-.88.1,3.49,3.49,0,0,1-.9-.1,3.79,3.79,0,0,1-2.88-3.71Zm4.08-3.33-.27,0a2.32,2.32,0,0,0-1,.21,2.24,2.24,0,0,0-1.14,1.85c0,.2,0,.57,0,1.09a5.87,5.87,0,0,0,.32,2.29,1.88,1.88,0,0,0,1.79,1c1.38,0,2.07-.92,2.07-2.77v-.55a9.35,9.35,0,0,0-.08-1.49A2,2,0,0,0,441.07,227.72Z"/><path class="a6add148-cc69-4744-9288-12e87ccd3574" d="M446.8,227.28l.63,0,.52-.05h.25v3.07c0,2.09,0,3.17,0,3.23a.92.92,0,0,0,.26.53,1.74,1.74,0,0,0,1,.24,1.94,1.94,0,0,0,.8-.15,2.19,2.19,0,0,0,1.15-1.86s0-.11,0-.29,0-.41,0-.68V229l0-.28a.55.55,0,0,0-.25-.43,2,2,0,0,0-.75-.14h-.31v-.79l1.3-.08,1.34-.1h.12v3c0,2,0,3.08,0,3.11a.58.58,0,0,0,.25.45,1.79,1.79,0,0,0,.76.15h.3v.78l-1.27.09c-.83.05-1.27.09-1.31.1h-.12V233.7a2.85,2.85,0,0,1-1.38,1,2.63,2.63,0,0,1-.9.12,3,3,0,0,1-1.68-.4,1.88,1.88,0,0,1-.77-1.28c0-.08,0-.86,0-2.33,0-1.24,0-1.93,0-2.08a.63.63,0,0,0-.09-.35q-.16-.27-1-.27h-.19v-.4c0-.26,0-.39,0-.39h.18l.5,0Z"/><path class="a6add148-cc69-4744-9288-12e87ccd3574" d="M456.14,223l.63,0,.51,0,.18,0h.05v2.57c0,1.72,0,2.58,0,2.58l.1-.08a3.53,3.53,0,0,1,2.33-.78,2.43,2.43,0,0,1,.56,0,3.34,3.34,0,0,1,2,1.26,4,4,0,0,1,.8,2.53,5.41,5.41,0,0,1,0,.59,4,4,0,0,1-1.2,2.32,3.35,3.35,0,0,1-2.42.95,3,3,0,0,1-2.24-1l-.12-.11-.17.3-.1.16-.1.19-.06.11-.08.15-.34,0h-.34v-5.07c0-3.41,0-5.13,0-5.18a.53.53,0,0,0-.25-.43,1.77,1.77,0,0,0-.75-.15h-.31v-.39q0-.39,0-.39l.17,0,.5,0Zm4,4.87a4,4,0,0,0-.53-.05,2.22,2.22,0,0,0-1.9,1l-.11.14V233l.09.12a2.24,2.24,0,0,0,1.31,1,1.66,1.66,0,0,0,.53.07,2,2,0,0,0,1.71-.92,2.25,2.25,0,0,0,.27-.56,5.29,5.29,0,0,0,.21-1.68,6.37,6.37,0,0,0-.21-1.89A1.89,1.89,0,0,0,460.1,227.86Z"/><path class="a6add148-cc69-4744-9288-12e87ccd3574" d="M464.64,233.91h.23c.45,0,.71-.08.8-.24v-.53c0-.15,0-.34,0-.56s0-.46,0-.74V226.5c0-.38,0-.72,0-1s0-.56,0-.74v-.29a.53.53,0,0,0-.24-.43,1.83,1.83,0,0,0-.76-.15h-.3v-.39q0-.39,0-.39l.17,0,.49,0,.63,0,.63,0,.51,0,.19,0h.05v5.36c0,3.59,0,5.4,0,5.42a.43.43,0,0,0,.21.19,6.6,6.6,0,0,0,.83,0h.27v.78h-.13c-.21,0-.83-.05-1.87-.05a18.42,18.42,0,0,0-1.89.05h-.13v-.78Z"/><path class="a6add148-cc69-4744-9288-12e87ccd3574" d="M472.85,234.69a15.86,15.86,0,0,0-1.77-.05c-1,0-1.65,0-1.85.05h-.14v-.78h.27a6.78,6.78,0,0,0,.84,0,.41.41,0,0,0,.2-.19s0-.84,0-2.46a24.68,24.68,0,0,0-.07-2.72c-.09-.23-.43-.34-1-.34h-.19v-.4q0-.39,0-.39h.17l.48,0,.61,0,.61,0,.5-.05h.23v6.46a.42.42,0,0,0,.21.21,2.5,2.5,0,0,0,.59.06H473v.78Zm-2-11.37a1.09,1.09,0,0,1,.7.29,1,1,0,0,1,.27.73,1,1,0,0,1-1.56.86.89.89,0,0,1-.46-.86,1,1,0,0,1,.3-.75A1.08,1.08,0,0,1,470.87,223.32Z"/><path class="a6add148-cc69-4744-9288-12e87ccd3574" d="M476.57,233.67c.09.16.36.24.8.24h.51v.78h-.14a18.38,18.38,0,0,0-1.9-.05,18.81,18.81,0,0,0-1.91.05h-.13v-.78h.51c.44,0,.71-.08.8-.24v-.53c0-.15,0-.33,0-.53v-2.5c0-.4,0-.73,0-1v-.39a.58.58,0,0,0-.25-.43,2,2,0,0,0-.75-.14h-.31v-.4q0-.39,0-.39H474l.49,0,.62,0,.61,0,.49-.05h.24v.68a4.36,4.36,0,0,0,0,.64h0a3,3,0,0,1,2.6-1.31,2,2,0,0,1,2.16,1.92c0,.08,0,.86,0,2.36s0,2.19,0,2.21a.37.37,0,0,0,.2.19,6.78,6.78,0,0,0,.84,0h.27v.78h-.14a18.54,18.54,0,0,0-1.9-.05,18.81,18.81,0,0,0-1.91.05h-.13v-.78h.41q.9,0,.9-.27s0-.81,0-2.35,0-2.34,0-2.43a1.54,1.54,0,0,0-.38-.79,1.14,1.14,0,0,0-.81-.25,1.85,1.85,0,0,0-1.34.58,2.45,2.45,0,0,0-.7,1.5v.31c0,.2,0,.45,0,.76s0,.59,0,.86v.54c0,.19,0,.35,0,.5s0,.28,0,.4v.4Z"/><path class="a6add148-cc69-4744-9288-12e87ccd3574" d="M488.42,227.74a2.33,2.33,0,0,1,1.7-.75.93.93,0,0,1,.68.27,1,1,0,0,1,.27.7.58.58,0,0,1-.61.61.57.57,0,0,1-.63-.51.5.5,0,0,1,.05-.36l0,0h0l-.15,0a1.51,1.51,0,0,0-.75.34c-.09.06-.14.1-.14.12l.07.08a2.4,2.4,0,0,1,.56,1.52,2.37,2.37,0,0,1-.46,1.36,2.74,2.74,0,0,1-2.43,1.17,3.48,3.48,0,0,1-1.68-.48,1.33,1.33,0,0,0-.19.65,1,1,0,0,0,.44.88.53.53,0,0,0,.3.11l1.22,0a11.9,11.9,0,0,1,1.83.1,3,3,0,0,1,1.63.7,2.27,2.27,0,0,1,.67,1.66,1.59,1.59,0,0,1,0,.41,2.26,2.26,0,0,1-1.29,1.35,5.14,5.14,0,0,1-2.41.52,5.31,5.31,0,0,1-2.43-.52,2.25,2.25,0,0,1-1.3-1.35,1.39,1.39,0,0,1,0-.35,1.56,1.56,0,0,1,.53-1.19,2.22,2.22,0,0,1,.54-.4l.19-.1a1.79,1.79,0,0,1-.62-1.43,2.35,2.35,0,0,1,.5-1.44,2.32,2.32,0,0,1-.75-1.68,2.35,2.35,0,0,1,.46-1.38,2.54,2.54,0,0,1,1-.85,3.12,3.12,0,0,1,1.45-.32,3,3,0,0,1,1.61.44Zm.78,7.34a1.91,1.91,0,0,0-.84-.32,9.11,9.11,0,0,0-1.33-.07h-.5a4.84,4.84,0,0,0-1.36.1,1.17,1.17,0,0,0-.53.48,1.28,1.28,0,0,0-.2.68,1.21,1.21,0,0,0,.05.34,1.56,1.56,0,0,0,.61.72,2.89,2.89,0,0,0,1.11.45,5.32,5.32,0,0,0,1.72,0A3.08,3.08,0,0,0,489,237a1.42,1.42,0,0,0,.6-.72.74.74,0,0,0,0-.3A1,1,0,0,0,489.2,235.08Zm-4-5.35a2.74,2.74,0,0,0,.29,1.39,1.14,1.14,0,0,0,1.07.48,1.36,1.36,0,0,0,.88-.28,1.25,1.25,0,0,0,.43-.74,5.63,5.63,0,0,0,0-.85,5.94,5.94,0,0,0,0-.87,1.21,1.21,0,0,0-1.33-1,1.38,1.38,0,0,0-.85.28,1.25,1.25,0,0,0-.44.76A5.94,5.94,0,0,0,485.24,229.73Z"/><path class="a6add148-cc69-4744-9288-12e87ccd3574" d="M496.19,233.91h.24c.44,0,.7-.08.8-.24v-.53c0-.15,0-.33,0-.53v-3.89a.58.58,0,0,0-.25-.43,2,2,0,0,0-.76-.14h-.3v-.4q0-.39,0-.39h.17l.48,0,.61,0,.59,0,.5-.05h.23v1.17a3.1,3.1,0,0,1,.72-.85,1.65,1.65,0,0,1,1-.31,1.73,1.73,0,0,1,.81.19,1.06,1.06,0,0,1,.66,1,.81.81,0,0,1-.25.62.88.88,0,0,1-.61.25.85.85,0,0,1-.61-.24.82.82,0,0,1-.24-.61.8.8,0,0,1,.13-.48.18.18,0,0,0,0-.08s-.16,0-.39.06a1.72,1.72,0,0,0-.41.26,3.09,3.09,0,0,0-.78,2.14v.66c0,.45,0,.83,0,1.14v.47c0,.16,0,.31,0,.43s0,.24,0,.34v.34a.28.28,0,0,0,.2.17,3.19,3.19,0,0,0,.9.09h.53v.78h-.15c-.21,0-.93-.05-2.16-.05s-1.75,0-1.91.05h-.13v-.78Z"/><path class="a6add148-cc69-4744-9288-12e87ccd3574" d="M504.87,229.23a.91.91,0,0,1-.66.28.85.85,0,0,1-.64-.28.9.9,0,0,1-.26-.64,1.44,1.44,0,0,1,.14-.55,1.51,1.51,0,0,1,.88-.71,4.51,4.51,0,0,1,1.62-.26,3.62,3.62,0,0,1,1.94.51,2.4,2.4,0,0,1,1.08,1.33,1.79,1.79,0,0,1,.1.54v1.94c0,1.11,0,1.76,0,2a.94.94,0,0,0,.1.43.35.35,0,0,0,.66,0,2.55,2.55,0,0,0,.1-.93v-.61h.68v.66a5.72,5.72,0,0,1-.05.8,1.63,1.63,0,0,1-.56.79,1.54,1.54,0,0,1-1,.31,1.11,1.11,0,0,1-.76-.3,1.43,1.43,0,0,1-.45-.72v-.07l-.2.23-.22.25a2.91,2.91,0,0,1-1.94.7,3.27,3.27,0,0,1-1.58-.38,1.9,1.9,0,0,1-.94-1,1.68,1.68,0,0,1-.13-.65,2,2,0,0,1,.66-1.46,3.11,3.11,0,0,1,1-.65,8.4,8.4,0,0,1,3-.63h.24v-.37a2.52,2.52,0,0,0-.11-.85,1.63,1.63,0,0,0-1.64-1.21c-.76,0-1.14.05-1.14.14a.85.85,0,0,1,.37.75A.9.9,0,0,1,504.87,229.23Zm2.78,2.49c0-.66,0-1,0-1l-.09,0c-1.55.1-2.54.56-3,1.37a1.54,1.54,0,0,0-.19.77,1.31,1.31,0,0,0,.41,1,1.4,1.4,0,0,0,1,.39,1.78,1.78,0,0,0,1.17-.41,2,2,0,0,0,.64-1C507.62,232.76,507.63,232.38,507.65,231.72Z"/><path class="a6add148-cc69-4744-9288-12e87ccd3574" d="M513.14,224.49v-.25h.68v3.12h2.29v.79h-2.29v2.44c0,1.42,0,2.22,0,2.41a1.57,1.57,0,0,0,.11.53.86.86,0,0,0,.84.67c.5,0,.8-.4.91-1.21a6.32,6.32,0,0,0,0-.78v-.6h.68v.6a5.76,5.76,0,0,1-.08,1.12,2.45,2.45,0,0,1-.64,1.11,1.67,1.67,0,0,1-1.18.42,2.07,2.07,0,0,1-1.46-.5,2,2,0,0,1-.63-1.37c0-.08,0-.92,0-2.52v-2.32h-1.34v-.63h.15a1.58,1.58,0,0,0,1.07-.55A3.77,3.77,0,0,0,513.14,224.49Z"/><path class="a6add148-cc69-4744-9288-12e87ccd3574" d="M524.41,230.53a.33.33,0,0,1-.12.23H519.5V231a4.13,4.13,0,0,0,.34,1.9,2.14,2.14,0,0,0,2.1,1.26,1.6,1.6,0,0,0,1.23-.54,2.36,2.36,0,0,0,.52-.89.67.67,0,0,1,.11-.24.45.45,0,0,1,.27,0c.22,0,.34.06.34.17a.91.91,0,0,1,0,.22,3.33,3.33,0,0,1-1,1.46,2.67,2.67,0,0,1-1.73.57,3.61,3.61,0,0,1-.74-.09,3.53,3.53,0,0,1-1.74-.88,4,4,0,0,1-1.09-1.68,4.13,4.13,0,0,1-.2-1.25,4,4,0,0,1,.92-2.64,3.42,3.42,0,0,1,2.26-1.25l.24,0a3,3,0,0,1,2.35.91A3.72,3.72,0,0,1,524.41,230.53ZM523,230c-.1-1.24-.52-2-1.25-2.25a1.26,1.26,0,0,0-.36-.07,1.72,1.72,0,0,0-1.45.82,3.71,3.71,0,0,0-.44,1.51v.12H523Z"/><path class="a6add148-cc69-4744-9288-12e87ccd3574" d="M530.1,228.79a.37.37,0,0,1,.24-.34h10.83a.38.38,0,0,1,.26.34c0,.13-.08.23-.24.32l-5.41,0h-5.41A.34.34,0,0,1,530.1,228.79Zm0,3.3a.34.34,0,0,1,.27-.34h10.82l.07.06.09.07s0,0,0,.08a.28.28,0,0,1,0,.13.38.38,0,0,1-.26.34H530.34A.37.37,0,0,1,530.1,232.09Z"/><path class="a6add148-cc69-4744-9288-12e87ccd3574" d="M553.7,234.69c-.19,0-1.09-.05-2.7-.05s-2.48,0-2.67.05h-.21v-.78h.45a10.39,10.39,0,0,0,1.27,0,1,1,0,0,0,.41-.21v-8.79a.42.42,0,0,0-.14.06,5,5,0,0,1-1.75.32H548v-.78h.32a4.76,4.76,0,0,0,2.38-.65,2.14,2.14,0,0,0,.53-.39s.09,0,.2,0a.43.43,0,0,1,.29.1v5.08l0,5.1a1.64,1.64,0,0,0,1.1.26h1v.78Z"/><path class="a6add148-cc69-4744-9288-12e87ccd3574" d="M562.61,227.65c-1.05,0-1.57.37-1.57,1.11a.66.66,0,0,0,0,.29,1,1,0,0,0,.52.58,5.09,5.09,0,0,0,1.16.33,4.65,4.65,0,0,1,1.33.38,2.45,2.45,0,0,1,1.37,1.68,3.25,3.25,0,0,1,0,.41,2.72,2.72,0,0,1-.24,1.17,2.55,2.55,0,0,1-2.5,1.26,2.7,2.7,0,0,1-1.77-.61l-.13.12-.15.15-.21.19-.19.17h-.13a.34.34,0,0,1-.22-.1v-1.35c0-.73,0-1.16,0-1.27s0-.18.07-.21h.27a.67.67,0,0,1,.27,0s.06.1.09.24a4,4,0,0,0,.44,1.17,1.9,1.9,0,0,0,1.65.87c1.1,0,1.65-.44,1.65-1.33a1.1,1.1,0,0,0-.3-.8,1.63,1.63,0,0,0-.72-.46l-.81-.18a6.41,6.41,0,0,1-1.3-.36,2.12,2.12,0,0,1-1.3-1.58.83.83,0,0,1,0-.26c0-1.3.8-2,2.39-2.19a1.27,1.27,0,0,1,.41,0,2.61,2.61,0,0,1,1.19.26l.26.13.15-.12.37-.29h.14a.31.31,0,0,1,.22.11v2.24l-.1.1h-.48a.32.32,0,0,1-.1-.2,1.63,1.63,0,0,0-.47-1.23A1.89,1.89,0,0,0,562.61,227.65Z"/><polygon class="a419c8fe-86de-4e93-8b4b-13d949edfd17" points="30.2 275 19.8 269 19.8 281 30.2 275"/><line class="b334878b-3ead-4e2c-88c8-2401b181d3a4" x1="46" y1="269" x2="46" y2="281"/><line class="b334878b-3ead-4e2c-88c8-2401b181d3a4" x1="54" y1="269" x2="54" y2="281"/></svg>