<svg xmlns="http://www.w3.org/2000/svg" id="interactive-0" class="interactive border" width="720" height="150" viewBox="0 0 720 150"><g id="group-1" class="group"><rect x="0" y="0" width="2" height="150" id="rectangle-3" class="rectangle" style="fill: rgb(0, 0, 0);"></rect><rect x="2" y="0" width="2" height="150" id="rectangle-4" class="rectangle" style="fill: rgb(1, 1, 1);"></rect><rect x="4" y="0" width="2" height="150" id="rectangle-5" class="rectangle" style="fill: rgb(1, 1, 1);"></rect><rect x="6" y="0" width="2" height="150" id="rectangle-6" class="rectangle" style="fill: rgb(2, 2, 2);"></rect><rect x="8" y="0" width="2" height="150" id="rectangle-7" class="rectangle" style="fill: rgb(3, 3, 3);"></rect><rect x="10" y="0" width="2" height="150" id="rectangle-8" class="rectangle" style="fill: rgb(4, 4, 4);"></rect><rect x="12" y="0" width="2" height="150" id="rectangle-9" class="rectangle" style="fill: rgb(4, 4, 4);"></rect><rect x="14" y="0" width="2" height="150" id="rectangle-10" class="rectangle" style="fill: rgb(5, 5, 5);"></rect><rect x="16" y="0" width="2" height="150" id="rectangle-11" class="rectangle" style="fill: rgb(6, 6, 6);"></rect><rect x="18" y="0" width="2" height="150" id="rectangle-12" class="rectangle" style="fill: rgb(6, 6, 6);"></rect><rect x="20" y="0" width="2" height="150" id="rectangle-13" class="rectangle" style="fill: rgb(7, 7, 7);"></rect><rect x="22" y="0" width="2" height="150" id="rectangle-14" class="rectangle" style="fill: rgb(8, 8, 8);"></rect><rect x="24" y="0" width="2" height="150" id="rectangle-15" class="rectangle" style="fill: rgb(9, 9, 9);"></rect><rect x="25.999999999999996" y="0" width="2" height="150" id="rectangle-16" class="rectangle" style="fill: rgb(9, 9, 9);"></rect><rect x="28" y="0" width="2" height="150" id="rectangle-17" class="rectangle" style="fill: rgb(10, 10, 10);"></rect><rect x="30" y="0" width="2" height="150" id="rectangle-18" class="rectangle" style="fill: rgb(11, 11, 11);"></rect><rect x="32" y="0" width="2" height="150" id="rectangle-19" class="rectangle" style="fill: rgb(11, 11, 11);"></rect><rect x="34" y="0" width="2" height="150" id="rectangle-20" class="rectangle" style="fill: rgb(12, 12, 12);"></rect><rect x="36" y="0" width="2" height="150" id="rectangle-21" class="rectangle" style="fill: rgb(13, 13, 13);"></rect><rect x="38" y="0" width="2" height="150" id="rectangle-22" class="rectangle" style="fill: rgb(13, 13, 13);"></rect><rect x="40" y="0" width="2" height="150" id="rectangle-23" class="rectangle" style="fill: rgb(14, 14, 14);"></rect><rect x="42" y="0" width="2" height="150" id="rectangle-24" class="rectangle" style="fill: rgb(15, 15, 15);"></rect><rect x="44" y="0" width="2" height="150" id="rectangle-25" class="rectangle" style="fill: rgb(16, 16, 16);"></rect><rect x="46" y="0" width="2" height="150" id="rectangle-26" class="rectangle" style="fill: rgb(16, 16, 16);"></rect><rect x="48" y="0" width="2" height="150" id="rectangle-27" class="rectangle" style="fill: rgb(17, 17, 17);"></rect><rect x="50" y="0" width="2" height="150" id="rectangle-28" class="rectangle" style="fill: rgb(18, 18, 18);"></rect><rect x="51.99999999999999" y="0" width="2" height="150" id="rectangle-29" class="rectangle" style="fill: rgb(18, 18, 18);"></rect><rect x="54" y="0" width="2" height="150" id="rectangle-30" class="rectangle" style="fill: rgb(19, 19, 19);"></rect><rect x="56" y="0" width="2" height="150" id="rectangle-31" class="rectangle" style="fill: rgb(20, 20, 20);"></rect><rect x="58.00000000000001" y="0" width="2" height="150" id="rectangle-32" class="rectangle" style="fill: rgb(21, 21, 21);"></rect><rect x="60" y="0" width="2" height="150" id="rectangle-33" class="rectangle" style="fill: rgb(21, 21, 21);"></rect><rect x="62" y="0" width="2" height="150" id="rectangle-34" class="rectangle" style="fill: rgb(22, 22, 22);"></rect><rect x="64" y="0" width="2" height="150" id="rectangle-35" class="rectangle" style="fill: rgb(23, 23, 23);"></rect><rect x="66" y="0" width="2" height="150" id="rectangle-36" class="rectangle" style="fill: rgb(23, 23, 23);"></rect><rect x="68" y="0" width="2" height="150" id="rectangle-37" class="rectangle" style="fill: rgb(24, 24, 24);"></rect><rect x="70" y="0" width="2" height="150" id="rectangle-38" class="rectangle" style="fill: rgb(25, 25, 25);"></rect><rect x="72" y="0" width="2" height="150" id="rectangle-39" class="rectangle" style="fill: rgb(26, 26, 26);"></rect><rect x="74" y="0" width="2" height="150" id="rectangle-40" class="rectangle" style="fill: rgb(26, 26, 26);"></rect><rect x="76" y="0" width="2" height="150" id="rectangle-41" class="rectangle" style="fill: rgb(27, 27, 27);"></rect><rect x="78" y="0" width="2" height="150" id="rectangle-42" class="rectangle" style="fill: rgb(28, 28, 28);"></rect><rect x="80" y="0" width="2" height="150" id="rectangle-43" class="rectangle" style="fill: rgb(28, 28, 28);"></rect><rect x="82" y="0" width="2" height="150" id="rectangle-44" class="rectangle" style="fill: rgb(29, 29, 29);"></rect><rect x="84" y="0" width="2" height="150" id="rectangle-45" class="rectangle" style="fill: rgb(30, 30, 30);"></rect><rect x="86" y="0" width="2" height="150" id="rectangle-46" class="rectangle" style="fill: rgb(31, 31, 31);"></rect><rect x="88" y="0" width="2" height="150" id="rectangle-47" class="rectangle" style="fill: rgb(31, 31, 31);"></rect><rect x="90" y="0" width="2" height="150" id="rectangle-48" class="rectangle" style="fill: rgb(32, 32, 32);"></rect><rect x="92" y="0" width="2" height="150" id="rectangle-49" class="rectangle" style="fill: rgb(33, 33, 33);"></rect><rect x="94" y="0" width="2" height="150" id="rectangle-50" class="rectangle" style="fill: rgb(33, 33, 33);"></rect><rect x="96" y="0" width="2" height="150" id="rectangle-51" class="rectangle" style="fill: rgb(34, 34, 34);"></rect><rect x="97.99999999999999" y="0" width="2" height="150" id="rectangle-52" class="rectangle" style="fill: rgb(35, 35, 35);"></rect><rect x="100" y="0" width="2" height="150" id="rectangle-53" class="rectangle" style="fill: rgb(36, 36, 36);"></rect><rect x="102" y="0" width="2" height="150" id="rectangle-54" class="rectangle" style="fill: rgb(36, 36, 36);"></rect><rect x="103.99999999999999" y="0" width="2" height="150" id="rectangle-55" class="rectangle" style="fill: rgb(37, 37, 37);"></rect><rect x="106" y="0" width="2" height="150" id="rectangle-56" class="rectangle" style="fill: rgb(38, 38, 38);"></rect><rect x="108" y="0" width="2" height="150" id="rectangle-57" class="rectangle" style="fill: rgb(38, 38, 38);"></rect><rect x="110.00000000000001" y="0" width="2" height="150" id="rectangle-58" class="rectangle" style="fill: rgb(39, 39, 39);"></rect><rect x="112" y="0" width="2" height="150" id="rectangle-59" class="rectangle" style="fill: rgb(40, 40, 40);"></rect><rect x="114" y="0" width="2" height="150" id="rectangle-60" class="rectangle" style="fill: rgb(40, 40, 40);"></rect><rect x="116.00000000000001" y="0" width="2" height="150" id="rectangle-61" class="rectangle" style="fill: rgb(41, 41, 41);"></rect><rect x="118" y="0" width="2" height="150" id="rectangle-62" class="rectangle" style="fill: rgb(42, 42, 42);"></rect><rect x="120" y="0" width="2" height="150" id="rectangle-63" class="rectangle" style="fill: rgb(43, 43, 43);"></rect><rect x="122" y="0" width="2" height="150" id="rectangle-64" class="rectangle" style="fill: rgb(43, 43, 43);"></rect><rect x="124" y="0" width="2" height="150" id="rectangle-65" class="rectangle" style="fill: rgb(44, 44, 44);"></rect><rect x="125.99999999999999" y="0" width="2" height="150" id="rectangle-66" class="rectangle" style="fill: rgb(45, 45, 45);"></rect><rect x="128" y="0" width="2" height="150" id="rectangle-67" class="rectangle" style="fill: rgb(45, 45, 45);"></rect><rect x="130" y="0" width="2" height="150" id="rectangle-68" class="rectangle" style="fill: rgb(46, 46, 46);"></rect><rect x="132" y="0" width="2" height="150" id="rectangle-69" class="rectangle" style="fill: rgb(47, 47, 47);"></rect><rect x="134" y="0" width="2" height="150" id="rectangle-70" class="rectangle" style="fill: rgb(48, 48, 48);"></rect><rect x="136" y="0" width="2" height="150" id="rectangle-71" class="rectangle" style="fill: rgb(48, 48, 48);"></rect><rect x="138" y="0" width="2" height="150" id="rectangle-72" class="rectangle" style="fill: rgb(49, 49, 49);"></rect><rect x="140" y="0" width="2" height="150" id="rectangle-73" class="rectangle" style="fill: rgb(50, 50, 50);"></rect><rect x="142" y="0" width="2" height="150" id="rectangle-74" class="rectangle" style="fill: rgb(50, 50, 50);"></rect><rect x="144" y="0" width="2" height="150" id="rectangle-75" class="rectangle" style="fill: rgb(51, 51, 51);"></rect><rect x="146" y="0" width="2" height="150" id="rectangle-76" class="rectangle" style="fill: rgb(52, 52, 52);"></rect><rect x="148" y="0" width="2" height="150" id="rectangle-77" class="rectangle" style="fill: rgb(53, 53, 53);"></rect><rect x="150" y="0" width="2" height="150" id="rectangle-78" class="rectangle" style="fill: rgb(53, 53, 53);"></rect><rect x="152" y="0" width="2" height="150" id="rectangle-79" class="rectangle" style="fill: rgb(54, 54, 54);"></rect><rect x="154" y="0" width="2" height="150" id="rectangle-80" class="rectangle" style="fill: rgb(55, 55, 55);"></rect><rect x="156" y="0" width="2" height="150" id="rectangle-81" class="rectangle" style="fill: rgb(55, 55, 55);"></rect><rect x="158" y="0" width="2" height="150" id="rectangle-82" class="rectangle" style="fill: rgb(56, 56, 56);"></rect><rect x="160" y="0" width="2" height="150" id="rectangle-83" class="rectangle" style="fill: rgb(57, 57, 57);"></rect><rect x="162" y="0" width="2" height="150" id="rectangle-84" class="rectangle" style="fill: rgb(58, 58, 58);"></rect><rect x="164" y="0" width="2" height="150" id="rectangle-85" class="rectangle" style="fill: rgb(58, 58, 58);"></rect><rect x="166" y="0" width="2" height="150" id="rectangle-86" class="rectangle" style="fill: rgb(59, 59, 59);"></rect><rect x="168" y="0" width="2" height="150" id="rectangle-87" class="rectangle" style="fill: rgb(60, 60, 60);"></rect><rect x="170" y="0" width="2" height="150" id="rectangle-88" class="rectangle" style="fill: rgb(60, 60, 60);"></rect><rect x="172" y="0" width="2" height="150" id="rectangle-89" class="rectangle" style="fill: rgb(61, 61, 61);"></rect><rect x="174" y="0" width="2" height="150" id="rectangle-90" class="rectangle" style="fill: rgb(62, 62, 62);"></rect><rect x="176" y="0" width="2" height="150" id="rectangle-91" class="rectangle" style="fill: rgb(63, 63, 63);"></rect><rect x="178" y="0" width="2" height="150" id="rectangle-92" class="rectangle" style="fill: rgb(63, 63, 63);"></rect><rect x="180" y="0" width="2" height="150" id="rectangle-93" class="rectangle" style="fill: rgb(64, 64, 64);"></rect><rect x="182" y="0" width="2" height="150" id="rectangle-94" class="rectangle" style="fill: rgb(65, 65, 65);"></rect><rect x="184" y="0" width="2" height="150" id="rectangle-95" class="rectangle" style="fill: rgb(65, 65, 65);"></rect><rect x="186.00000000000003" y="0" width="2" height="150" id="rectangle-96" class="rectangle" style="fill: rgb(66, 66, 66);"></rect><rect x="188" y="0" width="2" height="150" id="rectangle-97" class="rectangle" style="fill: rgb(67, 67, 67);"></rect><rect x="190" y="0" width="2" height="150" id="rectangle-98" class="rectangle" style="fill: rgb(67, 67, 67);"></rect><rect x="192" y="0" width="2" height="150" id="rectangle-99" class="rectangle" style="fill: rgb(68, 68, 68);"></rect><rect x="194" y="0" width="2" height="150" id="rectangle-100" class="rectangle" style="fill: rgb(69, 69, 69);"></rect><rect x="195.99999999999997" y="0" width="2" height="150" id="rectangle-101" class="rectangle" style="fill: rgb(70, 70, 70);"></rect><rect x="198.00000000000003" y="0" width="2" height="150" id="rectangle-102" class="rectangle" style="fill: rgb(70, 70, 70);"></rect><rect x="200" y="0" width="2" height="150" id="rectangle-103" class="rectangle" style="fill: rgb(71, 71, 71);"></rect><rect x="202" y="0" width="2" height="150" id="rectangle-104" class="rectangle" style="fill: rgb(72, 72, 72);"></rect><rect x="204" y="0" width="2" height="150" id="rectangle-105" class="rectangle" style="fill: rgb(72, 72, 72);"></rect><rect x="206" y="0" width="2" height="150" id="rectangle-106" class="rectangle" style="fill: rgb(73, 73, 73);"></rect><rect x="207.99999999999997" y="0" width="2" height="150" id="rectangle-107" class="rectangle" style="fill: rgb(74, 74, 74);"></rect><rect x="210" y="0" width="2" height="150" id="rectangle-108" class="rectangle" style="fill: rgb(75, 75, 75);"></rect><rect x="212" y="0" width="2" height="150" id="rectangle-109" class="rectangle" style="fill: rgb(75, 75, 75);"></rect><rect x="214" y="0" width="2" height="150" id="rectangle-110" class="rectangle" style="fill: rgb(76, 76, 76);"></rect><rect x="216" y="0" width="2" height="150" id="rectangle-111" class="rectangle" style="fill: rgb(77, 77, 77);"></rect><rect x="217.99999999999997" y="0" width="2" height="150" id="rectangle-112" class="rectangle" style="fill: rgb(77, 77, 77);"></rect><rect x="220.00000000000003" y="0" width="2" height="150" id="rectangle-113" class="rectangle" style="fill: rgb(78, 78, 78);"></rect><rect x="222" y="0" width="2" height="150" id="rectangle-114" class="rectangle" style="fill: rgb(79, 79, 79);"></rect><rect x="224" y="0" width="2" height="150" id="rectangle-115" class="rectangle" style="fill: rgb(80, 80, 80);"></rect><rect x="226" y="0" width="2" height="150" id="rectangle-116" class="rectangle" style="fill: rgb(80, 80, 80);"></rect><rect x="228" y="0" width="2" height="150" id="rectangle-117" class="rectangle" style="fill: rgb(81, 81, 81);"></rect><rect x="229.99999999999997" y="0" width="2" height="150" id="rectangle-118" class="rectangle" style="fill: rgb(82, 82, 82);"></rect><rect x="232.00000000000003" y="0" width="2" height="150" id="rectangle-119" class="rectangle" style="fill: rgb(82, 82, 82);"></rect><rect x="234" y="0" width="2" height="150" id="rectangle-120" class="rectangle" style="fill: rgb(83, 83, 83);"></rect><rect x="236" y="0" width="2" height="150" id="rectangle-121" class="rectangle" style="fill: rgb(84, 84, 84);"></rect><rect x="238" y="0" width="2" height="150" id="rectangle-122" class="rectangle" style="fill: rgb(85, 85, 85);"></rect><rect x="240" y="0" width="2" height="150" id="rectangle-123" class="rectangle" style="fill: rgb(85, 85, 85);"></rect><rect x="242.00000000000003" y="0" width="2" height="150" id="rectangle-124" class="rectangle" style="fill: rgb(86, 86, 86);"></rect><rect x="244" y="0" width="2" height="150" id="rectangle-125" class="rectangle" style="fill: rgb(87, 87, 87);"></rect><rect x="246" y="0" width="2" height="150" id="rectangle-126" class="rectangle" style="fill: rgb(87, 87, 87);"></rect><rect x="248" y="0" width="2" height="150" id="rectangle-127" class="rectangle" style="fill: rgb(88, 88, 88);"></rect><rect x="250" y="0" width="2" height="150" id="rectangle-128" class="rectangle" style="fill: rgb(89, 89, 89);"></rect><rect x="251.99999999999997" y="0" width="2" height="150" id="rectangle-129" class="rectangle" style="fill: rgb(89, 89, 89);"></rect><rect x="254.00000000000003" y="0" width="2" height="150" id="rectangle-130" class="rectangle" style="fill: rgb(90, 90, 90);"></rect><rect x="256" y="0" width="2" height="150" id="rectangle-131" class="rectangle" style="fill: rgb(91, 91, 91);"></rect><rect x="258" y="0" width="2" height="150" id="rectangle-132" class="rectangle" style="fill: rgb(92, 92, 92);"></rect><rect x="260" y="0" width="2" height="150" id="rectangle-133" class="rectangle" style="fill: rgb(92, 92, 92);"></rect><rect x="262" y="0" width="2" height="150" id="rectangle-134" class="rectangle" style="fill: rgb(93, 93, 93);"></rect><rect x="264" y="0" width="2" height="150" id="rectangle-135" class="rectangle" style="fill: rgb(94, 94, 94);"></rect><rect x="266" y="0" width="2" height="150" id="rectangle-136" class="rectangle" style="fill: rgb(94, 94, 94);"></rect><rect x="268" y="0" width="2" height="150" id="rectangle-137" class="rectangle" style="fill: rgb(95, 95, 95);"></rect><rect x="270" y="0" width="2" height="150" id="rectangle-138" class="rectangle" style="fill: rgb(96, 96, 96);"></rect><rect x="272" y="0" width="2" height="150" id="rectangle-139" class="rectangle" style="fill: rgb(97, 97, 97);"></rect><rect x="274" y="0" width="2" height="150" id="rectangle-140" class="rectangle" style="fill: rgb(97, 97, 97);"></rect><rect x="276" y="0" width="2" height="150" id="rectangle-141" class="rectangle" style="fill: rgb(98, 98, 98);"></rect><rect x="278" y="0" width="2" height="150" id="rectangle-142" class="rectangle" style="fill: rgb(99, 99, 99);"></rect><rect x="280" y="0" width="2" height="150" id="rectangle-143" class="rectangle" style="fill: rgb(99, 99, 99);"></rect><rect x="282" y="0" width="2" height="150" id="rectangle-144" class="rectangle" style="fill: rgb(100, 100, 100);"></rect><rect x="284" y="0" width="2" height="150" id="rectangle-145" class="rectangle" style="fill: rgb(101, 101, 101);"></rect><rect x="286" y="0" width="2" height="150" id="rectangle-146" class="rectangle" style="fill: rgb(102, 102, 102);"></rect><rect x="288" y="0" width="2" height="150" id="rectangle-147" class="rectangle" style="fill: rgb(102, 102, 102);"></rect><rect x="290" y="0" width="2" height="150" id="rectangle-148" class="rectangle" style="fill: rgb(103, 103, 103);"></rect><rect x="292" y="0" width="2" height="150" id="rectangle-149" class="rectangle" style="fill: rgb(104, 104, 104);"></rect><rect x="294" y="0" width="2" height="150" id="rectangle-150" class="rectangle" style="fill: rgb(104, 104, 104);"></rect><rect x="296" y="0" width="2" height="150" id="rectangle-151" class="rectangle" style="fill: rgb(105, 105, 105);"></rect><rect x="298" y="0" width="2" height="150" id="rectangle-152" class="rectangle" style="fill: rgb(106, 106, 106);"></rect><rect x="300" y="0" width="2" height="150" id="rectangle-153" class="rectangle" style="fill: rgb(107, 107, 107);"></rect><rect x="302" y="0" width="2" height="150" id="rectangle-154" class="rectangle" style="fill: rgb(107, 107, 107);"></rect><rect x="304" y="0" width="2" height="150" id="rectangle-155" class="rectangle" style="fill: rgb(108, 108, 108);"></rect><rect x="306" y="0" width="2" height="150" id="rectangle-156" class="rectangle" style="fill: rgb(109, 109, 109);"></rect><rect x="308" y="0" width="2" height="150" id="rectangle-157" class="rectangle" style="fill: rgb(109, 109, 109);"></rect><rect x="310" y="0" width="2" height="150" id="rectangle-158" class="rectangle" style="fill: rgb(110, 110, 110);"></rect><rect x="312" y="0" width="2" height="150" id="rectangle-159" class="rectangle" style="fill: rgb(111, 111, 111);"></rect><rect x="314" y="0" width="2" height="150" id="rectangle-160" class="rectangle" style="fill: rgb(112, 112, 112);"></rect><rect x="316" y="0" width="2" height="150" id="rectangle-161" class="rectangle" style="fill: rgb(112, 112, 112);"></rect><rect x="318" y="0" width="2" height="150" id="rectangle-162" class="rectangle" style="fill: rgb(113, 113, 113);"></rect><rect x="320" y="0" width="2" height="150" id="rectangle-163" class="rectangle" style="fill: rgb(114, 114, 114);"></rect><rect x="322" y="0" width="2" height="150" id="rectangle-164" class="rectangle" style="fill: rgb(114, 114, 114);"></rect><rect x="324" y="0" width="2" height="150" id="rectangle-165" class="rectangle" style="fill: rgb(115, 115, 115);"></rect><rect x="326" y="0" width="2" height="150" id="rectangle-166" class="rectangle" style="fill: rgb(116, 116, 116);"></rect><rect x="328" y="0" width="2" height="150" id="rectangle-167" class="rectangle" style="fill: rgb(116, 116, 116);"></rect><rect x="330" y="0" width="2" height="150" id="rectangle-168" class="rectangle" style="fill: rgb(117, 117, 117);"></rect><rect x="332" y="0" width="2" height="150" id="rectangle-169" class="rectangle" style="fill: rgb(118, 118, 118);"></rect><rect x="334" y="0" width="2" height="150" id="rectangle-170" class="rectangle" style="fill: rgb(119, 119, 119);"></rect><rect x="336" y="0" width="2" height="150" id="rectangle-171" class="rectangle" style="fill: rgb(119, 119, 119);"></rect><rect x="338" y="0" width="2" height="150" id="rectangle-172" class="rectangle" style="fill: rgb(120, 120, 120);"></rect><rect x="340" y="0" width="2" height="150" id="rectangle-173" class="rectangle" style="fill: rgb(121, 121, 121);"></rect><rect x="342" y="0" width="2" height="150" id="rectangle-174" class="rectangle" style="fill: rgb(121, 121, 121);"></rect><rect x="344" y="0" width="2" height="150" id="rectangle-175" class="rectangle" style="fill: rgb(122, 122, 122);"></rect><rect x="346" y="0" width="2" height="150" id="rectangle-176" class="rectangle" style="fill: rgb(123, 123, 123);"></rect><rect x="348" y="0" width="2" height="150" id="rectangle-177" class="rectangle" style="fill: rgb(124, 124, 124);"></rect><rect x="350" y="0" width="2" height="150" id="rectangle-178" class="rectangle" style="fill: rgb(124, 124, 124);"></rect><rect x="352" y="0" width="2" height="150" id="rectangle-179" class="rectangle" style="fill: rgb(125, 125, 125);"></rect><rect x="354" y="0" width="2" height="150" id="rectangle-180" class="rectangle" style="fill: rgb(126, 126, 126);"></rect><rect x="356" y="0" width="2" height="150" id="rectangle-181" class="rectangle" style="fill: rgb(126, 126, 126);"></rect><rect x="358" y="0" width="2" height="150" id="rectangle-182" class="rectangle" style="fill: rgb(127, 127, 127);"></rect><rect x="360" y="0" width="2" height="150" id="rectangle-183" class="rectangle" style="fill: rgb(128, 128, 128);"></rect><rect x="362" y="0" width="2" height="150" id="rectangle-184" class="rectangle" style="fill: rgb(129, 129, 129);"></rect><rect x="364" y="0" width="2" height="150" id="rectangle-185" class="rectangle" style="fill: rgb(129, 129, 129);"></rect><rect x="366" y="0" width="2" height="150" id="rectangle-186" class="rectangle" style="fill: rgb(130, 130, 130);"></rect><rect x="368" y="0" width="2" height="150" id="rectangle-187" class="rectangle" style="fill: rgb(131, 131, 131);"></rect><rect x="369.99999999999994" y="0" width="2" height="150" id="rectangle-188" class="rectangle" style="fill: rgb(131, 131, 131);"></rect><rect x="372.00000000000006" y="0" width="2" height="150" id="rectangle-189" class="rectangle" style="fill: rgb(132, 132, 132);"></rect><rect x="374.00000000000006" y="0" width="2" height="150" id="rectangle-190" class="rectangle" style="fill: rgb(133, 133, 133);"></rect><rect x="376" y="0" width="2" height="150" id="rectangle-191" class="rectangle" style="fill: rgb(134, 134, 134);"></rect><rect x="378" y="0" width="2" height="150" id="rectangle-192" class="rectangle" style="fill: rgb(134, 134, 134);"></rect><rect x="380" y="0" width="2" height="150" id="rectangle-193" class="rectangle" style="fill: rgb(135, 135, 135);"></rect><rect x="382" y="0" width="2" height="150" id="rectangle-194" class="rectangle" style="fill: rgb(136, 136, 136);"></rect><rect x="384" y="0" width="2" height="150" id="rectangle-195" class="rectangle" style="fill: rgb(136, 136, 136);"></rect><rect x="386" y="0" width="2" height="150" id="rectangle-196" class="rectangle" style="fill: rgb(137, 137, 137);"></rect><rect x="388" y="0" width="2" height="150" id="rectangle-197" class="rectangle" style="fill: rgb(138, 138, 138);"></rect><rect x="390" y="0" width="2" height="150" id="rectangle-198" class="rectangle" style="fill: rgb(139, 139, 139);"></rect><rect x="391.99999999999994" y="0" width="2" height="150" id="rectangle-199" class="rectangle" style="fill: rgb(139, 139, 139);"></rect><rect x="394.00000000000006" y="0" width="2" height="150" id="rectangle-200" class="rectangle" style="fill: rgb(140, 140, 140);"></rect><rect x="396.00000000000006" y="0" width="2" height="150" id="rectangle-201" class="rectangle" style="fill: rgb(141, 141, 141);"></rect><rect x="398" y="0" width="2" height="150" id="rectangle-202" class="rectangle" style="fill: rgb(141, 141, 141);"></rect><rect x="400" y="0" width="2" height="150" id="rectangle-203" class="rectangle" style="fill: rgb(142, 142, 142);"></rect><rect x="402" y="0" width="2" height="150" id="rectangle-204" class="rectangle" style="fill: rgb(143, 143, 143);"></rect><rect x="404" y="0" width="2" height="150" id="rectangle-205" class="rectangle" style="fill: rgb(143, 143, 143);"></rect><rect x="406" y="0" width="2" height="150" id="rectangle-206" class="rectangle" style="fill: rgb(144, 144, 144);"></rect><rect x="408" y="0" width="2" height="150" id="rectangle-207" class="rectangle" style="fill: rgb(145, 145, 145);"></rect><rect x="410" y="0" width="2" height="150" id="rectangle-208" class="rectangle" style="fill: rgb(146, 146, 146);"></rect><rect x="412" y="0" width="2" height="150" id="rectangle-209" class="rectangle" style="fill: rgb(146, 146, 146);"></rect><rect x="413.99999999999994" y="0" width="2" height="150" id="rectangle-210" class="rectangle" style="fill: rgb(147, 147, 147);"></rect><rect x="415.99999999999994" y="0" width="2" height="150" id="rectangle-211" class="rectangle" style="fill: rgb(148, 148, 148);"></rect><rect x="418.00000000000006" y="0" width="2" height="150" id="rectangle-212" class="rectangle" style="fill: rgb(148, 148, 148);"></rect><rect x="420" y="0" width="2" height="150" id="rectangle-213" class="rectangle" style="fill: rgb(149, 149, 149);"></rect><rect x="422" y="0" width="2" height="150" id="rectangle-214" class="rectangle" style="fill: rgb(150, 150, 150);"></rect><rect x="424" y="0" width="2" height="150" id="rectangle-215" class="rectangle" style="fill: rgb(151, 151, 151);"></rect><rect x="426" y="0" width="2" height="150" id="rectangle-216" class="rectangle" style="fill: rgb(151, 151, 151);"></rect><rect x="428" y="0" width="2" height="150" id="rectangle-217" class="rectangle" style="fill: rgb(152, 152, 152);"></rect><rect x="430" y="0" width="2" height="150" id="rectangle-218" class="rectangle" style="fill: rgb(153, 153, 153);"></rect><rect x="432" y="0" width="2" height="150" id="rectangle-219" class="rectangle" style="fill: rgb(153, 153, 153);"></rect><rect x="434" y="0" width="2" height="150" id="rectangle-220" class="rectangle" style="fill: rgb(154, 154, 154);"></rect><rect x="435.99999999999994" y="0" width="2" height="150" id="rectangle-221" class="rectangle" style="fill: rgb(155, 155, 155);"></rect><rect x="437.99999999999994" y="0" width="2" height="150" id="rectangle-222" class="rectangle" style="fill: rgb(156, 156, 156);"></rect><rect x="440.00000000000006" y="0" width="2" height="150" id="rectangle-223" class="rectangle" style="fill: rgb(156, 156, 156);"></rect><rect x="442" y="0" width="2" height="150" id="rectangle-224" class="rectangle" style="fill: rgb(157, 157, 157);"></rect><rect x="444" y="0" width="2" height="150" id="rectangle-225" class="rectangle" style="fill: rgb(158, 158, 158);"></rect><rect x="446" y="0" width="2" height="150" id="rectangle-226" class="rectangle" style="fill: rgb(158, 158, 158);"></rect><rect x="448" y="0" width="2" height="150" id="rectangle-227" class="rectangle" style="fill: rgb(159, 159, 159);"></rect><rect x="450" y="0" width="2" height="150" id="rectangle-228" class="rectangle" style="fill: rgb(160, 160, 160);"></rect><rect x="452" y="0" width="2" height="150" id="rectangle-229" class="rectangle" style="fill: rgb(161, 161, 161);"></rect><rect x="454" y="0" width="2" height="150" id="rectangle-230" class="rectangle" style="fill: rgb(161, 161, 161);"></rect><rect x="456" y="0" width="2" height="150" id="rectangle-231" class="rectangle" style="fill: rgb(162, 162, 162);"></rect><rect x="458" y="0" width="2" height="150" id="rectangle-232" class="rectangle" style="fill: rgb(163, 163, 163);"></rect><rect x="459.99999999999994" y="0" width="2" height="150" id="rectangle-233" class="rectangle" style="fill: rgb(163, 163, 163);"></rect><rect x="462.00000000000006" y="0" width="2" height="150" id="rectangle-234" class="rectangle" style="fill: rgb(164, 164, 164);"></rect><rect x="464.00000000000006" y="0" width="2" height="150" id="rectangle-235" class="rectangle" style="fill: rgb(165, 165, 165);"></rect><rect x="466" y="0" width="2" height="150" id="rectangle-236" class="rectangle" style="fill: rgb(166, 166, 166);"></rect><rect x="468" y="0" width="2" height="150" id="rectangle-237" class="rectangle" style="fill: rgb(166, 166, 166);"></rect><rect x="470" y="0" width="2" height="150" id="rectangle-238" class="rectangle" style="fill: rgb(167, 167, 167);"></rect><rect x="472" y="0" width="2" height="150" id="rectangle-239" class="rectangle" style="fill: rgb(168, 168, 168);"></rect><rect x="474" y="0" width="2" height="150" id="rectangle-240" class="rectangle" style="fill: rgb(168, 168, 168);"></rect><rect x="476" y="0" width="2" height="150" id="rectangle-241" class="rectangle" style="fill: rgb(169, 169, 169);"></rect><rect x="478" y="0" width="2" height="150" id="rectangle-242" class="rectangle" style="fill: rgb(170, 170, 170);"></rect><rect x="480" y="0" width="2" height="150" id="rectangle-243" class="rectangle" style="fill: rgb(170, 170, 170);"></rect><rect x="481.99999999999994" y="0" width="2" height="150" id="rectangle-244" class="rectangle" style="fill: rgb(171, 171, 171);"></rect><rect x="484.00000000000006" y="0" width="2" height="150" id="rectangle-245" class="rectangle" style="fill: rgb(172, 172, 172);"></rect><rect x="486.00000000000006" y="0" width="2" height="150" id="rectangle-246" class="rectangle" style="fill: rgb(173, 173, 173);"></rect><rect x="488" y="0" width="2" height="150" id="rectangle-247" class="rectangle" style="fill: rgb(173, 173, 173);"></rect><rect x="490" y="0" width="2" height="150" id="rectangle-248" class="rectangle" style="fill: rgb(174, 174, 174);"></rect><rect x="492" y="0" width="2" height="150" id="rectangle-249" class="rectangle" style="fill: rgb(175, 175, 175);"></rect><rect x="494" y="0" width="2" height="150" id="rectangle-250" class="rectangle" style="fill: rgb(175, 175, 175);"></rect><rect x="496" y="0" width="2" height="150" id="rectangle-251" class="rectangle" style="fill: rgb(176, 176, 176);"></rect><rect x="498" y="0" width="2" height="150" id="rectangle-252" class="rectangle" style="fill: rgb(177, 177, 177);"></rect><rect x="500" y="0" width="2" height="150" id="rectangle-253" class="rectangle" style="fill: rgb(178, 178, 178);"></rect><rect x="502" y="0" width="2" height="150" id="rectangle-254" class="rectangle" style="fill: rgb(178, 178, 178);"></rect><rect x="503.99999999999994" y="0" width="2" height="150" id="rectangle-255" class="rectangle" style="fill: rgb(179, 179, 179);"></rect><rect x="505.99999999999994" y="0" width="2" height="150" id="rectangle-256" class="rectangle" style="fill: rgb(180, 180, 180);"></rect><rect x="508.00000000000006" y="0" width="2" height="150" id="rectangle-257" class="rectangle" style="fill: rgb(180, 180, 180);"></rect><rect x="510" y="0" width="2" height="150" id="rectangle-258" class="rectangle" style="fill: rgb(181, 181, 181);"></rect><rect x="512" y="0" width="2" height="150" id="rectangle-259" class="rectangle" style="fill: rgb(182, 182, 182);"></rect><rect x="514" y="0" width="2" height="150" id="rectangle-260" class="rectangle" style="fill: rgb(183, 183, 183);"></rect><rect x="516" y="0" width="2" height="150" id="rectangle-261" class="rectangle" style="fill: rgb(183, 183, 183);"></rect><rect x="518" y="0" width="2" height="150" id="rectangle-262" class="rectangle" style="fill: rgb(184, 184, 184);"></rect><rect x="520" y="0" width="2" height="150" id="rectangle-263" class="rectangle" style="fill: rgb(185, 185, 185);"></rect><rect x="522" y="0" width="2" height="150" id="rectangle-264" class="rectangle" style="fill: rgb(185, 185, 185);"></rect><rect x="524" y="0" width="2" height="150" id="rectangle-265" class="rectangle" style="fill: rgb(186, 186, 186);"></rect><rect x="526" y="0" width="2" height="150" id="rectangle-266" class="rectangle" style="fill: rgb(187, 187, 187);"></rect><rect x="528" y="0" width="2" height="150" id="rectangle-267" class="rectangle" style="fill: rgb(188, 188, 188);"></rect><rect x="530" y="0" width="2" height="150" id="rectangle-268" class="rectangle" style="fill: rgb(188, 188, 188);"></rect><rect x="532" y="0" width="2" height="150" id="rectangle-269" class="rectangle" style="fill: rgb(189, 189, 189);"></rect><rect x="534" y="0" width="2" height="150" id="rectangle-270" class="rectangle" style="fill: rgb(190, 190, 190);"></rect><rect x="536" y="0" width="2" height="150" id="rectangle-271" class="rectangle" style="fill: rgb(190, 190, 190);"></rect><rect x="538" y="0" width="2" height="150" id="rectangle-272" class="rectangle" style="fill: rgb(191, 191, 191);"></rect><rect x="540" y="0" width="2" height="150" id="rectangle-273" class="rectangle" style="fill: rgb(192, 192, 192);"></rect><rect x="542" y="0" width="2" height="150" id="rectangle-274" class="rectangle" style="fill: rgb(192, 192, 192);"></rect><rect x="544" y="0" width="2" height="150" id="rectangle-275" class="rectangle" style="fill: rgb(193, 193, 193);"></rect><rect x="546" y="0" width="2" height="150" id="rectangle-276" class="rectangle" style="fill: rgb(194, 194, 194);"></rect><rect x="548" y="0" width="2" height="150" id="rectangle-277" class="rectangle" style="fill: rgb(195, 195, 195);"></rect><rect x="550" y="0" width="2" height="150" id="rectangle-278" class="rectangle" style="fill: rgb(195, 195, 195);"></rect><rect x="552" y="0" width="2" height="150" id="rectangle-279" class="rectangle" style="fill: rgb(196, 196, 196);"></rect><rect x="554" y="0" width="2" height="150" id="rectangle-280" class="rectangle" style="fill: rgb(197, 197, 197);"></rect><rect x="556" y="0" width="2" height="150" id="rectangle-281" class="rectangle" style="fill: rgb(197, 197, 197);"></rect><rect x="558" y="0" width="2" height="150" id="rectangle-282" class="rectangle" style="fill: rgb(198, 198, 198);"></rect><rect x="560" y="0" width="2" height="150" id="rectangle-283" class="rectangle" style="fill: rgb(199, 199, 199);"></rect><rect x="562" y="0" width="2" height="150" id="rectangle-284" class="rectangle" style="fill: rgb(200, 200, 200);"></rect><rect x="564" y="0" width="2" height="150" id="rectangle-285" class="rectangle" style="fill: rgb(200, 200, 200);"></rect><rect x="566" y="0" width="2" height="150" id="rectangle-286" class="rectangle" style="fill: rgb(201, 201, 201);"></rect><rect x="568" y="0" width="2" height="150" id="rectangle-287" class="rectangle" style="fill: rgb(202, 202, 202);"></rect><rect x="570" y="0" width="2" height="150" id="rectangle-288" class="rectangle" style="fill: rgb(202, 202, 202);"></rect><rect x="572" y="0" width="2" height="150" id="rectangle-289" class="rectangle" style="fill: rgb(203, 203, 203);"></rect><rect x="574" y="0" width="2" height="150" id="rectangle-290" class="rectangle" style="fill: rgb(204, 204, 204);"></rect><rect x="576" y="0" width="2" height="150" id="rectangle-291" class="rectangle" style="fill: rgb(205, 205, 205);"></rect><rect x="578" y="0" width="2" height="150" id="rectangle-292" class="rectangle" style="fill: rgb(205, 205, 205);"></rect><rect x="580" y="0" width="2" height="150" id="rectangle-293" class="rectangle" style="fill: rgb(206, 206, 206);"></rect><rect x="582" y="0" width="2" height="150" id="rectangle-294" class="rectangle" style="fill: rgb(207, 207, 207);"></rect><rect x="584" y="0" width="2" height="150" id="rectangle-295" class="rectangle" style="fill: rgb(207, 207, 207);"></rect><rect x="586" y="0" width="2" height="150" id="rectangle-296" class="rectangle" style="fill: rgb(208, 208, 208);"></rect><rect x="588" y="0" width="2" height="150" id="rectangle-297" class="rectangle" style="fill: rgb(209, 209, 209);"></rect><rect x="590" y="0" width="2" height="150" id="rectangle-298" class="rectangle" style="fill: rgb(210, 210, 210);"></rect><rect x="592" y="0" width="2" height="150" id="rectangle-299" class="rectangle" style="fill: rgb(210, 210, 210);"></rect><rect x="594" y="0" width="2" height="150" id="rectangle-300" class="rectangle" style="fill: rgb(211, 211, 211);"></rect><rect x="596" y="0" width="2" height="150" id="rectangle-301" class="rectangle" style="fill: rgb(212, 212, 212);"></rect><rect x="598" y="0" width="2" height="150" id="rectangle-302" class="rectangle" style="fill: rgb(212, 212, 212);"></rect><rect x="600" y="0" width="2" height="150" id="rectangle-303" class="rectangle" style="fill: rgb(213, 213, 213);"></rect><rect x="602" y="0" width="2" height="150" id="rectangle-304" class="rectangle" style="fill: rgb(214, 214, 214);"></rect><rect x="604" y="0" width="2" height="150" id="rectangle-305" class="rectangle" style="fill: rgb(215, 215, 215);"></rect><rect x="606" y="0" width="2" height="150" id="rectangle-306" class="rectangle" style="fill: rgb(215, 215, 215);"></rect><rect x="608" y="0" width="2" height="150" id="rectangle-307" class="rectangle" style="fill: rgb(216, 216, 216);"></rect><rect x="610" y="0" width="2" height="150" id="rectangle-308" class="rectangle" style="fill: rgb(217, 217, 217);"></rect><rect x="612" y="0" width="2" height="150" id="rectangle-309" class="rectangle" style="fill: rgb(217, 217, 217);"></rect><rect x="614" y="0" width="2" height="150" id="rectangle-310" class="rectangle" style="fill: rgb(218, 218, 218);"></rect><rect x="616" y="0" width="2" height="150" id="rectangle-311" class="rectangle" style="fill: rgb(219, 219, 219);"></rect><rect x="618" y="0" width="2" height="150" id="rectangle-312" class="rectangle" style="fill: rgb(219, 219, 219);"></rect><rect x="620" y="0" width="2" height="150" id="rectangle-313" class="rectangle" style="fill: rgb(220, 220, 220);"></rect><rect x="622" y="0" width="2" height="150" id="rectangle-314" class="rectangle" style="fill: rgb(221, 221, 221);"></rect><rect x="624" y="0" width="2" height="150" id="rectangle-315" class="rectangle" style="fill: rgb(222, 222, 222);"></rect><rect x="626" y="0" width="2" height="150" id="rectangle-316" class="rectangle" style="fill: rgb(222, 222, 222);"></rect><rect x="628" y="0" width="2" height="150" id="rectangle-317" class="rectangle" style="fill: rgb(223, 223, 223);"></rect><rect x="630" y="0" width="2" height="150" id="rectangle-318" class="rectangle" style="fill: rgb(224, 224, 224);"></rect><rect x="632" y="0" width="2" height="150" id="rectangle-319" class="rectangle" style="fill: rgb(224, 224, 224);"></rect><rect x="634" y="0" width="2" height="150" id="rectangle-320" class="rectangle" style="fill: rgb(225, 225, 225);"></rect><rect x="636" y="0" width="2" height="150" id="rectangle-321" class="rectangle" style="fill: rgb(226, 226, 226);"></rect><rect x="638" y="0" width="2" height="150" id="rectangle-322" class="rectangle" style="fill: rgb(227, 227, 227);"></rect><rect x="640" y="0" width="2" height="150" id="rectangle-323" class="rectangle" style="fill: rgb(227, 227, 227);"></rect><rect x="642" y="0" width="2" height="150" id="rectangle-324" class="rectangle" style="fill: rgb(228, 228, 228);"></rect><rect x="644" y="0" width="2" height="150" id="rectangle-325" class="rectangle" style="fill: rgb(229, 229, 229);"></rect><rect x="646" y="0" width="2" height="150" id="rectangle-326" class="rectangle" style="fill: rgb(229, 229, 229);"></rect><rect x="648" y="0" width="2" height="150" id="rectangle-327" class="rectangle" style="fill: rgb(230, 230, 230);"></rect><rect x="650" y="0" width="2" height="150" id="rectangle-328" class="rectangle" style="fill: rgb(231, 231, 231);"></rect><rect x="652" y="0" width="2" height="150" id="rectangle-329" class="rectangle" style="fill: rgb(232, 232, 232);"></rect><rect x="654" y="0" width="2" height="150" id="rectangle-330" class="rectangle" style="fill: rgb(232, 232, 232);"></rect><rect x="656" y="0" width="2" height="150" id="rectangle-331" class="rectangle" style="fill: rgb(233, 233, 233);"></rect><rect x="658" y="0" width="2" height="150" id="rectangle-332" class="rectangle" style="fill: rgb(234, 234, 234);"></rect><rect x="660" y="0" width="2" height="150" id="rectangle-333" class="rectangle" style="fill: rgb(234, 234, 234);"></rect><rect x="662" y="0" width="2" height="150" id="rectangle-334" class="rectangle" style="fill: rgb(235, 235, 235);"></rect><rect x="664" y="0" width="2" height="150" id="rectangle-335" class="rectangle" style="fill: rgb(236, 236, 236);"></rect><rect x="666" y="0" width="2" height="150" id="rectangle-336" class="rectangle" style="fill: rgb(237, 237, 237);"></rect><rect x="668" y="0" width="2" height="150" id="rectangle-337" class="rectangle" style="fill: rgb(237, 237, 237);"></rect><rect x="670" y="0" width="2" height="150" id="rectangle-338" class="rectangle" style="fill: rgb(238, 238, 238);"></rect><rect x="672" y="0" width="2" height="150" id="rectangle-339" class="rectangle" style="fill: rgb(239, 239, 239);"></rect><rect x="674" y="0" width="2" height="150" id="rectangle-340" class="rectangle" style="fill: rgb(239, 239, 239);"></rect><rect x="676" y="0" width="2" height="150" id="rectangle-341" class="rectangle" style="fill: rgb(240, 240, 240);"></rect><rect x="678" y="0" width="2" height="150" id="rectangle-342" class="rectangle" style="fill: rgb(241, 241, 241);"></rect><rect x="680" y="0" width="2" height="150" id="rectangle-343" class="rectangle" style="fill: rgb(242, 242, 242);"></rect><rect x="682" y="0" width="2" height="150" id="rectangle-344" class="rectangle" style="fill: rgb(242, 242, 242);"></rect><rect x="684" y="0" width="2" height="150" id="rectangle-345" class="rectangle" style="fill: rgb(243, 243, 243);"></rect><rect x="686" y="0" width="2" height="150" id="rectangle-346" class="rectangle" style="fill: rgb(244, 244, 244);"></rect><rect x="688" y="0" width="2" height="150" id="rectangle-347" class="rectangle" style="fill: rgb(244, 244, 244);"></rect><rect x="690" y="0" width="2" height="150" id="rectangle-348" class="rectangle" style="fill: rgb(245, 245, 245);"></rect><rect x="692" y="0" width="2" height="150" id="rectangle-349" class="rectangle" style="fill: rgb(246, 246, 246);"></rect><rect x="694" y="0" width="2" height="150" id="rectangle-350" class="rectangle" style="fill: rgb(246, 246, 246);"></rect><rect x="696" y="0" width="2" height="150" id="rectangle-351" class="rectangle" style="fill: rgb(247, 247, 247);"></rect><rect x="698" y="0" width="2" height="150" id="rectangle-352" class="rectangle" style="fill: rgb(248, 248, 248);"></rect><rect x="700" y="0" width="2" height="150" id="rectangle-353" class="rectangle" style="fill: rgb(249, 249, 249);"></rect><rect x="702" y="0" width="2" height="150" id="rectangle-354" class="rectangle" style="fill: rgb(249, 249, 249);"></rect><rect x="704" y="0" width="2" height="150" id="rectangle-355" class="rectangle" style="fill: rgb(250, 250, 250);"></rect><rect x="706" y="0" width="2" height="150" id="rectangle-356" class="rectangle" style="fill: rgb(251, 251, 251);"></rect><rect x="708" y="0" width="2" height="150" id="rectangle-357" class="rectangle" style="fill: rgb(251, 251, 251);"></rect><rect x="710" y="0" width="2" height="150" id="rectangle-358" class="rectangle" style="fill: rgb(252, 252, 252);"></rect><rect x="712" y="0" width="2" height="150" id="rectangle-359" class="rectangle" style="fill: rgb(253, 253, 253);"></rect><rect x="714" y="0" width="2" height="150" id="rectangle-360" class="rectangle" style="fill: rgb(254, 254, 254);"></rect><rect x="716" y="0" width="2" height="150" id="rectangle-361" class="rectangle" style="fill: rgb(254, 254, 254);"></rect><rect x="718" y="0" width="2" height="150" id="rectangle-362" class="rectangle" style="fill: rgb(255, 255, 255);"></rect></g><g id="group-2" class="group"></g><style type="text/css">.window { display: block; margin: 0px auto 1.5em; box-shadow: rgba(0, 0, 0, 0.15) 0px 5px 9px 0px, rgba(0, 0, 0, 0.19) 0px 3px 10px 0px; overflow: hidden; }
.border { border: 1px solid grey; }
.input-container { width: 100%; height: 2rem; margin-bottom: 1rem; }
input.input { width: 100%; height: 2rem; padding-left: 8px; border: 1px solid grey; border-radius: 4px; font-size: 14px; }
.interactive { font-family: "Helvetica Neue", "Segoe UI", Helvetica, Arial, sans-serif; font-weight: normal; font-feature-settings: "kern", "liga", "clig", "calt"; font-size: 1rem; box-sizing: content-box; -webkit-font-smoothing: antialiased; user-select: none; }
.interactive text, .interactive span { fill: rgb(51, 51, 51); stroke: none; }
.interactive line { stroke: rgb(64, 64, 64); stroke-width: 1px; fill: none; }
.default * { stroke: rgb(64, 64, 64); stroke-width: 1px; fill: none; }
circle.default, ellipse.default, line.default, path.default, polygon.default, rect.default { stroke: rgb(64, 64, 64); stroke-width: 1px; fill: none; }
.plot path, .plot line, .plot rect { stroke: rgb(64, 64, 64); stroke-width: 1px; fill: none; }
.control > :first-child { fill: rgb(3, 102, 238); stroke: none; }
.control > :nth-child(2) { fill: transparent; stroke: rgb(3, 102, 238); stroke-width: 2px; opacity: 0; }
.control > .highlight { opacity: 1; }
.checkbox rect { fill: rgb(242, 242, 242); stroke: rgb(51, 51, 51); stroke-width: 1px; }
.slider line { stroke: rgb(51, 51, 51); stroke-width: 1px; }
.icon { width: 1rem; height: 1rem; }
.button text { font-weight: 400; }
.button rect { fill: rgb(85, 85, 85); }
.button:hover rect { fill: rgb(51, 51, 51); }
.button text { fill: rgb(255, 255, 255); }
.grid line { vector-effect: non-scaling-stroke; }
.feature path { vector-effect: non-scaling-stroke; }
.node circle { stroke: rgb(51, 51, 51); }
.node ellipse { stroke: rgb(51, 51, 51); }
.dropdown-control-button rect { fill: rgb(218, 217, 220); stroke-width: 1; stroke: black; }
.dropdown-control-button:hover rect, .dropdown-control-button:hover path { fill: rgb(199, 193, 193); }
.dropdown-control-curr-selection-box rect { fill: white; stroke-width: 1; stroke: black; }
.dropdown-control-curr-selection-box:hover rect, .dropdown-control-button:hover text { fill: rgb(199, 193, 193); }
.dropdown-control-menu-option rect { fill: white; stroke-width: 1; stroke: black; }
.dropdown-control-menu-option:hover rect, .dropdown-control-button:hover text { fill: rgb(199, 193, 193); }
</style></svg>