<?xml version="1.0" encoding="utf-8"?>
<!-- Generator: Adobe Illustrator 23.0.4, SVG Export Plug-In . SVG Version: 6.00 Build 0)  -->
<svg version="1.1" id="interactive-0" xmlns="http://www.w3.org/2000/svg" xmlns:xlink="http://www.w3.org/1999/xlink" x="0px"
	 y="0px" viewBox="0 0 300 150" style="enable-background:new 0 0 300 150;" xml:space="preserve">
<style type="text/css">
	.st0{fill:none;stroke:#404040;}
	.st1{fill:#333333;}
	.st2{font-family:'HelveticaNeue';}
	.st3{font-size:18px;}
	.st4{fill:#404040;stroke:#404040;}
	.st5{fill:#FFFFFF;}
</style>
<path id="rectangle-1" class="st0" d="M29,43h58c1.7,0,3,1.3,3,3v58c0,1.7-1.3,3-3,3H29c-1.7,0-3-1.3-3-3V46C26,44.4,27.3,43,29,43z
	"/>
<text id="text-2" transform="matrix(1 0 0 1 52.996 78.3918)" class="st1 st2 st3">1</text>
<path id="rectangle-3" class="st4" d="M121,43h58c1.7,0,3,1.3,3,3v58c0,1.7-1.3,3-3,3h-58c-1.7,0-3-1.3-3-3V46
	C118,44.4,119.3,43,121,43z"/>
<text id="text-4" transform="matrix(1 0 0 1 144.996 78.3918)" class="st5 st2 st3">2</text>
<path id="rectangle-5" class="st0" d="M213,43h58c1.7,0,3,1.3,3,3v58c0,1.7-1.3,3-3,3h-58c-1.7,0-3-1.3-3-3V46
	C210,44.4,211.3,43,213,43z"/>
<text id="text-6" transform="matrix(1 0 0 1 236.996 78.3918)" class="st1 st2 st3">3</text>
</svg>
