<svg xmlns="http://www.w3.org/2000/svg" id="interactive-0" class="element interactive border" width="768" height="300" viewBox="24 48 614 192"><g id="group-1" class="element"></g><g id="group-2" class="element"><g id="button-3" class="element button" transform="translate(32,144)"><rect x="0" y="-16" width="64" height="32" id="rectangle-5" class="element" rx="2px"></rect><text x="18" y="1" id="text-4" class="element" alignment-baseline="middle" style="text-anchor: middle;">⇪</text></g><g id="button-6" class="element button" transform="translate(32,184)"><rect x="0" y="-16" width="90" height="32" id="rectangle-8" class="element" rx="2px"></rect><text x="18" y="1" id="text-7" class="element" alignment-baseline="middle" style="text-anchor: middle;">⇧</text></g><g id="button-9" class="element button" transform="translate(32,64)"><rect x="0" y="-16" width="32" height="32" id="rectangle-11" class="element" rx="2px"></rect><text x="11.330078125" y="1" id="text-10" class="element" alignment-baseline="middle" style="text-anchor: middle;">`</text></g><g id="button-12" class="element button" transform="translate(72,64)"><rect x="0" y="-16" width="32" height="32" id="rectangle-14" class="element" rx="2px"></rect><text x="13.5615234375" y="1" id="text-13" class="element" alignment-baseline="middle" style="text-anchor: middle;">1</text></g><g id="button-15" class="element button" transform="translate(112,64)"><rect x="0" y="-16" width="32" height="32" id="rectangle-17" class="element" rx="2px"></rect><text x="13.5615234375" y="1" id="text-16" class="element" alignment-baseline="middle" style="text-anchor: middle;">2</text></g><g id="button-18" class="element button" transform="translate(152,64)"><rect x="0" y="-16" width="32" height="32" id="rectangle-20" class="element" rx="2px"></rect><text x="13.5615234375" y="1" id="text-19" class="element" alignment-baseline="middle" style="text-anchor: middle;">3</text></g><g id="button-21" class="element button" transform="translate(192,64)"><rect x="0" y="-16" width="32" height="32" id="rectangle-23" class="element" rx="2px"></rect><text x="13.5615234375" y="1" id="text-22" class="element" alignment-baseline="middle" style="text-anchor: middle;">4</text></g><g id="button-24" class="element button" transform="translate(232,64)"><rect x="0" y="-16" width="32" height="32" id="rectangle-26" class="element" rx="2px"></rect><text x="13.5615234375" y="1" id="text-25" class="element" alignment-baseline="middle" style="text-anchor: middle;">5</text></g><g id="button-27" class="element button" transform="translate(272,64)"><rect x="0" y="-16" width="32" height="32" id="rectangle-29" class="element" rx="2px"></rect><text x="13.5615234375" y="1" id="text-28" class="element" alignment-baseline="middle" style="text-anchor: middle;">6</text></g><g id="button-30" class="element button" transform="translate(312,64)"><rect x="0" y="-16" width="32" height="32" id="rectangle-32" class="element" rx="2px"></rect><text x="13.5615234375" y="1" id="text-31" class="element" alignment-baseline="middle" style="text-anchor: middle;">7</text></g><g id="button-33" class="element button" transform="translate(352,64)"><rect x="0" y="-16" width="32" height="32" id="rectangle-35" class="element" rx="2px"></rect><text x="13.5615234375" y="1" id="text-34" class="element" alignment-baseline="middle" style="text-anchor: middle;">8</text></g><g id="button-36" class="element button" transform="translate(392,64)"><rect x="0" y="-16" width="32" height="32" id="rectangle-38" class="element" rx="2px"></rect><text x="13.5615234375" y="1" id="text-37" class="element" alignment-baseline="middle" style="text-anchor: middle;">9</text></g><g id="button-39" class="element button" transform="translate(432,64)"><rect x="0" y="-16" width="32" height="32" id="rectangle-41" class="element" rx="2px"></rect><text x="13.5615234375" y="1" id="text-40" class="element" alignment-baseline="middle" style="text-anchor: middle;">0</text></g><g id="button-42" class="element button" transform="translate(472,64)"><rect x="0" y="-16" width="32" height="32" id="rectangle-44" class="element" rx="2px"></rect><text x="11.330078125" y="1" id="text-43" class="element" alignment-baseline="middle" style="text-anchor: middle;">-</text></g><g id="button-45" class="element button" transform="translate(512,64)"><rect x="0" y="-16" width="32" height="32" id="rectangle-47" class="element" rx="2px"></rect><text x="13.83984375" y="1" id="text-46" class="element" alignment-baseline="middle" style="text-anchor: middle;">=</text></g><g id="button-48" class="element button" transform="translate(552,64)"><rect x="0" y="-16" width="78" height="32" id="rectangle-50" class="element" rx="2px"></rect><text x="20.138671875" y="1" id="text-49" class="element" alignment-baseline="middle" style="text-anchor: middle;">⌫</text></g><g id="button-51" class="element button" transform="translate(32,104)"><rect x="0" y="-16" width="50" height="32" id="rectangle-53" class="element" rx="2px"></rect><text x="13.556640625" y="1" id="text-52" class="element" alignment-baseline="middle" style="text-anchor: middle;">  </text></g><g id="button-54" class="element button" transform="translate(90,104)"><rect x="0" y="-16" width="32" height="32" id="rectangle-56" class="element" rx="2px"></rect><text x="13.5615234375" y="1" id="text-55" class="element" alignment-baseline="middle" style="text-anchor: middle;">q</text></g><g id="button-57" class="element button" transform="translate(130,104)"><rect x="0" y="-16" width="32" height="32" id="rectangle-59" class="element" rx="2px"></rect><text x="15.2216796875" y="1" id="text-58" class="element" alignment-baseline="middle" style="text-anchor: middle;">w</text></g><g id="button-60" class="element button" transform="translate(170,104)"><rect x="0" y="-16" width="32" height="32" id="rectangle-62" class="element" rx="2px"></rect><text x="13.5615234375" y="1" id="text-61" class="element" alignment-baseline="middle" style="text-anchor: middle;">e</text></g><g id="button-63" class="element button" transform="translate(210,104)"><rect x="0" y="-16" width="32" height="32" id="rectangle-65" class="element" rx="2px"></rect><text x="11.330078125" y="1" id="text-64" class="element" alignment-baseline="middle" style="text-anchor: middle;">r</text></g><g id="button-66" class="element button" transform="translate(250,104)"><rect x="0" y="-16" width="32" height="32" id="rectangle-68" class="element" rx="2px"></rect><text x="10.7783203125" y="1" id="text-67" class="element" alignment-baseline="middle" style="text-anchor: middle;">t</text></g><g id="button-69" class="element button" transform="translate(290,104)"><rect x="0" y="-16" width="32" height="32" id="rectangle-71" class="element" rx="2px"></rect><text x="13" y="1" id="text-70" class="element" alignment-baseline="middle" style="text-anchor: middle;">y</text></g><g id="button-72" class="element button" transform="translate(330,104)"><rect x="0" y="-16" width="32" height="32" id="rectangle-74" class="element" rx="2px"></rect><text x="13.5615234375" y="1" id="text-73" class="element" alignment-baseline="middle" style="text-anchor: middle;">u</text></g><g id="button-75" class="element button" transform="translate(370,104)"><rect x="0" y="-16" width="32" height="32" id="rectangle-77" class="element" rx="2px"></rect><text x="10.2216796875" y="1" id="text-76" class="element" alignment-baseline="middle" style="text-anchor: middle;">i</text></g><g id="button-78" class="element button" transform="translate(410,104)"><rect x="0" y="-16" width="32" height="32" id="rectangle-80" class="element" rx="2px"></rect><text x="13.5615234375" y="1" id="text-79" class="element" alignment-baseline="middle" style="text-anchor: middle;">o</text></g><g id="button-81" class="element button" transform="translate(450,104)"><rect x="0" y="-16" width="32" height="32" id="rectangle-83" class="element" rx="2px"></rect><text x="13.5615234375" y="1" id="text-82" class="element" alignment-baseline="middle" style="text-anchor: middle;">p</text></g><g id="button-84" class="element button" transform="translate(490,104)"><rect x="0" y="-16" width="32" height="32" id="rectangle-86" class="element" rx="2px"></rect><text x="10.7783203125" y="1" id="text-85" class="element" alignment-baseline="middle" style="text-anchor: middle;">[</text></g><g id="button-87" class="element button" transform="translate(530,104)"><rect x="0" y="-16" width="32" height="32" id="rectangle-89" class="element" rx="2px"></rect><text x="10.7783203125" y="1" id="text-88" class="element" alignment-baseline="middle" style="text-anchor: middle;">]</text></g><g id="button-90" class="element button" transform="translate(570,104)"><rect x="0" y="-16" width="60" height="32" id="rectangle-92" class="element" rx="2px"></rect><text x="10.7783203125" y="1" id="text-91" class="element" alignment-baseline="middle" style="text-anchor: middle;">\</text></g><g id="button-93" class="element button" transform="translate(104,144)"><rect x="0" y="-16" width="32" height="32" id="rectangle-95" class="element" rx="2px"></rect><text x="13.5615234375" y="1" id="text-94" class="element" alignment-baseline="middle" style="text-anchor: middle;">a</text></g><g id="button-96" class="element button" transform="translate(144,144)"><rect x="0" y="-16" width="32" height="32" id="rectangle-98" class="element" rx="2px"></rect><text x="13" y="1" id="text-97" class="element" alignment-baseline="middle" style="text-anchor: middle;">s</text></g><g id="button-99" class="element button" transform="translate(184,144)"><rect x="0" y="-16" width="32" height="32" id="rectangle-101" class="element" rx="2px"></rect><text x="13.5615234375" y="1" id="text-100" class="element" alignment-baseline="middle" style="text-anchor: middle;">d</text></g><g id="button-102" class="element button" transform="translate(224,144)"><rect x="0" y="-16" width="32" height="32" id="rectangle-104" class="element" rx="2px"></rect><text x="10.7783203125" y="1" id="text-103" class="element" alignment-baseline="middle" style="text-anchor: middle;">f</text></g><g id="button-105" class="element button" transform="translate(264,144)"><rect x="0" y="-16" width="32" height="32" id="rectangle-107" class="element" rx="2px"></rect><text x="13.5615234375" y="1" id="text-106" class="element" alignment-baseline="middle" style="text-anchor: middle;">g</text></g><g id="button-108" class="element button" transform="translate(304,144)"><rect x="0" y="-16" width="32" height="32" id="rectangle-110" class="element" rx="2px"></rect><text x="13.5615234375" y="1" id="text-109" class="element" alignment-baseline="middle" style="text-anchor: middle;">h</text></g><g id="button-111" class="element button" transform="translate(344,144)"><rect x="0" y="-16" width="32" height="32" id="rectangle-113" class="element" rx="2px"></rect><text x="10.2216796875" y="1" id="text-112" class="element" alignment-baseline="middle" style="text-anchor: middle;">j</text></g><g id="button-114" class="element button" transform="translate(384,144)"><rect x="0" y="-16" width="32" height="32" id="rectangle-116" class="element" rx="2px"></rect><text x="13" y="1" id="text-115" class="element" alignment-baseline="middle" style="text-anchor: middle;">k</text></g><g id="button-117" class="element button" transform="translate(424,144)"><rect x="0" y="-16" width="32" height="32" id="rectangle-119" class="element" rx="2px"></rect><text x="10.2216796875" y="1" id="text-118" class="element" alignment-baseline="middle" style="text-anchor: middle;">l</text></g><g id="button-120" class="element button" transform="translate(464,144)"><rect x="0" y="-16" width="32" height="32" id="rectangle-122" class="element" rx="2px"></rect><text x="10.7783203125" y="1" id="text-121" class="element" alignment-baseline="middle" style="text-anchor: middle;">;</text></g><g id="button-123" class="element button" transform="translate(504,144)"><rect x="0" y="-16" width="32" height="32" id="rectangle-125" class="element" rx="2px"></rect><text x="9.9091796875" y="1" id="text-124" class="element" alignment-baseline="middle" style="text-anchor: middle;">'</text></g><g id="button-126" class="element button" transform="translate(544,144)"><rect x="0" y="-16" width="86" height="32" id="rectangle-128" class="element" rx="2px"></rect><text x="18.9375" y="1" id="text-127" class="element" alignment-baseline="middle" style="text-anchor: middle;">⏎</text></g><g id="button-129" class="element button" transform="translate(130,184)"><rect x="0" y="-16" width="32" height="32" id="rectangle-131" class="element" rx="2px"></rect><text x="13" y="1" id="text-130" class="element" alignment-baseline="middle" style="text-anchor: middle;">z</text></g><g id="button-132" class="element button" transform="translate(170,184)"><rect x="0" y="-16" width="32" height="32" id="rectangle-134" class="element" rx="2px"></rect><text x="13" y="1" id="text-133" class="element" alignment-baseline="middle" style="text-anchor: middle;">x</text></g><g id="button-135" class="element button" transform="translate(210,184)"><rect x="0" y="-16" width="32" height="32" id="rectangle-137" class="element" rx="2px"></rect><text x="13" y="1" id="text-136" class="element" alignment-baseline="middle" style="text-anchor: middle;">c</text></g><g id="button-138" class="element button" transform="translate(250,184)"><rect x="0" y="-16" width="32" height="32" id="rectangle-140" class="element" rx="2px"></rect><text x="13" y="1" id="text-139" class="element" alignment-baseline="middle" style="text-anchor: middle;">v</text></g><g id="button-141" class="element button" transform="translate(290,184)"><rect x="0" y="-16" width="32" height="32" id="rectangle-143" class="element" rx="2px"></rect><text x="13.5615234375" y="1" id="text-142" class="element" alignment-baseline="middle" style="text-anchor: middle;">b</text></g><g id="button-144" class="element button" transform="translate(330,184)"><rect x="0" y="-16" width="32" height="32" id="rectangle-146" class="element" rx="2px"></rect><text x="13.5615234375" y="1" id="text-145" class="element" alignment-baseline="middle" style="text-anchor: middle;">n</text></g><g id="button-147" class="element button" transform="translate(370,184)"><rect x="0" y="-16" width="32.66015625" height="32" id="rectangle-149" class="element" rx="2px"></rect><text x="16.330078125" y="1" id="text-148" class="element" alignment-baseline="middle" style="text-anchor: middle;">m</text></g><g id="button-150" class="element button" transform="translate(410.66015625,184)"><rect x="0" y="-16" width="32" height="32" id="rectangle-152" class="element" rx="2px"></rect><text x="10.7783203125" y="1" id="text-151" class="element" alignment-baseline="middle" style="text-anchor: middle;">,</text></g><g id="button-153" class="element button" transform="translate(450.66015625,184)"><rect x="0" y="-16" width="32" height="32" id="rectangle-155" class="element" rx="2px"></rect><text x="10.7783203125" y="1" id="text-154" class="element" alignment-baseline="middle" style="text-anchor: middle;">.</text></g><g id="button-156" class="element button" transform="translate(490.66015625,184)"><rect x="0" y="-16" width="32" height="32" id="rectangle-158" class="element" rx="2px"></rect><text x="10.7783203125" y="1" id="text-157" class="element" alignment-baseline="middle" style="text-anchor: middle;">/</text></g><g id="button-159" class="element button" transform="translate(530.66015625,184)"><rect x="0" y="-16" width="99.3398" height="32" id="rectangle-161" class="element" rx="2px"></rect><text x="18" y="1" id="text-160" class="element" alignment-baseline="middle" style="text-anchor: middle;">⇧</text></g><g id="button-162" class="element button" transform="translate(32,224)"><rect x="0" y="-16" width="32.6796875" height="32" id="rectangle-164" class="element" rx="2px"></rect><text x="16.33984375" y="1" id="text-163" class="element" alignment-baseline="middle" style="text-anchor: middle;">fn</text></g><g id="button-165" class="element button" transform="translate(72.6796875,224)"><rect x="0" y="-16" width="32" height="32" id="rectangle-167" class="element" rx="2px"></rect><text x="15.94921875" y="1" id="text-166" class="element" alignment-baseline="middle" style="text-anchor: middle;">⌃</text></g><g id="button-168" class="element button" transform="translate(112.6796875,224)"><rect x="0" y="-16" width="39.33984375" height="32" id="rectangle-170" class="element" rx="2px"></rect><text x="19.669921875" y="1" id="text-169" class="element" alignment-baseline="middle" style="text-anchor: middle;">Alt</text></g><g id="button-171" class="element button" transform="translate(160.01953125,224)"><rect x="0" y="-16" width="50" height="32" id="rectangle-173" class="element" rx="2px"></rect><text x="18" y="1" id="text-172" class="element" alignment-baseline="middle" style="text-anchor: middle;">⌘</text></g><g id="button-174" class="element button" transform="translate(218.01953125,224)"><rect x="0" y="-16" width="176" height="32" id="rectangle-176" class="element" rx="2px"></rect><text x="10.7783203125" y="1" id="text-175" class="element" alignment-baseline="middle" style="text-anchor: middle;"> </text></g><g id="button-177" class="element button" transform="translate(402.01953125,224)"><rect x="0" y="-16" width="50" height="32" id="rectangle-179" class="element" rx="2px"></rect><text x="18" y="1" id="text-178" class="element" alignment-baseline="middle" style="text-anchor: middle;">⌘</text></g><g id="button-180" class="element button" transform="translate(460.01953125,224)"><rect x="0" y="-16" width="39.33984375" height="32" id="rectangle-182" class="element" rx="2px"></rect><text x="19.669921875" y="1" id="text-181" class="element" alignment-baseline="middle" style="text-anchor: middle;">Alt</text></g><g id="button-183" class="element button" transform="translate(507.359375,224)"><rect x="0" y="-16" width="36" height="32" id="rectangle-185" class="element" rx="2px"></rect><text x="18" y="1" id="text-184" class="element" alignment-baseline="middle" style="text-anchor: middle;">←</text></g><g id="button-186" class="element button" transform="translate(551.359375,224)"><rect x="0" y="-16" width="32" height="16" id="rectangle-188" class="element" rx="2px"></rect><text x="14.4501953125" y="1" id="text-187" class="element" alignment-baseline="middle" style="text-anchor: middle; display: none;">↑</text></g><g id="button-189" class="element button" transform="translate(551.359375,240)"><rect x="0" y="-16" width="32" height="16" id="rectangle-191" class="element" rx="2px"></rect><text x="14.4501953125" y="1" id="text-190" class="element" alignment-baseline="middle" style="text-anchor: middle; display: none;">↓</text></g><g id="button-192" class="element button" transform="translate(591.359375,224)"><rect x="0" y="-16" width="38.6406" height="32" id="rectangle-194" class="element" rx="2px"></rect><text x="18" y="1" id="text-193" class="element" alignment-baseline="middle" style="text-anchor: middle;">→</text></g></g><style type="text/css">.window { display: block; margin: 0px auto 1.5em; box-shadow: rgba(0, 0, 0, 0.15) 0px 5px 9px 0px, rgba(0, 0, 0, 0.19) 0px 3px 10px 0px; overflow: hidden; }
.border { border: 1px solid grey; }
.input-container { width: 100%; height: 2rem; }
input.input { width: 100%; height: 2rem; padding-left: 8px; border: 1px solid grey; border-radius: 4px; font-size: 14px; }
.interactive { }
.interactive { font-family: "Helvetica Neue", "Segoe UI", Helvetica, Arial, sans-serif; font-weight: normal; font-feature-settings: "kern", "liga", "clig", "calt"; -webkit-font-smoothing: antialiased; user-select: none; }
svg.cartesian { display: flex; }
svg.cartesian { transform: scaleY(-1); }
svg.cartesian > g text { transform: scaleY(-1); }
text.element { fill: rgb(51, 51, 51); stroke: none; }
path.element, line.element, rect.element, ellipse.element, circle.element, polygon.element { stroke: rgb(64, 64, 64); stroke-width: 1px; fill: none; }
.control &gt; :first-child { fill: rgb(3, 102, 238); stroke: none; }
.control &gt; :nth-child(2) { fill: transparent; stroke: rgb(3, 102, 238); stroke-width: 2px; opacity: 0; }
.control &gt; .highlight { opacity: 1; }
.icon { width: 1rem; height: 1rem; }
.button text { font-weight: 400; }
.button rect { fill: rgb(85, 85, 85); }
.button:hover rect { fill: rgb(51, 51, 51); }
.button text { fill: rgb(255, 255, 255); }
</style></svg>