<?xml version="1.0" encoding="utf-8"?>
<!-- Generator: Adobe Illustrator 23.0.4, SVG Export Plug-In . SVG Version: 6.00 Build 0)  -->
<svg version="1.1" id="interactive-0" xmlns="http://www.w3.org/2000/svg" xmlns:xlink="http://www.w3.org/1999/xlink" x="0px"
	 y="0px" viewBox="0 0 600 300" style="enable-background:new 0 0 600 300;" xml:space="preserve">
<style type="text/css">
	.st0{fill:none;stroke:#404040;}
	.st1{fill:#6495ED;}
	.st2{fill:#FFFFFF;stroke:#404040;}
	.st3{fill:#333333;}
	.st4{font-family:'HelveticaNeue';}
	.st5{font-size:12px;}
</style>
<path class="st0" d="M-75,203.5h1h1h1h1h1h1h1h1h1l1-0.1h1h1h1h1h1h1h1h1h1h1h1h1h1l1-0.1h1h1h1h1h1h1h1h1h1l1-0.1h1h1h1h1h1h1
	l1-0.1h1h1h1h1h1l1-0.1h1h1h1h1h1l1-0.1h1h1h1l1-0.1h1h1h1l1-0.1h1h1l1-0.1h1h1h1l1-0.1h1h1l1-0.1h1l1-0.1h1h1l1-0.1h1l1-0.1h1h1
	l1-0.1h1l1-0.1h1l1-0.1h1l1-0.1h1l1-0.1l1-0.1h1l1-0.1h1l1-0.1l1-0.1h1l1-0.1l1-0.1l1-0.1h1l1-0.1l1-0.1l1-0.1h1l1-0.1l1-0.1l1-0.1
	l1-0.1l1-0.1l1-0.1l1-0.1l1-0.1l1-0.1l1-0.1l1-0.1l1-0.1l1-0.1l1-0.1l1-0.1l1-0.1l1-0.2l1-0.1l1-0.1l1-0.1l1-0.2l1-0.1l1-0.1l1-0.2
	l1-0.1l1-0.2l1-0.1l1-0.1l1-0.2l1-0.2l1-0.1l1-0.2l1-0.1l1-0.2l1-0.2l1-0.2l1-0.1l1-0.2l1-0.2l1-0.2l1-0.2l1-0.2l1-0.2l1-0.2l1-0.2
	l1-0.2l1-0.2l1-0.3l1-0.2l1-0.2l1-0.2l1-0.3l1-0.2l1-0.3l1-0.2l1-0.3l1-0.2l1-0.3l1-0.2l1-0.3l1-0.3l1-0.3l1-0.3l1-0.2l1-0.3l1-0.3
	l1-0.3l1-0.3l1-0.4l1-0.3l1-0.3l1-0.3l1-0.4l1-0.3l1-0.3l1-0.4l1-0.3l1-0.4l1-0.3l1-0.4l1-0.4l1-0.4l1-0.3l1-0.4l1-0.4l1-0.4l1-0.4
	l1-0.4l1-0.4l1-0.5l1-0.4l1-0.4l1-0.4l1-0.5l1-0.4l1-0.5l1-0.4l1-0.5l1-0.5l1-0.4l1-0.5l1-0.5l1-0.5l1-0.5l1-0.5l1-0.5l1-0.5l1-0.5
	l1-0.5l1-0.5l1-0.6l1-0.5l1-0.6l1-0.5l1-0.5l1-0.6l1-0.6l1-0.5l1-0.6l1-0.6l1-0.6l1-0.5l1-0.6l1-0.6l1-0.6l1-0.6l1-0.6l1-0.7l1-0.6
	l1-0.6l1-0.6l1-0.6l1-0.7l1-0.6l1-0.7l1-0.6l1-0.7l1-0.6l1-0.7l1-0.6l1-0.7l1-0.7l1-0.7l1-0.6l1-0.7l1-0.7l1-0.7l1-0.7l1-0.7l1-0.7
	l1-0.7l1-0.7l1-0.7l1-0.7l1-0.7l1-0.7l1-0.7l1-0.7l1-0.7l1-0.7l1-0.8l1-0.7l1-0.7l1-0.7l1-0.7l1-0.8l1-0.7l1-0.7l1-0.7l1-0.8l1-0.7
	l1-0.7l1-0.7l1-0.8l1-0.7l1-0.7l1-0.7l1-0.8l1-0.7l1-0.7l1-0.7l1-0.7l1-0.8l1-0.7l1-0.7l1-0.7l1-0.7l1-0.7l1-0.7l1-0.7l1-0.7l1-0.7
	l1-0.7l1-0.7l1-0.7l1-0.6l1-0.7l1-0.7l1-0.7l1-0.6l1-0.7l1-0.6l1-0.7l1-0.6l1-0.7l1-0.6l1-0.6l1-0.6l1-0.7l1-0.6l1-0.6l1-0.6l1-0.6
	l1-0.5l1-0.6l1-0.6l1-0.5l1-0.6l1-0.5l1-0.6l1-0.5l1-0.5l1-0.6l1-0.5l1-0.5l1-0.5l1-0.4l1-0.5l1-0.5l1-0.4l1-0.5l1-0.4l1-0.4l1-0.5
	l1-0.4l1-0.4l1-0.4l1-0.3l1-0.4l1-0.4l1-0.3l1-0.4l1-0.3l1-0.3l1-0.3l1-0.3l1-0.3l1-0.3l1-0.2l1-0.3l1-0.2l1-0.2l1-0.3l1-0.2l1-0.2
	l1-0.1l1-0.2l1-0.2l1-0.1l1-0.2l1-0.1l1-0.1l1-0.1l1-0.1l1-0.1h1l1-0.1h1l1-0.1h1h1h1h1l1,0.1h1l1,0.1h1l1,0.1l1,0.1l1,0.1l1,0.1
	l1,0.1l1,0.2l1,0.1l1,0.2l1,0.2l1,0.1l1,0.2l1,0.2l1,0.3l1,0.2l1,0.2l1,0.3l1,0.2l1,0.3l1,0.3l1,0.3l1,0.3l1,0.3l1,0.3l1,0.4l1,0.3
	l1,0.4l1,0.4l1,0.3l1,0.4l1,0.4l1,0.4l1,0.5l1,0.4l1,0.4l1,0.5l1,0.4l1,0.5l1,0.5l1,0.4l1,0.5l1,0.5l1,0.5l1,0.6l1,0.5l1,0.5l1,0.6
	l1,0.5l1,0.6l1,0.5l1,0.6l1,0.6l1,0.5l1,0.6l1,0.6l1,0.6l1,0.6l1,0.7l1,0.6l1,0.6l1,0.6l1,0.7l1,0.6l1,0.7l1,0.6l1,0.7l1,0.6l1,0.7
	l1,0.7l1,0.7l1,0.6l1,0.7l1,0.7l1,0.7l1,0.7l1,0.7l1,0.7l1,0.7l1,0.7l1,0.7l1,0.7l1,0.7l1,0.7l1,0.8l1,0.7l1,0.7l1,0.7l1,0.7l1,0.8
	l1,0.7l1,0.7l1,0.7l1,0.8l1,0.7l1,0.7l1,0.7l1,0.8l1,0.7l1,0.7l1,0.7l1,0.8l1,0.7l1,0.7l1,0.7l1,0.7l1,0.8l1,0.7l1,0.7l1,0.7l1,0.7
	l1,0.7l1,0.7l1,0.7l1,0.7l1,0.7l1,0.7l1,0.7l1,0.7l1,0.7l1,0.7l1,0.7l1,0.7l1,0.6l1,0.7l1,0.7l1,0.7l1,0.6l1,0.7l1,0.6l1,0.7l1,0.6
	l1,0.7l1,0.6l1,0.7l1,0.6l1,0.6l1,0.6l1,0.6l1,0.7l1,0.6l1,0.6l1,0.6l1,0.6l1,0.6l1,0.5l1,0.6l1,0.6l1,0.6l1,0.5l1,0.6l1,0.6l1,0.5
	l1,0.5l1,0.6l1,0.5l1,0.6l1,0.5l1,0.5l1,0.5l1,0.5l1,0.5l1,0.5l1,0.5l1,0.5l1,0.5l1,0.5l1,0.4l1,0.5l1,0.5l1,0.4l1,0.5l1,0.4l1,0.5
	l1,0.4l1,0.4l1,0.4l1,0.5l1,0.4l1,0.4l1,0.4l1,0.4l1,0.4l1,0.4l1,0.3l1,0.4l1,0.4l1,0.4l1,0.3l1,0.4l1,0.3l1,0.4l1,0.3l1,0.3l1,0.4
	l1,0.3l1,0.3l1,0.3l1,0.4l1,0.3l1,0.3l1,0.3l1,0.3l1,0.2l1,0.3l1,0.3l1,0.3l1,0.3l1,0.2l1,0.3l1,0.2l1,0.3l1,0.2l1,0.3l1,0.2l1,0.3
	l1,0.2l1,0.2l1,0.2l1,0.3l1,0.2l1,0.2l1,0.2l1,0.2l1,0.2l1,0.2l1,0.2l1,0.2l1,0.2l1,0.2l1,0.1l1,0.2l1,0.2l1,0.2l1,0.1l1,0.2l1,0.1
	l1,0.2l1,0.2l1,0.1l1,0.1l1,0.2l1,0.1l1,0.2l1,0.1l1,0.1l1,0.2l1,0.1l1,0.1l1,0.1l1,0.2l1,0.1l1,0.1l1,0.1l1,0.1l1,0.1l1,0.1l1,0.1
	l1,0.1l1,0.1l1,0.1l1,0.1l1,0.1l1,0.1l1,0.1l1,0.1l1,0.1h1l1,0.1l1,0.1l1,0.1h1l1,0.1l1,0.1l1,0.1h1l1,0.1l1,0.1h1l1,0.1h1l1,0.1
	l1,0.1h1l1,0.1h1l1,0.1h1l1,0.1h1l1,0.1h1h1l1,0.1h1l1,0.1h1h1l1,0.1h1l1,0.1h1h1l1,0.1h1h1h1l1,0.1h1h1l1,0.1h1h1h1l1,0.1h1h1h1
	l1,0.1h1h1h1h1h1l1,0.1h1h1h1h1h1l1,0.1h1h1h1h1h1h1l1,0.1h1h1h1h1h1h1h1h1h1l1,0.1h1h1h1h1h1h1h1h1h1h1h1h1h1l1,0.1H-75z"/>
<circle class="st1" cx="411.4" cy="139.3" r="4"/>
<rect id="rectangle-2" class="st2" width="125" height="40"/>
<rect id="rectangle-3" x="120" class="st2" width="125" height="40"/>
<text id="text-4" transform="matrix(1 0 0 1 15 20)" class="st3 st4 st5">x: 581.0</text>
<text id="text-5" transform="matrix(1 0 0 1 140 20)" class="st3 st4 st5">y: 7.70e-5</text>
</svg>
