<svg xmlns="http://www.w3.org/2000/svg" id="interactive-0" class="interactive" width="664" height="164" viewBox="-332 -82 664 164"><g id="group-1" class="group"><line x1="-300" y1="0" x2="300" y2="0" id="line-6" class="line" marker-end="url(#marker-8)" marker-start="url(#marker-8)"></line><text x="150" y="-32" id="text-7" class="text" style="text-anchor: middle; alignment-baseline: middle;">3</text><marker refX="10" refY="5" markerWidth="10" markerHeight="10" id="marker-8" class="marker" orient="auto-start-reverse"><path d="M 0 0 L 10 5 L 0 10 z" id="path-9" class="path" style="fill: rgb(64, 64, 64);"></path></marker><text x="316" y="0" id="text-10" class="text" alignment-baseline="middle">x</text><line x1="150" y1="0" x2="150" y2="0" id="line-11" class="line" style="stroke: cornflowerblue;"></line><line x1="0" y1="0" x2="150" y2="0" id="line-12" class="line" style="stroke: cornflowerblue;"></line><line x1="-250" y1="-6" x2="-250" y2="6" id="line-13" class="line"></line><text x="-250" y="32" id="text-14" class="text" style="text-anchor: middle; alignment-baseline: middle;">-5</text><line x1="-200" y1="-6" x2="-200" y2="6" id="line-15" class="line"></line><text x="-200" y="32" id="text-16" class="text" style="text-anchor: middle; alignment-baseline: middle;">-4</text><line x1="-150" y1="-6" x2="-150" y2="6" id="line-17" class="line"></line><text x="-150" y="32" id="text-18" class="text" style="text-anchor: middle; alignment-baseline: middle;">-3</text><line x1="-100" y1="-6" x2="-100" y2="6" id="line-19" class="line"></line><text x="-100" y="32" id="text-20" class="text" style="text-anchor: middle; alignment-baseline: middle;">-2</text><line x1="-50" y1="-6" x2="-50" y2="6" id="line-21" class="line"></line><text x="-50" y="32" id="text-22" class="text" style="text-anchor: middle; alignment-baseline: middle;">-1</text><line x1="0" y1="-6" x2="0" y2="6" id="line-23" class="line"></line><text x="0" y="32" id="text-24" class="text" style="text-anchor: middle; alignment-baseline: middle;">0</text><line x1="50" y1="-6" x2="50" y2="6" id="line-25" class="line"></line><text x="50" y="32" id="text-26" class="text" style="text-anchor: middle; alignment-baseline: middle;">1</text><line x1="100" y1="-6" x2="100" y2="6" id="line-27" class="line"></line><text x="100" y="32" id="text-28" class="text" style="text-anchor: middle; alignment-baseline: middle;">2</text><line x1="150" y1="-6" x2="150" y2="6" id="line-29" class="line"></line><text x="150" y="32" id="text-30" class="text" style="text-anchor: middle; alignment-baseline: middle;">3</text><line x1="200" y1="-6" x2="200" y2="6" id="line-31" class="line"></line><text x="200" y="32" id="text-32" class="text" style="text-anchor: middle; alignment-baseline: middle;">4</text><line x1="250" y1="-6" x2="250" y2="6" id="line-33" class="line"></line><text x="250" y="32" id="text-34" class="text" style="text-anchor: middle; alignment-baseline: middle;">5</text><circle cx="0" cy="0" r="3" id="circle-35" class="circle" style="fill: rgb(64, 64, 64);"></circle></g><g id="group-2" class="group"><g id="control-3" class="control" transform="translate( 150, 0)"><circle cx="0" cy="0" r="4" id="circle-4" class="circle"></circle><circle cx="0" cy="0" r="13" id="circle-5" class="circle"></circle></g></g></svg>