<svg id="aa446483-48aa-4e24-81ff-cacb0d430a1d" data-name="svg-7" xmlns="http://www.w3.org/2000/svg" xmlns:xlink="http://www.w3.org/1999/xlink" viewBox="0 0 700 400"><defs><style>.a9baa237-dce5-4957-9910-af449433d5b4{fill:none;stroke:#333;stroke-miterlimit:10;}.b2fb5c20-5927-4281-8bd8-22803b2d9fbb{clip-path:url(#e552e547-c210-4cbc-ba85-49849db52ecd);}.ae94db09-f6dc-4d04-82e6-ba11bcaea1ff{opacity:0.4;}.bd0cf23d-eea7-46fb-9783-e592efd45d01{isolation:isolate;}.a50b9d01-0aea-4a40-b565-78f75315ac9d,.bd0cf23d-eea7-46fb-9783-e592efd45d01,.beeed944-6e99-4ca0-ad56-b5be598954b6{font-size:22px;}.a50b9d01-0aea-4a40-b565-78f75315ac9d,.bd0cf23d-eea7-46fb-9783-e592efd45d01,.beeed944-6e99-4ca0-ad56-b5be598954b6,.f07351b5-f53a-4dec-923f-a3476c3d171d{fill:#333;}.bd0cf23d-eea7-46fb-9783-e592efd45d01,.beeed944-6e99-4ca0-ad56-b5be598954b6{font-family:KaTeX_Main-Regular, KaTeX_Main;}.a50b9d01-0aea-4a40-b565-78f75315ac9d,.b398ee62-4fc8-4ffd-94ea-e66df14a545c{font-family:KaTeX_Math-Italic, KaTeX_Math;font-style:italic;}</style><clipPath id="e552e547-c210-4cbc-ba85-49849db52ecd"><rect class="a9baa237-dce5-4957-9910-af449433d5b4" x="50" y="50" width="600" height="300"/></clipPath></defs><title>Artboard 1</title><g id="ebd962c4-272a-4199-a222-6297d2d39da3" data-name="group-1"><g class="b2fb5c20-5927-4281-8bd8-22803b2d9fbb"><g id="ab0a05a0-b563-4f4d-a877-0b1fd86f0113" data-name="plot-3"><rect id="a8479f34-84a5-463f-80ec-c153622a15cc" data-name="rectangle-6" class="a9baa237-dce5-4957-9910-af449433d5b4" x="50" y="50" width="600" height="300"/><g id="ece1f21e-d0c3-40ad-a5bb-53ef981674fa" data-name="group-13" class="ae94db09-f6dc-4d04-82e6-ba11bcaea1ff"><line id="b2c4ef75-d900-4fba-b522-6a5f4361cc07" data-name="line-14" class="a9baa237-dce5-4957-9910-af449433d5b4" x1="50" y1="50" x2="50" y2="350"/><line id="fc268870-0261-460e-aed6-49e9058bb431" data-name="line-15" class="a9baa237-dce5-4957-9910-af449433d5b4" x1="145.493" y1="50" x2="145.493" y2="350"/><line id="a29952cd-6336-4c7c-b50d-c1632db38981" data-name="line-16" class="a9baa237-dce5-4957-9910-af449433d5b4" x1="240.986" y1="50" x2="240.986" y2="350"/><line id="ef1e4822-164e-474b-9937-7b724ac41fbc" data-name="line-17" class="a9baa237-dce5-4957-9910-af449433d5b4" x1="336.479" y1="50" x2="336.479" y2="350"/><line id="ef387fb6-d0c1-416f-9a7c-31e7c10adc95" data-name="line-18" class="a9baa237-dce5-4957-9910-af449433d5b4" x1="431.972" y1="50" x2="431.972" y2="350"/><line id="a671e3d4-821d-4bba-ae9a-d7ad299888d0" data-name="line-19" class="a9baa237-dce5-4957-9910-af449433d5b4" x1="527.465" y1="50" x2="527.465" y2="350"/><line id="b1332cd0-7756-4ce1-9868-f34a9ba8027c" data-name="line-20" class="a9baa237-dce5-4957-9910-af449433d5b4" x1="622.958" y1="50" x2="622.958" y2="350"/><line id="e6a2e3ed-953f-442c-b22e-56dc8ab8fb3c" data-name="line-21" class="a9baa237-dce5-4957-9910-af449433d5b4" x1="50" y1="104.507" x2="650" y2="104.507"/><line id="aa70b0dc-cbc6-4b2e-94bd-229e59d8037d" data-name="line-22" class="a9baa237-dce5-4957-9910-af449433d5b4" x1="50" y1="200" x2="650" y2="200"/><line id="aa0eec87-5edd-4a92-96de-a458bffca1f9" data-name="line-23" class="a9baa237-dce5-4957-9910-af449433d5b4" x1="50" y1="295.493" x2="650" y2="295.493"/></g><g id="b462c2c4-d6ec-47bc-999c-a9997e1970e9" data-name="group-8"><line id="bef13871-70f7-433a-9f2c-50b7b2fec858" data-name="line-9" class="a9baa237-dce5-4957-9910-af449433d5b4" x1="50" y1="200" x2="650" y2="200"/><line id="bf67b8f5-eebf-4495-8013-0a73a536f199" data-name="line-10" class="a9baa237-dce5-4957-9910-af449433d5b4" x1="50" y1="50" x2="50" y2="350"/><path id="af29cf94-80dd-4291-b225-26c53ff13546" data-name="path-12" class="a9baa237-dce5-4957-9910-af449433d5b4" d="M42,207.991,43,207l1-1,1-1,1-1,1-1,1-1,1-1,1-1,1-1,1-1,1-1,1-1,1-1,1-1,1-1,1-1,1-1,1-1,1-1,1-1,1-1,1-.9,1-1,1-1,1-1,1-1,1-1,1-1,1-.9,1-1,1-1,1-.9,1-1,1-1,1-.9,1-1,1-1,1-.9,1-1,1-.9,1-.9,1-1,1-.9,1-1,1-.9,1-.9,1-.9,1-.9,1-1,1-.9,1-.9,1-.9,1-.9,1-.8,1-.9,1-.9,1-.9,1-.8,1-.9,1-.9,1-.8,1-.9,1-.8,1-.8,1-.9,1-.8,1-.8,1-.8,1-.8,1-.8,1-.8,1-.8,1-.8,1-.8,1-.7,1-.8,1-.8,1-.7,1-.7,1-.8,1-.7,1-.7,1-.7,1-.7,1-.7,1-.7,1-.7,1-.7,1-.6,1-.7,1-.6,1-.7,1-.6,1-.6,1-.7,1-.6,1-.6,1-.6,1-.5,1-.6,1-.6,1-.5,1-.6,1-.5,1-.6,1-.5,1-.5,1-.5,1-.5,1-.5,1-.5,1-.4,1-.5,1-.4,1-.5,1-.4,1-.4,1-.4,1-.4,1-.4,1-.4,1-.4,1-.4,1-.3,1-.3,1-.4,1-.3,1-.3,1-.3,1-.3,1-.3,1-.3,1-.2,1-.3,1-.2,1-.3,1-.2,1-.2,1-.2,1-.2,1-.2,1-.2,1-.1,1-.2,1-.1,1-.1,1-.2,1-.1,1-.1,1-.1h1l1-.1,1-.1h2l1-.1h4l1,.1h2l1,.1,1,.1h1l1,.1,1,.1,1,.1,1,.2,1,.1,1,.1,1,.2,1,.1,1,.2,1,.2,1,.2,1,.2,1,.2,1,.2,1,.3,1,.2,1,.3,1,.2,1,.3,1,.3,1,.3,1,.3,1,.3,1,.3,1,.4,1,.3,1,.3,1,.4,1,.4,1,.4,1,.4,1,.4,1,.4,1,.4,1,.4,1,.5,1,.4,1,.5,1,.4,1,.5,1,.5,1,.5,1,.5,1,.5,1,.5,1,.6,1,.5,1,.6,1,.5,1,.6,1,.6,1,.5,1,.6,1,.6,1,.6,1,.7,1,.6,1,.6,1,.7,1,.6,1,.7,1,.6,1,.7,1,.7,1,.7,1,.7,1,.7,1,.7,1,.7,1,.7,1,.8,1,.7,1,.7,1,.8,1,.8,1,.7,1,.8,1,.8,1,.8,1,.8,1,.8,1,.8,1,.8,1,.8,1,.8,1,.9,1,.8,1,.8,1,.9,1,.8,1,.9,1,.9,1,.8,1,.9,1,.9,1,.9,1,.8,1,.9,1,.9,1,.9,1,.9,1,1,1,.9,1,.9,1,.9,1,.9,1,1,1,.9,1,1,1,.9,1,.9,1,1,1,.9,1,1,1,1,1,.9,1,1,1,1,1,.9,1,1,1,1,1,.9,1,1,1,1,1,1,1,1,1,1,1,1,1,.9,1,1,1,1,1,1,1,1,1,1,1,1,1,1,1,1,1,1,1,1,1,1,1,1,1,1,1,1,1,1,1,1,1,1,1,1,1,1,1,1,1,1,1,1,1,1,1,1,1,1,1,1,1,.9,1,1,1,1,1,1,1,1,1,1,1,1,1,.9,1,1,1,1,1,.9,1,1,1,1,1,.9,1,1,1,1,1,.9,1,1,1,.9,1,.9,1,1,1,.9,1,1,1,.9,1,.9,1,.9,1,.9,1,1,1,.9,1,.9,1,.9,1,.9,1,.8,1,.9,1,.9,1,.9,1,.8,1,.9,1,.9,1,.8,1,.9,1,.8,1,.8,1,.9,1,.8,1,.8,1,.8,1,.8,1,.8,1,.8,1,.8,1,.8,1,.8,1,.7,1,.8,1,.8,1,.7,1,.7,1,.8,1,.7,1,.7,1,.7,1,.7,1,.7,1,.7,1,.7,1,.7,1,.6,1,.7,1,.6,1,.7,1,.6,1,.6,1,.7,1,.6,1,.6,1,.6,1,.5,1,.6,1,.6,1,.5,1,.6,1,.5,1,.6,1,.5,1,.5,1,.5,1,.5,1,.5,1,.5,1,.4,1,.5,1,.4,1,.5,1,.4,1,.4,1,.4,1,.4,1,.4,1,.4,1,.4,1,.4,1,.3,1,.3,1,.4,1,.3,1,.3,1,.3,1,.3,1,.3,1,.3,1,.2,1,.3,1,.2,1,.3,1,.2,1,.2,1,.2,1,.2,1,.2,1,.2,1,.1,1,.2,1,.1,1,.1,1,.2,1,.1,1,.1,1,.1h1l1,.1,1,.1h2l1,.1h4l1-.1h2l1-.1,1-.1h1l1-.1,1-.1,1-.1,1-.2,1-.1,1-.1,1-.2,1-.1,1-.2,1-.2,1-.2,1-.2,1-.2,1-.2,1-.3,1-.2,1-.3,1-.2,1-.3,1-.3,1-.3,1-.3,1-.3,1-.3,1-.4,1-.3,1-.3,1-.4,1-.4,1-.4,1-.4,1-.4,1-.4,1-.4,1-.4,1-.5,1-.4,1-.5,1-.4,1-.5,1-.5,1-.5,1-.5,1-.5,1-.5,1-.6,1-.5,1-.6,1-.5,1-.6,1-.6,1-.5,1-.6,1-.6,1-.6,1-.7,1-.6,1-.6,1-.7,1-.6,1-.7,1-.6,1-.7,1-.7,1-.7,1-.7,1-.7,1-.7,1-.7,1-.7,1-.8,1-.7,1-.7,1-.8,1-.8,1-.7,1-.8,1-.8,1-.8,1-.8,1-.8,1-.8,1-.8,1-.8,1-.8,1-.9,1-.8,1-.8,1-.9,1-.8,1-.9,1-.9,1-.8,1-.9,1-.9,1-.9,1-.8,1-.9,1-.9,1-.9,1-.9,1-1,1-.9,1-.9,1-.9,1-.9,1-1,1-.9,1-1,1-.9,1-.9,1-1,1-.9,1-1,1-1,1-.9,1-1,1-1,1-.9,1-1,1-1,1-.9,1-1,1-1,1-1,1-1,1-1,1-1,1-.9,1-1,1-1,1-1,1-1,1-1,1-1,1-1,1-1,1-1,1-1,1-1,1-1,1-1,1-1,1-1,1-1,1-1,1-1,1-1,1-1"/></g></g></g><rect class="a9baa237-dce5-4957-9910-af449433d5b4" x="50" y="50" width="600" height="300"/><text id="a2a2ea59-3be9-4e1b-8b50-f3a0ca962fbf" data-name="text-24" class="bd0cf23d-eea7-46fb-9783-e592efd45d01" transform="translate(323.112 29.868)">sin(<tspan class="b398ee62-4fc8-4ffd-94ea-e66df14a545c" x="35.574" y="0">x</tspan><tspan x="48.158" y="0">)</tspan></text><g id="f0cdd6ce-645c-493d-8a47-9b66d8a25de4" data-name="text-25"><text class="beeed944-6e99-4ca0-ad56-b5be598954b6" transform="translate(44.995 381.264)">0</text></g><g id="a81060af-b90e-426e-a050-a7ce646fc9c5" data-name="text-26"><text class="beeed944-6e99-4ca0-ad56-b5be598954b6" transform="translate(140.488 381.264)">1</text></g><g id="aacb2ad3-a921-45d6-bb34-f1ace099a3fe" data-name="text-27"><text class="beeed944-6e99-4ca0-ad56-b5be598954b6" transform="translate(235.981 381.264)">2</text></g><g id="b622fe21-a3d0-4b71-a111-086813cb91ee" data-name="text-28"><text class="beeed944-6e99-4ca0-ad56-b5be598954b6" transform="translate(331.474 381.264)">3</text></g><g id="f4bf0edc-f280-4e02-8b1f-604779b2351c" data-name="text-29"><text class="beeed944-6e99-4ca0-ad56-b5be598954b6" transform="translate(426.966 381.264)">4</text></g><g id="eee8ce91-33b6-4551-a1cf-3d0919f96e22" data-name="text-30"><text class="beeed944-6e99-4ca0-ad56-b5be598954b6" transform="translate(522.459 381.264)">5</text></g><g id="b667fa5f-ed51-43c7-a280-e0c55f6317d6" data-name="text-31"><text class="beeed944-6e99-4ca0-ad56-b5be598954b6" transform="translate(617.952 381.264)">6</text></g><g id="bf370b2d-2dbd-4264-9e59-dea34b633fd0" data-name="text-32"><text class="beeed944-6e99-4ca0-ad56-b5be598954b6" transform="translate(15.837 300.294)">-1</text></g><g id="fb601813-5166-4e69-a5c7-6cfc50a41406" data-name="text-33"><text class="beeed944-6e99-4ca0-ad56-b5be598954b6" transform="translate(18.834 204.801)">0</text></g><g id="afb207c8-258b-4e7e-8ab0-e064e955c3a6" data-name="text-34"><text class="beeed944-6e99-4ca0-ad56-b5be598954b6" transform="translate(18.834 109.308)">1</text></g></g><circle id="faaab817-c36f-4c57-b047-2555dd1a28a7" data-name="circle-11" class="f07351b5-f53a-4dec-923f-a3476c3d171d" cx="50" cy="200" r="3"/><circle id="b9682400-69bf-48a1-a79d-0a4847fee453" data-name="circle-11" class="f07351b5-f53a-4dec-923f-a3476c3d171d" cx="350" cy="200" r="3"/><circle id="be98628a-a7e5-4cf8-8500-055d00a7baf6" data-name="circle-11" class="f07351b5-f53a-4dec-923f-a3476c3d171d" cx="650" cy="200" r="3"/><text class="a50b9d01-0aea-4a40-b565-78f75315ac9d" transform="translate(655 190.204)">τ</text><text class="a50b9d01-0aea-4a40-b565-78f75315ac9d" transform="translate(355 190.204)">π</text></svg>