<svg xmlns="http://www.w3.org/2000/svg" width="600" height="300" class="interactive border" id="interactive-76"><g><g id="plot-77"><rect x="0" y="0" width="600" height="300" class="default" style="fill: transparent; stroke: none;"></rect><g transform="translate(0, 150)"><path d="M -600 -1.0820382250081004e-13 L -599 -1.0 L -598 -2.0 L -597 -3.0 L -596 -4.0 L -595 -5.0 L -594 -6.0 L -593 -7.0 L -592 -8.0 L -591 -9.0 L -590 -10.0 L -589 -11.0 L -588 -12.0 L -587 -13.0 L -586 -13.9 L -585 -14.9 L -584 -15.9 L -583 -16.9 L -582 -17.9 L -581 -18.9 L -580 -19.9 L -579 -20.8 L -578 -21.8 L -577 -22.8 L -576 -23.7 L -575 -24.7 L -574 -25.7 L -573 -26.6 L -572 -27.6 L -571 -28.6 L -570 -29.5 L -569 -30.5 L -568 -31.4 L -567 -32.3 L -566 -33.3 L -565 -34.2 L -564 -35.2 L -563 -36.1 L -562 -37.0 L -561 -37.9 L -560 -38.8 L -559 -39.8 L -558 -40.7 L -557 -41.6 L -556 -42.5 L -555 -43.4 L -554 -44.2 L -553 -45.1 L -552 -46.0 L -551 -46.9 L -550 -47.7 L -549 -48.6 L -548 -49.5 L -547 -50.3 L -546 -51.2 L -545 -52.0 L -544 -52.8 L -543 -53.7 L -542 -54.5 L -541 -55.3 L -540 -56.1 L -539 -56.9 L -538 -57.7 L -537 -58.5 L -536 -59.3 L -535 -60.1 L -534 -60.9 L -533 -61.6 L -532 -62.4 L -531 -63.2 L -530 -63.9 L -529 -64.6 L -528 -65.4 L -527 -66.1 L -526 -66.8 L -525 -67.5 L -524 -68.2 L -523 -68.9 L -522 -69.6 L -521 -70.3 L -520 -71.0 L -519 -71.6 L -518 -72.3 L -517 -72.9 L -516 -73.6 L -515 -74.2 L -514 -74.8 L -513 -75.5 L -512 -76.1 L -511 -76.7 L -510 -77.3 L -509 -77.8 L -508 -78.4 L -507 -79.0 L -506 -79.5 L -505 -80.1 L -504 -80.6 L -503 -81.2 L -502 -81.7 L -501 -82.2 L -500 -82.7 L -499 -83.2 L -498 -83.7 L -497 -84.2 L -496 -84.6 L -495 -85.1 L -494 -85.5 L -493 -86.0 L -492 -86.4 L -491 -86.8 L -490 -87.2 L -489 -87.6 L -488 -88.0 L -487 -88.4 L -486 -88.8 L -485 -89.2 L -484 -89.5 L -483 -89.8 L -482 -90.2 L -481 -90.5 L -480 -90.8 L -479 -91.1 L -478 -91.4 L -477 -91.7 L -476 -92.0 L -475 -92.2 L -474 -92.5 L -473 -92.7 L -472 -93.0 L -471 -93.2 L -470 -93.4 L -469 -93.6 L -468 -93.8 L -467 -94.0 L -466 -94.2 L -465 -94.3 L -464 -94.5 L -463 -94.6 L -462 -94.7 L -461 -94.9 L -460 -95.0 L -459 -95.1 L -458 -95.2 L -457 -95.2 L -456 -95.3 L -455 -95.4 L -454 -95.4 L -453 -95.4 L -452 -95.5 L -451 -95.5 L -450 -95.5 L -449 -95.5 L -448 -95.5 L -447 -95.4 L -446 -95.4 L -445 -95.4 L -444 -95.3 L -443 -95.2 L -442 -95.2 L -441 -95.1 L -440 -95.0 L -439 -94.9 L -438 -94.7 L -437 -94.6 L -436 -94.5 L -435 -94.3 L -434 -94.2 L -433 -94.0 L -432 -93.8 L -431 -93.6 L -430 -93.4 L -429 -93.2 L -428 -93.0 L -427 -92.7 L -426 -92.5 L -425 -92.2 L -424 -92.0 L -423 -91.7 L -422 -91.4 L -421 -91.1 L -420 -90.8 L -419 -90.5 L -418 -90.2 L -417 -89.8 L -416 -89.5 L -415 -89.2 L -414 -88.8 L -413 -88.4 L -412 -88.0 L -411 -87.6 L -410 -87.2 L -409 -86.8 L -408 -86.4 L -407 -86.0 L -406 -85.5 L -405 -85.1 L -404 -84.6 L -403 -84.2 L -402 -83.7 L -401 -83.2 L -400 -82.7 L -399 -82.2 L -398 -81.7 L -397 -81.2 L -396 -80.6 L -395 -80.1 L -394 -79.5 L -393 -79.0 L -392 -78.4 L -391 -77.8 L -390 -77.3 L -389 -76.7 L -388 -76.1 L -387 -75.5 L -386 -74.8 L -385 -74.2 L -384 -73.6 L -383 -72.9 L -382 -72.3 L -381 -71.6 L -380 -71.0 L -379 -70.3 L -378 -69.6 L -377 -68.9 L -376 -68.2 L -375 -67.5 L -374 -66.8 L -373 -66.1 L -372 -65.4 L -371 -64.6 L -370 -63.9 L -369 -63.2 L -368 -62.4 L -367 -61.6 L -366 -60.9 L -365 -60.1 L -364 -59.3 L -363 -58.5 L -362 -57.7 L -361 -56.9 L -360 -56.1 L -359 -55.3 L -358 -54.5 L -357 -53.7 L -356 -52.8 L -355 -52.0 L -354 -51.2 L -353 -50.3 L -352 -49.5 L -351 -48.6 L -350 -47.7 L -349 -46.9 L -348 -46.0 L -347 -45.1 L -346 -44.2 L -345 -43.4 L -344 -42.5 L -343 -41.6 L -342 -40.7 L -341 -39.8 L -340 -38.8 L -339 -37.9 L -338 -37.0 L -337 -36.1 L -336 -35.2 L -335 -34.2 L -334 -33.3 L -333 -32.3 L -332 -31.4 L -331 -30.5 L -330 -29.5 L -329 -28.6 L -328 -27.6 L -327 -26.6 L -326 -25.7 L -325 -24.7 L -324 -23.7 L -323 -22.8 L -322 -21.8 L -321 -20.8 L -320 -19.9 L -319 -18.9 L -318 -17.9 L -317 -16.9 L -316 -15.9 L -315 -14.9 L -314 -13.9 L -313 -13.0 L -312 -12.0 L -311 -11.0 L -310 -10.0 L -309 -9.0 L -308 -8.0 L -307 -7.0 L -306 -6.0 L -305 -5.0 L -304 -4.0 L -303 -3.0 L -302 -2.0 L -301 -1.0 L -300 0.0 L -299 1.0 L -298 2.0 L -297 3.0 L -296 4.0 L -295 5.0 L -294 6.0 L -293 7.0 L -292 8.0 L -291 9.0 L -290 10.0 L -289 11.0 L -288 12.0 L -287 13.0 L -286 13.9 L -285 14.9 L -284 15.9 L -283 16.9 L -282 17.9 L -281 18.9 L -280 19.9 L -279 20.8 L -278 21.8 L -277 22.8 L -276 23.7 L -275 24.7 L -274 25.7 L -273 26.6 L -272 27.6 L -271 28.6 L -270 29.5 L -269 30.5 L -268 31.4 L -267 32.3 L -266 33.3 L -265 34.2 L -264 35.2 L -263 36.1 L -262 37.0 L -261 37.9 L -260 38.8 L -259 39.8 L -258 40.7 L -257 41.6 L -256 42.5 L -255 43.4 L -254 44.2 L -253 45.1 L -252 46.0 L -251 46.9 L -250 47.7 L -249 48.6 L -248 49.5 L -247 50.3 L -246 51.2 L -245 52.0 L -244 52.8 L -243 53.7 L -242 54.5 L -241 55.3 L -240 56.1 L -239 56.9 L -238 57.7 L -237 58.5 L -236 59.3 L -235 60.1 L -234 60.9 L -233 61.6 L -232 62.4 L -231 63.2 L -230 63.9 L -229 64.6 L -228 65.4 L -227 66.1 L -226 66.8 L -225 67.5 L -224 68.2 L -223 68.9 L -222 69.6 L -221 70.3 L -220 71.0 L -219 71.6 L -218 72.3 L -217 72.9 L -216 73.6 L -215 74.2 L -214 74.8 L -213 75.5 L -212 76.1 L -211 76.7 L -210 77.3 L -209 77.8 L -208 78.4 L -207 79.0 L -206 79.5 L -205 80.1 L -204 80.6 L -203 81.2 L -202 81.7 L -201 82.2 L -200 82.7 L -199 83.2 L -198 83.7 L -197 84.2 L -196 84.6 L -195 85.1 L -194 85.5 L -193 86.0 L -192 86.4 L -191 86.8 L -190 87.2 L -189 87.6 L -188 88.0 L -187 88.4 L -186 88.8 L -185 89.2 L -184 89.5 L -183 89.8 L -182 90.2 L -181 90.5 L -180 90.8 L -179 91.1 L -178 91.4 L -177 91.7 L -176 92.0 L -175 92.2 L -174 92.5 L -173 92.7 L -172 93.0 L -171 93.2 L -170 93.4 L -169 93.6 L -168 93.8 L -167 94.0 L -166 94.2 L -165 94.3 L -164 94.5 L -163 94.6 L -162 94.7 L -161 94.9 L -160 95.0 L -159 95.1 L -158 95.2 L -157 95.2 L -156 95.3 L -155 95.4 L -154 95.4 L -153 95.4 L -152 95.5 L -151 95.5 L -150 95.5 L -149 95.5 L -148 95.5 L -147 95.4 L -146 95.4 L -145 95.4 L -144 95.3 L -143 95.2 L -142 95.2 L -141 95.1 L -140 95.0 L -139 94.9 L -138 94.7 L -137 94.6 L -136 94.5 L -135 94.3 L -134 94.2 L -133 94.0 L -132 93.8 L -131 93.6 L -130 93.4 L -129 93.2 L -128 93.0 L -127 92.7 L -126 92.5 L -125 92.2 L -124 92.0 L -123 91.7 L -122 91.4 L -121 91.1 L -120 90.8 L -119 90.5 L -118 90.2 L -117 89.8 L -116 89.5 L -115 89.2 L -114 88.8 L -113 88.4 L -112 88.0 L -111 87.6 L -110 87.2 L -109 86.8 L -108 86.4 L -107 86.0 L -106 85.5 L -105 85.1 L -104 84.6 L -103 84.2 L -102 83.7 L -101 83.2 L -100 82.7 L -99 82.2 L -98 81.7 L -97 81.2 L -96 80.6 L -95 80.1 L -94 79.5 L -93 79.0 L -92 78.4 L -91 77.8 L -90 77.3 L -89 76.7 L -88 76.1 L -87 75.5 L -86 74.8 L -85 74.2 L -84 73.6 L -83 72.9 L -82 72.3 L -81 71.6 L -80 71.0 L -79 70.3 L -78 69.6 L -77 68.9 L -76 68.2 L -75 67.5 L -74 66.8 L -73 66.1 L -72 65.4 L -71 64.6 L -70 63.9 L -69 63.2 L -68 62.4 L -67 61.6 L -66 60.9 L -65 60.1 L -64 59.3 L -63 58.5 L -62 57.7 L -61 56.9 L -60 56.1 L -59 55.3 L -58 54.5 L -57 53.7 L -56 52.8 L -55 52.0 L -54 51.2 L -53 50.3 L -52 49.5 L -51 48.6 L -50 47.7 L -49 46.9 L -48 46.0 L -47 45.1 L -46 44.2 L -45 43.4 L -44 42.5 L -43 41.6 L -42 40.7 L -41 39.8 L -40 38.8 L -39 37.9 L -38 37.0 L -37 36.1 L -36 35.2 L -35 34.2 L -34 33.3 L -33 32.3 L -32 31.4 L -31 30.5 L -30 29.5 L -29 28.6 L -28 27.6 L -27 26.6 L -26 25.7 L -25 24.7 L -24 23.7 L -23 22.8 L -22 21.8 L -21 20.8 L -20 19.9 L -19 18.9 L -18 17.9 L -17 16.9 L -16 15.9 L -15 14.9 L -14 13.9 L -13 13.0 L -12 12.0 L -11 11.0 L -10 10.0 L -9 9.0 L -8 8.0 L -7 7.0 L -6 6.0 L -5 5.0 L -4 4.0 L -3 3.0 L -2 2.0 L -1 1.0 L 0 0.0 L 1 -1.0 L 2 -2.0 L 3 -3.0 L 4 -4.0 L 5 -5.0 L 6 -6.0 L 7 -7.0 L 8 -8.0 L 9 -9.0 L 10 -10.0 L 11 -11.0 L 12 -12.0 L 13 -13.0 L 14 -13.9 L 15 -14.9 L 16 -15.9 L 17 -16.9 L 18 -17.9 L 19 -18.9 L 20 -19.9 L 21 -20.8 L 22 -21.8 L 23 -22.8 L 24 -23.7 L 25 -24.7 L 26 -25.7 L 27 -26.6 L 28 -27.6 L 29 -28.6 L 30 -29.5 L 31 -30.5 L 32 -31.4 L 33 -32.3 L 34 -33.3 L 35 -34.2 L 36 -35.2 L 37 -36.1 L 38 -37.0 L 39 -37.9 L 40 -38.8 L 41 -39.8 L 42 -40.7 L 43 -41.6 L 44 -42.5 L 45 -43.4 L 46 -44.2 L 47 -45.1 L 48 -46.0 L 49 -46.9 L 50 -47.7 L 51 -48.6 L 52 -49.5 L 53 -50.3 L 54 -51.2 L 55 -52.0 L 56 -52.8 L 57 -53.7 L 58 -54.5 L 59 -55.3 L 60 -56.1 L 61 -56.9 L 62 -57.7 L 63 -58.5 L 64 -59.3 L 65 -60.1 L 66 -60.9 L 67 -61.6 L 68 -62.4 L 69 -63.2 L 70 -63.9 L 71 -64.6 L 72 -65.4 L 73 -66.1 L 74 -66.8 L 75 -67.5 L 76 -68.2 L 77 -68.9 L 78 -69.6 L 79 -70.3 L 80 -71.0 L 81 -71.6 L 82 -72.3 L 83 -72.9 L 84 -73.6 L 85 -74.2 L 86 -74.8 L 87 -75.5 L 88 -76.1 L 89 -76.7 L 90 -77.3 L 91 -77.8 L 92 -78.4 L 93 -79.0 L 94 -79.5 L 95 -80.1 L 96 -80.6 L 97 -81.2 L 98 -81.7 L 99 -82.2 L 100 -82.7 L 101 -83.2 L 102 -83.7 L 103 -84.2 L 104 -84.6 L 105 -85.1 L 106 -85.5 L 107 -86.0 L 108 -86.4 L 109 -86.8 L 110 -87.2 L 111 -87.6 L 112 -88.0 L 113 -88.4 L 114 -88.8 L 115 -89.2 L 116 -89.5 L 117 -89.8 L 118 -90.2 L 119 -90.5 L 120 -90.8 L 121 -91.1 L 122 -91.4 L 123 -91.7 L 124 -92.0 L 125 -92.2 L 126 -92.5 L 127 -92.7 L 128 -93.0 L 129 -93.2 L 130 -93.4 L 131 -93.6 L 132 -93.8 L 133 -94.0 L 134 -94.2 L 135 -94.3 L 136 -94.5 L 137 -94.6 L 138 -94.7 L 139 -94.9 L 140 -95.0 L 141 -95.1 L 142 -95.2 L 143 -95.2 L 144 -95.3 L 145 -95.4 L 146 -95.4 L 147 -95.4 L 148 -95.5 L 149 -95.5 L 150 -95.5 L 151 -95.5 L 152 -95.5 L 153 -95.4 L 154 -95.4 L 155 -95.4 L 156 -95.3 L 157 -95.2 L 158 -95.2 L 159 -95.1 L 160 -95.0 L 161 -94.9 L 162 -94.7 L 163 -94.6 L 164 -94.5 L 165 -94.3 L 166 -94.2 L 167 -94.0 L 168 -93.8 L 169 -93.6 L 170 -93.4 L 171 -93.2 L 172 -93.0 L 173 -92.7 L 174 -92.5 L 175 -92.2 L 176 -92.0 L 177 -91.7 L 178 -91.4 L 179 -91.1 L 180 -90.8 L 181 -90.5 L 182 -90.2 L 183 -89.8 L 184 -89.5 L 185 -89.2 L 186 -88.8 L 187 -88.4 L 188 -88.0 L 189 -87.6 L 190 -87.2 L 191 -86.8 L 192 -86.4 L 193 -86.0 L 194 -85.5 L 195 -85.1 L 196 -84.6 L 197 -84.2 L 198 -83.7 L 199 -83.2 L 200 -82.7 L 201 -82.2 L 202 -81.7 L 203 -81.2 L 204 -80.6 L 205 -80.1 L 206 -79.5 L 207 -79.0 L 208 -78.4 L 209 -77.8 L 210 -77.3 L 211 -76.7 L 212 -76.1 L 213 -75.5 L 214 -74.8 L 215 -74.2 L 216 -73.6 L 217 -72.9 L 218 -72.3 L 219 -71.6 L 220 -71.0 L 221 -70.3 L 222 -69.6 L 223 -68.9 L 224 -68.2 L 225 -67.5 L 226 -66.8 L 227 -66.1 L 228 -65.4 L 229 -64.6 L 230 -63.9 L 231 -63.2 L 232 -62.4 L 233 -61.6 L 234 -60.9 L 235 -60.1 L 236 -59.3 L 237 -58.5 L 238 -57.7 L 239 -56.9 L 240 -56.1 L 241 -55.3 L 242 -54.5 L 243 -53.7 L 244 -52.8 L 245 -52.0 L 246 -51.2 L 247 -50.3 L 248 -49.5 L 249 -48.6 L 250 -47.7 L 251 -46.9 L 252 -46.0 L 253 -45.1 L 254 -44.2 L 255 -43.4 L 256 -42.5 L 257 -41.6 L 258 -40.7 L 259 -39.8 L 260 -38.8 L 261 -37.9 L 262 -37.0 L 263 -36.1 L 264 -35.2 L 265 -34.2 L 266 -33.3 L 267 -32.3 L 268 -31.4 L 269 -30.5 L 270 -29.5 L 271 -28.6 L 272 -27.6 L 273 -26.6 L 274 -25.7 L 275 -24.7 L 276 -23.7 L 277 -22.8 L 278 -21.8 L 279 -20.8 L 280 -19.9 L 281 -18.9 L 282 -17.9 L 283 -16.9 L 284 -15.9 L 285 -14.9 L 286 -13.9 L 287 -13.0 L 288 -12.0 L 289 -11.0 L 290 -10.0 L 291 -9.0 L 292 -8.0 L 293 -7.0 L 294 -6.0 L 295 -5.0 L 296 -4.0 L 297 -3.0 L 298 -2.0 L 299 -1.0 L 300 -0.0 L 301 1.0 L 302 2.0 L 303 3.0 L 304 4.0 L 305 5.0 L 306 6.0 L 307 7.0 L 308 8.0 L 309 9.0 L 310 10.0 L 311 11.0 L 312 12.0 L 313 13.0 L 314 13.9 L 315 14.9 L 316 15.9 L 317 16.9 L 318 17.9 L 319 18.9 L 320 19.9 L 321 20.8 L 322 21.8 L 323 22.8 L 324 23.7 L 325 24.7 L 326 25.7 L 327 26.6 L 328 27.6 L 329 28.6 L 330 29.5 L 331 30.5 L 332 31.4 L 333 32.3 L 334 33.3 L 335 34.2 L 336 35.2 L 337 36.1 L 338 37.0 L 339 37.9 L 340 38.8 L 341 39.8 L 342 40.7 L 343 41.6 L 344 42.5 L 345 43.4 L 346 44.2 L 347 45.1 L 348 46.0 L 349 46.9 L 350 47.7 L 351 48.6 L 352 49.5 L 353 50.3 L 354 51.2 L 355 52.0 L 356 52.8 L 357 53.7 L 358 54.5 L 359 55.3 L 360 56.1 L 361 56.9 L 362 57.7 L 363 58.5 L 364 59.3 L 365 60.1 L 366 60.9 L 367 61.6 L 368 62.4 L 369 63.2 L 370 63.9 L 371 64.6 L 372 65.4 L 373 66.1 L 374 66.8 L 375 67.5 L 376 68.2 L 377 68.9 L 378 69.6 L 379 70.3 L 380 71.0 L 381 71.6 L 382 72.3 L 383 72.9 L 384 73.6 L 385 74.2 L 386 74.8 L 387 75.5 L 388 76.1 L 389 76.7 L 390 77.3 L 391 77.8 L 392 78.4 L 393 79.0 L 394 79.5 L 395 80.1 L 396 80.6 L 397 81.2 L 398 81.7 L 399 82.2 L 400 82.7 L 401 83.2 L 402 83.7 L 403 84.2 L 404 84.6 L 405 85.1 L 406 85.5 L 407 86.0 L 408 86.4 L 409 86.8 L 410 87.2 L 411 87.6 L 412 88.0 L 413 88.4 L 414 88.8 L 415 89.2 L 416 89.5 L 417 89.8 L 418 90.2 L 419 90.5 L 420 90.8 L 421 91.1 L 422 91.4 L 423 91.7 L 424 92.0 L 425 92.2 L 426 92.5 L 427 92.7 L 428 93.0 L 429 93.2 L 430 93.4 L 431 93.6 L 432 93.8 L 433 94.0 L 434 94.2 L 435 94.3 L 436 94.5 L 437 94.6 L 438 94.7 L 439 94.9 L 440 95.0 L 441 95.1 L 442 95.2 L 443 95.2 L 444 95.3 L 445 95.4 L 446 95.4 L 447 95.4 L 448 95.5 L 449 95.5 L 450 95.5 L 451 95.5 L 452 95.5 L 453 95.4 L 454 95.4 L 455 95.4 L 456 95.3 L 457 95.2 L 458 95.2 L 459 95.1 L 460 95.0 L 461 94.9 L 462 94.7 L 463 94.6 L 464 94.5 L 465 94.3 L 466 94.2 L 467 94.0 L 468 93.8 L 469 93.6 L 470 93.4 L 471 93.2 L 472 93.0 L 473 92.7 L 474 92.5 L 475 92.2 L 476 92.0 L 477 91.7 L 478 91.4 L 479 91.1 L 480 90.8 L 481 90.5 L 482 90.2 L 483 89.8 L 484 89.5 L 485 89.2 L 486 88.8 L 487 88.4 L 488 88.0 L 489 87.6 L 490 87.2 L 491 86.8 L 492 86.4 L 493 86.0 L 494 85.5 L 495 85.1 L 496 84.6 L 497 84.2 L 498 83.7 L 499 83.2 L 500 82.7 L 501 82.2 L 502 81.7 L 503 81.2 L 504 80.6 L 505 80.1 L 506 79.5 L 507 79.0 L 508 78.4 L 509 77.8 L 510 77.3 L 511 76.7 L 512 76.1 L 513 75.5 L 514 74.8 L 515 74.2 L 516 73.6 L 517 72.9 L 518 72.3 L 519 71.6 L 520 71.0 L 521 70.3 L 522 69.6 L 523 68.9 L 524 68.2 L 525 67.5 L 526 66.8 L 527 66.1 L 528 65.4 L 529 64.6 L 530 63.9 L 531 63.2 L 532 62.4 L 533 61.6 L 534 60.9 L 535 60.1 L 536 59.3 L 537 58.5 L 538 57.7 L 539 56.9 L 540 56.1 L 541 55.3 L 542 54.5 L 543 53.7 L 544 52.8 L 545 52.0 L 546 51.2 L 547 50.3 L 548 49.5 L 549 48.6 L 550 47.7 L 551 46.9 L 552 46.0 L 553 45.1 L 554 44.2 L 555 43.4 L 556 42.5 L 557 41.6 L 558 40.7 L 559 39.8 L 560 38.8 L 561 37.9 L 562 37.0 L 563 36.1 L 564 35.2 L 565 34.2 L 566 33.3 L 567 32.3 L 568 31.4 L 569 30.5 L 570 29.5 L 571 28.6 L 572 27.6 L 573 26.6 L 574 25.7 L 575 24.7 L 576 23.7 L 577 22.8 L 578 21.8 L 579 20.8 L 580 19.9 L 581 18.9 L 582 17.9 L 583 16.9 L 584 15.9 L 585 14.9 L 586 13.9 L 587 13.0 L 588 12.0 L 589 11.0 L 590 10.0 L 591 9.0 L 592 8.0 L 593 7.0 L 594 6.0 L 595 5.0 L 596 4.0 L 597 3.0 L 598 2.0 L 599 1.0 L 600 0.0 L 601 -1.0 L 602 -2.0 L 603 -3.0 L 604 -4.0 L 605 -5.0 L 606 -6.0 L 607 -7.0 L 608 -8.0 L 609 -9.0 L 610 -10.0 L 611 -11.0 L 612 -12.0 L 613 -13.0 L 614 -13.9 L 615 -14.9 L 616 -15.9 L 617 -16.9 L 618 -17.9 L 619 -18.9 L 620 -19.9 L 621 -20.8 L 622 -21.8 L 623 -22.8 L 624 -23.7 L 625 -24.7 L 626 -25.7 L 627 -26.6 L 628 -27.6 L 629 -28.6 L 630 -29.5 L 631 -30.5 L 632 -31.4 L 633 -32.3 L 634 -33.3 L 635 -34.2 L 636 -35.2 L 637 -36.1 L 638 -37.0 L 639 -37.9 L 640 -38.8 L 641 -39.8 L 642 -40.7 L 643 -41.6 L 644 -42.5 L 645 -43.4 L 646 -44.2 L 647 -45.1 L 648 -46.0 L 649 -46.9 L 650 -47.7 L 651 -48.6 L 652 -49.5 L 653 -50.3 L 654 -51.2 L 655 -52.0 L 656 -52.8 L 657 -53.7 L 658 -54.5 L 659 -55.3 L 660 -56.1 L 661 -56.9 L 662 -57.7 L 663 -58.5 L 664 -59.3 L 665 -60.1 L 666 -60.9 L 667 -61.6 L 668 -62.4 L 669 -63.2 L 670 -63.9 L 671 -64.6 L 672 -65.4 L 673 -66.1 L 674 -66.8 L 675 -67.5 L 676 -68.2 L 677 -68.9 L 678 -69.6 L 679 -70.3 L 680 -71.0 L 681 -71.6 L 682 -72.3 L 683 -72.9 L 684 -73.6 L 685 -74.2 L 686 -74.8 L 687 -75.5 L 688 -76.1 L 689 -76.7 L 690 -77.3 L 691 -77.8 L 692 -78.4 L 693 -79.0 L 694 -79.5 L 695 -80.1 L 696 -80.6 L 697 -81.2 L 698 -81.7 L 699 -82.2 L 700 -82.7 L 701 -83.2 L 702 -83.7 L 703 -84.2 L 704 -84.6 L 705 -85.1 L 706 -85.5 L 707 -86.0 L 708 -86.4 L 709 -86.8 L 710 -87.2 L 711 -87.6 L 712 -88.0 L 713 -88.4 L 714 -88.8 L 715 -89.2 L 716 -89.5 L 717 -89.8 L 718 -90.2 L 719 -90.5 L 720 -90.8 L 721 -91.1 L 722 -91.4 L 723 -91.7 L 724 -92.0 L 725 -92.2 L 726 -92.5 L 727 -92.7 L 728 -93.0 L 729 -93.2 L 730 -93.4 L 731 -93.6 L 732 -93.8 L 733 -94.0 L 734 -94.2 L 735 -94.3 L 736 -94.5 L 737 -94.6 L 738 -94.7 L 739 -94.9 L 740 -95.0 L 741 -95.1 L 742 -95.2 L 743 -95.2 L 744 -95.3 L 745 -95.4 L 746 -95.4 L 747 -95.4 L 748 -95.5 L 749 -95.5 L 750 -95.5 L 751 -95.5 L 752 -95.5 L 753 -95.4 L 754 -95.4 L 755 -95.4 L 756 -95.3 L 757 -95.2 L 758 -95.2 L 759 -95.1 L 760 -95.0 L 761 -94.9 L 762 -94.7 L 763 -94.6 L 764 -94.5 L 765 -94.3 L 766 -94.2 L 767 -94.0 L 768 -93.8 L 769 -93.6 L 770 -93.4 L 771 -93.2 L 772 -93.0 L 773 -92.7 L 774 -92.5 L 775 -92.2 L 776 -92.0 L 777 -91.7 L 778 -91.4 L 779 -91.1 L 780 -90.8 L 781 -90.5 L 782 -90.2 L 783 -89.8 L 784 -89.5 L 785 -89.2 L 786 -88.8 L 787 -88.4 L 788 -88.0 L 789 -87.6 L 790 -87.2 L 791 -86.8 L 792 -86.4 L 793 -86.0 L 794 -85.5 L 795 -85.1 L 796 -84.6 L 797 -84.2 L 798 -83.7 L 799 -83.2 L 800 -82.7 L 801 -82.2 L 802 -81.7 L 803 -81.2 L 804 -80.6 L 805 -80.1 L 806 -79.5 L 807 -79.0 L 808 -78.4 L 809 -77.8 L 810 -77.3 L 811 -76.7 L 812 -76.1 L 813 -75.5 L 814 -74.8 L 815 -74.2 L 816 -73.6 L 817 -72.9 L 818 -72.3 L 819 -71.6 L 820 -71.0 L 821 -70.3 L 822 -69.6 L 823 -68.9 L 824 -68.2 L 825 -67.5 L 826 -66.8 L 827 -66.1 L 828 -65.4 L 829 -64.6 L 830 -63.9 L 831 -63.2 L 832 -62.4 L 833 -61.6 L 834 -60.9 L 835 -60.1 L 836 -59.3 L 837 -58.5 L 838 -57.7 L 839 -56.9 L 840 -56.1 L 841 -55.3 L 842 -54.5 L 843 -53.7 L 844 -52.8 L 845 -52.0 L 846 -51.2 L 847 -50.3 L 848 -49.5 L 849 -48.6 L 850 -47.7 L 851 -46.9 L 852 -46.0 L 853 -45.1 L 854 -44.2 L 855 -43.4 L 856 -42.5 L 857 -41.6 L 858 -40.7 L 859 -39.8 L 860 -38.8 L 861 -37.9 L 862 -37.0 L 863 -36.1 L 864 -35.2 L 865 -34.2 L 866 -33.3 L 867 -32.3 L 868 -31.4 L 869 -30.5 L 870 -29.5 L 871 -28.6 L 872 -27.6 L 873 -26.6 L 874 -25.7 L 875 -24.7 L 876 -23.7 L 877 -22.8 L 878 -21.8 L 879 -20.8 L 880 -19.9 L 881 -18.9 L 882 -17.9 L 883 -16.9 L 884 -15.9 L 885 -14.9 L 886 -13.9 L 887 -13.0 L 888 -12.0 L 889 -11.0 L 890 -10.0 L 891 -9.0 L 892 -8.0 L 893 -7.0 L 894 -6.0 L 895 -5.0 L 896 -4.0 L 897 -3.0 L 898 -2.0 L 899 -1.0 L 900 -0.0 L 901 1.0 L 902 2.0 L 903 3.0 L 904 4.0 L 905 5.0 L 906 6.0 L 907 7.0 L 908 8.0 L 909 9.0 L 910 10.0 L 911 11.0 L 912 12.0 L 913 13.0 L 914 13.9 L 915 14.9 L 916 15.9 L 917 16.9 L 918 17.9 L 919 18.9 L 920 19.9 L 921 20.8 L 922 21.8 L 923 22.8 L 924 23.7 L 925 24.7 L 926 25.7 L 927 26.6 L 928 27.6 L 929 28.6 L 930 29.5 L 931 30.5 L 932 31.4 L 933 32.3 L 934 33.3 L 935 34.2 L 936 35.2 L 937 36.1 L 938 37.0 L 939 37.9 L 940 38.8 L 941 39.8 L 942 40.7 L 943 41.6 L 944 42.5 L 945 43.4 L 946 44.2 L 947 45.1 L 948 46.0 L 949 46.9 L 950 47.7 L 951 48.6 L 952 49.5 L 953 50.3 L 954 51.2 L 955 52.0 L 956 52.8 L 957 53.7 L 958 54.5 L 959 55.3 L 960 56.1 L 961 56.9 L 962 57.7 L 963 58.5 L 964 59.3 L 965 60.1 L 966 60.9 L 967 61.6 L 968 62.4 L 969 63.2 L 970 63.9 L 971 64.6 L 972 65.4 L 973 66.1 L 974 66.8 L 975 67.5 L 976 68.2 L 977 68.9 L 978 69.6 L 979 70.3 L 980 71.0 L 981 71.6 L 982 72.3 L 983 72.9 L 984 73.6 L 985 74.2 L 986 74.8 L 987 75.5 L 988 76.1 L 989 76.7 L 990 77.3 L 991 77.8 L 992 78.4 L 993 79.0 L 994 79.5 L 995 80.1 L 996 80.6 L 997 81.2 L 998 81.7 L 999 82.2 L 1000 82.7 L 1001 83.2 L 1002 83.7 L 1003 84.2 L 1004 84.6 L 1005 85.1 L 1006 85.5 L 1007 86.0 L 1008 86.4 L 1009 86.8 L 1010 87.2 L 1011 87.6 L 1012 88.0 L 1013 88.4 L 1014 88.8 L 1015 89.2 L 1016 89.5 L 1017 89.8 L 1018 90.2 L 1019 90.5 L 1020 90.8 L 1021 91.1 L 1022 91.4 L 1023 91.7 L 1024 92.0 L 1025 92.2 L 1026 92.5 L 1027 92.7 L 1028 93.0 L 1029 93.2 L 1030 93.4 L 1031 93.6 L 1032 93.8 L 1033 94.0 L 1034 94.2 L 1035 94.3 L 1036 94.5 L 1037 94.6 L 1038 94.7 L 1039 94.9 L 1040 95.0 L 1041 95.1 L 1042 95.2 L 1043 95.2 L 1044 95.3 L 1045 95.4 L 1046 95.4 L 1047 95.4 L 1048 95.5 L 1049 95.5 L 1050 95.5 L 1051 95.5 L 1052 95.5 L 1053 95.4 L 1054 95.4 L 1055 95.4 L 1056 95.3 L 1057 95.2 L 1058 95.2 L 1059 95.1 L 1060 95.0 L 1061 94.9 L 1062 94.7 L 1063 94.6 L 1064 94.5 L 1065 94.3 L 1066 94.2 L 1067 94.0 L 1068 93.8 L 1069 93.6 L 1070 93.4 L 1071 93.2 L 1072 93.0 L 1073 92.7 L 1074 92.5 L 1075 92.2 L 1076 92.0 L 1077 91.7 L 1078 91.4 L 1079 91.1 L 1080 90.8 L 1081 90.5 L 1082 90.2 L 1083 89.8 L 1084 89.5 L 1085 89.2 L 1086 88.8 L 1087 88.4 L 1088 88.0 L 1089 87.6 L 1090 87.2 L 1091 86.8 L 1092 86.4 L 1093 86.0 L 1094 85.5 L 1095 85.1 L 1096 84.6 L 1097 84.2 L 1098 83.7 L 1099 83.2 L 1100 82.7 L 1101 82.2 L 1102 81.7 L 1103 81.2 L 1104 80.6 L 1105 80.1 L 1106 79.5 L 1107 79.0 L 1108 78.4 L 1109 77.8 L 1110 77.3 L 1111 76.7 L 1112 76.1 L 1113 75.5 L 1114 74.8 L 1115 74.2 L 1116 73.6 L 1117 72.9 L 1118 72.3 L 1119 71.6 L 1120 71.0 L 1121 70.3 L 1122 69.6 L 1123 68.9 L 1124 68.2 L 1125 67.5 L 1126 66.8 L 1127 66.1 L 1128 65.4 L 1129 64.6 L 1130 63.9 L 1131 63.2 L 1132 62.4 L 1133 61.6 L 1134 60.9 L 1135 60.1 L 1136 59.3 L 1137 58.5 L 1138 57.7 L 1139 56.9 L 1140 56.1 L 1141 55.3 L 1142 54.5 L 1143 53.7 L 1144 52.8 L 1145 52.0 L 1146 51.2 L 1147 50.3 L 1148 49.5 L 1149 48.6 L 1150 47.7 L 1151 46.9 L 1152 46.0 L 1153 45.1 L 1154 44.2 L 1155 43.4 L 1156 42.5 L 1157 41.6 L 1158 40.7 L 1159 39.8 L 1160 38.8 L 1161 37.9 L 1162 37.0 L 1163 36.1 L 1164 35.2 L 1165 34.2 L 1166 33.3 L 1167 32.3 L 1168 31.4 L 1169 30.5 L 1170 29.5 L 1171 28.6 L 1172 27.6 L 1173 26.6 L 1174 25.7 L 1175 24.7 L 1176 23.7 L 1177 22.8 L 1178 21.8 L 1179 20.8 L 1180 19.9 L 1181 18.9 L 1182 17.9 L 1183 16.9 L 1184 15.9 L 1185 14.9 L 1186 13.9 L 1187 13.0 L 1188 12.0 L 1189 11.0 L 1190 10.0 L 1191 9.0 L 1192 8.0 L 1193 7.0 L 1194 6.0 L 1195 5.0 L 1196 4.0 L 1197 3.0 L 1198 2.0 L 1199 1.0 " class="default"></path><line x1="-10000" y1="0" x2="10000" y2="0" class="default"></line><line x1="0" y1="-10000" x2="0" y2="10000" class="default"></line><circle style="fill: cornflowerblue;" cy="0" cx="0" r="4"></circle></g><rect x="0" y="0" width="125" height="40" class="default" id="rectangle-78" style="fill: white;"></rect><rect x="120" y="0" width="125" height="40" class="default" id="rectangle-79" style="fill: white;"></rect><text x="15" y="20" id="text-80" style="dominant-baseline: middle; white-space: pre;">x:0</text><text x="140" y="20" id="text-81" style="dominant-baseline: middle; white-space: pre;">y:0</text></g></g><g></g><style type="text/css">.window { display: block; margin: 0px auto 1.5em; overflow: hidden; }
.window { box-shadow: rgba(0, 0, 0, 0.15) 0px 5px 9px 0px, rgba(0, 0, 0, 0.19) 0px 3px 10px 0px; }
.border { border: 1px solid grey; }
.interactive { max-width: 100%; }
svg { font-family: "Helvetica Neue", "Segoe UI", Helvetica, Arial, sans-serif; font-weight: normal; font-feature-settings: "kern", "liga", "clig", "calt"; -webkit-font-smoothing: antialiased; user-select: none; }
text { fill: rgb(51, 51, 51); stroke: none; }
.default { stroke: rgb(64, 64, 64); stroke-width: 1px; fill: none; }
.control-point { fill: rgb(3, 102, 238); stroke: none; }
.control-handle { fill: transparent; stroke: rgb(3, 102, 238); stroke-width: 2px; opacity: 0; }
.control-handle.highlight { opacity: 1; }
.button rect { fill: rgb(85, 85, 85); }
.button:hover rect { fill: rgb(51, 51, 51); }
.button text { fill: rgb(255, 255, 255); }
</style></svg>