<svg id="eeb30a18-fdf2-4c77-bbf7-b18a19c6bc07" data-name="interactive-210" xmlns="http://www.w3.org/2000/svg" viewBox="0 0 600 600"><title>Artboard 1</title><g id="e6809e1a-d9c6-4d9d-8e2b-fdcc03949c06" data-name="group-211"><g id="e0221c9e-637e-4551-bcf9-8e3b6170a068" data-name="group-226"><circle id="b856e84b-c696-4276-9065-f99393fd095a" data-name="circle-230" cx="300" cy="300" r="100" style="fill:none;stroke:#ddd;stroke-miterlimit:10"/><circle id="afe70fce-6e10-4610-a66e-3e749ea5b8a4" data-name="circle-232" cx="300" cy="300" r="150" style="fill:none;stroke:#ddd;stroke-miterlimit:10"/><circle id="a0181401-2217-4312-b354-0e9dd6414168" data-name="circle-234" cx="300" cy="300" r="200" style="fill:none;stroke:#ddd;stroke-miterlimit:10"/><line id="ae00c6b0-8aae-4fe4-8155-83f705e653c3" data-name="line-237" x1="50" y1="300" x2="550" y2="300" style="fill:none;stroke:#333;stroke-miterlimit:10"/><line id="bad319a9-60f2-4a25-8b21-8eb4ef68790d" data-name="line-238" x1="123.22" y1="123.22" x2="476.78" y2="476.78" style="fill:none;stroke:#ddd;stroke-miterlimit:10"/><line id="e4f91acd-0b95-4895-b396-408edd8a1554" data-name="line-239" x1="300" y1="50" x2="300" y2="550" style="fill:none;stroke:#333;stroke-miterlimit:10"/><line id="aa95a665-8903-4501-891b-2e0c5dadcdf8" data-name="line-240" x1="476.78" y1="123.22" x2="123.22" y2="476.78" style="fill:none;stroke:#ddd;stroke-miterlimit:10"/><line id="a98f9f2e-8cce-4320-a91b-a4f04f7814a8" data-name="line-241" x1="550" y1="300" x2="50" y2="300" style="fill:none;stroke:#333;stroke-miterlimit:10"/><line id="f08a50e7-724c-4003-9ed7-7edc02b048ba" data-name="line-242" x1="476.78" y1="476.78" x2="123.22" y2="123.22" style="fill:none;stroke:#ddd;stroke-miterlimit:10"/><g id="ff2b6d02-d06e-4d2a-b67a-7d11c5d95d8e" data-name="line-243"><line x1="300" y1="542.82" x2="300" y2="57.18" style="fill:none;stroke:#333;stroke-miterlimit:10"/><polygon points="304.99 541.37 300 550 295.01 541.37 304.99 541.37" style="fill:#333"/><polygon points="304.99 58.63 300 50 295.01 58.63 304.99 58.63" style="fill:#333"/></g><line id="b0929193-d9f7-41e7-b442-33ed19761a88" data-name="line-244" x1="123.22" y1="476.78" x2="476.78" y2="123.22" style="fill:none;stroke:#ddd;stroke-miterlimit:10"/><g id="f4646164-40bb-456a-b201-f05baa3299b2" data-name="line-245"><line x1="57.18" y1="300" x2="542.82" y2="300" style="fill:none;stroke:#333;stroke-miterlimit:10"/><polygon points="58.63 304.99 50 300 58.63 295.01 58.63 304.99" style="fill:#333"/><polygon points="541.37 304.99 550 300 541.37 295.01 541.37 304.99" style="fill:#333"/></g><circle id="b5dd4f99-d869-4ee4-8011-1a58411a46d9" data-name="circle-228" cx="300" cy="300" r="50" style="fill:none;stroke:#ddd;stroke-miterlimit:10"/></g><circle id="bf94e3f2-1ee3-497c-a697-7068598e7b27" data-name="circle-216" cx="300" cy="300" r="250" style="fill:none;stroke:#333;stroke-miterlimit:10"/><line id="e260a7a0-792a-4a75-95a2-e98c9b94d289" data-name="line-246" x1="300" y1="300" x2="370.71" y2="229.29" style="fill:none;stroke:#333"/><path id="f9870d93-db17-4b89-a626-5ca61ff12cac" data-name="path-217" d="M300,300h50a50,50,0,0,0-14.64-35.36Z" style="fill:#f8f8f8;stroke:#333;stroke-miterlimit:10"/><circle id="acdf834a-6e3c-44cd-a7aa-4b541d791f7b" data-name="circle-247" cx="300" cy="300" r="3" style="fill:#333;stroke:#333;stroke-miterlimit:10"/></g><g id="a4940f61-ea4f-47e2-80ec-b5ff059be58b" data-name="group-212"><g id="b96eb310-7207-442d-a3c2-232dd2f37765" data-name="control-213"><circle id="fc769813-d364-48c0-8983-6aea7dc1fa8c" data-name="circle-214" cx="370.71" cy="229.29" r="4" style="fill:#333;stroke:#333;stroke-miterlimit:10"/></g></g><path d="M393.89,246s0,.09-.12.17h-.53a16.39,16.39,0,0,1-3.38-4,20.2,20.2,0,0,1-2.22-5.23,29,29,0,0,1-1-7.81,29.34,29.34,0,0,1,1-7.83,18.12,18.12,0,0,1,5.6-9.27h.53c.08.07.12.13.12.17s-.09.16-.25.34c-.38.42-.77.88-1.18,1.39a22.28,22.28,0,0,0-3.91,11.49q-.15,1.47-.15,3.69c0,1.49.05,2.73.15,3.7q.72,8.18,5.09,12.89C393.8,245.79,393.89,245.91,393.89,246Z" style="fill:#333"/><path d="M396.66,225.65a1.11,1.11,0,0,1-.84-.34,1.24,1.24,0,0,1-.3-.84,3.14,3.14,0,0,1,1-2.35,3.48,3.48,0,0,1,2.48-1,4.1,4.1,0,0,1,2.7.89,3.67,3.67,0,0,1,1.32,2.31,4.59,4.59,0,0,1,0,.62,3.58,3.58,0,0,1-.66,2.07,12.62,12.62,0,0,1-2.15,2.19c-.46.39-1.09,1-1.9,1.75L397.27,232l1.44,0a24.25,24.25,0,0,0,3.18-.09c.05,0,.11-.15.19-.4s.13-.57.26-1.3v0h.76v0l-.53,3.48v.06h-7.05v-.36a1.14,1.14,0,0,1,0-.44l1.59-1.8c1.39-1.54,2.27-2.55,2.66-3a5.53,5.53,0,0,0,1.28-3.18,3.33,3.33,0,0,0-.66-2.1,2.18,2.18,0,0,0-1.83-.84,2.09,2.09,0,0,0-1.79,1,1.44,1.44,0,0,1-.11.2l-.06.12s0,0,.1,0a1,1,0,0,1,.77.34,1.21,1.21,0,0,1,.29.8,1.12,1.12,0,0,1-.31.8A1.07,1.07,0,0,1,396.66,225.65Z" style="fill:#333"/><path d="M405.89,233.47a1.13,1.13,0,0,1-.34-.81,1.17,1.17,0,0,1,.32-.82,1,1,0,0,1,.8-.34,1.12,1.12,0,0,1,1.06.61,3.19,3.19,0,0,1,.33,1.54,4.5,4.5,0,0,1,0,.66,5.5,5.5,0,0,1-1.38,2.91c-.18.18-.3.26-.35.26s-.13,0-.24-.17-.17-.19-.17-.24.06-.16.19-.29a4.49,4.49,0,0,0,1.29-2.92v-.23l-.12.05a1.13,1.13,0,0,1-.51.12A1.17,1.17,0,0,1,405.89,233.47Z" style="fill:#333"/><path d="M429.09,228.4c-.26,0-.4-.06-.4-.19v0s0,0,0,0a8.29,8.29,0,0,1,1.52-1.92,2.63,2.63,0,0,1,1.24-.59c.07,0,1.14,0,3.19,0s3.07,0,3.14,0a.47.47,0,0,1,.38.51.8.8,0,0,1-.18.49.78.78,0,0,1-.43.31c-.08,0-.69,0-1.83,0s-1.71,0-1.71,0-.11.54-.31,1.56-.4,2.07-.6,3.14-.32,1.62-.34,1.69a.82.82,0,0,1-.35.45.92.92,0,0,1-.54.18.56.56,0,0,1-.63-.63v-.19l.95-3.08.46-1.52.39-1.22.12-.39a5.79,5.79,0,0,0-.88,0,9.31,9.31,0,0,0-1,0,2.59,2.59,0,0,0-1.77,1.17.49.49,0,0,1-.15.18A.75.75,0,0,1,429.09,228.4Z" style="fill:#333"/><path d="M437.32,212.18c0-.1,0-.17.08-.19a.73.73,0,0,1,.32,0H438a16.39,16.39,0,0,1,3.38,4,20.55,20.55,0,0,1,2.22,5.23,31.38,31.38,0,0,1,0,15.64,18.12,18.12,0,0,1-5.6,9.27h-.25a.73.73,0,0,1-.33,0c-.05,0-.07-.09-.07-.19l.25-.28q4.37-4.73,5.09-12.89c.1-1,.15-2.21.15-3.7s-.05-2.71-.15-3.69a22.28,22.28,0,0,0-3.91-11.49c-.41-.52-.8-1-1.18-1.39C437.42,212.28,437.33,212.19,437.32,212.18Z" style="fill:#333"/><path d="M562.06,293.49A3.35,3.35,0,0,1,565,292a3.49,3.49,0,0,1,2.43.95,4,4,0,0,1,.88,1.29,10.86,10.86,0,0,1,.7,4.33,9.86,9.86,0,0,1-.82,4.51,3.28,3.28,0,0,1-1.55,1.59,3.56,3.56,0,0,1-1.62.4,3.34,3.34,0,0,1-3.19-2,9.86,9.86,0,0,1-.82-4.51,14.6,14.6,0,0,1,.24-2.91A6.45,6.45,0,0,1,562.06,293.49Zm4.28-.23a1.78,1.78,0,0,0-1.35-.61,1.84,1.84,0,0,0-1.37.61,2.28,2.28,0,0,0-.57,1.06,12.34,12.34,0,0,0-.19,2.17c0,.08,0,.32,0,.74s0,.77,0,1c0,1.21,0,2.06,0,2.54a10.75,10.75,0,0,0,.23,1.91,2.13,2.13,0,0,0,.57,1,1.68,1.68,0,0,0,1.31.57,1.66,1.66,0,0,0,1.29-.57,2.13,2.13,0,0,0,.57-1,10.75,10.75,0,0,0,.23-1.91c0-.48,0-1.33,0-2.54,0-.28,0-.63,0-1s0-.66,0-.74a12.34,12.34,0,0,0-.19-2.17A2.28,2.28,0,0,0,566.34,293.26Z" style="fill:#333"/><path d="M571.56,304.27a1.11,1.11,0,0,1-.34-.81,1.15,1.15,0,0,1,.32-.81,1,1,0,0,1,.8-.35,1.14,1.14,0,0,1,1.06.61,3.22,3.22,0,0,1,.33,1.54,4.73,4.73,0,0,1,0,.67,5.5,5.5,0,0,1-1.38,2.9c-.18.18-.3.27-.35.27s-.13-.06-.24-.17-.18-.2-.18-.25.07-.16.2-.28a4.52,4.52,0,0,0,1.29-2.93v-.23l-.12.06a1.12,1.12,0,0,1-.51.11A1.17,1.17,0,0,1,571.56,304.27Z" style="fill:#333"/><path d="M575.76,299.21c-.26,0-.4-.07-.4-.19v0a0,0,0,0,0,0,0,6.41,6.41,0,0,1,.66-1,7,7,0,0,1,.86-.94,2.73,2.73,0,0,1,1.24-.59c.07,0,1.14,0,3.19,0s3.07,0,3.14,0a.49.49,0,0,1,.38.52.85.85,0,0,1-.18.49.76.76,0,0,1-.43.3,17.07,17.07,0,0,1-1.83,0,12.94,12.94,0,0,0-1.71,0s-.11.53-.31,1.56-.4,2.07-.6,3.13-.32,1.63-.34,1.69a.84.84,0,0,1-.35.46,1,1,0,0,1-.54.17.56.56,0,0,1-.63-.63V304l1-3.07c.14-.46.29-1,.46-1.52l.39-1.22.12-.4a8.26,8.26,0,0,0-.88,0c-.62,0-1,0-1,0a2.57,2.57,0,0,0-1.77,1.18.49.49,0,0,1-.15.18A.75.75,0,0,1,575.76,299.21Z" style="fill:#333"/><path d="M360.71,319.81q-.34-.06-3.18-.06c-1.87,0-2.92,0-3.14.06h-.24v-.92h.52a11.34,11.34,0,0,0,1.5-.06,1.71,1.71,0,0,0,.48-.24V308.25a.46.46,0,0,0-.16.06,6.09,6.09,0,0,1-2.06.38h-.38v-.92h.38a5.66,5.66,0,0,0,2.8-.76,3.33,3.33,0,0,0,.62-.46s.1-.06.24-.06a.52.52,0,0,1,.34.12v6l0,6a1.93,1.93,0,0,0,1.3.3h1.18v.92Z" style="fill:#333"/><path d="M406.71,309.92a1.13,1.13,0,0,1-.88-.36,1.29,1.29,0,0,1-.32-.88,3.31,3.31,0,0,1,1.09-2.47,3.71,3.71,0,0,1,2.61-1,4.32,4.32,0,0,1,2.85.93,3.86,3.86,0,0,1,1.39,2.43,5.29,5.29,0,0,1,0,.66,3.74,3.74,0,0,1-.7,2.18,12.79,12.79,0,0,1-2.26,2.3c-.48.42-1.14,1-2,1.84l-1.18,1.12,1.52,0a23.28,23.28,0,0,0,3.34-.1c.06,0,.12-.15.2-.42a10.11,10.11,0,0,0,.28-1.36v-.06h.8v.06l-.56,3.66v.06h-7.42v-.38a1.6,1.6,0,0,1,0-.46s.58-.64,1.68-1.9q2.19-2.42,2.8-3.2a5.73,5.73,0,0,0,1.34-3.34,3.51,3.51,0,0,0-.69-2.21,2.31,2.31,0,0,0-1.93-.89,2.21,2.21,0,0,0-1.88,1,1,1,0,0,1-.12.22.57.57,0,0,0-.06.12s0,0,.1,0a1,1,0,0,1,.81.36,1.23,1.23,0,0,1,.31.84,1.18,1.18,0,0,1-.33.85A1.12,1.12,0,0,1,406.71,309.92Z" style="fill:#333"/><path d="M461.35,309.24a1.09,1.09,0,0,1-.85-.34,1.23,1.23,0,0,1-.31-.88,2.42,2.42,0,0,1,.9-1.91,3.89,3.89,0,0,1,2.08-.91h.3c.47,0,.76,0,.88,0a5.05,5.05,0,0,1,1.34.42,3,3,0,0,1,1.66,1.88,2,2,0,0,1,.06.54,3.3,3.3,0,0,1-.73,2.11,4,4,0,0,1-1.83,1.33q-.11,0,0,.06a.59.59,0,0,0,.2.06,4.3,4.3,0,0,1,2.06,1.27A3.07,3.07,0,0,1,468,315a3.5,3.5,0,0,1-.38,1.58,3.91,3.91,0,0,1-1.57,1.69,4.54,4.54,0,0,1-2.43.67,4.71,4.71,0,0,1-2.34-.56,2.86,2.86,0,0,1-1.38-1.5,2.28,2.28,0,0,1-.2-1A1.2,1.2,0,0,1,460,315a1.33,1.33,0,0,1,1.81,0,1.22,1.22,0,0,1,.36.9,1.28,1.28,0,0,1-.26.8,1.14,1.14,0,0,1-.7.44l-.14,0a3.77,3.77,0,0,0,2.48.9,1.78,1.78,0,0,0,1.66-1.06,4.54,4.54,0,0,0,.34-2v-.4a2.58,2.58,0,0,0-1.28-2.54,4.47,4.47,0,0,0-1.22-.14l-.84,0-.06,0a.67.67,0,0,1,0-.32.47.47,0,0,1,.06-.3s.07-.06.1-.06a6.74,6.74,0,0,0,1.16-.1,1.73,1.73,0,0,0,1.34-1,4.36,4.36,0,0,0,.46-2.09,1.91,1.91,0,0,0-.7-1.74,1.7,1.7,0,0,0-.94-.28,3,3,0,0,0-1.76.54l-.18.13a1.2,1.2,0,0,0-.16.17l-.06.08.14,0a1,1,0,0,1,.67.38,1.23,1.23,0,0,1,.27.78,1.1,1.1,0,0,1-.33.81A1.15,1.15,0,0,1,461.35,309.24Z" style="fill:#333"/><path d="M515.4,318.5q-.28-.06-2.58-.06c-1.6,0-2.49,0-2.68.06H510v-.92h.62a3.78,3.78,0,0,0,1.06-.1.32.32,0,0,0,.24-.2s0-.38,0-1.08v-1h-5.18v-.92l3-4.62q3.06-4.64,3.1-4.66a1.25,1.25,0,0,1,.42,0h.36l.12.12v9.2h1.84v.92h-1.84v1c0,.55,0,.87,0,1a.34.34,0,0,0,.11.24,2.42,2.42,0,0,0,1.14.16h.58v.92ZM512,314.28V307.6l-4.38,6.66,2.18,0Z" style="fill:#333"/><path d="M490.82,483.89s.12-.72.32-2.07l.31-2s.12,0,.38,0h.38v.07c0,.13.09.24.28.32a3,3,0,0,0,1,.18c.47,0,1.54,0,3.2,0H499v.74l-1.29,1.77-.65.89-.55.75c-.13.17-.2.28-.23.32a8.78,8.78,0,0,0-1.18,4.12q-.07.78-.09,2.13c0,.18,0,.36,0,.54s0,.33,0,.45v.17a1,1,0,0,1-.37.55,1,1,0,0,1-.64.23.93.93,0,0,1-.73-.32,1.25,1.25,0,0,1-.27-.86c0-.19,0-.55.07-1.08a13.25,13.25,0,0,1,1.77-5.15c.25-.41.78-1.17,1.59-2.3l.88-1.2h-1.77a21.37,21.37,0,0,0-3.48.12s-.12.16-.2.41a5.87,5.87,0,0,0-.19.9q0,.32-.06.36v.05h-.76Z" style="fill:#333"/><path d="M492.9,506.73a5.51,5.51,0,0,1-1.43-1.28,2.77,2.77,0,0,1-.51-1.74,2.83,2.83,0,0,1,.31-1.37,3.46,3.46,0,0,1,1.22-1.38,3.34,3.34,0,0,1,1.86-.52,3.76,3.76,0,0,1,2.24.67,2.81,2.81,0,0,1,1.18,1.74,4,4,0,0,1,0,.46,3.17,3.17,0,0,1,0,.57A3.57,3.57,0,0,1,496,506l-.23.16c.71.48,1.08.73,1.1.76a3.48,3.48,0,0,1,1.43,2.83,3.55,3.55,0,0,1-1.13,2.63,3.91,3.91,0,0,1-2.82,1.09,3.79,3.79,0,0,1-3.44-1.71,2.82,2.82,0,0,1-.48-1.65C490.45,508.77,491.27,507.63,492.9,506.73Zm-1.23,3.38a2.38,2.38,0,0,0,.81,1.85,2.76,2.76,0,0,0,1.9.73,3,3,0,0,0,1.42-.32,2.33,2.33,0,0,0,1-.84,1.87,1.87,0,0,0,.32-1,2,2,0,0,0-.66-1.45c-.1-.1-.63-.46-1.58-1.08l-.58-.37-.48-.31-.16-.1-.22.12a3.67,3.67,0,0,0-1.58,1.9A3.14,3.14,0,0,0,491.67,510.11Zm5-6.77a1.93,1.93,0,0,0-.53-1.38,2.32,2.32,0,0,0-1.29-.72,4.41,4.41,0,0,0-.63,0,2.32,2.32,0,0,0-1.69.68,1.36,1.36,0,0,0-.47,1.05,1.49,1.49,0,0,0,.68,1.29c.06.06.47.33,1.22.8l1.1.72a1.78,1.78,0,0,1,.25-.16,2.27,2.27,0,0,0,.34-.26A2.47,2.47,0,0,0,496.68,503.34Z" style="fill:#333"/><line x1="489.53" y1="496.93" x2="499.43" y2="496.93" style="fill:none;stroke:#333;stroke-miterlimit:10"/><path d="M421.31,225c-.17,0-1,0-2.42,0s-2.21,0-2.38,0h-.19v-.7h.4a8.3,8.3,0,0,0,1.14-.05,1,1,0,0,0,.36-.18v-7.86l-.12.05a4.51,4.51,0,0,1-1.56.29h-.29v-.7h.29a4.2,4.2,0,0,0,2.13-.58,2.4,2.4,0,0,0,.47-.35s.08,0,.18,0a.39.39,0,0,1,.26.09v9.1a1.48,1.48,0,0,0,1,.23h.9v.7Z" style="fill:#333"/><path d="M417.73,236.35a4.51,4.51,0,0,1-1.15-1,2.63,2.63,0,0,1-.16-2.49,2.69,2.69,0,0,1,2.46-1.52,3,3,0,0,1,1.8.54,2.21,2.21,0,0,1,.94,1.39,2.45,2.45,0,0,1,0,.36,2.25,2.25,0,0,1,0,.46,2.88,2.88,0,0,1-1.39,1.73l-.18.12.88.61a2.86,2.86,0,0,1,.24,4.37,3.16,3.16,0,0,1-2.26.88,3,3,0,0,1-2.75-1.37,2.31,2.31,0,0,1-.38-1.33A3.14,3.14,0,0,1,417.73,236.35Zm-1,2.7a1.91,1.91,0,0,0,.66,1.49,2.19,2.19,0,0,0,1.52.58,2.38,2.38,0,0,0,1.13-.26,1.88,1.88,0,0,0,.77-.67,1.49,1.49,0,0,0,.25-.83,1.54,1.54,0,0,0-.53-1.16,14.73,14.73,0,0,0-1.26-.86l-.46-.3-.39-.25-.12-.08-.19.09a3.08,3.08,0,0,0-1.26,1.52A2.58,2.58,0,0,0,416.74,239.05Zm4-5.41a1.6,1.6,0,0,0-.42-1.11,1.93,1.93,0,0,0-1-.57,4.6,4.6,0,0,0-.51,0,1.83,1.83,0,0,0-1.35.55,1.1,1.1,0,0,0-.38.83,1.2,1.2,0,0,0,.55,1c.05,0,.37.26,1,.64l.88.57.2-.13a1.35,1.35,0,0,0,.27-.2A2,2,0,0,0,420.75,233.64Z" style="fill:#333"/><line x1="414.66" y1="228.51" x2="423.17" y2="228.51" style="fill:none;stroke:#333;stroke-miterlimit:10"/><path d="M504.34,496c-.26,0-.4-.06-.4-.19v0s0,0,0,0a5.73,5.73,0,0,1,.66-1,6.42,6.42,0,0,1,.86-.94,2.73,2.73,0,0,1,1.24-.59c.07,0,1.14,0,3.19,0s3.07,0,3.13,0a.46.46,0,0,1,.38.51.85.85,0,0,1-.18.5.76.76,0,0,1-.42.3,17.07,17.07,0,0,1-1.83,0,12.94,12.94,0,0,0-1.71,0s-.11.53-.31,1.55-.4,2.08-.6,3.14-.32,1.63-.34,1.69a.94.94,0,0,1-.35.46,1,1,0,0,1-.54.17.56.56,0,0,1-.63-.63v-.19l.95-3.08c.14-.45.29-1,.46-1.52s.3-1,.39-1.21l.12-.4a5.79,5.79,0,0,0-.88,0,9.31,9.31,0,0,0-1,0,2.59,2.59,0,0,0-1.77,1.17.46.46,0,0,1-.15.19A.83.83,0,0,1,504.34,496Z" style="fill:#333"/><path d="M293.45,565.45a1,1,0,0,1-.8-.32,1.17,1.17,0,0,1-.3-.84,2.3,2.3,0,0,1,.86-1.81,3.55,3.55,0,0,1,2-.86h1.12a5,5,0,0,1,1.28.4,2.84,2.84,0,0,1,1.57,1.79,1.78,1.78,0,0,1,.06.51,3.18,3.18,0,0,1-.69,2,3.83,3.83,0,0,1-1.74,1.26c-.06,0-.06,0,0,.06l.19.05a4.14,4.14,0,0,1,2,1.21,2.91,2.91,0,0,1,.79,2,3.35,3.35,0,0,1-.36,1.51,3.74,3.74,0,0,1-1.49,1.6,4.27,4.27,0,0,1-2.31.64,4.61,4.61,0,0,1-2.22-.53,2.74,2.74,0,0,1-1.31-1.43,2.09,2.09,0,0,1-.19-.93,1.15,1.15,0,0,1,.35-.86,1.16,1.16,0,0,1,.85-.34,1.22,1.22,0,0,1,.87.34,1.27,1.27,0,0,1,.09,1.62,1.1,1.1,0,0,1-.66.42l-.13,0a3.56,3.56,0,0,0,2.35.85,1.69,1.69,0,0,0,1.58-1,4.41,4.41,0,0,0,.32-1.92v-.38a2.43,2.43,0,0,0-1.21-2.41,4.16,4.16,0,0,0-1.16-.13l-.8,0-.06,0a.79.79,0,0,1,0-.3.46.46,0,0,1,.06-.29.19.19,0,0,1,.1-.05,7.14,7.14,0,0,0,1.1-.1,1.65,1.65,0,0,0,1.27-.94,4.19,4.19,0,0,0,.44-2,1.8,1.8,0,0,0-.67-1.66,1.6,1.6,0,0,0-.89-.26,2.82,2.82,0,0,0-1.67.51.77.77,0,0,0-.17.12.71.71,0,0,0-.15.16l-.06.08.13,0a.86.86,0,0,1,.64.36,1.14,1.14,0,0,1,.25.74,1,1,0,0,1-.31.77A1.09,1.09,0,0,1,293.45,565.45Z" style="fill:#333"/><path d="M299.68,594.75c-.18,0-1,0-2.45,0s-2.37,0-2.55,0h-.17v-.87h.59a3.85,3.85,0,0,0,1-.1.33.33,0,0,0,.23-.19s0-.36,0-1v-1h-4.93v-.88l2.87-4.39c1.94-2.93,2.92-4.41,2.95-4.42s.16,0,.4,0H298l.11.11v8.74h1.75v.88H298.1v1c0,.52,0,.82,0,.91a.36.36,0,0,0,.11.23,2.35,2.35,0,0,0,1.08.15h.55v.87Zm-3.21-4V584.4l-4.16,6.32,2.07,0Z" style="fill:#333"/><line x1="290.8" y1="578.59" x2="300.69" y2="578.59" style="fill:none;stroke:#333;stroke-miterlimit:10"/><path d="M305.61,577.7c-.27,0-.4-.06-.4-.19h0l0,0a5.19,5.19,0,0,1,.66-1,6.42,6.42,0,0,1,.86-.94A2.68,2.68,0,0,1,308,575c.07,0,1.13,0,3.19,0s3.07,0,3.13,0a.46.46,0,0,1,.38.51.85.85,0,0,1-.18.5.74.74,0,0,1-.43.3,16.66,16.66,0,0,1-1.82,0,12.94,12.94,0,0,0-1.71,0s-.12.53-.31,1.55-.4,2.08-.6,3.14-.32,1.63-.34,1.69a.9.9,0,0,1-.36.46,1,1,0,0,1-.54.17.55.55,0,0,1-.62-.63v-.19l1-3.08c.14-.45.29-1,.46-1.52s.3-1,.39-1.21l.12-.4a5.9,5.9,0,0,0-.88,0,9.7,9.7,0,0,0-1,0A2.57,2.57,0,0,0,306,577.5a.32.32,0,0,1-.42.2Z" style="fill:#333"/><path d="M96.3,495.9a1.06,1.06,0,0,1,.77.32,1.1,1.1,0,0,1,.31.79,1,1,0,0,1-.32.74,1.06,1.06,0,0,1-.73.3H96.2l.06.1a2.46,2.46,0,0,0,.87,1,2.39,2.39,0,0,0,1.39.4,2,2,0,0,0,1.94-1.14,5.81,5.81,0,0,0,.36-2.43,4.62,4.62,0,0,0-.52-2.64,1.47,1.47,0,0,0-1.21-.63A2.44,2.44,0,0,0,96.85,494a.37.37,0,0,1-.15.17,1.31,1.31,0,0,1-.27,0c-.22,0-.34,0-.36-.11s0-1.16,0-3.33c0-.38,0-.83,0-1.34s0-.85,0-1c0-.71,0-1.07.11-1.07a.13.13,0,0,1,.08,0l.34.11a6.78,6.78,0,0,0,2.53.49,6.34,6.34,0,0,0,2.58-.53.6.6,0,0,1,.25-.07c.1,0,.15.11.15.34v.24a4.84,4.84,0,0,1-3.89,1.85,4.38,4.38,0,0,1-1.07-.12l-.19,0v3.26a3.56,3.56,0,0,1,2.23-.87,3.74,3.74,0,0,1,.78.09,3.65,3.65,0,0,1,2.08,1.45,4.42,4.42,0,0,1,.8,2.62,4.15,4.15,0,0,1-1.2,3,4,4,0,0,1-3,1.26,3.14,3.14,0,0,1-2-.67,2.18,2.18,0,0,1-.63-.62,3.37,3.37,0,0,1-.72-1.7,1.53,1.53,0,0,0,0-.18c0-.08,0-.14,0-.18a1.09,1.09,0,0,1,.31-.83A1,1,0,0,1,96.3,495.9Z" style="fill:#333"/><path d="M97.39,514.11A5.51,5.51,0,0,1,96,512.83a2.77,2.77,0,0,1-.51-1.74,2.83,2.83,0,0,1,.31-1.37A3.46,3.46,0,0,1,97,508.34a3.34,3.34,0,0,1,1.86-.52,3.78,3.78,0,0,1,2.24.67,2.85,2.85,0,0,1,1.18,1.74,4,4,0,0,1,0,.46,3.17,3.17,0,0,1,0,.57,3.57,3.57,0,0,1-1.73,2.16l-.23.16,1.1.75a3.51,3.51,0,0,1,1.43,2.84,3.55,3.55,0,0,1-1.13,2.63,3.91,3.91,0,0,1-2.82,1.09,3.79,3.79,0,0,1-3.44-1.71,2.82,2.82,0,0,1-.48-1.65C94.94,516.15,95.76,515,97.39,514.11Zm-1.23,3.38a2.38,2.38,0,0,0,.81,1.85,2.76,2.76,0,0,0,1.9.73,3,3,0,0,0,1.42-.32,2.33,2.33,0,0,0,1-.84,1.9,1.9,0,0,0,.32-1,2,2,0,0,0-.66-1.45c-.1-.1-.63-.46-1.58-1.08l-.58-.37-.48-.31-.16-.1-.22.12a3.67,3.67,0,0,0-1.58,1.9A3.14,3.14,0,0,0,96.16,517.49Zm5-6.77a1.93,1.93,0,0,0-.53-1.38,2.32,2.32,0,0,0-1.29-.72,4.41,4.41,0,0,0-.63,0,2.32,2.32,0,0,0-1.69.68,1.36,1.36,0,0,0-.47,1.05,1.49,1.49,0,0,0,.68,1.29c.06.06.47.33,1.22.8l1.1.72a1.12,1.12,0,0,1,.25-.16,2.27,2.27,0,0,0,.34-.26A2.47,2.47,0,0,0,101.17,510.72Z" style="fill:#333"/><line x1="94.02" y1="504.31" x2="103.92" y2="504.31" style="fill:none;stroke:#333;stroke-miterlimit:10"/><path d="M108.83,503.42c-.26,0-.4-.06-.4-.19v0s0,0,0,0a5.73,5.73,0,0,1,.66-1,6.42,6.42,0,0,1,.86-.94,2.73,2.73,0,0,1,1.24-.59c.07,0,1.14,0,3.19,0s3.07,0,3.13,0a.46.46,0,0,1,.38.51.85.85,0,0,1-.18.5.76.76,0,0,1-.42.3,17.07,17.07,0,0,1-1.83,0,12.94,12.94,0,0,0-1.71,0s-.12.53-.31,1.55-.4,2.08-.6,3.14-.32,1.63-.34,1.69a.94.94,0,0,1-.35.46,1,1,0,0,1-.54.17.56.56,0,0,1-.63-.63v-.19l1-3.08c.14-.45.29-1,.46-1.52s.3-1,.39-1.21l.12-.4a5.79,5.79,0,0,0-.88,0,9.31,9.31,0,0,0-1,0,2.59,2.59,0,0,0-1.77,1.17.46.46,0,0,1-.15.19A.83.83,0,0,1,108.83,503.42Z" style="fill:#333"/><path d="M26.85,295.24q-.33-.06-3-.06c-1.77,0-2.76,0-3,.06h-.23v-.87h.5a10.08,10.08,0,0,0,1.42-.06,1.19,1.19,0,0,0,.46-.23v-9.82a.37.37,0,0,0-.15.06,5.79,5.79,0,0,1-2,.36h-.36v-.88h.36a5.17,5.17,0,0,0,2.66-.72,2.39,2.39,0,0,0,.59-.44s.1-.05.23-.05a.52.52,0,0,1,.32.11v5.68l0,5.7a1.82,1.82,0,0,0,1.23.29h1.13v.87Z" style="fill:#333"/><path d="M20.89,307.59a1,1,0,0,1-.83-.34,1.19,1.19,0,0,1-.31-.83,3.11,3.11,0,0,1,1-2.35,3.5,3.5,0,0,1,2.48-1A4.13,4.13,0,0,1,26,304a3.77,3.77,0,0,1,1.32,2.31q0,.35,0,.63a3.63,3.63,0,0,1-.66,2.07,12.6,12.6,0,0,1-2.15,2.19c-.45.39-1.09,1-1.9,1.74L21.5,314,23,314a23,23,0,0,0,3.17-.1c.05,0,.11-.14.19-.4a12.72,12.72,0,0,0,.27-1.29v-.06h.75v.06l-.53,3.48v.05h-7v-.36a1.33,1.33,0,0,1,0-.43l1.6-1.81c1.38-1.53,2.27-2.55,2.66-3a5.49,5.49,0,0,0,1.27-3.17,3.35,3.35,0,0,0-.65-2.1,2.18,2.18,0,0,0-1.84-.85,2.07,2.07,0,0,0-1.78,1l-.12.21a.27.27,0,0,0-.05.11s0,0,.09,0a1,1,0,0,1,.77.35,1.14,1.14,0,0,1,.29.79,1.12,1.12,0,0,1-.31.81A1.08,1.08,0,0,1,20.89,307.59Z" style="fill:#333"/><line x1="18.7" y1="299.59" x2="28.59" y2="299.59" style="fill:none;stroke:#333;stroke-miterlimit:10"/><path d="M33.51,298.7c-.27,0-.4-.07-.4-.19v0l0,0a5.19,5.19,0,0,1,.66-1,7,7,0,0,1,.86-.94,2.68,2.68,0,0,1,1.24-.59c.07,0,1.14,0,3.19,0s3.07,0,3.13,0a.47.47,0,0,1,.38.51.85.85,0,0,1-.18.5.74.74,0,0,1-.43.3,16.66,16.66,0,0,1-1.82,0,12.94,12.94,0,0,0-1.71,0s-.12.53-.31,1.56-.4,2.07-.6,3.13-.32,1.63-.34,1.69a.94.94,0,0,1-.35.46,1,1,0,0,1-.55.17.55.55,0,0,1-.62-.63v-.19l1-3.08c.14-.45.29-1,.46-1.52s.3-1,.39-1.21l.12-.4a8.43,8.43,0,0,0-.88,0c-.62,0-1,0-1,0a2.57,2.57,0,0,0-1.77,1.18.61.61,0,0,1-.15.18A.75.75,0,0,1,33.51,298.7Z" style="fill:#333"/><path d="M97.92,93.25a1,1,0,0,1-.81-.32,1.2,1.2,0,0,1-.3-.84,2.28,2.28,0,0,1,.86-1.81,3.64,3.64,0,0,1,2-.87h.29c.44,0,.72,0,.84,0a5,5,0,0,1,1.27.4,2.86,2.86,0,0,1,1.58,1.79,2.17,2.17,0,0,1,0,.51,3.15,3.15,0,0,1-.69,2,3.87,3.87,0,0,1-1.74,1.27c-.06,0-.06,0,0,0a.59.59,0,0,0,.19.06,4.14,4.14,0,0,1,2,1.21,2.93,2.93,0,0,1,.8,2,3.32,3.32,0,0,1-.37,1.5,3.76,3.76,0,0,1-1.49,1.61,4.36,4.36,0,0,1-2.31.64,4.5,4.5,0,0,1-2.22-.54,2.76,2.76,0,0,1-1.31-1.42,2.12,2.12,0,0,1-.19-.93,1.15,1.15,0,0,1,.35-.87,1.21,1.21,0,0,1,.85-.33,1.16,1.16,0,0,1,1.21,1.2,1.25,1.25,0,0,1-.24.76,1.21,1.21,0,0,1-.67.42l-.13,0a3.57,3.57,0,0,0,2.35.86,1.7,1.7,0,0,0,1.58-1,4.32,4.32,0,0,0,.32-1.92v-.38a2.42,2.42,0,0,0-1.21-2.41,3.8,3.8,0,0,0-1.16-.13l-.8,0-.06,0a.88.88,0,0,1,0-.3.54.54,0,0,1,0-.29s.07-.06.1-.06a7.09,7.09,0,0,0,1.1-.09,1.65,1.65,0,0,0,1.27-.94,4.09,4.09,0,0,0,.44-2,1.81,1.81,0,0,0-.66-1.65,1.59,1.59,0,0,0-.9-.27,2.76,2.76,0,0,0-1.67.52.53.53,0,0,0-.17.12,1.06,1.06,0,0,0-.15.16L98,91l.13,0a.86.86,0,0,1,.64.36,1.15,1.15,0,0,1,.26.74,1.06,1.06,0,0,1-.32.77A1.09,1.09,0,0,1,97.92,93.25Z" style="fill:#333"/><path d="M98.63,116.18a5.32,5.32,0,0,1-1.43-1.27,3.21,3.21,0,0,1-.2-3.11,3.46,3.46,0,0,1,1.22-1.38,3.34,3.34,0,0,1,1.86-.52,3.78,3.78,0,0,1,2.24.67,2.85,2.85,0,0,1,1.18,1.74,3.81,3.81,0,0,1,0,.45,3.17,3.17,0,0,1,0,.57,3.56,3.56,0,0,1-1.73,2.17l-.23.15c.71.48,1.08.74,1.1.76a3.5,3.5,0,0,1,1.43,2.83,3.56,3.56,0,0,1-1.13,2.64A4,4,0,0,1,100.1,123a3.79,3.79,0,0,1-3.44-1.71,2.83,2.83,0,0,1-.48-1.66C96.18,118.22,97,117.08,98.63,116.18Zm-1.23,3.39a2.4,2.4,0,0,0,.81,1.85,2.76,2.76,0,0,0,1.9.73,3.15,3.15,0,0,0,1.42-.32,2.48,2.48,0,0,0,1-.84,1.92,1.92,0,0,0,.32-1,2,2,0,0,0-.66-1.45c-.1-.1-.63-.46-1.58-1.08l-.58-.37-.48-.31-.16-.1-.22.11a3.71,3.71,0,0,0-1.58,1.9A3.2,3.2,0,0,0,97.4,119.57Zm5-6.77a1.93,1.93,0,0,0-.53-1.38,2.39,2.39,0,0,0-1.29-.73c-.09,0-.3,0-.63,0a2.29,2.29,0,0,0-1.69.69,1.35,1.35,0,0,0-.47,1,1.49,1.49,0,0,0,.68,1.3c.06.06.47.33,1.22.79l1.1.73a1.54,1.54,0,0,1,.24-.17,2,2,0,0,0,.35-.25A2.48,2.48,0,0,0,102.41,112.8Z" style="fill:#333"/><line x1="95.26" y1="106.39" x2="105.16" y2="106.39" style="fill:none;stroke:#333;stroke-miterlimit:10"/><path d="M110.07,105.5c-.26,0-.4-.06-.4-.19v0s0,0,0,0a5.37,5.37,0,0,1,.66-1,5.94,5.94,0,0,1,.86-.94,2.63,2.63,0,0,1,1.24-.59c.07,0,1.14,0,3.19,0s3.07,0,3.13,0a.46.46,0,0,1,.38.51.82.82,0,0,1-.18.49.73.73,0,0,1-.42.31c-.08,0-.69,0-1.83,0s-1.71,0-1.71,0-.12.54-.31,1.56-.4,2.07-.6,3.14-.32,1.62-.34,1.69a.87.87,0,0,1-.35.45.94.94,0,0,1-.54.18.56.56,0,0,1-.63-.63v-.19l1-3.08.46-1.52c.17-.56.3-1,.39-1.22l.12-.4s-.29,0-.88,0h-1a2.64,2.64,0,0,0-1.77,1.18.49.49,0,0,1-.15.18A.75.75,0,0,1,110.07,105.5Z" style="fill:#333"/><path d="M298.56,19q-.33-.06-3-.06c-1.77,0-2.76,0-3,.06h-.23V18.1h.5a10.08,10.08,0,0,0,1.42-.06,1.19,1.19,0,0,0,.46-.23V8a.37.37,0,0,0-.15.06,6,6,0,0,1-2,.36h-.36V7.53h.36a5.37,5.37,0,0,0,2.66-.72,2.67,2.67,0,0,0,.59-.44s.1,0,.23,0a.46.46,0,0,1,.32.11v5.68l0,5.7a1.82,1.82,0,0,0,1.23.29h1.12V19Z" style="fill:#333"/><path d="M299.29,39.47c-.18,0-1,0-2.45,0s-2.37,0-2.55,0h-.17V38.6h.59a3.85,3.85,0,0,0,1-.1.31.31,0,0,0,.23-.19s0-.36,0-1v-.95h-4.92v-.88l2.86-4.39c1.94-2.93,2.92-4.41,2.95-4.42s.16,0,.4,0h.34l.11.11v8.74h1.75v.88h-1.75v1c0,.52,0,.82,0,.91a.41.41,0,0,0,.11.23,2.35,2.35,0,0,0,1.08.15h.55v.87Zm-3.21-4V29.12l-4.16,6.32,2.07,0Z" style="fill:#333"/><line x1="290.41" y1="23.31" x2="300.3" y2="23.31" style="fill:none;stroke:#333;stroke-miterlimit:10"/><path d="M305.22,22.42c-.27,0-.4-.06-.4-.18v0s0,0,0,0a5.19,5.19,0,0,1,.66-1,6.42,6.42,0,0,1,.86-.94,2.68,2.68,0,0,1,1.24-.59c.07,0,1.14,0,3.19,0s3.07,0,3.13,0a.47.47,0,0,1,.38.51.85.85,0,0,1-.18.5.74.74,0,0,1-.43.3,16.66,16.66,0,0,1-1.82,0,12.94,12.94,0,0,0-1.71,0s-.12.53-.31,1.56-.4,2.07-.6,3.13-.32,1.63-.34,1.69a.9.9,0,0,1-.36.46,1,1,0,0,1-.54.17.55.55,0,0,1-.62-.63v-.19l.95-3.08c.14-.45.29-1,.46-1.52s.3-1,.39-1.21l.12-.4a8.43,8.43,0,0,0-.88,0c-.62,0-1,0-1,0a2.57,2.57,0,0,0-1.77,1.18.61.61,0,0,1-.15.18A.83.83,0,0,1,305.22,22.42Z" style="fill:#333"/><path d="M499.94,96c-.22,0-1.22,0-3,0s-2.77,0-3,0h-.23v-.87h.49a10.25,10.25,0,0,0,1.43-.06,1.17,1.17,0,0,0,.45-.23V85l-.15.06a5.47,5.47,0,0,1-2,.36h-.36v-.87H494a5.24,5.24,0,0,0,2.66-.73,2.43,2.43,0,0,0,.59-.43s.1-.06.23-.06a.48.48,0,0,1,.32.11v5.68l0,5.7a1.84,1.84,0,0,0,1.24.29h1.12V96Z" style="fill:#333"/><path d="M495.17,110.13a5.55,5.55,0,0,1-1.44-1.27,2.88,2.88,0,0,1-.5-1.75,2.83,2.83,0,0,1,.3-1.37,3.41,3.41,0,0,1,1.23-1.38,3.36,3.36,0,0,1,1.85-.52,3.76,3.76,0,0,1,2.24.68,2.79,2.79,0,0,1,1.18,1.73,4,4,0,0,1,0,.46,2.43,2.43,0,0,1,0,.57,3.56,3.56,0,0,1-1.73,2.17l-.23.15,1.11.76a3.48,3.48,0,0,1,1.42,2.83,3.53,3.53,0,0,1-1.13,2.63,3.88,3.88,0,0,1-2.82,1.09,3.79,3.79,0,0,1-3.44-1.71,2.77,2.77,0,0,1-.48-1.65Q492.71,111.48,495.17,110.13Zm-1.24,3.38a2.34,2.34,0,0,0,.82,1.85,2.75,2.75,0,0,0,1.9.74,3,3,0,0,0,1.41-.33,2.26,2.26,0,0,0,1-.83,1.86,1.86,0,0,0,.33-1,2,2,0,0,0-.67-1.44c-.1-.1-.63-.46-1.58-1.08l-.58-.38-.48-.31-.15-.09-.23.11a3.72,3.72,0,0,0-1.58,1.9A3.14,3.14,0,0,0,493.93,113.51Zm5-6.76a1.94,1.94,0,0,0-.54-1.39,2.32,2.32,0,0,0-1.29-.72c-.09,0-.3,0-.62,0a2.33,2.33,0,0,0-1.7.68,1.41,1.41,0,0,0-.47,1,1.51,1.51,0,0,0,.68,1.29c.07.06.47.33,1.22.8l1.1.72.25-.16a2.27,2.27,0,0,0,.34-.26A2.47,2.47,0,0,0,499,106.75Z" style="fill:#333"/><line x1="491.8" y1="100.34" x2="501.69" y2="100.34" style="fill:none;stroke:#333;stroke-miterlimit:10"/><path d="M506.61,99.45c-.27,0-.4-.07-.4-.19v0a.08.08,0,0,0,0,0,5.55,5.55,0,0,1,.65-1,6.38,6.38,0,0,1,.87-.94,2.65,2.65,0,0,1,1.23-.59c.08,0,1.14,0,3.19,0s3.07,0,3.14,0a.49.49,0,0,1,.38.52.82.82,0,0,1-.18.49.73.73,0,0,1-.43.3,16.92,16.92,0,0,1-1.83,0,13.07,13.07,0,0,0-1.71,0s-.11.53-.31,1.56-.39,2.07-.6,3.13-.31,1.63-.34,1.69a.84.84,0,0,1-.35.46,1,1,0,0,1-.54.17.56.56,0,0,1-.63-.63v-.19l1-3.07.47-1.52c.17-.56.3-1,.39-1.22l.11-.4a8.13,8.13,0,0,0-.87,0c-.62,0-1,0-1,0A2.57,2.57,0,0,0,507,99.24a.49.49,0,0,1-.15.18A.72.72,0,0,1,506.61,99.45Z" style="fill:#333"/></svg>