<svg id="a150f0f1-fed4-40d3-b741-b2165d89853b" data-name="interactive-39" xmlns="http://www.w3.org/2000/svg" viewBox="0 0 600 600"><title>polar-coordinate-system-radians</title><circle id="a6098405-4b11-439f-87b9-68f3ab9bb408" data-name="circle-49" cx="300" cy="300" r="50" style="fill:none;stroke:#ddd;stroke-miterlimit:10"/><path id="bd1f7e08-f2ba-4c92-bfe5-574b2df3b046" data-name="path-46" d="M300,300h50a50,50,0,0,0-23-42.07Z" style="fill:#f8f8f8;stroke:#333;stroke-miterlimit:10"/><g id="f044f9a2-c2b0-423f-9bec-c02b78b6d83c" data-name="text-50" style="isolation:isolate"><path d="M362.32,292q-.35-.06-3.18-.06c-1.87,0-2.91,0-3.14.06h-.24v-.92h.52a11.34,11.34,0,0,0,1.5-.06,1.16,1.16,0,0,0,.48-.24V280.44a.46.46,0,0,0-.16.06,5.81,5.81,0,0,1-2.06.38h-.38V280H356a5.56,5.56,0,0,0,2.8-.76,2.7,2.7,0,0,0,.62-.46s.11-.06.24-.06a.5.5,0,0,1,.34.12v6l0,6a1.93,1.93,0,0,0,1.3.3h1.18V292Z" style="fill:#333"/></g><circle id="ba90e06a-0de0-4194-8872-f9dea67d70b0" data-name="circle-51" cx="300" cy="300" r="100" style="fill:none;stroke:#ddd;stroke-miterlimit:10"/><g id="af69baeb-b69d-4a05-b5f1-14c66dfa3444" data-name="text-52" style="isolation:isolate"><path d="M406.2,283.42a1.12,1.12,0,0,1-.88-.36,1.29,1.29,0,0,1-.32-.88,3.27,3.27,0,0,1,1.09-2.47,3.66,3.66,0,0,1,2.61-1,4.32,4.32,0,0,1,2.85.93,3.9,3.9,0,0,1,1.39,2.43,5.29,5.29,0,0,1,0,.66,3.77,3.77,0,0,1-.7,2.18,13.16,13.16,0,0,1-2.26,2.3c-.48.41-1.15,1-2,1.84l-1.18,1.12,1.52,0a23.39,23.39,0,0,0,3.34-.1c.05,0,.12-.15.2-.42a12.82,12.82,0,0,0,.28-1.36v-.06h.8v.06l-.56,3.66V292H405v-.38a1.25,1.25,0,0,1,0-.46l1.68-1.9c1.45-1.61,2.39-2.68,2.8-3.2a5.82,5.82,0,0,0,1.34-3.34,3.49,3.49,0,0,0-.69-2.21,2.31,2.31,0,0,0-1.93-.89,2.21,2.21,0,0,0-1.88,1l-.12.22a.57.57,0,0,0-.06.12s0,0,.1,0a1,1,0,0,1,.81.36,1.23,1.23,0,0,1,.31.84,1.19,1.19,0,0,1-.33.85A1.15,1.15,0,0,1,406.2,283.42Z" style="fill:#333"/></g><circle id="a1004fd7-ff3b-44f0-ad1b-56eae8b0b248" data-name="circle-53" cx="300" cy="300" r="150" style="fill:none;stroke:#ddd;stroke-miterlimit:10"/><g id="a4fbe2fd-e240-4c96-8aa4-eb56a0895e67" data-name="text-54" style="isolation:isolate"><path d="M456.54,282.74a1.09,1.09,0,0,1-.85-.34,1.25,1.25,0,0,1-.31-.88,2.41,2.41,0,0,1,.9-1.91,3.81,3.81,0,0,1,2.08-.91h.3c.47,0,.76,0,.88,0a5.05,5.05,0,0,1,1.34.42,3,3,0,0,1,1.66,1.88,1.91,1.91,0,0,1,.06.54,3.3,3.3,0,0,1-.73,2.11A4.1,4.1,0,0,1,460,285q-.1,0,0,.06l.2.06a4.3,4.3,0,0,1,2.06,1.27,3.06,3.06,0,0,1,.84,2.11,3.53,3.53,0,0,1-.38,1.58,4,4,0,0,1-1.57,1.69,4.54,4.54,0,0,1-2.43.67,4.82,4.82,0,0,1-2.34-.56,2.86,2.86,0,0,1-1.38-1.5,2.32,2.32,0,0,1-.2-1,1.18,1.18,0,0,1,.37-.91,1.33,1.33,0,0,1,1.81,0,1.22,1.22,0,0,1,.36.9,1.3,1.3,0,0,1-.26.8,1.18,1.18,0,0,1-.7.44l-.14,0a3.77,3.77,0,0,0,2.48.9,1.78,1.78,0,0,0,1.66-1.06,4.54,4.54,0,0,0,.34-2v-.4a2.57,2.57,0,0,0-1.28-2.54,4.09,4.09,0,0,0-1.22-.14l-.84,0-.06,0a.7.7,0,0,1,0-.32.47.47,0,0,1,.06-.3s.07-.06.1-.06a6.74,6.74,0,0,0,1.16-.1,1.73,1.73,0,0,0,1.34-1,4.39,4.39,0,0,0,.46-2.09,1.89,1.89,0,0,0-.7-1.74,1.62,1.62,0,0,0-.94-.28A3,3,0,0,0,457,280l-.18.13a1.2,1.2,0,0,0-.16.17l-.06.08.14,0a1,1,0,0,1,.67.38,1.23,1.23,0,0,1,.27.78,1.1,1.1,0,0,1-.33.81A1.15,1.15,0,0,1,456.54,282.74Z" style="fill:#333"/></g><circle id="fb1f1688-2083-4e8f-916c-d65848d719e5" data-name="circle-55" cx="300" cy="300" r="200" style="fill:none;stroke:#ddd;stroke-miterlimit:10"/><g id="fc7109b9-5895-48e6-8320-80c2b95642d8" data-name="text-56" style="isolation:isolate"><path d="M513.24,292q-.29-.06-2.58-.06c-1.6,0-2.49,0-2.68.06h-.18v-.92h.62a4.24,4.24,0,0,0,1.06-.1.34.34,0,0,0,.24-.2s0-.39,0-1.08v-1h-5.18v-.92l3-4.62c2-3.09,3.07-4.65,3.1-4.66a1,1,0,0,1,.42,0h.36l.12.12v9.2h1.84v.92h-1.84v1c0,.55,0,.87,0,1a.38.38,0,0,0,.11.24,2.57,2.57,0,0,0,1.14.16h.58V292Zm-3.38-4.22V281.1l-4.38,6.66,2.18,0Z" style="fill:#333"/></g><line id="fd96950a-fd2e-4cef-9199-08f280fc34e4" data-name="line-58" x1="300" y1="300" x2="550" y2="300" style="fill:none;stroke:#333;stroke-miterlimit:10"/><g id="f552ab13-22d9-45e9-9cbe-aa5c67a5adc4" data-name="text-59" style="isolation:isolate"><path d="M568.58,293.51a3.54,3.54,0,0,1,3.06-1.62,3.7,3.7,0,0,1,2.56,1,4.33,4.33,0,0,1,.92,1.36,11.34,11.34,0,0,1,.74,4.56,10.33,10.33,0,0,1-.86,4.74,3.4,3.4,0,0,1-1.64,1.68,3.75,3.75,0,0,1-1.7.42,3.53,3.53,0,0,1-3.36-2.1,10.47,10.47,0,0,1-.86-4.74,16.14,16.14,0,0,1,.25-3.07A7,7,0,0,1,568.58,293.51Zm4.5-.24a1.86,1.86,0,0,0-1.42-.64,1.93,1.93,0,0,0-1.44.64,2.49,2.49,0,0,0-.6,1.12,13.33,13.33,0,0,0-.2,2.28c0,.08,0,.34,0,.78s0,.81,0,1.1c0,1.28,0,2.18,0,2.68a12.68,12.68,0,0,0,.24,2,2.3,2.3,0,0,0,.6,1.05,1.77,1.77,0,0,0,1.38.6,1.75,1.75,0,0,0,1.36-.6,2.13,2.13,0,0,0,.6-1.05,10.65,10.65,0,0,0,.24-2c0-.5,0-1.4,0-2.68,0-.29,0-.66,0-1.1s0-.7,0-.78a11.51,11.51,0,0,0-.2-2.28A2.31,2.31,0,0,0,573.08,293.27Z" style="fill:#333"/></g><line id="ff46c94a-a21c-4ad2-8863-b7a6dd87474a" data-name="line-60" x1="300" y1="300" x2="435.08" y2="89.63" style="fill:none;stroke:#ddd;stroke-miterlimit:10"/><g id="bf7f0b8b-2ebf-44a9-bb6b-cf3762e9d620" data-name="text-61" style="isolation:isolate"><path d="M450.86,78.45q-.33-.06-3.18-.06c-1.86,0-2.91,0-3.14.06h-.24v-.92h.52a11.13,11.13,0,0,0,1.5-.06,1.16,1.16,0,0,0,.48-.24V66.89l-.16.06a5.81,5.81,0,0,1-2.06.38h-.37v-.92h.37a5.5,5.5,0,0,0,2.8-.76,2.7,2.7,0,0,0,.62-.46s.11-.06.25-.06a.48.48,0,0,1,.33.12v6l0,6a2,2,0,0,0,1.3.3h1.18v.92Z" style="fill:#333"/></g><line id="a9cc0360-68b3-40df-b845-1b4f62a9d430" data-name="line-62" x1="300" y1="300" x2="195.96" y2="72.68" style="fill:none;stroke:#ddd;stroke-miterlimit:10"/><g id="fc626f94-8e9b-4ee3-b979-912e61ebee0b" data-name="text-63" style="isolation:isolate"><path d="M186.5,51.56a1.13,1.13,0,0,1-.88-.36,1.31,1.31,0,0,1-.32-.88,3.29,3.29,0,0,1,1.09-2.47,3.66,3.66,0,0,1,2.61-1,4.32,4.32,0,0,1,2.85.93,3.86,3.86,0,0,1,1.39,2.43,5.29,5.29,0,0,1,0,.66,3.77,3.77,0,0,1-.7,2.18,13.13,13.13,0,0,1-2.26,2.3c-.48.41-1.14,1-2,1.84l-1.18,1.12,1.52,0a25.23,25.23,0,0,0,3.34-.1c.06,0,.12-.16.2-.42a10.53,10.53,0,0,0,.28-1.36v-.06h.8v.06l-.56,3.66v.06H185.3v-.38a1.55,1.55,0,0,1,0-.46L187,57.4c1.46-1.62,2.39-2.68,2.8-3.2a5.78,5.78,0,0,0,1.34-3.34,3.49,3.49,0,0,0-.69-2.21,2.28,2.28,0,0,0-1.93-.89,2.18,2.18,0,0,0-1.88,1,1.81,1.81,0,0,1-.12.22.31.31,0,0,0-.06.12s0,0,.1,0a1,1,0,0,1,.81.36,1.23,1.23,0,0,1,.31.84,1.21,1.21,0,0,1-.33.85A1.15,1.15,0,0,1,186.5,51.56Z" style="fill:#333"/></g><line id="ab9cfdd3-8ac3-49fa-8158-97d351932699" data-name="line-64" x1="300" y1="300" x2="52.5" y2="264.72" style="fill:none;stroke:#ddd;stroke-miterlimit:10"/><g id="efbe1d7c-0f65-420c-8c59-3ec675ffa92d" data-name="text-65" style="isolation:isolate"><path d="M31.91,257.42a1.11,1.11,0,0,1-.85-.34,1.25,1.25,0,0,1-.31-.88,2.41,2.41,0,0,1,.9-1.91,3.74,3.74,0,0,1,2.08-.91H34a8.54,8.54,0,0,1,.88,0,4.5,4.5,0,0,1,1.34.42,3,3,0,0,1,1.66,1.88,1.91,1.91,0,0,1,.06.54,3.38,3.38,0,0,1-.73,2.11,4.1,4.1,0,0,1-1.83,1.33q-.1,0,0,.06l.2.06a4.23,4.23,0,0,1,2.06,1.27,3.06,3.06,0,0,1,.84,2.11,3.45,3.45,0,0,1-.39,1.58,3.94,3.94,0,0,1-1.56,1.69,4.63,4.63,0,0,1-2.44.67,4.81,4.81,0,0,1-2.33-.56,2.93,2.93,0,0,1-1.38-1.5,2.17,2.17,0,0,1-.2-1,1.17,1.17,0,0,1,.37-.91,1.21,1.21,0,0,1,.89-.35,1.23,1.23,0,0,1,1.28,1.26,1.32,1.32,0,0,1-.26.8,1.26,1.26,0,0,1-.7.44l-.14,0a3.74,3.74,0,0,0,2.47.9,1.81,1.81,0,0,0,1.67-1.06,4.74,4.74,0,0,0,.33-2v-.4a2.55,2.55,0,0,0-1.27-2.54,4.12,4.12,0,0,0-1.23-.14l-.83,0-.06,0a.7.7,0,0,1,0-.32.47.47,0,0,1,.06-.3s.07-.06.1-.06a7.91,7.91,0,0,0,1.16-.1,1.75,1.75,0,0,0,1.34-1,4.51,4.51,0,0,0,.46-2.09,1.91,1.91,0,0,0-.7-1.74,1.65,1.65,0,0,0-.94-.28,2.94,2.94,0,0,0-1.76.54.51.51,0,0,0-.18.13.83.83,0,0,0-.16.17l-.06.08.14,0a.93.93,0,0,1,.67.38,1.19,1.19,0,0,1,.27.78,1.1,1.1,0,0,1-.33.81A1.16,1.16,0,0,1,31.91,257.42Z" style="fill:#333"/></g><line id="a9cb5a92-f038-4aee-823a-cdaf0f9b8797" data-name="line-66" x1="300" y1="300" x2="136.59" y2="489.2" style="fill:none;stroke:#ddd;stroke-miterlimit:10"/><g id="ad8c54c2-5d6b-4128-a4e4-4464132e4328" data-name="text-67" style="isolation:isolate"><path d="M128.12,509.12q-.28-.06-2.58-.06c-1.6,0-2.5,0-2.68.06h-.18v-.92h.62a4.91,4.91,0,0,0,1.06-.1.42.42,0,0,0,.24-.2s0-.39,0-1.08v-1h-5.18v-.92l3-4.62q3.06-4.65,3.1-4.66s.16,0,.42,0h.36l.12.12v9.2h1.84v.92h-1.84v1c0,.55,0,.87,0,1a.34.34,0,0,0,.11.25,2.66,2.66,0,0,0,1.14.16h.58v.92Zm-3.38-4.22v-6.69l-4.38,6.67,2.18,0Z" style="fill:#333"/></g><line id="a4f1d449-9580-40a9-9520-ccb0b11796aa" data-name="line-68" x1="300" y1="300" x2="370.92" y2="539.73" style="fill:none;stroke:#ddd;stroke-miterlimit:10"/><g id="ec4b5b98-1c68-4379-9f98-0b5dd9afa516" data-name="text-69" style="isolation:isolate"><path d="M374.52,556.8a1.1,1.1,0,0,1,.81.33,1.13,1.13,0,0,1,.33.83,1,1,0,0,1-.34.78,1.09,1.09,0,0,1-.76.32h-.14l.06.1a2.6,2.6,0,0,0,.92,1.06,2.56,2.56,0,0,0,1.46.42,2.12,2.12,0,0,0,2-1.2,6,6,0,0,0,.38-2.56,5,5,0,0,0-.54-2.78,1.56,1.56,0,0,0-1.28-.66,2.58,2.58,0,0,0-2.36,1.36.37.37,0,0,1-.15.17.85.85,0,0,1-.29,0c-.22,0-.35,0-.38-.12s0-1.22,0-3.5c0-.4,0-.87,0-1.42s0-.89,0-1c0-.75,0-1.12.12-1.12a.12.12,0,0,1,.08,0l.36.12a7.08,7.08,0,0,0,2.66.52,6.83,6.83,0,0,0,2.72-.56.73.73,0,0,1,.26-.08c.11,0,.16.12.16.36v.26a5.11,5.11,0,0,1-4.1,1.94,4.87,4.87,0,0,1-1.12-.12l-.2,0v3.44a3.72,3.72,0,0,1,2.34-.92,3.46,3.46,0,0,1,.82.1,3.74,3.74,0,0,1,2.19,1.52,4.59,4.59,0,0,1,.85,2.76,4.37,4.37,0,0,1-1.27,3.14,4.16,4.16,0,0,1-3.13,1.32,3.32,3.32,0,0,1-2.14-.7,2.3,2.3,0,0,1-.66-.66,3.56,3.56,0,0,1-.76-1.78,1.58,1.58,0,0,0,0-.19c0-.09,0-.15,0-.19a1.2,1.2,0,0,1,.32-.88A1.14,1.14,0,0,1,374.52,556.8Z" style="fill:#333"/></g><line id="e04b3364-7201-4597-87bb-3b4116d0b309" data-name="line-70" x1="300" y1="300" x2="540.04" y2="369.85" style="fill:none;stroke:#ddd;stroke-miterlimit:10"/><g id="a9031b40-c8f1-48c1-8d85-4ebbd148e1e5" data-name="text-71" style="isolation:isolate"><path d="M563.37,368.64a1.81,1.81,0,0,0-1.24-.5,2.89,2.89,0,0,0-2.34,1.19,7,7,0,0,0-.94,4.05l0,.08.16-.26a2.57,2.57,0,0,1,2.22-1.2,3.29,3.29,0,0,1,1.62.38,3.83,3.83,0,0,1,1,.81,5,5,0,0,1,.78,1.13,5.34,5.34,0,0,1,.42,2.14v.36a3.3,3.3,0,0,1-.1.85,4.52,4.52,0,0,1-1.24,2.23,3.67,3.67,0,0,1-1.92,1.12,3.63,3.63,0,0,1-3.84-1.58,9.31,9.31,0,0,1-1.18-5,8.77,8.77,0,0,1,.76-3.78,6,6,0,0,1,2.12-2.52,4,4,0,0,1,2.34-.77,2.71,2.71,0,0,1,1.87.63,2.15,2.15,0,0,1,.71,1.7,1.14,1.14,0,0,1-.29.8,1,1,0,0,1-.77.29,1.08,1.08,0,0,1-.77-.27,1.06,1.06,0,0,1-.29-.78A1,1,0,0,1,563.37,368.64Zm-.88,4.8a1.75,1.75,0,0,0-1.44-.73,1.66,1.66,0,0,0-1.2.46,4.36,4.36,0,0,0-1,3.16,8.44,8.44,0,0,0,.24,2.46,2.25,2.25,0,0,0,.68,1,1.67,1.67,0,0,0,1.14.42,1.81,1.81,0,0,0,1.56-.76,2.2,2.2,0,0,0,.38-1,14,14,0,0,0,.08-1.69v-.63a14.24,14.24,0,0,0-.08-1.72A2.12,2.12,0,0,0,562.49,373.44Z" style="fill:#333"/></g><line id="e6565395-1014-4ab0-b96e-27322bbd67e8" data-name="line-72" x1="300" y1="300" x2="381.05" y2="173.78" style="fill:none;stroke:#333"/><circle id="aa2cf266-3f39-40f3-80e0-be173a5ae040" data-name="circle-73" cx="300" cy="300" r="3" style="fill:#333"/><g id="f5a33062-19ac-4886-906c-13edfc9e432e" data-name="text-74" style="isolation:isolate"><path d="M399.37,179a14.82,14.82,0,0,1-2.09-3.65,11.34,11.34,0,0,1-.86-4.33,11.47,11.47,0,0,1,.64-3.79,16,16,0,0,1,2.31-4.18h1.07c-.67,1.15-1.11,2-1.33,2.46A13.87,13.87,0,0,0,398,171a15,15,0,0,0,2.48,8Z" style="fill:#333"/><path d="M401.77,172.18l1.49-.2a3.27,3.27,0,0,0,.88,1.83,2.13,2.13,0,0,0,1.51.56,2.41,2.41,0,0,0,1.78-.73,2.47,2.47,0,0,0,.72-1.81,2.27,2.27,0,0,0-.67-1.69,2.31,2.31,0,0,0-1.71-.67,4.26,4.26,0,0,0-1,.16l.16-1.31.24,0a3.09,3.09,0,0,0,1.72-.5,1.7,1.7,0,0,0,.76-1.54,1.82,1.82,0,0,0-.55-1.36,2,2,0,0,0-1.44-.54,2.06,2.06,0,0,0-1.45.55,2.77,2.77,0,0,0-.75,1.65l-1.49-.27a3.87,3.87,0,0,1,1.24-2.33,3.62,3.62,0,0,1,2.42-.82,4,4,0,0,1,1.83.42,3.19,3.19,0,0,1,1.29,1.17,3.05,3.05,0,0,1,.44,1.57,2.57,2.57,0,0,1-.42,1.43,2.83,2.83,0,0,1-1.26,1,2.83,2.83,0,0,1,1.68,1,3.11,3.11,0,0,1,.6,2,3.61,3.61,0,0,1-1.16,2.7,4.1,4.1,0,0,1-2.94,1.11,3.84,3.84,0,0,1-2.66-1A3.68,3.68,0,0,1,401.77,172.18Z" style="fill:#333"/><path d="M412,175.39v-1.7h1.7v1.7a3.06,3.06,0,0,1-.33,1.52,2.17,2.17,0,0,1-1.05.89l-.42-.64a1.41,1.41,0,0,0,.7-.61,2.63,2.63,0,0,0,.25-1.16Z" style="fill:#333"/><path d="M426.29,175.39h-1.5v-9.52a7.06,7.06,0,0,1-1.41,1,9.33,9.33,0,0,1-1.57.77v-1.44A9.1,9.1,0,0,0,424,164.8a5.79,5.79,0,0,0,1.33-1.62h1Z" style="fill:#333"/><path d="M431.51,179h-1.07a15,15,0,0,0,2.48-8,13.53,13.53,0,0,0-.36-3.1,12.85,12.85,0,0,0-.78-2.39,27.6,27.6,0,0,0-1.34-2.49h1.07a16,16,0,0,1,2.31,4.18,11.47,11.47,0,0,1,.64,3.79,11.34,11.34,0,0,1-.86,4.33A15.14,15.14,0,0,1,431.51,179Z" style="fill:#333"/></g><circle id="bc62fb13-1db4-44b2-ae50-a9a7dd4b1ce0" data-name="circle-45" cx="300" cy="300" r="250" style="fill:none;stroke:#333;stroke-miterlimit:10"/><g id="ebb168f5-f2c1-4fe2-9539-098c2ccafcff" data-name="group-41"><g id="b9ecc24c-75a5-4bbb-a0b6-13d104564076" data-name="control-42"><circle id="b71ace7d-0bf8-4a59-b56f-26e38611075d" data-name="circle-43" cx="381.05" cy="173.78" r="4" style="fill:#333"/></g></g></svg>