<?xml version="1.0" encoding="utf-8"?>
<!-- Generator: Adobe Illustrator 24.0.0, SVG Export Plug-In . SVG Version: 6.00 Build 0)  -->
<svg version="1.1" id="geomap-3" xmlns="http://www.w3.org/2000/svg" xmlns:xlink="http://www.w3.org/1999/xlink" x="0px" y="0px"
	 viewBox="0 0 600 300" style="enable-background:new 0 0 600 300;" xml:space="preserve">
<style type="text/css">
	.st0{fill:#87B5FF;stroke:#000000;stroke-width:0.7301;stroke-miterlimit:19.4682;}
	.st1{fill:#FFFFFF;stroke:#000000;stroke-width:0.7301;stroke-miterlimit:19.4682;}
	.st2{fill:#458CFF;stroke:#000000;stroke-width:0.7301;stroke-miterlimit:19.4682;}
	.st3{fill:#A1C5FF;stroke:#000000;stroke-width:0.7301;stroke-miterlimit:19.4682;}
	.st4{fill:#1971FF;stroke:#000000;stroke-width:0.7301;stroke-miterlimit:19.4682;}
	.st5{fill:#0022FF;stroke:#000000;stroke-width:0.7301;stroke-miterlimit:19.4682;}
	.st6{fill:#6EA5FF;stroke:#000000;stroke-width:0.7301;stroke-miterlimit:19.4682;}
	.st7{fill:#E6EFFF;stroke:#000000;stroke-width:0.7301;stroke-miterlimit:19.4682;}
	.st8{fill:#FF8E61;stroke:#000000;stroke-width:1.7035;stroke-miterlimit:19.4682;}
	.st9{fill:#FFFFFF;fill-opacity:0.9;stroke:#000000;}
	.st10{fill:#333333;}
	.st11{font-family:'HelveticaNeue';}
	.st12{font-size:12px;}
</style>
<g id="group-1">
	<g id="group-4">
		<path id="path-5" vector-effect="non-scaling-stroke" class="st0" d="M494.2,196.9l8.5,0.1l0.9,4.2l1.2,6.2l0.6,1.4l0.5,0.8
			l-0.2,0.5l0.6,0.3l-0.8,0.6l0,0.6l-0.4,0.8l0.5,1.5l-0.3,1.3l0.5,1.3l-2.4,0h-10.2l-0.2,0.6l1.1,0.9l-0.2,0.8l0.4,0.4l-0.7,0.7
			l-0.7,0.2l-1.2-0.8l-0.1-1.2l-0.4-0.1l-0.5,0.9l-0.2,0.9l-1.3-0.2l-0.4-7.4l1.1-9.2l0.7-5.3l-0.5-0.5L494.2,196.9"/>
	</g>
	<g id="group-6">
		<path id="path-7" vector-effect="non-scaling-stroke" class="st1" d="M278.9,99l0.2-0.8l1,0.5l-0.2,0.8l-1.3-0.1L278.9,99"/>
		<path id="path-8" vector-effect="non-scaling-stroke" class="st1" d="M277.8,97.5l0.9,0.6l-0.5,0.9l-0.4-0.3V97.5"/>
		<path id="path-9" vector-effect="non-scaling-stroke" class="st1" d="M272.2,92.6l1.2-0.1l0.5,0.2l-0.2,0.7l-1,0.2l-0.9-0.5
			L272.2,92.6"/>
		<path id="path-10" vector-effect="non-scaling-stroke" class="st1" d="M269.2,93l2.1,0.2l0.5,0.9l2.1,1l0.7,0.6l0.1,0.5l0.5,0.1
			l0.1,0.7l0.9,0.7l0.1,0.6l0.6-0.2l0.2,0.5l0.1,1.9l-0.3,0.4l-1.4-0.1l-0.4-1l-0.5,0.1l-1-0.7l-0.3,0.2l-0.8-0.2l0.1,0.7l0.8-0.2
			l0.5,0.3l-0.2,1l-0.9-0.1l-1.4-1.3l-0.4-0.6l0.1-0.7l-1.1,0.1V98l0.9-0.1l0.9-0.5l-0.4-0.8l-1-0.2l-0.2-1.3l-0.4-0.6l-0.7,0.5
			l-0.3-0.7l0.7-0.3l-0.6-0.8L269.2,93"/>
		<path id="path-11" vector-effect="non-scaling-stroke" class="st1" d="M268.5,96.9l0.9,0.3l0.6-0.4l0.6,0.2l-0.7,0.7l-1-0.2
			L268.5,96.9"/>
		<path id="path-12" vector-effect="non-scaling-stroke" class="st1" d="M267.7,90.2l-0.7-0.5l0.8-0.3l2.6,0.5l1.2,0l0.8,0.9
			l1.5,0.7l-0.2,0.6l-0.8,0.3l-1.1-0.1l-0.8,0.3l-1.1-0.2l-1.2,0.2l-0.2-1.1l0.1-0.7l-0.9,0L267.7,90.2"/>
		<path id="path-13" vector-effect="non-scaling-stroke" class="st1" d="M266.7,92.4L266,92l-0.7-0.8l-0.1-0.6l0.6-0.3l0.6,0.3
			l0.1-0.5l1.9,0.9l0.2,0.9l-0.7,0.1l-0.4,1l0.5,0.3l-0.6,1.1l-0.7-0.2l-0.1,0.7l-0.5-0.3l-0.3-1.4L266.7,92.4"/>
		<path id="path-14" vector-effect="non-scaling-stroke" class="st1" d="M264.1,93.3l-0.2,0.6l-0.7-0.3l-1.8-2.2l-1.1-0.6l0.4-0.5
			l-0.5-1.2l-1.3-1l1.3-1l0.6,0.4l1.1,0.3l1,0.1l0,0.8l1,2.5V93.3"/>
		<path id="path-15" vector-effect="non-scaling-stroke" class="st1" d="M263.8,83.9l1.7,0.4l1-0.1l-0.1,0.4l1.4,1.3l-1-0.2
			l-0.2,0.5l1,0.7l0.3,1.2l-1,0.3l-0.3,0.4l-1.7,0.9l-0.5,0l-0.2-0.9l0.3-0.6l-0.2-0.8l-0.6-1l0.1-0.5l-0.4-1.3l-0.6-0.6l-0.2-1
			L263.8,83.9"/>
		<path id="path-16" vector-effect="non-scaling-stroke" class="st1" d="M258.2,88.2h0.7l0.7,0.9l-0.3,0.6l-1.1,0.1l0.2-1
			L258.2,88.2"/>
		<path id="path-17" vector-effect="non-scaling-stroke" class="st1" d="M256.1,84l1.5,0l1-0.4l1.4,0.6l-0.7,0.6l0.3,0.2l0.7-0.7
			l1.7,0.2l0.9,0.5l-0.5,1l0.4,0.1l0.6,1.3l-1.3,0.2l-2.4-1l0.1,1.1l-0.7,0.4l-0.9-0.2l-0.5-0.7l-1-0.5l-0.8-0.9l-1-0.4l0.1-0.8
			l0.7-0.3l0.2-0.7L256.1,84"/>
		<path id="path-18" vector-effect="non-scaling-stroke" class="st1" d="M203.6,74.3l-2.1,1.2l-0.2,0.5l-1.7,0.3l0.3-0.7l1.8-0.8
			l1.1-0.9L203.6,74.3"/>
		<path id="path-19" vector-effect="non-scaling-stroke" class="st1" d="M201.2,72.4l-0.3,1l-0.7,1l-1-0.3l0.8-1.2L201.2,72.4"/>
		<path id="path-20" vector-effect="non-scaling-stroke" class="st1" d="M200.1,25.4l0.5,0.2l2.5,0.2l1.3-0.1h1.8l2,0.2l1.2-0.1
			l1.1,0.4l2.1,0.5l2.8,0.1l0.8-0.3l1.9-0.2l0.8-0.3l2-0.1l0,0.2l1.2-0.1l2.5,0.4l1.7,0.6l1.6,0.3l0.3,0.3l1.4,0.1L231,28l0.3,0.3
			l0.8-0.2l1,0.2v45.5l2.3,0.4l0.3-0.4l2.4,0.6l1.4-0.8l3-0.1l-0.5,1.3l0.7,0.5l1.7,0.4l0.4,0.7l5,2.6l0.8,1.6l0.9-0.5l2.1-0.8
			l1.2,0l0.6-0.6l-0.1-0.9h0.9l0.2-0.8l1.5-0.2l2.3-0.7l2.2,1.1l-0.2,0.7l0.5,0.7l1.3,0.2l1.6,1l-0.1,0.3l0.7,0.6l2,0.6l3.3,2.8
			l0.5,0.7l1,0.7l1.5,1.7l1.5,1.4l-0.6,0.6l1.5,0.2l-0.4,0.9l1.3,0.3l0.2,1l1.3-0.1l2.4,1l1.5,0.2l0.8,0.5l0.7,0.1l0.2,0.5l1.6,0.1
			l0.5,0.6l-0.7,1.1l0.1,0.9l0.7,1.5l-0.5,0.4l-1.2,1.4l-1.7,1l-0.5-0.5l-0.6,0.2l-0.5-1l0.1-0.4l-0.5-0.5l1.1-0.5l-0.3-0.2
			l-1.1,0.7l-0.6-0.4l-0.7,0.2l-2-1.1l0.7-1.2l-1.3,0.4l-0.1,0.6l-1-0.5l-0.2-0.6l0.7-0.6l-0.2-0.6l-1,0.5l-1-1.1l-0.6,0.2l-0.4-0.9
			l0.9-0.6h0.9l-0.3-0.7l0.5-0.9l-0.7,0l-1.5-0.8l-1.1-1l-2.6-0.7l0.1-1.9l-0.8-0.2L269,86l-0.9-0.2l-1.3-1.1l-0.3-0.6l-2.2-0.2
			l-2.4-1.4l-1-3.4l-0.5,0.8l0.2,0.7l1,1.3l-0.2,0.2l0.6,1.1l-0.1,0.7l-0.9-0.2l-0.7-0.8l-1-0.1l-1.4,0.2l0-1.1l-0.9-1l-0.8,0.3
			l-3.1-1l-0.3,0.3l1.7,0.3l1.3,0.8l0.5,0l0.2,0.6l0.7,0.7l-1.7,0.4l-1-0.3l0,0.7l-1.3-0.5l-0.4-0.4h-0.8l-2.2-1l-1.6-0.9l-0.2-0.5
			l-0.9-0.7l-2.5-0.5l-1.4-0.6l-2.4-0.6l-1.6-0.6l0.1-0.7l0.5,0.2l0.5-0.4l-0.5-1l0.7-0.5l-0.3-0.2l-1.2,1l-2.5,0.7l-3-0.2l-2.5-0.6
			l-0.1-0.5l-1.2,0.1l-1.3-0.3l-2.8-0.3l-1.6,0l-3.7,0.3l-1.3,0.2l-1.7-0.7l-2.1-0.3l-0.6-0.4l-0.2-0.7l-1.4,0.1l-0.5,0.6l-2.5-0.9
			l-0.4-0.4l-2.6,0.7l-1.3,0.8l-0.5-0.8l0.5-0.4l0.7,0.1l2.5-0.6l-0.3-0.4l-1.1,0.2l-0.5-0.6l-1.1-0.1l-1.1-1.4l-0.4,0.3l-1.5,0.2
			l-0.5-0.2l-0.5,0.5l-1.9-0.2l-0.1,0.5l-1.3,0.1l-0.6-0.2l0.4-0.9l-0.5,0l-0.9,1l1.2,0.3l0.1,0.7l0.7,0.7l-0.4,0.8l-0.9-0.3
			l-0.3,0.4l0.9,0.2l0.5,1.1l-1.3,0.2l-0.7-0.2l-1.1,0.3l-0.6-0.2l-1.5,0l0.1-0.4l-0.7,0.3l-0.4,0.5l-0.6-0.5l-0.8,0.6l0.3,0.3
			l-1.1,0.4l-1,0.1l-0.4,0.5l-1.1,0.5l-0.7-0.2l-0.8,0.5l-0.7,0l-1.4,1.1l-1.5,0.1l-0.5-0.3l-0.9,0.6l-1.9-0.5l0.4-0.8l1.2-0.3
			l0.8,0.1l0.2-0.3l1.4-0.6l0.1-0.5L182,77l-1.6-0.4l-0.2-0.3l0.8-1.2l1.4-0.9l0.2-0.7l0.4-0.1l0.2-0.8l-0.7-0.9l1.7-0.3l3.2-1.2
			l0.8,0.5l1,0.1l1.5-0.5l-1.6-0.7l-0.6-0.5l-1.3,0.1l-0.9-0.2l-0.3,0.2l-1.5,0.3l-0.7,0.7l-1.5,0.2l-1.6,0.8l-0.2,0.5l-1.2,0.3
			l-0.3,0.6l-0.9,0.3l-0.4,1l-1.7,0.6l0.8,0.5l-0.7,0.7l-1.5,0.1l-0.1,1l-1.4,0.3l-0.5-0.4l-0.7,0.7l-0.9,0l0.2,0.5l-1.9,0.3
			l-0.4,1.5l2.2,0.1l1.7,0.4l0.5,0.5l-0.7,0.8l-1.1,0.5l-1.1,0l-0.1,0.4l-0.7,0.2l0.3,0.5l-0.7,0.8l-1.5,0.7h-0.9l-0.9,0.3l-0.8-0.1
			l-0.6,0.3l0.2,0.4l-1.2,0.2l-0.2,0.6l-0.8-0.4l-0.9,1.1l-1.5-0.1l0.1,0.6l-0.9-0.2l-0.6,0.3v0.8l-1,1.3l-1.6,0.2l-1.3,0.6
			l-0.2,0.3l-0.9-0.5l-1.4,1.2l-0.4-0.3l-0.8,0.1l-0.2,0.7l-0.8,0.3l-1-0.1l-0.8,0.7l1.4,0.2l-1.5,1.5l-4.2,0.5l-1.2,1.4l-0.3-0.3
			l0.2-0.9l-0.8-0.1l-1,0.3l-0.2,0.3l-1.6,0.6l-0.7,0.6l-0.2-0.5l-0.4,0.5l-1-0.3l-1.8,0.8l-1.3,0l0.2-0.6l-0.6-0.6l-0.5,0.5
			l0.1,0.5l-1.8,1.6l-0.6-0.4l-0.2,0.6l-1.2-0.1l-0.2-1l-0.7-0.2l-0.3,0.3l0.7,0.4l-0.3,0.7l-1,0.3l-0.7-0.7l-0.9-0.1l-0.2,0.3
			l0.9,0.4l-1.7,0.7l1.1,0.2l0,0.3l-0.9-0.2l-1.3,0.6l-2.4,0l-1.2,0.4l-0.1,0.3l-1.4,0.4l-1-0.1l-0.3-0.9l1-0.3l0.8-1.1l1,0l2.2-0.7
			l1.8,0l0.7,0.7l0.5-0.5l-0.1-0.6l1-0.3h1.1l1.5-1.3l1.6-1.1l2.1-1l2.5-0.5l1,0.2l1-0.3l0.3,0.4l-0.6,0.5l0.6,0.4l0.2-0.6l1.3-0.1
			l0.3,0.4l0.8,0.1l0-0.5l-1.3-0.4l-0.1-0.3l0.9-1.3l1.1-0.7l1.5-0.7l2.5-0.6l1.8-0.9l0.9,0.3l0.7-0.1l-0.3-0.6l0.2-0.5l1.4-1.1
			l1.9-0.7l1.5-1l-0.1-0.5l1.2-3.8l1.9-1l-0.2-0.8l-4.5,1.1l-1.4-0.1l-0.3-0.5l-0.8-0.2l-0.3-0.5l-0.7,0.2l-0.5,0.8l0.8,1l-0.9,0.5
			l-0.8-0.2l-1.6-1.7l-1.1-0.8H142l-0.4,0.6l-0.5,0.1l-0.7-0.5l-0.9-0.1l-0.4-0.8l-2.6,0.9l-2.3,0.7l-0.2,0.4l-1.8,0.6l-0.9-0.5
			l0.8-0.6l-0.3-1.4l-0.6-1.5l1.2-0.6l-1-1.2l-0.9-0.7l-0.7-1l-1-0.4l-0.3,0.9l-1.3,0.2l-2,0.6l-2.4,0.2l-1.3-0.1l-1.1-0.3l-0.1-0.8
			l-1-0.2l-1.5-1.1l-1.3-0.2l-1.5-1.2l1-0.5l0.2-1l-0.8,0.2l-0.1-0.6l0.4-0.5l-1-0.5l-0.1,0.5l-1.2-0.2l-0.2-0.8l-0.9-0.1l-0.5-0.6
			l0-0.7L111,68l-0.2-0.7l1.1-0.2l-0.9-0.7l1.7-0.1v-0.9l0.4-0.6l3.1-1.9l0.6-0.6l0.5,0.1l-0.3-0.8l1.2-1.4l1-0.6l1.9-0.2l1.5,0.2
			l2.1,0.9l1.3-0.1l1.8-0.8l1.9-1.3l1-0.1l0.2,0.3h2.3l2-0.3l1.8-1.3v-0.3l-0.9-1.2l-0.1-0.7l-1.4-0.8l-0.5-0.7l1.4,0.2l1.4-0.6
			l0.1-0.5l-1.8-1l-1.3,0.8l-1.2-0.1l-1.1,0.4l-1.3,0.1l-0.3,0.3l-1.5,0.4l-0.5,0.7l-0.7,0.3l-0.3-0.9l-0.9-0.2l-0.6,0.7l-0.4-0.3
			l-1.7-0.5l-3.4,0l-2.5,0.5l-0.9,0.1l-2-0.3l-3.8-0.4l-1-0.3l-0.5-0.5l0.3-0.7l-1.4-0.6l0.3-0.6l0.9-0.3l-0.3-0.8h-1.4l-1.1-0.2
			l-2.2-0.2l-1.1-0.4l-1.8-0.4l-0.2-0.5l2.7-0.7l3.5-1.1l2.4-0.7l1.4,0.4l1.4,0.1l0.3-0.5l-0.9-0.1l-0.1-0.5l3.4-0.7l3.8-0.6
			l2.1-0.1l1.1,0.2l-0.6,0.8l0.2,0.6l-0.4,0.4l0.7,0.6l1.3-0.1l1.7,0.1l1.9-0.1l0.6,0.2l1.3,0.1l1.1-0.2l1.5,0.3l1.4-1.1l1-0.1
			l0.7,0.2l0.3-0.6l-1.9-0.3l-1.9,0.2l0.2-0.8l-1.5-0.9l-1.6-0.3l-0.5-0.8l1.3-0.2l1.6,0.8l-0.3,0.6l0.8,0.5l1.7,0.6l0.4-0.6
			l-1.9-0.8l0.8-1.4l-0.7-0.2l-1.9,0.3l-1.9-0.1l-0.3-0.2l-1,0.2l-4.1-0.6l-0.1-0.6l-1.2-1.4l-1-0.5l-1.6-0.4l-3.2-1.2l-1.5-0.5
			l-1.5-0.1l-2.2-0.8l-2.1-0.5l-0.1-0.2l1.6-0.2l0.7-0.7l0.1-1.5l4.3,0.1l5.2-0.3l1.4-0.3l2.2-0.7l2.1-1.1l0.4-1.1l0.9-1l1.8-0.8
			l0.8-0.6l2.2-1l0.3,0.3l1.9,0.1l2.7-0.5l1.7-0.5l4.1-1.7l1.5-0.1l0.2,0.2l1.6-0.2l1.5,0.1l3-0.2l3-0.7l3-1.5l1.2-0.3l0.2,0.3
			l4.6,0.6l0.4,0.4l-1.6,0.6l-0.7,0l0,0.7l2.3-0.2l0.1-0.4l1-0.4l0.3,0.2l0.8-0.9l2.3,0.8l-0.4,0.6l1.4,0.2l0.8,0.3l1.2-0.6l2.2,0
			l1.2-0.2l3.1,0.2l1.6,0.2l-0.8,1.1l2.9,0.3l0.2,0.3l2.9,0.5l0-0.2l2.1-0.3l2,0l0,0.3l1.1,0l1.2-0.4l2-0.1l1.4,0.2l1.9,0.4l0.9-0.1
			l1.3,0.6l0.7-0.2l1.2,0.2L200.1,25.4"/>
		<path id="path-21" vector-effect="non-scaling-stroke" class="st1" d="M175,84.9l0,0.2l-1.7-0.3l1.2-1.3l1.1-0.1l0.7-1.1l0.8,1
			l0.7-0.3l1.3,0.6v0.8l-1.9,0.1l-0.9,0.3L175,84.9"/>
		<path id="path-22" vector-effect="non-scaling-stroke" class="st1" d="M170.1,87.2l1.4-0.6l-1.3-0.1l0-0.6l1-0.4l0.7,0.3l0.1,0.6
			l0.4-0.4l0-0.8l0.9,0.4l0.2-0.5l0.8,0.3h1l0.7-0.3l1.2,0.5v1.4l1.5-0.1l-1,0.9l-1.9-0.4l0.7,0.6l-0.5,0.5l-1-0.2l0,1l-1.5,0.3
			l-0.5,0.4l-0.9-0.4l-1,1l-0.7,0.1l-0.8,0.5l-0.3-1.1l-1.1,0.6l-0.1-0.3l-1-0.3l-0.1-1l-1-0.4l0.6-1.1l1.9-0.7l1.2,0.1L170.1,87.2"
			/>
		<path id="path-23" vector-effect="non-scaling-stroke" class="st1" d="M167.3,91.8l-1,1l-0.3-0.2L167.3,91.8"/>
		<path id="path-24" vector-effect="non-scaling-stroke" class="st1" d="M161.9,95.1l0.8,0.1l-0.3,1l-1.3-0.1l-0.2-0.3L161.9,95.1"
			/>
		<path id="path-25" vector-effect="non-scaling-stroke" class="st1" d="M141.2,98.2l-0.3,1l-1.5,0.9l0.7-1.3l0.5,0.1L141.2,98.2"/>
		<path id="path-26" vector-effect="non-scaling-stroke" class="st1" d="M138.1,97.8h0.9l0,0.5l-0.9,0.6l-0.8-0.4l-0.5,0.4l-0.3-0.9
			l0.3-0.3L138.1,97.8"/>
		<path id="path-27" vector-effect="non-scaling-stroke" class="st1" d="M129.7,99.7l0.1,0.4l-0.6,0.3l-0.4-0.5L129.7,99.7"/>
		<path id="path-28" vector-effect="non-scaling-stroke" class="st1" d="M128.9,57.6l-0.7,0.5l-0.2-0.4L128.9,57.6"/>
		<path id="path-29" vector-effect="non-scaling-stroke" class="st1" d="M127,102.1l1,0.2l-0.1,0.4l-0.8,0L127,102.1"/>
		<path id="path-30" vector-effect="non-scaling-stroke" class="st1" d="M113.7,103l0.3,0.6l-0.7,0.2l-0.3-0.6L113.7,103"/>
		<path id="path-31" vector-effect="non-scaling-stroke" class="st1" d="M112.7,103.7l-1.5,0.5l-0.3-0.4l0.6-0.5L112.7,103.7"/>
		<path id="path-32" vector-effect="non-scaling-stroke" class="st1" d="M109.7,73.5l1.1-0.2l0.2,0.3l1-0.1l1,0.3l0.2,1.4l-0.5,0.5
			l-1.3,0.3l-0.3,0.5l-1.8-0.5l-0.9,0l-1.8-0.7H106l-1.1-0.4l-0.4-0.6l0.5-0.2l1.8,0.2l0.9-0.5l0.9-0.1l0.4-0.3L109.7,73.5"/>
		<path id="path-33" vector-effect="non-scaling-stroke" class="st1" d="M109.7,104.4l0.8,0.4l-1.6,0.9l0,0.2l2.1-0.7l0,0.4
			l-0.8,0.5l-1.3,0.3l-0.1,0.5l-1.4,0.5l-1.3,0l-0.8,0.5l-1.5,0.4l-0.8-0.4l1.6-0.5l0.5,0.1l1.2-0.4l-0.3-0.5l0.7-0.5l1,0.2l0.1-0.3
			l-1.1-0.1l-0.6-0.3l0.5-0.6l1.9-0.3l0.4,0.7L109.7,104.4"/>
		<path id="path-34" vector-effect="non-scaling-stroke" class="st1" d="M97.9,108.5l1.9-0.9l0.1-0.4l0.7-0.5l1.1-0.2l0.6,0.2
			l0.2,0.6l-2.1,0.7l-1.1,1l-0.9,0.3L97.9,108.5"/>
		<path id="path-35" vector-effect="non-scaling-stroke" class="st1" d="M93.2,109.8l0.2,0.5l-1.3,0l-0.1-0.3L93.2,109.8"/>
		<path id="path-36" vector-effect="non-scaling-stroke" class="st1" d="M91.3,88.8l-0.7,0.5l-0.1-0.5H91.3"/>
		<path id="path-37" vector-effect="non-scaling-stroke" class="st1" d="M88.8,110.8l0.3,0.5l-0.9,0.3l-0.1-0.5L88.8,110.8"/>
		<path id="path-38" vector-effect="non-scaling-stroke" class="st1" d="M83.5,57.2l3.9,0.7l2.2-0.6l1,0.1l0.9,0.3l0.2,0.6l1.9,0.3
			l0.6,0.3l2.5,0.1l1.5,0.2l-0.8,0.7l-1.2-0.2L95,59.9l-0.7,0.3l-0.6,0.7l-0.9-0.7l-1.1-0.5l-1-0.1l-0.5-0.5l-2.5-0.6l-1.1,0
			l-1.8,0.6l-1.3-0.3L83,58.3L83.5,57.2"/>
		<path id="path-39" vector-effect="non-scaling-stroke" class="st1" d="M80.2,112.3l0.1,0.6l-0.9,0.1l0.2-0.5L80.2,112.3"/>
		<path id="path-40" vector-effect="non-scaling-stroke" class="st1" d="M74.4,113.5l0.6,0.2l1.8,0l0.1,0.2l-2.2,0.2L74.4,113.5"/>
		<path id="path-41" vector-effect="non-scaling-stroke" class="st1" d="M71,112.8l0-0.5l0.7-0.2l1,0.5l-0.4,0.5l-0.6,0l0.2,0.5
			l-0.9,0.1l-2,0.5l-1.1-0.2l0.3-0.4l1.2,0.1L71,112.8"/>
		<path id="path-42" vector-effect="non-scaling-stroke" class="st1" d="M60.5,114.9l0.9-0.1v0.6l-1.1-0.1l-1.4,0.7l-0.5-1l0.6,0
			l0.1-0.7l0.7,0v0.5L60.5,114.9"/>
		<path id="path-43" vector-effect="non-scaling-stroke" class="st1" d="M57.2,114.4l0.5,0.2l-0.4,0.8l-0.7,0.2l0-0.5L57.2,114.4"/>
		<path id="path-44" vector-effect="non-scaling-stroke" class="st1" d="M52.5,114.6l0.8,0l0.7,0.6l-0.8,0.7L52.5,114.6"/>
		<path id="path-45" vector-effect="non-scaling-stroke" class="st1" d="M8.7,109.3l-0.9,0.3l-0.1,0.5L0,110.5l1.3-0.8v-0.4
			L8.7,109.3"/>
	</g>
	<g id="group-46">
		<path id="path-47" vector-effect="non-scaling-stroke" class="st0" d="M388.7,187.2l0,27.6h-9.9l-5.7-1.8l-12.5-3.8l0.5-1.1l1-0.2
			l0.3-0.4l-0.3-0.9l-0.7,0l-0.3-1.8l1-0.7l0.1-0.7l-0.2-1.1l0.6-0.9l0.8-0.3l0.6-0.6l-1-0.7l-0.7-1.3l-0.8-0.8v-0.6l0.3-0.7
			l-0.1-0.9l-0.4-0.9l-0.3-2.9l1.8-0.2l0.6,0.6l0.5,0l0.5-0.8v-3.9l17.3,0L388.7,187.2"/>
	</g>
	<g id="group-48">
		<path id="path-49" vector-effect="non-scaling-stroke" class="st0" d="M459.6,189.6l21,0l0.4,0.9l-0.7,0.6l-0.8,0.9h3.1l-0.2,0.9
			l-0.7,0.3l-0.2,0.7l-0.9,0.8l0.1,1.2l-0.5,0.9l-0.5,0.1l0.3,0.4l-0.8,0.4l-0.3,0.8l-0.5,0.2l0.1,1l-0.9,0.3l0,0.3l-1,0.8l0.3,0.5
			l-0.9,0.8l-0.8,1.5l0.9,0.6l-0.4,0.4l0.3,1l-0.4,0.7l-11.9-0.1h-2.1V204l-0.7-0.2l-1,0.2l-0.5-0.5l0.3-8.6l-0.9-5.4H459.6"/>
	</g>
	<g id="group-50">
		<path id="path-51" vector-effect="non-scaling-stroke" class="st2" d="M319.6,162.8l4.2,0l6.5,0.1h5l0,8.4l0,6.2l6.3,4.4l5.9,4.3
			l4.7,3.5l3.4,2.6l5.9,4.7v0.6l0.8,0.8l0.7,1.3l1,0.7l-0.6,0.6l-0.8,0.3l-0.6,0.9l0.2,1.1L362,204l-1,0.7l0.3,1.8l0.7,0l0.3,0.9
			l-0.3,0.4l-1,0.2l-6.5,0.5l-5.3,0.4l-0.6-0.6l0-1l-0.4-1.2l-0.7-0.9l-1.5-1.2l-1.9-1.1l-0.4,0.3l-0.7-0.2l0.1-0.5l-0.9-1l-1.1,0.2
			l-2-0.7l-0.3-0.6l-1.4-0.7l-1.5,0l-1.3-0.3l-1.6,0.1l-0.9-0.6l0.2-1.4l-0.3-0.2l0.2-1l-1.3-0.7l-0.1-1l-0.5-0.1l-0.8-0.9l-0.6-0.2
			l-0.2-0.5l-1.9-2l-0.9-0.6l-0.2-1.6l0.4,0.1l0.3-0.9l-0.7-0.9l-0.9,0.1l-1.1-0.8l-0.4-0.6l0.1-0.6l-0.6-0.8v-1.3h0.9l-0.4-1.8
			l-0.4,0.2l-0.1,0.9l-1,0.2l-1.1-0.7l-0.2-1.1l-0.7-0.9l-1-0.6l-0.5-0.6l-1.4-1.3l0.2-0.4l-0.7-1.6l0.3-0.9l-0.4-1.4l-1.3-1.3
			l-1.2-0.7l-0.2-0.9l1.2-2.1l0.2-0.7l-0.2-0.6l0.5-1.5l-0.4-1.3l-0.5-0.3l0.2-1.1L319.6,162.8"/>
	</g>
	<g id="group-52">
		<path id="path-53" vector-effect="non-scaling-stroke" class="st3" d="M394.2,167.7l10.7,0l8.2,0h9.7v4.9l0.1,14.6l-4.7,0l-6.5,0
			h-12.3l-2.7,0h-7.9v-5.7l-0.1-0.5l0-4.1l0-9.1L394.2,167.7"/>
	</g>
	<g id="group-54">
		<path id="path-55" vector-effect="non-scaling-stroke" class="st4" d="M563.9,162.7l6.1,0.1v0.1v2.9l-0.3,0.5l-0.4-0.1l-2.1,0.4
			l-2.5-0.1l-1.1,0.7l-1.2,0.2l-1.4,0.6l-0.3-0.6l1.2-0.5l-0.3-0.4l0.3-3.7L563.9,162.7"/>
	</g>
	<g id="group-56">
		<path id="path-57" vector-effect="non-scaling-stroke" class="st2" d="M552.4,173.5l-0.5,0.6l-0.5,0.3l0.1,0.8l0.7,0.7l0.2,1.2
			l1,1.3l0.5,0.1l0.2,1.7l-3.1-0.1l-0.5-6.1l0.8-0.5L552.4,173.5"/>
	</g>
	<g id="group-58">
		<path id="path-59" vector-effect="non-scaling-stroke" class="st5" d="M544.5,177.5l0.6,0.5l-0.6,0.5l-0.4-0.7L544.5,177.5"/>
	</g>
	<g id="group-60">
		<path id="path-61" vector-effect="non-scaling-stroke" class="st2" d="M503.3,216.4l2.4,0l0.7,1.4l6.7,0.3l6.2,0.4l0.2,1l0.6,0
			l0.2-1l-0.2-0.9l0.5-0.4l1.1,0.4l1.3,0.2l0.3,2.1l0.6,2.4l1.4,3.1l2.2,3.3l-0.3,0.2l0.1,1.5l0.9,1.7l1.4,3.5l0.3,1.1l0,1.1l-0.5,4
			l-0.5,0.1l-0.5,1.3l0.2,0.4l-0.9,0.9l-0.4-0.2l-0.9,0.4l-1.5,0.2l-0.5-0.5l0.2-0.7l-1.1-2.2l-0.9-0.4l-0.7,0.3l-0.6-1.2l-0.2-1
			l-1-1.1l-0.2-0.7l0.2-1l-0.6-0.2l0.1,0.6l-0.5,0.2l-1.5-2.6l-0.6-0.7l1.5-1.9l-1,0.1l-0.6,0.6l-0.6-1l0.9-2.7l0.2-2.2l-0.6-0.5
			l-0.2-0.7l-0.9-0.2l-1.1-1.2l-0.9-0.5l-0.1-0.7l-0.6-0.3l-0.5-0.8l-1.9-1.1l-1.6,0.2l0.1,0.7l-0.5-0.1l-2,0.9l-2.2,0.2l0.1-0.5
			l-0.5-0.6l-2.5-1.4l-1.8-0.6l-1.6-0.2l-1.4,0.1l-3,0.5l0.7-0.7l-0.4-0.4l0.2-0.8l-1.1-0.9l0.2-0.6H503.3"/>
	</g>
	<g id="group-62">
		<path id="path-63" vector-effect="non-scaling-stroke" class="st6" d="M514.9,196.9l-1,1l-0.1,0.5l1.6,1l0.5-0.1l0.7,1.1l0.2,0.6
			l0.8,1l1.1,0.6l0.6,0.9l1.3,0.8l-0.1,0.6l0.9,0.9l1.3,0.7l0.3,0.8l0.1,1l0.7,0.3l0.8,1.3l0,0.8l1.1,0.4l-1.2,1.7l-0.2,0.9
			l-0.5,0.7l-0.1,0.8l-0.5,0.3l-0.2,2.1l-1.3-0.2l-1.1-0.4l-0.5,0.4l0.2,0.9l-0.2,1l-0.6,0l-0.2-1l-6.2-0.4l-6.7-0.3l-0.7-1.4
			l-0.5-1.3l0.3-1.3l-0.5-1.5l0.4-0.8l0-0.6l0.8-0.6l-0.6-0.3l0.2-0.5l-0.5-0.8l-0.6-1.4l-1.2-6.2l-0.9-4.2l6.3,0l3.4,0L514.9,196.9
			"/>
	</g>
	<g id="group-64">
		<path id="path-65" vector-effect="non-scaling-stroke" class="st2" d="M161.9,275l-1.2-0.4l-0.2-0.4l0.2-1.1l-0.9-1.9l0.7-0.6
			l0.5-0.9l-0.3-0.6l0.1-0.6l1.4,0.7l1.5,0.5l0.9,0.7v0.6l1.4,1l-0.9,0.9l-1.5,0.4l-1.1,0.6L161.9,275"/>
		<path id="path-66" vector-effect="non-scaling-stroke" class="st2" d="M157.3,264.9l0.6,0.7l0.7-0.3l1.6,0.8l-0.2,0.7l-1.6,0.3
			L158,267l-0.1-0.9l-0.8-0.2l-0.3-0.5L157.3,264.9"/>
		<path id="path-67" vector-effect="non-scaling-stroke" class="st2" d="M155.4,264l-0.5,0.5h-1.1l0.3-0.6L155.4,264"/>
		<path id="path-68" vector-effect="non-scaling-stroke" class="st2" d="M150.7,261.7l0.5,1.1l-0.3,0.7l-1,0.1l-0.7-1.4l0.6,0
			L150.7,261.7"/>
		<path id="path-69" vector-effect="non-scaling-stroke" class="st2" d="M143.3,259.1l0.6,0.1l0.3,0.5l-0.2,0.7l-0.6,0.5l-1.5-0.6
			l0.2-0.8L143.3,259.1"/>
	</g>
	<g id="group-70">
		<path id="path-71" vector-effect="non-scaling-stroke" class="st3" d="M354.6,128.8v5l1.6,1.4l0,1.3l0.9,0.6l1,0.2l0.1,0.3
			l1.8,1.3l0.2,0.5l1.3,0.5l0.1,0.3l1.4,0l-0.7,1.8l-0.1,1.1l0.5,0.7l-0.9,0.5l0.3,0.5l-0.2,0.5l1,0.5l1.2-0.7l0.5-0.5l0.9,0.5
			l-0.1,0.4l0.5,0.9l0.8,1l0.6,0.3l0,0.9l0.6,0.4l1,0.1l0.6,1.6l0.6,0.3l0.5-0.5l1.5,0l1.1-0.4l0.7,0.2l1.1-0.2l0.2,0.3l1-0.2l1.1-1
			l0.8,0.9l0.9,0.5v12l-5.4,0h-9.1l-14.5,0v-8.9l0.6-1.6l-0.4-0.4l-0.9-0.1l-0.3-0.7l1-1.7l0.5-0.2l0.5-0.7l-0.1-0.5l0.6-0.6
			l0.3-0.9l1-1.4l-0.4-0.7l-1.1-0.3l-0.7-0.8l0-0.9l-0.6-0.9l0.1-0.4l0-6.5l0.1-6H354.6"/>
	</g>
	<g id="group-72">
		<path id="path-73" vector-effect="non-scaling-stroke" class="st2" d="M478.3,160.4l9,0.1h4.8l-0.2,0.9l0.7,1.1l0.8,1.8l0,11.5
			l-0.5,0.9l0.6,1l0.1,0.9l-0.6,0.7l-0.2,0.6l-0.9,1l-0.6,0.1l0.1,0.6l-0.4,0.2l-0.3,1.1l0.2,0.3l-0.6,0.7l0.5,0.9l-2,0.5l-0.2,0.5
			l0.5,0.6l-0.6,0.4l-1.8-0.7l-0.6,0.1l-0.7,0.9l0.2,0.3l-0.8-0.1l-1.1-1.4l0.4-0.3l-0.4-0.9v-0.7l-1.6-1l-0.5,0.1l-0.5-0.6l-1.4-1
			l0-0.8l0.8-1.3l-0.1-0.5l0.5-0.6l-0.7-0.3l-1.1-0.2l-0.6,0.5l-0.4-0.3l-0.3-1.6l-1.6-1l-1.5-1.3l-0.6-1.5l-0.1-1l0.4-0.7l0.1-0.9
			l1.4-0.5l0.1-0.7l0.6-0.5l0.1-0.9l-0.8-0.7l0.3-0.9l1.9-0.2l1.5-0.6l0.2-0.7l0.6-0.3l0.2-0.9l-0.1-0.6l-1.1-0.5l-0.1-0.5
			L478.3,160.4"/>
	</g>
	<g id="group-74">
		<path id="path-75" vector-effect="non-scaling-stroke" class="st6" d="M500.9,164h5.8v0.3l0,5.8l-0.1,6.8l-0.4,0.2l0.4,1.3l-0.9,0
			l-0.9,0.5l-1.3-0.2l0.1,1l-0.8,0.4l-0.3,0.6l-0.9,0.2l-0.5,1.2l-0.6,0.3l-1.1-0.5l-0.2-0.6l-1.1,0.6l0.1,0.5l-1.1,0.2l-0.3-0.5
			l-1.2,0.5l-0.4,0.5l-1.2-0.7l-0.6,0.2l-0.4-0.3l-0.4,0.3l-1.2,0.1l-0.5,0.5l-0.2-0.3l0.3-1.1l0.4-0.2l-0.1-0.6l0.6-0.1l0.9-1
			l0.2-0.6l0.6-0.7l-0.1-0.9l-0.6-1l0.5-0.9l0-11.5l0.5,0.3h1.5l1.4-0.6H500.9"/>
	</g>
	<g id="group-76">
		<path id="path-77" vector-effect="non-scaling-stroke" class="st0" d="M474.7,155.5h0.7l0.1,0.7l0.7,0.5l-0.6,0.6l0.2,1.1l0.4,0.8
			l1.7,0.6l0.3,0.6l1.1,0.9l0.1,0.5l1.1,0.5l0.1,0.6l-0.2,0.9l-0.6,0.3l-0.2,0.7l-1.5,0.6l-1.9,0.2l-0.3,0.9l0.8,0.7l-0.1,0.9
			l-0.6,0.5l-0.1,0.7l-1.4,0.5l-0.1,0.9l-0.5-0.2l-1-1l-0.5,0l-6.9,0.1l-6.7,0.1l-5.5-0.1l-0.6-0.6l0.3-1.3l-0.5-1.1l0-1.2l-0.9-0.4
			l-0.1-0.7l0.3-0.6l-0.3-0.9l-0.7-0.3l-0.9-2.2l-0.9-1.1l0.4-0.7l0.2-1l0.4-0.3l-0.6-0.5l0.2-0.9l-0.3-0.4l0.6-0.1H474.7"/>
	</g>
	<g id="group-78">
		<path id="path-79" vector-effect="non-scaling-stroke" class="st3" d="M423.4,172.6h32.1l0.5,0.5l1.6,0.4l-1.1,1.4l0.6,0.5
			l0.8,1.1l1,0.2l0,10.5h-26.6l-9.5,0l-0.1-14.6H423.4"/>
	</g>
	<g id="group-80">
		<path id="path-81" vector-effect="non-scaling-stroke" class="st6" d="M511,178.6l1.1,0.7l0.8-0.3l1.8,0.4l0.5-0.5l0.7-0.2
			l0.2,0.8l0.6,0.1l0.7,0.7l-0.1,1.5l0.6,0.9l0.8,0.7l0.2,0.6l0.9,0.6l0.6,0.1l-1.9,1.3l-1.8,0.7v0.4l-0.7,0.3l-0.1,0.4l-0.9,0.2
			l-0.3,0.5l-2.6,0.7l-0.1,0.1l-4.2-0.1l-3.6-0.2l-1,0.1l-5.4-0.2l-6.1,0.1l-1.1-0.2l0.1,0.9l-6.1-0.1l-0.6,0.1l0.3-0.6l0.7,0.2
			l0.4-2l-0.2-0.3l0.7-0.9l0.6-0.1l1.8,0.7l0.6-0.4l-0.5-0.6l0.2-0.5l2-0.5l-0.5-0.9l0.6-0.7l0.5-0.5l1.2-0.1l0.4-0.3l0.4,0.3
			l0.6-0.2l1.2,0.7l0.4-0.5l1.2-0.5l0.3,0.5l1.1-0.2l-0.1-0.5l1.1-0.6l0.2,0.6l1.1,0.5l0.6-0.3l0.5-1.2l0.9-0.2l0.3-0.6l0.8-0.4
			l-0.1-1l1.3,0.2l0.9-0.5l0.9,0l-0.4-1.3l0.4-0.2h1.9l1,1l0.1,0.4L511,178.6"/>
	</g>
	<g id="group-82">
		<path id="path-83" vector-effect="non-scaling-stroke" class="st6" d="M463.8,206.6l11.9,0.1l0.5,0.6l-0.3,0.2l-0.1,1l0.7,0.6
			l0.1,1.4l-0.6,1.1l-1.1,0.7l-0.3,1.1l-0.5-0.1L474,215l-0.6,0.1l0.3,1l-0.3,0.3h9.2l-0.5,1.6l0.8,1.1l0.2,0.8l0.6,0.5l-1.4,0.7
			l-0.1,0.5l1.2,0.3l0.5-0.8l1,0.8l-0.1,0.6l-0.6,0.3l-1.1-0.2l0.1,0.5l-0.4,0.7l0.9,0.6l1.5,0.2l0.5,0.7l0.4,0.1l-0.8,0.8l-0.9-0.2
			l-0.7-0.9l-1.8-0.5v-0.8l-0.9,0.3l0.1,0.7l-0.4,0.6l-0.6,0.1l-0.5-0.7l-1.1,0l-0.4,0.7l-0.7,0.2l-0.8-0.5l-0.6-0.1l-0.6-1.2
			l-1.1-0.5l-0.4,0.1l-0.4-1l-1.3,0.1l0-0.6l-1.3,0.6l0.2,0.5l-1,0.4l-1.5-0.2l-1.7-0.7l-1.2-0.3l-2.6,0.2l-0.3,0.2l-0.4-0.5
			l1.1-1.7l-0.4-0.9l0.3-0.5l-0.2-0.7l0.5-0.5l0.5-1.3l-0.1-1l-1.3-2l0-1.1l-1.1-1.1v-5H463.8"/>
	</g>
	<g id="group-84">
		<path id="path-85" vector-effect="non-scaling-stroke" class="st3" d="M575.3,157.7l-0.6-0.3l0.1-0.5l-0.8-0.6l-0.3-6.4l-0.2-3.1
			l2.1-0.7l-0.3-0.3l0.8-0.7l0.8-0.3l-0.2-0.3l0.8-0.5l-0.2-0.9l0.5-1.3l0.7-0.4l0.3-1.4l3.8-3.7l0.9,0.2l0.1,0.9l0.6,0.3l1.6-0.5h1
			l0.7-0.3l1.4,0.8l0.8,0.6l0.1,5.5l-0.1,1.3l1.7,0.3l-0.2,0.6l0.4,0.5l-0.3,0.5l0.7,0.7l0.9-0.2l0.9,1.7l-1,0.8l-0.6-0.3l-0.5,0.5
			l-0.7-0.1l-0.1,0.5l-0.9-0.1l-1.4,1l-0.3-0.7l-0.5-0.1l0.2,0.8l-1.1,0.4l-0.3-0.6l-0.5,0.3h-1.3l0-0.7l-0.7,0.2l0.1,0.5l-0.7,1.1
			l0.1,0.3l-0.9,0.6l-0.9-0.2l-0.5,0.6l-0.7,0.1l-0.6,0.5l-0.7-0.1l-0.2-0.5l-1.1,0.9l0.3,0.5l-0.8,0.2l-0.1,0.5l-0.9,0.6
			L575.3,157.7"/>
	</g>
	<g id="group-86">
		<path id="path-87" vector-effect="non-scaling-stroke" class="st4" d="M549.5,182.5h-0.1h-0.1H549.5"/>
		<path id="path-88" vector-effect="non-scaling-stroke" class="st4" d="M532.6,173.9h18l0.5,6.1l3.1,0.1l-1,2.1l-0.7,0.1l-1.3,0.3
			l-1,0.2l0-0.8l-0.4-0.3l0.6-0.3l-0.7-0.8l-0.2,0.3l-1-0.1l-0.3-0.9h0.3l0-1.1l0.3-0.5l-0.4-1.5l0.5-0.9l0.8-0.2l0.1-0.9l-0.6,0.1
			l0,0.5l-1.3,0.6l-0.4,0.6l-0.1,1.4l-0.5,0.7l0.2,1.1l0.6,0.8l-0.1,0.6l0.4,0.6l-0.2,0.4l-1.1-0.8l-1.6-0.4l-0.5-0.7l-0.9,0.4
			l-0.3-0.6l0.7-0.7l0.4-0.8l0.6-0.5l-0.6-0.5l-0.4,0.3l-0.6-0.5l-1-0.2v-0.7l-0.5-0.4l-0.7-0.1l-0.6-1.4h-0.8l-0.8-0.5l-0.5,0.4
			l-0.8,0l-0.2,0.5l-1.4-0.3l-1,0.7l-0.6-0.2l-1,0.8l-1,0.5L532.6,173.9"/>
	</g>
	<g id="group-89">
		<path id="path-90" vector-effect="non-scaling-stroke" class="st4" d="M574.2,158.5l0.5,0.1l0.2,0.9l-0.2,0.7l-0.8,0.6l0,0.7
			l1.1,0.1l0.6,0.8l-0.1,0.6l0.5,0.2l0.1,0.6l1.4,0.5l1.6-0.5l-0.3,0.7l-2.3,0.6l-0.9,0l-0.5-0.5l-0.8,0.1l0,0.3l-0.9,0.2l-0.4-0.9
			l-0.1-0.2l-0.5-0.3l-0.3-1.1h-0.7l-1.3,0.1v-0.1l-6.1-0.1l-2.1-0.1l-0.1-0.2l1.2-3.2l3.9,0.1l5.7,0.2l0.5-0.5L574.2,158.5"/>
	</g>
	<g id="group-91">
		<path id="path-92" vector-effect="non-scaling-stroke" class="st6" d="M513.2,164.2l-6.6,0.2V164h-5.8h-4.1l1-0.6l0.7-1.1l0.6-0.7
			l0.5-0.9l0.3-1.3l-0.1-1.4l-1.4-2.8l0.5-1.1l-0.3-1.3l1.1-1.3l0.2-1.1l-0.2-0.6l0.8-0.2l0.1-0.8l1.3-0.2l1-0.9l-0.1,1.8l0.5,0.1
			l0.6-0.9l0-1.5l0.4-0.4l1.3-0.2l-0.4-1l0.9-0.9l1.1-0.1l1.2,0.6l1.2,0.1l0.6,0.7l0.9,0.1l1.5,0.6l0.5,0l0.8,1l-0.7,0.6l0.6,0.7
			l0.2,0.8l-0.3,1.8l-1,0.5l-0.2,0.9l-1.2,0.3l-0.6,1.1l0.2,0.4l1.2,0.4l0.9-0.6l1.1-1.3l1.7-0.5l0.8,0.4l0.5,0.7l0.5,2l0.1,1
			l0.5,1.2l-0.5,1.8l-0.8,0.3l0-0.6l-0.5,0.2l-0.6,1.5l-1,0.6l-0.3,1.1l-1.2,0.9L513.2,164.2"/>
		<path id="path-93" vector-effect="non-scaling-stroke" class="st6" d="M503.2,144.7l0.1,0.6l-0.6,0.1l0.3-0.8L503.2,144.7"/>
		<path id="path-94" vector-effect="non-scaling-stroke" class="st6" d="M493.1,147.8l-0.7-0.5l0.5-0.7l-1.1-0.1l0.5-0.7l0.1-0.9
			l-1-0.6l-0.6-0.6l-2.1-0.5l-0.6,0.2l-2.1-0.7l-5-1l-0.5-0.8l-0.9-0.3l1.9-0.5l0.9-0.6l2.1-0.2l1.4-0.7l0.6,0l0.5-0.5l1.5-0.7
			l0.8-0.6l1.1-0.4l1.1,0.3l-1.9,1.5l-0.5,0.5l0,0.9l0.9-0.7l1.7,0.1l1.3,0.5l1.2,1.3l0.6,0.2l1.2-0.2l0.3,0.3l1.2,0.2l2.6-1.1
			l1.4-0.1l1.8,0.1l1.2-0.4l0.9,0l0.2,1.4l1,0.2l1-0.2l0.4,0.3l0.6-0.4l1.4-0.1l0,1.7l0.6,0.7l1,0.2l0.1-0.5h0.9l0.5,0.5l-0.4,0.4
			l-2.7-0.3l-1.3,0.2l-1.4-0.6l-0.4,0.5l0.2,0.5l-0.6-0.1l-0.9-0.7l-1.6-0.4l-0.8,0l-0.8,0.6l-1.3,0.2l-1.4-0.1l-0.6,0.3l-0.1,0.5
			l-1.5,0.5l0.1-0.6l-0.7-0.1l-0.3,0.7l-1.1,0l-0.5,0.3l-0.7,1.1l-1.4,1.5L493.1,147.8"/>
		<path id="path-95" vector-effect="non-scaling-stroke" class="st6" d="M487.2,133.8l-1.2,0.6l-0.6,0.1l0.1-0.5l3.1-1.1l-0.6,0.8
			L487.2,133.8"/>
	</g>
	<g id="group-96">
		<path id="path-97" vector-effect="non-scaling-stroke" class="st0" d="M471.6,140l-0.4-0.2l-1,0.4v2.9l-0.3,0.3l-1.4,0.4l-1.1,1
			l-0.1,0.7l0.6,0.1l0.6,0.6l-0.6,0.7l0.1,0.8l-0.3,1.8l1.3,0.9l1,0.1l0.5,0.5l1.5,0.5l0.2,0.6l1.4,0.8l0.8,0.2l0.9,1.1l-0.1,0.8
			l0.3,0.6h-0.7H450v-8.7l-1.1-0.6l-0.9-0.9l1.3-1l0.1-0.6l-0.2-1.9l-0.6-0.5l-0.4-1.1l0.1-1.3l-0.2-0.2l-0.2-3.1l-1-1.7l-0.4-0.9
			l-0.2-2l0.3-0.7l-0.6-1.5h10.1v-1.9l1,0.1l0.6,0.4l0.6,2.5l0.5,0.3l1.6,0.1l0.2,0.2l1.9,0.1l0.2,0.5l1.6-0.1v-0.2l1.3-0.3l1.1,0.1
			l1.3,0.4l0.3,0.5l0.7-0.1l0.7,1.1l0.3-0.5l1.2-0.2l0.2,0.5l1.4,0.3v0.4l0.7,0.3l1.5-0.2l0.9-0.5l1.2-0.3l0.4,0.7l0.8-0.2l1,0.2
			l1.1-0.1l1.3,0.6l1.3-0.1l-0.1,0.3l-1.6,0.6l-2.3,0.5l-1.5,0.5l-2.1,1.3l-0.9,0.8l-1.4,0.9l-2.2,1.2L471.6,140"/>
	</g>
	<g id="group-98">
		<path id="path-99" vector-effect="non-scaling-stroke" class="st0" d="M488.8,196.9h1.3l0.5,0.5l-0.7,5.3l-1.1,9.2l0.4,7.4
			l-0.5,0.2l-1.2-0.1l-0.5-0.3l-1.2,0.2l-1.6,0.6l-0.5,0.3l-0.6-0.5l-0.2-0.8l-0.8-1.1l0.5-1.6h-9.2l0.3-0.3l-0.3-1l0.6-0.1l0.1-1.8
			l0.5,0.1l0.3-1.1l1.1-0.7l0.6-1.1l-0.1-1.4l-0.7-0.6l0.1-1l0.3-0.2l-0.5-0.6l0.4-0.7l-0.3-1l0.4-0.4l-0.9-0.6l0.8-1.5l0.9-0.8
			l-0.3-0.5l1-0.8l0-0.3l0.9-0.3l-0.1-1l0.5-0.2l0.3-0.8l0.8-0.4l-0.3-0.4H488.8"/>
	</g>
	<g id="group-100">
		<path id="path-101" vector-effect="non-scaling-stroke" class="st0" d="M472.4,169.6l0.5,0l1,1l0.5,0.2l-0.4,0.7l0.1,1l0.6,1.5
			l1.5,1.3l1.6,1l0.3,1.6l0.4,0.3l0.6-0.5l1.1,0.2l0.7,0.3l-0.5,0.6l0.1,0.5l-0.8,1.3l0,0.8l1.4,1l0.5,0.6l0.5-0.1l1.6,1v0.7
			l0.4,0.9l-0.4,0.3l1.1,1.4l0.8,0.1l-0.4,2l-0.7-0.2l-0.3,0.6h-0.3h-0.3l0,1.2l-1,1.2h-3.1l0.8-0.9l0.7-0.6l-0.4-0.9l-21,0h-0.7
			v-2.4l0-10.5l-1-0.2l-0.8-1.1l-0.6-0.5l1.1-1.4L456,173l-0.5-0.5l-1.2-1.3l-1-1.6l5.5,0.1l6.7-0.1L472.4,169.6"/>
	</g>
	<g id="group-102">
		<path id="path-103" vector-effect="non-scaling-stroke" class="st7" d="M413,128.8l0,5.5l0,9.3l0,4.6H413l-9,0h-15.4h-9.6l0,2.6
			l-0.9-0.5l-0.8-0.9l-1.1,1l-1,0.2l-0.2-0.3l-1.1,0.2l-0.7-0.2l-1.1,0.4l-1.5,0l-0.5,0.5l-0.6-0.3l-0.6-1.6l-1-0.1l-0.6-0.4l0-0.9
			l-0.6-0.3l-0.8-1l-0.5-0.9l0.1-0.4l-0.9-0.5l-0.5,0.5l-1.2,0.7l-1-0.5l0.2-0.5l-0.3-0.5l0.9-0.5l-0.5-0.7l0.1-1.1l0.7-1.8l-1.4,0
			l-0.1-0.3l-1.3-0.5l-0.2-0.5l-1.8-1.3l-0.1-0.3l-1-0.2l-0.9-0.6l0-1.3l-1.6-1.4v-5l22.1,0l10,0H413"/>
	</g>
	<g id="group-104">
		<path id="path-105" vector-effect="non-scaling-stroke" class="st3" d="M416.5,158l8.3,0H440l0.2,0.2l2.5,0.9l0.6-0.5l0.7,0.1h2.3
			l2.6,0.9l0.3,0.7l0.9,0.1l0.9,2.2l0.7,0.3l0.3,0.9l-0.3,0.6l0.1,0.7l0.9,0.4l0,1.2l0.5,1.1l-0.3,1.3l0.6,0.6l1,1.6l1.2,1.3h-32.1
			h-0.7v-4.9H413V158H416.5"/>
	</g>
	<g id="group-106">
		<path id="path-107" vector-effect="non-scaling-stroke" class="st3" d="M349.8,162.8l14.5,0l0,24.3v3.9l-0.5,0.8l-0.5,0l-0.6-0.6
			l-1.8,0.2l0.3,2.9l0.4,0.9l0.1,0.9l-0.3,0.7l-5.9-4.7l-3.4-2.6l-4.7-3.5l-5.9-4.3l-6.3-4.4l0-6.2l0-8.4l6.3,0L349.8,162.8"/>
	</g>
	<g id="group-108">
		<path id="path-109" vector-effect="non-scaling-stroke" class="st6" d="M573.5,146.8l0.2,3.1l0.3,6.4l0.8,0.6l-0.1,0.5l0.6,0.3
			l-0.6,0.9l-0.5-0.1l-1.3,0.5l-0.5,0.5l-5.7-0.2l-0.4-0.4l0.1-0.7l0.4-0.3l-0.1-0.7l0.4-2.1l0.9-1l0.4-1.1l0.4-0.4l0-1.2l1.6-0.5
			l0.8-0.8l-0.5-0.8l0.7-0.8l-0.1-0.5l0.7-1.3l1.1,0.1L573.5,146.8"/>
	</g>
	<g id="group-110">
		<path id="path-111" vector-effect="non-scaling-stroke" class="st5" d="M558.1,167l1.6,0.7l-0.6,1.4l-0.8,0.3l-0.4,0.7l1.3,0.4
			l0.1,0.6l-0.6,2.6l-1.5,1.9l-1,0.6l-0.9,1.2l-0.5-0.8l-1.4-0.4l-1.7-1.1l-0.1-0.7l0-0.1l0.3-0.3l0.5-0.6l1.3-0.4l0.1-0.4l1.5-0.8
			l0.2-0.4l-1.4-1l-0.1-0.6l-0.6-0.2l-0.1-0.6l0.7-0.9l-0.4-0.5l1.2-1l0.3-0.5l0.6-0.3L558.1,167"/>
	</g>
	<g id="group-112">
		<path id="path-113" vector-effect="non-scaling-stroke" class="st3" d="M396.6,187.2l2.7,0h12.3l6.5,0v2.4h-0.2l0,12.1l-0.1,4.9
			v4.9h-17.3l-0.1,0.5l0.6,0.6h-8.2v2.2h-4.1l0-27.6H396.6"/>
	</g>
	<g id="group-114">
		<path id="path-115" vector-effect="non-scaling-stroke" class="st2" d="M562.4,148.2l0.1,1l-0.3,0.9l0.5,0.9l-0.1,0.9l-0.6,1
			l0.4,1.3l-0.3,0.4l0.8,0.8l-0.2,3.4l0.1,0.4l-1.2,3.2l0.1,0.2l-0.3,3.7l0.3,0.4l-1.2,0.5l0.3,0.6l2.1,0.4l0.4-0.3h1.8l0.9-0.2
			l1.5-0.8l0.1,0.6l0.8,0.2l-1.8,0.7l-3.8,1.1l-1.6,0.2l-1-0.1l-0.8,0.2l-0.4-0.8l0.6-1.4l-1.6-0.7l-2.2-1.1l-0.2-0.3l-0.7,0
			l-0.9-0.8l0.1-0.7l-0.6-0.6l-0.4,0l-0.5-0.7h-21.4v-1.2v-0.1l3-1.4l0.5-0.7l1-0.5l-0.4-0.8l-0.4-0.2l-0.3-1.3l2.9-0.6l2.5,0l1,0.1
			l1.1,0.5l0.7-0.2l2.1,0l1.3-0.3l1.4-0.9l0.9,0l0-1.3l0.5-0.8l-1.1-0.5l0.2-0.6l1.9-0.8l0.7-0.7l2.3-1.6l2.2-0.8l3.3,0.1
			L562.4,148.2"/>
	</g>
	<g id="group-116">
		<path id="path-117" vector-effect="non-scaling-stroke" class="st6" d="M525.3,189.3l3.3,0.1l3.8,0l17.7-0.1l0.6,1.9l-1.4-0.2
			l-0.2,0.2l-1.7,0.3l-0.2,0.3l-1.1,0.1l0.1,0.3l1.3-0.2l0.2,0.2l1.5-0.2l0.5,0.5l0.9-0.2l0.3,1.2l-0.3,0.6l-0.6,0.1l-1.2,1.2
			l-1.6,0.1l-0.3,0.8l0.7,0.8l0.6,0.2l-1,1.4l-0.9-0.2l-1.5,0.1l-1.1,0.3l-1.7,0.9l-1.3,1.2l-0.7,1.5l-1-0.3l-1.8,0.3l-5.5-4.6
			l-5.5-0.1l0.1-0.6l-0.7-0.8l-0.5,0.3l0-0.5l-6-0.2l-1.3,0.2l-1,0.5l-1.7,0.3l-2.5,0.1l-3.4,0l0.1-1.1l1-0.1l0.4-0.8l1.2-0.7l1.3,0
			l1.2-0.7l1.3-0.3l1.1-1.1l0.7-0.3l0.1,0.5l1.9-0.9l0.9,0.2l0.6-0.9l0.9-0.2l0.2-1.1L525.3,189.3"/>
	</g>
	<g id="group-118">
		<path id="path-119" vector-effect="non-scaling-stroke" class="st7" d="M446.2,128.8l0.6,1.5l-0.3,0.7l0.2,2l0.4,0.9l1,1.7
			l0.2,3.1l0.2,0.2l-0.1,1.3l0.4,1.1l0.6,0.5l0.2,1.9l-36.4-0.1l0-9.3l0-5.5H446.2"/>
	</g>
	<g id="group-120">
		<path id="path-121" vector-effect="non-scaling-stroke" class="st2" d="M527.5,163v6.5l-0.7,0.3l0.3,0.5l0,0.7l-0.7,1.2L526,174
			l-1.9,1.6l-0.6,0.2l-0.5-0.3l-0.6,0.7l-0.6,0l-0.6,0.9l0.1,0.6l-0.5,0.5l-0.7-0.7l-0.9,1.2l0.2,0.7l-0.6,0.3l-0.2,0.6l-1.3,0.1
			l-0.7-0.7l-0.6-0.1l-0.2-0.8l-0.7,0.2l-0.5,0.5l-1.8-0.4l-0.8,0.3l-1.1-0.7l-1.5-0.2l-0.1-0.4l-1-1h-1.9l0.1-6.8l0-5.8l6.6-0.2
			l1.9,0.7l0.6,0.4l0.5-0.4l1.1,0.8l0.7,0.2l2.3-0.6l1.3,0.1l1.4-0.9l2.1-0.9L527.5,163L527.5,163"/>
	</g>
	<g id="group-122">
		<path id="path-123" vector-effect="non-scaling-stroke" class="st0" d="M432.3,187.2h26.6v2.4l0.9,5.4l-0.3,8.6l-1.9-0.5l-0.5-0.6
			l-1.3-0.5l-0.3,0.4l-1.3,0l-0.3-0.3l-1.1,0.5l-0.5-0.3l-1,0.2l-1,0.7l-0.4-0.4l-1-0.3H448l-0.3-0.6l-1.2,1.1l-0.4-0.6l-0.6,0.2
			l-0.4-0.4l-1.1-0.4l-0.9,0.6l-0.4-0.7l-0.7-0.1l-0.4-0.5l-0.9-0.2l-0.6,0.5l-0.4-0.4l-1,0.1l-1.1-0.4l-1,0.1l-0.3-0.9l-1.5-0.1
			l-0.6,0.2l-1.1-0.9l-0.4,0.1v-9.4h-8.8h-5.8v-2.4l4.7,0L432.3,187.2"/>
	</g>
	<g id="group-124">
		<path id="path-125" vector-effect="non-scaling-stroke" class="st3" d="M319.7,142.5l0.5-0.1l1,0.5l0.5,0.6l0.2,1.5l2.5,0.5
			l2.1-0.8l1.3-0.1l1.5,0.3l0.2,0.3l2.7-0.7l0.6,0.2l1.4-0.1l1.2-0.5l2.1-0.4l1.9-0.1l0.7-0.3l10.1,0l0.7,0.8l1.1,0.3l0.4,0.7
			l-1,1.4l-0.3,0.9l-0.6,0.6l0.1,0.5l-0.5,0.7l-0.5,0.2l-1,1.7l0.3,0.7l0.9,0.1l0.4,0.4l-0.6,1.6v8.9l-8.1,0.1l-6.3,0h-5l-6.5-0.1
			l-4.2,0l-4.8,0l-0.7-0.6l-0.4-1.6l0.1-1.1l-0.7-0.9l0.5-0.8l0.3-1.3l0.7-1.4l0.3-1.2l0.5-4.1l-0.1-0.6l0.5-1.8l0.2-2.5l-0.3-1.4
			l0.2-0.8l1.9-0.7l0.9,0.6L319.7,142.5"/>
	</g>
	<g id="group-126">
		<path id="path-127" vector-effect="non-scaling-stroke" class="st2" d="M531.2,161.6v1.2h21.4l0.5,0.7l0.4,0l0.6,0.6l-0.1,0.7
			l0.9,0.8l0.7,0l0.2,0.3l-0.6,0.3l-0.3,0.5l-1.2,1l0.4,0.5l-0.7,0.9l0.1,0.6l0.6,0.2l0.1,0.6l1.4,1l-0.2,0.4l-1.5,0.8l-0.1,0.4
			l-1.3,0.4l-1-0.1l-0.8,0.5h-18h-5.1v-4.5V163l0,0l0.9-0.3L531.2,161.6L531.2,161.6"/>
	</g>
	<g id="group-128">
		<path id="path-129" vector-effect="non-scaling-stroke" class="st5" d="M572.9,164.4l0.4,0.9l-1,0.1L572.9,164.4"/>
		<path id="path-130" vector-effect="non-scaling-stroke" class="st5" d="M571.3,162.8h0.7l0.3,1.1l0.5,0.3l-0.6-0.1l-0.5,0.7
			l-0.2,1l-1.8,0.2l0.3-0.5v-2.9L571.3,162.8"/>
	</g>
	<g id="group-131">
		<path id="path-132" vector-effect="non-scaling-stroke" class="st6" d="M516.6,196.6l1-0.5l1.3-0.2l6,0.2l0,0.5l0.5-0.3l0.7,0.8
			l-0.1,0.6l5.5,0.1l5.5,4.6l-0.9,0.2l-1.1,0.8l-1,1.3l-0.2,1l-0.8,0.8h-1.1l-0.2,0.6l-1.1,0.6l-0.6,0.7l-1,0.3l-1.1,0.7l-0.1,0.3
			l-1,0.4l-1.1,1l-1.1-0.4l0-0.8l-0.8-1.3l-0.7-0.3l-0.1-1l-0.3-0.8l-1.3-0.7l-0.9-0.9l0.1-0.6l-1.3-0.8l-0.6-0.9l-1.1-0.6l-0.8-1
			l-0.2-0.6l-0.7-1.1l-0.5,0.1l-1.6-1l0.1-0.5l1-1L516.6,196.6"/>
	</g>
	<g id="group-133">
		<path id="path-134" vector-effect="non-scaling-stroke" class="st0" d="M413,143.7l36.4,0.1l-0.1,0.6l-1.3,1l0.9,0.9l1.1,0.6v8.7
			l-0.6,0.1l0.3,0.4l-0.2,0.9l0.6,0.5l-0.4,0.3l-0.2,1l-0.4,0.7l0.9,1.1l-0.9-0.1l-0.3-0.7l-2.6-0.9H444l-0.7-0.1l-0.6,0.5l-2.5-0.9
			L440,158h-15.2l-8.3,0H413l0-9.7h0.1L413,143.7"/>
	</g>
	<g id="group-135">
		<path id="path-136" vector-effect="non-scaling-stroke" class="st0" d="M490.8,189.6l-0.1-0.9l1.1,0.2l6.1-0.1l5.4,0.2l1-0.1
			l3.6,0.2l4.2,0.1l0.1-0.1l9.7,0.1l-0.2,1.1l-0.9,0.2l-0.6,0.9l-0.9-0.2l-1.9,0.9l-0.1-0.5l-0.7,0.3l-1.1,1.1l-1.3,0.3l-1.2,0.7
			l-1.3,0l-1.2,0.7l-0.4,0.8l-1,0.1L509,197l-6.3,0l-8.5-0.1l-4.1,0h-1.3h-9l0.5-0.1l0.5-0.9l-0.1-1.2l0.9-0.8l0.2-0.7l0.7-0.3
			l0.2-0.9l1-1.2l0-1.2h0.3h0.3l0.6-0.1L490.8,189.6"/>
	</g>
	<g id="group-137">
		<path id="path-138" vector-effect="non-scaling-stroke" class="st0" d="M423.9,189.6h8.8v9.4l0.4-0.1l1.1,0.9l0.6-0.2l1.5,0.1
			l0.3,0.9l1-0.1l1.1,0.4l1-0.1l0.4,0.4l0.6-0.5l0.9,0.2l0.4,0.5l0.7,0.1l0.4,0.7l0.9-0.6l1.1,0.4l0.4,0.4l0.6-0.2l0.4,0.6l1.2-1.1
			l0.3,0.6h1.1l1,0.3l0.4,0.4l1-0.7l1-0.2l0.5,0.3l1.1-0.5l0.3,0.3l1.3,0l0.3-0.4l1.3,0.5l0.5,0.6l1.9,0.5l0.5,0.5l1-0.2l0.7,0.2
			v2.6v5l1.1,1.1l0,1.1l1.3,2l0.1,1l-0.5,1.3l-0.5,0.5l0.2,0.7l-0.3,0.5l0.4,0.9l-1.1,1.7l0.4,0.5l-0.8,0l-2.5,0.7l-0.9-0.4
			l-0.2-0.8l-0.6,0.6l-0.5-0.1l-0.2,0.7l0.5,0.3l0.1,0.9l-0.9,1l-1.5,1.2l-2.9,1.3l-0.3-0.2l-0.9,0.3l0-0.3l-1.2,0.2l-0.6-0.6
			l-0.3,0.1l1.3,1.3l-0.9,0.4l-0.9-0.2l-0.1,0.9l-1.1,0.9l-1.1,1.7l-0.7,1.8l-0.5-0.1l-0.1,0.6l0.6-0.2l-0.3,1.3l-0.4,0.1l0,0.7
			l0.5,0.4l0.1,1.5l0.5,0.5l0.1,0.9l0.4,0.8l-1.5,0.5l-0.6-0.6l-1.1-0.2l-1.5,0.1l-1.3-0.8l-1-0.1l-0.7-0.6l-1-0.2l-0.7-0.6
			l-0.5-1.5l-0.9-0.9l0.1-0.7l-0.4-0.8l0.1-0.7l-0.6-0.8l-0.5-0.1l-0.8-0.7l-0.3-0.9l-0.7-0.8l-1-0.7l-0.5-1.5l-0.5-0.4l-0.6-1.2
			l-0.2-1l-0.6-0.7l-1-0.6l-0.2-0.4l-1-0.4l-0.7-1.1l-2.1-0.2l-1.3,0.1l-1.1-0.4l-0.2,0.5l-1.2,0.2l-0.9,1l-0.5,1.6l-0.3,0l-0.7,1
			l-0.8,0l-1.2-0.7l-3-1.2l-0.6-0.6l-1.2-0.6l-0.8-1.4l-0.1-1.3l-0.8-1l-0.2-0.9l-0.5-0.6l-1.9-0.8l-1-1.1l-0.8-0.4l-0.9-1l-1.2-0.5
			l-0.9-1.3l-0.7-0.3l-0.6-0.6l0.1-0.5h17.3v-4.9l0.1-4.9l0-12.1h0.2H423.9"/>
	</g>
	<g id="group-139">
		<path id="path-140" vector-effect="non-scaling-stroke" class="st8" d="M373.5,162.9l5.4,0v4.9h9.7l0,9.1l0,4.1l0.1,0.5v5.7
			l-7.1,0l-17.3,0l0-24.3H373.5"/>
	</g>
	<g id="group-141">
		<path id="path-142" vector-effect="non-scaling-stroke" class="st0" d="M571.4,148.2l0.1,0.5l-0.7,0.8l0.5,0.8l-0.8,0.8l-1.6,0.5
			l0,1.2l-0.4,0.4l-0.4,1.1l-0.9,1l-0.4,2.1l0.1,0.7l-0.4,0.3l-0.1,0.7l0.4,0.4l-3.9-0.1l-0.1-0.4l0.2-3.4l-0.8-0.8l0.3-0.4
			l-0.4-1.3l0.6-1l0.1-0.9l-0.5-0.9l0.3-0.9l-0.1-1l5,0.1L571.4,148.2"/>
	</g>
	<g id="group-143">
		<path id="path-144" vector-effect="non-scaling-stroke" class="st2" d="M552.4,182.3l0.7-0.1l-0.6,0.8l-0.7,0.3l-0.4,1.1l-1,1.8
			l-0.8,0.4l-0.3-0.7l0.4-1.5l1.3-1.9L552.4,182.3"/>
		<path id="path-145" vector-effect="non-scaling-stroke" class="st2" d="M549.4,182.5h0.1h-0.2H549.4"/>
		<path id="path-146" vector-effect="non-scaling-stroke" class="st2" d="M538.1,175.2l2.5,1.6l0.5-0.9l0.7,0.1l0.5,0.4v0.7l1,0.2
			l0.6,0.5l0.4,0.7l-0.4,0.8l-0.6,0.2l-0.4,0.7l0.2,0.5l1.3-0.2l0.2,0.8l1.7,0.3l0.5,0.6l1.4,0.7l-0.6,1.4l0.6,1.1l-0.7,0.5
			l-0.1,0.6l0.6,0.4l-0.7,0.6l-1-0.8l-0.2,0.3l0.9,0.6l2.4,0.1l0.6,1.8l-17.7,0.1l-3.8,0l-3.3-0.1l-3.4-0.1l-9.7-0.1l2.6-0.7
			l0.3-0.5l0.9-0.2l0.1-0.4l0.7-0.3v-0.4l1.8-0.7l1.9-1.3l-0.1,0.4l0.7,0.8l0.8,0.4l0.6,0l0.9-0.6l0.7,0.5l1.3-0.3l2.2-0.9l0.2,0.3
			l0.9-0.4l0-0.9l0.5-0.8l0.9-0.7l0.4-0.9l1-0.9l0.4-1.1l0.8,0.7l0.8,0.2l0.5-0.4l1-1.7l0.6,0.4l2.3-2L538.1,175.2"/>
	</g>
	<g id="group-147">
		<path id="path-148" vector-effect="non-scaling-stroke" class="st6" d="M349.8,128.8l-0.1,6l0,6.5l-0.1,0.4l0.6,0.9l0,0.9l-10.1,0
			l-0.7,0.3l-1.9,0.1l-2.1,0.4l-1.2,0.5l-1.4,0.1l-0.6-0.2l-2.7,0.7l-0.2-0.3l-1.5-0.3l-1.3,0.1l-2.1,0.8l-2.5-0.5l-0.2-1.5
			l-0.5-0.6l-1-0.5l-0.5,0.1l-0.8,0.1l-0.9-0.6l-0.9-0.2l-0.7,0.3l-0.9-0.4l0.2-0.7l0.6-0.3l-1-1l-0.7-2.6l-0.4-0.3l-0.5-1.9l-1-0.7
			l-0.4-1.4l0.5-1l1,0.5l2,0.6l1.4,0l1.4,0.2l1.3-0.2l0.6,0.4l1.1,0l0.8,1.1l0.6-0.1l0.1,1.4l0.3,1.3l0.5-0.1l-0.5-1.1l0.1-1.1
			l0.8-1.1l-0.6-0.5l-0.1-0.8l-0.5-0.9l0.2-0.6l-0.3-0.7l-0.8-0.1l-0.7-0.6l0.2-0.5H349.8"/>
		<path id="path-149" vector-effect="non-scaling-stroke" class="st6" d="M322.1,132.1l0.6-0.2l-0.1,1l-0.8-0.4L322.1,132.1"/>
		<path id="path-150" vector-effect="non-scaling-stroke" class="st6" d="M320.6,130.8l0.5-0.6l0.7,0.8l-0.2,0.7l-1.1-0.2
			L320.6,130.8"/>
	</g>
	<g id="group-151">
		<path id="path-152" vector-effect="non-scaling-stroke" class="st0" d="M527.5,169.5v4.5h5.1l-0.1,2.5l1-0.5l1-0.8l0.6,0.2l1-0.7
			l1.4,0.3l0.2-0.5l0.8,0l0.5-0.4l0.8,0.5h0.8l0.6,1.4l-0.5,0.9l-2.5-1.6l-0.3,1.4l-2.3,2l-0.6-0.4l-1,1.7l-0.5,0.4l-0.8-0.2
			l-0.8-0.7l-0.4,1.1l-1,0.9l-0.4,0.9l-0.9,0.7l-0.5,0.8l0,0.9l-0.9,0.4l-0.2-0.3l-2.2,0.9l-1.3,0.3l-0.7-0.5l-0.9,0.6l-0.6,0
			l-0.8-0.4l-0.7-0.8l0.1-0.4l-0.6-0.1l-0.9-0.6l-0.2-0.6l-0.8-0.7l-0.6-0.9l0.1-1.5l1.3-0.1l0.2-0.6l0.6-0.3l-0.2-0.7l0.9-1.2
			l0.7,0.7l0.5-0.5l-0.1-0.6l0.6-0.9l0.6,0l0.6-0.7l0.5,0.3l0.6-0.2l1.9-1.6l0.5-1.8l0.7-1.2l0-0.7l-0.3-0.5L527.5,169.5"/>
	</g>
	<g id="group-153">
		<path id="path-154" vector-effect="non-scaling-stroke" class="st6" d="M479.4,140.6l0.9,0.3l0.5,0.8l5,1l2.1,0.7l0.6-0.2l2.1,0.5
			l0.6,0.6l1,0.6l-0.1,0.9l-0.5,0.7l1.1,0.1l-0.5,0.7l0.7,0.5l-0.2,0.6l-0.9,0.1l-0.8,1.1l-0.3,0.8l0.6,0.1l0.7-0.5l0.8-1l1-0.4
			l0.8-1.2l1-0.3l-0.1,0.6l-0.7,0.6l-1.4,2l-0.4,1.1l0,0.8l-0.5,0.3l-0.5,1.1l0.2,0.9l-0.4,0.6l-0.6,1.5l0.1,1.2l0.6,1.1l-0.2,1.4
			h-4.8l-9-0.1l-0.3-0.6l-1.7-0.6l-0.4-0.8l-0.2-1.1l0.6-0.6l-0.7-0.5l-0.1-0.7l-0.3-0.6l0.1-0.8l-0.9-1.1l-0.8-0.2l-1.4-0.8
			l-0.2-0.6l-1.5-0.5l-0.5-0.5l-1-0.1l-1.3-0.9l0.3-1.8l-0.1-0.8l0.6-0.7l-0.6-0.6l-0.6-0.1l0.1-0.7l1.1-1l1.4-0.4l0.3-0.3v-2.9
			l1-0.4l0.4,0.2l1.1,0.1l3.4-0.8l1.3-0.5l0.4,0.3l-0.7,0.6l1.6,0.8L479.4,140.6"/>
	</g>
	<g id="group-155">
		<path id="path-156" vector-effect="non-scaling-stroke" class="st7" d="M388.5,148.2h15.4l9,0l0,9.7v9.7l-8.2,0l-10.7,0l-5.5,0
			h-9.7v-4.9v-12l0-2.6H388.5"/>
	</g>
	<g id="group-157">
		<path id="path-158" vector-effect="non-scaling-stroke" class="st5" d="M596,279.7l-1.6-0.1l-0.7,0.4l-0.3-0.2l-1.1,0.1l0.3-1.1
			l-0.6-0.8l0.9-0.7l0.7,0.1h2.7l2.8,0.3l1,0.3l0,0.8l-0.5,0.1l-0.5,0.8L597,280L596,279.7"/>
	</g>
</g>
<g id="group-2">
	<g id="hoverbox-159">
		<path id="rectangle-161" class="st9" d="M378,146h104.3c1.1,0,2,0.9,2,2v28c0,1.1-0.9,2-2,2H378c-1.1,0-2-0.9-2-2v-28
			C376,146.9,376.9,146,378,146z"/>
		<text id="text-160" transform="matrix(1 0 0 1 402.3508 162)" class="st10 st11 st12">Utah: 34.3</text>
	</g>
</g>
</svg>
