<?xml version="1.0" encoding="utf-8"?>
<!-- Generator: Adobe Illustrator 23.0.6, SVG Export Plug-In . SVG Version: 6.00 Build 0)  -->
<svg version="1.1" id="interactive-0" xmlns="http://www.w3.org/2000/svg" xmlns:xlink="http://www.w3.org/1999/xlink" x="0px"
	 y="0px" viewBox="0 0 300 150" style="enable-background:new 0 0 300 150;" xml:space="preserve">
<style type="text/css">
	.st0{fill:#404040;stroke:#404040;}
	.st1{fill:#333333;}
	.st2{font-family:'HelveticaNeue';}
	.st3{font-size:12px;}
	.st4{fill:#F2F2F2;stroke:#404040;}
</style>
<path id="rectangle-3" class="st0" d="M127.4,39.2L127.4,39.2c3.6,0,6.5,2.9,6.5,6.5l0,0c0,3.6-2.9,6.5-6.5,6.5l0,0
	c-3.6,0-6.5-2.9-6.5-6.5l0,0C120.9,42.1,123.8,39.2,127.4,39.2z"/>
<text id="text-4" transform="matrix(1 0 0 1 145.3723 47.9059)" class="st1 st2 st3">blue</text>
<path id="rectangle-6" class="st4" d="M127.4,59.2L127.4,59.2c3.6,0,6.5,2.9,6.5,6.5l0,0c0,3.6-2.9,6.5-6.5,6.5l0,0
	c-3.6,0-6.5-2.9-6.5-6.5l0,0C120.9,62.1,123.8,59.2,127.4,59.2z"/>
<text id="text-7" transform="matrix(1 0 0 1 145.3723 67.9059)" class="st1 st2 st3">red</text>
<path id="rectangle-9" class="st4" d="M127.4,79.2L127.4,79.2c3.6,0,6.5,2.9,6.5,6.5l0,0c0,3.6-2.9,6.5-6.5,6.5l0,0
	c-3.6,0-6.5-2.9-6.5-6.5l0,0C120.9,82.1,123.8,79.2,127.4,79.2z"/>
<text id="text-10" transform="matrix(1 0 0 1 145.3723 87.9059)" class="st1 st2 st3">green</text>
<path id="rectangle-12" class="st4" d="M127.4,99.2L127.4,99.2c3.6,0,6.5,2.9,6.5,6.5l0,0c0,3.6-2.9,6.5-6.5,6.5l0,0
	c-3.6,0-6.5-2.9-6.5-6.5l0,0C120.9,102.1,123.8,99.2,127.4,99.2z"/>
<text id="text-13" transform="matrix(1 0 0 1 145.3723 107.9058)" class="st1 st2 st3">yellow</text>
</svg>
