<svg id="a3b761df-e19b-49e7-8b9a-8e98a06739e6" data-name="f4d5f601-dded-487c-aa6f-cad1f9189f14" xmlns="http://www.w3.org/2000/svg" xmlns:xlink="http://www.w3.org/1999/xlink" viewBox="0 0 400 250"><defs><style>.a12f953a-98df-4f21-8aff-392ee860e5ed,.bfefaf8f-4b40-446f-bba1-4903372ac37d{fill:none;}.b540a747-3c14-4da1-8949-0c61de781e6d{clip-path:url(#f8ac1472-522c-46a3-84f7-60bb3b515feb);}.af373a28-2c9c-421c-8398-c940d856a2be,.bfefaf8f-4b40-446f-bba1-4903372ac37d{stroke:#333;stroke-miterlimit:10;}.af373a28-2c9c-421c-8398-c940d856a2be{fill:#f8f8f8;}.b1a085f7-adbd-4358-b831-af8c10febf03{fill:#333;}.af6efecc-651d-4849-8b32-62989999ac49{isolation:isolate;font-size:22px;fill:#0366ee;font-family:KaTeX_Main-Regular, KaTeX_Main;}</style><clipPath id="f8ac1472-522c-46a3-84f7-60bb3b515feb"><rect class="a12f953a-98df-4f21-8aff-392ee860e5ed" x="-749.284" y="16" width="700" height="400"/></clipPath></defs><title>riemann-sum-dependency-graph</title><g id="bdec6611-8b3f-4332-ba83-2e9e76129118" data-name="a68e92fc-1b88-4f6b-a4ca-b3cacb98626a"><g class="b540a747-3c14-4da1-8949-0c61de781e6d"><g id="ae2ce094-5ba5-45a0-aca4-2b7ff15d4b2c" data-name="ac4f092c-db5e-4aa7-bcdb-c0e62e34f065"><g id="a0db57ba-c8c1-4425-8303-2fdedf576584" data-name="bd7a3e9d-fb8e-4350-b91e-39ee268ca62b"><path id="fcaa0127-d134-4e35-b99d-d0d5fbd9acf5" data-name="a1bb04e0-fab1-445f-80e2-fbe569ad57da" class="bfefaf8f-4b40-446f-bba1-4903372ac37d" d="M-1449.284,523.943l1-.943,1-1,1-1,1-1,1-.9,1-1,1-.9,1-.9,1-1,1-.9,1-.9,1-.9,1-.9,1-.9,1-.8,1-.9,1-.9,1-.8,1-.8,1-.9,1-.8,1-.8,1-.8,1-.8,1-.8,1-.8,1-.7,1-.8,1-.8,1-.7,1-.7,1-.8,1-.7,1-.7,1-.7,1-.7,1-.6,1-.7,1-.7,1-.6,1-.7,1-.6,1-.6,1-.6,1-.6,1-.6,1-.6,1-.6,1-.5,1-.6,1-.5,1-.6,1-.5,1-.5,1-.5,1-.5,1-.5,1-.5,1-.4,1-.5,1-.4,1-.5,1-.4,1-.4,1-.4,1-.4,1-.4,1-.4,1-.3,1-.4,1-.3,1-.4,1-.3,1-.3,1-.3,1-.3,1-.3,1-.3,1-.2,1-.3,1-.2,1-.3,1-.2,1-.2,1-.2,1-.2,1-.2,1-.2,1-.1,1-.2,1-.1,1-.2,1-.1,1-.1,1-.1,1-.1,1-.1,1-.1,1-.1h1l1-.1h2l1-.1h3l1,.1h2l1,.1h1l1,.1,1,.1h1l1,.1,1,.1,1,.1,1,.2,1,.1,1,.1,1,.2,1,.1,1,.2,1,.1,1,.2,1,.2,1,.2,1,.2,1,.2,1,.3,1,.2,1,.2,1,.3,1,.2,1,.3,1,.3,1,.2,1,.3,1,.3,1,.3,1,.3,1,.3,1,.4,1,.3,1,.3,1,.4,1,.3,1,.4,1,.4,1,.3,1,.4,1,.4,1,.4,1,.4,1,.4,1,.4,1,.5,1,.4,1,.4,1,.5,1,.4,1,.5,1,.4,1,.5,1,.5,1,.5,1,.4,1,.5,1,.5,1,.5,1,.5,1,.6,1,.5,1,.5,1,.5,1,.6,1,.5,1,.5,1,.6,1,.5,1,.6,1,.6,1,.5,1,.6,1,.6,1,.5,1,.6,1,.6,1,.6,1,.6,1,.6,1,.6,1,.6,1,.6,1,.6,1,.6,1,.7,1,.6,1,.6,1,.6,1,.7,1,.6,1,.6,1,.7,1,.6,1,.6,1,.7,1,.6,1,.7,1,.6,1,.7,1,.6,1,.7,1,.6,1,.7,1,.7,1,.6,1,.7,1,.7,1,.6,1,.7,1,.6,1,.7,1,.7,1,.6,1,.7,1,.7,1,.6,1,.7,1,.7,1,.6,1,.7,1,.7,1,.6,1,.7,1,.7,1,.6,1,.7,1,.6,1,.7,1,.7,1,.6,1,.7,1,.6,1,.7,1,.6,1,.7,1,.6,1,.7,1,.6,1,.7,1,.6,1,.6,1,.7,1,.6,1,.6,1,.7,1,.6,1,.6,1,.6,1,.6,1,.6,1,.6,1,.7,1,.6,1,.5,1,.6,1,.6,1,.6,1,.6,1,.6,1,.5,1,.6,1,.6,1,.5,1,.6,1,.5,1,.6,1,.5,1,.6,1,.5,1,.5,1,.5,1,.6,1,.5,1,.5,1,.5,1,.5,1,.4,1,.5,1,.5,1,.5,1,.4,1,.5,1,.5,1,.4,1,.4,1,.5,1,.4,1,.4,1,.4,1,.4,1,.4,1,.4,1,.4,1,.4,1,.4,1,.3,1,.4,1,.3,1,.4,1,.3,1,.4,1,.3,1,.3,1,.3,1,.3,1,.3,1,.3,1,.2,1,.3,1,.3,1,.2,1,.3,1,.2,1,.2,1,.2,1,.2,1,.2,1,.2,1,.2,1,.2,1,.2,1,.1,1,.2,1,.1,1,.1,1,.2,1,.1,1,.1,1,.1,1,.1h1l1,.1,1,.1h1l1,.1h7l1-.1h1l1-.1h1l1-.1,1-.1,1-.1,1-.1,1-.1,1-.1,1-.1,1-.2,1-.1,1-.2,1-.2,1-.1,1-.2,1-.2,1-.2,1-.3,1-.2,1-.2,1-.3,1-.2,1-.3,1-.3,1-.3,1-.3,1-.3,1-.3,1-.3,1-.4,1-.3,1-.4,1-.4,1-.3,1-.4,1-.4,1-.4,1-.5,1-.4,1-.4,1-.5,1-.4,1-.5,1-.5,1-.5,1-.5,1-.5,1-.5,1-.5,1-.6,1-.5,1-.6,1-.5,1-.6,1-.6,1-.6,1-.6,1-.6,1-.6,1-.7,1-.6,1-.7,1-.6,1-.7,1-.7,1-.7,1-.7,1-.7,1-.7,1-.8,1-.7,1-.7,1-.8,1-.8,1-.7,1-.8,1-.8,1-.8,1-.8,1-.8,1-.9,1-.8,1-.8,1-.9,1-.9,1-.8,1-.9,1-.9,1-.9,1-.9,1-.9,1-.9,1-1,1-.9,1-.9,1-1,1-.9,1-1,1-1,1-1,1-1,1-1,1-1,1-1,1-1,1-1,1-1.1,1-1,1-1,1-1.1,1-1.1,1-1,1-1.1,1-1.1,1-1.1,1-1.1,1-1.1,1-1.1,1-1.1,1-1.1,1-1.1,1-1.2,1-1.1,1-1.2,1-1.1,1-1.2,1-1.1,1-1.2,1-1.2,1-1.1,1-1.2,1-1.2,1-1.2,1-1.2,1-1.2,1-1.2,1-1.2,1-1.3,1-1.2,1-1.2,1-1.2,1-1.3,1-1.2,1-1.3,1-1.2,1-1.3,1-1.2,1-1.3,1-1.2,1-1.3,1-1.3,1-1.3,1-1.2,1-1.3,1-1.3,1-1.3,1-1.3,1-1.3,1-1.3,1-1.3,1-1.3,1-1.3,1-1.3,1-1.3,1-1.3,1-1.3,1-1.3,1-1.3,1-1.4,1-1.3,1-1.3,1-1.3,1-1.3,1-1.4,1-1.3,1-1.3,1-1.4,1-1.3,1-1.3,1-1.3,1-1.4,1-1.3,1-1.3,1-1.4,1-1.3,1-1.3,1-1.4,1-1.3,1-1.3,1-1.4,1-1.3,1-1.3,1-1.4,1-1.3,1-1.3,1-1.4,1-1.3,1-1.3,1-1.3,1-1.4,1-1.3,1-1.3,1-1.3,1-1.3,1-1.4,1-1.3,1-1.3,1-1.3,1-1.3,1-1.3,1-1.3,1-1.3,1-1.3,1-1.3,1-1.3,1-1.3,1-1.3,1-1.3,1-1.2,1-1.3,1-1.3,1-1.3,1-1.2,1-1.3,1-1.3,1-1.2,1-1.3,1-1.2,1-1.3,1-1.2,1-1.2,1-1.3,1-1.2,1-1.2,1-1.2,1-1.2,1-1.3,1-1.2,1-1.2,1-1.1,1-1.2,1-1.2,1-1.2,1-1.2,1-1.1,1-1.2,1-1.2,1-1.1,1-1.1,1-1.2,1-1.1,1-1.1,1-1.2,1-1.1,1-1.1,1-1.1,1-1.1,1-1.1,1-1,1-1.1,1-1.1,1-1,1-1.1,1-1.1,1-1,1-1,1-1.1,1-1,1-1,1-1,1-1,1-1,1-1,1-.9,1-1,1-.9,1-1,1-.9,1-1,1-.9,1-.9,1-.9,1-.9,1-.9,1-.9,1-.9,1-.9,1-.8,1-.9,1-.8,1-.8,1-.9,1-.8,1-.8,1-.8,1-.8,1-.8,1-.7,1-.8,1-.8,1-.7,1-.7,1-.8,1-.7,1-.7,1-.7,1-.7,1-.7,1-.6,1-.7,1-.7,1-.6,1-.6,1-.7,1-.6,1-.6,1-.6,1-.6,1-.5,1-.6,1-.6,1-.5,1-.5,1-.6,1-.5,1-.5,1-.5,1-.5,1-.5,1-.4,1-.5,1-.4,1-.5,1-.4,1-.4,1-.4,1-.4,1-.4,1-.4,1-.4,1-.3,1-.4,1-.3,1-.3,1-.3,1-.4,1-.3,1-.2,1-.3,1-.3,1-.2,1-.3,1-.2,1-.3,1-.2,1-.2,1-.2,1-.2,1-.2,1-.1,1-.2,1-.1,1-.2,1-.1,1-.1,1-.1,1-.1,1-.1,1-.1,1-.1h1l1-.1h1l1-.1h6l1,.1h1l1,.1h1l1,.1,1,.1,1,.1,1,.1,1,.1,1,.1,1,.1,1,.1,1,.2,1,.1,1,.2,1,.2,1,.1,1,.2,1,.2,1,.2,1,.2,1,.2,1,.3,1,.2,1,.2,1,.3,1,.3,1,.2,1,.3,1,.3,1,.3,1,.3,1,.3,1,.3,1,.3,1,.3,1,.4,1,.3,1,.4,1,.3,1,.4,1,.4,1,.4,1,.4,1,.3,1,.4,1,.5,1,.4,1,.4,1,.4,1,.5,1,.4,1,.4,1,.5,1,.5,1,.4,1,.5,1,.5,1,.4,1,.5,1,.5,1,.5,1,.5,1,.5,1,.6,1,.5,1,.5,1,.5,1,.6,1,.5,1,.6,1,.5,1,.6,1,.5,1,.6,1,.6,1,.5,1,.6,1,.6,1,.6,1,.6,1,.6,1,.6,1,.6,1,.6,1,.6,1,.6,1,.6,1,.6,1,.6,1,.7,1,.6,1,.6,1,.6,1,.7,1,.6,1,.7,1,.6,1,.6,1,.7,1,.6,1,.7,1,.6,1,.7,1,.6,1,.7,1,.7,1,.6,1,.7,1,.6,1,.7,1,.7,1,.6,1,.7,1,.7,1,.6,1,.7,1,.7,1,.6,1,.7,1,.7,1,.6,1,.7,1,.7,1,.6,1,.7,1,.6,1,.7,1,.7,1,.6,1,.7,1,.7,1,.6,1,.7,1,.6,1,.7,1,.6,1,.7,1,.6,1,.7,1,.6,1,.7,1,.6,1,.7,1,.6,1,.6,1,.7,1,.6,1,.6,1,.6,1,.7,1,.6,1,.6,1,.6,1,.6,1,.6,1,.6,1,.6,1,.6,1,.6,1,.6,1,.6,1,.5,1,.6,1,.6,1,.6,1,.5,1,.6,1,.5,1,.6,1,.5,1,.6,1,.5,1,.5,1,.5,1,.6,1,.5,1,.5,1,.5,1,.5,1,.5,1,.4,1,.5,1,.5,1,.5,1,.4,1,.5,1,.4,1,.5,1,.4,1,.4,1,.4,1,.5,1,.4,1,.4,1,.4,1,.4,1,.3,1,.4,1,.4,1,.3,1,.4,1,.3,1,.4,1,.3,1,.3,1,.3,1,.4,1,.3,1,.2,1,.3,1,.3,1,.3,1,.2,1,.3,1,.2,1,.3,1,.2,1,.2,1,.2,1,.2,1,.2,1,.2,1,.2,1,.2,1,.1,1,.2,1,.1,1,.2,1,.1,1,.1,1,.1,1,.1,1,.1,1,.1h1l1,.1,1,.1h2l1,.1h5l1-.1h1l1-.1h1l1-.1,1-.1,1-.1,1-.1,1-.1,1-.1,1-.1,1-.2,1-.1,1-.2,1-.1,1-.2,1-.2,1-.2,1-.2,1-.2,1-.2,1-.3,1-.2,1-.3,1-.3,1-.2,1-.3,1-.3,1-.3,1-.3,1-.4,1-.3,1-.4,1-.3,1-.4,1-.4,1-.3,1-.4,1-.4,1-.5,1-.4,1-.4,1-.5,1-.4,1-.5,1-.5,1-.5,1-.4,1-.6,1-.5,1-.5,1-.5,1-.6,1-.5,1-.6,1-.6,1-.6,1-.5,1-.7,1-.6,1-.6,1-.6,1-.7,1-.6,1-.7,1-.6,1-.7,1-.7,1-.7,1-.7,1-.7,1-.8,1-.7,1-.7,1-.8,1-.8,1-.7,1-.8,1-.8,1-.8,1-.8,1-.8,1-.8,1-.9,1-.8,1-.9,1-.8,1-.9,1-.9,1-.9,1-.8,1-.9,1-1,1-.9,1-.9,1-.9,1-1,1-.9,1-1,1-.9,1-1,1-1,1-1,1-1,1-1,1-1,1-1,1-1,1-1.1,1-1,1-1,1-1.1,1-1.1,1-1,1-1.1,1-1.1,1-1.1,1-1.1,1-1.1,1-1.1,1-1.1,1-1.1,1-1.1,1-1.2,1-1.1,1-1.1,1-1.2,1-1.1,1-1.2,1-1.2,1-1.1,1-1.2,1-1.2,1-1.2,1-1.2,1-1.2,1-1.2,1-1.2,1-1.2,1-1.2,1-1.2,1-1.3,1-1.2,1-1.2,1-1.3,1-1.2,1-1.3,1-1.2,1-1.3,1-1.2,1-1.3,1-1.2,1-1.3,1-1.3,1-1.3,1-1.2,1-1.3,1-1.3,1-1.3,1-1.3,1-1.3,1-1.3,1-1.3,1-1.3,1-1.3,1-1.3,1-1.3,1-1.3,1-1.3,1-1.4,1-1.3,1-1.3,1-1.3,1-1.3,1-1.4,1-1.3,1-1.3,1-1.3,1-1.4,1-1.3,1-1.3,1-1.4,1-1.3,1-1.3,1-1.4,1-1.3,1-1.3,1-1.4,1-1.3,1-1.3,1-1.4,1-1.3,1-1.3,1-1.4,1-1.3,1-1.3,1-1.3,1-1.4,1-1.3,1-1.3,1-1.4,1-1.3,1-1.3,1-1.3,1-1.3,1-1.4,1-1.3,1-1.3,1-1.3,1-1.3,1-1.3,1-1.3,1-1.3,1-1.3,1-1.3,1-1.3,1-1.3,1-1.3,1-1.3,1-1.3,1-1.3,1-1.3,1-1.2,1-1.3,1-1.3,1-1.2,1-1.3,1-1.3,1-1.2,1-1.3,1-1.2,1-1.2,1-1.3,1-1.2,1-1.2,1-1.3,1-1.2,1-1.2,1-1.2,1-1.2,1-1.2,1-1.2,1-1.2,1-1.2,1-1.2,1-1.1,1-1.2,1-1.2,1-1.1,1-1.2,1-1.1,1-1.2,1-1.1,1-1.1,1-1.1,1-1.2,1-1.1,1-1.1,1-1.1,1-1.1,1-1,1-1.1,1-1.1,1-1.1,1-1,1-1.1,1-1,1-1,1-1.1,1-1,1-1,1-1,1-1,1-1,1-1,1-1,1-.9,1-1,1-.9,1-1,1-.9,1-.9,1-1,1-.9,1-.9,1-.9,1-.9,1-.9,1-.8,1-.9,1-.8,1-.9,1-.8,1-.9,1-.8,1-.8,1-.8,1-.8,1-.8,1-.7,1-.8,1-.8,1-.7,1-.8,1-.7,1-.7,1-.7,1-.7,1-.7,1-.7,1-.7,1-.6,1-.7,1-.6,1-.7,1-.6,1-.6,1-.6,1-.6,1-.6,1-.6,1-.6,1-.5,1-.6,1-.5,1-.5,1-.6,1-.5,1-.5,1-.5,1-.4,1-.5,1-.5,1-.4,1-.5,1-.4,1-.4,1-.4,1-.4,1-.4,1-.4,1-.4,1-.3,1-.4,1-.3,1-.4,1-.3,1-.3,1-.3,1-.3,1-.3,1-.2,1-.3,1-.3,1-.2,1-.2,1-.3,1-.2,1-.2,1-.2,1-.1,1-.2,1-.2,1-.1,1-.2,1-.1,1-.1,1-.1,1-.1,1-.1,1-.1,1-.1,1-.1h1l1-.1h8l1,.1h1l1,.1h1l1,.1,1,.1,1,.1,1,.1,1,.1,1,.1,1,.2,1,.1,1,.1,1,.2,1,.2,1,.1,1,.2,1,.2,1,.2,1,.2,1,.2,1,.3,1,.2,1,.2,1,.3,1,.2,1,.3,1,.3,1,.3,1,.2,1,.3,1,.3,1,.4,1,.3,1,.3,1,.3,1,.4,1,.3,1,.4,1,.4,1,.3,1,.4,1,.4,1,.4,1,.4,1,.4,1,.4,1,.4,1,.4,1,.5,1,.4,1,.5,1,.4,1,.5,1,.4,1,.5,1,.5,1,.5,1,.4,1,.5,1,.5,1,.5,1,.5,1,.6,1,.5,1,.5,1,.5,1,.6,1,.5,1,.6,1,.5,1,.6,1,.5,1,.6,1,.5,1,.6,1,.6,1,.6,1,.6,1,.5,1,.6,1,.6,1,.6,1,.6,1,.6,1,.7,1,.6,1,.6,1,.6,1,.6,1,.6,1,.7,1,.6,1,.6,1,.7,1,.6,1,.7,1,.6,1,.6,1,.7,1,.6,1,.7,1,.6,1,.7,1,.7,1,.6,1,.7,1,.6,1,.7,1,.6,1,.7,1,.7,1,.6,1,.7,1,.7,1,.6,1,.7,1,.7,1,.6,1,.7,1,.7,1,.6,1,.7,1,.7,1,.6,1,.7,1,.7,1,.6,1,.7,1,.6,1,.7,1,.7,1,.6,1,.7,1,.6,1,.7,1,.6,1,.7,1,.6,1,.7,1,.6,1,.7,1,.6,1,.7,1,.6,1,.6,1,.7,1,.6,1,.6,1,.6,1,.6,1,.7,1,.6,1,.6,1,.6,1,.6,1,.6,1,.6,1,.6,1,.6,1,.5,1,.6,1,.6,1,.6,1,.5,1,.6,1,.6,1,.5,1,.6,1,.5,1,.5,1,.6,1,.5,1,.5,1,.5,1,.6,1,.5,1,.5,1,.5,1,.5,1,.4,1,.5,1,.5,1,.5,1,.4,1,.5,1,.4,1,.5,1,.4,1,.4,1,.5,1,.4,1,.4,1,.4,1,.4,1,.4,1,.4,1,.4,1,.3,1,.4,1,.3,1,.4,1,.3,1,.4,1,.3,1,.3,1,.3,1,.3,1,.3,1,.3,1,.3,1,.3,1,.2,1,.3,1,.2,1,.3,1,.2,1,.2,1,.2,1,.2,1,.2,1,.2,1,.2,1,.2,1,.1,1,.2,1,.1,1,.2,1,.1,1,.1,1,.1,1,.1,1,.1,1,.1,1,.1,1,.1h1l1,.1h9l1-.1,1-.1h1l1-.1,1-.1,1-.1,1-.1,1-.1,1-.1,1-.2,1-.1,1-.2,1-.1,1-.2,1-.2,1-.2,1-.2,1-.2,1-.2,1-.2,1-.3,1-.2,1-.3,1-.3,1-.3,1-.3,1-.3,1-.3,1-.3,1-.3,1-.4,1-.3,1-.4,1-.4,1-.4,1-.3,1-.4,1-.5,1-.4,1-.4,1-.5,1-.4,1-.5,1-.5,1-.4,1-.5,1-.5,1-.5,1-.6,1-.5,1-.5,1-.6,1-.6,1-.5,1-.6,1-.6,1-.6,1-.6,1-.6,1-.7,1-.6,1-.6,1-.7,1-.7,1-.6,1-.7,1-.7,1-.7,1-.7,1-.8,1-.7,1-.7,1-.8,1-.7,1-.8,1-.8,1-.8,1-.8,1-.8,1-.8,1-.8,1-.8,1-.9,1-.8,1-.9,1-.9,1-.8,1-.9,1-.9,1-.9,1-.9,1-.9,1-.9,1-1,1-.9,1-1,1-.9,1-1,1-.9,1-1,1-1,1-1,1-1,1-1,1-1,1-1,1-1.1,1-1,1-1.1,1-1,1-1.1,1-1,1-1.1,1-1.1,1-1.1,1-1.1,1-1.1,1-1.1,1-1.1,1-1.1,1-1.1,1-1.1,1-1.2,1-1.1,1-1.2,1-1.1,1-1.2,1-1.1,1-1.2,1-1.2,1-1.2,1-1.1,1-1.2,1-1.2,1-1.2,1-1.2,1-1.2,1-1.3,1-1.2,1-1.2,1-1.2,1-1.3,1-1.2,1-1.2,1-1.3,1-1.2,1-1.3,1-1.3,1-1.2,1-1.3,1-1.3,1-1.2,1-1.3,1-1.3,1-1.3,1-1.2,1-1.3,1-1.3,1-1.3,1-1.3,1-1.3,1-1.3,1-1.3,1-1.3,1-1.3,1-1.4,1-1.3,1-1.3,1-1.3,1-1.3,1-1.3,1-1.4,1-1.3,1-1.3,1-1.3,1-1.4,1-1.3,1-1.3,1-1.3,1-1.4,1-1.3,1-1.3,1-1.4,1-1.3,1-1.3,1-1.4,1-1.3,1-1.3,1-1.4,1-1.3,1-1.3,1-1.4,1-1.3,1-1.3,1-1.4,1-1.3,1-1.3,1-1.4,1-1.3,1-1.3,1-1.3,1-1.3,1-1.4,1-1.3,1-1.3,1-1.3,1-1.3,1-1.3,1-1.4,1-1.3,1-1.3,1-1.3,1-1.3,1-1.3,1-1.3,1-1.3,1-1.2,1-1.3,1-1.3,1-1.3,1-1.3,1-1.2,1-1.3,1-1.3,1-1.2,1-1.3,1-1.2,1-1.3,1-1.2,1-1.3,1-1.2,1-1.3,1-1.2,1-1.2,1-1.2,1-1.3,1-1.2,1-1.2,1-1.2,1-1.2,1-1.2,1-1.1,1-1.2,1-1.2,1-1.2,1-1.1,1-1.2,1-1.1,1-1.2,1-1.1,1-1.2,1-1.1,1-1.1,1-1.1,1-1.2,1-1.1,1-1.1,1-1.1,1-1,1-1.1,1-1.1,1-1.1,1-1,1-1.1,1-1,1-1,1-1.1,1-1,1-1,1-1,1-1,1-1,1-1,1-1,1-1,1-.9,1-1,1-.9,1-1,1-.9,1-.9,1-.9,1-.9,1-.9,1-.9,1-.9,1-.9,1-.9,1-.8,1-.9,1-.8,1-.8,1-.9,1-.8,1-.8,1-.8,1-.8,1-.7,1-.8,1-.8,1-.7,1-.8,1-.7,1-.7,1-.7,1-.7,1-.7,1-.7,1-.7,1-.7,1-.6,1-.7,1-.6,1-.6,1-.7,1-.6,1-.6,1-.6,1-.5,1-.6,1-.6,1-.5,1-.6,1-.5,1-.5,1-.5,1-.6,1-.4,1-.5,1-.5,1-.5,1-.4,1-.5,1-.4,1-.4,1-.4,1-.4,1-.4,1-.4,1-.4,1-.4,1-.3,1-.4,1-.3,1-.3,1-.3,1-.3,1-.3,1-.3,1-.3,1-.3,1-.2,1-.3,1-.2,1-.2,1-.2,1-.2,1-.2,1-.2,1-.2,1-.2,1-.1,1-.2,1-.1,1-.1,1-.1,1-.1,1-.1,1-.1,1-.1,1-.1h1l1-.1h1l1-.1h5l1,.1h2l1,.1,1,.1h1l1,.1,1,.1,1,.1,1,.1,1,.1,1,.2,1,.1,1,.1,1,.2,1,.2,1,.1,1,.2,1,.2,1,.2,1,.2,1,.2,1,.2,1,.3,1,.2,1,.3,1,.2,1,.3,1,.2,1,.3,1,.3,1,.3,1,.3,1,.3,1,.3,1,.4,1,.3,1,.3,1,.4,1,.3,1,.4,1,.4,1,.3,1,.4,1,.4,1,.4,1,.4,1,.4,1,.4,1,.5,1,.4,1,.4,1,.5,1,.4,1,.5,1,.4,1,.5,1,.5,1,.5,1,.4,1,.5,1,.5,1,.5,1,.5,1,.6,1,.5,1,.5,1,.5,1,.6,1,.5,1,.5,1,.6,1,.5,1,.6,1,.6,1,.5,1,.6,1,.6,1,.5,1,.6,1,.6,1,.6,1,.6,1,.6,1,.6,1,.6,1,.6,1,.6,1,.6,1,.7,1,.6,1,.6,1,.6,1,.7,1,.6,1,.6,1,.7,1,.6,1,.7,1,.6,1,.6,1,.7,1,.6,1,.7,1,.6,1,.7"/></g></g></g></g><g id="a16bfbcf-133a-4ad3-b153-4ecaf93214fd" data-name="interactive-0"><g id="a374c528-1867-46cf-911f-0c8fe6ae3504" data-name="group-1"><g id="b0368283-834e-42fe-9fea-7867b3504e85" data-name="graph-3"><g id="a7108634-4b28-4121-9e6c-ec4042a3400c" data-name="node-5"><circle id="a78412cd-bb30-4421-ad88-4e74df87a7c2" data-name="ellipse-7" class="af373a28-2c9c-421c-8398-c940d856a2be" cx="50" cy="125" r="20"/></g><g id="e8698ad7-edfa-4007-8b7a-54adf573c259" data-name="node-8"><circle id="e634ceb7-d77b-450f-968a-3bf120045b17" data-name="ellipse-10" class="af373a28-2c9c-421c-8398-c940d856a2be" cx="150" cy="125" r="20"/></g><g id="bb354119-f20e-4ad6-b111-94a3447eb5cd" data-name="node-11"><circle id="b1eebf8f-746f-49ce-884c-a5b2b763cd00" data-name="ellipse-13" class="af373a28-2c9c-421c-8398-c940d856a2be" cx="250" cy="125" r="20"/></g><g id="a52be213-e61f-4226-97ec-b70bae60ea19" data-name="node-14"><circle id="fb8fd93c-0f18-4dc1-a3c7-e76afc728c84" data-name="ellipse-16" class="af373a28-2c9c-421c-8398-c940d856a2be" cx="200" cy="50" r="20"/></g><g id="bd354afb-332a-4343-900a-ab814baab5f9" data-name="node-17"><circle id="bdd44a53-aae1-4446-96af-0b3fb95cbf7b" data-name="ellipse-19" class="af373a28-2c9c-421c-8398-c940d856a2be" cx="150" cy="200" r="20"/></g><g id="adcf24a6-d3f2-4be3-9333-3ebca0747456" data-name="node-20"><circle id="b2745257-a72e-4c37-86da-39bdf5e46a42" data-name="ellipse-22" class="af373a28-2c9c-421c-8398-c940d856a2be" cx="250" cy="200" r="20"/></g><g id="b5de16df-4a3f-494e-90f1-efe366775f92" data-name="node-23"><circle id="f72f4414-010e-4189-8008-fabe5307f91b" data-name="ellipse-25" class="af373a28-2c9c-421c-8398-c940d856a2be" cx="350" cy="125" r="20"/></g></g></g><line class="bfefaf8f-4b40-446f-bba1-4903372ac37d" x1="250" y1="145" x2="250" y2="172.8"/><polygon class="b1a085f7-adbd-4358-b831-af8c10febf03" points="245 171.4 250 180 255 171.4 245 171.4"/><line class="bfefaf8f-4b40-446f-bba1-4903372ac37d" x1="150" y1="145" x2="150" y2="172.8"/><polygon class="b1a085f7-adbd-4358-b831-af8c10febf03" points="145 171.4 150 180 155 171.4 145 171.4"/><line class="bfefaf8f-4b40-446f-bba1-4903372ac37d" x1="224.3" y1="62.1" x2="332.1" y2="116.1"/><polygon class="b1a085f7-adbd-4358-b831-af8c10febf03" points="223.4 67.3 217.9 58.9 227.8 58.3 223.4 67.3"/><line class="bfefaf8f-4b40-446f-bba1-4903372ac37d" x1="215.1" y1="72.6" x2="238.9" y2="108.4"/><polygon class="b1a085f7-adbd-4358-b831-af8c10febf03" points="211.7 76.6 211.1 66.6 220 71.1 211.7 76.6"/><line class="bfefaf8f-4b40-446f-bba1-4903372ac37d" x1="184.9" y1="72.6" x2="161.1" y2="108.4"/><polygon class="b1a085f7-adbd-4358-b831-af8c10febf03" points="180 71.1 188.9 66.6 188.3 76.6 180 71.1"/><line class="bfefaf8f-4b40-446f-bba1-4903372ac37d" x1="67.9" y1="116.1" x2="175.7" y2="62.1"/><polygon class="b1a085f7-adbd-4358-b831-af8c10febf03" points="176.6 67.3 182.1 58.9 172.2 58.3 176.6 67.3"/></g><g id="af23b07d-3944-4629-9cce-fe71d7f1dbfc" data-name="Layer 2"><text id="e1156dc1-e423-486b-940e-f227301952ea" data-name="text-6" class="af6efecc-651d-4849-8b32-62989999ac49" transform="translate(40.998 132)">A</text><text id="ae3fec51-bb50-4a94-9ce4-c7fc59a99597" data-name="text-9" class="af6efecc-651d-4849-8b32-62989999ac49" transform="translate(141.998 133)">B</text><text id="eeb35a13-1d30-41b4-b030-4e98476a313e" data-name="text-12" class="af6efecc-651d-4849-8b32-62989999ac49" transform="translate(241.667 133)">C</text><text id="f53baf17-d0fc-4187-a8b2-66ed26ee3df0" data-name="text-15" class="af6efecc-651d-4849-8b32-62989999ac49" transform="translate(192.667 57)">D</text><text id="fa8c097c-88e1-4c52-8f00-514dd57b9e10" data-name="text-18" class="af6efecc-651d-4849-8b32-62989999ac49" transform="translate(141.998 208)">E</text><text id="b38ab8d6-93fa-4299-a388-353a7c344abc" data-name="text-21" class="af6efecc-651d-4849-8b32-62989999ac49" transform="translate(242.335 208)">F</text><text id="b9ac9abe-3558-4a61-879b-fdda80451c12" data-name="text-24" class="af6efecc-651d-4849-8b32-62989999ac49" transform="translate(341.333 133)">G</text></g></svg>