<svg id="svg100" xmlns="http://www.w3.org/2000/svg" viewBox="0 0 400 400"><defs><style>.cls-1{fill:#fff;}.cls-2,.cls-3{fill:none;stroke:#000;stroke-miterlimit:10;stroke-width:5px;}.cls-3{stroke-dasharray:12.53 12.53;}</style></defs><title>scale</title><rect x="125" y="125" width="150" height="150"/><line class="cls-1" x1="275" y1="125" x2="324.69" y2="75.31"/><line class="cls-2" x1="285.15" y1="114.85" x2="324.69" y2="75.31"/><polygon points="294.26 119.84 275 125 280.16 105.74 294.26 119.84"/><polyline class="cls-2" points="325 319 325 325 319 325"/><line class="cls-3" x1="306.47" y1="325" x2="87.26" y2="325"/><polyline class="cls-2" points="81 325 75 325 75 319"/><line class="cls-3" x1="75" y1="306.47" x2="75" y2="87.26"/><polyline class="cls-2" points="75 81 75 75 81 75"/><line class="cls-3" x1="93.53" y1="75" x2="312.74" y2="75"/><polyline class="cls-2" points="319 75 325 75 325 81"/><line class="cls-3" x1="325" y1="93.53" x2="325" y2="312.74"/></svg>