<svg id="svg-7" xmlns="http://www.w3.org/2000/svg" xmlns:xlink="http://www.w3.org/1999/xlink" width="700" height="400" viewBox="0 0 700 400"><defs><style>.cls-1{fill:none;stroke:#333;stroke-miterlimit:10;}.cls-2{clip-path:url(#clip-path);}.cls-3{opacity:0.4;}.cls-4{isolation:isolate;}.cls-5{fill:#333;}</style><clipPath id="clip-path"><rect class="cls-1" x="50" y="50" width="600" height="300"/></clipPath></defs><title>Artboard 1</title><g id="group-1"><g class="cls-2"><g id="plot-3"><rect id="rectangle-6" class="cls-1" x="50" y="50" width="600" height="300"/><g id="group-13" class="cls-3"><line id="line-14" class="cls-1" x1="50" y1="50" x2="50" y2="350"/><line id="line-15" class="cls-1" x1="145.493" y1="50" x2="145.493" y2="350"/><line id="line-16" class="cls-1" x1="240.986" y1="50" x2="240.986" y2="350"/><line id="line-17" class="cls-1" x1="336.479" y1="50" x2="336.479" y2="350"/><line id="line-18" class="cls-1" x1="431.972" y1="50" x2="431.972" y2="350"/><line id="line-19" class="cls-1" x1="527.465" y1="50" x2="527.465" y2="350"/><line id="line-20" class="cls-1" x1="622.958" y1="50" x2="622.958" y2="350"/><line id="line-21" class="cls-1" x1="50" y1="104.507" x2="650" y2="104.507"/><line id="line-22" class="cls-1" x1="50" y1="200" x2="650" y2="200"/><line id="line-23" class="cls-1" x1="50" y1="295.493" x2="650" y2="295.493"/></g><g id="group-8"><line id="line-9" class="cls-1" x1="50" y1="200" x2="650" y2="200"/><line id="line-10" class="cls-1" x1="50" y1="50" x2="50" y2="350"/><path id="path-12" class="cls-1" d="M42,207.991,43,207l1-1,1-1,1-1,1-1,1-1,1-1,1-1,1-1,1-1,1-1,1-1,1-1,1-1,1-1,1-1,1-1,1-1,1-1,1-1,1-1,1-.9,1-1,1-1,1-1,1-1,1-1,1-1,1-.9,1-1,1-1,1-.9,1-1,1-1,1-.9,1-1,1-1,1-.9,1-1,1-.9,1-.9,1-1,1-.9,1-1,1-.9,1-.9,1-.9,1-.9,1-1,1-.9,1-.9,1-.9,1-.9,1-.8,1-.9,1-.9,1-.9,1-.8,1-.9,1-.9,1-.8,1-.9,1-.8,1-.8,1-.9,1-.8,1-.8,1-.8,1-.8,1-.8,1-.8,1-.8,1-.8,1-.8,1-.7,1-.8,1-.8,1-.7,1-.7,1-.8,1-.7,1-.7,1-.7,1-.7,1-.7,1-.7,1-.7,1-.7,1-.6,1-.7,1-.6,1-.7,1-.6,1-.6,1-.7,1-.6,1-.6,1-.6,1-.5,1-.6,1-.6,1-.5,1-.6,1-.5,1-.6,1-.5,1-.5,1-.5,1-.5,1-.5,1-.5,1-.4,1-.5,1-.4,1-.5,1-.4,1-.4,1-.4,1-.4,1-.4,1-.4,1-.4,1-.4,1-.3,1-.3,1-.4,1-.3,1-.3,1-.3,1-.3,1-.3,1-.3,1-.2,1-.3,1-.2,1-.3,1-.2,1-.2,1-.2,1-.2,1-.2,1-.2,1-.1,1-.2,1-.1,1-.1,1-.2,1-.1,1-.1,1-.1h1l1-.1,1-.1h2l1-.1h4l1,.1h2l1,.1,1,.1h1l1,.1,1,.1,1,.1,1,.2,1,.1,1,.1,1,.2,1,.1,1,.2,1,.2,1,.2,1,.2,1,.2,1,.2,1,.3,1,.2,1,.3,1,.2,1,.3,1,.3,1,.3,1,.3,1,.3,1,.3,1,.4,1,.3,1,.3,1,.4,1,.4,1,.4,1,.4,1,.4,1,.4,1,.4,1,.4,1,.5,1,.4,1,.5,1,.4,1,.5,1,.5,1,.5,1,.5,1,.5,1,.5,1,.6,1,.5,1,.6,1,.5,1,.6,1,.6,1,.5,1,.6,1,.6,1,.6,1,.7,1,.6,1,.6,1,.7,1,.6,1,.7,1,.6,1,.7,1,.7,1,.7,1,.7,1,.7,1,.7,1,.7,1,.7,1,.8,1,.7,1,.7,1,.8,1,.8,1,.7,1,.8,1,.8,1,.8,1,.8,1,.8,1,.8,1,.8,1,.8,1,.8,1,.9,1,.8,1,.8,1,.9,1,.8,1,.9,1,.9,1,.8,1,.9,1,.9,1,.9,1,.8,1,.9,1,.9,1,.9,1,.9,1,1,1,.9,1,.9,1,.9,1,.9,1,1,1,.9,1,1,1,.9,1,.9,1,1,1,.9,1,1,1,1,1,.9,1,1,1,1,1,.9,1,1,1,1,1,.9,1,1,1,1,1,1,1,1,1,1,1,1,1,.9,1,1,1,1,1,1,1,1,1,1,1,1,1,1,1,1,1,1,1,1,1,1,1,1,1,1,1,1,1,1,1,1,1,1,1,1,1,1,1,1,1,1,1,1,1,1,1,1,1,1,1,1,1,.9,1,1,1,1,1,1,1,1,1,1,1,1,1,.9,1,1,1,1,1,.9,1,1,1,1,1,.9,1,1,1,1,1,.9,1,1,1,.9,1,.9,1,1,1,.9,1,1,1,.9,1,.9,1,.9,1,.9,1,1,1,.9,1,.9,1,.9,1,.9,1,.8,1,.9,1,.9,1,.9,1,.8,1,.9,1,.9,1,.8,1,.9,1,.8,1,.8,1,.9,1,.8,1,.8,1,.8,1,.8,1,.8,1,.8,1,.8,1,.8,1,.8,1,.7,1,.8,1,.8,1,.7,1,.7,1,.8,1,.7,1,.7,1,.7,1,.7,1,.7,1,.7,1,.7,1,.7,1,.6,1,.7,1,.6,1,.7,1,.6,1,.6,1,.7,1,.6,1,.6,1,.6,1,.5,1,.6,1,.6,1,.5,1,.6,1,.5,1,.6,1,.5,1,.5,1,.5,1,.5,1,.5,1,.5,1,.4,1,.5,1,.4,1,.5,1,.4,1,.4,1,.4,1,.4,1,.4,1,.4,1,.4,1,.4,1,.3,1,.3,1,.4,1,.3,1,.3,1,.3,1,.3,1,.3,1,.3,1,.2,1,.3,1,.2,1,.3,1,.2,1,.2,1,.2,1,.2,1,.2,1,.2,1,.1,1,.2,1,.1,1,.1,1,.2,1,.1,1,.1,1,.1h1l1,.1,1,.1h2l1,.1h4l1-.1h2l1-.1,1-.1h1l1-.1,1-.1,1-.1,1-.2,1-.1,1-.1,1-.2,1-.1,1-.2,1-.2,1-.2,1-.2,1-.2,1-.2,1-.3,1-.2,1-.3,1-.2,1-.3,1-.3,1-.3,1-.3,1-.3,1-.3,1-.4,1-.3,1-.3,1-.4,1-.4,1-.4,1-.4,1-.4,1-.4,1-.4,1-.4,1-.5,1-.4,1-.5,1-.4,1-.5,1-.5,1-.5,1-.5,1-.5,1-.5,1-.6,1-.5,1-.6,1-.5,1-.6,1-.6,1-.5,1-.6,1-.6,1-.6,1-.7,1-.6,1-.6,1-.7,1-.6,1-.7,1-.6,1-.7,1-.7,1-.7,1-.7,1-.7,1-.7,1-.7,1-.7,1-.8,1-.7,1-.7,1-.8,1-.8,1-.7,1-.8,1-.8,1-.8,1-.8,1-.8,1-.8,1-.8,1-.8,1-.8,1-.9,1-.8,1-.8,1-.9,1-.8,1-.9,1-.9,1-.8,1-.9,1-.9,1-.9,1-.8,1-.9,1-.9,1-.9,1-.9,1-1,1-.9,1-.9,1-.9,1-.9,1-1,1-.9,1-1,1-.9,1-.9,1-1,1-.9,1-1,1-1,1-.9,1-1,1-1,1-.9,1-1,1-1,1-.9,1-1,1-1,1-1,1-1,1-1,1-1,1-.9,1-1,1-1,1-1,1-1,1-1,1-1,1-1,1-1,1-1,1-1,1-1,1-1,1-1,1-1,1-1,1-1,1-1,1-1,1-1,1-1"/></g></g></g><rect class="cls-1" x="50" y="50" width="600" height="300"/><g id="text-24" class="cls-4"><path class="cls-5" d="M327.292,20.759q-2.023,0-2.024,1.431a1.013,1.013,0,0,0,.044.374,1.319,1.319,0,0,0,.682.759,6.635,6.635,0,0,0,1.5.428,5.994,5.994,0,0,1,1.717.485,3.186,3.186,0,0,1,1.781,2.178,3.9,3.9,0,0,1,.022.528,3.534,3.534,0,0,1-.308,1.517,3.314,3.314,0,0,1-3.234,1.628,3.5,3.5,0,0,1-2.288-.792L325,29.45l-.2.2c-.088.088-.176.169-.264.242l-.242.22h-.175a.4.4,0,0,1-.287-.132V28.24q0-1.43.011-1.651c.007-.146.041-.234.1-.263a1.365,1.365,0,0,1,.352-.023.733.733,0,0,1,.341.045.706.706,0,0,1,.121.308,5.069,5.069,0,0,0,.572,1.517,2.449,2.449,0,0,0,2.134,1.122q2.135,0,2.135-1.715a1.407,1.407,0,0,0-.4-1.035,1.912,1.912,0,0,0-.925-.593q-.373-.088-1.056-.243a7.617,7.617,0,0,1-1.672-.461A2.747,2.747,0,0,1,323.86,23.2a1.662,1.662,0,0,1-.022-.33q0-2.531,3.1-2.838a1.392,1.392,0,0,1,.528,0,3.4,3.4,0,0,1,1.54.33l.33.176.2-.155a5.723,5.723,0,0,1,.485-.374h.175a.4.4,0,0,1,.286.133v2.9l-.132.132h-.616a.379.379,0,0,1-.131-.263,2.055,2.055,0,0,0-.617-1.584A2.393,2.393,0,0,0,327.292,20.759Z"/><path class="cls-5" d="M337.214,29.868a18.657,18.657,0,0,0-2.288-.067,23.076,23.076,0,0,0-2.4.067h-.176V28.856h.352a7.872,7.872,0,0,0,1.078-.066.472.472,0,0,0,.264-.243q.022-.043.022-3.189a30.39,30.39,0,0,0-.088-3.521q-.176-.439-1.3-.439h-.242v-.506c0-.338.015-.507.044-.507l.22-.021q.22-.023.616-.044l.792-.044c.249-.015.513-.033.792-.056s.492-.04.638-.054.228-.022.242-.022h.066V28.5a.506.506,0,0,0,.264.276,3.489,3.489,0,0,0,.77.077h.506v1.012ZM334.662,15.15a1.406,1.406,0,0,1,.9.385,1.239,1.239,0,0,1,.353.934,1.176,1.176,0,0,1-.595,1.122,1.2,1.2,0,0,1-.7.2,1.241,1.241,0,0,1-.726-.2,1.176,1.176,0,0,1-.594-1.122,1.248,1.248,0,0,1,.385-.968A1.4,1.4,0,0,1,334.662,15.15Z"/><path class="cls-5" d="M342.033,28.547q.175.309,1.033.309h.661v1.012h-.177a45.323,45.323,0,0,0-4.927,0h-.177V28.856h.66c.573,0,.917-.1,1.035-.309v-.681c0-.2,0-.437.01-.694s.012-.542.012-.857V25.4q0-.683-.012-1.463t-.01-1.287v-.506a.731.731,0,0,0-.32-.562,2.58,2.58,0,0,0-.979-.186h-.4v-.506q0-.507.045-.507l.219-.021q.221-.023.627-.044l.8-.044c.249-.015.513-.033.792-.056s.491-.04.637-.054.228-.022.242-.022h.066v.88a6.107,6.107,0,0,0,.022.836l.022-.023a3.87,3.87,0,0,1,3.367-1.693,2.568,2.568,0,0,1,2.794,2.485q.021.156.021,3.059,0,2.816.022,2.859a.471.471,0,0,0,.265.243,7.856,7.856,0,0,0,1.077.066h.352v1.012h-.175a45.36,45.36,0,0,0-4.929,0h-.175V28.856h.527q1.167,0,1.166-.353.023-.044.022-3.036-.021-2.968-.044-3.145a1.931,1.931,0,0,0-.5-1.024,1.487,1.487,0,0,0-1.045-.318,2.381,2.381,0,0,0-1.737.748,3.148,3.148,0,0,0-.9,1.936v.407q0,.385-.012.978t-.011,1.122v.694q0,.363.011.649c.008.191.012.362.012.517v.516Z"/><path class="cls-5" d="M357.455,35.169c0,.132-.133.2-.4.2h-.287l-.616-.529q-3.959-3.608-3.96-10.471a17.727,17.727,0,0,1,.638-4.907,11.868,11.868,0,0,1,3.322-5.565c.1-.088.221-.188.352-.3s.221-.187.264-.231h.287a.526.526,0,0,1,.33.066.19.19,0,0,1,.066.132c0,.059-.082.169-.242.33Q353.8,17.5,353.8,24.368t3.41,10.471C357.373,35,357.455,35.111,357.455,35.169Z"/><path class="cls-5" d="M359.962,23.751a.363.363,0,0,1-.132-.242,4.2,4.2,0,0,1,.682-1.517,3.77,3.77,0,0,1,2.6-1.8,3.665,3.665,0,0,1,.463-.044,2.67,2.67,0,0,1,1.419.4,2.354,2.354,0,0,1,.935.99c.19-.249.308-.4.351-.462a2.438,2.438,0,0,1,1.871-.924,2.074,2.074,0,0,1,1.463.517,1.656,1.656,0,0,1,.561,1.264,1.734,1.734,0,0,1-.385,1.145,1.267,1.267,0,0,1-1.023.462.966.966,0,0,1-.682-.242.825.825,0,0,1-.264-.638,1.4,1.4,0,0,1,1.1-1.386.859.859,0,0,0-.242-.154,1.257,1.257,0,0,0-.638-.132,1.452,1.452,0,0,0-.418.044,2.3,2.3,0,0,0-1.231,1.452q-.068.175-.639,2.452t-.616,2.564a3.35,3.35,0,0,0-.066.66,1.128,1.128,0,0,0,.308.836,1.1,1.1,0,0,0,.814.307,2.264,2.264,0,0,0,1.671-.78,4.068,4.068,0,0,0,1.013-1.727c.044-.147.088-.231.132-.253a1.026,1.026,0,0,1,.351-.034c.28,0,.418.059.418.176,0,.016-.013.1-.043.242a4.775,4.775,0,0,1-1.541,2.376,3.467,3.467,0,0,1-2.177.815,2.534,2.534,0,0,1-2.332-1.386,3.082,3.082,0,0,1-1.627,1.319,2.783,2.783,0,0,1-.573.044,1.915,1.915,0,0,1-1.8-.9,1.7,1.7,0,0,1-.22-.88,1.665,1.665,0,0,1,.4-1.122,1.271,1.271,0,0,1,1.012-.463.828.828,0,0,1,.947.925,1.243,1.243,0,0,1-.771,1.187l-.11.056-.11.055a.171.171,0,0,1-.066.021l-.066.023q0,.066.33.2a1.476,1.476,0,0,0,.572.109,1.625,1.625,0,0,0,1.364-.989,16.706,16.706,0,0,0,.858-2.86q.132-.506.286-1.122c.1-.41.179-.726.231-.947s.084-.351.1-.395a5.312,5.312,0,0,0,.11-.858,1.184,1.184,0,0,0-.286-.836,1.03,1.03,0,0,0-.792-.308,2.3,2.3,0,0,0-1.716.759,4.167,4.167,0,0,0-1.012,1.749c-.029.132-.062.209-.1.23a1.037,1.037,0,0,1-.363.033Z"/><path class="cls-5" d="M372.59,13.39l.088-.022h.484c.1.088.309.263.615.528q3.962,3.607,3.961,10.472a17.367,17.367,0,0,1-.638,4.883,11.846,11.846,0,0,1-3.323,5.588c-.1.088-.218.188-.351.3s-.22.188-.264.232H372.9a.833.833,0,0,1-.341-.044c-.051-.03-.077-.1-.077-.22.014-.015.095-.11.243-.286q3.408-3.541,3.409-10.45t-3.409-10.451c-.148-.175-.229-.271-.243-.286A.258.258,0,0,1,372.59,13.39Z"/></g><g id="text-25"><path class="cls-5" d="M47.106,368.4a3.885,3.885,0,0,1,3.367-1.784,4.057,4.057,0,0,1,2.816,1.1,4.775,4.775,0,0,1,1.012,1.5,12.594,12.594,0,0,1,.814,5.016,11.473,11.473,0,0,1-.947,5.213,3.815,3.815,0,0,1-1.8,1.849,4.156,4.156,0,0,1-1.87.461,3.875,3.875,0,0,1-3.7-2.31,11.475,11.475,0,0,1-.946-5.213,17.157,17.157,0,0,1,.274-3.377A7.4,7.4,0,0,1,47.106,368.4Zm4.951-.264a2.024,2.024,0,0,0-1.562-.7,2.089,2.089,0,0,0-1.584.7,2.649,2.649,0,0,0-.661,1.23,13.639,13.639,0,0,0-.219,2.51c0,.088,0,.373-.011.858s-.011.886-.011,1.209q0,2.112.044,2.949a12.591,12.591,0,0,0,.263,2.211,2.5,2.5,0,0,0,.661,1.154,1.953,1.953,0,0,0,1.518.66,1.931,1.931,0,0,0,1.5-.66,2.5,2.5,0,0,0,.659-1.154,12.544,12.544,0,0,0,.265-2.211q.044-.839.043-2.949c0-.323,0-.725-.01-1.209s-.011-.77-.011-.858a13.706,13.706,0,0,0-.22-2.51A2.657,2.657,0,0,0,52.057,368.131Z"/></g><g id="text-26"><path class="cls-5" d="M149.64,381.264q-.375-.065-3.5-.067-3.081,0-3.454.067h-.264v-1.012H143a12.406,12.406,0,0,0,1.65-.066,1.406,1.406,0,0,0,.528-.264V368.549a.529.529,0,0,0-.176.064,6.41,6.41,0,0,1-2.266.418h-.418V368.02h.418a6.133,6.133,0,0,0,3.08-.836,3.062,3.062,0,0,0,.682-.506c.029-.043.117-.067.264-.067a.558.558,0,0,1,.374.133v6.578l.022,6.6a2.123,2.123,0,0,0,1.43.33h1.3v1.012Z"/></g><g id="text-27"><path class="cls-5" d="M238.4,371.826a1.23,1.23,0,0,1-.967-.4,1.4,1.4,0,0,1-.352-.967,3.6,3.6,0,0,1,1.2-2.717,4.035,4.035,0,0,1,2.871-1.135,4.773,4.773,0,0,1,3.136,1.024,4.292,4.292,0,0,1,1.528,2.674,6.42,6.42,0,0,1,.044.724,4.157,4.157,0,0,1-.77,2.4,14.524,14.524,0,0,1-2.485,2.531q-.792.679-2.2,2.023l-1.3,1.233,1.672.021a26.8,26.8,0,0,0,3.675-.109c.058-.016.132-.17.219-.463a13.682,13.682,0,0,0,.309-1.5v-.067h.879v.067l-.615,4.025v.067h-8.162v-.418a1.468,1.468,0,0,1,.044-.506q.021-.021,1.848-2.09,2.4-2.66,3.079-3.52a6.371,6.371,0,0,0,1.474-3.673,3.853,3.853,0,0,0-.758-2.432,2.537,2.537,0,0,0-2.123-.979,2.409,2.409,0,0,0-2.068,1.145c-.03.059-.074.139-.133.24a.5.5,0,0,0-.066.133c0,.016.037.022.11.022a1.119,1.119,0,0,1,.891.4,1.375,1.375,0,0,1,.342.924,1.306,1.306,0,0,1-.364.935A1.256,1.256,0,0,1,238.4,371.826Z"/></g><g id="text-28"><path class="cls-5" d="M334.268,371.078a1.205,1.205,0,0,1-.935-.373,1.38,1.38,0,0,1-.341-.969,2.657,2.657,0,0,1,.989-2.1,4.2,4.2,0,0,1,2.289-1h.33c.513,0,.836.008.968.021a5.387,5.387,0,0,1,1.474.461,3.281,3.281,0,0,1,1.826,2.069,2.136,2.136,0,0,1,.066.593,3.663,3.663,0,0,1-.8,2.323,4.454,4.454,0,0,1-2.013,1.462c-.074.03-.074.051,0,.067a1.546,1.546,0,0,0,.219.064,4.7,4.7,0,0,1,2.267,1.4,3.365,3.365,0,0,1,.924,2.32,3.842,3.842,0,0,1-.418,1.738,4.369,4.369,0,0,1-1.727,1.86,5.018,5.018,0,0,1-2.674.736,5.267,5.267,0,0,1-2.573-.615,3.17,3.17,0,0,1-1.518-1.651,2.479,2.479,0,0,1-.221-1.078,1.319,1.319,0,0,1,.408-1,1.464,1.464,0,0,1,1.99.012,1.339,1.339,0,0,1,.4.99,1.4,1.4,0,0,1-.285.879,1.3,1.3,0,0,1-.77.485l-.155.044a4.136,4.136,0,0,0,2.728.991,1.965,1.965,0,0,0,1.827-1.166,5.065,5.065,0,0,0,.374-2.223v-.439a2.818,2.818,0,0,0-1.409-2.8,4.636,4.636,0,0,0-1.341-.155l-.924-.021-.067-.043a.834.834,0,0,1-.044-.354.526.526,0,0,1,.066-.33.182.182,0,0,1,.111-.064,7.7,7.7,0,0,0,1.276-.111,1.91,1.91,0,0,0,1.474-1.088,4.868,4.868,0,0,0,.506-2.3,2.092,2.092,0,0,0-.77-1.914,1.83,1.83,0,0,0-1.035-.309,3.247,3.247,0,0,0-1.935.594.942.942,0,0,0-.2.143,1.285,1.285,0,0,0-.176.187l-.067.088c.045.016.1.029.155.045a1.045,1.045,0,0,1,.737.418,1.336,1.336,0,0,1,.3.857,1.21,1.21,0,0,1-.362.891A1.268,1.268,0,0,1,334.268,371.078Z"/></g><g id="text-29"><path class="cls-5" d="M437.131,381.264c-.206-.043-1.152-.067-2.838-.067q-2.642,0-2.948.067h-.2v-1.012h.682a4.676,4.676,0,0,0,1.166-.109.4.4,0,0,0,.265-.221c.014-.029.021-.426.021-1.188v-1.1h-5.7v-1.012l3.321-5.082q3.366-5.1,3.41-5.127a1.181,1.181,0,0,1,.462-.043h.4l.132.131v10.121h2.023v1.012h-2.023v1.121q0,.9.01,1.056a.4.4,0,0,0,.122.264,2.762,2.762,0,0,0,1.253.176h.638v1.012Zm-3.719-4.641v-7.35L428.6,376.6l2.4.023Z"/></g><g id="text-30"><path class="cls-5" d="M524.813,376.557a1.212,1.212,0,0,1,.892.363,1.238,1.238,0,0,1,.362.912,1.127,1.127,0,0,1-.374.857,1.183,1.183,0,0,1-.836.354H524.7l.067.109a2.85,2.85,0,0,0,1.011,1.166,2.788,2.788,0,0,0,1.607.461,2.335,2.335,0,0,0,2.243-1.318,6.706,6.706,0,0,0,.418-2.816,5.466,5.466,0,0,0-.594-3.059,1.733,1.733,0,0,0-1.408-.727,2.836,2.836,0,0,0-2.6,1.5.419.419,0,0,1-.164.188,1.016,1.016,0,0,1-.32.033c-.249,0-.389-.045-.418-.133q-.043-.087-.043-3.849,0-.66-.012-1.563c-.008-.6-.011-.982-.011-1.142,0-.823.044-1.233.132-1.233a.132.132,0,0,1,.088-.045l.4.133a7.811,7.811,0,0,0,2.925.572,7.472,7.472,0,0,0,2.993-.617.723.723,0,0,1,.286-.088c.117,0,.175.133.175.4v.287a5.626,5.626,0,0,1-4.51,2.133,5.3,5.3,0,0,1-1.232-.131l-.219-.045v3.785a3.753,3.753,0,0,1,3.476-.9,4.151,4.151,0,0,1,2.408,1.672,5.058,5.058,0,0,1,.936,3.035,4.815,4.815,0,0,1-1.4,3.455,4.591,4.591,0,0,1-3.442,1.451,3.662,3.662,0,0,1-2.354-.769,2.43,2.43,0,0,1-.726-.727,3.889,3.889,0,0,1-.836-1.957c0-.045,0-.113-.012-.209s-.01-.166-.01-.209a1.308,1.308,0,0,1,.352-.969A1.221,1.221,0,0,1,524.813,376.557Z"/></g><g id="text-31"><path class="cls-5" d="M626.158,368.043a2.073,2.073,0,0,0-1.364-.551,3.148,3.148,0,0,0-2.573,1.32,7.636,7.636,0,0,0-1.034,4.444l.021.088.177-.285a2.81,2.81,0,0,1,2.441-1.321,3.671,3.671,0,0,1,1.782.418,4.533,4.533,0,0,1,1.056.891,5.469,5.469,0,0,1,.858,1.244,5.91,5.91,0,0,1,.462,2.354v.4a3.906,3.906,0,0,1-.11.945,4.952,4.952,0,0,1-1.363,2.442,4.044,4.044,0,0,1-2.113,1.232,3.678,3.678,0,0,1-.879.088,3.742,3.742,0,0,1-.748-.066,3.889,3.889,0,0,1-2.6-1.76,10.257,10.257,0,0,1-1.3-5.543,9.7,9.7,0,0,1,.836-4.158,6.589,6.589,0,0,1,2.332-2.774,4.393,4.393,0,0,1,2.574-.836,3.018,3.018,0,0,1,2.058.684,2.352,2.352,0,0,1,.78,1.869,1.218,1.218,0,0,1-.318.881,1.129,1.129,0,0,1-.848.33,1.17,1.17,0,0,1-.847-.309,1.135,1.135,0,0,1-.319-.857A1.088,1.088,0,0,1,626.158,368.043Zm-.968,5.279a1.922,1.922,0,0,0-1.584-.793,1.785,1.785,0,0,0-1.32.508,4.764,4.764,0,0,0-1.078,3.475,9.317,9.317,0,0,0,.265,2.707,2.523,2.523,0,0,0,.748,1.121,1.839,1.839,0,0,0,1.254.463,1.977,1.977,0,0,0,1.715-.836,2.433,2.433,0,0,0,.418-1.1,14.446,14.446,0,0,0,.088-1.847v-.7a14.962,14.962,0,0,0-.088-1.892A2.425,2.425,0,0,0,625.19,373.322Z"/></g><g id="text-32"><path class="cls-5" d="M16.08,296.355V294.75h5.852v1.605Z"/><path class="cls-5" d="M32.315,300.294q-.375-.066-3.5-.066-3.08,0-3.454.066H25.1v-1.012h.572a12.406,12.406,0,0,0,1.65-.066,1.438,1.438,0,0,0,.528-.264V287.578a.526.526,0,0,0-.176.066,6.473,6.473,0,0,1-2.266.418h-.418V287.05h.418a6.13,6.13,0,0,0,3.08-.836,3.069,3.069,0,0,0,.682-.506q.043-.066.264-.066a.555.555,0,0,1,.374.132v6.578l.022,6.6a2.129,2.129,0,0,0,1.43.33h1.3v1.012Z"/></g><g id="text-33"><path class="cls-5" d="M20.946,191.931a3.885,3.885,0,0,1,3.366-1.782,4.053,4.053,0,0,1,2.816,1.1,4.765,4.765,0,0,1,1.013,1.5,12.589,12.589,0,0,1,.814,5.015,11.475,11.475,0,0,1-.947,5.214,3.815,3.815,0,0,1-1.8,1.849,4.16,4.16,0,0,1-1.871.461,3.873,3.873,0,0,1-3.695-2.31,11.475,11.475,0,0,1-.947-5.214,17.176,17.176,0,0,1,.275-3.377A7.412,7.412,0,0,1,20.946,191.931Zm4.95-.264a2.027,2.027,0,0,0-1.562-.7,2.1,2.1,0,0,0-1.584.7,2.663,2.663,0,0,0-.66,1.232,13.616,13.616,0,0,0-.219,2.509q0,.132-.012.857t-.01,1.21q0,2.112.044,2.948a12.578,12.578,0,0,0,.263,2.212,2.508,2.508,0,0,0,.66,1.154,1.951,1.951,0,0,0,1.518.66,1.928,1.928,0,0,0,1.5-.66,2.5,2.5,0,0,0,.659-1.154,12.458,12.458,0,0,0,.264-2.212q.045-.835.044-2.948,0-.483-.01-1.21t-.012-.857a13.616,13.616,0,0,0-.219-2.509A2.656,2.656,0,0,0,25.9,191.667Z"/></g><g id="text-34"><path class="cls-5" d="M27.986,109.308q-.374-.066-3.5-.066-3.08,0-3.453.066h-.264V108.3h.571a12.415,12.415,0,0,0,1.651-.066,1.438,1.438,0,0,0,.528-.264V96.592a.536.536,0,0,0-.177.066,6.467,6.467,0,0,1-2.265.418h-.418V96.064h.418a6.133,6.133,0,0,0,3.08-.836,3.025,3.025,0,0,0,.681-.506q.045-.066.264-.066a.555.555,0,0,1,.375.133v6.577l.021,6.6a2.134,2.134,0,0,0,1.431.33h1.3v1.012Z"/></g></g><circle id="circle-11" class="cls-5" cx="50" cy="200" r="3"/><circle id="circle-11-2" data-name="circle-11" class="cls-5" cx="350" cy="200" r="3"/><circle id="circle-11-3" data-name="circle-11" class="cls-5" cx="650" cy="200" r="3"/><path class="cls-5" d="M655.857,183.956q-.461,0-.461-.22v-.022a.064.064,0,0,0,.022-.044,6.7,6.7,0,0,1,.759-1.133,7.676,7.676,0,0,1,1-1.089,3.091,3.091,0,0,1,1.429-.682q.132-.043,3.7-.044,3.519,0,3.63.044a.547.547,0,0,1,.44.594.966.966,0,0,1-.209.572.852.852,0,0,1-.5.352q-.132.043-2.112.044a16.828,16.828,0,0,0-1.98.044q-.024.022-.363,1.8t-.694,3.63q-.351,1.848-.395,1.958a1,1,0,0,1-.407.528,1.112,1.112,0,0,1-.627.2.641.641,0,0,1-.726-.726v-.22l1.1-3.564q.241-.792.539-1.76t.451-1.408l.132-.462a8.661,8.661,0,0,0-1.012-.022q-1.079,0-1.188.022a3.006,3.006,0,0,0-2.046,1.364.6.6,0,0,1-.176.209A.871.871,0,0,1,655.857,183.956Z"/><path class="cls-5" d="M364.481,189.39a1,1,0,0,1-.318.7,1.046,1.046,0,0,1-.781.33.813.813,0,0,1-.451-.088.984.984,0,0,1-.253-.352,6.179,6.179,0,0,1-.418-2.442q0-.792.022-1.056a27.328,27.328,0,0,1,.682-3.674c.073-.293.11-.455.11-.484h-2.156l-.022.088a1.618,1.618,0,0,1-.044.187c-.03.11-.07.272-.122.484s-.1.407-.142.583a61.959,61.959,0,0,1-1.738,6.16.95.95,0,0,1-.947.616.726.726,0,0,1-.7-.374,1,1,0,0,1-.045-.352v-.242l.286-.616a42.538,42.538,0,0,0,2.4-6.006l.176-.528h-.7a7.5,7.5,0,0,0-1.221.066,2.227,2.227,0,0,0-.825.418,3.164,3.164,0,0,0-.924.9.6.6,0,0,1-.176.209.965.965,0,0,1-.33.033q-.418,0-.418-.22a1.374,1.374,0,0,1,.22-.44q1.517-2.31,2.969-2.53.154-.043,4.951-.044,3.519,0,3.608.022a.6.6,0,0,1,.439.616.918.918,0,0,1-.7.924,11.983,11.983,0,0,1-1.517.044h-1.408l-.066.374a16.4,16.4,0,0,0-.264,2.618,8.865,8.865,0,0,0,.682,3.542A1.881,1.881,0,0,1,364.481,189.39Z"/></svg>