<?xml version="1.0" encoding="utf-8"?>
<!-- Generator: Adobe Illustrator 24.0.0, SVG Export Plug-In . SVG Version: 6.00 Build 0)  -->
<svg version="1.1" id="interactive-0" xmlns="http://www.w3.org/2000/svg" xmlns:xlink="http://www.w3.org/1999/xlink" x="0px"
	 y="0px" viewBox="0 0 550 300" style="enable-background:new 0 0 550 300;" xml:space="preserve">
<style type="text/css">
	.st0{fill:none;stroke:#404040;}
	.st1{fill:#333333;}
	.st2{font-family:'HelveticaNeue';}
	.st3{font-size:12px;}
	.st4{fill:none;stroke:#6495ED;stroke-width:3;}
	.st5{fill:#0366EE;}
	.st6{font-family:'HelveticaNeue-BoldItalic';}
	.st7{font-size:24px;}
	.st8{fill:none;stroke:#A771EB;stroke-width:3;}
	.st9{fill:#9D5EEB;}
</style>
<g id="group-1">
	<line id="line-4" class="st0" x1="0" y1="150" x2="550" y2="150"/>
	<text id="text-5" transform="matrix(1 0 0 1 530 143)" class="st1 st2 st3">x</text>
	<line id="line-6" class="st0" x1="25" y1="150" x2="25" y2="153"/>
	<text id="text-7" transform="matrix(1 0 0 1 18 170)" class="st1 st2 st3">-1</text>
	<line id="line-8" class="st0" x1="75" y1="150" x2="75" y2="153"/>
	<text id="text-9" transform="matrix(1 0 0 1 71.5 170)" class="st1 st2 st3">0</text>
	<line id="line-10" class="st0" x1="125" y1="150" x2="125" y2="153"/>
	<text id="text-11" transform="matrix(1 0 0 1 121.5 170)" class="st1 st2 st3">1</text>
	<line id="line-12" class="st0" x1="175" y1="150" x2="175" y2="153"/>
	<text id="text-13" transform="matrix(1 0 0 1 171.5 170)" class="st1 st2 st3">2</text>
	<line id="line-14" class="st0" x1="225" y1="150" x2="225" y2="153"/>
	<text id="text-15" transform="matrix(1 0 0 1 221.5 170)" class="st1 st2 st3">3</text>
	<line id="line-16" class="st0" x1="275" y1="150" x2="275" y2="153"/>
	<text id="text-17" transform="matrix(1 0 0 1 271.5 170)" class="st1 st2 st3">4</text>
	<line id="line-18" class="st0" x1="325" y1="150" x2="325" y2="153"/>
	<text id="text-19" transform="matrix(1 0 0 1 321.5 170)" class="st1 st2 st3">5</text>
	<line id="line-20" class="st0" x1="375" y1="150" x2="375" y2="153"/>
	<text id="text-21" transform="matrix(1 0 0 1 371.5 170)" class="st1 st2 st3">6</text>
	<line id="line-22" class="st0" x1="425" y1="150" x2="425" y2="153"/>
	<text id="text-23" transform="matrix(1 0 0 1 421.5 170)" class="st1 st2 st3">7</text>
	<line id="line-24" class="st0" x1="475" y1="150" x2="475" y2="153"/>
	<text id="text-25" transform="matrix(1 0 0 1 471.5 170)" class="st1 st2 st3">8</text>
	<line id="line-26" class="st0" x1="525" y1="150" x2="525" y2="153"/>
	<text id="text-27" transform="matrix(1 0 0 1 521.5 170)" class="st1 st2 st3">9</text>
	<line id="line-28" class="st0" x1="75" y1="-175" x2="75" y2="150"/>
	<text id="text-29" transform="matrix(1 0 0 1 82 -155)" class="st1 st2 st3">y</text>
	<line id="line-30" class="st0" x1="72" y1="100" x2="75" y2="100"/>
	<text id="text-31" transform="matrix(1 0 0 1 55 103.5)" class="st1 st2 st3">1</text>
	<line id="line-32" class="st0" x1="72" y1="50" x2="75" y2="50"/>
	<text id="text-33" transform="matrix(1 0 0 1 55 53.5)" class="st1 st2 st3">2</text>
	<line id="line-34" class="st0" x1="72" y1="0" x2="75" y2="0"/>
	<text id="text-35" transform="matrix(1 0 0 1 55 3.5)" class="st1 st2 st3">3</text>
	<line id="line-36" class="st0" x1="72" y1="-50" x2="75" y2="-50"/>
	<text id="text-37" transform="matrix(1 0 0 1 55 -46.5)" class="st1 st2 st3">4</text>
	<line id="line-38" class="st0" x1="72" y1="-100" x2="75" y2="-100"/>
	<text id="text-39" transform="matrix(1 0 0 1 55 -96.5)" class="st1 st2 st3">5</text>
	<line id="line-40" class="st0" x1="72" y1="-150" x2="75" y2="-150"/>
	<text id="text-41" transform="matrix(1 0 0 1 55 -146.5)" class="st1 st2 st3">6</text>
	<circle id="circle-45" class="st0" cx="149.5" cy="150" r="124.5"/>
	<line id="line-46" class="st4" x1="75" y1="150" x2="274" y2="150"/>
	<text id="text-47" transform="matrix(1 0 0 1 174.5 200)" class="st5 st6 st7">x</text>
	<line id="line-48" class="st8" x1="75" y1="150" x2="75" y2="50.3"/>
	<text id="text-49" transform="matrix(1 0 0 1 15 100.1252)" class="st9 st6 st7">√ x</text>
</g>
<g id="group-2">
	<g id="control-42" transform="translate( 199, 0)">
		<circle id="circle-43" class="st1" cx="75" cy="150" r="4"/>
	</g>
</g>
</svg>
