<?xml version="1.0" encoding="utf-8"?>
<!-- Generator: Adobe Illustrator 23.0.4, SVG Export Plug-In . SVG Version: 6.00 Build 0)  -->
<svg version="1.1" id="interactive-0" xmlns="http://www.w3.org/2000/svg" xmlns:xlink="http://www.w3.org/1999/xlink" x="0px"
	 y="0px" viewBox="0 0 600 300" style="enable-background:new 0 0 600 300;" xml:space="preserve">
<style type="text/css">
	.st0{fill:none;stroke:#404040;}
	.st1{fill:#333333;}
	.st2{font-family:'HelveticaNeue';}
	.st3{font-size:12px;}
	.st4{fill:#800080;}
	.st5{fill:#AB6F00;}
	.st6{fill:#0366EE;}
	.st7{fill-opacity:0;}
	.st8{fill:#F2F2F2;stroke:#404040;}
</style>
<g>
	<path id="path-1" class="st0" d="M150,150L450,50"/>
	<text transform="matrix(1 0 0 1 25 275)" class="st1 st2 st3">&lt;</text>
	<text transform="matrix(1 0 0 1 32.1999 275)" class="st4 st2 st3">path</text>
	<text transform="matrix(1 0 0 1 56.2114 275)" class="st1 st2 st3"> </text>
	<text transform="matrix(1 0 0 1 59.5474 275)" class="st5 st2 st3">d</text>
	<text transform="matrix(1 0 0 1 66.6633 275)" class="st1 st2 st3">=&quot;M 150 150 L 450 50&quot;&gt;</text>
</g>
<g>
	<g id="control-2" transform="translate( 150, 150)">
		<circle class="st6" cx="0" cy="0" r="4"/>
		<circle class="st7" cx="0" cy="0" r="13"/>
	</g>
	<g id="control-3" transform="translate( 450, 50)">
		<circle class="st6" cx="0" cy="0" r="4"/>
		<circle class="st7" cx="0" cy="0" r="13"/>
	</g>
	<g id="checkbox-4" transform="translate(360,270)">
		<path id="rectangle-5" class="st8" d="M-4.5-6.5h9c1.1,0,2,0.9,2,2v9c0,1.1-0.9,2-2,2h-9c-1.1,0-2-0.9-2-2v-9
			C-6.5-5.6-5.6-6.5-4.5-6.5z"/>
		<text id="text-6" transform="matrix(1 0 0 1 18 1)" class="st1 st2 st3">absolute / relative</text>
	</g>
</g>
</svg>
