<?xml version="1.0" encoding="utf-8"?>
<!-- Generator: Adobe Illustrator 23.0.4, SVG Export Plug-In . SVG Version: 6.00 Build 0)  -->
<svg version="1.1" id="interactive-0" xmlns="http://www.w3.org/2000/svg" xmlns:xlink="http://www.w3.org/1999/xlink" x="0px"
	 y="0px" viewBox="0 0 600 300" style="enable-background:new 0 0 600 300;" xml:space="preserve">
<style type="text/css">
	.st0{fill:none;stroke:#6495ED;}
	.st1{fill:none;stroke:#404040;}
	.st2{fill:#333333;}
	.st3{font-family:'HelveticaNeue';}
	.st4{font-size:12px;}
	.st5{fill:#800080;}
	.st6{fill:#AB6F00;}
	.st7{fill:#0366EE;}
	.st8{fill-opacity:0;}
</style>
<g>
	<line id="line-1" class="st0" x1="150" y1="100" x2="300" y2="200"/>
	<line id="line-2" class="st0" x1="300" y1="200" x2="450" y2="100"/>
	<path id="path-3" class="st1" d="M150,100c100,66.7,200,66.7,300,0"/>
	<text transform="matrix(1 0 0 1 25 275)" class="st2 st3 st4">&lt;</text>
	<text transform="matrix(1 0 0 1 32.1999 275)" class="st5 st3 st4">path</text>
	<text transform="matrix(1 0 0 1 56.2114 275)" class="st2 st3 st4"> </text>
	<text transform="matrix(1 0 0 1 59.5474 275)" class="st6 st3 st4">d</text>
	<text transform="matrix(1 0 0 1 66.6633 275)" class="st2 st3 st4">=&quot;M 150 100 Q 300 200 450 100&quot;&gt;</text>
</g>
<g>
	<g id="control-4" transform="translate( 150, 100)">
		<circle class="st7" cx="0" cy="0" r="4"/>
		<circle class="st8" cx="0" cy="0" r="13"/>
	</g>
	<g id="control-5" transform="translate( 300, 200)">
		<circle class="st7" cx="0" cy="0" r="4"/>
		<circle class="st8" cx="0" cy="0" r="13"/>
	</g>
	<g id="control-6" transform="translate( 450, 100)">
		<circle class="st7" cx="0" cy="0" r="4"/>
		<circle class="st8" cx="0" cy="0" r="13"/>
	</g>
</g>
</svg>
