<?xml version="1.0" encoding="utf-8"?>
<!-- Generator: Adobe Illustrator 23.0.4, SVG Export Plug-In . SVG Version: 6.00 Build 0)  -->
<svg version="1.1" id="interactive-0" xmlns="http://www.w3.org/2000/svg" xmlns:xlink="http://www.w3.org/1999/xlink" x="0px"
	 y="0px" viewBox="0 0 704 300" style="enable-background:new 0 0 704 300;" xml:space="preserve">
<style type="text/css">
	.st0{opacity:0.7;fill:#171CFF;stroke:#404040;enable-background:new    ;}
	.st1{opacity:0.7;fill:#1738FF;stroke:#404040;enable-background:new    ;}
	.st2{opacity:0.7;fill:#1755FF;stroke:#404040;enable-background:new    ;}
	.st3{opacity:0.7;fill:#1771FF;stroke:#404040;enable-background:new    ;}
	.st4{opacity:0.7;fill:#178DFF;stroke:#404040;enable-background:new    ;}
	.st5{opacity:0.7;fill:#17AAFF;stroke:#404040;enable-background:new    ;}
	.st6{opacity:0.7;fill:#17C6FF;stroke:#404040;enable-background:new    ;}
	.st7{opacity:0.7;fill:#17E2FF;stroke:#404040;enable-background:new    ;}
	.st8{opacity:0.7;fill:#2F1CFF;stroke:#404040;enable-background:new    ;}
	.st9{opacity:0.7;fill:#2F38FF;stroke:#404040;enable-background:new    ;}
	.st10{opacity:0.7;fill:#2F55FF;stroke:#404040;enable-background:new    ;}
	.st11{opacity:0.7;fill:#2F71FF;stroke:#404040;enable-background:new    ;}
	.st12{opacity:0.7;fill:#2F8DFF;stroke:#404040;enable-background:new    ;}
	.st13{opacity:0.7;fill:#2FAAFF;stroke:#404040;enable-background:new    ;}
	.st14{opacity:0.7;fill:#2FC6FF;stroke:#404040;enable-background:new    ;}
	.st15{opacity:0.7;fill:#2FE2FF;stroke:#404040;enable-background:new    ;}
	.st16{opacity:0.7;fill:#471CFF;stroke:#404040;enable-background:new    ;}
	.st17{opacity:0.7;fill:#4738FF;stroke:#404040;enable-background:new    ;}
	.st18{opacity:0.7;fill:#4755FF;stroke:#404040;enable-background:new    ;}
	.st19{opacity:0.7;fill:#4771FF;stroke:#404040;enable-background:new    ;}
	.st20{opacity:0.7;fill:#478DFF;stroke:#404040;enable-background:new    ;}
	.st21{opacity:0.7;fill:#47AAFF;stroke:#404040;enable-background:new    ;}
	.st22{opacity:0.7;fill:#47C6FF;stroke:#404040;enable-background:new    ;}
	.st23{opacity:0.7;fill:#47E2FF;stroke:#404040;enable-background:new    ;}
	.st24{opacity:0.7;fill:#5F1CFF;stroke:#404040;enable-background:new    ;}
	.st25{opacity:0.7;fill:#5F38FF;stroke:#404040;enable-background:new    ;}
	.st26{opacity:0.7;fill:#5F55FF;stroke:#404040;enable-background:new    ;}
	.st27{opacity:0.7;fill:#5F71FF;stroke:#404040;enable-background:new    ;}
	.st28{opacity:0.7;fill:#5F8DFF;stroke:#404040;enable-background:new    ;}
	.st29{opacity:0.7;fill:#5FAAFF;stroke:#404040;enable-background:new    ;}
	.st30{opacity:0.7;fill:#5FC6FF;stroke:#404040;enable-background:new    ;}
	.st31{opacity:0.7;fill:#5FE2FF;stroke:#404040;enable-background:new    ;}
	.st32{opacity:0.7;fill:#761CFF;stroke:#404040;enable-background:new    ;}
	.st33{opacity:0.7;fill:#7638FF;stroke:#404040;enable-background:new    ;}
	.st34{opacity:0.7;fill:#7655FF;stroke:#404040;enable-background:new    ;}
	.st35{opacity:0.7;fill:#7671FF;stroke:#404040;enable-background:new    ;}
	.st36{opacity:0.7;fill:#768DFF;stroke:#404040;enable-background:new    ;}
	.st37{opacity:0.7;fill:#76AAFF;stroke:#404040;enable-background:new    ;}
	.st38{opacity:0.7;fill:#76C6FF;stroke:#404040;enable-background:new    ;}
	.st39{opacity:0.7;fill:#76E2FF;stroke:#404040;enable-background:new    ;}
	.st40{opacity:0.7;fill:#8E1CFF;stroke:#404040;enable-background:new    ;}
	.st41{opacity:0.7;fill:#8E38FF;stroke:#404040;enable-background:new    ;}
	.st42{opacity:0.7;fill:#8E55FF;stroke:#404040;enable-background:new    ;}
	.st43{opacity:0.7;fill:#8E71FF;stroke:#404040;enable-background:new    ;}
	.st44{opacity:0.7;fill:#8E8DFF;stroke:#404040;enable-background:new    ;}
	.st45{opacity:0.7;fill:#8EAAFF;stroke:#404040;enable-background:new    ;}
	.st46{opacity:0.7;fill:#8EC6FF;stroke:#404040;enable-background:new    ;}
	.st47{opacity:0.7;fill:#8EE2FF;stroke:#404040;enable-background:new    ;}
	.st48{opacity:0.7;fill:#A61CFF;stroke:#404040;enable-background:new    ;}
	.st49{opacity:0.7;fill:#A638FF;stroke:#404040;enable-background:new    ;}
	.st50{opacity:0.7;fill:#A655FF;stroke:#404040;enable-background:new    ;}
	.st51{opacity:0.7;fill:#A671FF;stroke:#404040;enable-background:new    ;}
	.st52{opacity:0.7;fill:#A68DFF;stroke:#404040;enable-background:new    ;}
	.st53{opacity:0.7;fill:#A6AAFF;stroke:#404040;enable-background:new    ;}
	.st54{opacity:0.7;fill:#A6C6FF;stroke:#404040;enable-background:new    ;}
	.st55{opacity:0.7;fill:#A6E2FF;stroke:#404040;enable-background:new    ;}
	.st56{opacity:0.7;fill:#BE1CFF;stroke:#404040;enable-background:new    ;}
	.st57{opacity:0.7;fill:#BE38FF;stroke:#404040;enable-background:new    ;}
	.st58{opacity:0.7;fill:#BE55FF;stroke:#404040;enable-background:new    ;}
	.st59{opacity:0.7;fill:#BE71FF;stroke:#404040;enable-background:new    ;}
	.st60{opacity:0.7;fill:#BE8DFF;stroke:#404040;enable-background:new    ;}
	.st61{opacity:0.7;fill:#BEAAFF;stroke:#404040;enable-background:new    ;}
	.st62{opacity:0.7;fill:#BEC6FF;stroke:#404040;enable-background:new    ;}
	.st63{opacity:0.7;fill:#BEE2FF;stroke:#404040;enable-background:new    ;}
	.st64{opacity:0.7;fill:#D51CFF;stroke:#404040;enable-background:new    ;}
	.st65{opacity:0.7;fill:#D538FF;stroke:#404040;enable-background:new    ;}
	.st66{opacity:0.7;fill:#D555FF;stroke:#404040;enable-background:new    ;}
	.st67{opacity:0.7;fill:#D571FF;stroke:#404040;enable-background:new    ;}
	.st68{opacity:0.7;fill:#D58DFF;stroke:#404040;enable-background:new    ;}
	.st69{opacity:0.7;fill:#D5AAFF;stroke:#404040;enable-background:new    ;}
	.st70{opacity:0.7;fill:#D5C6FF;stroke:#404040;enable-background:new    ;}
	.st71{opacity:0.7;fill:#D5E2FF;stroke:#404040;enable-background:new    ;}
	.st72{opacity:0.7;fill:#ED1CFF;stroke:#404040;enable-background:new    ;}
	.st73{opacity:0.7;fill:#ED38FF;stroke:#404040;enable-background:new    ;}
	.st74{opacity:0.7;fill:#ED55FF;stroke:#404040;enable-background:new    ;}
	.st75{opacity:0.7;fill:#ED71FF;stroke:#404040;enable-background:new    ;}
	.st76{opacity:0.7;fill:#ED8DFF;stroke:#404040;enable-background:new    ;}
	.st77{opacity:0.7;fill:#EDAAFF;stroke:#404040;enable-background:new    ;}
	.st78{opacity:0.7;fill:#EDC6FF;stroke:#404040;enable-background:new    ;}
	.st79{opacity:0.7;fill:#EDE2FF;stroke:#404040;enable-background:new    ;}
	.st80{fill:none;stroke:#404040;stroke-width:1.5;}
	.st81{fill:#0366EE;}
	.st82{fill-opacity:0;}
	.st83{clip-path:url(#SVGID_2_);}
	.st84{fill:none;stroke:#404040;}
</style>
<g>
	<rect id="rectangle-2" x="30" y="30" class="st0" width="10" height="10"/>
	<rect id="rectangle-4" x="30" y="60" class="st1" width="10" height="10"/>
	<rect id="rectangle-6" x="30" y="90" class="st2" width="10" height="10"/>
	<rect id="rectangle-8" x="30" y="120" class="st3" width="10" height="10"/>
	<rect id="rectangle-10" x="30" y="150" class="st4" width="10" height="10"/>
	<rect id="rectangle-12" x="30" y="180" class="st5" width="10" height="10"/>
	<rect id="rectangle-14" x="30" y="210" class="st6" width="10" height="10"/>
	<rect id="rectangle-16" x="30" y="240" class="st7" width="10" height="10"/>
	<rect id="rectangle-18" x="60" y="30" class="st8" width="10" height="10"/>
	<rect id="rectangle-20" x="60" y="60" class="st9" width="10" height="10"/>
	<rect id="rectangle-22" x="60" y="90" class="st10" width="10" height="10"/>
	<rect id="rectangle-24" x="60" y="120" class="st11" width="10" height="10"/>
	<rect id="rectangle-26" x="60" y="150" class="st12" width="10" height="10"/>
	<rect id="rectangle-28" x="60" y="180" class="st13" width="10" height="10"/>
	<rect id="rectangle-30" x="60" y="210" class="st14" width="10" height="10"/>
	<rect id="rectangle-32" x="60" y="240" class="st15" width="10" height="10"/>
	<rect id="rectangle-34" x="90" y="30" class="st16" width="10" height="10"/>
	<rect id="rectangle-36" x="90" y="60" class="st17" width="10" height="10"/>
	<rect id="rectangle-38" x="90" y="90" class="st18" width="10" height="10"/>
	<rect id="rectangle-40" x="90" y="120" class="st19" width="10" height="10"/>
	<rect id="rectangle-42" x="90" y="150" class="st20" width="10" height="10"/>
	<rect id="rectangle-44" x="90" y="180" class="st21" width="10" height="10"/>
	<rect id="rectangle-46" x="90" y="210" class="st22" width="10" height="10"/>
	<rect id="rectangle-48" x="90" y="240" class="st23" width="10" height="10"/>
	<rect id="rectangle-50" x="120" y="30" class="st24" width="10" height="10"/>
	<rect id="rectangle-52" x="120" y="60" class="st25" width="10" height="10"/>
	<rect id="rectangle-54" x="120" y="90" class="st26" width="10" height="10"/>
	<rect id="rectangle-56" x="120" y="120" class="st27" width="10" height="10"/>
	<rect id="rectangle-58" x="120" y="150" class="st28" width="10" height="10"/>
	<rect id="rectangle-60" x="120" y="180" class="st29" width="10" height="10"/>
	<rect id="rectangle-62" x="120" y="210" class="st30" width="10" height="10"/>
	<rect id="rectangle-64" x="120" y="240" class="st31" width="10" height="10"/>
	<rect id="rectangle-66" x="150" y="30" class="st32" width="10" height="10"/>
	<rect id="rectangle-68" x="150" y="60" class="st33" width="10" height="10"/>
	<rect id="rectangle-70" x="150" y="90" class="st34" width="10" height="10"/>
	<rect id="rectangle-72" x="150" y="120" class="st35" width="10" height="10"/>
	<rect id="rectangle-74" x="150" y="150" class="st36" width="10" height="10"/>
	<rect id="rectangle-76" x="150" y="180" class="st37" width="10" height="10"/>
	<rect id="rectangle-78" x="150" y="210" class="st38" width="10" height="10"/>
	<rect id="rectangle-80" x="150" y="240" class="st39" width="10" height="10"/>
	<rect id="rectangle-82" x="180" y="30" class="st40" width="10" height="10"/>
	<rect id="rectangle-84" x="180" y="60" class="st41" width="10" height="10"/>
	<rect id="rectangle-86" x="180" y="90" class="st42" width="10" height="10"/>
	<rect id="rectangle-88" x="180" y="120" class="st43" width="10" height="10"/>
	<rect id="rectangle-90" x="180" y="150" class="st44" width="10" height="10"/>
	<rect id="rectangle-92" x="180" y="180" class="st45" width="10" height="10"/>
	<rect id="rectangle-94" x="180" y="210" class="st46" width="10" height="10"/>
	<rect id="rectangle-96" x="180" y="240" class="st47" width="10" height="10"/>
	<rect id="rectangle-98" x="210" y="30" class="st48" width="10" height="10"/>
	<rect id="rectangle-100" x="210" y="60" class="st49" width="10" height="10"/>
	<rect id="rectangle-102" x="210" y="90" class="st50" width="10" height="10"/>
	<rect id="rectangle-104" x="210" y="120" class="st51" width="10" height="10"/>
	<rect id="rectangle-106" x="210" y="150" class="st52" width="10" height="10"/>
	<rect id="rectangle-108" x="210" y="180" class="st53" width="10" height="10"/>
	<rect id="rectangle-110" x="210" y="210" class="st54" width="10" height="10"/>
	<rect id="rectangle-112" x="210" y="240" class="st55" width="10" height="10"/>
	<rect id="rectangle-114" x="240" y="30" class="st56" width="10" height="10"/>
	<rect id="rectangle-116" x="240" y="60" class="st57" width="10" height="10"/>
	<rect id="rectangle-118" x="240" y="90" class="st58" width="10" height="10"/>
	<rect id="rectangle-120" x="240" y="120" class="st59" width="10" height="10"/>
	<rect id="rectangle-122" x="240" y="150" class="st60" width="10" height="10"/>
	<rect id="rectangle-124" x="240" y="180" class="st61" width="10" height="10"/>
	<rect id="rectangle-126" x="240" y="210" class="st62" width="10" height="10"/>
	<rect id="rectangle-128" x="240" y="240" class="st63" width="10" height="10"/>
	<rect id="rectangle-130" x="270" y="30" class="st64" width="10" height="10"/>
	<rect id="rectangle-132" x="270" y="60" class="st65" width="10" height="10"/>
	<rect id="rectangle-134" x="270" y="90" class="st66" width="10" height="10"/>
	<rect id="rectangle-136" x="270" y="120" class="st67" width="10" height="10"/>
	<rect id="rectangle-138" x="270" y="150" class="st68" width="10" height="10"/>
	<rect id="rectangle-140" x="270" y="180" class="st69" width="10" height="10"/>
	<rect id="rectangle-142" x="270" y="210" class="st70" width="10" height="10"/>
	<rect id="rectangle-144" x="270" y="240" class="st71" width="10" height="10"/>
	<rect id="rectangle-146" x="300" y="30" class="st72" width="10" height="10"/>
	<rect id="rectangle-148" x="300" y="60" class="st73" width="10" height="10"/>
	<rect id="rectangle-150" x="300" y="90" class="st74" width="10" height="10"/>
	<rect id="rectangle-152" x="300" y="120" class="st75" width="10" height="10"/>
	<rect id="rectangle-154" x="300" y="150" class="st76" width="10" height="10"/>
	<rect id="rectangle-156" x="300" y="180" class="st77" width="10" height="10"/>
	<rect id="rectangle-158" x="300" y="210" class="st78" width="10" height="10"/>
	<rect id="rectangle-160" x="300" y="240" class="st79" width="10" height="10"/>
	<rect id="rectangle-162" x="110" y="110" class="st80" width="90" height="76.7"/>
</g>
<g>
	<g id="control-163" transform="translate( 110, 110)">
		<circle class="st81" cx="0" cy="0" r="4"/>
		<circle class="st82" cx="0" cy="0" r="13"/>
	</g>
	<g id="control-164" transform="translate( 200, 186.70454545454544)">
		<circle class="st81" cx="0" cy="0" r="4"/>
		<circle class="st82" cx="0" cy="0" r="13"/>
	</g>
</g>
<g>
	<defs>
		<rect id="SVGID_1_" x="352" width="352" height="300"/>
	</defs>
	<clipPath id="SVGID_2_">
		<use xlink:href="#SVGID_1_"  style="overflow:visible;"/>
	</clipPath>
	<g class="st83">
		<rect id="rectangle-3" x="35" y="-190.2" class="st0" width="39.1" height="39.1"/>
		<rect id="rectangle-5" x="35" y="-72.9" class="st1" width="39.1" height="39.1"/>
		<rect id="rectangle-7" x="35" y="44.4" class="st2" width="39.1" height="39.1"/>
		<rect id="rectangle-9" x="35" y="161.8" class="st3" width="39.1" height="39.1"/>
		<rect id="rectangle-11" x="35" y="279.1" class="st4" width="39.1" height="39.1"/>
		<rect id="rectangle-13" x="35" y="396.4" class="st5" width="39.1" height="39.1"/>
		<rect id="rectangle-15" x="35" y="513.8" class="st6" width="39.1" height="39.1"/>
		<rect id="rectangle-17" x="35" y="631.1" class="st7" width="39.1" height="39.1"/>
		<rect id="rectangle-19" x="152.3" y="-190.2" class="st8" width="39.1" height="39.1"/>
		<rect id="rectangle-21" x="152.3" y="-72.9" class="st9" width="39.1" height="39.1"/>
		<rect id="rectangle-23" x="152.3" y="44.4" class="st10" width="39.1" height="39.1"/>
		<rect id="rectangle-25" x="152.3" y="161.8" class="st11" width="39.1" height="39.1"/>
		<rect id="rectangle-27" x="152.3" y="279.1" class="st12" width="39.1" height="39.1"/>
		<rect id="rectangle-29" x="152.3" y="396.4" class="st13" width="39.1" height="39.1"/>
		<rect id="rectangle-31" x="152.3" y="513.8" class="st14" width="39.1" height="39.1"/>
		<rect id="rectangle-33" x="152.3" y="631.1" class="st15" width="39.1" height="39.1"/>
		<rect id="rectangle-35" x="269.7" y="-190.2" class="st16" width="39.1" height="39.1"/>
		<rect id="rectangle-37" x="269.7" y="-72.9" class="st17" width="39.1" height="39.1"/>
		<rect id="rectangle-39" x="269.7" y="44.4" class="st18" width="39.1" height="39.1"/>
		<rect id="rectangle-41" x="269.7" y="161.8" class="st19" width="39.1" height="39.1"/>
		<rect id="rectangle-43" x="269.7" y="279.1" class="st20" width="39.1" height="39.1"/>
		<rect id="rectangle-45" x="269.7" y="396.4" class="st21" width="39.1" height="39.1"/>
		<rect id="rectangle-47" x="269.7" y="513.8" class="st22" width="39.1" height="39.1"/>
		<rect id="rectangle-49" x="269.7" y="631.1" class="st23" width="39.1" height="39.1"/>
		<rect id="rectangle-51" x="387" y="-190.2" class="st24" width="39.1" height="39.1"/>
		<rect id="rectangle-53" x="387" y="-72.9" class="st25" width="39.1" height="39.1"/>
		<rect id="rectangle-55" x="387" y="44.4" class="st26" width="39.1" height="39.1"/>
		<rect id="rectangle-57" x="387" y="161.8" class="st27" width="39.1" height="39.1"/>
		<rect id="rectangle-59" x="387" y="279.1" class="st28" width="39.1" height="39.1"/>
		<rect id="rectangle-61" x="387" y="396.4" class="st29" width="39.1" height="39.1"/>
		<rect id="rectangle-63" x="387" y="513.8" class="st30" width="39.1" height="39.1"/>
		<rect id="rectangle-65" x="387" y="631.1" class="st31" width="39.1" height="39.1"/>
		<rect id="rectangle-67" x="504.3" y="-190.2" class="st32" width="39.1" height="39.1"/>
		<rect id="rectangle-69" x="504.3" y="-72.9" class="st33" width="39.1" height="39.1"/>
		<rect id="rectangle-71" x="504.3" y="44.4" class="st34" width="39.1" height="39.1"/>
		<rect id="rectangle-73" x="504.3" y="161.8" class="st35" width="39.1" height="39.1"/>
		<rect id="rectangle-75" x="504.3" y="279.1" class="st36" width="39.1" height="39.1"/>
		<rect id="rectangle-77" x="504.3" y="396.4" class="st37" width="39.1" height="39.1"/>
		<rect id="rectangle-79" x="504.3" y="513.8" class="st38" width="39.1" height="39.1"/>
		<rect id="rectangle-81" x="504.3" y="631.1" class="st39" width="39.1" height="39.1"/>
		<rect id="rectangle-83" x="621.7" y="-190.2" class="st40" width="39.1" height="39.1"/>
		<rect id="rectangle-85" x="621.7" y="-72.9" class="st41" width="39.1" height="39.1"/>
		<rect id="rectangle-87" x="621.7" y="44.4" class="st42" width="39.1" height="39.1"/>
		<rect id="rectangle-89" x="621.7" y="161.8" class="st43" width="39.1" height="39.1"/>
		<rect id="rectangle-91" x="621.7" y="279.1" class="st44" width="39.1" height="39.1"/>
		<rect id="rectangle-93" x="621.7" y="396.4" class="st45" width="39.1" height="39.1"/>
		<rect id="rectangle-95" x="621.7" y="513.8" class="st46" width="39.1" height="39.1"/>
		<rect id="rectangle-97" x="621.7" y="631.1" class="st47" width="39.1" height="39.1"/>
		<rect id="rectangle-99" x="739" y="-190.2" class="st48" width="39.1" height="39.1"/>
		<rect id="rectangle-101" x="739" y="-72.9" class="st49" width="39.1" height="39.1"/>
		<rect id="rectangle-103" x="739" y="44.4" class="st50" width="39.1" height="39.1"/>
		<rect id="rectangle-105" x="739" y="161.8" class="st51" width="39.1" height="39.1"/>
		<rect id="rectangle-107" x="739" y="279.1" class="st52" width="39.1" height="39.1"/>
		<rect id="rectangle-109" x="739" y="396.4" class="st53" width="39.1" height="39.1"/>
		<rect id="rectangle-111" x="739" y="513.8" class="st54" width="39.1" height="39.1"/>
		<rect id="rectangle-113" x="739" y="631.1" class="st55" width="39.1" height="39.1"/>
		<rect id="rectangle-115" x="856.3" y="-190.2" class="st56" width="39.1" height="39.1"/>
		<rect id="rectangle-117" x="856.3" y="-72.9" class="st57" width="39.1" height="39.1"/>
		<rect id="rectangle-119" x="856.3" y="44.4" class="st58" width="39.1" height="39.1"/>
		<rect id="rectangle-121" x="856.3" y="161.8" class="st59" width="39.1" height="39.1"/>
		<rect id="rectangle-123" x="856.3" y="279.1" class="st60" width="39.1" height="39.1"/>
		<rect id="rectangle-125" x="856.3" y="396.4" class="st61" width="39.1" height="39.1"/>
		<rect id="rectangle-127" x="856.3" y="513.8" class="st62" width="39.1" height="39.1"/>
		<rect id="rectangle-129" x="856.3" y="631.1" class="st63" width="39.1" height="39.1"/>
		<rect id="rectangle-131" x="973.7" y="-190.2" class="st64" width="39.1" height="39.1"/>
		<rect id="rectangle-133" x="973.7" y="-72.9" class="st65" width="39.1" height="39.1"/>
		<rect id="rectangle-135" x="973.7" y="44.4" class="st66" width="39.1" height="39.1"/>
		<rect id="rectangle-137" x="973.7" y="161.8" class="st67" width="39.1" height="39.1"/>
		<rect id="rectangle-139" x="973.7" y="279.1" class="st68" width="39.1" height="39.1"/>
		<rect id="rectangle-141" x="973.7" y="396.4" class="st69" width="39.1" height="39.1"/>
		<rect id="rectangle-143" x="973.7" y="513.8" class="st70" width="39.1" height="39.1"/>
		<rect id="rectangle-145" x="973.7" y="631.1" class="st71" width="39.1" height="39.1"/>
		<rect id="rectangle-147" x="1091" y="-190.2" class="st72" width="39.1" height="39.1"/>
		<rect id="rectangle-149" x="1091" y="-72.9" class="st73" width="39.1" height="39.1"/>
		<rect id="rectangle-151" x="1091" y="44.4" class="st74" width="39.1" height="39.1"/>
		<rect id="rectangle-153" x="1091" y="161.8" class="st75" width="39.1" height="39.1"/>
		<rect id="rectangle-155" x="1091" y="279.1" class="st76" width="39.1" height="39.1"/>
		<rect id="rectangle-157" x="1091" y="396.4" class="st77" width="39.1" height="39.1"/>
		<rect id="rectangle-159" x="1091" y="513.8" class="st78" width="39.1" height="39.1"/>
		<rect id="rectangle-161" x="1091" y="631.1" class="st79" width="39.1" height="39.1"/>
	</g>
</g>
<line class="st84" x1="352" y1="0" x2="352" y2="300"/>
</svg>
