<svg id="b6125448-ff6a-4853-bc81-ced134dfceb6" data-name="interactive-0" xmlns="http://www.w3.org/2000/svg" viewBox="0 0 600 300"><defs><style>.b5b62b48-8a79-495a-b82b-03ee820b398d,.fb4428fd-8d84-4a76-a6a7-bd1788ebf899{fill:#666;}.a2955d27-d297-4d92-bba3-80f0c6f65592,.b5b62b48-8a79-495a-b82b-03ee820b398d,.e9c192a6-d7bf-43b7-8064-25895f82132d,.eae9c9f9-08d8-47db-ae66-8b8569bd7508,.f0866a1f-3422-44a9-bc6a-2f4509c4ae7e,.f5faf83d-6d8a-4c41-a729-4ce2604eca99,.f6e1afa4-975c-45fb-8f80-340db9e7602a,.fb4428fd-8d84-4a76-a6a7-bd1788ebf899{stroke:#404040;}.a2955d27-d297-4d92-bba3-80f0c6f65592,.ad52e979-cf69-4e24-a3be-d84ad409f9ec,.b5b62b48-8a79-495a-b82b-03ee820b398d,.e1dadb31-8147-4b14-8090-c2d287cc4567,.e9c192a6-d7bf-43b7-8064-25895f82132d,.f6e1afa4-975c-45fb-8f80-340db9e7602a{opacity:0.25;}.a2955d27-d297-4d92-bba3-80f0c6f65592,.eae9c9f9-08d8-47db-ae66-8b8569bd7508{fill:#999;}.f5faf83d-6d8a-4c41-a729-4ce2604eca99,.f6e1afa4-975c-45fb-8f80-340db9e7602a{fill:#ccc;}.ae586c2d-0ba9-4bee-9160-0c43ee2004c6,.e428b755-2f4b-4c4a-851d-c97c20dba5a2,.e9c192a6-d7bf-43b7-8064-25895f82132d,.f0866a1f-3422-44a9-bc6a-2f4509c4ae7e{fill:#f8f8f8;}.ac5a4684-28d5-4402-98d5-b8cc9a546975{fill:#222;}.a744ffce-afa1-4c96-8100-99cc0589c9aa,.e1dadb31-8147-4b14-8090-c2d287cc4567{fill:#333;}.b3beea74-5912-4139-8e7c-b692840793b3,.e428b755-2f4b-4c4a-851d-c97c20dba5a2,.fc337ce5-be14-4721-b247-f0c47bd1fb28{stroke:#333;stroke-miterlimit:10;}.b3beea74-5912-4139-8e7c-b692840793b3,.fc337ce5-be14-4721-b247-f0c47bd1fb28{fill:none;}.fc337ce5-be14-4721-b247-f0c47bd1fb28{stroke-dasharray:12.13 12.13;}</style></defs><title>svg-translate</title><rect id="ee90e812-2b0b-46fe-9810-dd803876d65e" data-name="rectangle-2" class="b5b62b48-8a79-495a-b82b-03ee820b398d" x="125" y="109.3" width="75" height="75"/><rect id="fc241c82-3c63-4a51-ae5d-ffe15f0e7674" data-name="rectangle-3" class="a2955d27-d297-4d92-bba3-80f0c6f65592" x="200" y="109.3" width="75" height="75"/><rect id="e326d1ee-5f31-4d3e-8852-68ea1d1d5c10" data-name="rectangle-4" class="f6e1afa4-975c-45fb-8f80-340db9e7602a" x="125" y="184.3" width="75" height="75"/><rect id="e874bf0f-74e3-4f1e-ba8f-5858d173dd40" data-name="rectangle-5" class="e9c192a6-d7bf-43b7-8064-25895f82132d" x="200" y="184.3" width="75" height="75"/><g class="ad52e979-cf69-4e24-a3be-d84ad409f9ec"><path class="ac5a4684-28d5-4402-98d5-b8cc9a546975" d="M168,156.19q-.57-.09-5.25-.09c-3.08,0-4.81,0-5.18.09h-.4v-1.51H158a19.8,19.8,0,0,0,2.48-.1,2.19,2.19,0,0,0,.79-.4V137.12a.66.66,0,0,0-.26.1,10.13,10.13,0,0,1-3.4.63H157v-1.52h.63a9.3,9.3,0,0,0,4.62-1.26,5,5,0,0,0,1-.75c0-.07.18-.1.39-.1a.87.87,0,0,1,.57.19v9.87l0,9.9a3.17,3.17,0,0,0,2.14.5h2v1.51Z"/></g><g class="ad52e979-cf69-4e24-a3be-d84ad409f9ec"><path class="ac5a4684-28d5-4402-98d5-b8cc9a546975" d="M234.5,142a1.84,1.84,0,0,1-1.45-.6,2.11,2.11,0,0,1-.53-1.45,5.4,5.4,0,0,1,1.8-4.07,6,6,0,0,1,4.31-1.7,7.16,7.16,0,0,1,4.7,1.53,6.42,6.42,0,0,1,2.29,4,8.74,8.74,0,0,1,.07,1.09,6.25,6.25,0,0,1-1.15,3.6,22,22,0,0,1-3.73,3.79c-.8.68-1.89,1.7-3.3,3l-1.95,1.85,2.51,0a39.09,39.09,0,0,0,5.51-.17q.13,0,.33-.69a20.45,20.45,0,0,0,.46-2.24V150h1.32v.1l-.92,6v.09H232.52v-.62a2.27,2.27,0,0,1,.07-.76l2.77-3.14q3.6-4,4.62-5.28a9.52,9.52,0,0,0,2.21-5.51,5.73,5.73,0,0,0-1.14-3.64,3.78,3.78,0,0,0-3.18-1.47,3.61,3.61,0,0,0-3.1,1.71l-.2.37a.65.65,0,0,0-.1.19s.06,0,.17,0a1.68,1.68,0,0,1,1.33.59,2.08,2.08,0,0,1,.51,1.39,2,2,0,0,1-.54,1.4A1.86,1.86,0,0,1,234.5,142Z"/></g><g class="ad52e979-cf69-4e24-a3be-d84ad409f9ec"><path class="ac5a4684-28d5-4402-98d5-b8cc9a546975" d="M158.44,220.84a1.78,1.78,0,0,1-1.4-.56,2.07,2.07,0,0,1-.51-1.45,4,4,0,0,1,1.48-3.15,6.28,6.28,0,0,1,3.43-1.5h.5c.77,0,1.25,0,1.45,0a8,8,0,0,1,2.21.69,4.89,4.89,0,0,1,2.74,3.1,3.1,3.1,0,0,1,.1.9,5.53,5.53,0,0,1-1.2,3.48,6.72,6.72,0,0,1-3,2.19c-.11,0-.11.08,0,.1a1.68,1.68,0,0,0,.33.1,7.05,7.05,0,0,1,3.4,2.09,5.09,5.09,0,0,1,1.38,3.49,5.82,5.82,0,0,1-.62,2.6,6.6,6.6,0,0,1-2.6,2.79,7.45,7.45,0,0,1-4,1.11,7.87,7.87,0,0,1-3.86-.93,4.71,4.71,0,0,1-2.27-2.47,3.72,3.72,0,0,1-.33-1.62,2,2,0,0,1,.61-1.5,2.06,2.06,0,0,1,1.47-.58,2,2,0,0,1,1.51.6,2,2,0,0,1,.6,1.48,2.13,2.13,0,0,1-.43,1.32,1.93,1.93,0,0,1-1.16.73l-.23.06a6.21,6.21,0,0,0,4.09,1.49,2.94,2.94,0,0,0,2.74-1.75,7.51,7.51,0,0,0,.56-3.33v-.66q0-3.13-2.11-4.2a7.29,7.29,0,0,0-2-.23l-1.39,0-.1-.07a1.29,1.29,0,0,1-.06-.52c0-.27,0-.43.1-.5a.29.29,0,0,1,.16-.1,11.66,11.66,0,0,0,1.92-.16,2.86,2.86,0,0,0,2.21-1.64,7.31,7.31,0,0,0,.76-3.44,3.16,3.16,0,0,0-1.16-2.88,2.79,2.79,0,0,0-1.55-.46,4.89,4.89,0,0,0-2.9.89,2,2,0,0,0-.56.5l-.1.13.23.07a1.54,1.54,0,0,1,1.1.62,2,2,0,0,1,.45,1.29,1.81,1.81,0,0,1-.55,1.34A1.9,1.9,0,0,1,158.44,220.84Z"/></g><g class="ad52e979-cf69-4e24-a3be-d84ad409f9ec"><path class="ac5a4684-28d5-4402-98d5-b8cc9a546975" d="M246.12,236.12a42.06,42.06,0,0,0-4.26-.1c-2.64,0-4.11,0-4.42.1h-.3V234.6h1a6.94,6.94,0,0,0,1.75-.16.63.63,0,0,0,.39-.33c0-.05,0-.64,0-1.78v-1.65H231.8v-1.52l5-7.63q5.06-7.65,5.12-7.68s.27-.07.69-.07h.59l.2.2v15.18h3v1.52h-3v1.68c0,.9,0,1.43,0,1.58a.6.6,0,0,0,.18.4,4.22,4.22,0,0,0,1.88.26h1v1.52Zm-5.58-7v-11l-7.22,11,3.59,0Z"/></g><circle class="e1dadb31-8147-4b14-8090-c2d287cc4567" cx="125" cy="109.3" r="6"/><rect id="b2777db2-1c3c-43bb-b9f1-43f1a4656144" data-name="rectangle-2" class="fb4428fd-8d84-4a76-a6a7-bd1788ebf899" x="325" y="56.4" width="75" height="75"/><rect id="b06c27ab-c862-4454-b84e-6c8c59b92ea9" data-name="rectangle-3" class="eae9c9f9-08d8-47db-ae66-8b8569bd7508" x="400" y="56.4" width="75" height="75"/><rect id="b71c43ce-3651-4b67-99c5-7e35b78d6f52" data-name="rectangle-4" class="f5faf83d-6d8a-4c41-a729-4ce2604eca99" x="325" y="131.4" width="75" height="75"/><rect id="a1e9a87d-4e6d-40ae-959f-c1f7b08d41b4" data-name="rectangle-5" class="f0866a1f-3422-44a9-bc6a-2f4509c4ae7e" x="400" y="131.4" width="75" height="75"/><path class="ac5a4684-28d5-4402-98d5-b8cc9a546975" d="M368,103.3c-.38-.07-2.13-.1-5.25-.1s-4.81,0-5.18.1h-.4v-1.52H358a17.94,17.94,0,0,0,2.48-.1,2,2,0,0,0,.79-.4V84.22a1,1,0,0,0-.27.1,9.56,9.56,0,0,1-3.39.63H357V83.43h.63a9.19,9.19,0,0,0,4.62-1.25,5,5,0,0,0,1-.76c0-.07.17-.1.39-.1a.88.88,0,0,1,.57.2v9.86l0,9.9a3.17,3.17,0,0,0,2.14.5h1.95v1.52Z"/><path class="ac5a4684-28d5-4402-98d5-b8cc9a546975" d="M434.5,89.14a1.86,1.86,0,0,1-1.45-.59,2.13,2.13,0,0,1-.53-1.46,5.4,5.4,0,0,1,1.8-4.07,6.08,6.08,0,0,1,4.31-1.7,7.16,7.16,0,0,1,4.7,1.53,6.44,6.44,0,0,1,2.29,4,8.74,8.74,0,0,1,.07,1.09,6.23,6.23,0,0,1-1.15,3.6,22,22,0,0,1-3.73,3.79c-.8.69-1.89,1.7-3.3,3l-1.95,1.85,2.51,0a40.2,40.2,0,0,0,5.51-.16c.09,0,.2-.26.33-.7a20.45,20.45,0,0,0,.46-2.24v-.1h1.32v.1l-.92,6v.1H432.52v-.63a2.31,2.31,0,0,1,.07-.76s1-1.06,2.77-3.13c2.4-2.67,3.94-4.42,4.62-5.28A9.55,9.55,0,0,0,442.19,88a5.76,5.76,0,0,0-1.14-3.65,3.78,3.78,0,0,0-3.18-1.47,3.6,3.6,0,0,0-3.1,1.72c0,.08-.11.21-.2.36a.65.65,0,0,0-.1.2s.06,0,.17,0a1.66,1.66,0,0,1,1.33.6,2,2,0,0,1,.51,1.38,2,2,0,0,1-.54,1.4A1.86,1.86,0,0,1,434.5,89.14Z"/><path class="ac5a4684-28d5-4402-98d5-b8cc9a546975" d="M358.44,168a1.79,1.79,0,0,1-1.4-.57,2.05,2.05,0,0,1-.51-1.45,4,4,0,0,1,1.48-3.15,6.28,6.28,0,0,1,3.43-1.5h.5c.77,0,1.25,0,1.45,0a7.75,7.75,0,0,1,2.21.7,4.9,4.9,0,0,1,2.74,3.1,3,3,0,0,1,.1.89,5.49,5.49,0,0,1-1.2,3.48,6.72,6.72,0,0,1-3,2.19c-.11.05-.11.08,0,.1a1.17,1.17,0,0,0,.33.1A7.15,7.15,0,0,1,368,174a5.05,5.05,0,0,1,1.38,3.48,5.89,5.89,0,0,1-.62,2.61,6.53,6.53,0,0,1-2.6,2.78,7.45,7.45,0,0,1-4,1.11,8,8,0,0,1-3.86-.92,4.73,4.73,0,0,1-2.27-2.48,3.72,3.72,0,0,1-.33-1.62,2,2,0,0,1,.61-1.5,2.05,2.05,0,0,1,1.47-.57,2,2,0,0,1,2.11,2.07,2.13,2.13,0,0,1-.43,1.32,1.93,1.93,0,0,1-1.16.73l-.23.07a6.2,6.2,0,0,0,4.09,1.48,2.94,2.94,0,0,0,2.74-1.75,7.45,7.45,0,0,0,.56-3.33v-.66q0-3.14-2.11-4.19a6.91,6.91,0,0,0-2-.23l-1.39,0-.1-.06a1.35,1.35,0,0,1-.06-.53c0-.26,0-.43.1-.49a.24.24,0,0,1,.16-.1,11.69,11.69,0,0,0,1.92-.17,2.87,2.87,0,0,0,2.21-1.63,7.38,7.38,0,0,0,.76-3.45,3.13,3.13,0,0,0-1.16-2.87,2.71,2.71,0,0,0-1.55-.46,4.82,4.82,0,0,0-2.9.89,1.18,1.18,0,0,0-.3.21,1.63,1.63,0,0,0-.26.28l-.1.13a1,1,0,0,0,.23.07,1.55,1.55,0,0,1,1.1.63,2,2,0,0,1,.45,1.28,1.8,1.8,0,0,1-.55,1.34A1.91,1.91,0,0,1,358.44,168Z"/><circle class="e428b755-2f4b-4c4a-851d-c97c20dba5a2" cx="325" cy="56.4" r="19.5"/><path class="ac5a4684-28d5-4402-98d5-b8cc9a546975" d="M446.12,183.22q-.47-.09-4.26-.09c-2.64,0-4.11,0-4.42.09h-.3v-1.51h1a7.26,7.26,0,0,0,1.75-.17.58.58,0,0,0,.39-.33s0-.64,0-1.78v-1.65H431.8v-1.52l5-7.62q5.06-7.66,5.12-7.69a1.74,1.74,0,0,1,.69-.07h.59l.2.2v15.18h3v1.52h-3v1.68c0,.9,0,1.43,0,1.59a.59.59,0,0,0,.18.39,4.16,4.16,0,0,0,1.88.27h1v1.51Zm-5.58-7v-11l-7.22,11,3.59,0Z"/><circle class="a744ffce-afa1-4c96-8100-99cc0589c9aa" cx="325" cy="56.4" r="6"/><line class="ae586c2d-0ba9-4bee-9160-0c43ee2004c6" x1="125" y1="109.3" x2="319" y2="56.4"/><line class="b3beea74-5912-4139-8e7c-b692840793b3" x1="125" y1="109.3" x2="130.79" y2="107.72"/><line class="fc337ce5-be14-4721-b247-f0c47bd1fb28" x1="142.49" y1="104.53" x2="300.44" y2="61.46"/><line class="b3beea74-5912-4139-8e7c-b692840793b3" x1="306.29" y1="59.87" x2="312.08" y2="58.29"/><polygon class="a744ffce-afa1-4c96-8100-99cc0589c9aa" points="311.98 63.48 319 56.4 309.36 53.86 311.98 63.48"/></svg>