<svg id="f1112ca8-34cd-42cd-8419-47537030bab1" data-name="interactive-0" xmlns="http://www.w3.org/2000/svg" viewBox="0 0 600 300"><defs><style>.ed418e23-fe5a-4428-8df4-8c3f48d75732{fill:#666;}.aa24e93f-230a-46bc-9bb6-2a51b657b3b2,.abea8ced-9b54-4fc9-98e7-94c00f55cb54,.ed418e23-fe5a-4428-8df4-8c3f48d75732,.ffeb2b79-fbf9-400e-9587-4101fae1c016{stroke:#404040;}.abea8ced-9b54-4fc9-98e7-94c00f55cb54{fill:#999;}.ffeb2b79-fbf9-400e-9587-4101fae1c016{fill:#ccc;}.aa24e93f-230a-46bc-9bb6-2a51b657b3b2,.b7456193-e4ab-47fe-8e7c-7c36328f11ae{fill:#f8f8f8;}.b39b2846-8e7a-472e-9fce-472427f96bcc{fill:#222;}.a0a66147-21aa-4422-9c02-d56bac6f8d58{fill:#333;}.b7456193-e4ab-47fe-8e7c-7c36328f11ae,.e0601135-7478-497a-b832-d52bfa76edad{stroke:#333;stroke-miterlimit:10;}.e0601135-7478-497a-b832-d52bfa76edad{fill:none;}</style></defs><title>svg-rotate</title><rect id="f72d405f-eef2-454d-a6a2-fa4c609767d2" data-name="rectangle-2" class="ed418e23-fe5a-4428-8df4-8c3f48d75732" x="231.86" y="82.74" width="75" height="75" transform="translate(-18.86 57.45) rotate(-11.76)"/><rect id="f3a46607-4291-4ac5-9fd1-0a1627f0b733" data-name="rectangle-3" class="abea8ced-9b54-4fc9-98e7-94c00f55cb54" x="305.28" y="67.45" width="75" height="75" transform="translate(-14.2 72.1) rotate(-11.76)"/><rect id="a2eefbb8-bd28-4f5b-82aa-7a04fbf727e0" data-name="rectangle-4" class="ffeb2b79-fbf9-400e-9587-4101fae1c016" x="247.15" y="156.17" width="75" height="75" transform="translate(-33.51 62.11) rotate(-11.76)"/><rect id="e9551c49-239d-4028-8486-50b021df51dd" data-name="rectangle-5" class="aa24e93f-230a-46bc-9bb6-2a51b657b3b2" x="320.58" y="140.88" width="75" height="75" transform="translate(-28.85 76.76) rotate(-11.76)"/><path class="b39b2846-8e7a-472e-9fce-472427f96bcc" d="M276.64,128.33q-.57,0-5.16,1c-3,.63-4.7,1-5.05,1.15l-.39.08-.31-1.48.84-.18a18.55,18.55,0,0,0,2.4-.6,2.19,2.19,0,0,0,.7-.55L266.19,111a1,1,0,0,0-.24.15,9.83,9.83,0,0,1-3.2,1.31l-.61.12-.31-1.48.61-.13a9.14,9.14,0,0,0,4.27-2.17,5,5,0,0,0,.85-.95q0-.11.36-.18a.84.84,0,0,1,.59.08l2,9.66,2.05,9.69a3.2,3.2,0,0,0,2.2,0l1.06-.22.84-.17.31,1.48Z"/><path class="b39b2846-8e7a-472e-9fce-472427f96bcc" d="M338.88,100.9a1.84,1.84,0,0,1-1.54-.28,2.08,2.08,0,0,1-.81-1.32,5.37,5.37,0,0,1,.92-4.35,6.07,6.07,0,0,1,3.87-2.55,7.18,7.18,0,0,1,4.92.55,6.41,6.41,0,0,1,3.06,3.45,9.56,9.56,0,0,1,.29,1.06,6.22,6.22,0,0,1-.4,3.76,21.63,21.63,0,0,1-2.88,4.47c-.63.83-1.5,2-2.61,3.65l-1.53,2.2,2.47-.48a40.21,40.21,0,0,0,5.36-1.28q.12-.06.18-.75a20.57,20.57,0,0,0,0-2.29l0-.1,1.3-.27,0,.1.32,6.1,0,.1-12,2.49-.13-.61a2.21,2.21,0,0,1-.09-.76s.71-1.23,2.08-3.63q2.7-4.64,3.44-6.11a9.54,9.54,0,0,0,1-5.85,5.67,5.67,0,0,0-1.86-3.33,3.76,3.76,0,0,0-3.41-.79,3.62,3.62,0,0,0-2.69,2.31l-.12.4A1.25,1.25,0,0,0,338,97s.06,0,.17,0a1.68,1.68,0,0,1,1.43.31,2,2,0,0,1,.79,1.25,2,2,0,0,1-.25,1.48A1.9,1.9,0,0,1,338.88,100.9Z"/><path class="b39b2846-8e7a-472e-9fce-472427f96bcc" d="M280.48,193.56a1.81,1.81,0,0,1-1.48-.26,2.09,2.09,0,0,1-.8-1.32,4,4,0,0,1,.81-3.39,6.4,6.4,0,0,1,3.05-2.17l.49-.1c.75-.16,1.23-.24,1.43-.26a8,8,0,0,1,2.3.22,4.94,4.94,0,0,1,3.32,2.48,3.46,3.46,0,0,1,.28.86,5.56,5.56,0,0,1-.47,3.65A6.76,6.76,0,0,1,286.9,196c-.1.07-.09.1,0,.1l.34,0a7,7,0,0,1,3.76,1.36,5,5,0,0,1,2.06,3.12,5.66,5.66,0,0,1-.08,2.68,6.48,6.48,0,0,1-2,3.26,7.42,7.42,0,0,1-3.7,1.9,7.75,7.75,0,0,1-4-.12,4.71,4.71,0,0,1-2.74-2,3.59,3.59,0,0,1-.65-1.51,1.94,1.94,0,0,1,.29-1.59,2.2,2.2,0,0,1,2.93-.6,2,2,0,0,1,.88,1.33,2.15,2.15,0,0,1-.15,1.38,1.93,1.93,0,0,1-1,1l-.21.11a6.14,6.14,0,0,0,4.3.62,2.94,2.94,0,0,0,2.33-2.27,7.64,7.64,0,0,0-.13-3.38l-.14-.64c-.42-2.05-1.4-3.27-2.92-3.67a6.77,6.77,0,0,0-2,.18l-1.36.25-.11,0a1.28,1.28,0,0,1-.17-.51.75.75,0,0,1,0-.5c.06-.08.1-.12.15-.13a11.64,11.64,0,0,0,1.84-.56,2.85,2.85,0,0,0,1.83-2,7.33,7.33,0,0,0,0-3.53,3.14,3.14,0,0,0-1.72-2.57,2.76,2.76,0,0,0-1.61-.14,4.84,4.84,0,0,0-2.66,1.47,1.34,1.34,0,0,0-.25.27,1.53,1.53,0,0,0-.2.33l-.07.15h.24a1.63,1.63,0,0,1,1.21.39,2.09,2.09,0,0,1,.7,1.17,1.85,1.85,0,0,1-.26,1.42A2,2,0,0,1,280.48,193.56Z"/><path class="b39b2846-8e7a-472e-9fce-472427f96bcc" d="M369.44,190.64a41.84,41.84,0,0,0-4.19.77c-2.59.54-4,.87-4.31,1l-.29.06-.31-1.49,1-.2a7.4,7.4,0,0,0,1.68-.52.61.61,0,0,0,.32-.41s-.1-.63-.33-1.75l-.34-1.61-8.37,1.74-.31-1.49,3.33-8.48q3.38-8.52,3.44-8.57a1.65,1.65,0,0,1,.66-.2l.58-.12.24.15,3.09,14.86,3-.62.31,1.49-3,.62.35,1.65c.18.88.29,1.39.34,1.54a.56.56,0,0,0,.25.35,4.08,4.08,0,0,0,1.9-.12l.94-.2.31,1.49ZM362.56,185l-2.25-10.79-4.84,12.23,3.53-.7Z"/><circle class="a0a66147-21aa-4422-9c02-d56bac6f8d58" cx="225" cy="91.18" r="6"/><circle class="b7456193-e4ab-47fe-8e7c-7c36328f11ae" cx="292" cy="45.05" r="19.5"/><circle class="a0a66147-21aa-4422-9c02-d56bac6f8d58" cx="292" cy="45.05" r="6"/><line class="e0601135-7478-497a-b832-d52bfa76edad" x1="298.43" y1="75.89" x2="293.23" y2="50.92"/></svg>