<?xml version="1.0" encoding="utf-8"?>
<!-- Generator: Adobe Illustrator 23.0.4, SVG Export Plug-In . SVG Version: 6.00 Build 0)  -->
<svg version="1.1" id="interactive-0" xmlns="http://www.w3.org/2000/svg" xmlns:xlink="http://www.w3.org/1999/xlink" x="0px"
	 y="0px" viewBox="0 0 600 300" style="enable-background:new 0 0 600 300;" xml:space="preserve">
<style type="text/css">
	.st0{fill:none;stroke:#404040;}
	.st1{fill:#333333;}
	.st2{font-family:'HelveticaNeue';}
	.st3{font-size:12px;}
	.st4{fill:#800080;}
	.st5{fill:#AB6F00;}
	.st6{fill:none;stroke:#404040;stroke-opacity:0;}
	.st7{fill:#0366EE;}
	.st8{fill-opacity:0;}
	.st9{fill:none;stroke:#404040;stroke-width:1.5;stroke-linecap:round;}
	.st10{fill:#F2F2F2;stroke:#404040;}
	.st11{font-size:15px;}
</style>
<g>
	<path id="path-1" class="st0" d="M100,120c28.5,25.5,71.5,25.5,100,0"/>
	<text transform="matrix(1 0 0 1 25 275)" class="st1 st2 st3">&lt;</text>
	<text transform="matrix(1 0 0 1 32.1999 275)" class="st4 st2 st3">path</text>
	<text transform="matrix(1 0 0 1 56.2114 275)" class="st1 st2 st3"> </text>
	<text transform="matrix(1 0 0 1 59.5474 275)" class="st5 st2 st3">d</text>
	<text transform="matrix(1 0 0 1 66.6633 275)" class="st1 st2 st3">=&quot;M 100 120 A 75 75 0 0 0 200 120&quot;&gt;</text>
	<path id="path-24" class="st6" d="M100,120c28.5,25.5,71.5,25.5,100,0"/>
	<path id="path-25" class="st6" d="M100,120c28.5-25.5,71.5-25.5,100,0"/>
	<path id="path-26" class="st6" d="M100,120c-30.9,27.6-33.5,75-5.9,105.9s75,33.5,105.9,5.9s33.5-75,5.9-105.9
		c-1.9-2.1-3.8-4-5.9-5.9"/>
	<path id="path-27" class="st6" d="M100,120C69.1,92.4,66.5,45,94.1,14.1s75-33.5,105.9-5.9s33.5,75,5.9,105.9
		c-1.9,2.1-3.8,4-5.9,5.9"/>
</g>
<g>
	<g id="control-2" transform="translate( 100, 120)">
		<circle class="st7" cx="0" cy="0" r="4"/>
		<circle class="st8" cx="0" cy="0" r="13"/>
	</g>
	<g id="control-3" transform="translate( 200, 120)">
		<circle class="st7" cx="0" cy="0" r="4"/>
		<circle class="st8" cx="0" cy="0" r="13"/>
	</g>
</g>
<g id="slider-6">
	<line id="line-7" class="st9" x1="406.2" y1="56" x2="562.2" y2="56"/>
	<g id="controlcircle-8" transform="translate( 149, 40)">
		<circle class="st7" cx="374.2" cy="16" r="8.5"/>
		<circle class="st8" cx="374.2" cy="16" r="8.8"/>
	</g>
</g>
<g id="slider-9">
	<line id="line-10" class="st9" x1="406.2" y1="91" x2="562.2" y2="91"/>
	<g id="controlcircle-11" transform="translate( 149, 75)">
		<circle class="st7" cx="374.2" cy="16" r="8.5"/>
		<circle class="st8" cx="374.2" cy="16" r="8.8"/>
	</g>
</g>
<g id="slider-12">
	<line id="line-13" class="st9" x1="406.2" y1="126" x2="562.2" y2="126"/>
	<g id="controlcircle-14" transform="translate( 32, 110)">
		<circle class="st7" cx="374.2" cy="16" r="8.5"/>
		<circle class="st8" cx="374.2" cy="16" r="8.8"/>
	</g>
</g>
<path id="rectangle-16" class="st10" d="M374.2,167.9h9c1.1,0,2,0.9,2,2v9c0,1.1-0.9,2-2,2h-9c-1.1,0-2-0.9-2-2v-9
	C372.2,168.8,373.1,167.9,374.2,167.9z"/>
<text id="text-17" transform="matrix(1 0 0 1 406.2065 177.2449)" class="st1 st2 st11">large-arc-flag</text>
<path id="rectangle-19" class="st10" d="M374.2,203.2h9c1.1,0,2,0.9,2,2v9c0,1.1-0.9,2-2,2h-9c-1.1,0-2-0.9-2-2v-9
	C372.2,204.1,373.1,203.2,374.2,203.2z"/>
<text id="text-20" transform="matrix(1 0 0 1 408.1929 212.5181)" class="st1 st2 st11">sweep-flag</text>
<path id="rectangle-22" class="st10" d="M374.2,238.6h9c1.1,0,2,0.9,2,2v9c0,1.1-0.9,2-2,2h-9c-1.1,0-2-0.9-2-2v-9
	C372.2,239.5,373.1,238.6,374.2,238.6z"/>
<text id="text-23" transform="matrix(1 0 0 1 408.1929 247.9241)" class="st1 st2 st11">show ellipsis</text>
<text id="text-17_1_" transform="matrix(1 0 0 1 370.4819 58.6565)" class="st1 st2 st11">rx</text>
<text id="text-17_2_" transform="matrix(1 0 0 1 370.4818 94.5371)" class="st1 st2 st11">ry</text>
<text id="text-17_3_" transform="matrix(1 0 0 1 372.2433 129.5493)" class="st1 st2 st11">θ</text>
</svg>
