<?xml version="1.0" encoding="utf-8"?>
<!-- Generator: Adobe Illustrator 23.0.4, SVG Export Plug-In . SVG Version: 6.00 Build 0)  -->
<svg version="1.1" id="interactive-0" xmlns="http://www.w3.org/2000/svg" xmlns:xlink="http://www.w3.org/1999/xlink" x="0px"
	 y="0px" viewBox="0 0 300 150" style="enable-background:new 0 0 300 150;" xml:space="preserve">
<style type="text/css">
	.st0{fill:none;stroke:#404040;}
	.st1{fill:none;stroke:#6495ED;}
	.st2{fill:#800080;}
	.st3{font-family:'HelveticaNeue';}
	.st4{font-size:10.9447px;}
	.st5{fill:#AB6F00;}
	.st6{fill:#333333;}
	.st7{fill:#0366EE;}
	.st8{fill-opacity:0;}
</style>
<ellipse id="ellipse-1" class="st0" cx="150" cy="65" rx="75" ry="50"/>
<line id="line-2" class="st1" x1="150" y1="65" x2="225" y2="65"/>
<line id="line-3" class="st1" x1="150" y1="65" x2="150" y2="15"/>
<text transform="matrix(1.003 0 0 1 10 137.0574)" class="st2 st3 st4">&lt;ellipse </text>
<text transform="matrix(1.003 0 0 1 50.7363 137.0574)" class="st5 st3 st4">cx=</text>
<text transform="matrix(1.003 0 0 1 68.9043 137.0574)" class="st6 st3 st4">&quot;150&quot; </text>
<text transform="matrix(1.003 0 0 1 99.6191 137.0574)" class="st5 st3 st4">cy=</text>
<text transform="matrix(1.003 0 0 1 117.5894 137.0574)" class="st6 st3 st4">&quot;65&quot; </text>
<text transform="matrix(1.003 0 0 1 143.73 137.0574)" class="st5 st3 st4">rx=</text>
<text transform="matrix(1.003 0 0 1 159.6587 137.0574)" class="st6 st3 st4">&quot;150&quot; </text>
<text transform="matrix(1.003 0 0 1 190.3735 137.0574)" class="st5 st3 st4">rx=</text>
<text transform="matrix(1.003 0 0 1 206.3018 137.0574)" class="st6 st3 st4">&quot;100&quot; </text>
<text transform="matrix(1.003 0 0 1 235.4868 137.0574)" class="st2 st3 st4">&gt;&lt;/ellipse&gt;</text>
<g>
	<g id="control-5" transform="translate( 238, 139)">
		<circle class="st7" cx="-88" cy="-74" r="4"/>
		<circle class="st8" cx="-88" cy="-74" r="13"/>
	</g>
	<g id="control-6" transform="translate( 342, 139)">
		<circle class="st7" cx="-117" cy="-74" r="4"/>
		<circle class="st8" cx="-117" cy="-74" r="13"/>
	</g>
	<g id="control-7" transform="translate( 238, 81)">
		<circle class="st7" cx="-88" cy="-66" r="4"/>
		<circle class="st8" cx="-88" cy="-66" r="13"/>
	</g>
</g>
<path class="st0" d="M150,115"/>
<path class="st0" d="M150,15"/>
<path class="st0" d="M225,65"/>
<path class="st0" d="M75,65"/>
</svg>
