<?xml version="1.0" encoding="utf-8"?>
<!-- Generator: Adobe Illustrator 23.0.4, SVG Export Plug-In . SVG Version: 6.00 Build 0)  -->
<svg version="1.1" id="interactive-0" xmlns="http://www.w3.org/2000/svg" xmlns:xlink="http://www.w3.org/1999/xlink" x="0px"
	 y="0px" viewBox="0 0 300 150" style="enable-background:new 0 0 300 150;" xml:space="preserve">
<style type="text/css">
	.st0{fill:none;stroke:#404040;}
	.st1{fill:none;stroke:#6495ED;}
	.st2{fill:#800080;}
	.st3{font-family:'HelveticaNeue';}
	.st4{font-size:12px;}
	.st5{fill:#333333;}
	.st6{fill:#AB6F00;}
	.st7{fill:#0366EE;}
	.st8{fill-opacity:0;}
</style>
<circle id="circle-1" class="st0" cx="150" cy="62" r="50"/>
<line id="line-2" class="st1" x1="150" y1="62" x2="200" y2="62"/>
<text transform="matrix(1 0 0 1 28.0359 137.2275)" class="st2 st3 st4">circle</text>
<text transform="matrix(1 0 0 1 56.4751 137.2275)" class="st5 st3 st4"> </text>
<text transform="matrix(1 0 0 1 59.8111 137.2275)" class="st6 st3 st4">cx</text>
<text transform="matrix(1 0 0 1 72.4708 137.2275)" class="st5 st3 st4">=&quot;150&quot; </text>
<text transform="matrix(1 0 0 1 113.1346 137.2275)" class="st6 st3 st4">cy</text>
<text transform="matrix(1 0 0 1 125.5785 137.2275)" class="st5 st3 st4">=&quot;90&quot; </text>
<text transform="matrix(1 0 0 1 162.2423 137.2275)" class="st6 st3 st4">r</text>
<text transform="matrix(1 0 0 1 166.2382 137.2275)" class="st5 st3 st4">=&quot;50&quot;&gt;</text>
<text transform="matrix(1 0 0 1 19.9999 137.2275)" class="st5 st3 st4">&lt;</text>
<g id="control-4" transform="translate( 300, 150)">
	<circle class="st7" cx="-150" cy="-88" r="4"/>
	<circle class="st8" cx="-150" cy="-88" r="13"/>
</g>
<g id="control-5" transform="translate( 375, 150)">
	<circle class="st7" cx="-175" cy="-88" r="4"/>
	<circle class="st8" cx="-175" cy="-88" r="13"/>
</g>
</svg>
