<svg id="interactive-72" xmlns="http://www.w3.org/2000/svg" viewBox="0 0 600 300"><defs><style>.cls-1{fill:#f8f8f8;}.cls-1,.cls-2,.cls-3,.cls-4{stroke:#404040;}.cls-2,.cls-4{fill:none;}.cls-3,.cls-5{fill:#333;}.cls-4{stroke-dasharray:3;}.cls-6{isolation:isolate;}.cls-7{fill:#0366ee;}.cls-8{fill-opacity:0;}</style></defs><title>svg-coordinate-system</title><rect id="rectangle-73" class="cls-1" x="23" y="24" width="554" height="252"/><line id="line-74" class="cls-2" x1="23" y1="24" x2="577" y2="24"/><line id="line-75" class="cls-2" x1="23" y1="24" x2="23" y2="276"/><circle id="circle-76" class="cls-3" cx="23" cy="24" r="3"/><line id="line-78" class="cls-4" x1="23" y1="124" x2="123" y2="124"/><line id="line-79" class="cls-4" x1="123" y1="24" x2="123" y2="124"/><path id="path-80" class="cls-5" d="M584,24l-10.5-6.06V30.06Z"/><path id="path-81" class="cls-5" d="M23,283l6.06-10.5H16.94Z"/><g id="text-82" class="cls-6"><path class="cls-5" d="M139.67,140a13.28,13.28,0,0,1-.6-1.35,8.61,8.61,0,0,1-.37-1.41,8.15,8.15,0,0,1-.14-1.51,9,9,0,0,1,.48-2.86,8.79,8.79,0,0,1,1.41-2.67h.78a9.71,9.71,0,0,0-1.23,2.71,10.9,10.9,0,0,0-.36,2.82,11.17,11.17,0,0,0,.37,2.87,10.21,10.21,0,0,0,1.22,2.73h-.78A15.32,15.32,0,0,1,139.67,140Z"/><path class="cls-5" d="M147.7,139v-6.1h-2.21v-.81a4.61,4.61,0,0,0,.84-.07,2.22,2.22,0,0,0,.74-.24,1.64,1.64,0,0,0,.55-.5,1.78,1.78,0,0,0,.32-.79h.78V139Z"/><path class="cls-5" d="M151.64,133.85a8,8,0,0,1,.12-1A5.08,5.08,0,0,1,152,132a2.42,2.42,0,0,1,.49-.76,2.22,2.22,0,0,1,.79-.52,3.14,3.14,0,0,1,1.13-.19,3.24,3.24,0,0,1,1.14.19,2.27,2.27,0,0,1,.78.52,2.42,2.42,0,0,1,.49.76,4.38,4.38,0,0,1,.28.91,8,8,0,0,1,.12,1c0,.34,0,.66,0,1s0,.64,0,1a8,8,0,0,1-.12,1,4.58,4.58,0,0,1-.28.91,2.49,2.49,0,0,1-.49.75,2.4,2.4,0,0,1-.78.51,3.67,3.67,0,0,1-2.27,0,2.34,2.34,0,0,1-.79-.51,2.49,2.49,0,0,1-.49-.75,5.35,5.35,0,0,1-.28-.91,8,8,0,0,1-.12-1c0-.34,0-.66,0-1S151.63,134.19,151.64,133.85Zm1.09,2a4.45,4.45,0,0,0,.19,1.11,2.11,2.11,0,0,0,.52.88,1.6,1.6,0,0,0,2,0A2.11,2.11,0,0,0,156,137a4.45,4.45,0,0,0,.19-1.11q0-.6,0-1.08v-.69q0-.37-.06-.75a5.7,5.7,0,0,0-.16-.74,2,2,0,0,0-.3-.63,1.52,1.52,0,0,0-.5-.44,1.65,1.65,0,0,0-1.46,0,1.52,1.52,0,0,0-.5.44,2,2,0,0,0-.3.63,4.41,4.41,0,0,0-.15.74,4.74,4.74,0,0,0-.06.75c0,.25,0,.48,0,.69S152.71,135.49,152.73,135.89Z"/><path class="cls-5" d="M158.32,133.85a5.36,5.36,0,0,1,.12-1,4.37,4.37,0,0,1,.27-.91,2.61,2.61,0,0,1,.49-.76,2.22,2.22,0,0,1,.79-.52,3.18,3.18,0,0,1,1.13-.19,3.24,3.24,0,0,1,1.14.19,2.18,2.18,0,0,1,.78.52,2.45,2.45,0,0,1,.5.76,4.37,4.37,0,0,1,.27.91,5.36,5.36,0,0,1,.12,1c0,.34,0,.66,0,1s0,.64,0,1a5.36,5.36,0,0,1-.12,1,4.56,4.56,0,0,1-.27.91,2.52,2.52,0,0,1-.5.75,2.2,2.2,0,0,1-.78.51,3.67,3.67,0,0,1-2.27,0,2.34,2.34,0,0,1-.79-.51,2.7,2.7,0,0,1-.49-.75,4.56,4.56,0,0,1-.27-.91,5.36,5.36,0,0,1-.12-1c0-.34,0-.66,0-1S158.3,134.19,158.32,133.85Zm1.08,2a5,5,0,0,0,.19,1.11,2.12,2.12,0,0,0,.53.88,1.58,1.58,0,0,0,2,0,2,2,0,0,0,.52-.88,4.45,4.45,0,0,0,.2-1.11q0-.6,0-1.08c0-.21,0-.44,0-.69a4.74,4.74,0,0,0-.06-.75,5.7,5.7,0,0,0-.16-.74,1.67,1.67,0,0,0-.3-.63,1.48,1.48,0,0,0-.49-.44,1.67,1.67,0,0,0-1.47,0,1.62,1.62,0,0,0-.5.44,2,2,0,0,0-.3.63,5.7,5.7,0,0,0-.15.74,4.74,4.74,0,0,0-.06.75c0,.25,0,.48,0,.69S159.38,135.49,159.4,135.89Z"/><path class="cls-5" d="M166.79,137.67v1.21a2.23,2.23,0,0,1-.31,1.18,1.72,1.72,0,0,1-1,.69v-.6a1,1,0,0,0,.34-.21,1.05,1.05,0,0,0,.22-.3,1.1,1.1,0,0,0,.12-.33,1.09,1.09,0,0,0,0-.31h-.7v-1.33Z"/><path class="cls-5" d="M174.38,139v-6.1h-2.2v-.81A4.76,4.76,0,0,0,173,132a2.16,2.16,0,0,0,.73-.24,1.67,1.67,0,0,0,.56-.5,1.77,1.77,0,0,0,.31-.79h.78V139Z"/><path class="cls-5" d="M178.33,133.85a8,8,0,0,1,.12-1,5.08,5.08,0,0,1,.28-.91,2.42,2.42,0,0,1,.49-.76,2.22,2.22,0,0,1,.79-.52,3.46,3.46,0,0,1,2.26,0,2.22,2.22,0,0,1,.79.52,2.42,2.42,0,0,1,.49.76,5.08,5.08,0,0,1,.28.91,8,8,0,0,1,.12,1c0,.34,0,.66,0,1s0,.64,0,1a8,8,0,0,1-.12,1,5.35,5.35,0,0,1-.28.91,2.49,2.49,0,0,1-.49.75,2.4,2.4,0,0,1-.78.51,3.67,3.67,0,0,1-2.27,0,2.34,2.34,0,0,1-.79-.51,2.49,2.49,0,0,1-.49-.75,5.35,5.35,0,0,1-.28-.91,8,8,0,0,1-.12-1c0-.34,0-.66,0-1S178.32,134.19,178.33,133.85Zm1.09,2a4.45,4.45,0,0,0,.19,1.11,2.11,2.11,0,0,0,.52.88,1.6,1.6,0,0,0,2,0,2.11,2.11,0,0,0,.52-.88,4.45,4.45,0,0,0,.19-1.11q0-.6,0-1.08v-.69q0-.37-.06-.75a5.7,5.7,0,0,0-.16-.74,2,2,0,0,0-.3-.63,1.52,1.52,0,0,0-.5-.44,1.65,1.65,0,0,0-1.46,0,1.52,1.52,0,0,0-.5.44,2,2,0,0,0-.3.63,5.7,5.7,0,0,0-.16.74q0,.38-.06.75v.69Q179.39,135.29,179.42,135.89Z"/><path class="cls-5" d="M185,133.85a8,8,0,0,1,.12-1,5.08,5.08,0,0,1,.28-.91,2.42,2.42,0,0,1,.49-.76,2.22,2.22,0,0,1,.79-.52,3.14,3.14,0,0,1,1.13-.19,3.24,3.24,0,0,1,1.14.19,2.27,2.27,0,0,1,.78.52,2.42,2.42,0,0,1,.49.76,4.38,4.38,0,0,1,.28.91,8,8,0,0,1,.12,1c0,.34,0,.66,0,1s0,.64,0,1a8,8,0,0,1-.12,1,4.58,4.58,0,0,1-.28.91,2.49,2.49,0,0,1-.49.75,2.4,2.4,0,0,1-.78.51,3.67,3.67,0,0,1-2.27,0,2.34,2.34,0,0,1-.79-.51,2.49,2.49,0,0,1-.49-.75,5.35,5.35,0,0,1-.28-.91,8,8,0,0,1-.12-1c0-.34,0-.66,0-1S185,134.19,185,133.85Zm1.09,2a4.45,4.45,0,0,0,.19,1.11,2.11,2.11,0,0,0,.52.88,1.6,1.6,0,0,0,2,0,2.11,2.11,0,0,0,.52-.88,4.45,4.45,0,0,0,.19-1.11q0-.6,0-1.08v-.69q0-.37-.06-.75a5.7,5.7,0,0,0-.16-.74,2,2,0,0,0-.3-.63,1.52,1.52,0,0,0-.5-.44,1.65,1.65,0,0,0-1.46,0,1.52,1.52,0,0,0-.5.44,2,2,0,0,0-.3.63,4.41,4.41,0,0,0-.15.74,4.74,4.74,0,0,0-.06.75c0,.25,0,.48,0,.69S186.07,135.49,186.09,135.89Z"/><path class="cls-5" d="M192.25,138.66a10.9,10.9,0,0,0,.36-2.82,11.23,11.23,0,0,0-.36-2.87,10.74,10.74,0,0,0-1.21-2.74h.77a15.46,15.46,0,0,1,.78,1.34,10,10,0,0,1,.59,1.35,8.64,8.64,0,0,1,.38,1.41,8.24,8.24,0,0,1,.13,1.51,9.15,9.15,0,0,1-.47,2.85,9.25,9.25,0,0,1-1.41,2.67H191A9.74,9.74,0,0,0,192.25,138.66Z"/></g><g id="control-77"><circle class="cls-7" cx="123" cy="124" r="4"/><circle class="cls-8" cx="123" cy="124" r="13"/></g></svg>