<svg id="e3c4187c-2f5d-4454-951d-2600529fb71a" data-name="interactive-0" xmlns="http://www.w3.org/2000/svg" viewBox="0 0 600 300"><defs><style>.e39d2191-c581-41ff-9c13-32301ccaab4f{fill:#666;}.a182376c-c570-4395-bde9-8a2db9de1e86,.bb2d77a8-3f0e-47aa-840c-b6a6ac6d8990,.e39d2191-c581-41ff-9c13-32301ccaab4f,.e5566fc3-90a2-4806-be4a-cd9a420d8f0e{stroke:#404040;}.bb2d77a8-3f0e-47aa-840c-b6a6ac6d8990{fill:#999;}.a182376c-c570-4395-bde9-8a2db9de1e86{fill:#ccc;}.a47947d9-ebcb-4f04-9af8-f928df5b75bd,.e5566fc3-90a2-4806-be4a-cd9a420d8f0e{fill:#f8f8f8;}.b3b2743b-bd1b-4fb1-bbed-9165c572cec4{fill:#222;}.a47947d9-ebcb-4f04-9af8-f928df5b75bd{stroke:#333;stroke-miterlimit:10;}.a750152a-3b13-4fc9-a711-fc5fd05bc95c{fill:#333;}</style></defs><title>svg-scale</title><rect id="b90e0285-589b-41ff-982f-b74935966639" data-name="rectangle-2" class="e39d2191-c581-41ff-9c13-32301ccaab4f" x="191.31" y="68.25" width="112.5" height="75"/><rect id="a65f63fe-d2ad-4c38-b16a-3c4eb4687673" data-name="rectangle-3" class="bb2d77a8-3f0e-47aa-840c-b6a6ac6d8990" x="303.81" y="68.25" width="112.5" height="75"/><rect id="aba3e10e-9f44-4939-8698-a4f6a1ad2afa" data-name="rectangle-4" class="a182376c-c570-4395-bde9-8a2db9de1e86" x="191.31" y="143.25" width="112.5" height="75"/><rect id="b1af21fd-3943-40fa-b3e7-d2fa7b4dc13f" data-name="rectangle-5" class="e5566fc3-90a2-4806-be4a-cd9a420d8f0e" x="303.81" y="143.25" width="112.5" height="75"/><path class="b3b2743b-bd1b-4fb1-bbed-9165c572cec4" d="M255.78,115.15c-.56-.07-3.19-.1-7.87-.1s-7.21,0-7.77.1h-.6v-1.52h1.29c1.91,0,3.15,0,3.71-.1a3.77,3.77,0,0,0,1.19-.4V96.07a2,2,0,0,0-.4.1,20.78,20.78,0,0,1-5.09.63h-.94V95.28h.94A19.42,19.42,0,0,0,247.17,94a7.79,7.79,0,0,0,1.53-.76c.07-.07.26-.1.59-.1a1.62,1.62,0,0,1,.85.2v9.86l.05,9.9a6.63,6.63,0,0,0,3.21.5h2.92v1.52Z"/><path class="b3b2743b-bd1b-4fb1-bbed-9165c572cec4" d="M355.57,101a3.6,3.6,0,0,1-2.18-.59,1.77,1.77,0,0,1-.79-1.46q0-2.37,2.7-4.07a11.79,11.79,0,0,1,6.46-1.7,14.6,14.6,0,0,1,7.05,1.53,6.5,6.5,0,0,1,3.44,4,6.3,6.3,0,0,1,.1,1.09,5,5,0,0,1-1.73,3.6,29.73,29.73,0,0,1-5.6,3.79q-1.78,1-4.95,3l-2.92,1.85,3.76,0c5.18,0,7.94,0,8.27-.17.13,0,.3-.25.5-.69a15.42,15.42,0,0,0,.69-2.24v-.1h2v.1l-1.39,6v.1H352.6v-.63c0-.44,0-.69.1-.76l4.16-3.14q5.38-4,6.93-5.27c2.21-2,3.31-3.84,3.31-5.52a4.61,4.61,0,0,0-1.71-3.64,7.09,7.09,0,0,0-4.77-1.47A6.42,6.42,0,0,0,356,96.44l-.29.36c-.1.11-.15.17-.15.2s.08,0,.25,0a3.21,3.21,0,0,1,2,.59,1.74,1.74,0,0,1,.77,1.39,1.67,1.67,0,0,1-.82,1.4A3.6,3.6,0,0,1,355.57,101Z"/><path class="b3b2743b-bd1b-4fb1-bbed-9165c572cec4" d="M241.48,179.79a3.46,3.46,0,0,1-2.11-.56,1.73,1.73,0,0,1-.77-1.45c0-1.25.75-2.3,2.23-3.15a12.11,12.11,0,0,1,5.15-1.5h.74c1.16,0,1.88,0,2.18,0a16.78,16.78,0,0,1,3.32.69c2.18.73,3.54,1.76,4.11,3.11a2.37,2.37,0,0,1,.14.89,4.49,4.49,0,0,1-1.8,3.48,10.9,10.9,0,0,1-4.53,2.19c-.17,0-.17.08,0,.1a3.72,3.72,0,0,0,.49.1,12.14,12.14,0,0,1,5.1,2.1,4.32,4.32,0,0,1,2.08,3.48,4.24,4.24,0,0,1-.94,2.6,8.46,8.46,0,0,1-3.89,2.79,15.62,15.62,0,0,1-6,1.11,16.67,16.67,0,0,1-5.79-.93,6.21,6.21,0,0,1-3.42-2.47,2.7,2.7,0,0,1-.49-1.62,1.73,1.73,0,0,1,.91-1.5,4.11,4.11,0,0,1,2.21-.58,4,4,0,0,1,2.27.6,1.73,1.73,0,0,1,.9,1.48,1.69,1.69,0,0,1-.65,1.32,3.31,3.31,0,0,1-1.73.73l-.35.07a12.54,12.54,0,0,0,6.14,1.48,4.92,4.92,0,0,0,4.11-1.75,5.44,5.44,0,0,0,.84-3.33v-.66a4.12,4.12,0,0,0-3.17-4.19,14.51,14.51,0,0,0-3-.23l-2.08,0-.14-.06a.86.86,0,0,1-.1-.53c0-.27.05-.43.15-.5a.51.51,0,0,1,.24-.1,25.88,25.88,0,0,0,2.87-.16A4.57,4.57,0,0,0,250,181.2a5.39,5.39,0,0,0,1.14-3.45,2.81,2.81,0,0,0-1.73-2.87,5.67,5.67,0,0,0-2.33-.47,10,10,0,0,0-4.36.9,1.92,1.92,0,0,0-.44.21,2.47,2.47,0,0,0-.4.28l-.15.13.35.07a2.75,2.75,0,0,1,1.66.63,1.66,1.66,0,0,1,.67,1.28,1.59,1.59,0,0,1-.82,1.34A3.74,3.74,0,0,1,241.48,179.79Z"/><path class="b3b2743b-bd1b-4fb1-bbed-9165c572cec4" d="M373,195.07c-.46-.06-2.59-.1-6.38-.1-4,0-6.17,0-6.64.1h-.44v-1.51h1.53a16.12,16.12,0,0,0,2.63-.17.85.85,0,0,0,.59-.33,13.66,13.66,0,0,0,.05-1.78v-1.65H351.51v-1.52l7.47-7.62q7.57-7.67,7.68-7.69a3.45,3.45,0,0,1,1-.07h.89l.29.2v15.18h4.56v1.52h-4.56v1.68q0,1.35,0,1.59a.51.51,0,0,0,.27.39,9.44,9.44,0,0,0,2.82.27h1.44v1.51Zm-8.36-7v-11l-10.84,11,5.39,0Z"/><circle class="a47947d9-ebcb-4f04-9af8-f928df5b75bd" cx="416.31" cy="218.25" r="19.5"/><circle class="a750152a-3b13-4fc9-a711-fc5fd05bc95c" cx="191.31" cy="68.25" r="6"/><circle class="a750152a-3b13-4fc9-a711-fc5fd05bc95c" cx="416.31" cy="218.25" r="6"/></svg>