<svg xmlns="http://www.w3.org/2000/svg" width="600" height="150" viewBox="0 0 600 150"><defs><style>.bf02f8a4-5eaf-42cf-8cec-efc974a07eb4,.f4a95b0e-3a1e-49db-8dfe-c4c6103e79ab{fill:none;}.f4a95b0e-3a1e-49db-8dfe-c4c6103e79ab{stroke:#ddd;}.bf02f8a4-5eaf-42cf-8cec-efc974a07eb4{stroke:#404040;}.a08ae31e-5943-4e98-a0be-58989639e09c{fill:#404040;}</style></defs><title>trace-animation</title><g id="b9e629f6-4e0c-49ff-9578-6a75e29ce42a" data-name="Layer 1"><path class="f4a95b0e-3a1e-49db-8dfe-c4c6103e79ab" d="M123.64,107.26l-25.1-71.4h10.2l20.4,61.9h.2l20.6-61.9h9.9l-25.4,71.4Z"/><path class="f4a95b0e-3a1e-49db-8dfe-c4c6103e79ab" d="M197.14,104q-5.8,4.41-14.6,4.4a26.58,26.58,0,0,1-10.75-2,21,21,0,0,1-7.65-5.6,23.63,23.63,0,0,1-4.65-8.6,41,41,0,0,1-1.75-10.9,31.14,31.14,0,0,1,1.8-10.8,25.82,25.82,0,0,1,5.05-8.5,22.91,22.91,0,0,1,7.7-5.6,23.52,23.52,0,0,1,9.75-2,21.23,21.23,0,0,1,11.45,2.85,22.78,22.78,0,0,1,7.3,7.25,28.84,28.84,0,0,1,3.8,9.6,41.36,41.36,0,0,1,.85,9.9h-38.7a20.4,20.4,0,0,0,.8,6.45,14.41,14.41,0,0,0,2.9,5.4,14.17,14.17,0,0,0,5.1,3.75,17.48,17.48,0,0,0,7.3,1.4,14.69,14.69,0,0,0,8.85-2.5,12.1,12.1,0,0,0,4.55-7.6h8.4Q202.93,99.56,197.14,104Zm-2-33.2a14.62,14.62,0,0,0-3.1-4.65,14.85,14.85,0,0,0-4.6-3.1,14.68,14.68,0,0,0-5.85-1.15A14.89,14.89,0,0,0,175.59,63,13.74,13.74,0,0,0,171,66.16a15.11,15.11,0,0,0-3,4.65,17.46,17.46,0,0,0-1.3,5.65h29.7A17.73,17.73,0,0,0,195.09,70.76Z"/><path class="f4a95b0e-3a1e-49db-8dfe-c4c6103e79ab" d="M245.14,64.56a12.91,12.91,0,0,0-8.6-2.7,15.86,15.86,0,0,0-7.7,1.7,13.79,13.79,0,0,0-5,4.5,18.79,18.79,0,0,0-2.65,6.45,34.79,34.79,0,0,0-.8,7.55,28.55,28.55,0,0,0,.85,7,18.53,18.53,0,0,0,2.65,6,13.27,13.27,0,0,0,4.7,4.25,14,14,0,0,0,6.9,1.6q6.3,0,9.85-3.3a15,15,0,0,0,4.35-9.3h8.7q-1.41,9.6-7.15,14.8t-15.65,5.2a26.83,26.83,0,0,1-10.45-1.9,20,20,0,0,1-7.6-5.4,23.12,23.12,0,0,1-4.6-8.35,34.6,34.6,0,0,1-1.55-10.65,38,38,0,0,1,1.5-10.85,25,25,0,0,1,4.55-8.8,21.37,21.37,0,0,1,7.65-5.9,25,25,0,0,1,10.7-2.15,31.28,31.28,0,0,1,8.25,1,20.31,20.31,0,0,1,6.8,3.25,18,18,0,0,1,4.85,5.55,20.73,20.73,0,0,1,2.4,8h-8.8A13,13,0,0,0,245.14,64.56Z"/><path class="f4a95b0e-3a1e-49db-8dfe-c4c6103e79ab" d="M290,55.56v7.5h-10.3v32.1a9.58,9.58,0,0,0,.25,2.4,2.51,2.51,0,0,0,.95,1.4,4.15,4.15,0,0,0,1.95.65,28.47,28.47,0,0,0,3.25.15H290v7.5h-6.5a30.55,30.55,0,0,1-5.65-.45,8.35,8.35,0,0,1-3.8-1.65,7.11,7.11,0,0,1-2.15-3.4,19.84,19.84,0,0,1-.7-5.8V63.06h-8.8v-7.5h8.8V40.06h8.5v15.5Z"/><path class="f4a95b0e-3a1e-49db-8dfe-c4c6103e79ab" d="M298.23,70.81a24.29,24.29,0,0,1,4.8-8.6,22.75,22.75,0,0,1,7.9-5.75,29,29,0,0,1,21.65,0,22.74,22.74,0,0,1,7.85,5.75,24,24,0,0,1,4.8,8.6,34.33,34.33,0,0,1,1.6,10.65,33.83,33.83,0,0,1-1.6,10.6,23.94,23.94,0,0,1-4.8,8.55,22,22,0,0,1-7.85,5.7,29.61,29.61,0,0,1-21.65,0,22,22,0,0,1-7.9-5.7,24.24,24.24,0,0,1-4.8-8.55,34.13,34.13,0,0,1-1.6-10.6A34.63,34.63,0,0,1,298.23,70.81Zm8.65,19a17.59,17.59,0,0,0,3.45,6.1,14.89,14.89,0,0,0,5.15,3.75,15.67,15.67,0,0,0,12.5,0,14.71,14.71,0,0,0,5.15-3.75,17.28,17.28,0,0,0,3.45-6.1,25.5,25.5,0,0,0,1.25-8.35,25.58,25.58,0,0,0-1.25-8.35A18,18,0,0,0,333.13,67a14.72,14.72,0,0,0-5.15-3.8,15.67,15.67,0,0,0-12.5,0,14.91,14.91,0,0,0-5.15,3.8,18.31,18.31,0,0,0-3.45,6.15,28.51,28.51,0,0,0,0,16.7Z"/><path class="f4a95b0e-3a1e-49db-8dfe-c4c6103e79ab" d="M364.53,55.56v10.9h.2a23.05,23.05,0,0,1,7.6-9.3q4.5-3,11.4-2.8v9a24.11,24.11,0,0,0-8.7,1.4,13.79,13.79,0,0,0-5.8,4.1,17.15,17.15,0,0,0-3.2,6.55,35.23,35.23,0,0,0-1,8.85v23h-8.5V55.56Z"/><path class="f4a95b0e-3a1e-49db-8dfe-c4c6103e79ab" d="M393.93,96.16v11.1h-11.1V96.16Z"/><path class="f4a95b0e-3a1e-49db-8dfe-c4c6103e79ab" d="M414.38,123.81Q411,127,405.33,127a21.67,21.67,0,0,1-4.3-.4v-7.3c.34.07.62.12.85.15a5.9,5.9,0,0,0,.75,0h1.8c1.87,0,3.13-.52,3.8-1.55s1-2.88,1-5.55V55.56h8.5v58.2Q417.73,120.66,414.38,123.81Z"/><rect class="f4a95b0e-3a1e-49db-8dfe-c4c6103e79ab" x="409.23" y="36.67" width="8.5" height="10.4"/><path class="f4a95b0e-3a1e-49db-8dfe-c4c6103e79ab" d="M437.43,95.71a9,9,0,0,0,3.15,3.1,14,14,0,0,0,4.4,1.65,24.72,24.72,0,0,0,5,.5,31.2,31.2,0,0,0,4.2-.3,15.08,15.08,0,0,0,4-1.1,7.54,7.54,0,0,0,3.05-2.35,6.26,6.26,0,0,0,1.2-3.95,5.66,5.66,0,0,0-2.5-5,21.4,21.4,0,0,0-6.25-2.75q-3.75-1-8.15-1.9a41.43,41.43,0,0,1-8.15-2.4,16.82,16.82,0,0,1-6.25-4.35q-2.5-2.79-2.5-7.8a12.37,12.37,0,0,1,1.75-6.7,14.48,14.48,0,0,1,4.5-4.55,20.88,20.88,0,0,1,6.2-2.6,28.87,28.87,0,0,1,6.85-.85,40.87,40.87,0,0,1,8.1.75,18.78,18.78,0,0,1,6.55,2.6,13.48,13.48,0,0,1,4.55,5,19.05,19.05,0,0,1,2,7.85h-8.5a8.14,8.14,0,0,0-4.1-6.8,12.83,12.83,0,0,0-3.75-1.45,19.32,19.32,0,0,0-4.15-.45,25.26,25.26,0,0,0-3.85.3,13,13,0,0,0-3.55,1.05,7.19,7.19,0,0,0-2.6,2,5,5,0,0,0-1,3.25,4.78,4.78,0,0,0,1.55,3.65,12.22,12.22,0,0,0,4,2.4,33.56,33.56,0,0,0,5.4,1.6q3,.66,6,1.35c2.13.47,4.22,1,6.25,1.7a20.58,20.58,0,0,1,5.4,2.65,13,13,0,0,1,3.8,4.15,12.18,12.18,0,0,1,1.45,6.2,14.37,14.37,0,0,1-1.95,7.8,15.15,15.15,0,0,1-5.1,5,21.27,21.27,0,0,1-7.1,2.65,42,42,0,0,1-7.85.75,36.35,36.35,0,0,1-8.2-.9,20.05,20.05,0,0,1-6.9-2.95,14.93,14.93,0,0,1-4.8-5.4,18.65,18.65,0,0,1-2-8.15h8.5A9.59,9.59,0,0,0,437.43,95.71Z"/><line class="f4a95b0e-3a1e-49db-8dfe-c4c6103e79ab" x1="108.74" y1="35.86" x2="160.05" y2="69.16"/><line class="f4a95b0e-3a1e-49db-8dfe-c4c6103e79ab" x1="197.14" y1="59.81" x2="213.32" y2="70.31"/><line class="f4a95b0e-3a1e-49db-8dfe-c4c6103e79ab" x1="258.44" y1="72.31" x2="271.23" y2="80.61"/><line class="f4a95b0e-3a1e-49db-8dfe-c4c6103e79ab" x1="279.55" y1="40.36" x2="307.53" y2="58.52"/><line class="f4a95b0e-3a1e-49db-8dfe-c4c6103e79ab" x1="335.55" y1="57.96" x2="356.53" y2="71.58"/><line class="f4a95b0e-3a1e-49db-8dfe-c4c6103e79ab" x1="383.72" y1="54.35" x2="409.23" y2="70.9"/><line class="f4a95b0e-3a1e-49db-8dfe-c4c6103e79ab" x1="417.73" y1="55.56" x2="430.32" y2="63.73"/><line class="f4a95b0e-3a1e-49db-8dfe-c4c6103e79ab" x1="417.73" y1="36.67" x2="445.34" y2="54.58"/><line class="f4a95b0e-3a1e-49db-8dfe-c4c6103e79ab" x1="393.93" y1="96.16" x2="409.11" y2="106.01"/></g><g id="a562993c-b9ce-4043-9811-f565caba332e" data-name="Layer 5"><path class="bf02f8a4-5eaf-42cf-8cec-efc974a07eb4" d="M108.74,35.86H98.54l25.1,71.4h10.8l25.4-71.4h-9.9l-20.6,61.9h-.2l-20.4-61.9,51.31,33.3c-.18.43-.35.86-.51,1.3a31.14,31.14,0,0,0-1.8,10.8,41,41,0,0,0,1.75,10.9,23.63,23.63,0,0,0,4.65,8.6,21,21,0,0,0,7.65,5.6,26.58,26.58,0,0,0,10.75,2q8.79,0,14.6-4.4t7.5-13.1h-8.4a12.1,12.1,0,0,1-4.55,7.6,14.69,14.69,0,0,1-8.85,2.5,17.48,17.48,0,0,1-7.3-1.4,14.17,14.17,0,0,1-5.1-3.75,14.41,14.41,0,0,1-2.9-5.4,20.4,20.4,0,0,1-.8-6.45h38.7a41.36,41.36,0,0,0-.85-9.9,1,1,0,0,1,0-.17,28.82,28.82,0,0,0-3.76-9.43A22.61,22.61,0,0,0,197.14,60a23.73,23.73,0,0,0-3.65-2.81A21.23,21.23,0,0,0,182,54.36a23.52,23.52,0,0,0-9.75,2,22.91,22.91,0,0,0-7.7,5.6,25.36,25.36,0,0,0-4.54,7.2l7.07,4.59a17.17,17.17,0,0,0-.38,2.71h29.7a17.73,17.73,0,0,0-1.35-5.7,14.62,14.62,0,0,0-3.1-4.65,14.38,14.38,0,0,0-2.27-1.84A14.84,14.84,0,0,0,187.39,63a14.68,14.68,0,0,0-5.85-1.15A14.89,14.89,0,0,0,175.59,63,13.74,13.74,0,0,0,171,66.16a15.11,15.11,0,0,0-3,4.65,16.71,16.71,0,0,0-.92,2.94,16.71,16.71,0,0,1,.92-2.94,15.11,15.11,0,0,1,3-4.65A13.74,13.74,0,0,1,175.59,63a14.89,14.89,0,0,1,5.95-1.15A14.68,14.68,0,0,1,187.39,63a14.84,14.84,0,0,1,2.33,1.26l14.83,9.62a28.82,28.82,0,0,0-3.76-9.43A22.61,22.61,0,0,0,197.14,60l-.7-.64,16.8,10.88h0c-.11.31-.21.63-.3.95a38,38,0,0,0-1.5,10.85A34.6,34.6,0,0,0,213,92.71a23.12,23.12,0,0,0,4.6,8.35,20,20,0,0,0,7.6,5.4,26.83,26.83,0,0,0,10.45,1.9q9.9,0,15.65-5.2t7.15-14.8h-8.7a15,15,0,0,1-4.35,9.3q-3.55,3.3-9.85,3.3a14,14,0,0,1-6.9-1.6,13.27,13.27,0,0,1-4.7-4.25,18.53,18.53,0,0,1-2.65-6,28.55,28.55,0,0,1-.85-7,34.79,34.79,0,0,1,.8-7.55,18.79,18.79,0,0,1,2.65-6.45,13.79,13.79,0,0,1,5-4.5,15.86,15.86,0,0,1,7.7-1.7,11.9,11.9,0,0,1,12.8,10.3h8.8a20.73,20.73,0,0,0-2.4-8,18,18,0,0,0-4.85-5.55,20.31,20.31,0,0,0-6.8-3.25,31.28,31.28,0,0,0-8.25-1,25,25,0,0,0-10.7,2.15,21.37,21.37,0,0,0-7.65,5.9,24.66,24.66,0,0,0-4.25,7.85,24.66,24.66,0,0,1,4.25-7.85,21.37,21.37,0,0,1,7.65-5.9,25,25,0,0,1,10.7-2.15,31.28,31.28,0,0,1,8.25,1,20.31,20.31,0,0,1,6.8,3.25,18,18,0,0,1,4.85,5.55,20.73,20.73,0,0,1,2.4,8l13.09,8.45V96a19.84,19.84,0,0,0,.7,5.8,7.11,7.11,0,0,0,2.15,3.4,8.35,8.35,0,0,0,3.8,1.65,30.55,30.55,0,0,0,5.65.45H290v-7.5h-3.9a28.47,28.47,0,0,1-3.25-.15,4.15,4.15,0,0,1-1.95-.65,2.51,2.51,0,0,1-.95-1.4,9.58,9.58,0,0,1-.25-2.4V78.25"/><circle class="a08ae31e-5943-4e98-a0be-58989639e09c" cx="279.73" cy="78.25" r="3"/></g></svg>