<svg id="Layer_1" data-name="Layer 1" xmlns="http://www.w3.org/2000/svg" viewBox="0 0 600 300"><defs><style>.cls-1,.cls-2,.cls-5{fill:none;stroke-miterlimit:10;}.cls-1,.cls-2{stroke:#010101;}.cls-2{stroke-dasharray:6.26 6.26;}.cls-3{fill:#999;}.cls-4{fill:#231f20;}.cls-5{stroke:#000;}</style></defs><title>transform-rotate</title><g id="rect109-2"><polyline class="cls-1" points="243.75 96.25 243.75 93.25 246.75 93.25"/><line class="cls-2" x1="253.01" y1="93.25" x2="350.12" y2="93.25"/><polyline class="cls-1" points="353.25 93.25 356.25 93.25 356.25 96.25"/><line class="cls-2" x1="356.25" y1="102.51" x2="356.25" y2="199.62"/><polyline class="cls-1" points="356.25 202.75 356.25 205.75 353.25 205.75"/><line class="cls-2" x1="346.99" y1="205.75" x2="249.88" y2="205.75"/><polyline class="cls-1" points="246.75 205.75 243.75 205.75 243.75 202.75"/><line class="cls-2" x1="243.75" y1="196.49" x2="243.75" y2="99.38"/></g><rect id="rect109-2-2" data-name="rect109-2" class="cls-3" x="243.75" y="93.25" width="112.5" height="112.5" transform="translate(-17.84 255.92) rotate(-45)"/><path class="cls-4" d="M48.54,271v-.35l5.66-3.45.45.75-4.76,2.82,4.77,2.77-.45.72Z"/><path class="cls-4" d="M56,274.7v-.81h1.62V269.5H56v-.8h2.24l.19.78h.06a4.51,4.51,0,0,1,.91-.64,2.53,2.53,0,0,1,1.2-.26,1.26,1.26,0,0,1,.66.15,1.09,1.09,0,0,1,.38.46,2.36,2.36,0,0,1,.19.72,9.35,9.35,0,0,1,.05,1H61a3.09,3.09,0,0,0-.15-1.12.55.55,0,0,0-.55-.35,2,2,0,0,0-.67.1,2.11,2.11,0,0,0-.52.27,2,2,0,0,0-.38.31,1.58,1.58,0,0,0-.23.26v3.53h2.3v.81Z"/><path class="cls-4" d="M68.75,273.94a2.55,2.55,0,0,1-.51.36,4.15,4.15,0,0,1-.64.29,4.33,4.33,0,0,1-.73.18,3.84,3.84,0,0,1-.76.07,3.35,3.35,0,0,1-1.27-.22,2.35,2.35,0,0,1-.92-.64,2.68,2.68,0,0,1-.57-1,4.46,4.46,0,0,1,0-2.64,2.58,2.58,0,0,1,1.57-1.59,3.54,3.54,0,0,1,1.26-.21,4.2,4.2,0,0,1,1,.13,2,2,0,0,1,.87.5,2.36,2.36,0,0,1,.58,1,4.58,4.58,0,0,1,.15,1.66H64.16a2.1,2.1,0,0,0,.58,1.62,2.21,2.21,0,0,0,1.55.53,2.87,2.87,0,0,0,.64-.08,5.26,5.26,0,0,0,.6-.18l.51-.24a2.37,2.37,0,0,0,.34-.24Zm-2.53-4.6a2.94,2.94,0,0,0-.74.09,1.59,1.59,0,0,0-1.07.8,2.11,2.11,0,0,0-.22.78h3.72a1.83,1.83,0,0,0-.51-1.23A1.62,1.62,0,0,0,66.22,269.34Z"/><path class="cls-4" d="M74.87,269.62a4.59,4.59,0,0,0-.59-.16,2.7,2.7,0,0,0-.63-.07,2.46,2.46,0,0,0-1.75.55,2.33,2.33,0,0,0-.58,1.76,2.59,2.59,0,0,0,.17.95,1.9,1.9,0,0,0,.48.7,2.34,2.34,0,0,0,.75.45,2.93,2.93,0,0,0,1,.15,3.14,3.14,0,0,0,1.1-.19,2.63,2.63,0,0,0,.9-.52l.42.7a3.82,3.82,0,0,1-.42.3,4.64,4.64,0,0,1-.59.29,3.68,3.68,0,0,1-.73.23,4.77,4.77,0,0,1-.87.08,3.82,3.82,0,0,1-1.37-.22,2.53,2.53,0,0,1-1-.64,2.56,2.56,0,0,1-.6-1,3.79,3.79,0,0,1-.21-1.29,4,4,0,0,1,.21-1.35,2.63,2.63,0,0,1,.61-1,2.51,2.51,0,0,1,1-.61,3.62,3.62,0,0,1,1.26-.21,5.33,5.33,0,0,1,1.45.16,5,5,0,0,1,.94.35v1.7h-.87Z"/><path class="cls-4" d="M77.18,268.7H78.6v-1.19l1-.27v1.46h3.21v.8H79.55v2.83a1.73,1.73,0,0,0,.43,1.3,1.63,1.63,0,0,0,1.21.42,2,2,0,0,0,.94-.21,4.18,4.18,0,0,0,.72-.44l.31.71a3.53,3.53,0,0,1-1,.54,3.72,3.72,0,0,1-1.19.2,2.75,2.75,0,0,1-.91-.14,2.13,2.13,0,0,1-.75-.42,2,2,0,0,1-.51-.74,2.69,2.69,0,0,1-.2-1.07v-3H77.18Z"/><path class="cls-4" d="M94.24,271.62l-2.32-2.92h1.2L94.85,271l1.78-2.25h1.08l-2.32,2.88,2.46,3.12H96.7l-1.91-2.46-1.94,2.46h-1.1Z"/><path class="cls-4" d="M99.22,269.21h5.57v.87H99.22Zm0,2h5.57V272H99.22Z"/><path class="cls-4" d="M107.19,266.55a.67.67,0,0,1,.21-.52.77.77,0,0,1,.53-.19.88.88,0,0,1,.67.25,1,1,0,0,1,.26.76,2.29,2.29,0,0,1-.14.83,2.42,2.42,0,0,1-.34.6,1.74,1.74,0,0,1-.41.37,1.61,1.61,0,0,1-.39.2l-.36-.49a2.13,2.13,0,0,0,.59-.43,1,1,0,0,0,.24-.67h-.14a.7.7,0,0,1-.5-.21A.64.64,0,0,1,107.19,266.55Zm2.4,0a.67.67,0,0,1,.21-.52.77.77,0,0,1,.53-.19.88.88,0,0,1,.67.25,1,1,0,0,1,.26.76,2.29,2.29,0,0,1-.14.83,2.14,2.14,0,0,1-.34.6,1.74,1.74,0,0,1-.41.37,1.61,1.61,0,0,1-.39.2l-.36-.49a2.13,2.13,0,0,0,.59-.43,1,1,0,0,0,.24-.67h-.14a.7.7,0,0,1-.5-.21A.64.64,0,0,1,109.59,266.55Z"/><path class="cls-4" d="M115.78,274a2.75,2.75,0,0,0,.88-.13,2.19,2.19,0,0,0,.7-.35,1.55,1.55,0,0,0,.47-.55,1.53,1.53,0,0,0,.17-.72,1.26,1.26,0,0,0-.58-1.17,3,3,0,0,0-1.57-.36h-.77v-.57l2.38-3h-3.6v-.86h4.75v.86l-2.38,2.77h.2a3,3,0,0,1,1,.16,2.39,2.39,0,0,1,.8.44,2,2,0,0,1,.52.7,2.26,2.26,0,0,1,.19.92,2.5,2.5,0,0,1-.26,1.15,2.35,2.35,0,0,1-.68.85,3.07,3.07,0,0,1-1,.52,4.53,4.53,0,0,1-1.24.17,5.55,5.55,0,0,1-1.07-.09,5.7,5.7,0,0,1-.82-.23l.24-.84a3.93,3.93,0,0,0,.73.23A4.58,4.58,0,0,0,115.78,274Z"/><path class="cls-4" d="M120.66,270.5a8.47,8.47,0,0,1,.18-1.83,4.17,4.17,0,0,1,.54-1.37,2.41,2.41,0,0,1,.92-.85,2.7,2.7,0,0,1,1.31-.3,2.94,2.94,0,0,1,1.36.29,2.23,2.23,0,0,1,.91.84,4.1,4.1,0,0,1,.51,1.36,10.3,10.3,0,0,1,.15,1.86,8.47,8.47,0,0,1-.18,1.83,4.11,4.11,0,0,1-.54,1.36,2.41,2.41,0,0,1-.91.86,2.84,2.84,0,0,1-1.31.29,2.76,2.76,0,0,1-1.36-.32,2.58,2.58,0,0,1-.91-.89,4,4,0,0,1-.51-1.38A8.62,8.62,0,0,1,120.66,270.5Zm1,0c0,.2,0,.39,0,.57s0,.37,0,.54l3.57-3.24a2.33,2.33,0,0,0-.6-1,1.49,1.49,0,0,0-1.09-.38,1.53,1.53,0,0,0-1.5.88A6.09,6.09,0,0,0,121.66,270.5Zm3.89,0a9.49,9.49,0,0,0-.08-1.22l-3.56,3.26a2.61,2.61,0,0,0,.61,1.09,1.46,1.46,0,0,0,1.07.41,1.58,1.58,0,0,0,1.51-.88A6,6,0,0,0,125.55,270.5Z"/><path class="cls-4" d="M127.86,270.5a8.47,8.47,0,0,1,.18-1.83,4.17,4.17,0,0,1,.54-1.37,2.49,2.49,0,0,1,.92-.85,2.7,2.7,0,0,1,1.31-.3,2.94,2.94,0,0,1,1.36.29,2.23,2.23,0,0,1,.91.84,4.1,4.1,0,0,1,.51,1.36,10.3,10.3,0,0,1,.15,1.86,8.47,8.47,0,0,1-.18,1.83,4.11,4.11,0,0,1-.54,1.36,2.41,2.41,0,0,1-.91.86,2.84,2.84,0,0,1-1.31.29,2.76,2.76,0,0,1-1.36-.32,2.58,2.58,0,0,1-.91-.89,4,4,0,0,1-.51-1.38A9.4,9.4,0,0,1,127.86,270.5Zm1,0c0,.2,0,.39,0,.57s0,.37,0,.54l3.58-3.24a2.44,2.44,0,0,0-.61-1,1.49,1.49,0,0,0-1.09-.38,1.53,1.53,0,0,0-1.5.88A6.09,6.09,0,0,0,128.86,270.5Zm3.89,0a9.49,9.49,0,0,0-.08-1.22l-3.56,3.26a2.61,2.61,0,0,0,.61,1.09,1.47,1.47,0,0,0,1.07.41,1.57,1.57,0,0,0,1.51-.88A6,6,0,0,0,132.75,270.5Z"/><path class="cls-4" d="M136,266.55a.67.67,0,0,1,.21-.52.77.77,0,0,1,.53-.19.9.9,0,0,1,.67.25,1,1,0,0,1,.25.76,2.3,2.3,0,0,1-.13.83,2.42,2.42,0,0,1-.34.6,1.74,1.74,0,0,1-.41.37,1.81,1.81,0,0,1-.39.2l-.36-.49a2,2,0,0,0,.58-.43.93.93,0,0,0,.25-.67h-.14a.7.7,0,0,1-.5-.21A.64.64,0,0,1,136,266.55Zm2.4,0a.67.67,0,0,1,.21-.52.77.77,0,0,1,.53-.19.9.9,0,0,1,.67.25,1,1,0,0,1,.25.76,2.3,2.3,0,0,1-.13.83,2.42,2.42,0,0,1-.34.6,1.74,1.74,0,0,1-.41.37,1.81,1.81,0,0,1-.39.2l-.36-.49a2,2,0,0,0,.58-.43.93.93,0,0,0,.25-.67h-.14a.7.7,0,0,1-.5-.21A.64.64,0,0,1,138.39,266.55Z"/><path class="cls-4" d="M152.54,273.77H153l1.49-5.07h1l-1.67,5.38q-.14.42-.27,1a4.33,4.33,0,0,1-.39,1,2.24,2.24,0,0,1-.68.79,1.83,1.83,0,0,1-1.13.33,2.11,2.11,0,0,1-.33,0,1.89,1.89,0,0,1-.34-.09,2.22,2.22,0,0,1-.31-.13.64.64,0,0,1-.22-.14l.34-.86a1,1,0,0,0,.19.12l.28.1.29.07.25,0c.59,0,1-.51,1.22-1.52h-.8l-2.53-6h1.08Z"/><path class="cls-4" d="M156.82,269.21h5.57v.87h-5.57Zm0,2h5.57V272h-5.57Z"/><path class="cls-4" d="M164.79,266.55A.67.67,0,0,1,165,266a.77.77,0,0,1,.53-.19.9.9,0,0,1,.67.25,1,1,0,0,1,.25.76,2.3,2.3,0,0,1-.13.83,2.42,2.42,0,0,1-.34.6,1.74,1.74,0,0,1-.41.37,1.81,1.81,0,0,1-.39.2l-.36-.49a2,2,0,0,0,.58-.43.93.93,0,0,0,.25-.67h-.14a.7.7,0,0,1-.5-.21A.64.64,0,0,1,164.79,266.55Zm2.4,0a.67.67,0,0,1,.21-.52.77.77,0,0,1,.53-.19.9.9,0,0,1,.67.25,1,1,0,0,1,.25.76,2.3,2.3,0,0,1-.13.83,2.42,2.42,0,0,1-.34.6,1.74,1.74,0,0,1-.41.37,1.81,1.81,0,0,1-.39.2l-.36-.49a2,2,0,0,0,.58-.43.93.93,0,0,0,.25-.67h-.14a.7.7,0,0,1-.5-.21A.64.64,0,0,1,167.19,266.55Z"/><path class="cls-4" d="M171.93,273.83h1.88v-6.31l-1.92,1.34-.47-.68,2.64-1.88h.67v7.53h1.85v.87h-4.65Z"/><path class="cls-4" d="M180.67,274a3.11,3.11,0,0,0,.84-.11,1.89,1.89,0,0,0,.66-.35,1.63,1.63,0,0,0,.42-.58,2.1,2.1,0,0,0,.15-.82,1.52,1.52,0,0,0-.62-1.31,2.8,2.8,0,0,0-1.69-.45l-1.12.06V266.3h4.12v.86h-3.22v2.44l.6,0a3.21,3.21,0,0,1,2.11.65,2.29,2.29,0,0,1,.77,1.85,2.81,2.81,0,0,1-.24,1.19,2.66,2.66,0,0,1-.64.87,2.84,2.84,0,0,1-1,.53,4,4,0,0,1-1.22.18,5.09,5.09,0,0,1-.69,0,4.65,4.65,0,0,1-.59-.14,3.5,3.5,0,0,1-.46-.16,1.06,1.06,0,0,1-.28-.17l.38-.78a5,5,0,0,0,.63.29A2.9,2.9,0,0,0,180.67,274Z"/><path class="cls-4" d="M185.46,270.5a8.47,8.47,0,0,1,.18-1.83,4.17,4.17,0,0,1,.54-1.37,2.41,2.41,0,0,1,.92-.85,2.7,2.7,0,0,1,1.31-.3,3,3,0,0,1,1.36.29,2.23,2.23,0,0,1,.91.84,4.1,4.1,0,0,1,.51,1.36,10.3,10.3,0,0,1,.15,1.86,8.47,8.47,0,0,1-.18,1.83,4.11,4.11,0,0,1-.54,1.36,2.41,2.41,0,0,1-.91.86,2.84,2.84,0,0,1-1.31.29,2.76,2.76,0,0,1-1.36-.32,2.58,2.58,0,0,1-.91-.89,4,4,0,0,1-.51-1.38A8.62,8.62,0,0,1,185.46,270.5Zm1,0a5.24,5.24,0,0,0,0,.57c0,.19,0,.37,0,.54l3.57-3.24a2.33,2.33,0,0,0-.6-1,1.49,1.49,0,0,0-1.09-.38,1.53,1.53,0,0,0-1.5.88A6.09,6.09,0,0,0,186.46,270.5Zm3.89,0a9.49,9.49,0,0,0-.08-1.22l-3.56,3.26a2.61,2.61,0,0,0,.61,1.09,1.46,1.46,0,0,0,1.07.41,1.58,1.58,0,0,0,1.51-.88A6,6,0,0,0,190.35,270.5Z"/><path class="cls-4" d="M193.59,266.55a.67.67,0,0,1,.21-.52.77.77,0,0,1,.53-.19.9.9,0,0,1,.67.25,1,1,0,0,1,.25.76,2.3,2.3,0,0,1-.13.83,2.42,2.42,0,0,1-.34.6,1.74,1.74,0,0,1-.41.37,1.81,1.81,0,0,1-.39.2l-.36-.49a2,2,0,0,0,.58-.43.93.93,0,0,0,.25-.67h-.14a.7.7,0,0,1-.5-.21A.64.64,0,0,1,193.59,266.55Zm2.4,0a.67.67,0,0,1,.21-.52.77.77,0,0,1,.53-.19.9.9,0,0,1,.67.25,1,1,0,0,1,.25.76,2.3,2.3,0,0,1-.13.83,2.42,2.42,0,0,1-.34.6,1.74,1.74,0,0,1-.41.37,1.81,1.81,0,0,1-.39.2l-.36-.49a2,2,0,0,0,.58-.43.93.93,0,0,0,.25-.67h-.14a.7.7,0,0,1-.5-.21A.64.64,0,0,1,196,266.55Z"/><path class="cls-4" d="M210.47,270l1.2,3.33h.08l.86-4.65h.87l-1.17,6h-1.07l-1.16-3.32h0l-1.2,3.32h-1.07l-1.26-6h.93l1,4.68h.07l1.16-3.36Z"/><path class="cls-4" d="M214.86,274.7v-.81H217V269.5h-2.09v-.8h3v5.19h2v.81Zm1.75-7.71a.84.84,0,0,1,.22-.56.73.73,0,0,1,.55-.23.8.8,0,0,1,.58.23.77.77,0,0,1,.24.56.68.68,0,0,1-.24.53.83.83,0,0,1-.58.22.76.76,0,0,1-.55-.22A.73.73,0,0,1,216.61,267Z"/><path class="cls-4" d="M225,266.3h2v6.34c0,.08,0,.17,0,.27l0,.35c0,.12,0,.23.05.35s0,.22,0,.31h.81v.78h-1.61l-.12-.93h0a2,2,0,0,1-.78.76,2.28,2.28,0,0,1-1.2.31,2.46,2.46,0,0,1-2-.76,4.51,4.51,0,0,1-.42-3.71,2.59,2.59,0,0,1,.61-1,2.74,2.74,0,0,1,1-.6,3.77,3.77,0,0,1,1.25-.2H225l.37,0a3,3,0,0,1,.32.06l.32.09v-1.7h-1Zm-.72,7.74a1.66,1.66,0,0,0,1.15-.38,2,2,0,0,0,.57-1.14v-2.78a1.66,1.66,0,0,0-.59-.26,3.38,3.38,0,0,0-.86-.09A2,2,0,0,0,223,270a2.41,2.41,0,0,0-.55,1.76,4.49,4.49,0,0,0,.09.92,2,2,0,0,0,.3.73,1.47,1.47,0,0,0,.55.5A1.84,1.84,0,0,0,224.26,274Z"/><path class="cls-4" d="M228.37,268.7h1.43v-1.19l.95-.27v1.46H234v.8h-3.2v2.83a1.77,1.77,0,0,0,.42,1.3,1.67,1.67,0,0,0,1.22.42,2,2,0,0,0,.94-.21,5.12,5.12,0,0,0,.72-.44l.31.71a3.53,3.53,0,0,1-1,.54,3.76,3.76,0,0,1-1.19.2,2.67,2.67,0,0,1-.91-.14,2,2,0,0,1-.75-.42,2,2,0,0,1-.52-.74,2.88,2.88,0,0,1-.19-1.07v-3h-1.43Z"/><path class="cls-4" d="M235.25,266.3h1.87v3.14h.06a2.68,2.68,0,0,1,.86-.65,2.81,2.81,0,0,1,1.23-.24,3.7,3.7,0,0,1,1,.12,1.47,1.47,0,0,1,.7.42,2,2,0,0,1,.4.82,5.47,5.47,0,0,1,.13,1.33v3.46h-.95v-3.28a6,6,0,0,0-.06-.9,1.47,1.47,0,0,0-.23-.64,1.12,1.12,0,0,0-.47-.39,1.9,1.9,0,0,0-.77-.13,1.74,1.74,0,0,0-.63.11,2.24,2.24,0,0,0-.57.31,1.84,1.84,0,0,0-.44.48,1.78,1.78,0,0,0-.26.62v3.82h-.92v-7.6h-.95Z"/><path class="cls-4" d="M243.22,269.21h5.57v.87h-5.57Zm0,2h5.57V272h-5.57Z"/><path class="cls-4" d="M251.18,266.55a.68.68,0,0,1,.22-.52.75.75,0,0,1,.53-.19.9.9,0,0,1,.67.25,1,1,0,0,1,.25.76,2.09,2.09,0,0,1-.14.83,2.13,2.13,0,0,1-.33.6,1.6,1.6,0,0,1-.42.37,1.56,1.56,0,0,1-.38.2l-.36-.49a2.09,2.09,0,0,0,.58-.43.93.93,0,0,0,.25-.67h-.15a.68.68,0,0,1-.49-.21A.65.65,0,0,1,251.18,266.55Zm2.4,0a.68.68,0,0,1,.22-.52.75.75,0,0,1,.53-.19.9.9,0,0,1,.67.25,1,1,0,0,1,.25.76,2.09,2.09,0,0,1-.14.83,2.13,2.13,0,0,1-.33.6,1.6,1.6,0,0,1-.42.37,1.56,1.56,0,0,1-.38.2l-.36-.49a2.09,2.09,0,0,0,.58-.43.93.93,0,0,0,.25-.67h-.15a.68.68,0,0,1-.49-.21A.65.65,0,0,1,253.58,266.55Z"/><path class="cls-4" d="M258.33,273.83h1.88v-6.31l-1.92,1.34-.47-.68,2.64-1.88h.67v7.53H263v.87h-4.65Z"/><path class="cls-4" d="M267.07,274a3.11,3.11,0,0,0,.84-.11,1.89,1.89,0,0,0,.66-.35A1.63,1.63,0,0,0,269,273a2.1,2.1,0,0,0,.15-.82,1.52,1.52,0,0,0-.62-1.31,2.82,2.82,0,0,0-1.69-.45l-1.12.06V266.3h4.12v.86H266.6v2.44l.61,0a3.16,3.16,0,0,1,2.1.65,2.26,2.26,0,0,1,.77,1.85,2.81,2.81,0,0,1-.23,1.19,2.66,2.66,0,0,1-.64.87,2.94,2.94,0,0,1-1,.53,4,4,0,0,1-1.22.18,5.09,5.09,0,0,1-.69,0,4.65,4.65,0,0,1-.59-.14,3.5,3.5,0,0,1-.46-.16,1.06,1.06,0,0,1-.28-.17l.38-.78a4.75,4.75,0,0,0,.62.29A3,3,0,0,0,267.07,274Z"/><path class="cls-4" d="M271.86,270.5a8.47,8.47,0,0,1,.18-1.83,4.17,4.17,0,0,1,.54-1.37,2.41,2.41,0,0,1,.92-.85,2.67,2.67,0,0,1,1.31-.3,3,3,0,0,1,1.36.29,2.29,2.29,0,0,1,.91.84,3.89,3.89,0,0,1,.5,1.36,9.41,9.41,0,0,1,.16,1.86,8.47,8.47,0,0,1-.18,1.83,4.11,4.11,0,0,1-.54,1.36,2.44,2.44,0,0,1-.92.86,2.79,2.79,0,0,1-1.31.29,2.7,2.7,0,0,1-1.35-.32,2.5,2.5,0,0,1-.91-.89,4,4,0,0,1-.51-1.38A8.62,8.62,0,0,1,271.86,270.5Zm1,0c0,.2,0,.39,0,.57s0,.37.05.54l3.57-3.24a2.42,2.42,0,0,0-.6-1,1.49,1.49,0,0,0-1.09-.38,1.56,1.56,0,0,0-1.51.88A6.26,6.26,0,0,0,272.86,270.5Zm3.88,0a9.54,9.54,0,0,0-.07-1.22l-3.56,3.26a2.51,2.51,0,0,0,.61,1.09,1.46,1.46,0,0,0,1.07.41,1.57,1.57,0,0,0,1.5-.88A6,6,0,0,0,276.74,270.5Z"/><path class="cls-4" d="M280,266.55a.68.68,0,0,1,.22-.52.75.75,0,0,1,.53-.19.9.9,0,0,1,.67.25,1,1,0,0,1,.25.76,2.09,2.09,0,0,1-.14.83,2.13,2.13,0,0,1-.33.6,1.6,1.6,0,0,1-.42.37,1.56,1.56,0,0,1-.38.2l-.36-.49a2.09,2.09,0,0,0,.58-.43.93.93,0,0,0,.25-.67h-.15a.68.68,0,0,1-.49-.21A.65.65,0,0,1,280,266.55Zm2.4,0a.68.68,0,0,1,.22-.52.75.75,0,0,1,.53-.19.9.9,0,0,1,.67.25,1,1,0,0,1,.25.76,2.09,2.09,0,0,1-.14.83,2.13,2.13,0,0,1-.33.6,1.6,1.6,0,0,1-.42.37,1.56,1.56,0,0,1-.38.2l-.36-.49a2.09,2.09,0,0,0,.58-.43.93.93,0,0,0,.25-.67h-.15a.68.68,0,0,1-.49-.21A.65.65,0,0,1,282.38,266.55Z"/><path class="cls-4" d="M292.85,266.3h1.87v3.14h.06a2.68,2.68,0,0,1,.86-.65,2.81,2.81,0,0,1,1.23-.24,3.7,3.7,0,0,1,1,.12,1.47,1.47,0,0,1,.7.42,2,2,0,0,1,.4.82,5.47,5.47,0,0,1,.13,1.33v3.46h-1v-3.28a6,6,0,0,0-.06-.9,1.61,1.61,0,0,0-.23-.64,1.12,1.12,0,0,0-.47-.39,1.9,1.9,0,0,0-.77-.13,1.71,1.71,0,0,0-.63.11,2.24,2.24,0,0,0-.57.31,1.84,1.84,0,0,0-.44.48,1.78,1.78,0,0,0-.26.62v3.82h-.92v-7.6h-.95Z"/><path class="cls-4" d="M306.35,273.94a3.3,3.3,0,0,1-.51.36,4.15,4.15,0,0,1-.64.29,4.58,4.58,0,0,1-.73.18,3.91,3.91,0,0,1-.76.07,3.31,3.31,0,0,1-1.27-.22,2.46,2.46,0,0,1-.93-.64,2.67,2.67,0,0,1-.56-1,4.46,4.46,0,0,1,0-2.64,2.62,2.62,0,0,1,.6-1,2.67,2.67,0,0,1,1-.61,3.62,3.62,0,0,1,1.26-.21,4.22,4.22,0,0,1,1,.13,2,2,0,0,1,.87.5,2.47,2.47,0,0,1,.58,1,4.6,4.6,0,0,1,.14,1.66h-4.63a2.13,2.13,0,0,0,.58,1.62,2.24,2.24,0,0,0,1.55.53,2.74,2.74,0,0,0,.64-.08,5.43,5.43,0,0,0,.61-.18l.51-.24a3.13,3.13,0,0,0,.34-.24Zm-2.53-4.6a3.08,3.08,0,0,0-.75.09,1.67,1.67,0,0,0-.62.28,1.41,1.41,0,0,0-.44.52,1.94,1.94,0,0,0-.22.78h3.72a1.83,1.83,0,0,0-.51-1.23A1.62,1.62,0,0,0,303.82,269.34Z"/><path class="cls-4" d="M308.46,274.7v-.81h2.09V269.5h-2.09v-.8h3v5.19h2v.81Zm1.75-7.71a.79.79,0,0,1,.22-.56.73.73,0,0,1,.55-.23.8.8,0,0,1,.58.23.77.77,0,0,1,.24.56.68.68,0,0,1-.24.53.83.83,0,0,1-.58.22.76.76,0,0,1-.55-.22A.69.69,0,0,1,310.21,267Z"/><path class="cls-4" d="M320.69,275a2.12,2.12,0,0,1-.22,1,2,2,0,0,1-.59.7,2.85,2.85,0,0,1-.88.41,4.3,4.3,0,0,1-1.1.14,5,5,0,0,1-1.23-.14,3.46,3.46,0,0,1-.91-.38l.45-.85a1.24,1.24,0,0,0,.28.19l.4.17a3.51,3.51,0,0,0,.49.12,2.92,2.92,0,0,0,.5,0,3.09,3.09,0,0,0,.88-.1,1.2,1.2,0,0,0,.57-.3,1.05,1.05,0,0,0,.31-.52,2.64,2.64,0,0,0,.1-.8V274h-.05a1.79,1.79,0,0,1-.7.61,3,3,0,0,1-3.12-.54,3.63,3.63,0,0,1-.64-2.37,3.07,3.07,0,0,1,.81-2.32,3.37,3.37,0,0,1,2.43-.79,6.49,6.49,0,0,1,1.26.1,7.38,7.38,0,0,1,1,.26ZM318,274a1.66,1.66,0,0,0,1.15-.38,2.15,2.15,0,0,0,.58-1.16v-2.84a3.43,3.43,0,0,0-1.47-.26,2,2,0,0,0-1.5.57,2.41,2.41,0,0,0-.55,1.73,4,4,0,0,0,.1.94,2.13,2.13,0,0,0,.3.74,1.42,1.42,0,0,0,.55.48A1.8,1.8,0,0,0,318,274Z"/><path class="cls-4" d="M321.65,266.3h1.87v3.14h.06a2.68,2.68,0,0,1,.86-.65,2.81,2.81,0,0,1,1.23-.24,3.7,3.7,0,0,1,1,.12,1.47,1.47,0,0,1,.7.42,2,2,0,0,1,.4.82,5.47,5.47,0,0,1,.13,1.33v3.46H327v-3.28a6,6,0,0,0-.06-.9,1.61,1.61,0,0,0-.23-.64,1.12,1.12,0,0,0-.47-.39,1.9,1.9,0,0,0-.77-.13,1.71,1.71,0,0,0-.63.11,2.24,2.24,0,0,0-.57.31,1.84,1.84,0,0,0-.44.48,1.78,1.78,0,0,0-.26.62v3.82h-.92v-7.6h-1Z"/><path class="cls-4" d="M329.17,268.7h1.43v-1.19l.95-.27v1.46h3.2v.8h-3.2v2.83a1.77,1.77,0,0,0,.42,1.3,1.67,1.67,0,0,0,1.22.42,2,2,0,0,0,.93-.21,4.71,4.71,0,0,0,.73-.44l.31.71a3.53,3.53,0,0,1-1,.54,3.78,3.78,0,0,1-1.2.2,2.65,2.65,0,0,1-.9-.14,2,2,0,0,1-.75-.42,2,2,0,0,1-.52-.74,2.69,2.69,0,0,1-.19-1.07v-3h-1.43Z"/><path class="cls-4" d="M336.82,269.21h5.56v.87h-5.56Zm0,2h5.56V272h-5.56Z"/><path class="cls-4" d="M344.78,266.55A.68.68,0,0,1,345,266a.75.75,0,0,1,.53-.19.9.9,0,0,1,.67.25,1,1,0,0,1,.25.76,2.09,2.09,0,0,1-.14.83,2.13,2.13,0,0,1-.33.6,1.6,1.6,0,0,1-.42.37,1.56,1.56,0,0,1-.38.2l-.36-.49a2.09,2.09,0,0,0,.58-.43.93.93,0,0,0,.25-.67h-.15a.72.72,0,0,1-.5-.21A.67.67,0,0,1,344.78,266.55Zm2.4,0a.65.65,0,0,1,.22-.52.75.75,0,0,1,.53-.19.9.9,0,0,1,.67.25,1,1,0,0,1,.25.76,2.29,2.29,0,0,1-.14.83,2.13,2.13,0,0,1-.33.6,1.6,1.6,0,0,1-.42.37,1.56,1.56,0,0,1-.38.2l-.36-.49a2.09,2.09,0,0,0,.58-.43,1,1,0,0,0,.25-.67h-.15a.68.68,0,0,1-.49-.21A.65.65,0,0,1,347.18,266.55Z"/><path class="cls-4" d="M351.92,273.83h1.89v-6.31l-1.92,1.34-.47-.68,2.64-1.88h.67v7.53h1.85v.87h-4.66Z"/><path class="cls-4" d="M360.67,274a3.11,3.11,0,0,0,.84-.11,1.89,1.89,0,0,0,.66-.35,1.63,1.63,0,0,0,.42-.58,2.1,2.1,0,0,0,.15-.82,1.52,1.52,0,0,0-.62-1.31,2.82,2.82,0,0,0-1.69-.45l-1.13.06V266.3h4.13v.86H360.2v2.44l.61,0a3.16,3.16,0,0,1,2.1.65,2.26,2.26,0,0,1,.77,1.85,2.81,2.81,0,0,1-.23,1.19,2.66,2.66,0,0,1-.64.87,2.94,2.94,0,0,1-1,.53,4,4,0,0,1-1.22.18,5.09,5.09,0,0,1-.69,0,4.27,4.27,0,0,1-.59-.14,3.5,3.5,0,0,1-.46-.16,1.06,1.06,0,0,1-.28-.17l.38-.78a4.75,4.75,0,0,0,.62.29A3,3,0,0,0,360.67,274Z"/><path class="cls-4" d="M365.46,270.5a8.47,8.47,0,0,1,.18-1.83,4.17,4.17,0,0,1,.54-1.37,2.46,2.46,0,0,1,.91-.85,2.74,2.74,0,0,1,1.32-.3,3,3,0,0,1,1.36.29,2.29,2.29,0,0,1,.91.84,3.89,3.89,0,0,1,.5,1.36,9.41,9.41,0,0,1,.16,1.86,8.47,8.47,0,0,1-.18,1.83,4.11,4.11,0,0,1-.54,1.36,2.44,2.44,0,0,1-.92.86,2.81,2.81,0,0,1-1.31.29,2.7,2.7,0,0,1-1.35-.32,2.5,2.5,0,0,1-.91-.89,4,4,0,0,1-.51-1.38A8.62,8.62,0,0,1,365.46,270.5Zm1,0c0,.2,0,.39,0,.57s0,.37,0,.54l3.58-3.24a2.34,2.34,0,0,0-.61-1,1.47,1.47,0,0,0-1.08-.38,1.55,1.55,0,0,0-1.51.88A6.26,6.26,0,0,0,366.46,270.5Zm3.88,0a9.54,9.54,0,0,0-.07-1.22l-3.56,3.26a2.51,2.51,0,0,0,.61,1.09,1.46,1.46,0,0,0,1.07.41,1.57,1.57,0,0,0,1.5-.88A6,6,0,0,0,370.34,270.5Z"/><path class="cls-4" d="M373.58,266.55a.68.68,0,0,1,.22-.52.75.75,0,0,1,.53-.19.9.9,0,0,1,.67.25,1,1,0,0,1,.25.76,2.09,2.09,0,0,1-.14.83,2.13,2.13,0,0,1-.33.6,1.6,1.6,0,0,1-.42.37,1.56,1.56,0,0,1-.38.2l-.36-.49a2.09,2.09,0,0,0,.58-.43.93.93,0,0,0,.25-.67h-.15a.72.72,0,0,1-.5-.21A.67.67,0,0,1,373.58,266.55Zm2.4,0a.65.65,0,0,1,.22-.52.75.75,0,0,1,.53-.19.9.9,0,0,1,.67.25,1,1,0,0,1,.25.76,2.29,2.29,0,0,1-.14.83,2.13,2.13,0,0,1-.33.6,1.77,1.77,0,0,1-.42.37,1.56,1.56,0,0,1-.38.2l-.36-.49a2.09,2.09,0,0,0,.58-.43,1,1,0,0,0,.25-.67h-.15a.68.68,0,0,1-.49-.21A.65.65,0,0,1,376,266.55Z"/><path class="cls-4" d="M386.77,268.7h1.43v-1.19l.95-.27v1.46h3.2v.8h-3.2v2.83a1.77,1.77,0,0,0,.42,1.3,1.66,1.66,0,0,0,1.22.42,2,2,0,0,0,.93-.21,4.71,4.71,0,0,0,.73-.44l.31.71a3.67,3.67,0,0,1-1,.54,3.78,3.78,0,0,1-1.2.2,2.65,2.65,0,0,1-.9-.14,2,2,0,0,1-.75-.42,2,2,0,0,1-.52-.74,2.69,2.69,0,0,1-.19-1.07v-3h-1.43Z"/><path class="cls-4" d="M394.39,274.7v-.81H396V269.5h-1.62v-.8h2.24l.2.78h.06a4.25,4.25,0,0,1,.91-.64,2.47,2.47,0,0,1,1.2-.26,1.23,1.23,0,0,1,.65.15,1.11,1.11,0,0,1,.39.46,2.37,2.37,0,0,1,.18.72,9.35,9.35,0,0,1,0,1h-.84a3.09,3.09,0,0,0-.15-1.12.54.54,0,0,0-.55-.35,2,2,0,0,0-.67.1,2.31,2.31,0,0,0-.52.27,2.43,2.43,0,0,0-.38.31,2.26,2.26,0,0,0-.23.26v3.53h2.31v.81Z"/><path class="cls-4" d="M402.09,269.16a4,4,0,0,1,1.17-.43,6.22,6.22,0,0,1,1.27-.13,2.23,2.23,0,0,1,1,.19,1.61,1.61,0,0,1,.61.5,1.85,1.85,0,0,1,.31.7,4.11,4.11,0,0,1,.07.78c0,.31,0,.63,0,1s0,.69,0,1a8.27,8.27,0,0,0,.08,1.14h.8v.78h-1.59l-.1-.9h-.06a2.94,2.94,0,0,1-.22.27,2.14,2.14,0,0,1-.38.33,2.52,2.52,0,0,1-.57.28,2.41,2.41,0,0,1-.8.12,2,2,0,0,1-1.4-.45,1.57,1.57,0,0,1-.52-1.25,1.8,1.8,0,0,1,.27-1,1.68,1.68,0,0,1,.78-.62,3.5,3.5,0,0,1,1.22-.26,8.46,8.46,0,0,1,1.61.1,4.08,4.08,0,0,0,0-.92,1.28,1.28,0,0,0-.19-.58.83.83,0,0,0-.42-.31,2.13,2.13,0,0,0-.67-.09,3.47,3.47,0,0,0-1,.15c-.33.1-.63.21-.88.31Zm1.78,4.84a1.9,1.9,0,0,0,.63-.11,2,2,0,0,0,.5-.27,2.5,2.5,0,0,0,.36-.37,1.68,1.68,0,0,0,.22-.38V272a7.17,7.17,0,0,0-1.16-.11,3.09,3.09,0,0,0-.91.12,1.19,1.19,0,0,0-.6.35.92.92,0,0,0-.21.63,1,1,0,0,0,.26.69A1.23,1.23,0,0,0,403.87,274Z"/><path class="cls-4" d="M409.11,270.8v-.29c0-.11,0-.23,0-.36l0-.36c0-.12,0-.23,0-.31h-.81v-.78h1.61l.11,1H410a1.94,1.94,0,0,1,.32-.4,1.84,1.84,0,0,1,.46-.36,2.25,2.25,0,0,1,.59-.26,2.15,2.15,0,0,1,.68-.1,3.6,3.6,0,0,1,1,.12,1.48,1.48,0,0,1,.71.43,1.86,1.86,0,0,1,.42.83,4.84,4.84,0,0,1,.15,1.32v3.45h-.95v-3.26a2.88,2.88,0,0,0-.32-1.5,1.3,1.3,0,0,0-1.17-.5,1.46,1.46,0,0,0-.61.13,2.2,2.2,0,0,0-.53.32,2.41,2.41,0,0,0-.42.48,1.83,1.83,0,0,0-.26.57v3.76h-.93Z"/><path class="cls-4" d="M420.44,273.08a.69.69,0,0,0-.3-.6,2.3,2.3,0,0,0-.74-.33,9.6,9.6,0,0,0-1-.24,5.5,5.5,0,0,1-1-.29,2.25,2.25,0,0,1-.74-.48,1.18,1.18,0,0,1-.3-.86,1.51,1.51,0,0,1,.2-.78,1.65,1.65,0,0,1,.52-.53,2.49,2.49,0,0,1,.76-.32,4.43,4.43,0,0,1,.9-.1,4.48,4.48,0,0,1,1.45.21,4.87,4.87,0,0,1,1,.44l-.38.76a7.65,7.65,0,0,0-.86-.42,2.93,2.93,0,0,0-1.15-.2,2.24,2.24,0,0,0-.52.06,1.74,1.74,0,0,0-.47.16.91.91,0,0,0-.33.28.69.69,0,0,0-.13.43.52.52,0,0,0,.3.48,3.48,3.48,0,0,0,.74.28c.3.08.62.15,1,.22a4.28,4.28,0,0,1,1,.29,2.2,2.2,0,0,1,.74.52,1.21,1.21,0,0,1,.3.87,1.72,1.72,0,0,1-.65,1.37,3,3,0,0,1-2,.54,4.11,4.11,0,0,1-.78-.07,5.42,5.42,0,0,1-.72-.19,4.88,4.88,0,0,1-.61-.27,2.92,2.92,0,0,1-.45-.31l.47-.78a2.19,2.19,0,0,0,.39.29,3.63,3.63,0,0,0,.52.27,4.08,4.08,0,0,0,.62.2,3.71,3.71,0,0,0,.67.07,2.91,2.91,0,0,0,.6-.06,1.83,1.83,0,0,0,.5-.16,1.1,1.1,0,0,0,.34-.3A.84.84,0,0,0,420.44,273.08Z"/><path class="cls-4" d="M423.45,274.7v-.81h1.43V269.5h-1.43v-.8h1.43v-.34a2,2,0,0,1,.59-1.63,2.48,2.48,0,0,1,1.68-.51,5,5,0,0,1,.71,0,3.27,3.27,0,0,1,.67.19l-.21.78a3,3,0,0,0-.6-.17,3.4,3.4,0,0,0-.53,0,1.25,1.25,0,0,0-1.07.39,2.2,2.2,0,0,0-.29,1.28h2.48v.8h-2.48v4.39h2.48v.81Z"/><path class="cls-4" d="M430.28,271.7a3.29,3.29,0,0,1,.76-2.3,2.72,2.72,0,0,1,2.16-.85,3,3,0,0,1,1.3.25,2.54,2.54,0,0,1,.91.66,2.82,2.82,0,0,1,.53,1,4.13,4.13,0,0,1,.17,1.24,4.08,4.08,0,0,1-.19,1.3,2.67,2.67,0,0,1-.56,1,2.6,2.6,0,0,1-.92.63,3.23,3.23,0,0,1-1.24.22,3.08,3.08,0,0,1-1.3-.25,2.46,2.46,0,0,1-.91-.66,2.6,2.6,0,0,1-.53-1A4.06,4.06,0,0,1,430.28,271.7Zm1,0a3.44,3.44,0,0,0,.1.84,2.32,2.32,0,0,0,.33.75,1.61,1.61,0,0,0,.59.54,2,2,0,0,0,2.33-.39,2.65,2.65,0,0,0,.49-1.74,4,4,0,0,0-.1-.85,2.14,2.14,0,0,0-.34-.75,2,2,0,0,0-2.92-.16A2.76,2.76,0,0,0,431.28,271.7Z"/><path class="cls-4" d="M437.59,274.7v-.81h1.62V269.5h-1.62v-.8h2.24l.2.78h.06a4.25,4.25,0,0,1,.91-.64,2.47,2.47,0,0,1,1.2-.26,1.23,1.23,0,0,1,.65.15,1.11,1.11,0,0,1,.39.46,2.37,2.37,0,0,1,.18.72,9.35,9.35,0,0,1,.05,1h-.84a3.09,3.09,0,0,0-.15-1.12.54.54,0,0,0-.55-.35,2,2,0,0,0-.67.1,2.31,2.31,0,0,0-.52.27,2.43,2.43,0,0,0-.38.31,2.26,2.26,0,0,0-.23.26v3.53h2.31v.81Z"/><path class="cls-4" d="M447.14,274.7v-4a3.93,3.93,0,0,0,0-.49,1.84,1.84,0,0,0-.08-.42.67.67,0,0,0-.19-.29.52.52,0,0,0-.33-.11.86.86,0,0,0-.69.34,2.22,2.22,0,0,0-.43.84v4.13h-.91v-6h.62l.18.73h0c.08-.12.16-.24.24-.34a1.2,1.2,0,0,1,.26-.29,1.06,1.06,0,0,1,.35-.18,1.56,1.56,0,0,1,.52-.07,1.24,1.24,0,0,1,.37.06,1.17,1.17,0,0,1,.36.16,1.21,1.21,0,0,1,.28.31,1.09,1.09,0,0,1,.15.47,2.54,2.54,0,0,1,.62-.73,1.48,1.48,0,0,1,.94-.27,1.5,1.5,0,0,1,.65.13,1,1,0,0,1,.38.38,1.71,1.71,0,0,1,.19.59,4.42,4.42,0,0,1,.06.76v4.29h-.92v-4.08a3.7,3.7,0,0,0,0-.48,1.87,1.87,0,0,0-.09-.39.55.55,0,0,0-.18-.26.45.45,0,0,0-.31-.1.87.87,0,0,0-.7.34,2.15,2.15,0,0,0-.44,1v4Z"/><path class="cls-4" d="M452,269.21h5.57v.87H452Zm0,2h5.57V272H452Z"/><path class="cls-4" d="M460,266.55a.65.65,0,0,1,.22-.52.75.75,0,0,1,.53-.19.9.9,0,0,1,.67.25,1,1,0,0,1,.25.76,2.29,2.29,0,0,1-.14.83,2.13,2.13,0,0,1-.33.6,1.77,1.77,0,0,1-.42.37,1.56,1.56,0,0,1-.38.2l-.36-.49a2.09,2.09,0,0,0,.58-.43,1,1,0,0,0,.25-.67h-.15a.72.72,0,0,1-.5-.21A.67.67,0,0,1,460,266.55Zm2.4,0a.65.65,0,0,1,.22-.52.74.74,0,0,1,.52-.19.91.91,0,0,1,.68.25,1,1,0,0,1,.25.76,2.29,2.29,0,0,1-.14.83,2.13,2.13,0,0,1-.33.6,1.77,1.77,0,0,1-.42.37,1.56,1.56,0,0,1-.38.2l-.36-.49a2.24,2.24,0,0,0,.58-.43,1,1,0,0,0,.25-.67h-.15a.72.72,0,0,1-.5-.21A.67.67,0,0,1,462.38,266.55Z"/><path class="cls-4" d="M466.39,274.7v-.81H468V269.5h-1.62v-.8h2.24l.2.78h.06a4.25,4.25,0,0,1,.91-.64,2.47,2.47,0,0,1,1.2-.26,1.23,1.23,0,0,1,.65.15,1.11,1.11,0,0,1,.39.46,2.37,2.37,0,0,1,.18.72,9.35,9.35,0,0,1,0,1h-.84a3.09,3.09,0,0,0-.15-1.12.54.54,0,0,0-.55-.35,2,2,0,0,0-.67.1,2.31,2.31,0,0,0-.52.27,2.43,2.43,0,0,0-.38.31,2.26,2.26,0,0,0-.23.26v3.53h2.31v.81Z"/><path class="cls-4" d="M473.48,271.7a3.29,3.29,0,0,1,.76-2.3,2.72,2.72,0,0,1,2.16-.85,3,3,0,0,1,1.3.25,2.54,2.54,0,0,1,.91.66,2.82,2.82,0,0,1,.53,1,4.13,4.13,0,0,1,.17,1.24,4.08,4.08,0,0,1-.19,1.3,2.67,2.67,0,0,1-.56,1,2.6,2.6,0,0,1-.92.63,3.23,3.23,0,0,1-1.24.22,3.08,3.08,0,0,1-1.3-.25,2.46,2.46,0,0,1-.91-.66,2.6,2.6,0,0,1-.53-1A4.06,4.06,0,0,1,473.48,271.7Zm1,0a3.44,3.44,0,0,0,.1.84,2.32,2.32,0,0,0,.33.75,1.61,1.61,0,0,0,.59.54,2,2,0,0,0,2.33-.39,2.65,2.65,0,0,0,.49-1.74,4,4,0,0,0-.1-.85,2.14,2.14,0,0,0-.34-.75,2,2,0,0,0-2.92-.16A2.76,2.76,0,0,0,474.48,271.7Z"/><path class="cls-4" d="M480.37,268.7h1.43v-1.19l.95-.27v1.46H486v.8h-3.2v2.83a1.77,1.77,0,0,0,.42,1.3,1.65,1.65,0,0,0,1.21.42,2,2,0,0,0,.94-.21,4.71,4.71,0,0,0,.73-.44l.31.71a3.67,3.67,0,0,1-1,.54,3.78,3.78,0,0,1-1.2.2,2.75,2.75,0,0,1-.91-.14,1.94,1.94,0,0,1-1.26-1.16,2.69,2.69,0,0,1-.19-1.07v-3h-1.43Z"/><path class="cls-4" d="M488.49,269.16a4,4,0,0,1,1.17-.43,6.15,6.15,0,0,1,1.27-.13,2.23,2.23,0,0,1,1,.19,1.61,1.61,0,0,1,.61.5,1.69,1.69,0,0,1,.3.7,3.44,3.44,0,0,1,.08.78c0,.31,0,.63,0,1s0,.69,0,1a10.26,10.26,0,0,0,.07,1.14h.81v.78h-1.59l-.11-.9H492l-.22.27a2.14,2.14,0,0,1-.38.33,2.52,2.52,0,0,1-.57.28,2.41,2.41,0,0,1-.8.12,2,2,0,0,1-1.4-.45,1.57,1.57,0,0,1-.52-1.25,1.8,1.8,0,0,1,.27-1,1.7,1.7,0,0,1,.77-.62,3.61,3.61,0,0,1,1.23-.26,8.36,8.36,0,0,1,1.6.1,4.16,4.16,0,0,0,0-.92,1.28,1.28,0,0,0-.19-.58.83.83,0,0,0-.42-.31,2.17,2.17,0,0,0-.67-.09,3.58,3.58,0,0,0-1,.15c-.33.1-.62.21-.88.31Zm1.78,4.84a1.8,1.8,0,0,0,.62-.11,2.06,2.06,0,0,0,.51-.27,2.5,2.5,0,0,0,.36-.37,2.08,2.08,0,0,0,.21-.38V272a7,7,0,0,0-1.15-.11,3.09,3.09,0,0,0-.91.12,1.19,1.19,0,0,0-.6.35.93.93,0,0,0-.22.63,1,1,0,0,0,.27.69A1.21,1.21,0,0,0,490.27,274Z"/><path class="cls-4" d="M494.77,268.7h1.43v-1.19l.95-.27v1.46h3.2v.8h-3.2v2.83a1.77,1.77,0,0,0,.42,1.3,1.65,1.65,0,0,0,1.21.42,2,2,0,0,0,.94-.21,4.71,4.71,0,0,0,.73-.44l.31.71a3.67,3.67,0,0,1-1,.54,3.78,3.78,0,0,1-1.2.2,2.65,2.65,0,0,1-.9-.14,2,2,0,0,1-.75-.42,2,2,0,0,1-.52-.74,2.69,2.69,0,0,1-.19-1.07v-3h-1.43Z"/><path class="cls-4" d="M507.94,273.94a2.55,2.55,0,0,1-.51.36,3.76,3.76,0,0,1-.64.29,4.21,4.21,0,0,1-.72.18,4,4,0,0,1-.77.07,3.35,3.35,0,0,1-1.27-.22,2.5,2.5,0,0,1-.92-.64,2.68,2.68,0,0,1-.57-1,4.27,4.27,0,0,1-.19-1.29,4,4,0,0,1,.21-1.35,2.58,2.58,0,0,1,1.57-1.59,3.54,3.54,0,0,1,1.26-.21,4.14,4.14,0,0,1,1,.13,2,2,0,0,1,.87.5,2.37,2.37,0,0,1,.59,1,4.84,4.84,0,0,1,.14,1.66h-4.63a2.1,2.1,0,0,0,.58,1.62,2.22,2.22,0,0,0,1.55.53,2.8,2.8,0,0,0,.64-.08,5.26,5.26,0,0,0,.6-.18,5,5,0,0,0,.51-.24,2.37,2.37,0,0,0,.34-.24Zm-2.52-4.6a3.08,3.08,0,0,0-.75.09,1.67,1.67,0,0,0-.62.28,1.41,1.41,0,0,0-.44.52,2.11,2.11,0,0,0-.23.78h3.72a1.83,1.83,0,0,0-.5-1.23A1.64,1.64,0,0,0,505.42,269.34Z"/><path class="cls-4" d="M514,277.24a6.05,6.05,0,0,1-1.51-.61,4.19,4.19,0,0,1-1.22-1.05,5,5,0,0,1-.83-1.58,7.27,7.27,0,0,1-.3-2.22,7.15,7.15,0,0,1,.31-2.23,5.39,5.39,0,0,1,.84-1.62,4.13,4.13,0,0,1,1.23-1.06,5,5,0,0,1,1.48-.57l.3.75a6.33,6.33,0,0,0-1.3.54,3.53,3.53,0,0,0-1,.87,4.21,4.21,0,0,0-.66,1.36,7,7,0,0,0-.24,2,6.1,6.1,0,0,0,.29,2,4.4,4.4,0,0,0,.74,1.36,3.64,3.64,0,0,0,1,.86,4.45,4.45,0,0,0,1.15.42Z"/><path class="cls-4" d="M523,272.08h-1.62v2.62h-1v-2.62h-3.87v-.7l4-5.08h.8v5H523Zm-2.57-4.28-2.77,3.49h2.77Z"/><path class="cls-4" d="M526.27,274a3.22,3.22,0,0,0,.84-.11,1.93,1.93,0,0,0,.65-.35,1.63,1.63,0,0,0,.42-.58,2.1,2.1,0,0,0,.15-.82,1.49,1.49,0,0,0-.62-1.31,2.79,2.79,0,0,0-1.68-.45l-1.13.06V266.3H529v.86H525.8v2.44l.6,0a3.19,3.19,0,0,1,2.11.65,2.29,2.29,0,0,1,.77,1.85,3,3,0,0,1-.23,1.19,2.68,2.68,0,0,1-.65.87,2.75,2.75,0,0,1-1,.53,4,4,0,0,1-1.22.18,4.83,4.83,0,0,1-.68,0,4,4,0,0,1-.59-.14,3.67,3.67,0,0,1-.47-.16,1.26,1.26,0,0,1-.28-.17l.39-.78a4.19,4.19,0,0,0,.62.29A3,3,0,0,0,526.27,274Z"/><path class="cls-4" d="M532.1,276.41a4.32,4.32,0,0,0,1.15-.42,3.64,3.64,0,0,0,1-.86,4.2,4.2,0,0,0,.74-1.36,6.1,6.1,0,0,0,.29-2,7,7,0,0,0-.24-2,4.21,4.21,0,0,0-.66-1.36,3.53,3.53,0,0,0-1-.87,6.33,6.33,0,0,0-1.3-.54l.3-.75a5,5,0,0,1,1.48.57,4.13,4.13,0,0,1,1.23,1.06,5.39,5.39,0,0,1,.84,1.62,7.15,7.15,0,0,1,.31,2.23A7.27,7.27,0,0,1,536,274a5,5,0,0,1-.83,1.58,4.19,4.19,0,0,1-1.22,1.05,6.05,6.05,0,0,1-1.51.61Z"/><path class="cls-4" d="M539.18,266.55a.65.65,0,0,1,.22-.52.74.74,0,0,1,.52-.19.91.91,0,0,1,.68.25,1.07,1.07,0,0,1,.25.76,2.29,2.29,0,0,1-.14.83,2.13,2.13,0,0,1-.33.6,2,2,0,0,1-.42.37,1.56,1.56,0,0,1-.38.2l-.36-.49a2.24,2.24,0,0,0,.58-.43,1,1,0,0,0,.24-.67h-.14a.72.72,0,0,1-.5-.21A.64.64,0,0,1,539.18,266.55Zm2.4,0a.65.65,0,0,1,.22-.52.74.74,0,0,1,.52-.19.92.92,0,0,1,.68.25,1,1,0,0,1,.25.76,2.29,2.29,0,0,1-.14.83,1.92,1.92,0,0,1-.34.6,1.74,1.74,0,0,1-.41.37,1.56,1.56,0,0,1-.38.2l-.36-.49a2.24,2.24,0,0,0,.58-.43,1,1,0,0,0,.24-.67h-.14a.72.72,0,0,1-.5-.21A.64.64,0,0,1,541.58,266.55Z"/><path class="cls-4" d="M545.79,274.29l-.45-.72,4.77-2.77L545.35,268l.45-.75,5.66,3.45V271Z"/><circle cx="300" cy="69.95" r="3"/><path class="cls-5" d="M356.25,93.25a79.31,79.31,0,0,0-46.1-22.65"/><polygon points="312.04 65.82 302.99 70.01 311.15 75.75 312.04 65.82"/></svg>