<svg id="a774d9ad-023e-411a-977b-42fc5e10e410" data-name="Layer 1" xmlns="http://www.w3.org/2000/svg" width="700" height="150" viewBox="0 0 700 150"><defs><style>.ed9d0381-eab1-4968-9b14-72f2300b1dcb{fill:none;stroke:#333;stroke-dasharray:3.01 3.01;}.ed9d0381-eab1-4968-9b14-72f2300b1dcb,.feecca36-5ba7-45e0-bf3c-bc1081c038e8{stroke-miterlimit:10;}.feecca36-5ba7-45e0-bf3c-bc1081c038e8{fill:#f8f8f8;stroke:#ddd;}.a65c673a-a98c-4c19-bf84-a28acebd9d98{fill:#cc1142;}.a8ba2632-3d7b-49cb-aaa2-252e0ddafbc6{fill:#333;}</style></defs><title>horizontally-align-text copy</title><line class="ed9d0381-eab1-4968-9b14-72f2300b1dcb" x1="2.51" y1="75" x2="699" y2="75"/><rect class="feecca36-5ba7-45e0-bf3c-bc1081c038e8" x="371.89" y="75" width="86.64" height="53.52"/><rect class="feecca36-5ba7-45e0-bf3c-bc1081c038e8" x="295.57" y="48.24" width="65.2" height="53.52"/><rect class="feecca36-5ba7-45e0-bf3c-bc1081c038e8" x="243.73" y="21.48" width="40.72" height="53.52"/><circle class="a65c673a-a98c-4c19-bf84-a28acebd9d98" cx="295.57" cy="75" r="2.25"/><circle class="a65c673a-a98c-4c19-bf84-a28acebd9d98" cx="243.73" cy="75" r="2.25"/><circle class="a65c673a-a98c-4c19-bf84-a28acebd9d98" cx="371.89" cy="75" r="2.25"/><path class="a8ba2632-3d7b-49cb-aaa2-252e0ddafbc6" d="M306.24,85.28a19.68,19.68,0,0,1-1.18,2.56,6.82,6.82,0,0,1-1.28,1.7,4.28,4.28,0,0,1-1.55,1,6.08,6.08,0,0,1-2,.3,9.51,9.51,0,0,1-1.19-.08,5.46,5.46,0,0,1-1.16-.28V87.32a5.68,5.68,0,0,0,1,.34,4.58,4.58,0,0,0,1,.14,2.9,2.9,0,0,0,1.73-.5,3.12,3.12,0,0,0,1.07-1.42l1.39-3.48-8.19-20.56h3.84l6,16.92h.08l5.79-16.92h3.6Z"/><path class="a8ba2632-3d7b-49cb-aaa2-252e0ddafbc6" d="M317.64,67.94a9.73,9.73,0,0,1,1.92-3.44,9.13,9.13,0,0,1,3.17-2.3,11.58,11.58,0,0,1,8.66,0,9.16,9.16,0,0,1,3.13,2.3,9.43,9.43,0,0,1,1.92,3.44,13.67,13.67,0,0,1,.64,4.26,13.5,13.5,0,0,1-.64,4.24,9.42,9.42,0,0,1-1.92,3.42,9,9,0,0,1-3.13,2.28,11.84,11.84,0,0,1-8.66,0,9,9,0,0,1-3.17-2.28,9.72,9.72,0,0,1-1.92-3.42A13.8,13.8,0,0,1,317,72.2,14,14,0,0,1,317.64,67.94Zm3.46,7.6A7.2,7.2,0,0,0,322.48,78a6.11,6.11,0,0,0,2.07,1.5,6,6,0,0,0,2.5.52,6,6,0,0,0,4.55-2A6.89,6.89,0,0,0,333,75.54a11.41,11.41,0,0,0,0-6.68,7.16,7.16,0,0,0-1.38-2.46,5.84,5.84,0,0,0-2.05-1.52,6.09,6.09,0,0,0-2.5-.52,6,6,0,0,0-2.5.52,5.91,5.91,0,0,0-2.07,1.52,7.5,7.5,0,0,0-1.38,2.46,11.41,11.41,0,0,0,0,6.68Z"/><path class="a8ba2632-3d7b-49cb-aaa2-252e0ddafbc6" d="M355,82.52V79.24h-.08a7,7,0,0,1-2.77,2.82,8.24,8.24,0,0,1-4,.9,9.23,9.23,0,0,1-3.39-.54,5.4,5.4,0,0,1-2.21-1.54,5.72,5.72,0,0,1-1.17-2.38,12.61,12.61,0,0,1-.35-3.06V61.84h3.4v14A3.87,3.87,0,0,0,348.69,80a7,7,0,0,0,2.7-.48,5,5,0,0,0,1.89-1.36,5.93,5.93,0,0,0,1.15-2.06,8.51,8.51,0,0,0,.38-2.58V61.84h3.39V82.52Z"/><path class="a8ba2632-3d7b-49cb-aaa2-252e0ddafbc6" d="M244.21,38.08v-3h3.48V32a4.83,4.83,0,0,1,1.46-3.82,6.19,6.19,0,0,1,4.26-1.3,9.48,9.48,0,0,1,1.1.08,5.43,5.43,0,0,1,1.1.24v3a4.2,4.2,0,0,0-1-.22,8.51,8.51,0,0,0-1-.06,3.28,3.28,0,0,0-1.92.48,2.1,2.1,0,0,0-.68,1.84v2.88h4v3h-4V55.76h-3.4V38.08Z"/><path class="a8ba2632-3d7b-49cb-aaa2-252e0ddafbc6" d="M261.73,27.2V55.76h-3.4V27.2Z"/><path class="a8ba2632-3d7b-49cb-aaa2-252e0ddafbc6" d="M275.12,58.52a19.68,19.68,0,0,1-1.18,2.56,6.82,6.82,0,0,1-1.28,1.7,4.23,4.23,0,0,1-1.56,1,6,6,0,0,1-2,.3,9.51,9.51,0,0,1-1.19-.08,5.46,5.46,0,0,1-1.16-.28V60.56a5.68,5.68,0,0,0,1,.34,4.58,4.58,0,0,0,1,.14,2.9,2.9,0,0,0,1.73-.5,3,3,0,0,0,1.06-1.42l1.4-3.48-8.19-20.56h3.83l6,16.92h.09l5.79-16.92h3.6Z"/><path class="a8ba2632-3d7b-49cb-aaa2-252e0ddafbc6" d="M372.37,91.6v-3h3.48V85.52a4.83,4.83,0,0,1,1.46-3.82,6.18,6.18,0,0,1,4.25-1.3,9.48,9.48,0,0,1,1.11.08,5.59,5.59,0,0,1,1.1.24v3a4.2,4.2,0,0,0-1-.22,8.51,8.51,0,0,0-1-.06,3.28,3.28,0,0,0-1.92.48,2.1,2.1,0,0,0-.68,1.84V88.6h4v3h-4v17.68h-3.4V91.6Z"/><path class="a8ba2632-3d7b-49cb-aaa2-252e0ddafbc6" d="M385.81,94.7a9.43,9.43,0,0,1,1.92-3.44,9,9,0,0,1,3.16-2.3,11.58,11.58,0,0,1,8.66,0,9.29,9.29,0,0,1,3.14,2.3,9.55,9.55,0,0,1,1.91,3.44,13.67,13.67,0,0,1,.64,4.26,13.5,13.5,0,0,1-.64,4.24,9.55,9.55,0,0,1-1.91,3.42,9.11,9.11,0,0,1-3.14,2.28,11.84,11.84,0,0,1-8.66,0,8.83,8.83,0,0,1-3.16-2.28,9.42,9.42,0,0,1-1.92-3.42,13.5,13.5,0,0,1-.64-4.24A13.67,13.67,0,0,1,385.81,94.7Zm3.46,7.6a7,7,0,0,0,1.37,2.44,6.11,6.11,0,0,0,2.07,1.5,6,6,0,0,0,2.5.52,6.09,6.09,0,0,0,2.5-.52,6.17,6.17,0,0,0,2.06-1.5,7,7,0,0,0,1.37-2.44,11.41,11.41,0,0,0,0-6.68,7.31,7.31,0,0,0-1.37-2.46,6,6,0,0,0-2.06-1.52,6.09,6.09,0,0,0-2.5-.52,6,6,0,0,0-2.5.52,5.91,5.91,0,0,0-2.07,1.52,7.31,7.31,0,0,0-1.37,2.46,11.41,11.41,0,0,0,0,6.68Z"/><path class="a8ba2632-3d7b-49cb-aaa2-252e0ddafbc6" d="M408.76,94.7a9.73,9.73,0,0,1,1.92-3.44,9.18,9.18,0,0,1,3.16-2.3,11.58,11.58,0,0,1,8.66,0,9.1,9.1,0,0,1,3.14,2.3,9.43,9.43,0,0,1,1.92,3.44A13.67,13.67,0,0,1,428.2,99a13.5,13.5,0,0,1-.64,4.24,9.42,9.42,0,0,1-1.92,3.42,8.93,8.93,0,0,1-3.14,2.28,11.84,11.84,0,0,1-8.66,0,9,9,0,0,1-3.16-2.28,9.72,9.72,0,0,1-1.92-3.42,13.8,13.8,0,0,1-.64-4.24A14,14,0,0,1,408.76,94.7Zm3.46,7.6a7.2,7.2,0,0,0,1.38,2.44,6.17,6.17,0,0,0,2.06,1.5,6.27,6.27,0,0,0,5,0,6,6,0,0,0,2.06-1.5,6.89,6.89,0,0,0,1.38-2.44,11.41,11.41,0,0,0,0-6.68,7.16,7.16,0,0,0-1.38-2.46,5.79,5.79,0,0,0-2.06-1.52,6.27,6.27,0,0,0-5,0,6,6,0,0,0-2.06,1.52,7.5,7.5,0,0,0-1.38,2.46,11.41,11.41,0,0,0,0,6.68Z"/><path class="a8ba2632-3d7b-49cb-aaa2-252e0ddafbc6" d="M435.8,80.72v28.56h-3.4V80.72Z"/><path class="a8ba2632-3d7b-49cb-aaa2-252e0ddafbc6" d="M443.68,104.66a3.65,3.65,0,0,0,1.26,1.24,5.54,5.54,0,0,0,1.76.66,10.4,10.4,0,0,0,2,.2,12.3,12.3,0,0,0,1.68-.12,6.22,6.22,0,0,0,1.62-.44,3,3,0,0,0,1.22-.94,2.5,2.5,0,0,0,.48-1.58,2.25,2.25,0,0,0-1-2,8.52,8.52,0,0,0-2.5-1.1c-1-.28-2.08-.53-3.26-.76a17.47,17.47,0,0,1-3.26-1,6.7,6.7,0,0,1-2.5-1.74,4.57,4.57,0,0,1-1-3.12,5,5,0,0,1,.7-2.68,5.79,5.79,0,0,1,1.8-1.82,8.34,8.34,0,0,1,2.48-1,11.29,11.29,0,0,1,2.74-.34,16.23,16.23,0,0,1,3.24.3,7.53,7.53,0,0,1,2.62,1,5.33,5.33,0,0,1,1.82,2,7.51,7.51,0,0,1,.8,3.14H453a3.26,3.26,0,0,0-1.64-2.72,4.93,4.93,0,0,0-1.5-.58,7.67,7.67,0,0,0-1.66-.18,10.18,10.18,0,0,0-1.54.12,5.22,5.22,0,0,0-1.42.42,3,3,0,0,0-1,.8,2.06,2.06,0,0,0-.4,1.3,1.93,1.93,0,0,0,.62,1.46,4.9,4.9,0,0,0,1.58,1,13.85,13.85,0,0,0,2.16.64l2.4.54a24.79,24.79,0,0,1,2.5.68,8.05,8.05,0,0,1,2.16,1.06,5,5,0,0,1,1.52,1.66,4.84,4.84,0,0,1,.58,2.48,5.78,5.78,0,0,1-.78,3.12,6.1,6.1,0,0,1-2,2,8.4,8.4,0,0,1-2.84,1.06,16.77,16.77,0,0,1-3.14.3,14.59,14.59,0,0,1-3.28-.36,8,8,0,0,1-2.76-1.18,6.07,6.07,0,0,1-1.92-2.16,7.56,7.56,0,0,1-.8-3.26h3.4A3.85,3.85,0,0,0,443.68,104.66Z"/></svg>