<svg id="geomap-3" xmlns="http://www.w3.org/2000/svg" width="700" height="400" viewBox="0 0 700 400"><defs><style>.cls-1{fill:#f8f8f8;stroke:#333;stroke-miterlimit:8.533;}</style></defs><title>Artboard 1</title><g id="group-1"><g id="group-4"><path id="path-5" class="cls-1" d="M69.2,190.8l-.3.3-.5-.3.1-.5-.3-.6.1-.2.3-.3-.1-.4.1-.2h.1l.6.3.3.2.3.3.5.6v.1l-.7.4-.5.3"/><path id="path-6" class="cls-1" d="M68.2,188l-.6.1-.3-.4-.2-.2v-.1l.2-.2.6.2.5.3-.2.3"/><path id="path-7" class="cls-1" d="M67,187.1l-.1.2-.9-.1V187l1,.1"/><path id="path-8" class="cls-1" d="M65.4,186.8h0l-.2.1-.6-.1-.2-.4-.1-.1.5-.3.2.1.4.7"/><path id="path-9" class="cls-1" d="M62.3,185.6l-.2.2-.6-.4.1-.1.3-.2h.4v.5"/><path id="path-10" class="cls-1" d="M178.7,136.1l.3,1,.6.3,1.3.1,1.9.3,1.8.6,1.5-.3,2.2.5h.6l1.6-.6,1.7.6,1.8.7,1.5.6,1.4.6.2.5.5.2-.1.2.5.1.4-.2.1.5.4.3h.5l.3.2-.2.3,1.9.8.4,1.7.4,1.6-.6,1-.8,1-.4.6v.2l.2.3.6.3h.5l2.1-.9,1.9-.3,2.3-.9v-.2l-.2-.6-.3-.4.8-.3h3.5l.6-.7.2-.2,1.9-1.3.8-.4h6.1l.2-.5.6-.1.7-.3.6-.8.6-1.4,1.4-1.4.6.5,1.2-.3.8.6v2.5l1.2,1,.3.6-1.9.8-1.9.6-1.9.6-.9,1.1-.3.4v.9l.6.9h.7l-.2-.6.6.4-.2.6-1.2.3h-.8l-1.3.3-.7.1-1,.1-1.5.6,2.7-.4.6.4-2.5.6h-1.1l.1-.2-.6.5.6.1-.4,1.3-1.3,1.4-.1-.5-.4-.1-.6-.5.4.9.5.3v.6l-.6.7-1,1.5-.2-.1.6-1.2-.9-.6-.2-1.5-.4.7.4,1.1-1.2-.3,1.2.6.1,1.8.6.1.2.6.3,1.8-1.1,1.3-1.9.6-1.2,1-.9.1-.9.6-.3.6-1.9,1.2-1,.8-.8,1.1-.3,1.3.3,1.3.6,1.6.8,1.3v.7l.8,2.1-.1,1.2-.1.7-.5,1.1-.6.2-.9-.2-.3-.8-.6-.4-.9-1.6-.8-1.4-.3-.7.4-1.2-.5-1-1.4-1.5-.7-.3-1.9.8-.3-.1-.8-.8-1.1-.5-2,.2-1.6-.2-1.4.1-.7.3.4.5v.7l.4.4-.4.3-.6-.3-.6.4-1.3-.1-1.4-.9-1.6.2-1.3-.5-1.1.1-1.5.5-1.7,1.3-1.8.7-1,.8-.4.8v1.2l.1.8.4.6-.7.1-1.3-.4-1.4-.6-.5-.8-.4-1.3-1-1-.6-1-.9-1.2-1.3-.7h-1.5l-1.1,1.4-1.5-.6-.9-.6-.5-1-.6-.9-1.1-.8-.9-.6-.6-.6h-3.2v.7h-5l-4.1-1.3-2.7-.8.2-.4-2.3.2-2,.1-.3-.9-1.2-1-.8-.2-.2-.6-1-.1-.6-.5-1.7-.2-.5-.3-.2-1-1.8-1.9-1.5-2.5.1-.5-.8-.6-1.4-1.5-.3-1.5-.9-1,.4-1.5-.1-1.6-.6-1.4.7-1.7.2-1.7.2-1.7-.4-2.4L127,138l-.6-.8.2-.4,2.6.6.9,1.7.5-.5-.3-1.5-.6-1.5h49.9V135l-.9,1.1"/><path id="path-11" class="cls-1" d="M73.7,122.2l-1.8.6-.9-.5-.3-.8,1.7-.6.9-.3,1.2.1.7.6-1.5.9"/><path id="path-12" class="cls-1" d="M51,117.2l-1.1.3-1.2-.4-1.1-.5,1.8-.3,1.4.2.2.7"/><path id="path-13" class="cls-1" d="M39.9,110.1l1.1.4,1.1-.2,1.5.5,1.8.3-.2.2-1.4.4-1.4-.4-.6-.4-1.6.1-.4-.1.1-.8"/><path id="path-14" class="cls-1" d="M70,96.9l1.3.8.8-.4,3.1.1-.2.5,2.8.3,1.9-.2,3.8.6,3.4.2,1.4.3,2.4-.3,2.7.6,1.9.3h0v17l1.8.1,1.8.5,1.3.8,1.6,1.2,1.8-1,1.9-.6.9.9,1.2.7,1.7.8,1.1,1.3,1.9,2,3.1,1.1.1,1.1-1,.8-1-.6-1.6-.6-.5-1.6-2.3-1.5-.9-1.7-1.8-.1h-2.9l-2.1-.6-3.7-1.9-1.8-.4-3.2-.6-2.5.2-3.5-.8-2.1-.7-2,.4.4,1.3-1,.1-2,.4-1.6.6-2,.4-.3-1,.8-1.8,1.9-.6-.5-.5-2.3,1L74.8,117l-2.6,1.3,1.3.8-1.7,1.3-2,.5-1.8.6-.5.8-2.8.9-.6.8-2.1.7-1.2-.1-1.7.5-1.9.6-1.5.6-3.1.6-.3-.3,1.9-.8,1.8-.6,1.9-1,2.2-.2.9-.7,2.5-1.1.4-.4,1.3-.6.3-1.4.9-1-2,.6-.6-.3-1,.6-1.2-.9-.5.6-.6-.9-1.8.7H57.6l-.2-1.1.4-.6-1.2-.6-2.3.4-1.5-.8-1.2-.5v-1l-1.4-.7.7-1,1.5-1,.6-.9,1.5-.1,1.2.3,1.5-.8,1.3.2,1.4-.6-.4-.8-1-.3,1.3-.7H58.7l-1.9.4-.6.4-1.4-.4-2.6.2-2.6-.5-.7-.7-2.3-1,2.5-.7,4-.8h1.5l-.3.9,3.8-.1L56.5,105l-2.2-.6-1.3-.9-1.8-.7-2.5-.6,1-.9,3.2-.1,2.3-.8.5-.8,1.9-.8,1.8-.2,3.4-.8,1.7.1,2.8-.9,2.7-.1"/></g><g id="group-15"><path id="path-16" class="cls-1" d="M174.6,178.6l-.7,1.6-.3,1.3-.1,2.4-.2.8.3,1,.6.8.4,1.4,1.2,1.3.5,1,.7.9,1.9.5.7.7,1.6-.5,1.4-.2,1.4-.3,1.1-.3,1.1-.7.5-1,.2-1.5.3-.6,1.2-.5,1.9-.5,1.6.1,1.1-.2.5.4-.1.8-.9,1.1-.5,1.1.4.3-.3.7-.5,1.4-.5-.5h-.8l-.6,1.1-.4-.2-.2.1v.3h-3.4v1H185l.6.6.6.4.2.4.3.1v.6h-2.3l-.8,1.5.3.4-.2.5v.6l-2-1.9-.9-.6-1.5-.5-1,.1-1.5.6-.9.2-1.3-.5-1.4-.4-1.7-.8-1.4-.3-2-.8-1.5-.8-.5-.5-1-.1-1.9-.6-.7-.8-1.9-1-.9-1.1-.5-.8.6-.2-.2-.6.4-.5v-.6l-.6-.8-.2-.7-.6-.9-1.6-1.8-1.9-1.4-.8-1.1-1.6-.7-.4-.5.3-1.1-.9-.5-1-.8-.5-1.3-.9-.2-1-.9-.8-.8-.1-.6-.9-1.4-.6-1.4V169l-1.3-.7-.6.1-1-.5-.3.7.3.8.2,1.4.6.7,1.3,1.2.3.5.3.1.3.6h.3l.4,1.2.6.5.4.6,1.1.9.6,1.7.6.8.5.8.1.9.8.1.7.8.6.8v.3l-.7.6h-.3l-.5-1.1-1.2-1-1.3-.8-.9-.5.1-1.3-.3-1-.8-.6-1.2-.8-.3.3-.5-.5-1.1-.5-1-1,.1-.1.7.1.6-.6.1-.8-1.4-1.3-1-.5-.6-1.1-.6-1.2-.8-1.5-.7-1.6,2-.1,2.3-.2-.2.4,2.7.8,4.1,1.3h5V168h3.2l.6.6.9.6,1.1.8.6.9.5,1,.9.6,1.5.6,1.1-1.4h1.5l1.3.7.9,1.2.6,1,1,1,.4,1.3.5.8,1.4.6,1.3.4.3-.1"/></g><g id="group-17"><path id="path-18" class="cls-1" d="M235,141.2l1.3.3,1.7-.1-.9.7-.6.1-2.3-.7-.5-.6.6-.6.7.9"/><path id="path-19" class="cls-1" d="M238.4,136.7h-.8l-2.3-.6-1.7-.8.6-.2,2.4.5,1.9.7-.1.4"/><path id="path-20" class="cls-1" d="M126.9,137.7l-.9.3-3-.8-.6-.6-1.6-.6-.3-.6-1.9-.3-.6-1,.2-.5,1.9.4,1.1.3,1.7.2.6.6.9.8,1.8.7.7,1.1"/><path id="path-21" class="cls-1" d="M248.7,133.8l-1.2,1.6,1.2-.6,1.2.4-.6.6,1.6.5.8-.5,1.8.6-.6,1.3,1.3-.3.2.9.6,1.1-.7,1.6-.8.1-1.2-.4.4-1.5-.7-.2-2.1,1.6-1.1-.1,1.3-.8-1.8-.5-1.9.1-3.5-.1-.3-.6,1.1-.6-.7-.5,1.5-1.1,1.9-2.9,1.1-1,1.6-.6.8.1-.4.5-.8,1.3"/><path id="path-22" class="cls-1" d="M109.5,127.5l.8.3,1.8-.2-.6,2,1.6,1.5h-.7l-1.1-.8-.6-.8-.9-.6-.4-.8.1-.6"/><path id="path-23" class="cls-1" d="M206.9,113.1l-.7.9-.8-.2-.5-.6.1-.1.7-.6h.7l.5.6"/><path id="path-24" class="cls-1" d="M202.1,112.1l-2.1,1h-1.3l-.4-.5,1.3-.8h2.5v.3"/><path id="path-25" class="cls-1" d="M196.2,106.8l.4.8.9-.3,1,.5,1.9.6,2,.6.2.8,1.3-.2,1.3.6-1.6.6-2.8-.5-1-.8-1.8.9-2.6.9-.6-1-2.4.2,1.6-.9.2-1.4.6-1.7,1.4.3"/><path id="path-26" class="cls-1" d="M213,104.1l-2,.1-.5-.9.7-1,1.7-.3,1.4.5v.7l-.2.3-1.1.6"/><path id="path-27" class="cls-1" d="M177.3,100.6l-1.1.6-2.4-.6-1.5.2-2.5-.8,1.6-.6,1.3-.7,1.9.6,1.1.3.6.4,1,.6"/><path id="path-28" class="cls-1" d="M186.5,99.8v1.9l2.4-1.4,2.1,1.2-.6,1.3,1.8,1.2,1.9-1.3,1.3-1.6.1-1.9,2.6.1,2.7.3,2.4.9.1.9-1.3.9,1.3.9-.2.8-3.5,1.3-2.5.3-1.9-.6-.6.9-1.8,1.5-.6.8-2.1,1.2-2.6.1-1.4.7-.1,1.2-2.1.2-2.2,1.5-1.9,2-.7,1.4-.1,2.1,2.7.3.8,1.7.8,1.4,2.5-.4,3.3.7,1.8.6,1.3.8,2.2.5,1.9.7,3,.1,1.9.2-.3,1.6.6,1.9,1.3,2,2.7,1.7,1.4-.6,1-1.9L207,127l-1.3-.9,2.9-.8,2-1.3,1-1.3-.1-1-1.2-1.6-2.2-1.4,2.1-1.9-.7-1.7-.6-2.8,1.3-.4,3.1.5,1.9.2,1.5-.5,1.7.6,2.2,1,.6.7,3.2.1-.1,1.5.6,2.3,1.7.3,1.3,1,2.6-1,1.8-1.9,1.2-.8,1.4,1.6,2.3,2.3,2,2.1-.7,1.1,2.4,1,1.6,1,2.9.5,1.1.6.7,1.5,1.4.3.7.6.1,2-1.3.6-1.3.6-3,.6-2.2,1.5-3.1.3-3.9-.4h-2.7l-1.9.1-1.5,1.3-2.3.8-2.6,2.4-2,1.7,1.6-.3,2.9-2.4,3.8-1.5,2.7-.2,1.6.9-1.7,1.2.6,1.9.6,1.4,2.3.9,3-.3,1.8-2,.1,1.3,1.2.6-2.2,1.2-4,1.1-1.8.7-2,1.3-1.4-.1-.1-1.5,3.2-1.5-2.9.1-2,.2-1.2-1v-2.5l-.8-.6-1.2.3-.6-.5-1.4,1.4-.6,1.4-.6.8-.7.3-.6.1-.2.5h-6.1l-.8.4-1.9,1.3-.2.2-.6.7h-3.5l-.8.3.3.4.2.6v.2L205,149l-1.9.3-2.1.9h-.5l-.6-.3-.2-.3v-.2l.4-.6.8-1,.6-1-.4-1.6-.4-1.7-1.9-.8.2-.3-.3-.2h-.5l-.2-.2-.1-.5h-.2l-.5-.1.1-.2-.5-.2-.2-.5-1.4-.6-1.5-.6-1.7-.7-1.7-.6-1.6.6h-.6l-2.2-.5-1.5.3-1.8-.6-1.9-.3-1.3-.1-.6-.3-.3-1h-.6v.6H128l-3.5-1.8-1.3-.7-3.2-.7-1-1.6.3-1.1-2.3-.7-.3-1.5-2.2-1.3v-.9l1-.8-.1-1.1-3.1-1.1-1.9-2-1.1-1.3-1.7-.8-1.2-.7-.9-.9-1.9.6-1.8,1-1.6-1.2-1.3-.8-1.8-.5-1.8-.1v-17l3.3.5,2.9.8,1.9.2,1.6-.7,2.2-.6,2.7.2,2.7-.8,3-.5,1.2.7,1.4-.5.4-.8,1.2.2,3.1,1.6,2.4-1.2.3,1.4,2.2-.3.6-.6,2.2.1,2.8.7,4.3.6,2.5.3,1.8-.1,2.4.9-2.5.9,3.2.4,4.8-.2,1.6-.3,1.9,1.1,1.9-.9-1.9-.7,1.2-.6,2.2-.1,1.5-.2,1.5.5,1.9,1,2-.2,3.2.8,2.8-.3h2.6l-.2-1.1,1.6-.3,2.8.6v1.7l1.1-1.5,1.5.1.8-1.9L178,99.5l-2.1-.7.2-1.9,2.1-1.3,2.4.3,1.9.8,2.4,2-1.6.9,3.2.2"/><path id="path-29" class="cls-1" d="M143.8,93.3l-.9.8,4-.6,2.5.9,2-.9,1.7.6,1.5,1.8.9-.7-1.3-1.9,1.6-.3,1.8.3,2,.7,1.1,1.8.6,1.3,3.1.9,3.2.8-.2.8-3,.2,1.1.6-.6.6-3.2-.3-3.1-.5-2.1.1-3.4.6-4.5.3-3.2.2-1-.8-2.5-.5-1.6.2-2.2-1.4,1.2-.2,2.8-.3,2.5.1,2.3-.3-3.5-.5-3.9.2h-2.6l-.9-.6,4.2-.7h-2.8l-3.2-.5,1.5-1.4L137,94l4.8-1.1,2,.4"/><path id="path-30" class="cls-1" d="M161.3,92.8,159.7,94l-2.8-1.3.6-.3,2.4-.1,1.4.5"/><path id="path-31" class="cls-1" d="M212.2,93.3l.2.5-1.9-.1h-1.9l-1.9.3-.6-.1L204,93l.1-.6.8-.1,4.2.2,3.1.8"/><path id="path-32" class="cls-1" d="M193.7,93.2l1.4,1.1,1.7-1.5,4.5-.7,3.1,1.9-.3,1.2,3.5-.6,1.7-.7,4,.9,2.5.8.3.7,3.3-.4,1.9,1.1,4.4.7,1.6.7,1.7,1.7-3.3.8,4.3,1.2,2.9.4,2.6,1.7,2.9.1-.6,1.3-3.2,2.1-2.2-.7-2.9-1.8-2.3.2-.2,1,1.9,1,2.4.8.7.5,1.2,1.8-.6,1.3-2.3-.5-4.5-1.5,2.5,1.6,1.9,1.1.3.6-4.9-.7-3.9-1-2.2-.8.6-.5-2.7-.9-2.6-.8v.6l-5.2.3-1.5-.6,1.2-1.3h3.4l3.7-.2-.6-.6.6-.9,2.3-1.8-.5-.8-.6-.6-2.8-.8-3.6-.6,1.1-.5-1.9-1.1-1.6-.1-1.4-.6-.9.6-3.2.3-6.6-.4-3.8-.6-3-.3-1.5-.6,1.9-.8h-2.6l-.6-1.9,1.4-1.6,1.9-.7,4.6-.5-1.3.9"/><path id="path-33" class="cls-1" d="M168.8,92l2.1.4,3.2-.2.5.6-1.7.8,2.7.7-.3,1.6-3,.7-1.8-.2-1.2-.6-4.5-1.4v-.6l3.7.2-1.9-1.2,2.2-.8"/><path id="path-34" class="cls-1" d="M181.7,94l-1.9,1.4-2-.1-1.1-1.6v-.9l.9-.7,1.8-.5,3.8.1,3.4.5-2.7,1.6-2.2.2"/><path id="path-35" class="cls-1" d="M132.5,96.5l-4.7.8-.9-.8-4.2-.9.7-.7,1.2-1.3,1.6-1.2-1.8-1.1,6.1-.3,2.6.4,4.6.1,1.8.6,1.9.7-2.2.5-4.5,1.3-2.2,1.3v.6"/><path id="path-36" class="cls-1" d="M181,90l-1,.7-2.6-.1-2.2-.5.9-.8,2.6-.5,1.6.6.7.6"/><path id="path-37" class="cls-1" d="M172.2,86.8l1.4.8.1.9-.8,1.3-3,.2-1.9-.3v-1l-3,.1-.1-1.4,1.9.1,2.7-.6,2.5.1.2-.2"/><path id="path-38" class="cls-1" d="M154.6,87.8l.7.6,1.6-.3,1.9.1.3.9L158,90l-6.1.3-4.5.7h-2.8l-.2-.6,3.7-.8-8.2.2-2.5-.3,2.5-1.8,1.7-.5,5.1.6,3.2,1.1,3.2.1-2.6-1.8,1.7-.6,1.9.2.5,1"/><path id="path-39" class="cls-1" d="M179,86.1l2,.6h3.5l1.6.6-.4.6,2,.4,1.1.5,2.4.1,2.8.1,2.9-.4,3.7-.2,3,.1,1.9.6.4.7-1.1.5-2.7.4-2.3-.2-5.2.3h-3.7l-2.9-.2-4.8-.6-.6-1-.2-.9-1.9-.7-3.7-.2-2.1-.6.6-.7,3.7.2"/><path id="path-40" class="cls-1" d="M140.2,85.2l-.3,1.4-1.4.6-1.7.1-3.3.7-2.9.3-2.4-.4h0l3.1-1.4,3.7-1.2h2.8l2.4-.1"/><path id="path-41" class="cls-1" d="M180.5,85.3l-.8.1-3.3-.1-.5-.5h3.6l1.3.4-.3.1"/><path id="path-42" class="cls-1" d="M151,85.1l-3.3.6-2.7-.6,1.5-.6,2.6-.2,2.5.3-.6.5"/><path id="path-43" class="cls-1" d="M152,83.4l-2.2.4h-3v-.3l1.9-.6.9.1,2.4.4"/><path id="path-44" class="cls-1" d="M177,84.4l-2.7.4-1.5-.5-.7-.6-.2-.7,2.3.1,1,.1,2.1.6-.3.6"/><path id="path-45" class="cls-1" d="M169.3,83.9l.7.7-3-.2-3-.6-4-.1,1.8-.6-2.2-.5-.1-.6,3.5.3,5,.7,1.3.9"/><path id="path-46" class="cls-1" d="M192.9,81.5l2.1.6-2.5.6-3.3,1.4-3.2.1-3.7-.2-1.9-.7v-.6l1.4-.5h-3.3l-1.9-.6-1.1-.8,1.2-.8,1.2-.6,1.9-.1-.7-.4,4.2-.1,2.3.9,3.1.4,3,.4,1.2,1"/><path id="path-47" class="cls-1" d="M226.3,75.3l4.8.2,3.9.2,3.3.5-.1.5-4.4.7-4.4.4-1.7.4h3.9l-4.3,1.1-3,.6-3.1,1.5-3.7.3-1.1.4-5.5.2,2.5.2-1.2.3,1.5.9-1.7.6-2.8.6-.8.7-2.5.6.3.4,3.1-.1V87l-4.8,1.1-4.7-.5-5.3.3-2.7-.2-3.4-.1-.2-.8,3.3-.4-.9-1.3,1.1-.1,4.8.7L194,84.6l-3-.4,1.5-.7,3.2-.5.6-.6-2.5-.7-.7-.9,4.9.1,1.4.2,2.8-.6-4.1-.2-6.3.1-3.2-.6-1.5-.7-2.1-.6-.4-.6,2.7-.4,2.1-.1,3.5-.3,2.7-.6,2.2.1,1.9.5,1.4-1,2.4-.3,3.2-.2,5.5-.1.9.2,5.2-.3,3.9.1,4.1-.2"/></g><g id="group-48"><path id="path-49" class="cls-1" d="M209.9,182.5l-.5.1-.5-1-.6-.6.4-1.1.6.1.6,1.5v1"/><path id="path-50" class="cls-1" d="M209.5,177.3l-1.9.3-.1-.6.8-.2,1.2.1v.4"/><path id="path-51" class="cls-1" d="M211,177.3l-.3,1.3-.4-.2v-.9l-.8-.7v-.2l1.5.7"/></g><g id="group-52"><path id="path-53" class="cls-1" d="M189.1,193.1v-.3l.2-.1.4.2.6-1.1h.4v.3h.4v.5l-.3.7.2.3-.2.6.1.2-.2.9-.4.5-.4.1-.4.6H189l.2-2-.1-1.4"/></g><g id="group-54"><path id="path-55" class="cls-1" d="M200.2,210.5l-1-.4-.4-.4.2-.3-.1-.4-.5-.5-.7-.4-.6-.2-.1-.6-.5-.3.1.6-.4.5-.4-.5-.6-.2-.3-.4v-.6l.3-.6-.5-.3.4-.4.3-.3,1.2.5.4-.3.6.2.3.4.6.1.5-.4.5,1,.7.7.8.7-.7.2v.7l.4.3-.3.2.1.4-.2.4v.6"/></g><g id="group-56"><path id="path-57" class="cls-1" d="M201.4,183.5l1.6.1h1.4l1.7.6.7.6,1.7-.2.6.5,1.5,1.1,1.1.8h.6l1.1.4-.1.5,1.3.1,1.4.7-.2.5-1.2.2-1.2.1-1.2-.2-2.6.2,1.2-1-.8-.5-1.2-.1-.6-.6-.5-1-1,.1L205,186l-.6-.4-2.3-.3-.6-.4.6-.5-1.8-.1-1.3.9h-.7l-.3.5-.9.2-.7-.2.9-.6.4-.6.8-.4.9-.4,1.4-.2h.6"/></g><g id="group-58"><path id="path-59" class="cls-1" d="M220.5,189.7l.2-.3h1.4l1.1.5h.5l.4.6h1l-.1.6.8.1.9.6-.6.7-.8-.4-.8.1-.6-.1-.4.4-.6.1-.3-.5-.6.3-.7,1.2-.5-.3-.1-.6v-.5l-.5-.6.5-.3.1-.6-.3-1"/></g><g id="group-60"><path id="path-61" class="cls-1" d="M192.3,201.9l-.3-.6-.6-.2.1-.7-.3-.2-.4-.1-.8.2V200l-.6-.3-.4-.4-.6-.2.4-.5-.2-.4.1-.4.8-.5.8-.6.2.1.4-.3h.6l.2.2.3-.1.8.2.8-.1.6-.2.2-.2.6.1.5.1h.5l.4-.2.8.3h.3l.6.4.6.4.6.3.5.5H199l-.3.3-.6.3h-.5l-.4.2-.4-.1-.3-.3-.2.1-.2.5H196v.4l-.6.5-.4.2-.2.2-.6-.4-.4.5H193v.9h-.3l-.2.4h-.2"/></g><g id="group-62"><path id="path-63" class="cls-1" d="M187.3,200.5l-.9-.3h-1.1l-.8-.4-.9-.7v-.6l.2-.5-.3-.4.8-1.5h2.3v-.6l-.3-.1-.2-.4-.6-.4-.6-.6h.8v-1h3.4v1.4l-.2,2h.6l.6.4.2-.3.6.2-.8.6-1.1.7-.1.4.2.4-.4.5-.5.1.1.2-.4.2-.6.5v.2"/></g><g id="group-64"><path id="path-65" class="cls-1" d="M217.8,189.3l1.1.1,1.6.3.2,1-.1.6-.5.3.5.6v.5l-1.2-.3-.8.1-1.1-.1-.8.4-.9-.6.2-.6,1.7.3,1.4.2.6-.4-.8-.7v-.6l-1.1-.3v-.8"/></g><g id="group-66"><path id="path-67" class="cls-1" d="M265.6,76.1l6-1.1,6.3.1,2.3-.6,6.4-.2,14.4.2,11.3,1.4-3.3.6-6.9.1-9.7.3.9.3,6.4-.2,5.5.6,3.5-.6,1.5.6-1.9,1,4.6-.6,8.7-.7,5.4.4,1,.7-7.3,1.3-1,.4-5.8.3,4.2.1L316,81.8,314.5,83l.1,2,2.1,1.2-2.8.1-3,.6,3.3.9.5,1.6-1.9.2,2.3,1.6-4,.1,2.1.7-.6.6-2.5.3h-2.5l2.2,1.2V95l-3.5-.7-.9.5,2.4.5,2.3,1.1.6,1.5-3.2.4-1.4-.6-2.2-1,.6,1.2-2.1.9,4.7.1,2.5.1-4.8,1.6-4.9,1.4-5.3.6h-1.9l-1.9.6-2.5,1.9-3.9,1.3-1.4-.1-2.4.5-2.6.5-1.6,1.1v1.3l-.9,1.2-3,1.5.7,1.4-.8,1.5-.9,1.8-2.5.1-2.7-1.5h-3.6l-1.8-1-1.1-1.8-3.2-2.2-.9-1.2-.3-1.6L253,106l.6-1.3-1.2-.6,1.8-2.1,2.7-.6.7-.7.4-1.4-2,.6-1,.3-1.6.3-2.2-.6-.1-1.2.7-.9h1.7l3.7.5-3.1-1.1-1.6-.6-1.8.3-1.5-.5,2-1.7-1.1-.6-1.4-1.2L246.6,91l-2.3-.7v-.7l-4.8-1-3.8-.1-4.8.1-4.4.1-2.1-.6L221.2,87l4.7-.6,3.6-.1-7.7-.5-4.1-.7.3-.7,6.9-.8,6.6-.8.7-.6-4.8-.6,1.6-.7,6.2-1.3,2.6-.2-.7-.8,4.3-.5,5.6-.3h5.6l1.9.6,4.5-1.3,4.3.6,2.5.2,3.7.6-4.3-.9.4-1.5"/></g><g id="group-68"><path id="path-69" class="cls-1" d="M209.9,191.9l1.2.2.9.5.3.5H211l-.6.3-1-.3-1-.6.2-.4.7-.1h.6"/></g><g id="group-70"><path id="path-71" class="cls-1" d="M209.4,212.3l-.6-.6-.4-.9.5-.5-.5-.1-.4-.6-.9-.5-.8.1-.4.6-.7.5-.4.1-.2.4.8,1-.5.2-.3.3-.8.1-.3-1.1-.3.3-.6-.1-.4-.7-.7-.1-.5-.2h-.7l-.1.4-.2-.3.1-.4.2-.4-.1-.4.3-.2-.4-.3v-.7l.7-.2.6.6v.4l.7.1.2-.2.5.5.9-.1.7-.5,1.1-.4.6-.6,1,.1-.1.2,1,.1.8.3.6.6.6.5-.2.3.5,1-.4.6-.6-.1.1.9"/></g><g id="group-72"><path id="path-73" class="cls-1" d="M230.3,191.9l.9.2.4.4-.5.5h-1.4l-1,.1-.1-.7.3-.3,1.4-.2"/></g><g id="group-74"><path id="path-75" class="cls-1" d="M236.5,265.1l-2-.1-.7,1.5-1-1.3-2.3-.5-1.5,1.7-1.3.3-.7-2.5-.9-2,.6-1.8-.9-.7-.3-1.3-.9-1.2,1.1-1.9-.7-1.5.4-.6-.3-.6.7-.9v-1.6l.1-1.3.4-.6-1.6-2.9,1.3.2h.9l.4-.6,1.6-.7.9-.6,2.3-.3-.2,1.4.2.6-.2,1.2,1.9,1.6,2,.3.7.6,1.2.4.7.6h1.1l1,.6.1,1,.4.6v.7h-.6l.6,2.1,3.4.1-.3,1,.2.7,1,.5.5,1.1-.3,1.4-.5.8.2,1-.6.4v-.6l-1.7-.9h-1.7l-3.2.6-.8,1.6v.9l-.7,2.1v-.6"/></g><g id="group-76"><path id="path-77" class="cls-1" d="M195.2,205.3l-.6-.6-.8-.7-.4-.6-.7-.6-.9-.8.2-.3.3.3.1-.1.6-.1.2-.4h.3v-.9h.9l.4-.5.6.4.2-.2.4-.2.6-.5v-.4h.2l.2-.5.2-.1.3.3.4.1.4-.2h.5l.6-.3.3-.3h.6l-.2.2-.1.4.2.6-.4.6-.2.7-.1.8.1.5v.8l-.3.2-.2.7.1.5-.4.5.1.5.3.3-.5.4-.6-.1-.3-.4-.6-.2-.4.3-1.2-.5-.4.4"/></g><g id="group-78"><path id="path-79" class="cls-1" d="M191.5,201.1l-.2.5h-1l-.6-.2-.7-.4-1-.1-.6-.4.1-.3.6-.5.4-.2-.1-.2.5-.1.6.2.4.4.6.3.1.3.8-.2.4.1.3.2-.6.6"/></g><g id="group-80"><path id="path-81" class="cls-1" d="M238.6,205.8l1-.3.4.1-.1,1.3-1.5.2-.4-.2.6-.5v-.6"/></g><g id="group-82"><path id="path-83" class="cls-1" d="M246,279.8l2.4-2.5,2-1.8,1.2-.7,1.5-1v-1.5l-.9-1-.9.4.4-1,.3-1v-1l-.6-.4-.6.3-.6-.1-.2-.6-.2-1.7-.4-.6-1.2-.5-.7.4-1.9-.4.1-2.4-.6-1,.6-.4-.2-1,.5-.8.3-1.4-.5-1.1-1-.5-.2-.7.3-1-3.4-.1-.6-2.1h.6v-.7l-.4-.6-.1-1-1-.6h-1.1l-.7-.6-1.2-.4-.7-.6-2-.3-1.9-1.6.2-1.2-.2-.6.2-1.4-2.3.3-.9.6-1.6.7-.4.6h-.9l-1.3-.2-1,.3-.8-.2.1-2.8-1.5,1-1.6-.1-.6-.9-1.2-.1.4-.7-1-1.1-.7-1.7.5-.4v-.7l1.1-.6-.2-1,.5-.6.1-.8,2-1.2,1.5-.4.3-.3,1.7.1.8-4.9V227l-.3-1-.8-.6V224l1-.3.4.2.1-.6-1-.2V222h3.5l.6-.6.5.6.4,1,.4-.2,1,.9,1.4-.1.4-.6,1.3-.5.7-.3.2-.7,1.3-.6-.1-.4-1.5-.2-.3-1.1.1-1.2-.8-.5.4-.2,1.3.2,1.4.5.6-.5,1.3-.3,2-.6.6-.6-.3-.5.9-.1.5.4-.3.8.6.3.4.8-.5.6-.3,1.6.5.9.1.8,1.1.8.9.1.2-.4.6-.1.8-.3.6-.5,1,.2.5-.1,1,.2.2-.4-.3-.4.2-.6.7.2.8-.2,1,.4.7.4.6-.5.4.1.3.5.8-.1.6-.6.6-1.3,1.1-1.7.6-.1.5,1,1,3.2.9.3.1,1.2-1.4,1.5.6.6,3.2.3.1,1.8,1.4-1.2,2.2.6,3,1.1.8,1-.3,1,2.1-.6,3.5.9,2.7-.1,2.7,1.5,2.3,2,1.4.6,1.6.1.6.6.6,2.3.3,1.1-.7,3-.9,1.2-2.5,2.5-1.1,2-1.3,1.6h-.5l-.5,1.3.1,3.3-.5,2.8-.2,1.2-.6.7-.3,2.4-1.9,2.3-.3,1.9-1.5.7L275,266h-1.9l-2.9.6-1.3.8-2,.6-2.1,1.4-1.5,1.8-.3,1.4.3,1-.4,1.9-.4.8-1.3,1-2,3.2-1.6,1.4-1.2.8-.8,1.7-1.2,1-.5-1,.8-.8-1-1.2-1.4-1-1.9-1.1-.6.1L248,279l-2,.8"/></g><g id="group-84"><path id="path-85" class="cls-1" d="M226,320.3v4h1.9l1.1.1-.6.7-1.6.6-.9-.1-1.1-.2-1.3-.6-1.9-.3-2.2-1-1.9-.9-2.5-2,1.5.4,2.5,1.2,2.4.6.9-.8.6-1.2,1.7-.7,1.4.2"/><path id="path-86" class="cls-1" d="M226.8,264.1l.7,2.5,1.3-.3.2.5-.6,1.9-1.9.9.1,3-.4.6.6.7-1.3,1.1-1.2,1.7-.6,1.7.2,1.8-1.1,1.9.8,3.2.5.4v1.7l-1,1.8v1.5l-1.4,1.2v1.7l.6,1.8-1.1.6-.5,1.6-.5,1.9.3,2.2-.7.4.5,2,.8.6-.6.7.8.4.2.6-.7.4.2,1-.6,2.4-.9,1.6.2.9-.6,1.1-1.4.8.2,1.9.6.6,1.2-.1v1.4l.7,1,4.4.3,1.7.3h-1.6l-.8.5-1.7.6-.3,1.7h-.7l-2-.6-2-1.3h0l-2.2-1-.6-1.1.6-1-.9-1.2-.2-3.1.7-1.8,1.9-1.4-2.8-.6,1.8-1.6.6-3,2,.6.9-3.7-1.2-.5-.6,2.2-1.1-.3.6-2.6.6-3.3.8-1.2-.6-1.8-.2-2,.7-.1,1.1-2.9,1.2-2.9.7-2.7-.4-2.7.6-1.5-.2-2.2,1-2.2.4-3.5.6-3.7.6-4-.1-3-.4-2.5.9-.5.5-.9.9,1.2.3,1.3.9.7-.6,1.8.6,1.9"/></g><g id="group-87"><path id="path-88" class="cls-1" d="M224.3,257l-.5.9-.9.5-1.8-1-.3-.7-3.6-1.9-3.2-1.9-1.4-1.1-.7-1.5.3-.6-1.5-2.4-1.8-3.3-1.7-3.6-.7-.8-.6-1.3-1.4-1.2-1.3-.7.6-.8-.8-1.8.6-1.3,1.4-1.1.2.7-.6.5.1.6.7-.2.7.2.7.9,1-.7.4-1.2,1.1-1.6,2.1-.7,1.9-1.9.6-1.2-.3-1.4.5-.2,1.2.8.6.8.8.5,1,1.9,1.3.2,1-.5.6.3,1.1-.2,1.4.8-1.2,1.9h.6l.9.9-1.7-.1-.3.3-1.5.4-2,1.2-.1.8-.5.6.2,1-1.1.6v.7l-.5.4.7,1.7,1,1.1-.4.7,1.2.1.6.9,1.6.1,1.5-1-.1,2.8.8.2,1-.3,1.6,2.9-.4.6-.1,1.3v1.6l-.7.9.3.6-.4.6.7,1.5-.5,2.2"/></g><g id="group-89"><path id="path-90" class="cls-1" d="M213.8,225.6l-.7-.5-.9-.6-.6.3-1.6-.3-.5-.7h-.4l-1.8-1-.3-.6.6-.1-.1-.9.5-.6.9-.1.7-1.1.6-.9-.6-.5.4-1-.4-1.7.4-.5-.3-1.5-.7-.9.2-.8.6.1.4-.6-.5-1,.2-.3.9.1,1.4-1.3.7-.2v-.6l.4-1.5,1-.8h1.1l.2-.4,1.4.2,1.4-.9.7-.4.8-.8.6.1.5.5-.4.6-1.1.3-.5.9-.7.6-.6.6-.2,1.3-.5,1,.9.1.2.8.4.4.2.7-.2.6.1.4.5.2.5.6,2.3-.2,1,.2,1.3,1.6.7-.2,1.3.1,1-.2.6.3-.4.9-.4.6-.2,1.3.4,1.2.6.6.1.4-.9.9.6.4.5.6.6,1.8-.4.2-.4-1-.5-.6-.5.3h-3.5v1.1l1,.2-.1.6-.4-.2-1,.3v1.3l.8.6.3,1v.7l-.8,4.9-.9-.9h-.6l1.2-1.9-1.4-.8-1.1.2-.6-.3-1,.5-1.3-.2-1-1.9-.8-.5-.6-.8-1.2-.8-.1.4"/></g><g id="group-91"><path id="path-92" class="cls-1" d="M231.7,325l-1.7.1-.9-.6-1.1-.1h-2v-4l.6.8.9,1.4,2.3,1.1,2.5.5-.6.8"/><path id="path-93" class="cls-1" d="M232.7,265.2l1,1.3.7-1.5,2,.1.3.4,3.3,3,1.5.3,2.2,1.3,1.9.7.3.8-1.8,2.8,1.9.5,2,.3,1.4-.3,1.7-1.4.3-1.6.9-.4.9,1V274l-1.5,1-1.2.7-2,1.8-2.6,2.3-.5,1.5-.5,1.9V285l-.4.4-.2,1.2-.1.9,2.3,1.6-.3,1.2,1.1.7-.1.8-1.8,2.3-2.7.9-3.6.4-1.9-.2.4,1.1-.4,1.4.4.9-1.1.6-1.9.3-1.8-.6-.7.5.3,1.8,1.2.6,1-.6.6.9-1.7.6-1.5,1.1-.3,1.9-.5.9h-1.7l-1.4.9-.6,1.4,1.8,1.3,1.8.4-.6,1.6-2.1,1-1.2,2.1-1.7.7-.7.8.6,1.9,1.2,1-.7-.1-1.7-.3-4.4-.3-.7-1v-1.4l-1.2.1-.6-.6-.2-1.9,1.4-.8.6-1.1-.2-.9.9-1.6.6-2.4-.2-1,.7-.4-.2-.6-.8-.4.6-.7-.8-.6-.5-2,.7-.4-.3-2.2.5-1.9.5-1.6,1.1-.6-.6-1.8v-1.7l1.4-1.2v-1.5l1-1.8v-1.7l-.5-.4-.8-3.2,1.1-1.9-.2-1.8.6-1.7,1.2-1.7,1.3-1.1-.6-.7.4-.6-.1-3,1.9-.9.6-1.9-.2-.5,1.5-1.7,3,1"/></g><g id="group-94"><path id="path-95" class="cls-1" d="M460.4,160.9l1.9.6,1.4-.3.4-.8,1.4-.3,1-.6.4-1.5,1.5-.4.3-.6.8.5.6.1h1l1.4.4.6.2,1.3-.6.6.4.6-.8h1.1l.3-.3.2-.7.7-.6,1,.4-.2.6.6.1L479,158l.7.6.6-.4.8-.2,1.1-.8,1.2.1h1.9l.3.6-1,.2-.9.4-2,.2-1.9.4-1,.7.5.7.2.9-.9.7.1.6-.5.6-1.7-.1.7,1.2-1.2.6-.7,1.1.1,1.1-.7.5-.6-.2-1.4.3-.2.5h-1.3l-1,1-.1,1.6-2.3.7-1.3-.2-.4.4-1.1-.2-1.8.3-3.1-.9,1.7-1.7-.2-1.2-1.4-.3-.2-1.1-.6-1.5.7-1-.7-.3.5-1.3.5-1.7"/></g><g id="group-96"><path id="path-97" class="cls-1" d="M443.1,181.5l.3-.1.1.5,1.4-.3,1.5.1,1.1.1,1.2-1.2,1.4-1.1,1.1-1.1.4.6.3,1.4H451l-.2,1.2.3.3-.8.4v.7l-.6.7-.1.7-.4.4-5.4-.9-.6-1.9-.1-.5"/></g><g id="group-98"><path id="path-99" class="cls-1" d="M239.5,318.9l2.1-1.1,1.6.5,1.1-.7,1.5.8-.6.6-2.4.6-.8-.6-1.6.8-.9-.9"/></g><g id="group-100"><path id="path-101" class="cls-1" d="M428.6,151.2l2.5-.3.4.5.6.3-.4.5.9.6-.5.6.7.5.8.3v1.2l-.6.1-.7-1V154h-.8l-.6-.5-.4.1-.7-.6-1.3-.5.2-.8-.1-.5"/></g><g id="group-102"><path id="path-103" class="cls-1" d="M431.2,153.6l.6.5h.8v.3l.7,1-1.2-.3-.9-.8-.3-.6.3-.1"/><path id="path-104" class="cls-1" d="M435.5,150.9l.8.1.3-.5,1.1-.7.9.9.9,1.3.8.1.6.5-1.5.2-.3,1.4-.3.6-.6.5.1.9-.5.1-1.1-.9.6-.9-.6-.6-.6.1-2.1,1.3V154l-.8-.3-.7-.5.5-.6-.9-.6.4-.5-.6-.3-.4-.5.5-.3,1.3.6.9.1.3-.2-.9-1,.5-.3.5.1.9,1.2"/></g><g id="group-105"><path id="path-106" class="cls-1" d="M517.3,185.5v1.3l-.6-.3.1,1.5-.6-.9-.1-.9-.4-.8-.7-1-1.7-.1.2.7-.6,1-.7-.4-.3.4-.6-.2-.7-.2-.3-1.5-.6-1.4.3-1.1-1.1-.5.4-.6,1.1-.6-1.3-.9.6-1.2,1.4.7.8.1.2,1.3,1.8.3h1.7l1,.3-.8,1.5-.8.1-.6,1,1,.9.3-1.1h.5l1.1,2.6"/></g><g id="group-107"><path id="path-108" class="cls-1" d="M205,231.5l.9-1.4-.4-.7-.6.8-1.1-.8.4-.5-.3-1.7.6-.3.4-1.1.6-1.2-.1-.7,1-.4,1.2-.7,1.8,1h.4l.5.7,1.6.3.6-.3.9.6.7.5.3,1.4-.6,1.2-1.9,1.9-2.1.7-1.1,1.6-.4,1.2-1,.7-.7-.9-.7-.2-.7.2-.1-.6.6-.5-.7-.8"/></g><g id="group-109"><path id="path-110" class="cls-1" d="M556.2,217.2l.7-.6,1.6-1-.1.9-.1,1.1-.8-.1-.4.6-.9-.9"/></g><g id="group-111"><path id="path-112" class="cls-1" d="M246.8,214.5l2.1.4.2-.4,1.5-.1,1.9.5-.9,1.6.2,1.2.7,1.1-.3.7-.2.8-.5.7-1-.4-.8.2-.7-.2-.2.6.3.4-.2.4-1-.2-1.1-1.6-.3-1H246l-.8-1.3.4-.9-.1-.5,1.1-.5.2-1.5"/></g><g id="group-113"><path id="path-114" class="cls-1" d="M515.5,175.2l.7.6-.1,1.1-1.5.1-1.5-.1-1.1.3-1.7-.6v-.4l1.2-1.3,1-.5,1.3.5h.9l.8.3"/></g><g id="group-115"><path id="path-116" class="cls-1" d="M549.1,191.6l-1.6.8-1.5-.6-.1-1.6.9-.8,1.9-.5h1l.4.6-.8.8-.2,1.3"/><path id="path-117" class="cls-1" d="M580.4,135.5l3.2.6,2.1,1.3.7,1.7h2.8l1.6-.7,3-.6-.9,1.6-.7.6-.6,1.9-1.2,1.8-2.2-.3-1.6.6.5,1.6-.3,2.1-.9.1v.9l-1.2-1-.7,1-2.8.7.3.9-1.6-.1-.8-.6-1.2,1.3-1.9.9-1.5,1.1-2.5.6-1.3.8-1.9.5.9-.8-.3-.6,1.4-1.2-.9-.9-1.6.6-2,1.3-1.1,1.2-1.8.1-.9.8.9,1.2,1.5.3.1.8,1.4.6,2-1.3,1.6.7,1.2.1.3.9-2.6.5-.8.9-1.8.9-.9,1.3,1.9,1,.7,1.8,1.1,1.7,1.2,1.4v1.3l-1.1.5.5.9,1,.6-.3,1.5-.5,1.4-1,.2-1.3,1.9-1.5,2.4-1.7,2.1-2.5,1.7-2.5,1.5-2,.2-1,.6-.6-.6-1,.9-2.5.9-1.9.3-.6,1.9-1,.1-.5-1.3.5-.7-2.4-.6-.8.3-1.9-.5-.8-.7.3-1-1.7-.4-.8-.6-1.6.9-1.8.2h-1.5l-.9.5-.9.3.3,2-.9-.1-.2-.5-.1-.7-1.3.6-.7-.4-1.3-.6.6-1.5-1.1-.4-.5-1.7-1.9.3.2-2.1,1.7-1.5.1-1.5-.1-1.4-.7-.5-.6-1-1,.1-1.9-.3.6-.7-.8-1.1-1.3.7-1.5-.5-2,1.1-1.7,1.3-1.5.2-.8-.5h-.9l-1.3-.5-1,.5-1.2,1.3L511,174l-1.1.4-2.1-.2-2-.4-1.5-.8-1.4-.4-.6-.8-.9.1-1.9-1.2-1.5-.6-.7.5-2.5-1.3-1.8-1.1-.5-1.9,1.3.3.1-.9-.7-.9.2-1.5-1.9-2.1-3-.7-.6-1.4-1.3-.8-.3-.6-.3-1,.1-.7-1.1-.4-.6.2-.5-1.7.6-.4-.3-.5,1.8-.8,1.2-.4,1.9.3.6-1.1,2.3-.2.6-.7,2.9-1,.3-.4-.2-1,1.2-.5-1.7-3.2,3.6-.7.9-.4,1.3-3.2,3.6.6,1-.8.1-1.8,1.5-.2,1.4-1.2.7-.2.5,1.3,1.5.9,2.6.6,1.2,1.5-.6,2.1.6.7,2.1.3,2.4.3,2.1,1.1,1.1.2.8,1.7,1,1.1h1.9l3.7.4,2.4-.3,1.8.3,2.7,1.1h2.2l.8.6,2.1-.9,2.9-.6,2.7-.1,2.1-.6,1.3-.9,1.3-.6-.3-.6-.6-.6.9-1.2,1,.2,1.9.4,1.8-.9,2.8-.7,1.3-1.2,1.3-.6,2.6-.3,1.4.2.2-.6-1.7-1.3-1.5-.6-1.4.6-1.8-.3-1,.2-.5-.7,1.3-1.8.8-1.4,2.1.6,2.5-1.1V134l1.7-1.9,1-.6v-1l-1-.5,1.5-.9,2.2-.4,2.4-.1,2.7.6,1.6.6,1.1,1.9.6.7.6,1.1.5,2"/></g><g id="group-118"><path id="path-119" class="cls-1" d="M409,161.8h0l.4-.5h1.3l1.7-.6-1.2.7.1.4-.2-.1-.4.1h-.3l-.1.1v-.2l-.1-.1h-.4l-.5.2H409"/></g><g id="group-120"><path id="path-121" class="cls-1" d="M246,279.8l1.2-.2L249,281l.6-.1,1.9,1.1,1.4,1,1,1.2-.8.8.5,1-.7,1.1-2,1-1.3-.4-1,.2-1.7-.7-1.2.1-1.1-1,.2-1.2.4-.4v-1.8l.5-1.9.3-1.2"/></g><g id="group-122"><path id="path-123" class="cls-1" d="M411.3,162l.1.2-1.9.7-.9-.3-.5-.7.8-.1.4.1.5-.2h.4l.1.1v.2l.1-.1h.3l.4-.1.2.2"/></g><g id="group-124"><path id="path-125" class="cls-1" d="M425,150.3l.3-.7-.5-1.2-1-.6-1-.2-.6-.6.2-.2,1.5.3,2.7.3,2.4.8.3.4,1.1-.3,1.7.4.6.7,1.1.5-.5.3.9,1-.3.2-.9-.1-1.3-.6-.5.3-2.5.3-1.8-.9-1.9-.1"/></g><g id="group-126"><path id="path-127" class="cls-1" d="M490.5,161.2l1.9,2.1-.2,1.5.7.9-.1.9-1.3-.3.5,1.9,1.8,1.1,2.5,1.3-1.1.8-.7,1.7,1.8.6,1.7.9,2.3,1,2.5.3,1,.9,1.4.2,2.1.5h1.5l.2-.7-.3-1.1.2-.7,1.1-.4.2,1.4v.4l1.7.6,1.1-.3,1.5.1,1.5-.1.1-1.1-.7-.6,1.5-.2,1.7-1.3,2-1.1,1.5.5,1.3-.7.8,1.1-.6.7,1.9.3.1.6-.6.4.2,1.1-1.3-.4-2.3,1.2.1,1-1,1.5-.1.8-.8,1.5-1.4-.4-.1,1.9-.4.6.2.7-.9.5-.9-2.9h-.5l-.3,1.1-1-.9.6-1,.8-.1.8-1.5-1-.3H514l-1.8-.3-.2-1.3-.8-.1-1.4-.7-.6,1.2,1.3.9-1.1.6-.4.6,1.1.5-.3,1.1.6,1.4.3,1.5-.3.6h-1.2l-2.2.4.1,1.4L506,189l-2.6,1.2-2,2.1-1.4,1.1-1.8,1.2v.8l-.9.5-1.7.6-.8.1-.6,1.4.4,2.3.1,1.5-.7,1.7v3.1l-.9.1-.8,1.4.6.6-1.7.6-.6,1.2-.7.6-1.7-1.7-.8-2.5-.6-1.9-.6-.8-.9-1.8-.5-2.2-.3-1.1-1.7-2.5-.7-3.5-.6-2.3v-2.2l-.4-1.7-2.6,1.1-1.3-.2-2.3-2.2.8-.6-.6-.7-2.1-1.6,1.2-1.2h4l-.4-1.6-1-.9-.2-1.4-1.2-.8,1.9-1.9,2.1.1,1.9-1.9,1.1-1.9,1.8-1.9V168l1.6-1-1.5-.9-.6-1.2-.6-1.6.9-.7,2.7.5,2-.3,1.8-1.6"/></g><g id="group-128"><path id="path-129" class="cls-1" d="M567.9,243.8h-.7l-2.4-1.3,1.7-.4.9.6.6.6-.1.5"/><path id="path-130" class="cls-1" d="M574.6,243.6l-1.6.4-.2-.2.2-.6.7-1.1,1.8-.7.2.4v.6l-1.1,1.2"/><path id="path-131" class="cls-1" d="M562.8,239.9l.6.5,1.1-.2.5.7-2,.4-1.2.3h-.9l.6-1h1l.3-.7"/><path id="path-132" class="cls-1" d="M571.9,239.9l-.3,1-2.7.6-2.4-.2v-.6l1.4-.4,1.1.6,1.2-.1,1.7-.9"/><path id="path-133" class="cls-1" d="M546,237.5l3.4.2.4-.7,3.3.8.6,1.2,2.7.4,2.2,1.1-2,.6-1.9-.7-1.7.1-1.9-.1-1.7-.5-2.1-.6-1.3-.2-.7.2-3.2-.7-.3-.7-1.7-.1,1.2-1.8,2.2.1,1.5.7.7.1.3.6"/><path id="path-134" class="cls-1" d="M593.2,236.5l-.9,1.2-.2-1.4.3-.6.4-.6.4.6v.8"/><path id="path-135" class="cls-1" d="M579.6,231.6l-.6.6-1.2-.4-.4-.7,1.9-.1.3.6"/><path id="path-136" class="cls-1" d="M585.5,230.9l.6,1.4-1.5-.7-1.5-.2-1,.1-1.2-.1.5-1,2.2-.1,1.9.6"/><path id="path-137" class="cls-1" d="M592.1,227.4l.5,2.9,1.9,1.1,1.5-1.9,2-1.1h1.6l1.6.6,1.3.6,1.9.4v11.6l-1.6-1.5-1.9-.4-.5.6-2.3.1.7-1.5,1.1-.5-.5-1.9-.8-1.5-3.5-1.5-1.5-.2-2.7-1.7-.6.8-.6.2-.4-.6v-.7l-1.4-.9,1.9-.6h1.3l-.2-.5h-2.6l-.7-1.1-1.6-.4-.7-.9,2.4-.5.9-.6,2.9.7.6.9"/><path id="path-138" class="cls-1" d="M576,222.7l-1.5,1.8-1.4.4-1.8-.4-3,.1-1.6.3-.3,1.4,1.6,1.6.9-.8,3.3-.6-.2.8-.7-.3-.7,1-1.6.7,1.7,2.3-.4.6,1.6,2v1.2l-.9.6-.7-.6.8-1.5-1.8.7-.5-.5.3-.7-1.3-1,.1-1.8-1.2.6.2,2.1.1,2.6-1.1.3-.7-.6.6-1.7-.3-1.8h-.7l-.6-1.2.7-1.2.3-1.4.9-2.7.4-.7,1.6-1.3,1.4.6,2.3.3,2-.1,1.8-1.3.4.2"/><path id="path-139" class="cls-1" d="M582.2,223.3l-.1,1.6-.9-.2-.3,1.1.7.9-.5.2-.7-1.1-.6-2.3.4-1.5.6-.6.1,1,1,.2.3.7"/><path id="path-140" class="cls-1" d="M562.8,222l2,1.7-2.1.2-.6,1.2.1,1.7-1.8,1.2-.1,1.8-.7,2.8-.3-.6-2,.8-.7-1.1-1.3-.1-.9-.6-2.1.6-.6-.8-1.2.1-1.5-.2-.3-2.4-.9-.5-.8-1.6-.3-1.6.2-1.7,1.1-1.2.3,1.2,1.2,1,1.2-.4,1.1.1,1-.9.8-.2,1.7.5,1.5-.4.9-2.5.6-.6.6-2h2l1.6.3-1,1.7,1.3,1.7v.8"/><path id="path-141" class="cls-1" d="M541,235.8h-2l-1.5-1.5-2.3-1.5-.7-1.1-1.4-1.5-.9-1.4-1.4-2.5-1.6-1.5-.6-1.6-.6-1.4-1.7-1.1-.9-1.6-1.4-1-1.9-1.9-.2-.9,1.2.1,2.8.4,1.6,1.8,1.4,1.2,1,.7,1.7,1.9h1.9l1.5,1.2,1,1.5,1.4.8-.7,1.5,1,.6h.6l.3,1.3.6,1,1.3.2.8,1.1-.5,2.2.2,3"/></g><g id="group-142"><path id="path-143" class="cls-1" d="M221.2,204.1l-.1.5-1,.2.6.8v.9l-.8,1,.6,1.4.7-.1.4-1.3-.6-.6-.1-1.4,2.2-.7-.3-.8.6-.6.6,1.3h1.3l1.2,1,.1.6h1.6l1.9-.2,1,.8,1.4.2,1-.6V206l2.2-.1h2.1l-1.4.6.6.8,1.5.1,1.4.9.3,1.5h.9l.7.5-1.4,1-.2.6.6.6-.5.4-1.1.3v.8l-.5.5,1.2,1.4.3.5-.6.6-2,.6-1.3.3-.6.5-1.4-.5-1.3-.2-.4.2.8.5-.1,1.2.3,1.1,1.5.2.1.4-1.3.6-.2.7-.7.3-1.3.5-.4.6-1.4.1-1-.9-.6-1.8-.5-.6-.6-.4.9-.9-.1-.4-.6-.6-.4-1.2.2-1.3.4-.6.4-.9-.6-.3-1,.2-1.3-.1-.7.2-1.3-1.6-1-.2-2.3.2-.5-.6-.5-.2-.1-.4.2-.6-.2-.7-.4-.4-.2-.8-.9-.1.5-1,.2-1.3.6-.6.7-.6.5-.9,1.5-.6"/></g><g id="group-144"><path id="path-145" class="cls-1" d="M414.5,166.3l-.3.6-.6-.3-.4,1.2.5.2-.5.3-.1.5.8-.3v.7l-.9,2.9-1.2-3.1.6-.6-.1-.1.5-.8.4-1.4.3-.5h.7l.2-.3h.5v.7l-.4.3h0"/></g><g id="group-146"><path id="path-147" class="cls-1" d="M593,163.7l.2.6-1,1.1-.7-.6-.9.5-.5,1-1.2-.6V165l1-1.1,1,.2.7-.7,1.4.3"/><path id="path-148" class="cls-1" d="M604.4,158.2l-.6,1.5.3.9-.9,1.3-2.3.8-3.2.1-2.6,2-1.2-.6-.1-1.4-3.2.4-2.1.8h-2.1l1.9,1.3-1.2,3.1-1.2.7-.8-.7.5-1.7-1.1-.6-.7-1.2,1.7-.6.9-1.1,1.9-.9,1.3-1.2,3.6-.6,1.9.4,1.9-3.2,1.2.8,2.7-1.8,1-.7,1.1-2.2-.3-2,.7-1.1,1.9-.4,1,2.5-.1,1.5-1.7,1.9v2"/><path id="path-149" class="cls-1" d="M609.7,145.6l1.3.4,1.3-.7.4,2-2.7.5-1.6,1.8-2.9-1.2-1,1.9h-2l-.3-1.8.9-1.4,1.9-.1.6-2.5.6-1.4,2.1,1.9,1.4.6"/></g><g id="group-150"><path id="path-151" class="cls-1" d="M414.1,166.9l.3-.6,2,.7,3.5-1.9.7,2.2-.4.3-3.6.9,1.8,1.8-.6.3-.3.6-1.4.3-.5.6-.7.6-2-.3-.1-.3.9-2.9v-.7l.3-.6.1-1"/></g><g id="group-152"><path id="path-153" class="cls-1" d="M431.9,160.4l1.2.6.1,1-.9.6-.5,1.4,1.2,1.7,2.2,1,.9,1.4-.3,1.3h.6v.9l1,.9-1.1-.1-1.2-.2-1.3,1.8-3.3-.2-5.1-3.6-2.7-1.3-2.1-.5-.7-2.2,4-1.9.6-2.2-.2-1.3,1-.5.9-1.1.7-.3,2.1.3.6.5.8-.3,1.5,2.3"/></g><g id="group-154"><path id="path-155" class="cls-1" d="M478.1,149l-1,.4-2.4,1.3-.8,1.3h-.6l-.5-.8-2.3-.1-.4-1.5h-.8l.1-1.9-2.1-1.3-3.1.2-2.1.3-1.8-1.7-1.5-.6-2.8-1.3-.4-.2-4.6,1,.1,6.7-.9.1-1.3-1.4-1.2-.5-2,.4-.8.6-.1-.5.5-.7-.4-.6-2.1-.6L442,146l-1-.5-.1-.6,1.8.2.1-1.3,1.6-.3,1.6.3.3-1.8-.3-1.1-1.8.1-1.6-.5-2.1.8-1.7.4-.9-.3.2-.9-1.1-1.2-1.3.1-1.6-1.2,1-1.4-.6-.4,1.5-1.9,1.9,1,.2-1.3,3.7-1.9,2.8-.1,4,1.2,2.1.7,1.9-.7h2.9l2.3.9.6-.6,2.5.1.5-.8-3-1.2,1.8-.8-.4-.5,1.8-.5-1.3-1.2.8-.6,6.8-.6.8-.5,4.5-.6,1.6-.7,3.2.4.6,1.9,1.9-.5,2.3.6-.2,1,1.8-.1,4.5-1.7-.6.6,2.3,1.4,4,4.5.9-.9,2.5,1,2.6-.5,1,.3.8,1,1.3.4.7.7,2.3-.3.9,1.1-1.4,1.2-1.5.2-.1,1.8-1,.8-3.6-.6-1.3,3.2-.9.4-3.6.7,1.7,3.2-1.2.5.2,1-1.1-.3-.9-.6-2.7-.2-3-.1-.6.2-2.6-.7-1,.4-.3,1-3-.6-1.2.3-.4.5"/></g><g id="group-156"><path id="path-157" class="cls-1" d="M478.1,149l.4-.8,1.2-.3,3,.6.3-1,1-.4,2.6.7.6-.2,3,.1,2.7.2.9.6,1.1.3-.3.4-2.9,1-.6.7-2.3.2-.6,1.1-1.9-.3-1.2.4-1.8.8.3.5-.6.4-3.4.3-2.2-.6-1.9.2.2-1,1.9.3.6-.6,1.4.2,2.3-1.3-2.1-.9-1.3.5-1.3-.6,1.5-1.2-.6-.3"/></g><g id="group-158"><path id="path-159" class="cls-1" d="M536.8,206.1l-.7-.9-.9-1.9-.5-2.1,1.1-1.5,2.3-.4,1.7.3,1.5.7.8-1.2,1.6.6.5,1.2L544,203l-3.1,1.4.8,1.1-1.9.1-1.6.7-1.4-.2"/></g><g id="group-160"><path id="path-161" class="cls-1" d="M581.7,155.6l1.6,2.1.5,1.2v2l-.7.9-1.7.4-1.5.7-1.7.2-.2-1,.4-1.4-.8-1.9,1.3-.3-1.2-1.6.1-.2.8.1.7-.8,1.3-.1.7-.1.4-.2"/></g><g id="group-162"><path id="path-163" class="cls-1" d="M539.9,199.5l.6-.8.1-1.5-1.5-1.6-.1-1.8-1.4-1.5-1.4-.1-.4.6-1,.1-.6-.3-1.9,1.1v-1.6l.5-1.9-1.2-.1-.1-1.1-.7-.6.4-.6,1.6-1.2.2.5.9.1-.3-2,.9-.3,1,1.4.8,1.7h2.2l.7,1.6-1.1.5-.6.6,2.1,1.1,1.5,2.1,1.1,1.6,1.4,1.3.5,1.3-.4,1.8-1.6-.6-.8,1.2-1.4-1"/></g><g id="group-164"><path id="path-165" class="cls-1" d="M436.6,171.2l.4.8-.2.4.6,1.4-1.3.1-.5-.8-1.6-.2,1.3-1.8,1.3.1"/></g><g id="group-166"><path id="path-167" class="cls-1" d="M414.7,165.2h-.5l-.2.3h-.6l.6-1.5.9-1.3v-.1l.8.1.3.7-1,.6-.3,1.2"/></g><g id="group-168"><path id="path-169" class="cls-1" d="M497.6,211.7l-.3,1.9-.7.6-1.6.4-.8-1.4-.3-2.6.8-3,1.2,1,.8,1.3.9,1.8"/></g><g id="group-170"><path id="path-171" class="cls-1" d="M529.7,188.9l-1,.7-1.3.1-.8,1.9-.7.4.8,1.6,1.1,1.3.7,1.2-.6,1.6-.6.4.5.9,1.2,1.4.2,1v.8l.7,1.7-1,1.7-.8,1.9-.2-1.3.6-1.4-.6-1.1.2-1.9-.7-.9-.6-2.1-.4-2.3-.7-1.5-1.2.9-2,1.3-1-.2-1.1-.5.6-2.2-.4-1.7-1.4-2,.2-.6-1-.2-1.3-1.5-.1-1.5.6.3v-1.3l.9-.5-.2-.7.4-.6.1-1.9,1.4.4.8-1.5.1-.8,1-1.5-.1-1,2.3-1.2,1.3.4-.2-1.1.6-.4-.1-.6,1-.1.6,1,.7.5.1,1.4-.1,1.5-1.7,1.5-.2,2.1,1.9-.3.5,1.7,1.1.4-.6,1.5,1.3.6.7.4,1.3-.6.1.7-1.6,1.2-.4.6h-.9"/></g><g id="group-172"><path id="path-173" class="cls-1" d="M508.3,136.3l1.9-.3,3.4-1.6,2.8-.8,1.6.6h1.9l1.2.8,1.8.1,2.6.5,1.8-1.3-.7-1,1.9-1.9,2,.7,1.7.2,2.1.5.4,1.4,2.6.7,1.7-.4,2.3-.3,1.8.3,1.8.8,1.1.9h1.7l2.2.3,1.7-.5,2.4-.3,2.6-1.3,1.1.2.9.6,2.1-.2-.8,1.4-1.3,1.8.5.7,1-.2,1.8.3,1.4-.6,1.5.6,1.7,1.3-.2.6-1.4-.2-2.6.3-1.3.6-1.3,1.2-2.8.7-1.8.9-1.9-.4-1-.2-.9,1.2.6.6.3.6-1.3.6-1.3.9-2.1.6-2.7.1-2.9.6-2.1.9-.8-.6h-2.2l-2.7-1.1-1.8-.3-2.4.3-3.7-.4h-1.9l-1-1.1-.8-1.7-1.1-.2-2.1-1.1-2.4-.3-2.1-.3-.6-.7.6-2.1-1.2-1.5-2.6-.6-1.5-.9-1.2-1"/></g><g id="group-174"><path id="path-175" class="cls-1" d="M532.4,214.1l.2.9,1.2-.2.6-.7.4.2,1,1.1.7,1.2.1,1.2-.2.8.2.6.1,1.1.6.5.7,1.6v.6l-1.3.1-1.7-1.3-2.1-1.4-.2-.9-1-1.2-.3-1.5-.6-1,.2-1.3-.4-.7.3-.3,1.5.6"/><path id="path-176" class="cls-1" d="M564.1,217.2l-1.3.6-1.6-.3h-2l-.6,2-.6.6-.9,2.5-1.5.4-1.7-.5-.8.2-1,.9-1.1-.1-1.2.4-1.2-1-.3-1.2,1.3.6,1.4-.4.4-1.5.7-.4,2.1-.4,1.3-1.4.9-1.1.8.9.4-.6.8.1.1-1.1.1-.9,1.4-1.3.9-1.4h.7l.9.9.1.7,1.2.5,1.5.6-.1.7-1.2.1.1.9"/></g><g id="group-177"><path id="path-178" class="cls-1" d="M456.3,187.2l-.6,1.2-.8-.1-.4.5-.3.9.2,1.2-.2.2h-.8l-1.1.6-.2.8-.4.4h-1.1l-.7.5v.7l-.8.5-1-.2-1.2.6-.8.1-.6-1.3-1.4-3,5.4-1.8,1.2-3.6-.8-1.3.1-.7.6-.7V182l.8-.4-.3-.3.2-1.2h.9l.8,1.2,1,.6,1.3.3,1.1.4.8,1,.5.6.6.2v.4l-.6,1.1-.3.5-1.1.8"/><path id="path-179" class="cls-1" d="M451.7,178.6l-.3.4-.4-.6.6-.6.2.2-.1.6"/></g><g id="group-180"><path id="path-181" class="cls-1" d="M509,175l-.2.7.3,1.1-.2.7h-1.5l-2.1-.5-1.4-.2-1-.9-2.5-.2-2.3-1-1.7-.9-1.8-.6.7-1.7,1.1-.8.7-.5,1.5.6,1.9,1.2,1,.3.6.8,1.4.4,1.5.8,2,.4,2,.3"/></g><g id="group-182"><path id="path-183" class="cls-1" d="M485.6,158.3l1.3.8.6,1.4,3,.7-1.8,1.5-2,.3-2.7-.5-.9.7.6,1.6.6,1.2,1.5.9-1.6,1v1.3l-1.8,1.9-1.1,1.9-1.9,1.9-2.1-.1-1.9,1.9,1.2.8.2,1.4,1,.9.4,1.6h-4l-1.2,1.2-1.3-.5-.6-1.3-1.4-1.4-3.3.4h-3l-2.5.3.6-2.1,2.6-.9-.2-.8-.7-.4-.1-1.6-1.8-.8-.7-1.1-.9-.9,3.1.9,1.8-.3,1.1.2.4-.4,1.3.2,2.3-.7.1-1.6,1-1h1.3l.2-.5,1.4-.3.6.2.7-.5-.1-1.1.7-1.1,1.1-.5-.7-1.2,1.7.1.5-.6-.1-.6.9-.7-.2-.9-.5-.7,1-.7,1.9-.4,2-.2.9-.4,1.5-.4"/></g><g id="group-184"><path id="path-185" class="cls-1" d="M578.1,210.1l.2,1.2.1,1-.6,1.7-.6-1.9-.8.9.6,1.3-.6.8-2.1-1-.5-1.3.6-.8-1.1-.8-.6.7-.8-.1-1.3,1-.3-.6.7-1.5,1.1-.5,1-.6.6.8,1.4-.5.3-.8,1.3-.1-.1-1.4,1.5.8.2.9-.2.8"/><path id="path-186" class="cls-1" d="M573.8,206.8l-.6.6-.6,1.1-.6.5-1.1-1.2.4-.5.5-.5.2-1.1,1-.1-.3,1.2L574,205l-.2,1.8"/><path id="path-187" class="cls-1" d="M563.9,208.4l-2.4,1.7.9-1.3,1.3-1.1,1.1-1.2.9-1.8.3,1.5-1.2,1-.9,1.2"/><path id="path-188" class="cls-1" d="M570,203.8l1.1.6h1.1v.7l-.8.7-1.1.6-.1-.8.1-.9-.3-.9"/><path id="path-189" class="cls-1" d="M576.5,203.3l.5,2-1.4-.5v.6l.5,1.1-.8.4-.1-1.3-.6-.1-.3-1.1,1,.2V204l-1.1-1.4H576l.5.7"/><path id="path-190" class="cls-1" d="M569.3,201.7l-.5,1.6-.7-.9-.9-1.4,1.6.1.5.6"/><path id="path-191" class="cls-1" d="M569,191.9l1.1.6.6-.5.2.5-.3.7.6,1.3-.5,1.5-1,.6-.3,1.5.4,1.4.9.2.8-.2,2.2,1-.2,1,.6.5-.2.8-1.4-.9-.6-.9-.5.6-1.1-1.1-1.7.3-.9-.4.1-.7.6-.5-.6-.4-.3.6-.9-1-.3-.7-.1-1.8.7.6.2-2.8.6-1.7,1.3-.1"/></g><g id="group-192"><path id="path-193" class="cls-1" d="M585.8,148.8l.3.3-.6-.1-.7.6-.6.6.1,1.3-.9.4-.3.3-.6.6-1.2.3-.7.5-.1.7-.2.2.7.3,1,.8-.3.5-.7.1-1.3.1-.7.8-.8-.1-.1.2-.8-.4-.2.4-.6.2-.1-.4-.5-.2-.5-.3.5-.8.5-.2-.2-.4.5-.9-.1-.3-1-.2-.8-.5,1.5-1.1,1.9-.9,1.2-1.3.8.6,1.6.1-.3-.9,2.8-.7.7-1,.8.8"/></g><g id="group-194"><path id="path-195" class="cls-1" d="M414.1,166.9V168l-.3.6-.8.3.1-.5.5-.3-.5-.2.4-1.2.6.2"/></g><g id="group-196"><path id="path-197" class="cls-1" d="M441.7,180.6l-.1-1.3.5-.9.5-.2.6.6v1l-.4,1-.5.1-.6-.3"/></g><g id="group-198"><path id="path-199" class="cls-1" d="M427.2,195.8l-.3-.7-.6-.6-.1-.7-.9-.6-.9-1.5-.5-1.5-1.2-1.2-.8-.3-1.2-1.8-.2-1.3.1-1.1-1-2-.8-.7-1-.4-.6-1,.1-.4-.5-.9-.6-.4-.7-1.3-1.1-1.5-.9-1.2h-.9l.3-1,.1-.6.2-.7,2,.3.7-.6.5-.6,1.4-.3.3-.6.6-.3-1.8-1.8,3.6-.9.4-.3,2.1.5,2.7,1.3,5.1,3.6,3.3.2,1.6.2.5.8,1.3-.1.7,1.6.9.4.3.6,1.2.7.1.7-.2.6.2.6.6.5.3.6.3.5.6.4.5-.1.4.6.1.4.6,1.9,5.4.9.4-.4.8,1.3-1.2,3.6-5.4,1.8-5.2.6-1.7.8-1.3,1.9-.8.3-.5-.6-.6.1-1.8-.2-.4-.2h-2l-.5.2-.7-.5-.5.9.2.7-1.1.8"/></g><g id="group-200"><path id="path-201" class="cls-1" d="M447.3,158.1l1.6-.4,1.3-1,1.2.1.8-.4,1.3.2,2,.9,1.5.2,2,1.6,1.3.1.2,1.5-.7,2.2-.5,1.3.7.3-.7,1,.6,1.5.2,1.1,1.4.3.2,1.2-1.7,1.7.9.9.7,1.1,1.8.8.1,1.6.8.3.2.8-2.6.9-.6,2.1-3.4-.6L456,179l-2-.3-.7-2.2-.8-.3-1.4.3-1.9.8-2.2-.6-1.9-1.4-1.8-.6-1.2-1.7-1.3-2.4-.9.3-1.1-.6-.6.7-1-.9v-.9h-.6l.3-1.3-.9-1.4-2.2-1-1.2-1.7.5-1.4.9-.6-.1-1-1.2-.6-1.2-2.1-1-1.5.4-.6-.6-2,1.2-.6.3.6.9.8,1.2.3.6-.1,2.1-1.3.6-.1.6.6-.6.9,1.1.9.5-.1.6,1.3,1.7.4,1.3.9,2.6.3,2.8-.5-.5-.2"/></g><g id="group-202"><path id="path-203" class="cls-1" d="M420,165.1l-3.5,1.9-2-.7h0l.3-.3v-.7l.5-1,1-.6-.3-.7-.8-.1-.2-1.4.5-.7.5-.4.5-.4.1-1,.6.4,1.9-.5.9.4h1.5l2-.6h.9l2-.3-.9,1.1-1,.5.2,1.3-.6,2.2-4.1,1.6"/></g><g id="group-204"><path id="path-205" class="cls-1" d="M535.2,203.3l-1.6-.8H532l.3-1.4h-1.6l-.2,1.9-.9,2.6-.6,1.6.1,1.3,1.2.1.7,1.7.3,1.6,1,1,1.1.2.9.9-.6.8-1.2.2-.2-.9-1.5-.8-.3.3-.7-.6-.3-.9-.9-1-.8-.8-.3,1-.4-1,.2-1.1.6-1.8.8-1.9,1-1.7L529,202v-.8l-.2-1-1.2-1.4-.5-.9.6-.4.6-1.6-.7-1.2-1.1-1.3-.8-1.6.7-.4.8-1.9,1.3-.1,1-.7,1-.4.7.6.1,1.1,1.2.1L532,192v1.6l1.9-1.1.6.3,1-.1.4-.6,1.4.1,1.4,1.5.1,1.8,1.5,1.6-.1,1.5-.6.8-1.7-.3-2.3.4-1.1,1.5.7,2.3"/></g><g id="group-206"><path id="path-207" class="cls-1" d="M478.2,152.6l-.6.6-1.9-.3-.2,1,1.9-.2,2.2.6,3.4-.3.5,1.7.6-.2,1.1.4-.1.7.3,1h-1.9l-1.2-.1-1.1.8-.8.2-.6.4-.7-.6.2-1.5-.6-.1.2-.6-1-.4-.7.6-.2.7-.3.3h-1.1l-.6.8-.6-.4-1.3.6-.6-.2,1-1.9-.4-1.3-1.3-.5.5-.8,1.5.1.8-1,.6-1.1,2.4-.5-.4.8.3.5.7.2"/></g><g id="group-208"><path id="path-209" class="cls-1" d="M460.4,160.9l-.2-1.5-1.3-.1-2-1.6-1.5-.2-2-.9-1.3-.2-.8.4-1.2-.1-1.3,1-1.6.4-.4-1.3.3-1.9-1.4-.6.5-1.2L445,153l.4-1.5,1.7.5,1.6-.6-1.3-1.1-.6-1-1.5.5-.2,1.3-.6-1.2.8-.6,2-.4,1.2.5,1.3,1.4.9-.1h2l-.3-.9,1.6-.6,1.5-1,2.4.9.2,1.5.6.4,1.9-.1.6.4.9,1.9,2,1.2,1.2.8,1.9.9,2.4.7-.1,1.1-.6-.1-.8-.5-.3.6-1.5.4-.4,1.5-1,.6-1.4.3-.4.8-1.4.3-1.3-.9"/></g><g id="group-210"><path id="path-211" class="cls-1" d="M416.6,150.7l2.6.7,2.1-.3,1.6.2,2.1-.9,1.9-.1,1.8.9.3.6-.2.8,1.3.5.7.6-1.2.6.6,2-.4.6,1,1.5-.8.3-.6-.5-2.1-.3-.7.3-2,.3h-.9l-2,.6h-1.5l-.9-.4-1.9.5-.6-.4-.1,1-.5.4-.5.4-.6-.8.6-.6-1.1.2L413,159l-1.2,1-2.8.2-1.5-.9-1.9-.1-.4.7-1.2.2-1.8-.9h-1.9l-1.1-1.8-1.3-1,.8-1.4-1.1-.8,2-1.8,2.8-.1.7-1.4,3.4.3,2.1-1.2,2.1-.5h3l2.9,1.2"/><path id="path-212" class="cls-1" d="M399.1,151.8l-1.5.9-.6-.8v-.4l.5-.2.6-1.1-.8-.5,1.9-.6,1.6.3.2.6,1.6.6-.4.5-2.1.1-1,.6"/></g><g id="group-213"><path id="path-214" class="cls-1" d="M569.8,181.2l-1.1,2.9-.7,1.5-.9-1.5-.2-1.3,1-1.8,1.5-1.4.8.6-.4,1"/></g><g id="group-215"><path id="path-216" class="cls-1" d="M470,157.8l.1-1.1-2.4-.7-1.9-.9-1.2-.8-2-1.2-.9-1.9-.6-.4-1.9.1-.6-.4-.2-1.5-2.4-.9-1.5,1-1.6.6.3.9h-2l-.1-6.7,4.6-1,.4.2,2.8,1.3,1.5.6,1.8,1.7,2.1-.3,3.1-.2,2.1,1.3-.1,1.9h.8l.4,1.5,2.3.1.5.8h.6l.8-1.3,2.4-1.3,1-.4.6.2-1.5,1.2,1.3.6,1.3-.5,2.1.9-2.3,1.3-1.4-.2-.7.1-.3-.5.4-.8-2.4.5-.6,1.1-.8,1-1.5-.1-.5.8,1.3.5.4,1.3-1,1.9-1.4-.4-1.2.1"/></g><g id="group-217"><path id="path-218" class="cls-1" d="M575.6,241.3l.2-.5,1.6-.4,1.3-.1.6-.2.6.2-.6.5-1.9.8-1.5.6v-.6l-.3-.3"/></g><g id="group-219"><path id="path-220" class="cls-1" d="M545,186.4l-2.4,1.6-1.5,1.7-.4,1.2,1.4,1.9,1.7,2.3,1.7,1.1,1.1,1.5.8,3.3-.3,3.2-1.5,1.2-2,1.2-1.5,1.5-2.2,1.7-.6-1.1.5-1.2-1.3-1,1.6-.7,1.9-.1-.8-1.1,3.1-1.4.2-2.1-.5-1.2.4-1.8-.5-1.3-1.4-1.3-1.1-1.6-1.5-2.1-2.1-1.1.6-.6,1.1-.5-.7-1.6h-2.2l-.8-1.7-1-1.4.9-.5h1.5l1.8-.2,1.6-.9.8.6,1.7.4-.3,1,.8.7,1.4.4"/></g><g id="group-221"><path id="path-222" class="cls-1" d="M445.9,195.3l-1.3.5-.4.8v.6l-1.8.7-2.9.8-1.6,1.3-.8.1-.6-.1-1,.7-1.1.4-1.5.1-.5.1-.4.5-.5.1-.3.5h-.9l-.6.3-1.2-.1-.5-1,.1-1-.1-.6-.4-1.3-.6-.7.4-.1-.2-.8.2-.4-.1-.7.8-.6-.2-.7.5-.9.7.5.5-.2h2l.4.2,1.8.2.6-.1.5.6.8-.3,1.3-1.9,1.7-.8,5.2-.6,1.4,3,.6.9"/></g><g id="group-223"><path id="path-224" class="cls-1" d="M379.4,235.9l.5,1.3.6,1.1.4.6.6.9,1.2-.2.6-.3,1,.3.3-.5.5-1,1.1-.1.1-.3h.9l-.2.6h2.2v1.1l.4.7-.3,1.1.1,1.1.6.6-.1,2.1.5-.2h.7l1.1-.3.8.1.2.6-.2.8.3.8-.3.6.2.6h-3.7l-.1,5.8,1.2,1.5,1.2,1.1-3.3.7-4.4-.3-1.2-.8-7.3.1-.3.1-1.1-.8-1.2-.1-1.1.3-.8.4-.2-1.1.3-1.6.6-1.7.1-.7.6-1.7.5-.7,1-1.2.6-.8.2-1.3-.1-1-.6-.6-.5-1.1-.5-1.1.1-.4.6-.7-.6-1.8-.4-1.2-.9-1.1.2-.4.7-.3h.6l.6-.2,5.4.6"/><path id="path-225" class="cls-1" d="M372.4,235.6l-.5.2-.5-1.4.7-.7.6-.3.6.6-.6.4-.3.5v.7"/></g><g id="group-226"><path id="path-227" class="cls-1" d="M402.9,233.4l-.1-2.1-.5-.8,1.1.2.6-1,.9.1.1.7.4.4v.6l-.5.4-.7.9-.6.6h-.7"/></g><g id="group-228"><path id="path-229" class="cls-1" d="M354.8,214l-1.5.2-.5-1.2.1-4.2-.4-.4-.1-.9-.6-.6-.6-.6.2-.9.6-.2.4-.8.9-.2.4-.6.6-.6h.6l1.4,1-.1.6.4,1.1-.4.7.2.5-.8,1.1-.6.6-.4,1.1v1.1l.2,3.2"/></g><g id="group-230"><path id="path-231" class="cls-1" d="M396.3,258.8l.4.3.6,1,2,1.9.7.2v.6l.6,1.1,1.4.3,1.1.8-2.6,1.3-1.6,1.4-.6,1.2-.6.6-1,.2-.3.8-.2.6-1.1.5-1.5-.1-.8-.5-.7-.2-.8.5-.5.8-.8.6-.9.8-1.3.2-.4-.6.2-1.1-1.1-1.7-.5-.3v-5.3l1.8-.1.1-6.4,1.3-.1,2.8-.6.6.7,1.1-.7h.6l1-.4.3.1.7,1.6"/></g><g id="group-232"><path id="path-233" class="cls-1" d="M344.8,207.9l-1.2-.5-.8.1-.6.5-.8-.4-.3-.6-.8-.4-.1-1,.5-.7v-.6l1.4-1.5.3-1.2.5-.5.8.3.7-.4.3-.5,1.4-.8.4-.6,1.7-.7,1-.3.5.4h1.1l-.2.8.3.8,1,1.2.1.8,2,.4v1.2l-.4.6-.9.2-.4.8-.6.2H350l-.8-.2-.6.3-.8-.1-3.2.1v1l.2,1.3"/></g><g id="group-234"><path id="path-235" class="cls-1" d="M377.5,211.9l1.5-.1.4-.5h.3l.5.4,2.2-.6.7-.7.9-.6-.2-.6.5-.2,1.8.1,1.7-.8,1.3-1.9.9-.7,1.1-.3.2.7,1,1.1v.7l-.3.7.1.6.6.6,1.4.7,1,.7v.6l1.2.9.7.7.5,1.1,1.4.7.3.6-.6.2h-1.1l-1.4-.2-.6.2-.3.5-.6.1-.7-.4-2,.9-.8-.2-.3.1-.6,1.1-1.4-.4-1.3-.2-1.1-.6-1.5-.6-.9.6-.7.9-.2,1.3-1.2-.1-1.2-.3-1.1.9-.9,1.7-.2-.6-.1-.8-.8-.6-.6-.9-.2-.6-.8-.9.2-.6-.2-.7.2-1.4.5-.4.8-1.9"/></g><g id="group-236"><path id="path-237" class="cls-1" d="M344.8,216.2H344l-1.3-.4h-1.1l-2.1.3-1.2.6-1.8.6-.4-.1.1-1.5.2-.2-.1-.7-.7-.7-.6-.1-.6-.5.4-.8-.2-.8.1-.6h.3l.1-.7-.2-.4.2-.3.6-.2-.5-1.5-.4-.7.2-.6.4-.2.3-.2.5.3h1.4l.4-.6h.3l.6-.2.3.7.5-.2.7-.3.8.4.3.6.8.4.6-.5.8-.1,1.2.5.5,2.6-.7,1.5-.5,2,.7,1.6-.1,1"/></g><g id="group-238"><path id="path-239" class="cls-1" d="M373.5,221.2l-.2-.1-1.1.3-1.1-.3-.8.1h-3l.3-1.4-.7-1.2-.8-.3-.4-.8-.5-.3v-.5l.5-1.3.8-1.8h.6l1.1-1h.6l1,.7,1.2-.6.2-.7.4-.7.3-.9.9-.7.4-1.3.4-.4.3-.9.5-1.1,1.5-1.4.1-.6.2-.4-.7-.7.1-.6.5-.1.7,1.1.1,1.2-.1,1.2,1,1.7h-1l-.5.1-.8-.2-.4.8,1,1,.7.3.3.7.6,1.2-.3.5-.9,1.9-.5.4-.2,1.4.2.7-.2.6.8.9.2.6.6.9.8.6.1.8.2.6-.1.9-1.4-.5-1.5-.5-2,.1"/></g><g id="group-240"><path id="path-241" class="cls-1" d="M405.7,218.9l-.1,2.1.7.3-.6.6-.6.5-.6.9-.4.8-.1,1.5-.5.6v1.4l-.6.5-.1,1.1-.3.1-.2,1,.5.8.1,2.1.3,1.7-.2.9.4,1,1,1,1,2.3-.7-.2-2.4.3-.5.2-.6,1.1.4.8-.3,2.1-.2,1.9.5.3,1.3.7.5-.4.2,1.9h-1.4l-.7-1-.6-.7-1.4-.3-.4-.9-1.1.6-1.5-.3-.6-.8-1.1-.2H394l-.1-.6h-.6l-.8-.1-1.1.3h-.7l-.5.2.1-2.1-.6-.6-.1-1.1.3-1.1-.4-.7v-1.1h-2.2l.2-.6h-.9l-.1.3-1.1.1-.5,1-.3.5-1-.3-.6.3-1.2.2-.6-.9-.4-.6-.6-1.1-.5-1.3h-5.3l-.6.2h-.6l-.7.3-.3-.6.5-.2.1-.7.3-.5.6-.4.5.2.6-.6h1l.1.6.6.3,1-1.1,1-.8.5-.6-.1-1.5.7-1.8.8-.9,1.2-.8.2-.6v-.6l.3-.6-.1-1,.2-1.6.4-1.1.6-.9.1-1.1.2-1.3.7-.9.9-.6,1.5.6,1.1.6,1.3.2,1.4.4.6-1.1.3-.1.8.2,2-.9.7.4.6-.1.3-.5.6-.2,1.4.2h1.1l.6-.2,1.1,1.5.8.2.5-.3.8.1,1-.4.5.7,1.6.9"/></g><g id="group-242"><path id="path-243" class="cls-1" d="M373.4,234l-.6-.6-.6.3-.7.7-1.5-1.9,1.4-1-.6-1.2.6-.5,1.2-.2.2-.8.9.8,1.6.1.6-.8.2-1.2-.2-1.4-.8-1,.7-2.1-.5-.4-1.3.2-.5-.9.1-.7,2.3.1,1.5.5,1.4.5.1-.9.9-1.7,1.1-.9,1.2.3,1.2.1-.1,1.1-.6.9-.4,1.1-.2,1.6.1,1-.3.6v.6l-.2.6-1.2.8-.8.9-.7,1.8.1,1.5-.5.6-1,.8-1,1.1-.6-.3-.1-.6h-1l-.6.6-.8-.1"/></g><g id="group-244"><path id="path-245" class="cls-1" d="M427.8,202.4l.5.6-.1.7-1,.5.7.5-.6.9-.4-.3-.5.1h-1v-.6l-.2-.5.6-.8.6-.8.7.2.7-.5"/></g><g id="group-246"><path id="path-247" class="cls-1" d="M371.6,182.9l-6.2,3.4-5.2,3.5-2.5.8-2,.2v-1.1l-.8-.3-1.1-.6-.5-.8-6.1-3.9-6.1-3.9-6.8-4.4v-2.6l2.9-1.3,1.8-.3,1.5-.5.6-.9,2.1-.7.1-1.3,1-.2.8-.6,2.3-.3.4-.7-.5-.4-.6-1.9-.1-1.1-.6-1.1,1.8-1,1.9-.3,1.1-.7,1.8-.6,3.1-.3,3-.2.9.3,1.7-.7h1.9l.7.5,1.2-.1-.4.9.3,1.8-.5,1.5-1.1,1,.2,1.4,1.5,1.1v.5l1.1.7.7,3.2.6,1.6.1.8-.3,1.5.1.8-.2,1,.2,1.1-.7.7,1,1.3.1.7.6,1,.8-.4,1.4.8,1,1.1"/></g><g id="group-248"><path id="path-249" class="cls-1" d="M413,172.1l-.5.7-.4,1.4-.5.9-.5.3-.6-.6-.8-.8-1.3-2.6-.2.2.7,1.9,1.1,1.9,1.4,2.8.6,1,.6,1,1.6,2-.4.3.1,1.2,2.1,1.6.3.4H395V172.6l-.6-1.5.5-1.1-.3-.7.6-.8h2.4l1.8.5,1.8.6.8.3,1.4-.6.7-.6,1.6-.2,1.3.2.5.9.5-.6,1.5.5,1.4.1.9-.5,1.2,3"/></g><g id="group-250"><path id="path-251" class="cls-1" d="M418.4,198.3l1.1.8,1-.5.5.4h1.2l1.6.7.5.6.8.6.7,1,.6.6-.6.8-.6.8.2.5v.6h1l.5-.1.4.3-.4.6.6,1,.6.8.6.6,5.9,2.1h1.5l-5.1,5.4-2.3.1-1.6,1.3H426l-.5.6h-1.2l-.7-.6-1.7.7-.6.7-1.2-.2-.4-.2-.5.1h-.6l-2.3-1.6H415l-.6-.6v-1l-.9-.3-1-1.9-.8-.5-.3-.7-.9-.8-1.1-.1.6-1h.9l.3-.6V208l.6-1.9.8-.5.2-.7.7-1.4,1.1-.9.7-1.8.3-1.6,2.1.4.7-1.3"/></g><g id="group-252"><path id="path-253" class="cls-1" d="M426.5,202.7l-.6-.6-.7-1-.8-.6-.5-.6-1.6-.7H421l-.5-.4-1,.5-1.1-.8-.6,1.4-2.1-.4-.2-.7.7-2.7.2-1.2.6-.6,1.3-.3.9-1,1,2.1.5,1.7,1,.8,2.5,1.7,1,1,1,1,.6.6.9.6-.6.5-.6-.3"/></g><g id="group-254"><path id="path-255" class="cls-1" d="M351.9,214.6l-2.8,1-1,.6-1.7.6-1.6-.6.1-.7-.7-1.6.5-2,.7-1.5-.5-2.6-.3-1.4v-1l3.2-.1.8.1.6-.3.8.2-.1.6.7.9v1.3l.2,1.4.5.6-.4,1.7.2.9.5,1.1.3.8"/></g><g id="group-256"><path id="path-257" class="cls-1" d="M370,232.5l-1.9-1.9-1.2-1.5-1.1-1.9.1-.6.4-.6.5-1.3.4-1.3.6-.1h2.6v-2.1l.8-.1,1.1.3,1.1-.3.2.1-.1.7.5.9,1.3-.2.5.4-.7,2.1.8,1,.2,1.4-.2,1.2-.6.8-1.6-.1-.9-.8-.2.8-1.2.2-.6.5.6,1.2-1.4,1.2"/></g><g id="group-258"><path id="path-259" class="cls-1" d="M334.7,211.4h-.5l-.4.7h-.5l-.4-.4.1-.7-.7-1.1-.5.2h-.4l-.5.1v-.6l-.3-.5.1-.6-.4-.7-.5-.6h-1.5l-.5.4h-.5l-.3.4-.2.5-.9.8-.8-1.1-.7-.7-.5-.3-.5-.4-.2-.8-.3-.4-.6-.3.8-.8h.6l.5-.3h.4l.3-.3-.2-.6.2-.2v-.6h.8l1.3.5h.4l.1-.2,1,.2.3-.1.1.6h.3l.5-.3.3.1.5.5.7.2.5-.4.6-.3.5-.3.4.1.4.4.2.5.7.7-.4.5-.1.6.4-.2.2.2-.1.6.6.6-.4.2-.2.6.4.7.5,1.5-.6.2-.2.3.2.4-.1.5h0"/></g><g id="group-260"><path id="path-261" class="cls-1" d="M319.6,201.6l.2-.8,1.9-.1.4-.5h.6l.7.5h.6l.6-.3.4.6-.7.4h-.7l-.7-.4-.6.4H322l-.5.3h-1.9"/></g><g id="group-262"><path id="path-263" class="cls-1" d="M322.7,205.4l-.9-.7-.7-.1-.4-.5v-.3l-.6-.4-.1-.4.9-.3.6.1.5-.2,3.3.1v.6l-.2.2.2.6-.3.3h-.4l-.5.3h-.6l-.8.7"/></g><g id="group-264"><path id="path-265" class="cls-1" d="M367.1,223.5l-.4-.3.6-2h3v2.1h-2.6l-.6.2"/></g><g id="group-266"><path id="path-267" class="cls-1" d="M424,226.8l1.1,1.5-1.3.7-.5.7-.6.1-.3,1.3-.6.7-.4,1.2-.7.6-2.6-1.8-.1-1-6.6-3.7-.3-.2V225l.6-.7.9-1.2.6-1.3-.8-2-.2-.9-.8-1.3,1.1-1.1,1.2-1.2.9.3v1l.6.6h1.3l2.3,1.6h.6l.5-.1.4.2,1.2.2.6-.7,1.7-.7.7.6h1.2l-1.6,2-.1,6.5"/></g><g id="group-268"><path id="path-269" class="cls-1" d="M336,217.5h-.5l-1.9-.8-1.7-1.4-1.6-1-1.2-1.2.5-.6.1-.6.8-1,.8-.8h.4l.5-.2.7,1.1-.1.7.4.4h.5l.4-.7h.5l-.1.6.2.8-.4.8.6.5.6.1.7.7.1.7-.2.2-.1,1.7"/></g><g id="group-270"><path id="path-271" class="cls-1" d="M376.8,184l-1.3.6-1-1-2.9-.7-.8-1.1-1.4-.8-.8.4-.6-1-.1-.7-1-1.3.7-.7-.2-1.1.2-1-.1-.8.3-1.5-.1-.8-.6-1.6.8-.5.2-.7-.2-.7,1.2-.6.6-.6.8-.6.1-1.4,2.1.6.7-.2,1.5.3,2.4.8.8,1.6,1.6.4,2.5.7,1.9.9.8-.5.8-.8-.5-1.4.6-.8,1.3-.8,1.2-.3,2.4.4.6.8h.6l.6.3,1.8.2.5.6-.6.8.3.7-.5,1.1.6,1.5v16.7h-2v.7l-7.2-3.4-7.2-3.4-1.4.7"/></g><g id="group-272"><path id="path-273" class="cls-1" d="M402.2,277.6l.6.6-.6.8-.3.6-1,.3-.4.6-.6.2-1.4-1.4.9-1.1,1-.7.8-.4,1,.5"/></g><g id="group-274"><path id="path-275" class="cls-1" d="M340.6,160.7l1.1.7,1.7-.1,1.9.4h.7l.6,1.1.1,1.1.6,1.9.5.4-.4.7-2.3.3-.8.6-1,.2-.1,1.3-2.1.7-.6.9-1.5.5-1.8.3-2.9,1.3v2.1H334v.9l-1.1.1-.6.4h-.8l-.6-.3-1.5.2-.6,1.4-.6.1-.8,2.3-2.5,1.9-.6,2.5-.7.8-.2.6-4.1.2h0l.1-.8.6-.5.6-.9-.1-.6.6-1.3,1-1.1.6-.3.5-1V179l.6-1.1,1.2-.6,1.1-1.9h0l.9-.6,1.7-.2,1.4-1.2.9-.5,1.5-1.5-.5-2.2.6-1.6.3-.9,1.2-1.2,1.9-.8,1.3-.7,1.2-1.9.6-1.1,1.5-.3"/></g><g id="group-276"><path id="path-277" class="cls-1" d="M439.4,247.8l.5.7.5,1.2.3,2.1.5.8-.2.8-.3.6-.6-1-.4.6.4,1.3-.2.7-.5.4-.1,1.5-.7,2.1-.9,2.5-1.1,3.4L436,268l-.8,2.1-1.5.5-1.6.7-1-.5-1.4-.6-.5-.9-.1-1.6-.6-1.5-.2-1.3.3-1.3.8-.3v-.6l.8-1.4.2-1.1-.5-.8-.4-1.1-.2-1.7.6-1,.3-1.1.9-.1,1-.4.6-.4h.8l1-1,1.5-1.1.6-.9-.3-.7.7.2,1-1.3v-1.1l.6-.8.8.9"/></g><g id="group-278"><path id="path-279" class="cls-1" d="M412.3,246.1l1.4-.2,2.1.5.5-.2,1.3-.1.6-.6h1.1l1.9-.7,1.4-1,.3.8-.1,1.8.2,1.6.1,2.8.3.9-.6,1.3-.7,1.3-1.1,1.1-1.7.6-2,.8-2,1.9-.6.4-1.3,1.3-.7.4-.2,1.3.8,1.4.4,1v.6l.3-.1-.1,1.8-.3.8.5.3-.3.7-.7.6-1.5.6-2.1,1-.8.6.2.7.5.1-.2.9h-1.4l-.2-.8-.3-.8-.2-.6.3-2-.5-1.3-.8-2.5,1.9-2,.5-1.3.3-.2.2-1-.3-.6.1-1.4.4-1.2v-2.3l-.9-.6-.8-.1-.4-.5-.8-.4h-1.5l-.1-.6-.2-1.3,5.5-1.5,1,.8.5-.2.7.5.1.7-.4.8.1,1.3,1.2,1.1.6-1.2.7-.4-.2-2.3-.7-1.3-.6-.6h-1l-.5-2.3.8-.9"/></g><g id="group-280"><path id="path-281" class="cls-1" d="M327.9,198.9l.6-.4.3-1h.6l1.3.5,1-.4.7.1.3-.4h7.2l.4-1.3-.3-.2-.8-7.8-.8-7.8h2.8l6.1,3.9,6.1,3.9.5.8,1.1.6.8.3v1.1l2-.2v4.2l-1,1.2-.2,1.1-1.6.3-2.5.2-.6.6-1.1.1h-1.1l-.5-.4-1,.3-1.7.7-.4.6-1.4.8-.3.5-.7.4-.8-.3-.5.5-.3,1.2-1.4,1.5v.6l-.5.7.1,1-.7.3-.5.2-.3-.7-.6.2h-.3l-.4.6h-1.4l-.5-.3-.3.2-.6-.6.1-.6-.2-.2-.4.2.1-.6.4-.5-.7-.7-.2-.5-.4-.4-.4-.1-.5.3-.6.3-.5.4-.7-.2-.5-.5-.3-.1-.5.3h-.3l-.1-.6.1-.6-.2-.7-.6-.5-.4-1v-1.1"/></g><g id="group-282"><path id="path-283" class="cls-1" d="M327.9,198.9l-1.2-1.2-1.1-1.3-1.2-.5-.8-.6h-1l-.8.4-.9-.2-.6.6-.2-.9.5-.9.2-1.7-.2-1.8-.2-.9.2-.9-.5-.8-.9-.7.4-.6h7.1l-.4-2.6.5-.9,1.7-.2-.1-4.6,5.9.1V176l6.8,4.4h-2.8l.8,7.8.8,7.8.3.2-.4,1.3h-7.2l-.3.4-.7-.1-1,.4-1.3-.5h-.6l-.3,1-.5.2"/></g><g id="group-284"><path id="path-285" class="cls-1" d="M412.3,246.1l-.5,1.4.5,2.3h.6l.6.6.7,1.3.2,2.3-.7.4-.6,1.2-1.2-1.1-.1-1.3.4-.8-.1-.7-.7-.5-.5.2-1-.8-.9-.5.6-1.7.6-.6-.4-1.5.4-1.5.3-.5-.5-1.6-.8-.8,1.8.4.4.5.6.8.3,2.5"/></g><g id="group-286"><path id="path-287" class="cls-1" d="M379.5,276.9l-1.3-1.4-.7-1.3-.4-1.8-.5-1.3-.6-2.8v-2.1l-.2-1-.7-.7-.9-1.5-.9-2.1-.4-1.1-1.5-1.8-.1-1.4.8-.4,1.1-.3,1.2.1,1.1.8.3-.1,7.3-.1,1.2.8,4.4.3,3.3-.7,1.5-.4,1.2.1.7.4v.2l-1,.4h-.6l-1.1.7-.6-.7-2.8.6-1.3.1-.1,6.4-1.8.1v12l-1.6.9-.9.1-1.1-.4-.8-.1-.3-.7-.7-.5-1.2.7"/></g><g id="group-288"><path id="path-289" class="cls-1" d="M242.1,210.2l1.2.6,1.1,1.2.1.9h.6l.9.8.7.6-.3,1.6-1.1.5.1.5-.4.9.8,1.3h.6l.3,1,1.1,1.6-.5.1-1-.2-.6.5-.8.3-.6.1-.2.4-.9-.1-1.1-.8-.1-.8-.5-.9.3-1.6.5-.6-.4-.8-.6-.3.3-.8-.5-.4-.9.1-1.2-1.4.5-.5v-.8l1.1-.3.5-.4-.6-.6.2-.6,1.4-1.1"/></g><g id="group-290"><path id="path-291" class="cls-1" d="M353.9,203.7v-1.2l-2-.4-.1-.8-1-1.2-.3-.8.2-.8,1.1-.1.6-.6,2.5-.2,1.6-.3.2-1.1,1-1.2v-4.2l2.5-.8,5.2-3.5,6.2-3.4,2.9.7,1,1,1.3-.6.5,2.8.6.5v.6l.7.6-.4.7-.6,3.6-.1,2.3-2.3,1.7-.7,2.4.7.6v1.2h1.1l-.2.8-.5.1-.1.6h-.4l-1.2-1.9-.5-.1-1.4,1-1.4-.6-.9-.1-.6.3-1-.1-1,.7h-.9L364,201l-.8.5h-.9l-.6-.6-1.8-.6-1.9.2-.5.4-.3,1-.6.7-.1,1.6-1.4-1h-.6l-.6.5"/></g><g id="group-292"><path id="path-293" class="cls-1" d="M365.3,216.7l-1.9.6-.6-.1-.7.4h-1.5l-.9-1.1-.6-1.3-1.3-1.2h-3l.1-2.9V210l.4-1.1.6-.6.8-1.1-.2-.5.4-.7-.4-1.1.1-.6.1-1.6.6-.7.3-1,.5-.4,1.9-.2,1.8.6.6.6h.9l.8-.5,2.2.9h.9l1-.7,1,.1.6-.3.9.1,1.4.6,1.4-1,.5.1,1.2,1.9h.4l.7.7-.2.4-.1.6-1.5,1.4L374,207l-.3.9-.4.4-.4,1.3-.9.7-.3.9-.4.7-.2.7-1.2.6-1-.7h-.6l-1.1,1h-.6l-.8,1.8-.5,1.4"/></g><g id="group-294"><path id="path-295" class="cls-1" d="M404.8,227.4l.7,1-.1,1-.6.2-.9-.1-.6,1-1.1-.2.2-1,.3-.1.1-1.1.6-.5.5.2.9-.4"/></g><g id="group-296"><path id="path-297" class="cls-1" d="M411.2,208.3H411v-.9l-.2-.6-.9-.7-.2-1.3.2-1.3-.8-.1-.1.4-1.1.1.5.6.2,1.1-1,1-.9,1.3-.9.2-1.5-1-.6.4-.2.6-.9.4-.1.4h-1.8l-.3-.4-1.3-.1-.6.3-.5-.2-.9-1-.3-.5-1.3.3-.5.8-.5,1.6-.6.4-.6.2-.2-.1-.6-.6-.1-.6.3-.7v-.7l-1-1.1-.2-.7v-.5l-.6-.6v-1l-.4-.7-.6.1.2-.6.5-.7-.2-.7.6-.6-.4-.5.5-1.1.8-1.3,1.6.1-.1-7.1v-.7h2v-3.6h21.3l.6,1.8-.4.4.3,1.9.6,2.1.6.5,1,.6-.9,1-1.3.3-.6.6-.2,1.2-.7,2.7.2.7-.3,1.6-.7,1.8-1.1.9-.7,1.4-.2.7-.8.5-.9,1.3h0"/></g><g id="group-298"><path id="path-299" class="cls-1" d="M334.1,176.3v-.9h.3v3.2l-5.9-.1.1,4.6-1.8.2-.5.9.4,2.6h-7.1l-.4.6.1-.7h0l4.1-.2.2-.6.7-.8.6-2.5,2.5-1.9.8-2.3.6-.1.6-1.4,1.5-.2.6.3h.8l.6-.4,1.2-.3"/></g><g id="group-300"><path id="path-301" class="cls-1" d="M411.2,208.3v1.4l-.3.6H410l-.6,1,1.1.1.9.8.3.7.8.5,1,1.9-1.2,1.2-1.1,1.1-1.1.8h-1.3l-1.5.5-1.1-.4-.7.5-1.6-1.2-.5-.7-1,.4-.8-.1-.5.3-.8-.2-1.1-1.5-.3-.6-1.4-.7-.5-1.1-.7-.7-1.2-.9v-.6l-1-.7-1.2-.7.6-.2.6-.4.5-1.6.5-.8,1.3-.3.3.5.9,1,.5.2.6-.3,1.3.1.3.4h1.8l.1-.4.9-.4.2-.6.6-.4,1.5,1,.9-.2.9-1.3,1-1-.2-1.1-.5-.6,1.1-.1.1-.4.8.1-.2,1.3.2,1.3.9.7.2.6v.9l.6.3"/></g><g id="group-302"><path id="path-303" class="cls-1" d="M319.8,200.7l-.7-1.4-.9-.6.8-.4.8-1.3.5-.9.6-.6.9.2.8-.4h1l.8.6,1.2.5,1.1,1.3,1.2,1.2.1,1.1.4,1,.6.5.2.7-.1.6-.3.1-1-.2-.1.2h-.4l-1.3-.5h-.8l-3.3-.1-.5.2-.6-.1-.9.3-.3-1.4h1.7l.5-.3h.3l.6-.4.7.4h.7l.7-.4-.4-.6-.6.3h-.6l-.7-.5h-.6l-.4.5-1.7.4"/></g><g id="group-304"><path id="path-305" class="cls-1" d="M438.3,208.3l-.8,1.1-1.3,1.5h-1.5l-5.9-2.1-.6-.6-.6-.8-.6-1,.4-.6.6-.9.6.4.4.7.8.7h.9l1.7-.5,1.9-.2,1.6-.6.9-.1.6-.4,1-.1h0v3.5"/></g><g id="group-306"><path id="path-307" class="cls-1" d="M329.3,213.1l-.5-.1-1.3-.7-.9-.9-.3-.6-.2-1.3.9-.8.2-.5.3-.4h.5l.5-.4H330l.5.6.4.7-.1.6.3.5v.6l.5-.1-.8.8-.8,1-.1.6-.6.4"/></g><g id="group-308"><path id="path-309" class="cls-1" d="M439.7,204.4l.9-.2.8-.6h.6v.5l-.2,1v.9l-.4.6-.5,1.9-.8,2-1.1,2.3-1.6,2.6-1.6,2-2.1,2.5-1.8,1.5-2.7,1.8-1.7,1.4-1.9,2.2-.4.9-.4.5-1.1-1.5v-6.6l1.6-2,.5-.6h1.1l1.6-1.3,2.3-.1,5.1-5.4,1.3-1.5.8-1.1v-3.5h.6l1.1-.2"/></g><g id="group-310"><path id="path-311" class="cls-1" d="M376.1,202.1l.2-.8h-1.1v-1.2l-.7-.6.7-2.4,2.3-1.7.1-2.3.6-3.6.4-.7-.7-.6v-.6l-.6-.5-.5-2.8,1.9-1,7.2,3.4,7.2,3.4.1,7.1-1.6-.1-.8,1.3-.5,1.1.4.5-.6.6.2.7-.5.7-.2.6.6-.1.4.7v1l.6.6v.5l-1.1.3-.9.7-1.3,1.9-1.7.8-1.8-.1-.5.2.2.6-.9.6-.7.7-2.2.6-.5-.4h-.3l-.4.5-1.5.1.3-.5-.6-1.2-.3-.7-.7-.3-1-1,.4-.8.8.2.5-.1h1l-1-1.7.1-1.2-.1-1.2-.9-1.2"/></g><g id="group-312"><path id="path-313" class="cls-1" d="M407.9,273.5l-.4.8-1,.2-1.1-1v-.6l.5-.6.2-.6.6-.1.9.4.3.8v.7"/></g><g id="group-314"><path id="path-315" class="cls-1" d="M353.3,214.2l-1.5.4-.4-.6-.5-1.1-.2-.9.4-1.7-.5-.6-.2-1.4V207l-.7-.9.1-.6h1.6l-.2.9.6.6.6.6.1.9.4.4-.1,4.2.5,1.1"/></g><g id="group-316"><path id="path-317" class="cls-1" d="M367,170.6l-.7-3.2-1.1-.7v-.5l-1.5-1.1-.2-1.4,1.1-1,.5-1.5-.3-1.8.4-.9,1.9-.7,1.3.2-.1.9,1.5-.6.1.4-.9.9v.8l.6.5-.3,1.6-1.2.9.4,1h.9l.5.8.6.3-.1,1.4-.8.6-.6.6-1.2.6.2.7-.2.7-.8.5"/></g><g id="group-318"><path id="path-319" class="cls-1" d="M411.1,227l.3.2,6.6,3.7.1,1,2.6,1.8-.8,2.2.1,1,1.1.6.1.5-.5,1.1.1.6-.1.8.6,1.1.7,1.8.6.4-1.4,1-1.9.7h-1.1l-.6.6-1.3.1-.5.2-2.1-.5-1.4.2-.5-2.4-.6-.8-.4-.5L409,242l-1-.6-1.1-.3-.7-.3-.7-.5-.9-2.2-1-1-.4-1,.2-.9-.5-1.9.7-.1.6-.6.7-.9.5-.4v-.6l-.4-.4-.1-.7.6-.2.1-1-.7-1,.6-.2h1.9l3.7-.2"/></g><g id="group-320"><path id="path-321" class="cls-1" d="M407.5,227.2h-1.9l-.6.2-1.1.6-.5-.2v-1.4l.5-.6.1-1.5.4-.8.6-.9.6-.5.6-.6-.7-.3.1-2.1.7-.5,1.1.4,1.5-.5h1.3l1.1-.8.8,1.3.2.9.8,2-.6,1.3-.9,1.2-.6.7V227l-3.5.2"/></g><g id="group-322"><path id="path-323" class="cls-1" d="M406.9,278.1l-.4.3-.7.9-.5.9-1,1.3-2,1.9-1.3,1.1-1.4.8-1.9.7-.9.1-.3.5-1.1-.3-.9.4-1.9-.4-1.1.2-.7-.1-1.9.7-1.6.3-1.1.6h-.8l-.7-.6h-.6l-.7-.8-.1.3-.3-.5v-1l-.6-1.2.6-.4-.1-1.4-1.2-1.7-.9-1.5h0l-1.3-2.3.8-.9.7.5.3.7.8.1,1.1.4.9-.1,1.6-.9V270l.5.3,1.1,1.7-.2,1.1.4.6,1.3-.2.9-.8.8-.6.5-.8.8-.5.7.2.8.5,1.5.1,1.1-.5.2-.6.3-.8,1-.2.6-.6.6-1.2,1.6-1.4,2.6-1.3h.7l.8.3.6-.2.9.2.8,2.5.5,1.3-.3,2,.2.6-.9-.4-.6.1-.2.6-.5.6v.6l1.1,1,1-.2.4-.8h1.4l-.5,1.3L408,276l-.5.8-.6,1.3"/><path id="path-324" class="cls-1" d="M402.2,277.6l-.7-.6-.8.4-1,.7-.9,1.1,1.4,1.4.6-.2.4-.6,1-.3.3-.6.6-.8-.9-.5"/></g><g id="group-325"><path id="path-326" class="cls-1" d="M409.1,242l.8.8.5,1.6-.3.5-.4,1.5.4,1.5-.6.6-.6,1.7.9.5-5.5,1.5.2,1.3-1.4.3-1,.7-.2.6-.6.2-1.6,1.5-1,1.2h-.6l-.6-.2-2-.2-.3-.1v-.2l-.7-.6-1.2-.1-1.5.4-1.2-1.1-1.2-1.5.1-5.8h3.7l-.2-.6.3-.6-.3-.8.2-.8-.2-.8h.6l.1.6h.8l1.1.2.6.8,1.5.3,1.1-.6.4.9,1.4.3.6.7.7,1h1.4l-.2-1.9-.5.4-1.3-.7-.5-.3.2-1.9.3-2.1-.4-.8.6-1.1.5-.2,2.4-.3.7.2.7.5.7.3,1.1.3,1.5.4"/></g><g id="group-327"><path id="path-328" class="cls-1" d="M406.2,265.5l-.9-.2-.6.2-.8-.3h-.7l-1.1-.8-1.4-.3-.6-1.1v-.6l-.7-.2-2-1.9-.6-1-.4-.3-.6-1.5,2,.2.6.2h.6l1-1.2,1.6-1.5.6-.2.2-.6,1-.7,1.4-.3.1.6h1.5l.8.4.4.5.8.1.9.6v2.3l-.4,1.2-.1,1.4.3.6-.2,1-.3.2-.5,1.3-1.9,1.9"/></g><g id="group-329"><path id="path-330" class="cls-1" d="M612.4,299l1.8.6,1-.3,1.4-.4,1.1.1.1,2.1-.6.6-.2,1.5-.6-.5-1.2,1.3-.4-.1-1.1-.1-1.1-1.6-.3-1.2-1-1.6v-.8l1.1.4"/><path id="path-331" class="cls-1" d="M609.1,250.1l.6,1.4,1.1-.6.6.7.8.7-.2.8.4,1.6.3.9.5.2.5,1.6-.2.9.6,1.2,1.9.9,1.3.8,1.2.7-.3.5,1,1.1.7,1.9.7-.4.7.7.5-.3.3,1.9,1.3,1.1.8.6,1.4,1.5.5,1.5.1,1-.1,1.1.8,1.6-.1,1.6-.3.8-.5,1.6v1l-.4,1.3-.8,1.7-1.3.9-.6,1.4-.6.9-.6,1.6-.7.9-.5,1.4-.3,1.2.1.6-1,.6-2,.1-1.7.7-.8.7-1.1.7-1.5-.8-1.1-.3.3-.9-1,.4-1.6,1.3-1.6-.5-1-.3-1-.1-1.8-.6-1.2-1.1-.4-1.4-.5-.9-.9-.7-1.8-.2.6-.8-.5-1.3-.8,1.2-1.6.4.9-1,.3-1,.7-.9-.2-1.3-1.5,1.6-1.1.6-.6,1.4-1.4-.7.1-.9-1.1-1.3-.9-.6.4-.4-2.3-1.1-1.3-.1-1.8-.8-3.2.2-2.3.6-2,.6-1.8-.1-1.9.9-1.6.4-.4.9-.6.7h-1.6l-1.1.2-1.6-.4-1.3.2-1.2.1-1.1.9-.6-.1-.9.5-.8.6-1.3-.1H560l-1.9-1.1-.9-.4v-1l.9-.3.3-.4-.1-.6.2-1.3-.2-1.1-.9-1.9-.3-1,.1-1-.7-1.2v-.6l-.8-.7-.2-1.4-1-1.4-.3-.7.8.7-.6-1.7.9.6.6.7V272l-.9-1.4-.2-.6-.5-.6.2-1,.4-.5.3-.9-.2-1,.7-1.3.1,1.4.7-1.2,1.5-.6.8-.7,1.4-.6.8-.2.5.2,1.4-.6,1.1-.2.3-.4.5-.2h1l1.9-.6,1-.8.5-.9,1-.9.1-.7.1-1,1.3-1.6.7,1.6.7-.4-.6-.8.6-.8.8.4.2-1.4,1-.9.5-.7.9-.3v-.5l.8.2V251l.8-.3.8-.3,1.3.8,1,1.1h1.1l1.1.2-.4-1,.8-1.5.8-.5-.3-.5.7-1,1.1-.6.9.2,1.5-.4v-.9l-1.3-.6.9-.3,1.2.5.9.7,1.5.5.6-.2,1.1.6,1-.6.6.2.5-.4.8.9-.5.9-.6.7-.6.1.2.7-.6.9-.6.9.1.5,1.4,1,1.4.6.9.6,1.3,1.1h.5l.9.5.3.6,1.8.6,1.2-.6.4-.9.4-.8.2-1,.6-1.4-.3-.8.1-.6-.2-1,.3-1.4.4-.4-.3-.6.5-.9.4-1v-.6l.6-.6.5.9.1,1.1.5.2.1.7.6.9.1,1,.7.6"/></g><g id="group-332"><path id="path-333" class="cls-1" d="M671.9,256.6l.6.6-.3.9-1.1.3-1-.2-.2-.8.7-.6.8.2.5-.4"/><path id="path-334" class="cls-1" d="M673.8,255.6l-1.1.4-.2-.6.9-.4.6-.1,1-.6v.8l-1.2.5"/><path id="path-335" class="cls-1" d="M25.2,255.1l-.2.1v-.8l.4-.1-.2.8"/></g><g id="group-336"><path id="path-337" class="cls-1" d="M236.8,265.5l.7-2.1v-.9l.8-1.6,3.2-.6h1.7l1.7.9v.6l.6,1-.1,2.4,1.9.4.7-.4,1.2.5.4.6.2,1.7.2.6.6.1.6-.3.6.4v1l-.3,1-.4,1-.3,1.6-1.7,1.4-1.4.3-2-.3-1.9-.5,1.8-2.8-.3-.8-1.9-.7-2.2-1.3-1.5-.3-2.9-2.9"/></g><g id="group-338"><path id="path-339" class="cls-1" d="M649.2,263.3l1.5,1.1.9.8-.6.5-1-.5-1.3-.8-1.2-.9-1.2-1.3-.3-.6h.7l1,.6.8.6.7.5"/></g><g id="group-340"><path id="path-341" class="cls-1" d="M662.3,299.2l.4.7,1.3-.7.6.7v.7l-.6.8-1.2,1.3-.9.7.6.8H661l-1.6.6-.5,1.2-1,1.9-1.4.8-.9.6h-1.7l-1.2-.6-1.9-.1-.3-.6.9-1.3,2.2-1.8,1.2-.4,1.3-.6,1.6-.9,1.1-.9.8-1.3.6-.5.3-1,1.3-.8.5.7"/><path id="path-342" class="cls-1" d="M665.2,290.6l1.3,1.9v-1.2l.8.5.3,1.4,1.5.6,1.2.2,1-.6.9.2-.5,1.6-.6,1h-1.4l-.5.6.2.7-.3.4-.6.9-.9,1.2-1.4.7-.3-.5-.7-.3,1-1.5-.6-1-1.9-.7.1-.6,1.3-.6.3-1.4-.1-1.2-.7-1.2.1-.3-.8-.7-1.4-1.6-.7-1.3.6-.2,1,1,1.4.5.4,1.5"/></g><g id="group-343"><path id="path-344" class="cls-1" d="M631.4,237.6l-.5.2-.7-.6-.8-1.1-.4-1.4.3-.2.2.6.6.4.8,1.1.8.6-.3.4"/><path id="path-345" class="cls-1" d="M624.3,235.2l-.9.2-.3.5-1,.5-.9.5h-.9l-1.5-.6-1-.5.2-.6,1.6.3,1-.2.3-.8h.3l.2.9,1-.1.5-.6,1-.6-.2-1h1.1l.4.3v1l-.9.8"/><path id="path-346" class="cls-1" d="M615.7,238.6l1.6,1.2,1.2,1.9,1-.1-.1.8,1.4.3-.6.4,1.9.7-.2.6-1.2.1-.5-.5-1.6-.2-1.9-.3-1.4-1.1-1-1-.9-1.6-2.3-.8-1.5.6-1.1.6.2,1.3-1.4.6-1-.3-1.9-.1V230.1l3.2,1.2,3.3,1,1.2.9,1,.9.3,1,3,1.1.5.9-1.7.2.5,1.3"/><path id="path-347" class="cls-1" d="M626.4,233.4l-.6.5-.4-1-.5-.7-.8-.6-1-.7-1.3-.6.5-.5,1,.5.6.4.7.5.7.7.6.6.5.9"/></g><g id="group-348"><path id="path-349" class="cls-1" d="M642.6,244.2l.5.6h-1.3l-.6-1.1,1.1.5h.3"/><path id="path-350" class="cls-1" d="M640.4,243.2h-.7l-1.1-.2-.4-.3.1-.7,1.2.3.6.4.3.5"/><path id="path-351" class="cls-1" d="M641.9,242.6l-.3.4-1.3-1.6-.4-1.1h.6l.6,1.5.8.8"/><path id="path-352" class="cls-1" d="M638.6,240.4l.1.4-1.4-.7-1-.6-.6-.6.3-.2.8.5,1.5.8.3.4"/><path id="path-353" class="cls-1" d="M634.3,238.5l-.4.1-.8-.4-.7-.7.1-.3,1.1.7.7.6"/></g><g id="group-354"><path id="path-355" class="cls-1" d="M653,255.1l-.6.3-.6-.8.1-.5,1.1,1"/><path id="path-356" class="cls-1" d="M651.6,252.3l.3,1.5-.5-.2-.4.1-.3-.5v-1.4l.9.5"/></g><g id="group-357"><path id="path-358" class="cls-1" d="M387.1,149.8l-.2.6.3.7.7.5v.5l-.6.3-.1.6-.8.8-.3-.1v-.4l-1-.6-.2-.8.2-1.2.3-.6-.3-.3-.1-.6.7-.9.1.4.5-.2.4.5.5.2-.1.6"/></g><g id="group-359"><path id="path-360" class="cls-1" d="M380.6,138.4l-.1.7h-1l.4.4-.6,1.2-.4.3h-1.6l-.9.4-1.5-.2-2.6-.5-.4-.6-1.8.3-.2.4-1.1-.3-.9-.1-.8-.4.3-.5-.1-.3.6-.1.9.5.3-.5,1.6.1,1.3-.3.8.1.6.4.2-.3-.3-1.2.6-.2.6-.8,1.3.6,1-.7.6-.1,1.4.6.8-.1.8.4-.2.2.4.6"/></g><g id="group-361"><path id="path-362" class="cls-1" d="M355.9,132.6l1.3.2,1.7-.4,1.1.8,1,.5-.2,1.2-.5.1-.2,1-1.6-.8-.9.2-1.3-.8-.8-.7h-.8l-.3-.6,1.5-.7"/></g><g id="group-363"><path id="path-364" class="cls-1" d="M392.4,128h1.8l1.9-.6.5-1,1.5-.6-.2-.8,1.1-.3,1.9-.7,1.9.5.3.5.9-.2,1.8.5.2.8-.4.5,1.1,1.2.7.4-.1.4,1.2.3.6.5-.7.4-1.5-.1-.4.2.5.6.5,1.1-1.6.1-.6.4-.1.9-.7-.2-1.7.1-.5-.5-.6.3-.7-.7h-1.4l-2-.5-1.9-.2h-1.4l-1,.5-.8.1v-.8l-.6-.8,1.1-.4v-.7l-.5-.6-.1-.6"/></g><g id="group-365"><path id="path-366" class="cls-1" d="M384.3,144.3h.6l-.5.8.8.6-.3.8-.5.1-.4.2-.6.5-.3,1-1.6-.6-.6-.7-.6-.4-.8-.6-.4-.6-.9-.8.4-.7.6.4.4-.4h.8l1.6.3h1.2l1.1.1"/></g><g id="group-367"><path id="path-368" class="cls-1" d="M390.9,145.4l.6.7.7-.1,1.4.3,2.7.1.9-.5,2.1-.5,1.3.6,1,.2-.9.7-.6,1.3.6,1-1.6-.3-1.9.6v.9l-1.7.2-1.3-.6-1.5.5-1.3-.1-.1-1.2-.9-.6.3-.3-.2-.2.3-.6.6-.6-.8-.7-.2-.6.5-.2"/></g><g id="group-369"><path id="path-370" class="cls-1" d="M367.3,139.5l.1.3-.3.5.8.4.9.1-.2.7-.8.3-1.3-.2-.4.7-.8.1-.3-.3-1,.6-.8.1-.7-.4-.6-.8-.8.3V141l1.3-1-.1-.5.8.2.5-.3h1.6l.4-.4,1.7.5"/></g><g id="group-371"><path id="path-372" class="cls-1" d="M380.6,137.6l-.8-.4-.8.1-1.4-.6-.6.1-1,.7-1.3-.6-1-.7-.9-.5-.2-.7-.3-.6,1.3-.4.6-.5,1.3-.4.5-.4.5.2.8-.2.8.6,1.4.2-.1.5,1,.4.3-.5,1.2.2.2.6,1.3.1.8.9h-.6l-.3.4-.4.1-.1.4-.4.1-.1.2-.6.2h-.8l-.3.5"/></g><g id="group-373"><path id="path-374" class="cls-1" d="M367.9,126v.7l1.9.5v.6l1.9-.4,1-.5,2,.7.8.6.5.9-.5.5.6.6.5.9-.2.6.7,1.1-.8.2-.5-.2-.5.4-1.3.4-.6.5-1.3.4.3.6.2.7.9.5,1,.7-.6.8-.6.2.3,1.2-.2.3-.6-.4-.8-.1-1.3.3-1.6-.1-.3.5-.9-.5-.6.1-1.9-.6-.4.4h-1.6l.2-1.3.9-1.2-2.6-.4-.8-.5.1-.8-.4-.4.2-1.2-.3-1.9h1.1l.5-.6.5-1.7-.4-.6.4-.4,1.5-.1.4.4,1.2-.9-.4-.6-.1-1,1.4.3,1.1-.2"/></g><g id="group-375"><path id="path-376" class="cls-1" d="M372.9,124.9l-1.1,1.5-1.9-1-.3-.7,2.7-.6.6.8"/><path id="path-377" class="cls-1" d="M369.6,123.4l-.5.6-.6-.2-1.3,1.3.5.8-1.1.3-1.4-.3-.7-1-.1-1.9.3-.5.6-.6,1.6-.1.6-.5,1.5-.5-.1.9-.6.6.2.5,1.1.6"/></g><g id="group-378"><path id="path-379" class="cls-1" d="M393.9,121l.2-1-.6.2-1.1-.6-.2-1,2.3-.5,2.2-.3,1.9.3,1.9-.1.3.3-1.3,1,.6,1.7-.7.6h-1.5l-1.6-.6-.8-.2-1.6.2"/></g><g id="group-380"><path id="path-381" class="cls-1" d="M333.6,149.7l.1-1.3-.7-.7,2.6-1.3,2.2.4h2.4l1.9.3,1.5-.1,2.9.1.7.7,3.3.8.6-.4,2,.8,2.1-.3.1,1-1.7,1.2-2.3.4-.2.6-1.1,1-.6,1.5.7,1-1,.8-.4,1.2-1.4.4-1.3,1.4h-4.1l-.9.8-.6.6-.9-.2-.6-.6-.6-1-1.7-.3-.2-.6.6-.6.3-.5-.6-.6.5-1.2-.7-1.1.7-.2.1-.8.3-.3v-1.4l.8-.5-.5-.9-1-.1-.3.2h-1l-.5-.9-.7.3-.8.4"/></g><g id="group-382"><path id="path-383" class="cls-1" d="M401.6,100.7l-.3,1.3,2.8,1.2-1.7,1.4,2.1,2-1.2,1.6,1.7,1.3-.7,1.2,2.7,1.2-.6.9-1.7,1-3.9,2.3-3.2.2-3.2.6-3,.4-1-1-1.8-.6.4-1.8-.8-1.7.8-1,1.7-1.1,4.1-1.9,1.2-.4-.2-.7-2.5-.8-.6-.7-.1-2.8-2.8-1.2-2.4-.9,1.1-.5,2,.9,2.3-.1,1.9.5,1.8-.8.9-1.3,2.8-.6,2.3.7-.9,1.2"/></g><g id="group-384"><path id="path-385" class="cls-1" d="M255.1,220.8l-.6.6-.8.1-.3-.5-.4-.1-.6.5-.7-.4.5-.7.2-.8.3-.7-.7-1-.2-1.2.9-1.6.6.2,1.3.5,1.9,1.5.3.7-1.1,1.7-.6,1.2"/><path id="path-386" class="cls-1" d="M367.2,149.2l-.6,1.4-.8-.4-.5-1.2.4-.6,1.2-.6.3,1.4"/><path id="path-387" class="cls-1" d="M356.5,134.4l1.3.8.9-.2,1.6.8.4.2h.6l.8.5,2.6.4-.9,1.2-.2,1.3-.6.3-.8-.2.1.5-1.3,1v.8l.8-.3.6.8-.1.5.6.6-.6.6.5,1.4,1,.2-.2.7-1.7,1-3.5-.5-2.6.6-.2,1.1-2.1.3-2-.8-.6.4-3.3-.8-.7-.7.9-1.1.4-3.6-1.9-1.9-1.3-.9-2.8-.6-.2-1.3,2.3-.4,3.1.5-.6-2,1.7.7,4.2-1.4.6-1.5,1.6-.4.3.6h.8l.5.8"/></g><g id="group-388"><path id="path-389" class="cls-1" d="M339.7,126.8l-.9,1.2-1.4-.4h-1.1l.4-.9-.4-.9,1.5-.1,1.9,1.1"/><path id="path-390" class="cls-1" d="M344.6,119.4l-1.9,1.9,1.9-.3h1.9l-.5,1.5-1.6,1.6,1.9.1.2.2,1.6,2.1,1.2.3,1.1,2,.6.7,2.2.4L353,131l-.9.6.7.9-1.6.9h-2.4l-3.1.5-.8-.4-1.2.8-1.7-.2-1.3.6-.9-.4,2.7-1.9,1.6-.4h0l-2.8-.3-.6-.7,1.9-.6-1-.9.4-1.2,2.7.2h0l.3-1-1.2-1.1h0l-2.2-.3-.5-.5.6-.8-.6-.5-.9.8-.1-1.8-.9-.9.6-1.9,1.4-1.5,1.5.2,1.9.2"/></g><g id="group-391"><path id="path-392" class="cls-1" d="M392.8,160.8l1,.6,1.4-.1,1.3.1v.3l1-.2-.2.6-2.6.2V162l-2.2-.4.3-.8"/><path id="path-393" class="cls-1" d="M398,150.2l-.6,1.1-.5.2-1.1-.1-.9-.2-2.2.5,1.2,1-.9.3h-1l-.9-.9-.2.6.4,1.1.9.8-.6.4,1,.8.9.6v1l-1.7-.5.6.9-1.1.2.6,1.6h-1.2l-1.5-.7-.6-1.5-.3-1.2-.7-.8-.9-1-.1-.6.8-.8.1-.6.6-.3v-.5l1.2-.2.6-.4h1l.3-.3.4-.1,1.3.1,1.5-.5,1.3.6,1.7-.2v-.9l.6.5"/></g><g id="group-394"><path id="path-395" class="cls-1" d="M383.9,142.4l.5.7.6.6-.6.6-.8-.4h-1.2l-1.6-.3H380l-.4.4-.6-.4-.4.7.9.8.4.6.8.6.6.4.6.7,1.6.6-.2.3-1.7-.6-1-.6-1.7-.6-1.5-1.3.4-.1-.8-.7v-.6l-1.1-.3-.6.7-.6-.6V143h.1l1.3.1.4-.3.6.3h.7v-.5l.6-.2.2-.7,1.4-.5.6.2,1.4.7,1.5.4.4-.1"/></g><g id="group-396"><path id="path-397" class="cls-1" d="M338.7,128l.3,1.3-1.4,1.6-3.2,1-2.6-.3,1.5-1.9-.9-1.9,2.4-1.4,1.4-.8.4.9-.4.9h1.1l1.4.6"/></g><g id="group-398"><path id="path-399" class="cls-1" d="M379.2,140.8l.6-1.2-.4-.4h1l.1-.7.9.5.6.2,1.5-.2.2-.4.7-.1.8-.3.2.1.8-.2.5-.5.6-.1,1.9.6.4-.2,1,.5.1.5-1.1.4-.8,1.2-1.1,1.2-1.5.4-1.1-.1-1.4.5-.6.3-1.5-.4-1.4-.7-.6-.2-.4-.7h0"/></g><g id="group-400"><path id="path-401" class="cls-1" d="M378,156.3l-.6,1.4.3.6-.4.9-1.4-.6-.9-.2-2.5-.9.3-.9,2.1.2,1.9-.2,1.2-.3"/><path id="path-402" class="cls-1" d="M366.6,150.9l1.1,1.3-.3,2.4-.8-.1-.7.6-.6-.5-.1-2.1-.4-1,1,.1.8-.7"/><path id="path-403" class="cls-1" d="M372.3,140.9l2.6.5-.2.9.5.7-1.4-.3-1.6.6.1.9-.2.6.6.9,1.7.9.9,1.5,2,1.5h1.4l.5.4-.5.4,1.6.6,1.3.6,1.6.9.2.4-.4.6-1-.8-1.6-.3-.7,1.2,1.3.6-.2.9-.7.1-.9,1.6-.7.1v-.6l.4-.9.4-.4-.7-1-.6-.9-.7-.2-.6-.7-1.1-.4-.7-.7-1.3-.1-1.4-.8-1.7-1.2-1.2-1-.6-1.8-.9-.2-1.5-.6-.8.3-1,.8-.7.1.2-.7-1-.2-.5-1.4.6-.6-.6-.6.1-.5.7.4.8-.1,1-.6.3.3.8-.1.4-.7,1.3.2.8-.3.2-.7,1.1.3.2-.4,1.8-.3.3.3"/></g><g id="group-404"><path id="path-405" class="cls-1" d="M323.8,105.3l-.4,1.2,2,1.2-2.3,1.4-5.2,1.2-1.6.4-2.4-.3-5-.6,1.8-.8-3.9-.9,3.2-.4-.1-.6-3.8-.5,1.2-1.2,2.7-.3,2.8,1.2,2.8-1,2.2.5,3-.9,3,.4"/></g><g id="group-406"><path id="path-407" class="cls-1" d="M387.5,149.4l-.1.4h-.2l-.1-.6-.5-.2-.4-.5.4-.4.5-.1.3-.6.3-.1.3.3.4.1.3.3.3.1.4.4h.3l-.2.5-.2.2.1.1-.4.1h-1.5"/></g><g id="group-408"><path id="path-409" class="cls-1" d="M391,127.2l-.2-.5.2-.5-.8-.3-1.9-.3-.4-1.5,2-.6,3.1.1,1.8-.2.3.4.9.1,1.8.8.2.8-1.5.6-.5,1-1.9.6h-1.8l-.5-.6-.8.1"/></g><g id="group-410"><path id="path-411" class="cls-1" d="M360.9,134.8l.4.4-.1.8h-.6l-.4-.2.2-1h.5"/></g><g id="group-412"><path id="path-413" class="cls-1" d="M387.9,124.1l.1-1.4.9-1.1,1.7-.6,1.4,1.4h1.5l.4-1.4,1.6-.3.8.2,1.6.6h1.5l.8.4.2.8.6,1-1.9.7-1.1.3-1.8-.8-.9-.1-.3-.4-1.8.2-3.1-.1-2.2.6"/></g><g id="group-414"><path id="path-415" class="cls-1" d="M398,138.3l.5-.3,1.2-.2,1.3.6.7.1.8.5-.1.6.6.3.3.7.6.5-.1.3.4.2-.5.1-1-.1-.2-.3-.4.2.1.3-.5.6-.3.6-.5.2-.3-.8.2-.7-.1-.8-1-1.1-.6-.7-.6-.6-.5-.2"/></g><g id="group-416"><path id="path-417" class="cls-1" d="M387.1,149.8h.2l.1-.4,1-.3.4-.1.6-.1h.8l.9.6.1,1.2-.4.1-.3.3h-1l-.6.4-1.2.2-.7-.5-.3-.7.4-.7"/></g><g id="group-418"><path id="path-419" class="cls-1" d="M385.7,148.6l-.1-.4-.7.9.1.6-.4-.2-.5-.6-.7-.4.2-.3.3-1,.6-.5.4-.2.5.3.3.3.6.2.6.4-.2.2-.4.4-.6.3"/></g><g id="group-420"><path id="path-421" class="cls-1" d="M360.9,128.7l1.5.1.4.6-.5,1.7-.5.6h-1.1l.3,1.9-1-.5-1.1-.8-1.7.4-1.3-.2.9-.5,1.6-2.7,2.5-.6"/></g><g id="group-422"><path id="path-423" class="cls-1" d="M400.8,96.8l5.7,1.3-2.3.5,1.9,1.1-3.1.7-1.5.2.7-1.3-2.3-.7-2.8.6-.9,1.3-1.8.8-1.9-.5-2.3.1-2-.9-1.1.5-1.1.1-.3,1.2-3.4-.3-.5,1H380l-1.2,1.3-1.8,2-2.8,2.5.6.6-.6.7h-1.8l-1.2,1.7.1,2.4,1.1.9-.6,2.1-1.5,1.2-.8,1-1.2-1.1-3.5,2-2.4.5-2.5-.9-.6-1.9-.6-4.2,1.7-1.2,4.7-1.5,3.5-1.9,3.3-2.5,4.4-3.5,3.1-1.4,4.9-2.2,4-.8,3,.1,2.8-1.5,3.2.1,3.5-.2"/><path id="path-424" class="cls-1" d="M394.6,84.8l-4,.7-3.2-.5,1.2-.5-1.1-.6,3.7-.4.7.6,2.7.7"/><path id="path-425" class="cls-1" d="M382.9,81.4l5.9,1.3-4.5.7-1,1.3-1.6.4-.8,1.5-2.1.1-3.9-1.1,1.7-.6-2.7-.6-3.5-1.5L369,81.5l4.9-.6,1,.6h2.6l.6-.6,2.7-.1,2.1.6"/><path id="path-426" class="cls-1" d="M395.9,80.1l3.5.6-2.7.9-5.2.2-5.3-.3-.3-.5h-2.6l-1.9-.8,5.6-.5,2.6.5,1.9-.6,4.4.5"/></g><g id="group-427"><path id="path-428" class="cls-1" d="M333.6,149.7l.6-.5.7-.3.5.9h1l.3-.2,1,.1.5.9-.8.5v1.4l-.3.3-.1.8-.7.2.7,1.1-.5,1.2.6.6-.3.5-.6.6.2.6-.7.5-.9-.3-.9.2.3-1.4-.2-1.1-.8-.2-.5-.6.2-1.2.7-.6.1-.7.4-1.1V151l-.4-.6-.1-.7"/></g><g id="group-429"><path id="path-430" class="cls-1" d="M391,138.9l.7-.4,1.1.2h1.1l.8.5.6-.3,1.3-.2.5-.5h.7l.6.2.6.6.6.7,1,1.1.1.8-.2.7.3.8.8.4.8-.3.8.3v.5l-.8.4-.6-.2-.5,2.1-1-.2-1.3-.6-2.1.5-.9.5-2.7-.1-1.4-.3-.7.1-.6-.7-.4-.3.5-.3-.5-.2-.6.4-1-.6-.2-.7-1.1-.5-.2-.6-1-.7,1.5-.4,1.1-1.2.8-1.2,1.5-.3"/></g><g id="group-431"><path id="path-432" class="cls-1" d="M609.3,133.7l1.9,3.2-2.7-.6-1.1,2.6,1.8,1.9-.1,1.3-1.4-1.1-1.2,1.4-.4-1.5.2-1.8-.2-1.9.4-1.4.1-2.4-1-1.8.2-2.5,1.7-.8-.7-.8.8-.3.5,1.2.6,1.8V132l.6,1.7"/><path id="path-433" class="cls-1" d="M391,127.2h-3.3l-2.2-.2.4-.8,2.5-.6,1.9.3.8.3-.2.5.1.5"/><path id="path-434" class="cls-1" d="M34,105.1l1.2.5-.5-1.3,4.9.3,3.5,1.7-1.8.7-3,.2V109l-.7.4-1.7-.1-1.4-.6-2.4-.6-.4-.7L30,107l-2,.3-1-.6.4-.6-2.1.5.8.8-1,.7V101l4.5,1.4,4.7,1.8-.3.9"/><path id="path-435" class="cls-1" d="M674.9,97.4l-1.9.1-.3-.6,2.3-.7-.1,1.2"/><path id="path-436" class="cls-1" d="M27.3,97.3l-2.3.1V96.2l.2-.1h1.5l2.6.6-.2.3-1.8.3"/><path id="path-437" class="cls-1" d="M609.2,93.1h-2.7l-3.7-.2-.3-.1,1.7-.7,2.2-.2,2.6.6.2.6"/><path id="path-438" class="cls-1" d="M622.1,89.8l-2,.7-2.9-.2-3.3-.7.5-.6,3.3.3,4.4.5"/><path id="path-439" class="cls-1" d="M611.9,88.9l-1.4,1.3-6.7-.1-3,.5-3.6-1.2.9-1.2,2.4-.4,4.7.1,6.7,1"/><path id="path-440" class="cls-1" d="M453.8,97.6l-1,.2-5.9-.3-.5-.8-3.2-.5-.3-1,1.9-.4-.1-1,3.6-1.6-1.7-.2,4.4-1.6-.5-.8,4-.9,5.9-1.1,6-.4,3.1-.6,3.5-.3,1.3.7-1.2.6-6.4.9-5.5.8-5.6,1.8-2.7,1.8-2.8,1.8.4,1.5,3.3,1.4"/><path id="path-441" class="cls-1" d="M543.1,86.4l.5.9,1.7-.5h5.3l4.1.8,1.5.6-.5.9-2,.6-4.7,1-1.4.6,2.2.3,2.7.5,1.7-.4.9,1.1.8-.5,2.9-.3,5.8.3.5.8,7.5.3.1-1.4,3.8.3h2.9l2.9.9.8,1.1L582,95l2.2,1.4,2.9.7,1.8-1.9,2.9.8,3.1-.5,3.5.6,1.3-.5,3,.3-1.3-1.7,2.4-.7,16.3,1.2,1.6,1.1,4.7,1.4,7.3-.4,3.6.3,1.5.7-.2,1.3,2.2.6,2.4-.4,3.2-.1,3.4.4,3.4-.2,3.2,1.6,2.2-.6-1.5-1.1.8-.8,5.8.5,3.7-.1,5.2.8,2.5.7v7.1h0l-2.3.8-2.3-.1,1.7.9,1.1,1.5.8.5.2.7-.5.5-3.3-.4-5,1.4-1.6.2-2.8,1.3-2.6,1.1-.6.8-2.6-1.2-4.7,1.4-.8-.6-1.8.7-2.4-.3-.6,1.2-2.4,1.8.1.7,2,.4-.3,2.6-1.7.1L642,125l.7.7-3.2.9-.6,2-2.7.5-.6,1.9-2.6,1.7-.6-1.2-.7-2.6-1-4,.8-2.5,1.5-1.1.1-.8,2.8-.4,3.2-2.2,3.1-1.9,3.2-1.5,1.5-2.5-2.2.2-1.1,1.5-4.5,1.9-1.5-2.2-4.6.6-4.5,3.1,1.5,1.1-4,.5-2.8.2.1-1.3-2.8-.3-2.2.9-5.5-.3-5.9.6-5.8,3.5-7,4.3,2.9.2.9,1.1,1.8.4,1.1-.9,1.9.1,2.6,1.9.1,1.6-1.4,1.8-.2,2.1-.8,2.9-2.7,2.6-.6,1.2-2.4,2.1-2.4,2-1.2,1-2.4,1h-1.1l-1.1-.8-2.4,1.3-.3.6-.3-.3v-.9l.9-.1.3-2.1-.5-1.6,1.6-.6,2.2.3,1.2-1.8.6-1.9.7-.6.9-1.6-3,.6-1.6.7h-2.8l-.7-1.7-2.1-1.3-3.2-.6-.6-1.8-.6-1.1-.6-.7-1.1-1.9-1.6-.6-2.7-.6-2.4.1-2.2.4-1.5.9,1,.5v1l-1,.6-1.7,1.9v.8l-2.5,1.1L561,135l-2.1.2-.9-.6-1.1-.2-2.6,1.3-2.4.3-1.7.5-2.2-.3h-1.7l-1.1-.9-1.8-.8-1.8-.3-2.3.3-1.7.4-2.6-.7-.4-1.4-2.1-.5-1.7-.2-2-.7-1.9,1.9.7,1-1.8,1.3-2.6-.5-1.8-.1-1.2-.8h-1.9l-1.6-.6-2.8.8-3.4,1.6-1.9.3-.7.2-.9-1.1-2.3.3-.7-.7-1.3-.4-.8-1-1-.3-2.6.5-2.5-1-.9.9-4-4.5-2.3-1.4.6-.6-4.5,1.7-1.8.1.2-1-2.3-.6-1.9.5-.6-1.9-3.2-.4-1.6.7-4.5.6-.8.5-6.8.6-.8.6,1.3,1.2-1.8.5.4.5-1.8.8,3,1.2-.5.8-2.5-.1-.6.4-2.3-.9h-2.9l-1.9.7-2.1-.7-4-1.2-2.8.1-3.7,1.9-.2,1.3-1.9-1-1.5,1.9.6.4-1,1.4L436,139l1.3-.1,1.1,1.2-.2.9.9.3-.8,1.1-1.8.3-1.8,1.9,1.7,1.7-.2,1.2,1.9,2.1-1.1.7-.3.5-.8-.1-1.2-1.1-.5-.1-1.1-.5-.6-.7-1.7-.4-1.1.3-.3-.4L427,147l-2.7-.3-1.5-.3-.2.2-2.3-1.5-2-.6-1.6-1,1.3-.3,1.5-1.5-1-.7,2.7-.7-.1-.4-1.6.3.1-.8.9-.5,1.8-.1.3-.6-.4-1,.7-.9v-.6l-2.7-.6h-1l-1.1-.8-1.4.3-2.3-.6v-.4l-.6-.7-1.5-.1-.2-.6.5-.4-1.1-1-1.9.2-.6-.1-.5.4-.6-.1-.5-1.1-.5-.6.4-.2,1.5.1.7-.4-.7-.6-1.2-.3.1-.4-.7-.4-1.1-1.2.4-.5-.2-.8-1.8-.5-.9.2-.3-.5-1.9-.5-.6-1-.2-.8-.8-.4.7-.6-.6-1.7,1.3-1-.3-.3,2-1-1.9-.8,3.9-2.3,1.7-1,.6-.9-2.7-1.2.7-1.2-1.7-1.3,1.2-1.6-2.1-2,1.7-1.4-2.8-1.2.3-1.3,1.5-.2,3.1-.7,1.9-.6,3,1.1,5,.5,6.8,2,1.4.8.1,1.2-2,.9-3,.5-8.1-1.4-1.3.2,3,1.3.1.8.1,1.9,2.3.6,1.4.5.3-.8-1.1-.7,1.1-.6,4.4,1.1,1.5-.5-1.2-1.3,4.2-1.8,1.7.1,1.7.6,1-1.2-1.5-1.1.9-1.1-1.3-1.1,5,.6,1,1-2.3.2v1l1.4.6,2.8-.4.5-1.1,3.8-.8,6.3-1.6,1.4.1-1.8,1.1,2.2.2,1.3-.6,3.3-.1,2.7-.7,2,1.1,2-1.2-1.9-1,.9-.6,5.3.6,2.5.6,6.5,2,1.2-.9-1.9-.9-.1-.4-2.1-.2.6-.8-.9-1.4-.1-.6,3.3-1.7,1.2-1.7,1.3-.4,4.7.5.4,1-1.7,1.5,1.1.6.6,1.3-.4,2.5,1.9,1.1-.7,1.2-3.5,2.6,2,.3.7-.6,1.9-.5.5-.9,1.6-.8-1-1,.8-1.2-1.9-.2-.5-1L484,98l-2.3-1.5,3.2-1.2-.5-1.3h.9l.9,1-.7,1.8,1.9.4-.8-1.3,3.1-.7,3.7-.1,3.3,1-1.6-1.5-.2-1.9,3.2-.4,4.4.1,3.9-.3-1.5-.9L507,90l2-.1,3.5-.9,4.7-.3.6-.5,4.7-.2,1.5.4,4.1-.9h3.3l.5-.7,1.8-.7,4.3-.7,3.1.6-2.4.5,4.4-.1"/><path id="path-442" class="cls-1" d="M539.6,83.9l-10.2.7,3.3-2.4,1.5-.2,1.4.1,4.5,1-.5.8"/><path id="path-443" class="cls-1" d="M442.2,79.9l-2.4.3-1.6.1-.3.3-2.1.3-1.9-.5,1-.6-4-.1,3.5-.4h2.8l.4.5,1-.5,1.7-.3,2.7.4-.8.5"/><path id="path-444" class="cls-1" d="M530.3,82.9l-3.9.2-5-.6-3-.6L517,80.6l-2.5-.4,4.6-1.2,3.9-.4,3.5.9,4.2,1.8-.4,1.6"/></g><g id="group-445"><path id="path-446" class="cls-1" d="M377.1,133.1l-.7-1.1.2-.6-.5-.9-.6-.6.5-.5-.5-.9,1.2-.6,2.8-.8,2.2-.6,1.8.3.1.5h1.8l2.2.2h3.3l.9.2.5.6.1.8.5.6v.7l-1.1.4.6.8v.8l.9,1.6-.2.5-.9.2-1.7,1.5.5.8-.4-.1-1.7-.6-1.3.3-.8-.2-1,.4-.9-.6-.7.3-.1-.1-.8-.9-1.3-.1-.2-.6-1.2-.2-.3.5-1-.4.1-.5L378,134l-.9-.9"/></g><g id="group-447"><path id="path-448" class="cls-1" d="M387.6,143.3l1.1.5.2.7,1,.6.6-.4.5.2-.5.3.4.3-.5.4.2.6.8.7-.6.6-.3.6.2.2-.3.3h-.8l-.6.1-.1-.1.2-.2.2-.5H389l-.4-.4-.3-.1-.3-.3-.4-.1-.3-.3-.3.1-.3.6-.5.1.2-.2-.6-.4-.6-.2-.3-.3-.5-.3.5-.1.3-.8-.8-.6.5-.8h-.6l.6-.6-.6-.6-.5-.7,1.4-.5,1.1.1,1,.7.3.8"/></g><g id="group-449"><path id="path-450" class="cls-1" d="M384,135.9h0l.8-.2.9.6,1-.4.8.2,1.3-.3,1.7.6-.5.5-.4.7-.4.2-1.9-.6-.6.1-.5.5-.8.2-.2-.1-.8.3-.7.1-.2.4-1.5.2-.6-.2-.9-.5-.2-.6.2-.2.3-.4h.8l.6-.2.1-.2.4-.1.1-.4.4-.1.3-.4.5.3"/></g><g id="group-451"><path id="path-452" class="cls-1" d="M374.8,141.3l1.5.2.9-.4h1.6l.4-.3h.3l.4.6-1.4.5-.2.7-.6.2v.5H377l-.6-.3-.4.3-1.3-.1.4-.2-.5-.7.2-1"/></g><g id="group-453"><path id="path-454" class="cls-1" d="M390,106.7l-1.8,1.3.3,1.1-2.9,1.5-3.5,1.6-1.3,2.5,1.3,1.3,1.8,1-1.7,2-1.9.5-.6,3.1-1,1.7-2.2-.2-1,1.4-2.1.1-.6-1.7-1.5-2-1.4-2.6.8-1,1.5-1.2.6-2.1-1.1-.9-.1-2.4,1.2-1.7h1.8l.6-.7-.6-.6,2.8-2.5,1.8-2,1.2-1.3h1.8l.5-1,3.4.3.3-1.2,1.1-.1,2.4.9,2.8,1.2.1,2.8.6.7-3.4.2"/></g><g id="group-455"><path id="path-456" class="cls-1" d="M407.3,131.2l.6.1.5-.4.6.1,1.9-.2,1.1,1-.5.4.2.6,1.5.1.6.7v.4l2.3.6,1.4-.3,1.1.8h1l2.7.6v.6l-.7.9.4,1-.3.6-1.8.1-.9.5-.1.8-1.5.2-1.2.6-1.7.1-1.6.6.1,1.1.9.5,1.9-.1-.4.6-1.9.3-2.4,1-1-.4.4-.8-1.9-.6.3-.4,1.8-.6-.6-.4-2.8-.5-.1-.6-1.7.2-.6,1-1.4,1.3-.8-.3-.8.3-.8-.4.5-.2.3-.6.5-.6-.1-.3.4-.2.2.3,1,.1.5-.1-.4-.2.1-.3-.6-.5-.3-.7-.6-.3.1-.6-.8-.5-.7-.1-1.3-.6-1.2.2-.5.3H397l-.5.5-1.3.2-.6.3-.8-.5h-1.1l-1.1-.2-.7.4-.1-.5-1-.5.4-.7.5-.5.4.1-.5-.8,1.7-1.5.9-.2.2-.5-.9-1.6.8-.1,1-.5h1.4l1.9.2,2,.5H401l.6.3.6-.3.5.5,1.7-.1.7.2.1-.9.6-.4,1.5-.2"/></g></g></svg>